<?xml version="1.0" encoding="UTF-8" standalone="no"?>
<!-- Created with Inkscape (http://www.inkscape.org/) -->

<svg
   width="82.349937mm"
   height="81.948143mm"
   viewBox="0 0 82.349937 81.948143"
   version="1.1"
   id="svg1"
   inkscape:version="1.4.2 (ebf0e940, 2025-05-08)"
   sodipodi:docname="curve-on-torus.svg"
   xmlns:inkscape="http://www.inkscape.org/namespaces/inkscape"
   xmlns:sodipodi="http://sodipodi.sourceforge.net/DTD/sodipodi-0.dtd"
   xmlns="http://www.w3.org/2000/svg"
   xmlns:svg="http://www.w3.org/2000/svg"
   xmlns:ns1="http://www.iki.fi/pav/software/textext/">
  <sodipodi:namedview
     id="namedview1"
     pagecolor="#ffffff"
     bordercolor="#000000"
     borderopacity="0.25"
     inkscape:showpageshadow="2"
     inkscape:pageopacity="0.0"
     inkscape:pagecheckerboard="0"
     inkscape:deskcolor="#d1d1d1"
     inkscape:document-units="mm"
     showguides="true"
     inkscape:zoom="1.1866341"
     inkscape:cx="185.39835"
     inkscape:cy="180.76339"
     inkscape:window-width="1512"
     inkscape:window-height="921"
     inkscape:window-x="0"
     inkscape:window-y="33"
     inkscape:window-maximized="1"
     inkscape:current-layer="layer1" />
  <defs
     id="defs1">
    <marker
       style="overflow:visible"
       id="Triangle"
       refX="0"
       refY="0"
       orient="auto-start-reverse"
       inkscape:stockid="Triangle arrow"
       markerWidth="1"
       markerHeight="1"
       viewBox="0 0 1 1"
       inkscape:isstock="true"
       inkscape:collect="always"
       preserveAspectRatio="xMidYMid">
      <path
         transform="scale(0.5)"
         style="fill:context-stroke;fill-rule:evenodd;stroke:context-stroke;stroke-width:1pt"
         d="M 5.77,0 -2.88,5 V -5 Z"
         id="path135" />
    </marker>
    <marker
       style="overflow:visible"
       id="ArrowWideRounded"
       refX="0"
       refY="0"
       orient="auto-start-reverse"
       inkscape:stockid="Wide, rounded arrow"
       markerWidth="1"
       markerHeight="1"
       viewBox="0 0 1 1"
       inkscape:isstock="true"
       inkscape:collect="always"
       preserveAspectRatio="xMidYMid">
      <path
         style="fill:none;stroke:context-stroke;stroke-width:1;stroke-linecap:round"
         d="M 3,-3 0,0 3,3"
         transform="rotate(180,0.125,0)"
         sodipodi:nodetypes="ccc"
         id="path2" />
    </marker>
  </defs>
  <g
     inkscape:label="Layer 1"
     inkscape:groupmode="layer"
     id="layer1"
     transform="translate(-54.858389,-109.19202)">
    <path
       style="fill:none;fill-rule:evenodd;stroke:#0000ff;stroke-width:0.8;stroke-dasharray:none;marker-end:url(#ArrowWideRounded)"
       d="M 134.40833,158.76541 V 147.90208"
       id="path1" />
    <path
       style="fill:none;fill-rule:evenodd;stroke:#0000ff;stroke-width:0.8;stroke-dasharray:none;marker-end:url(#ArrowWideRounded)"
       d="M 61.912498,158.76541 V 147.90208"
       id="path3" />
    <path
       style="fill:none;fill-rule:evenodd;stroke:#0000ff;stroke-width:0.8;stroke-dasharray:none;marker-end:url(#Triangle)"
       d="M 84.45622,111.65417 H 95.31955"
       id="path4" />
    <path
       style="fill:none;fill-rule:evenodd;stroke:#0000ff;stroke-width:0.8;stroke-dasharray:none;marker-end:url(#Triangle)"
       d="M 84.45622,184.15 H 95.31955"
       id="path5" />
    <path
       style="font-variation-settings:normal;opacity:1;vector-effect:none;fill:#ececec;fill-opacity:1;fill-rule:evenodd;stroke:#008080;stroke-width:0.799999;stroke-linecap:butt;stroke-linejoin:miter;stroke-miterlimit:4;stroke-dasharray:none;stroke-dashoffset:0;stroke-opacity:1;-inkscape-stroke:none;marker-end:"
       d="M 61.912497,184.14999 134.40832,111.65417"
       id="path6" />
    <g
       transform="matrix(0.70695916,0,0,0.70695916,102.11705,147.16903)"
       ns1:version="1.10.2"
       ns1:texconverter="pdflatex"
       ns1:pdfconverter="inkscape"
       ns1:text="$1_{\\mathbb{S}^1}$"
       ns1:preamble="/Users/sachchidanandprasad/Library/Application Support/org.inkscape.Inkscape/config/inkscape/extensions/textext/default_packages.tex"
       ns1:scale="1.1793986635784621"
       ns1:alignment="middle center"
       ns1:stroke-to-path="0"
       ns1:jacobian_sqrt="0.416066"
       id="g9"
       style="stroke-width:0.588529">
      <defs
         id="id-90c93a42-5dfa-4867-b787-092801b4a952">
        <g
           id="id-e927d206-a39a-4b6a-afe8-ecec865e8c94">
          <g
             id="id-17bb2b3d-696d-42ba-bece-607b6eed3b24">
            <path
               d="m 2.9375,-6.375 c 0,-0.25 0,-0.265625 -0.234375,-0.265625 C 2.078125,-6 1.203125,-6 0.890625,-6 v 0.3125 c 0.203125,0 0.78125,0 1.296875,-0.265625 v 5.171875 c 0,0.359375 -0.03125,0.46875 -0.921875,0.46875 h -0.3125 V 0 c 0.34375,-0.03125 1.203125,-0.03125 1.609375,-0.03125 0.390625,0 1.265625,0 1.609375,0.03125 v -0.3125 h -0.3125 c -0.90625,0 -0.921875,-0.109375 -0.921875,-0.46875 z m 0,0"
               id="id-d7431f40-1298-4e78-ac55-7a66c655fd09" />
          </g>
          <g
             id="id-00cdbc8f-2638-4732-92a0-61a81e27171d">
            <path
               d="m 2.34375,-2.9375 c -0.625,-0.25 -1.3125,-0.53125 -1.3125,-1.015625 0,-0.375 0.265625,-0.703125 0.765625,-0.703125 0.5,0 1.171875,0.515625 1.3125,1.109375 0.015625,0.09375 0.03125,0.15625 0.125,0.15625 0.125,0 0.125,-0.109375 0.125,-0.21875 v -1.0625 c 0,-0.125 0,-0.234375 -0.125,-0.234375 -0.046875,0 -0.078125,0.03125 -0.109375,0.0625 -0.0625,0.0625 -0.15625,0.140625 -0.328125,0.140625 -0.171875,0 -0.34375,-0.0625 -0.421875,-0.09375 C 2.15625,-4.875 2,-4.90625 1.78125,-4.90625 c -0.9375,0 -1.578125,0.46875 -1.578125,1.390625 0,0.453125 0.1875,0.9375 1.265625,1.390625 C 2,-1.890625 2.75,-1.578125 2.75,-0.9375 c 0,0.484375 -0.21875,0.78125 -0.90625,0.78125 -0.359375,0 -0.671875,-0.203125 -0.921875,-0.453125 C 0.515625,-1.03125 0.5,-1.40625 0.5,-1.546875 c 0,-0.0625 -0.046875,-0.125 -0.109375,-0.125 -0.125,0 -0.125,0.109375 -0.125,0.234375 v 1.296875 c 0,0.109375 0,0.21875 0.125,0.21875 0.046875,0 0.0625,-0.015625 0.09375,-0.0625 0.125,-0.109375 0.25,-0.125 0.34375,-0.125 0.171875,0 0.34375,0.0625 0.40625,0.09375 0.28125,0.09375 0.484375,0.09375 0.59375,0.09375 1.015625,0 1.859375,-0.5 1.859375,-1.421875 0,-0.578125 -0.34375,-1.203125 -1.34375,-1.59375 z M 3.109375,-4.125 C 3.0625,-4.1875 3,-4.265625 2.8125,-4.46875 c 0.1875,0 0.296875,-0.0625 0.296875,-0.0625 z M 0.5,-0.28125 v -0.453125 h 0.015625 c 0,0 0.09375,0.171875 0.3125,0.375 -0.109375,0 -0.21875,0.015625 -0.328125,0.078125 z M 1.546875,-3 c 0.890625,0.359375 1.25,0.5 1.515625,0.78125 0.234375,0.234375 0.390625,0.5 0.390625,0.875 0,0.546875 -0.359375,0.828125 -0.5625,0.9375 0.09375,-0.203125 0.09375,-0.484375 0.09375,-0.53125 0,-0.734375 -0.71875,-1.125 -1.265625,-1.34375 C 1.0625,-2.5625 0.453125,-2.859375 0.453125,-3.515625 c 0,-0.328125 0.078125,-0.71875 0.453125,-0.9375 H 0.921875 C 0.796875,-4.25 0.78125,-4 0.78125,-3.953125 Z m 0,0"
               id="id-61ef44d9-1a42-42c7-913f-146b1ed615ad" />
          </g>
          <g
             id="id-ba8fb4c6-1896-46ca-bdd6-1c6d4dce8a50">
            <path
               d="M 1.984375,-3.171875 C 1.984375,-3.3125 1.96875,-3.3125 1.796875,-3.3125 1.453125,-3 0.890625,-3 0.796875,-3 H 0.71875 v 0.21875 h 0.078125 c 0.109375,0 0.4375,-0.015625 0.734375,-0.140625 v 2.5 c 0,0.140625 0,0.203125 -0.53125,0.203125 H 0.75 V 0 c 0.265625,-0.015625 0.71875,-0.015625 1,-0.015625 0.296875,0 0.734375,0 1.015625,0.015625 v -0.21875 h -0.25 c -0.53125,0 -0.53125,-0.0625 -0.53125,-0.203125 z m 0,0"
               id="id-17c10a57-2948-42c1-b3cc-81797962cd3f" />
          </g>
        </g>
      </defs>
      <g
         fill="#000000"
         fill-opacity="1"
         id="id-4ed1f56e-2d5f-43f2-bc03-80e228b341ad"
         transform="translate(-149.603,-128.124)"
         style="stroke-width:0.588529">
        <g
           transform="translate(148.712,134.765)"
           id="g6"
           style="stroke-width:0.588529">
          <path
             d="m 2.9375,-6.375 c 0,-0.25 0,-0.265625 -0.234375,-0.265625 C 2.078125,-6 1.203125,-6 0.890625,-6 v 0.3125 c 0.203125,0 0.78125,0 1.296875,-0.265625 v 5.171875 c 0,0.359375 -0.03125,0.46875 -0.921875,0.46875 h -0.3125 V 0 c 0.34375,-0.03125 1.203125,-0.03125 1.609375,-0.03125 0.390625,0 1.265625,0 1.609375,0.03125 v -0.3125 h -0.3125 c -0.90625,0 -0.921875,-0.109375 -0.921875,-0.46875 z m 0,0"
             id="id-a2459f30-9700-4d2a-a87c-c168f41b04f5"
             style="stroke-width:0.588529" />
        </g>
      </g>
      <g
         fill="#000000"
         fill-opacity="1"
         id="id-1fc0e0e7-2068-4b67-a44f-48a714730ef1"
         transform="translate(-149.603,-128.124)"
         style="stroke-width:0.588529">
        <g
           transform="translate(153.694,136.536)"
           id="g7"
           style="stroke-width:0.588529">
          <path
             d="m 2.34375,-2.9375 c -0.625,-0.25 -1.3125,-0.53125 -1.3125,-1.015625 0,-0.375 0.265625,-0.703125 0.765625,-0.703125 0.5,0 1.171875,0.515625 1.3125,1.109375 0.015625,0.09375 0.03125,0.15625 0.125,0.15625 0.125,0 0.125,-0.109375 0.125,-0.21875 v -1.0625 c 0,-0.125 0,-0.234375 -0.125,-0.234375 -0.046875,0 -0.078125,0.03125 -0.109375,0.0625 -0.0625,0.0625 -0.15625,0.140625 -0.328125,0.140625 -0.171875,0 -0.34375,-0.0625 -0.421875,-0.09375 C 2.15625,-4.875 2,-4.90625 1.78125,-4.90625 c -0.9375,0 -1.578125,0.46875 -1.578125,1.390625 0,0.453125 0.1875,0.9375 1.265625,1.390625 C 2,-1.890625 2.75,-1.578125 2.75,-0.9375 c 0,0.484375 -0.21875,0.78125 -0.90625,0.78125 -0.359375,0 -0.671875,-0.203125 -0.921875,-0.453125 C 0.515625,-1.03125 0.5,-1.40625 0.5,-1.546875 c 0,-0.0625 -0.046875,-0.125 -0.109375,-0.125 -0.125,0 -0.125,0.109375 -0.125,0.234375 v 1.296875 c 0,0.109375 0,0.21875 0.125,0.21875 0.046875,0 0.0625,-0.015625 0.09375,-0.0625 0.125,-0.109375 0.25,-0.125 0.34375,-0.125 0.171875,0 0.34375,0.0625 0.40625,0.09375 0.28125,0.09375 0.484375,0.09375 0.59375,0.09375 1.015625,0 1.859375,-0.5 1.859375,-1.421875 0,-0.578125 -0.34375,-1.203125 -1.34375,-1.59375 z M 3.109375,-4.125 C 3.0625,-4.1875 3,-4.265625 2.8125,-4.46875 c 0.1875,0 0.296875,-0.0625 0.296875,-0.0625 z M 0.5,-0.28125 v -0.453125 h 0.015625 c 0,0 0.09375,0.171875 0.3125,0.375 -0.109375,0 -0.21875,0.015625 -0.328125,0.078125 z M 1.546875,-3 c 0.890625,0.359375 1.25,0.5 1.515625,0.78125 0.234375,0.234375 0.390625,0.5 0.390625,0.875 0,0.546875 -0.359375,0.828125 -0.5625,0.9375 0.09375,-0.203125 0.09375,-0.484375 0.09375,-0.53125 0,-0.734375 -0.71875,-1.125 -1.265625,-1.34375 C 1.0625,-2.5625 0.453125,-2.859375 0.453125,-3.515625 c 0,-0.328125 0.078125,-0.71875 0.453125,-0.9375 H 0.921875 C 0.796875,-4.25 0.78125,-4 0.78125,-3.953125 Z m 0,0"
             id="id-f4b8b5e7-011c-4eb7-941c-57d7e7e1efb5"
             style="stroke-width:0.588529" />
        </g>
      </g>
      <g
         fill="#000000"
         fill-opacity="1"
         id="id-0d95b2e6-c1cd-4a5a-8800-a6ff0f628794"
         transform="translate(-149.603,-128.124)"
         style="stroke-width:0.588529">
        <g
           transform="translate(157.568,134.543)"
           id="g8"
           style="stroke-width:0.588529">
          <path
             d="M 1.984375,-3.171875 C 1.984375,-3.3125 1.96875,-3.3125 1.796875,-3.3125 1.453125,-3 0.890625,-3 0.796875,-3 H 0.71875 v 0.21875 h 0.078125 c 0.109375,0 0.4375,-0.015625 0.734375,-0.140625 v 2.5 c 0,0.140625 0,0.203125 -0.53125,0.203125 H 0.75 V 0 c 0.265625,-0.015625 0.71875,-0.015625 1,-0.015625 0.296875,0 0.734375,0 1.015625,0.015625 v -0.21875 h -0.25 c -0.53125,0 -0.53125,-0.0625 -0.53125,-0.203125 z m 0,0"
             id="id-fe217b8d-58fd-40e3-a10f-4f170b1b0cba"
             style="stroke-width:0.588529" />
        </g>
      </g>
    </g>
    <g
       transform="matrix(0.57281089,0,0,0.57281089,98.114566,186.34802)"
       ns1:version="1.10.2"
       ns1:texconverter="pdflatex"
       ns1:pdfconverter="inkscape"
       ns1:text="$\\mathbb{S}^1$"
       ns1:preamble="/Users/sachchidanandprasad/Library/Application Support/org.inkscape.Inkscape/config/inkscape/extensions/textext/default_packages.tex"
       ns1:scale="1.1793986635784621"
       ns1:alignment="middle center"
       ns1:stroke-to-path="0"
       ns1:jacobian_sqrt="0.416066"
       id="g12"
       style="stroke-width:0.726358">
      <defs
         id="id-4e73e4d4-3485-4707-94bc-e07122a66c79">
        <g
           id="id-12575431-01ac-420f-9ad6-53d568f703c1">
          <g
             id="id-190d2ccd-41e5-431f-92e1-e508ab781989">
            <path
               d="m 0.71875,-1.046875 h 0.015625 c 0,0 0.140625,0.234375 0.453125,0.53125 -0.15625,0 -0.3125,0.03125 -0.46875,0.109375 z m 1.375,-2 c 0.78125,0.328125 1.828125,0.78125 1.828125,1.703125 0,0.703125 -0.296875,1.109375 -1.296875,1.109375 -0.515625,0 -0.953125,-0.28125 -1.296875,-0.640625 C 0.734375,-1.46875 0.71875,-2 0.71875,-2.21875 0.71875,-2.3125 0.640625,-2.390625 0.546875,-2.390625 0.375,-2.390625 0.375,-2.234375 0.375,-2.0625 v 1.859375 c 0,0.15625 0,0.328125 0.171875,0.328125 0.078125,0 0.09375,-0.03125 0.15625,-0.09375 0.171875,-0.15625 0.34375,-0.1875 0.46875,-0.1875 0.265625,0 0.5,0.09375 0.59375,0.125 C 2.171875,0.125 2.46875,0.125 2.625,0.125 c 1.4375,0 2.65625,-0.734375 2.65625,-2.03125 0,-0.84375 -0.5,-1.75 -1.9375,-2.296875 -0.875,-0.359375 -1.875,-0.75 -1.875,-1.453125 0,-0.546875 0.390625,-1.015625 1.109375,-1.015625 0.71875,0 1.671875,0.75 1.875,1.59375 C 4.46875,-4.9375 4.5,-4.84375 4.640625,-4.84375 4.8125,-4.84375 4.8125,-5 4.8125,-5.171875 V -6.6875 c 0,-0.171875 0,-0.328125 -0.171875,-0.328125 -0.078125,0 -0.125,0.046875 -0.171875,0.078125 C 4.390625,-6.84375 4.25,-6.734375 4,-6.734375 c -0.25,0 -0.484375,-0.078125 -0.59375,-0.125 -0.328125,-0.125 -0.5625,-0.15625 -0.859375,-0.15625 -1.34375,0 -2.25,0.671875 -2.25,1.984375 0,0.65625 0.265625,1.328125 1.796875,1.984375 z m 2.359375,-2.84375 c -0.0625,-0.109375 -0.15625,-0.203125 -0.4375,-0.5 0.265625,-0.015625 0.4375,-0.09375 0.4375,-0.09375 z M 4.125,-0.59375 c 0.140625,-0.28125 0.15625,-0.6875 0.15625,-0.75 0,-1.046875 -1.046875,-1.59375 -1.8125,-1.921875 -0.9375,-0.40625 -1.828125,-0.828125 -1.828125,-1.765625 0,-0.46875 0.125,-1.03125 0.671875,-1.34375 v 0.015625 c -0.171875,0.28125 -0.1875,0.625 -0.1875,0.703125 0,0.90625 1.09375,1.375 2,1.734375 0.359375,0.140625 0.875,0.34375 1.265625,0.734375 0.3125,0.359375 0.546875,0.734375 0.546875,1.28125 0,0.765625 -0.515625,1.15625 -0.8125,1.3125 z m 0,0"
               id="id-054d5767-417e-4136-a62b-a8d332ad5c5f" />
          </g>
          <g
             id="id-fdb28a04-2d34-45a4-9525-ef5e2986cf2b">
            <path
               d="m 2.328125,-4.4375 c 0,-0.1875 0,-0.1875 -0.203125,-0.1875 -0.453125,0.4375 -1.078125,0.4375 -1.359375,0.4375 v 0.25 c 0.15625,0 0.625,0 1,-0.1875 v 3.546875 c 0,0.234375 0,0.328125 -0.6875,0.328125 H 0.8125 V 0 c 0.125,0 0.984375,-0.03125 1.234375,-0.03125 0.21875,0 1.09375,0.03125 1.25,0.03125 V -0.25 H 3.03125 c -0.703125,0 -0.703125,-0.09375 -0.703125,-0.328125 z m 0,0"
               id="id-b415f67e-483f-4931-80aa-c2340f693856" />
          </g>
        </g>
      </defs>
      <g
         fill="#000000"
         fill-opacity="1"
         id="id-fe0a1680-a620-4fdf-9540-e2397b0dff23"
         transform="translate(-149.009,-126.524)"
         style="stroke-width:0.726358">
        <g
           transform="translate(148.712,134.765)"
           id="g10"
           style="stroke-width:0.726358">
          <path
             d="m 0.71875,-1.046875 h 0.015625 c 0,0 0.140625,0.234375 0.453125,0.53125 -0.15625,0 -0.3125,0.03125 -0.46875,0.109375 z m 1.375,-2 c 0.78125,0.328125 1.828125,0.78125 1.828125,1.703125 0,0.703125 -0.296875,1.109375 -1.296875,1.109375 -0.515625,0 -0.953125,-0.28125 -1.296875,-0.640625 C 0.734375,-1.46875 0.71875,-2 0.71875,-2.21875 0.71875,-2.3125 0.640625,-2.390625 0.546875,-2.390625 0.375,-2.390625 0.375,-2.234375 0.375,-2.0625 v 1.859375 c 0,0.15625 0,0.328125 0.171875,0.328125 0.078125,0 0.09375,-0.03125 0.15625,-0.09375 0.171875,-0.15625 0.34375,-0.1875 0.46875,-0.1875 0.265625,0 0.5,0.09375 0.59375,0.125 C 2.171875,0.125 2.46875,0.125 2.625,0.125 c 1.4375,0 2.65625,-0.734375 2.65625,-2.03125 0,-0.84375 -0.5,-1.75 -1.9375,-2.296875 -0.875,-0.359375 -1.875,-0.75 -1.875,-1.453125 0,-0.546875 0.390625,-1.015625 1.109375,-1.015625 0.71875,0 1.671875,0.75 1.875,1.59375 C 4.46875,-4.9375 4.5,-4.84375 4.640625,-4.84375 4.8125,-4.84375 4.8125,-5 4.8125,-5.171875 V -6.6875 c 0,-0.171875 0,-0.328125 -0.171875,-0.328125 -0.078125,0 -0.125,0.046875 -0.171875,0.078125 C 4.390625,-6.84375 4.25,-6.734375 4,-6.734375 c -0.25,0 -0.484375,-0.078125 -0.59375,-0.125 -0.328125,-0.125 -0.5625,-0.15625 -0.859375,-0.15625 -1.34375,0 -2.25,0.671875 -2.25,1.984375 0,0.65625 0.265625,1.328125 1.796875,1.984375 z m 2.359375,-2.84375 c -0.0625,-0.109375 -0.15625,-0.203125 -0.4375,-0.5 0.265625,-0.015625 0.4375,-0.09375 0.4375,-0.09375 z M 4.125,-0.59375 c 0.140625,-0.28125 0.15625,-0.6875 0.15625,-0.75 0,-1.046875 -1.046875,-1.59375 -1.8125,-1.921875 -0.9375,-0.40625 -1.828125,-0.828125 -1.828125,-1.765625 0,-0.46875 0.125,-1.03125 0.671875,-1.34375 v 0.015625 c -0.171875,0.28125 -0.1875,0.625 -0.1875,0.703125 0,0.90625 1.09375,1.375 2,1.734375 0.359375,0.140625 0.875,0.34375 1.265625,0.734375 0.3125,0.359375 0.546875,0.734375 0.546875,1.28125 0,0.765625 -0.515625,1.15625 -0.8125,1.3125 z m 0,0"
             id="id-304dcfe3-c3f6-4b99-88f7-71342120860a"
             style="stroke-width:0.726358" />
        </g>
      </g>
      <g
         fill="#000000"
         fill-opacity="1"
         id="id-665485c3-74f4-460b-97d2-757a4c3f0abd"
         transform="translate(-149.009,-126.524)"
         style="stroke-width:0.726358">
        <g
           transform="translate(154.247,131.149)"
           id="g11"
           style="stroke-width:0.726358">
          <path
             d="m 2.328125,-4.4375 c 0,-0.1875 0,-0.1875 -0.203125,-0.1875 -0.453125,0.4375 -1.078125,0.4375 -1.359375,0.4375 v 0.25 c 0.15625,0 0.625,0 1,-0.1875 v 3.546875 c 0,0.234375 0,0.328125 -0.6875,0.328125 H 0.8125 V 0 c 0.125,0 0.984375,-0.03125 1.234375,-0.03125 0.21875,0 1.09375,0.03125 1.25,0.03125 V -0.25 H 3.03125 c -0.703125,0 -0.703125,-0.09375 -0.703125,-0.328125 z m 0,0"
             id="id-d1c18ece-1b6c-4c38-a444-e22f4b0d8b8e"
             style="stroke-width:0.726358" />
        </g>
      </g>
    </g>
    <g
       transform="matrix(0.57281089,0,0,0.57281089,54.858461,136.84877)"
       ns1:version="1.10.2"
       ns1:texconverter="pdflatex"
       ns1:pdfconverter="inkscape"
       ns1:text="$\\mathbb{S}^1$"
       ns1:preamble="/Users/sachchidanandprasad/Library/Application Support/org.inkscape.Inkscape/config/inkscape/extensions/textext/default_packages.tex"
       ns1:scale="1.1793986635784621"
       ns1:alignment="middle center"
       ns1:stroke-to-path="0"
       ns1:jacobian_sqrt="0.416066"
       id="g20"
       style="stroke-width:0.726358">
      <defs
         id="defs15">
        <g
           id="g15">
          <g
             id="g13">
            <path
               d="m 0.71875,-1.046875 h 0.015625 c 0,0 0.140625,0.234375 0.453125,0.53125 -0.15625,0 -0.3125,0.03125 -0.46875,0.109375 z m 1.375,-2 c 0.78125,0.328125 1.828125,0.78125 1.828125,1.703125 0,0.703125 -0.296875,1.109375 -1.296875,1.109375 -0.515625,0 -0.953125,-0.28125 -1.296875,-0.640625 C 0.734375,-1.46875 0.71875,-2 0.71875,-2.21875 0.71875,-2.3125 0.640625,-2.390625 0.546875,-2.390625 0.375,-2.390625 0.375,-2.234375 0.375,-2.0625 v 1.859375 c 0,0.15625 0,0.328125 0.171875,0.328125 0.078125,0 0.09375,-0.03125 0.15625,-0.09375 0.171875,-0.15625 0.34375,-0.1875 0.46875,-0.1875 0.265625,0 0.5,0.09375 0.59375,0.125 C 2.171875,0.125 2.46875,0.125 2.625,0.125 c 1.4375,0 2.65625,-0.734375 2.65625,-2.03125 0,-0.84375 -0.5,-1.75 -1.9375,-2.296875 -0.875,-0.359375 -1.875,-0.75 -1.875,-1.453125 0,-0.546875 0.390625,-1.015625 1.109375,-1.015625 0.71875,0 1.671875,0.75 1.875,1.59375 C 4.46875,-4.9375 4.5,-4.84375 4.640625,-4.84375 4.8125,-4.84375 4.8125,-5 4.8125,-5.171875 V -6.6875 c 0,-0.171875 0,-0.328125 -0.171875,-0.328125 -0.078125,0 -0.125,0.046875 -0.171875,0.078125 C 4.390625,-6.84375 4.25,-6.734375 4,-6.734375 c -0.25,0 -0.484375,-0.078125 -0.59375,-0.125 -0.328125,-0.125 -0.5625,-0.15625 -0.859375,-0.15625 -1.34375,0 -2.25,0.671875 -2.25,1.984375 0,0.65625 0.265625,1.328125 1.796875,1.984375 z m 2.359375,-2.84375 c -0.0625,-0.109375 -0.15625,-0.203125 -0.4375,-0.5 0.265625,-0.015625 0.4375,-0.09375 0.4375,-0.09375 z M 4.125,-0.59375 c 0.140625,-0.28125 0.15625,-0.6875 0.15625,-0.75 0,-1.046875 -1.046875,-1.59375 -1.8125,-1.921875 -0.9375,-0.40625 -1.828125,-0.828125 -1.828125,-1.765625 0,-0.46875 0.125,-1.03125 0.671875,-1.34375 v 0.015625 c -0.171875,0.28125 -0.1875,0.625 -0.1875,0.703125 0,0.90625 1.09375,1.375 2,1.734375 0.359375,0.140625 0.875,0.34375 1.265625,0.734375 0.3125,0.359375 0.546875,0.734375 0.546875,1.28125 0,0.765625 -0.515625,1.15625 -0.8125,1.3125 z m 0,0"
               id="path12" />
          </g>
          <g
             id="g14">
            <path
               d="m 2.328125,-4.4375 c 0,-0.1875 0,-0.1875 -0.203125,-0.1875 -0.453125,0.4375 -1.078125,0.4375 -1.359375,0.4375 v 0.25 c 0.15625,0 0.625,0 1,-0.1875 v 3.546875 c 0,0.234375 0,0.328125 -0.6875,0.328125 H 0.8125 V 0 c 0.125,0 0.984375,-0.03125 1.234375,-0.03125 0.21875,0 1.09375,0.03125 1.25,0.03125 V -0.25 H 3.03125 c -0.703125,0 -0.703125,-0.09375 -0.703125,-0.328125 z m 0,0"
               id="path13" />
          </g>
        </g>
      </defs>
      <g
         fill="#000000"
         fill-opacity="1"
         id="g17"
         transform="translate(-149.009,-126.524)"
         style="stroke-width:0.726358">
        <g
           transform="translate(148.712,134.765)"
           id="g16"
           style="stroke-width:0.726358">
          <path
             d="m 0.71875,-1.046875 h 0.015625 c 0,0 0.140625,0.234375 0.453125,0.53125 -0.15625,0 -0.3125,0.03125 -0.46875,0.109375 z m 1.375,-2 c 0.78125,0.328125 1.828125,0.78125 1.828125,1.703125 0,0.703125 -0.296875,1.109375 -1.296875,1.109375 -0.515625,0 -0.953125,-0.28125 -1.296875,-0.640625 C 0.734375,-1.46875 0.71875,-2 0.71875,-2.21875 0.71875,-2.3125 0.640625,-2.390625 0.546875,-2.390625 0.375,-2.390625 0.375,-2.234375 0.375,-2.0625 v 1.859375 c 0,0.15625 0,0.328125 0.171875,0.328125 0.078125,0 0.09375,-0.03125 0.15625,-0.09375 0.171875,-0.15625 0.34375,-0.1875 0.46875,-0.1875 0.265625,0 0.5,0.09375 0.59375,0.125 C 2.171875,0.125 2.46875,0.125 2.625,0.125 c 1.4375,0 2.65625,-0.734375 2.65625,-2.03125 0,-0.84375 -0.5,-1.75 -1.9375,-2.296875 -0.875,-0.359375 -1.875,-0.75 -1.875,-1.453125 0,-0.546875 0.390625,-1.015625 1.109375,-1.015625 0.71875,0 1.671875,0.75 1.875,1.59375 C 4.46875,-4.9375 4.5,-4.84375 4.640625,-4.84375 4.8125,-4.84375 4.8125,-5 4.8125,-5.171875 V -6.6875 c 0,-0.171875 0,-0.328125 -0.171875,-0.328125 -0.078125,0 -0.125,0.046875 -0.171875,0.078125 C 4.390625,-6.84375 4.25,-6.734375 4,-6.734375 c -0.25,0 -0.484375,-0.078125 -0.59375,-0.125 -0.328125,-0.125 -0.5625,-0.15625 -0.859375,-0.15625 -1.34375,0 -2.25,0.671875 -2.25,1.984375 0,0.65625 0.265625,1.328125 1.796875,1.984375 z m 2.359375,-2.84375 c -0.0625,-0.109375 -0.15625,-0.203125 -0.4375,-0.5 0.265625,-0.015625 0.4375,-0.09375 0.4375,-0.09375 z M 4.125,-0.59375 c 0.140625,-0.28125 0.15625,-0.6875 0.15625,-0.75 0,-1.046875 -1.046875,-1.59375 -1.8125,-1.921875 -0.9375,-0.40625 -1.828125,-0.828125 -1.828125,-1.765625 0,-0.46875 0.125,-1.03125 0.671875,-1.34375 v 0.015625 c -0.171875,0.28125 -0.1875,0.625 -0.1875,0.703125 0,0.90625 1.09375,1.375 2,1.734375 0.359375,0.140625 0.875,0.34375 1.265625,0.734375 0.3125,0.359375 0.546875,0.734375 0.546875,1.28125 0,0.765625 -0.515625,1.15625 -0.8125,1.3125 z m 0,0"
             id="path15"
             style="stroke-width:0.726358" />
        </g>
      </g>
      <g
         fill="#000000"
         fill-opacity="1"
         id="g19"
         transform="translate(-149.009,-126.524)"
         style="stroke-width:0.726358">
        <g
           transform="translate(154.247,131.149)"
           id="g18"
           style="stroke-width:0.726358">
          <path
             d="m 2.328125,-4.4375 c 0,-0.1875 0,-0.1875 -0.203125,-0.1875 -0.453125,0.4375 -1.078125,0.4375 -1.359375,0.4375 v 0.25 c 0.15625,0 0.625,0 1,-0.1875 v 3.546875 c 0,0.234375 0,0.328125 -0.6875,0.328125 H 0.8125 V 0 c 0.125,0 0.984375,-0.03125 1.234375,-0.03125 0.21875,0 1.09375,0.03125 1.25,0.03125 V -0.25 H 3.03125 c -0.703125,0 -0.703125,-0.09375 -0.703125,-0.328125 z m 0,0"
             id="path17"
             style="stroke-width:0.726358" />
        </g>
      </g>
    </g>
    <rect
       style="fill:#0000ff;fill-rule:evenodd;stroke:#0000ff;stroke-width:0.8;fill-opacity:0.15882353;stroke-dasharray:none"
       id="rect1"
       width="72.495834"
       height="72.495834"
       x="61.912498"
       y="111.65417" />
  </g>
</svg>
