<?xml version="1.0" encoding="UTF-8" standalone="no"?>
<!-- Created with Inkscape (http://www.inkscape.org/) -->

<svg
   width="143.89856mm"
   height="143.89856mm"
   viewBox="0 0 143.89856 143.89856"
   version="1.1"
   id="svg2556"
   inkscape:version="1.2.2 (1:1.2.2+202212051550+b0a8486541)"
   sodipodi:docname="cutLocusEuclideanSpacePoint-03.svg"
   xmlns:inkscape="http://www.inkscape.org/namespaces/inkscape"
   xmlns:sodipodi="http://sodipodi.sourceforge.net/DTD/sodipodi-0.dtd"
   xmlns="http://www.w3.org/2000/svg"
   xmlns:svg="http://www.w3.org/2000/svg">
  <sodipodi:namedview
     id="namedview2558"
     pagecolor="#18453b"
     bordercolor="#999999"
     borderopacity="1"
     inkscape:showpageshadow="0"
     inkscape:pageopacity="0"
     inkscape:pagecheckerboard="0"
     inkscape:deskcolor="#d1d1d1"
     inkscape:document-units="mm"
     showgrid="false"
     inkscape:zoom="1.1893044"
     inkscape:cx="258.97491"
     inkscape:cy="302.27753"
     inkscape:window-width="1600"
     inkscape:window-height="832"
     inkscape:window-x="0"
     inkscape:window-y="32"
     inkscape:window-maximized="1"
     inkscape:current-layer="layer1" />
  <defs
     id="defs2553">
    <clipPath
       id="clipPath2">
      <path
         d="M 0,0 H 6.96875 V 6.96875 H 0 Z m 0,0"
         id="path3832" />
    </clipPath>
    <marker
       style="overflow:visible"
       id="TriangleStart-3"
       refX="0"
       refY="0"
       orient="auto-start-reverse"
       inkscape:stockid="TriangleStart"
       markerWidth="5.3244081"
       markerHeight="6.155385"
       viewBox="0 0 5.3244081 6.1553851"
       inkscape:isstock="true"
       inkscape:collect="always"
       preserveAspectRatio="xMidYMid">
      <path
         transform="scale(0.5)"
         style="fill:context-stroke;fill-rule:evenodd;stroke:context-stroke;stroke-width:1pt"
         d="M 5.77,0 -2.88,5 V -5 Z"
         id="path135-5" />
    </marker>
    <marker
       style="overflow:visible"
       id="Arrow5"
       refX="0"
       refY="0"
       orient="auto-start-reverse"
       inkscape:stockid="Arrow5"
       markerWidth="5.8874264"
       markerHeight="6.6094756"
       viewBox="0 0 5.8874262 6.6094758"
       inkscape:isstock="true"
       inkscape:collect="always"
       preserveAspectRatio="xMidYMid">
      <path
         transform="scale(0.5)"
         style="fill:context-stroke;fill-rule:evenodd;stroke:context-stroke;stroke-width:1pt"
         d="m 6,0 c -3,1 -7,3 -9,5 0,0 0,-4 2,-5 -2,-1 -2,-5 -2,-5 2,2 6,4 9,5 z"
         id="path8893" />
    </marker>
    <clipPath
       id="clipPath2-9">
      <path
         d="M 0,0 H 6.96875 V 6.96875 H 0 Z m 0,0"
         id="path3832-1" />
    </clipPath>
  </defs>
  <g
     inkscape:label="Layer 1"
     inkscape:groupmode="layer"
     id="layer1"
     transform="translate(-49.6903,-261.11401)">
    <path
       style="fill:none;stroke:#ffff00;stroke-width:0.565;stroke-linecap:butt;stroke-linejoin:miter;stroke-dasharray:none;stroke-opacity:1;marker-end:url(#TriangleStart-3)"
       d="M 49.6903,334.06647 H 191.5825"
       id="path504" />
    <path
       style="fill:none;stroke:#ffff00;stroke-width:0.565;stroke-linecap:butt;stroke-linejoin:miter;stroke-dasharray:none;stroke-opacity:1;marker-end:url(#TriangleStart-3)"
       d="M 120.6364,405.01257 V 263.12037"
       id="path506" />
    <path
       style="font-variation-settings:normal;vector-effect:none;fill:#00ff00;fill-opacity:1;stroke:#00ff00;stroke-width:0.565;stroke-linecap:butt;stroke-linejoin:miter;stroke-miterlimit:4;stroke-dasharray:none;stroke-dashoffset:0;stroke-opacity:1;-inkscape-stroke:none;marker-end:url(#Arrow5);stop-color:#000000"
       d="m 120.6364,334.06647 41.55973,-17.45371"
       id="path510" />
    <g
       inkscape:label=""
       transform="matrix(2.1505698,0,0,2.1505698,123.58203,339.0669)"
       id="g522"
       style="fill:#00ffff">
      <g
         id="g520"
         transform="matrix(0.352778,0,0,0.352778,-0.143316,0.0201965)"
         style="fill:#00ffff">
        <g
           clip-path="url(#clipPath2-9)"
           clip-rule="nonzero"
           id="g518"
           style="fill:#00ffff">
          <g
             style="fill:#00ffff;fill-opacity:1"
             id="g516">
            <g
               id="g514"
               transform="translate(0,4.849)"
               style="fill:#00ffff">
              <path
                 style="fill:#00ffff;stroke:none"
                 d="m 2.40625,-3.59375 c 0,-0.203125 0,-0.21875 0.15625,-0.359375 0.4375,-0.453125 1,-0.515625 1.25,-0.515625 0.71875,0 1.328125,0.65625 1.328125,2.03125 0,1.546875 -0.75,2.109375 -1.46875,2.109375 -0.15625,0 -0.65625,0 -1.15625,-0.59375 C 2.40625,-1.0625 2.40625,-1.0625 2.40625,-1.28125 Z m 0,3.171875 c 0.46875,0.375 0.9375,0.484375 1.390625,0.484375 1.640625,0 2.75,-0.984375 2.75,-2.5 0,-1.4375 -1,-2.46875 -2.5625,-2.46875 -0.828125,0 -1.40625,0.34375 -1.65625,0.53125 V -4.90625 L 0.40625,-4.828125 V -4.3125 c 0.671875,0 0.75,0 0.75,0.421875 v 5.5 h -0.75 v 0.5 c 0.296875,0 0.953125,-0.03125 1.375,-0.03125 0.421875,0 1.0625,0.03125 1.375,0.03125 v -0.5 h -0.75 z m 0,0"
                 id="path512" />
            </g>
          </g>
        </g>
      </g>
    </g>
    <path
       id="ellipse524"
       style="vector-effect:none;fill:#00ffff;fill-rule:evenodd;stroke:#00ffff;stroke-width:0.152048;paint-order:fill stroke markers;stop-color:#000000"
       d="m 122.06037,334.06647 a 1.4239762,1.4239765 0 0 1 -1.42397,1.42397 1.4239762,1.4239765 0 0 1 -1.42398,-1.42397 1.4239762,1.4239765 0 0 1 1.42398,-1.42398 1.4239762,1.4239765 0 0 1 1.42397,1.42398 z" />
  </g>
</svg>
