<?xml version="1.0" encoding="UTF-8" standalone="no"?>
<svg
   width="308.576590485"
   height="324.068652917"
   viewBox="0 0 976 1025"
   version="1.1"
   id="svg2"
   inkscape:version="1.2.2 (1:1.2.2+202212051550+b0a8486541)"
   sodipodi:docname="IISERK-Logo.svg"
   xmlns:inkscape="http://www.inkscape.org/namespaces/inkscape"
   xmlns:sodipodi="http://sodipodi.sourceforge.net/DTD/sodipodi-0.dtd"
   xmlns="http://www.w3.org/2000/svg"
   xmlns:svg="http://www.w3.org/2000/svg"
   xmlns:rdf="http://www.w3.org/1999/02/22-rdf-syntax-ns#"
   xmlns:cc="http://creativecommons.org/ns#"
   xmlns:dc="http://purl.org/dc/elements/1.1/">
  <metadata
     id="metadata60">
    <rdf:RDF>
      <cc:Work
         rdf:about="">
        <dc:format>image/svg+xml</dc:format>
        <dc:type
           rdf:resource="http://purl.org/dc/dcmitype/StillImage" />
        <dc:title />
      </cc:Work>
    </rdf:RDF>
  </metadata>
  <defs
     id="defs58" />
  <sodipodi:namedview
     pagecolor="#ffffff"
     bordercolor="#666666"
     borderopacity="1"
     objecttolerance="10"
     gridtolerance="10"
     guidetolerance="10"
     inkscape:pageopacity="0"
     inkscape:pageshadow="2"
     inkscape:window-width="1600"
     inkscape:window-height="832"
     id="namedview56"
     showgrid="false"
     inkscape:zoom="1.4707821"
     inkscape:cx="145.16086"
     inkscape:cy="192.07468"
     inkscape:window-x="0"
     inkscape:window-y="32"
     inkscape:window-maximized="1"
     inkscape:current-layer="g4697"
     inkscape:showpageshadow="0"
     inkscape:pagecheckerboard="0"
     inkscape:deskcolor="#d1d1d1" />
  <g
     id="g4697">
    <path
       id="path8"
       d="m 447.9,226.83 c 8.24,-4.47 16.34,-9.19 24.77,-13.31 18.32,10.94 36.81,21.86 53.18,35.65 11.87,10.37 22.61,22.62 28.58,37.39 3.96,9.84 6.73,20.44 6.49,31.1 -1.88,14.85 -6.37,29.65 -15.06,41.99 -5.15,-7.97 -9.75,-16.34 -15.94,-23.58 -19.75,-24.16 -47.01,-40.6 -74.59,-54.39 -20.55,-10.23 -41.86,-18.81 -62.78,-28.25 18.52,-8.72 37.37,-16.78 55.35,-26.6 z"
       inkscape:connector-curvature="0"
       style="fill:#8d8d8d" />
    <path
       id="path12"
       d="m 224.35,315.63 c 2.1,7.92 3.35,16.08 6.31,23.75 2.28,6 5.08,11.8 8.16,17.44 12.93,21.78 31.32,39.79 51.42,54.97 13.3,10 27.34,19.02 41.94,27 18.85,9.69 38.74,17.08 58.2,25.42 -36.61,15.39 -73.61,30.52 -107.19,51.98 -17.72,-9.9 -35.89,-19.08 -54.76,-26.6 -18.03,-7.02 -36.64,-13.23 -56.01,-15.04 -16.41,-1.6 -32.96,-2.3 -49.43,-1.41 -16.15,0.65 -32.42,1.79 -48.12,5.83 -0.28,108.34 0,216.68 -0.14,325.03 -0.01,3.55 0.08,7.12 0.22,10.69 89.77,-0.06 179.55,0.17 269.32,-0.12 -31.33,-13.53 -62.31,-29.11 -88.31,-51.55 -12.23,-10.57 -23.31,-22.8 -30.85,-37.19 -4.83,-9.14 -7.98,-19.23 -8.54,-29.59 2.21,-15.49 5.66,-31.19 13.98,-44.66 3.54,6.04 6.64,12.38 10.9,17.99 10.61,14.29 24.44,25.82 38.84,36.13 26.65,18.88 55.81,33.86 85.25,47.85 18.95,8.86 38.1,17.29 57.32,25.54 1.89,0.83 3.74,1.78 5.56,2.78 -6.87,3.22 -14.11,5.56 -21.13,8.44 -20.96,8.3 -41.68,17.22 -62.72,25.32 -19.39,7.61 -38.77,15.21 -58.15,22.82 -4.35,1.64 -8.62,4.01 -13.39,3.93 -75.11,-0.11 -150.22,0.13 -225.33,-0.12 -0.22,-127.77 -0.1,-255.54 -0.06,-383.32 20.32,-9.45 42.88,-12.73 65.05,-14.22 28.24,-1.43 56.66,0.66 84.4,6.18 18.74,3.58 36.87,9.89 54.17,17.86 6.09,2.57 11.73,6.12 17.97,8.34 -4.17,-4.01 -9.16,-7 -13.4,-10.92 -13.59,-11.48 -24.55,-26.68 -28.96,-44.08 -4.39,-15.67 -2.37,-32.07 -2.69,-48.1 -0.12,-9.34 -0.78,-18.67 -0.14,-28 0.07,-10.12 -0.86,-20.28 0.31,-30.37 z"
       inkscape:connector-curvature="0"
       style="fill:#8d8d8d" />
    <path
       id="path14"
       d="m 545.86,359.65 c 8.69,-12.34 13.18,-27.14 15.06,-41.99 0.88,3.71 1.14,7.53 1.08,11.34 -0.07,22.66 0.2,45.33 -0.33,67.99 0.14,12.35 -1.51,24.9 -6.37,36.33 -5.9,14.24 -16.3,26.2 -28.2,35.8 -15.94,13.15 -34.47,22.54 -52.47,32.47 -15.25,7.62 -29.83,16.53 -45.28,23.77 -11.53,5.72 -23.47,10.55 -35.02,16.24 -36.41,15.83 -73.14,31.59 -106.58,53.22 -22.48,14.86 -44,32.85 -57.2,56.76 -8.32,13.47 -11.77,29.17 -13.98,44.66 -0.93,-8.72 -0.13,-17.5 -0.7,-26.24 -0.61,-11.67 1.01,-23.32 0.24,-34.98 -0.42,-15.69 -0.94,-31.8 3.98,-46.91 4.77,-15.24 13.72,-28.89 24.57,-40.48 11.36,-12.16 24.59,-22.43 38.53,-31.44 33.58,-21.46 70.58,-36.59 107.19,-51.98 26.96,-11.04 54.6,-21.06 79.51,-36.41 14.34,-8.62 28.3,-17.98 41.06,-28.84 13.44,-11.3 25.98,-24.09 34.91,-39.31 z"
       inkscape:connector-curvature="0"
       style="fill:#007fff;fill-opacity:1" />
    <path
       id="path16"
       d="m 646.99,380.99 c 16.62,-6.11 35.1,-5.7 52.01,-0.99 25.82,7.21 48.79,22.5 67.95,40.97 -15.64,3.56 -30.84,10.26 -42.58,21.39 -14.74,13.42 -24.36,31.45 -31.09,49.99 -13.3,37.46 -17.24,77.28 -22.64,116.42 -3.36,24.49 -6.62,49.18 -14,72.85 -4.34,14.46 -11.62,27.81 -19.35,40.7 -15.24,25.19 -35.57,47.48 -60.05,63.95 -14.71,9.83 -30.77,17.55 -47.36,23.63 -5.37,2.05 -10.95,3.54 -16.23,5.83 10.1,-0.06 20.21,-0.16 30.31,-0.5 6.57,-0.16 13.31,0.46 19.69,-1.53 29.3,-8.75 54.92,-27.24 75.27,-49.77 22.38,-24.61 39.19,-53.95 51.1,-84.91 14.97,-38.68 19.04,-80.38 31.09,-119.91 4.96,-16.13 11,-32.25 21,-46 7.95,-10.92 18.85,-20.19 31.98,-24.08 18.07,-5.37 38.05,-3.26 54.97,4.89 15.11,7.01 28.5,17.67 38.89,30.66 -29.99,9.2 -54.45,32.42 -68.05,60.36 -7.05,13.34 -10.88,28 -15.76,42.2 -10.93,33.71 -21.22,67.89 -37.43,99.55 -11.76,23.27 -26.88,45.18 -46.6,62.42 -12.26,10.98 -26.25,19.98 -41.28,26.67 10.07,0.08 20.15,-0.42 30.23,-0.65 5.41,0.08 9.98,-3.12 14.64,-5.42 23.86,-12.87 42.27,-33.79 56.54,-56.49 13.07,-21.11 23.7,-43.69 32.01,-67.07 4.95,-13.55 9.65,-27.21 15.47,-40.42 6.22,-13.65 13.2,-27.36 24.01,-38 8.94,-9.35 21.22,-15.65 34.21,-16.56 14.93,-1.09 31.02,1.3 43.05,10.86 7.95,6.28 14.08,14.65 18.97,23.46 -14.85,4.14 -28.53,12.13 -39.42,23.05 -16.75,16.64 -27.98,37.76 -38.23,58.78 -12.69,25.76 -23.66,52.51 -39.39,76.65 -12.74,19.78 -29.65,37.67 -51.28,47.65 -16.08,7.55 -33.97,10.41 -51.64,10.3 -16.64,0.88 -33.32,0.05 -49.96,0.79 -80.69,0.07 -161.37,0 -242.05,0.01 -23.32,-0.7 -46.66,-0.18 -69.99,-0.36 -8.2,-0.18 -16.42,0.41 -24.6,-0.37 3.44,-2.02 7.21,-3.36 10.94,-4.69 41.05,-15.5 83.02,-28.72 122.91,-47.13 32.12,-14.88 63.02,-33.55 87.94,-58.98 9.14,-9.64 17.85,-19.84 24.75,-31.23 10.56,-17.97 15.35,-38.66 17.6,-59.2 5.78,-54.83 -3.55,-109.95 1.65,-164.81 1.84,-18.44 5.77,-36.95 14.16,-53.6 9.56,-18.65 25.85,-34.09 45.64,-41.36 z"
       inkscape:connector-curvature="0"
       style="fill:#8d8d8d" />
    <path
       id="path20"
       d="m 429.35,525.36 c 15.45,-7.24 30.03,-16.15 45.28,-23.77 26.82,15.15 52.52,34.2 69.18,60.59 12.48,19.57 18.99,42.7 19.53,65.84 0.88,14.24 -1.31,28.6 -5.91,42.08 -4.27,-9.6 -8.46,-19.32 -14.6,-27.92 -19.38,-28.19 -48.46,-47.66 -77.84,-64.17 -18.75,-10.56 -37.97,-20.27 -57.34,-29.65 -4.43,-2.27 -9.05,-4.19 -13.32,-6.76 11.55,-5.69 23.49,-10.52 35.02,-16.24 z"
       inkscape:connector-curvature="0"
       style="fill:#8d8d8d" />
    <path
       id="path22"
       d="m 384.07,579.81 c 9.7,-1.1 19.68,-1.01 29.19,1.43 18.79,4.66 35.73,16.67 46.01,33.12 10.15,15.65 14.17,35.17 10.96,53.55 -4.78,30.86 -30.49,56.94 -61.21,62.35 -17.11,3.15 -35.32,0.42 -50.54,-8.1 -14.55,-8.01 -26.43,-20.8 -33.13,-36.02 -7.95,-17.61 -8.63,-38.29 -2.12,-56.46 9.13,-26.12 33.42,-46.07 60.84,-49.87 z"
       inkscape:connector-curvature="0"
       style="fill:#f2f2f2;fill-opacity:1" />
    <path
       id="path24"
       d="m 152.13,883.13 c 6.26,-6.13 15.37,-8.11 23.87,-7.85 8.84,-0.32 17.68,2.02 25.33,6.43 0.03,6.45 -0.82,12.87 -0.82,19.33 0.05,2.42 -0.27,4.84 -0.84,7.2 -6.11,-5.16 -13.17,-10.71 -21.72,-9.76 -7.01,-0.47 -10.99,8.59 -7.41,14.05 2.97,4.27 8.09,6.06 12.52,8.37 7.51,3.62 15.03,8.46 18.97,16.09 6.2,11.85 5.05,26.55 -0.84,38.3 -4.16,8.36 -12.29,14.43 -21.43,16.27 -11.83,2.44 -24.64,1.69 -35.67,-3.49 -1.79,-0.48 -2.18,-2.4 -1.99,-3.99 0.37,-8.23 0.61,-16.45 0.79,-24.68 4.86,3.55 9.64,7.61 15.76,8.72 5.45,0.94 11.91,1.81 16.56,-1.88 4.5,-3.77 4.46,-11.58 -0.34,-15.1 -6.83,-5.1 -15.44,-7.38 -21.83,-13.17 -6.56,-5.37 -10.23,-13.61 -10.87,-21.97 -1.22,-11.58 1.13,-24.61 9.96,-32.87 z"
       inkscape:connector-curvature="0"
       style="fill:#f2f2f2;fill-opacity:1" />
    <path
       style="fill:#f2f2f2;fill-opacity:1"
       id="path26"
       d="m 526.6,875.27504 c -2.78687,0.0112 -5.5625,0.31496 -8.275,0.9 -10.21,2.08 -19.025,8.93496 -24.225,17.87496 -8.89,14.91 -10.33,32.98 -9.25,49.95 1.2,13.23 4.545,27.25 13.975,37.15 13.42,15.15 39.555,15.63 53.975,1.65 7.64,-7.37 11.84,-17.57 13.85,-27.85 2.58,-13.19 2.5,-26.88 0.15,-40.1 -2.26,-11.91 -7.315,-23.89 -16.925,-31.7 -6.5325,-5.31752 -14.91438,-7.90832 -23.275,-7.87496 z m -0.3,13.44992 c 5.80563,-0.15984 11.705,2.01504 15.8,6.17504 5.84,5.67 8.19,13.85 9.5,21.65 2.15,14.23 2.13,29.06 -2.2,42.9 -2.03,5.7 -4.745,11.52496 -9.575,15.37496 -7.67,6.08 -19.645,5.86008 -26.975,-0.64992 -6.43,-5.58 -9.475,-14.01504 -10.925,-22.17504 -2.55,-14.41 -2.215,-29.44504 1.725,-43.57504 2.47,-8.92992 9.055,-17.63496 18.675,-19.22496 1.305,-0.28872 2.63524,-0.43808 3.975,-0.47504 z"
       inkscape:connector-curvature="0" />
    <path
       id="path28"
       d="m 47.64,878.05 c 9.74,-0.62 19.53,-0.17 29.28,-0.7 -0.4,24.17 -0.6,48.35 -0.39,72.53 0.72,9.02 -0.2,18.1 0.65,27.12 0.21,4.45 0.1,8.92 0.07,13.38 -9.69,-0.02 -19.37,0.09 -29.05,0.41 -0.68,-9.58 -0.16,-19.2 -0.33,-28.79 0.95,-16.98 0.36,-34 0.53,-51 0.21,-11 -0.56,-21.96 -0.76,-32.95 z"
       inkscape:connector-curvature="0"
       style="fill:#f2f2f2;fill-opacity:1" />
    <path
       style="fill:#f2f2f2;fill-opacity:1"
       id="path30"
       d="m 764.4,877.27504 c -5.5505,0.032 -11.06875,0.58872 -16.625,0.47496 -1.9,5.14 -2.835,10.55496 -4.325,15.82504 -8.56,32.32992 -17.65,64.54992 -26.5,96.8 4.92,-0.12008 9.84,-0.18 14.75,-0.65008 2.6,-11.24 5.04,-22.52 7.85,-33.7 10.66,-0.4 21.34,-0.19496 32,-0.12496 2.75,11.58 5.225,23.22 7.975,34.8 5.44,-0.38 10.985,0.18496 16.325,-1.17504 -9.03,-36.06 -18.88,-71.93496 -27.4,-108.12496 -0.5,-1.37 -0.4,-3.18 -1.65,-4.1 -0.79375,-0.0216 -1.60707,-0.0296 -2.4,-0.0248 z M 756.2,890 c 4.37,17.68 8.18,35.49496 12.35,53.22496 -8.54,0.04 -17.07,0.0448 -25.6,-0.0248 C 747.2,925.43 751.84,907.75 756.2,890 z"
       inkscape:connector-curvature="0" />
    <path
       id="path32"
       d="m 792.21,877.79 c 13.58,-0.35 27.18,0.35 40.75,-0.43 7.62,0.03 15.25,-0.09 22.87,0.04 -0.23,4.7 -0.02,9.44 -0.55,14.13 -8.17,0.26 -16.31,-0.59 -24.47,-0.27 0,33.02 -0.36,66.06 0.7,99.05 -5.4,0.07 -10.78,0.34 -16.17,0.47 -0.24,-11.94 0.54,-23.85 0.4,-35.78 0.01,-16.33 0,-32.67 0,-49 -0.06,-4.94 0.2,-9.9 -0.42,-14.81 -8.15,0.48 -16.32,0.44 -24.48,0.56 0.25,-4.58 -0.76,-9.92 1.37,-13.96 z"
       inkscape:connector-curvature="0"
       style="fill:#f2f2f2;fill-opacity:1" />
    <path
       style="fill:#f2f2f2;fill-opacity:1"
       id="path34"
       d="m 894.92496,877.22496 c -6.14992,0.04 -12.27,0.42504 -18.4,0.57504 -1.24,-0.0504 -1.61,1.54 -2,2.45 -7.17992,28.53 -15.16496,56.84 -22.97496,85.2 -2.11,8.33 -5.05,16.45496 -6.75,24.87496 3.75,-0.01 7.48,-0.19496 11.25,-0.22496 1.15,-0.27 3.40504,0.22 3.62504,-1.45 2.61,-10.91 4.77992,-21.91 7.64992,-32.75 10.63,-0.14 21.26008,-0.06 31.9,-0.0504 2.8,11.61 5.20504,23.31 8.07504,34.9 5.39,-0.35 10.82,-0.16496 16.2,-0.87496 -3.43,-15.9 -8.06496,-31.53008 -12.02496,-47.3 -5.84,-21.7 -10.75008,-43.65008 -16.55008,-65.35008 z m -11.02496,13.5 c 2.61,8.33 4.05,16.99504 6.15,25.47504 2.01,9.01 4.31504,17.94 6.12504,27 -8.52,0.06 -17.05504,0.0752 -25.57504,0.0248 4.46,-17.49 8.5,-35.10992 13.3,-52.5 z"
       inkscape:connector-curvature="0" />
    <path
       id="path36"
       d="m 96.22,877.82 c 9.74,-0.1 19.47,-0.09 29.19,-0.46 -0.3,7.87 0.16,15.77 -0.59,23.64 -0.03,16 -0.02,32 0.01,48 0.83,8.91 0.21,17.86 0.56,26.79 0.42,4.82 0.23,9.68 0.28,14.52 -9.75,0.12 -19.5,0.17 -29.25,0.45 0.05,-14.24 -0.34,-28.49 0.32,-42.71 0.04,-23.42 0.13,-46.83 -0.52,-70.23 z"
       inkscape:connector-curvature="0"
       style="fill:#f2f2f2;fill-opacity:1" />
    <path
       id="path38"
       d="m 219.66,877.76 c 19.73,-0.07 39.46,-0.09 59.18,0.01 0.02,7.81 -0.12,15.65 -0.82,23.45 -10.09,0.32 -20.2,0.1 -30.3,0.12 -0.15,6.63 -0.04,13.27 -0.07,19.91 9.61,0.41 19.18,-0.81 28.8,-0.4 0.3,7.58 -0.56,15.14 -0.95,22.71 -9.05,1.23 -18.24,0.29 -27.35,0.59 0,7.26 -0.02,14.51 0.02,21.78 10.91,-0.55 21.89,-0.03 32.76,-1.27 1.08,5.11 -0.28,10.32 -0.29,15.47 -0.26,3.45 0.19,7.12 -1.19,10.38 -4.11,0.59 -8.3,-0.4 -12.44,-0.07 -15.62,-0.26 -31.22,0.43 -46.83,0.31 -0.74,-9.9 0.29,-19.83 0.22,-29.75 -0.15,-24.67 0.42,-49.36 -0.74,-74.02 -0.13,-3.08 -0.09,-6.15 0,-9.22 z"
       inkscape:connector-curvature="0"
       style="fill:#f2f2f2;fill-opacity:1" />
    <path
       style="fill:#f2f2f2;fill-opacity:1"
       id="path40"
       d="m 329.025,877.35 c -11.57,0.77 -23.195,0.0752 -34.775,0.47496 0.65,16.72 1.575,33.43504 1.375,50.17504 0.22,14.68 -0.605,29.32 -0.375,44 0.27,6.24 -0.86,12.43504 -0.35,18.67504 9.31,0.46 18.615,-0.25504 27.925,-0.27504 0.09,-13.85 -0.965,-27.7 -0.575,-41.55 1.34,-0.04 2.7,-0.11496 4.05,-0.17496 4.71,12.15 9.47,24.27496 13.5,36.67496 0.69,1.82 1.1,3.92 2.55,5.35 2.5,0.43 5.045,0.0448 7.575,0.0248 7,-0.5 14.06,-0.27496 21,-1.47496 -1.02,-2.9 -2.24,-5.7 -3.6,-8.45 -6.36,-12.88 -11.605,-26.28496 -17.025,-39.57504 9.94,-4.68992 14.61,-15.82496 15.4,-26.22496 0.98,-10.81 -1.13,-22.75 -8.9,-30.8 -7.49,-6.8 -18.265,-6.8 -27.775,-6.85 z m -2.625,23.12504 c 3.96984,-0.0806 8.12,0.0472 10.55,3.54992 3.26,5.67008 3.145,13.65504 -1.125,18.77504 -3.47,3.8 -8.9,3.90504 -13.65,4.12496 0.19,-8.8 0.355,-17.61496 0.375,-26.42496 1.2125,0.0424 2.52672,0 3.85,-0.0248 z"
       inkscape:connector-curvature="0" />
    <path
       id="path42"
       d="m 418.6,877.82 c 5.23,-0.01 10.45,-0.68 15.7,-0.42 0.18,17.03 -0.97,34.04 -0.34,51.08 9.51,-13.48 18.1,-27.61 26.93,-41.54 2.12,-2.98 3.27,-6.82 6.17,-9.11 5.22,-0.02 10.45,-0.74 15.67,-0.27 -5.12,9.04 -11.53,17.29 -17.19,26 -5.5,8.13 -10.81,16.39 -16.18,24.6 11.72,19.9 24.01,39.47 36.8,58.7 0.69,1.02 0.71,2.31 0.67,3.52 -5.9,-0.06 -11.79,0.33 -17.68,0.41 -11.49,-19.53 -22.93,-39.1 -35.21,-58.14 -0.6,19.26 0.91,38.51 0.61,57.76 -5.15,-0.11 -10.3,0.3 -15.45,0.31 0.4,-30.24 0.09,-60.48 0.19,-90.72 0.21,-7.41 -0.92,-14.78 -0.69,-22.18 z"
       inkscape:connector-curvature="0"
       style="fill:#f2f2f2;fill-opacity:1" />
    <path
       id="path44"
       d="m 582.76,877.85 c 5.55,-0.06 11.08,-0.7 16.63,-0.44 0.11,13.22 -1.12,26.41 -0.78,39.64 -0.62,12.3 -0.26,24.63 -0.35,36.95 0.09,7.4 -0.31,14.83 0.45,22.22 7.09,-0.02 14.19,0.09 21.29,-0.05 4.76,-0.51 9.56,-0.51 14.35,-0.38 0.22,4.84 -0.1,9.69 -0.66,14.5 -11.88,0.51 -23.8,-0.28 -35.67,0.47 -4.89,0.03 -9.79,0.14 -14.67,-0.1 -0.52,-6.23 0.39,-12.43 0.2,-18.66 -0.15,-16.67 0.49,-33.32 0.31,-50 -0.4,-14.71 -0.18,-29.45 -1.1,-44.15 z"
       inkscape:connector-curvature="0"
       style="fill:#f2f2f2;fill-opacity:1" />
    <path
       id="path46"
       d="m 645.82,879.08 c 0.32,-0.31 0.95,-0.93 1.27,-1.24 4.93,-0.13 9.86,-0.77 14.8,-0.29 -0.25,17.17 -0.86,34.33 -0.55,51.52 11.07,-16.99 22.09,-34.02 32.66,-51.32 5.33,0.23 10.65,-0.72 15.98,-0.19 -2.7,6.07 -7.27,11.08 -10.71,16.74 -7.64,11.14 -15.09,22.41 -22.39,33.78 9.72,17.06 20.32,33.6 30.97,50.09 2.26,3.62 4.98,6.96 6.87,10.81 -0.24,0.35 -0.72,1.04 -0.96,1.39 -5.78,-0.01 -11.54,0.37 -17.31,0.37 -11.32,-19.61 -22.92,-39.08 -35.07,-58.17 -0.5,11.48 0.43,22.94 0.27,34.43 -0.15,7.8 0.95,15.59 0.5,23.4 -5.17,-0.06 -10.32,0.21 -15.47,0.44 -0.42,-11.95 0.4,-23.89 0.19,-35.84 -0.19,-25.31 0.58,-50.66 -1.05,-75.92 z"
       inkscape:connector-curvature="0"
       style="fill:#f2f2f2;fill-opacity:1" />
    <path
       inkscape:transform-center-x="378.43137"
       id="path14-4"
       d="m 553.97939,66.562749 c 8.69,-12.34 13.18,-27.140004 15.06,-41.990004 0.88,3.71 1.14,7.53 1.08,11.34 -0.07,22.660004 0.2,45.330004 -0.33,67.990005 0.14,12.35 -1.51,24.9 -6.37,36.33 -5.9,14.24 -16.3,26.2 -28.2,35.8 -15.94,13.15 -34.47,22.54 -52.47,32.47 -15.25,7.62 -29.83,16.53 -45.28,23.77 -11.53,5.72 -23.47,10.55 -35.02,16.24 -36.41,15.83 -73.14,31.59 -106.58,53.22 -22.48,14.86 -44,32.85 -57.2,56.76 -8.32,13.47 -11.77,29.17 -13.98,44.66 -0.93,-8.72 -0.13,-17.5 -0.7,-26.24 -0.61,-11.67 1.01,-23.32 0.24,-34.98 -0.42,-15.69 -0.94,-31.8 3.98,-46.91 4.77,-15.24 13.72,-28.89 24.57,-40.48 11.36,-12.16 24.59,-22.43 38.53,-31.44 33.58,-21.46 70.58,-36.59 107.19,-51.98 26.96,-11.04 54.6,-21.06 79.51,-36.41 14.34,-8.62 28.3,-17.98 41.06,-28.84 13.44,-11.300001 25.98,-24.090001 34.91,-39.310001 z"
       inkscape:connector-curvature="0"
       style="fill:#007fff;fill-opacity:1" />
  </g>
</svg>
