<?xml version="1.0" encoding="UTF-8" standalone="no"?>
<!-- Created with Inkscape (http://www.inkscape.org/) -->

<svg
   width="100.11066mm"
   height="100.00001mm"
   viewBox="0 0 100.11066 100.00001"
   version="1.1"
   id="svg5"
   xml:space="preserve"
   inkscape:version="1.2.2 (1:1.2.2+202212051550+b0a8486541)"
   sodipodi:docname="sphere-cut_locus_point-05.svg"
   xmlns:inkscape="http://www.inkscape.org/namespaces/inkscape"
   xmlns:sodipodi="http://sodipodi.sourceforge.net/DTD/sodipodi-0.dtd"
   xmlns="http://www.w3.org/2000/svg"
   xmlns:svg="http://www.w3.org/2000/svg"><sodipodi:namedview
     id="namedview7"
     pagecolor="#ffffff"
     bordercolor="#999999"
     borderopacity="1"
     inkscape:showpageshadow="0"
     inkscape:pageopacity="0"
     inkscape:pagecheckerboard="0"
     inkscape:deskcolor="#d1d1d1"
     inkscape:document-units="mm"
     showgrid="false"
     inkscape:zoom="0.35355339"
     inkscape:cx="581.24177"
     inkscape:cy="199.40411"
     inkscape:window-width="1600"
     inkscape:window-height="832"
     inkscape:window-x="0"
     inkscape:window-y="32"
     inkscape:window-maximized="1"
     inkscape:current-layer="svg5"
     showguides="true" /><defs
     id="defs2"><radialGradient
       fx="150.76173"
       fy="18.769068"
       cx="150.76173"
       cy="18.769068"
       r="61.394215"
       gradientUnits="userSpaceOnUse"
       gradientTransform="matrix(1.808472,4.793001,-4.330465,1.63395,-111.4208,-658.43887)"
       spreadMethod="pad"
       id="radialGradient212"><stop
         style="stop-opacity:1;stop-color:#d5f6ff"
         offset="0"
         id="stop204" /><stop
         style="stop-opacity:1;stop-color:#55ddff"
         offset="0.294028"
         id="stop206" /><stop
         style="stop-opacity:1;stop-color:#00aad4"
         offset="0.503525"
         id="stop208" /><stop
         style="stop-opacity:1;stop-color:#1c2422"
         offset="1"
         id="stop210" /></radialGradient><clipPath
       clipPathUnits="userSpaceOnUse"
       id="clipPath222"><path
         d="M 0,0 H 348 V 348 H 0 Z"
         id="path220" /></clipPath><radialGradient
       fx="150.76173"
       fy="18.769068"
       cx="150.76173"
       cy="18.769068"
       r="61.394215"
       gradientUnits="userSpaceOnUse"
       gradientTransform="matrix(1.808472,4.793001,-4.330465,1.63395,-111.4208,-658.43887)"
       spreadMethod="pad"
       id="radialGradient268"><stop
         style="stop-opacity:1;stop-color:#d5f6ff"
         offset="0"
         id="stop260" /><stop
         style="stop-opacity:1;stop-color:#55ddff"
         offset="0.294028"
         id="stop262" /><stop
         style="stop-opacity:1;stop-color:#00aad4"
         offset="0.503525"
         id="stop264" /><stop
         style="stop-opacity:1;stop-color:#1c2422"
         offset="1"
         id="stop266" /></radialGradient><clipPath
       clipPathUnits="userSpaceOnUse"
       id="clipPath286"><path
         d="M 0,0 H 348 V 348 H 0 Z"
         id="path284" /></clipPath><radialGradient
       fx="150.76173"
       fy="18.769068"
       cx="150.76173"
       cy="18.769068"
       r="61.394215"
       gradientUnits="userSpaceOnUse"
       gradientTransform="matrix(1.808472,4.793001,-4.330465,1.63395,-111.4208,-658.43887)"
       spreadMethod="pad"
       id="radialGradient332"><stop
         style="stop-opacity:1;stop-color:#d5f6ff"
         offset="0"
         id="stop324" /><stop
         style="stop-opacity:1;stop-color:#55ddff"
         offset="0.294028"
         id="stop326" /><stop
         style="stop-opacity:1;stop-color:#00aad4"
         offset="0.503525"
         id="stop328" /><stop
         style="stop-opacity:1;stop-color:#1c2422"
         offset="1"
         id="stop330" /></radialGradient><clipPath
       clipPathUnits="userSpaceOnUse"
       id="clipPath350"><path
         d="M 0,0 H 348 V 348 H 0 Z"
         id="path348" /></clipPath><clipPath
       clipPathUnits="userSpaceOnUse"
       id="clipPath368"><path
         d="M 0,0 H 348 V 348 H 0 Z"
         id="path366" /></clipPath><radialGradient
       fx="150.76173"
       fy="18.769068"
       cx="150.76173"
       cy="18.769068"
       r="61.394215"
       gradientUnits="userSpaceOnUse"
       gradientTransform="matrix(1.808472,4.793001,-4.330465,1.63395,-111.4208,-658.43887)"
       spreadMethod="pad"
       id="radialGradient420"><stop
         style="stop-opacity:1;stop-color:#d5f6ff"
         offset="0"
         id="stop412" /><stop
         style="stop-opacity:1;stop-color:#55ddff"
         offset="0.294028"
         id="stop414" /><stop
         style="stop-opacity:1;stop-color:#00aad4"
         offset="0.503525"
         id="stop416" /><stop
         style="stop-opacity:1;stop-color:#1c2422"
         offset="1"
         id="stop418" /></radialGradient><clipPath
       clipPathUnits="userSpaceOnUse"
       id="clipPath438"><path
         d="M 0,0 H 348 V 348 H 0 Z"
         id="path436" /></clipPath><clipPath
       clipPathUnits="userSpaceOnUse"
       id="clipPath456"><path
         d="M 0,0 H 348 V 348 H 0 Z"
         id="path454" /></clipPath><clipPath
       clipPathUnits="userSpaceOnUse"
       id="clipPath472"><path
         d="M 0,0 H 348 V 348 H 0 Z"
         id="path470" /></clipPath><clipPath
       clipPathUnits="userSpaceOnUse"
       id="clipPath508"><path
         d="M 0,0 H 348 V 348 H 0 Z"
         id="path506" /></clipPath><radialGradient
       fx="150.76173"
       fy="18.769068"
       cx="150.76173"
       cy="18.769068"
       r="61.394215"
       gradientUnits="userSpaceOnUse"
       gradientTransform="matrix(0.63798914,1.6908653,-1.5276928,0.57642161,490.78819,-232.28274)"
       spreadMethod="pad"
       id="radialGradient548"><stop
         style="stop-opacity:1;stop-color:#d5f6ff"
         offset="0"
         id="stop540" /><stop
         style="stop-opacity:1;stop-color:#55ddff"
         offset="0.294028"
         id="stop542" /><stop
         style="stop-opacity:1;stop-color:#00aad4"
         offset="0.503525"
         id="stop544" /><stop
         style="stop-opacity:1;stop-color:#1c2422"
         offset="1"
         id="stop546" /></radialGradient><clipPath
       clipPathUnits="userSpaceOnUse"
       id="clipPath570"><path
         d="M 0,0 H 348 V 348 H 0 Z"
         id="path568" /></clipPath><clipPath
       clipPathUnits="userSpaceOnUse"
       id="clipPath588"><path
         d="M 0,0 H 348 V 348 H 0 Z"
         id="path586" /></clipPath><clipPath
       clipPathUnits="userSpaceOnUse"
       id="clipPath604"><path
         d="M 0,0 H 348 V 348 H 0 Z"
         id="path602" /></clipPath><clipPath
       clipPathUnits="userSpaceOnUse"
       id="clipPath626"><path
         d="M 0,0 H 348 V 348 H 0 Z"
         id="path624" /></clipPath><clipPath
       clipPathUnits="userSpaceOnUse"
       id="clipPath662"><path
         d="M 0,0 H 348 V 348 H 0 Z"
         id="path660" /></clipPath><radialGradient
       fx="150.76173"
       fy="18.769068"
       cx="150.76173"
       cy="18.769068"
       r="61.394215"
       gradientUnits="userSpaceOnUse"
       gradientTransform="matrix(1.808472,4.793001,-4.330465,1.63395,-111.4208,-658.43887)"
       spreadMethod="pad"
       id="radialGradient420-2"><stop
         style="stop-opacity:1;stop-color:#d5f6ff"
         offset="0"
         id="stop412-9" /><stop
         style="stop-opacity:1;stop-color:#55ddff"
         offset="0.294028"
         id="stop414-1" /><stop
         style="stop-opacity:1;stop-color:#00aad4"
         offset="0.503525"
         id="stop416-2" /><stop
         style="stop-opacity:1;stop-color:#1c2422"
         offset="1"
         id="stop418-7" /></radialGradient><clipPath
       clipPathUnits="userSpaceOnUse"
       id="clipPath456-0"><path
         d="M 0,0 H 348 V 348 H 0 Z"
         id="path454-9" /></clipPath><clipPath
       clipPathUnits="userSpaceOnUse"
       id="clipPath472-3"><path
         d="M 0,0 H 348 V 348 H 0 Z"
         id="path470-6" /></clipPath><clipPath
       clipPathUnits="userSpaceOnUse"
       id="clipPath508-0"><path
         d="M 0,0 H 348 V 348 H 0 Z"
         id="path506-6" /></clipPath><radialGradient
       fx="150.76173"
       fy="18.769068"
       cx="150.76173"
       cy="18.769068"
       r="61.394215"
       gradientUnits="userSpaceOnUse"
       gradientTransform="matrix(0.63798914,1.6908653,-1.5276928,0.57642161,0.11723,-423.75848)"
       spreadMethod="pad"
       id="radialGradient548-2"><stop
         style="stop-opacity:1;stop-color:#d5f6ff"
         offset="0"
         id="stop540-6" /><stop
         style="stop-opacity:1;stop-color:#55ddff"
         offset="0.294028"
         id="stop542-1" /><stop
         style="stop-opacity:1;stop-color:#00aad4"
         offset="0.503525"
         id="stop544-8" /><stop
         style="stop-opacity:1;stop-color:#1c2422"
         offset="1"
         id="stop546-7" /></radialGradient><clipPath
       clipPathUnits="userSpaceOnUse"
       id="clipPath588-9"><path
         d="M 0,0 H 348 V 348 H 0 Z"
         id="path586-2" /></clipPath><clipPath
       clipPathUnits="userSpaceOnUse"
       id="clipPath604-0"><path
         d="M 0,0 H 348 V 348 H 0 Z"
         id="path602-2" /></clipPath><clipPath
       clipPathUnits="userSpaceOnUse"
       id="clipPath626-3"><path
         d="M 0,0 H 348 V 348 H 0 Z"
         id="path624-7" /></clipPath><clipPath
       clipPathUnits="userSpaceOnUse"
       id="clipPath662-5"><path
         d="M 0,0 H 348 V 348 H 0 Z"
         id="path660-9" /></clipPath><radialGradient
       fx="150.76173"
       fy="18.769068"
       cx="150.76173"
       cy="18.769068"
       r="61.394215"
       gradientUnits="userSpaceOnUse"
       gradientTransform="matrix(0.52070532,1.3800275,-1.2468516,0.47045597,-32.023514,-189.58137)"
       spreadMethod="pad"
       id="radialGradient548-2-2"><stop
         style="stop-opacity:1;stop-color:#d5f6ff"
         offset="0"
         id="stop540-6-2" /><stop
         style="stop-opacity:1;stop-color:#55ddff"
         offset="0.294028"
         id="stop542-1-8" /><stop
         style="stop-opacity:1;stop-color:#00aad4"
         offset="0.503525"
         id="stop544-8-9" /><stop
         style="stop-opacity:1;stop-color:#1c2422"
         offset="1"
         id="stop546-7-7" /></radialGradient><clipPath
       clipPathUnits="userSpaceOnUse"
       id="clipPath588-9-3"><path
         d="M 0,0 H 348 V 348 H 0 Z"
         id="path586-2-6" /></clipPath><clipPath
       clipPathUnits="userSpaceOnUse"
       id="clipPath604-0-1"><path
         d="M 0,0 H 348 V 348 H 0 Z"
         id="path602-2-2" /></clipPath><clipPath
       clipPathUnits="userSpaceOnUse"
       id="clipPath626-3-9"><path
         d="M 0,0 H 348 V 348 H 0 Z"
         id="path624-7-3" /></clipPath><clipPath
       clipPathUnits="userSpaceOnUse"
       id="clipPath662-5-1"><path
         d="M 0,0 H 348 V 348 H 0 Z"
         id="path660-9-9" /></clipPath></defs><g
     inkscape:label="Layer 1"
     inkscape:groupmode="layer"
     id="layer1"
     transform="translate(-601.40312,-75.04159)" /><path
     d="m 100.05739,50.000004 c 0,27.613792 -22.386218,50.000006 -50.000001,50.000006 -27.613791,0 -50.00000399,-22.386214 -50.00000399,-50.000006 C 0.05738501,22.386213 22.443598,0 50.057389,0 77.671172,0 100.05739,22.386213 100.05739,50.000004 Z"
     style="fill:url(#radialGradient548-2-2);stroke:none;stroke-width:0.352778"
     id="path550" /><g
     id="g552"
     transform="matrix(0.28792556,0.06244472,-0.06300272,0.28780406,0.05738501,0)"
     style="stroke:#0b3e4a;stroke-width:2.24357;stroke-dasharray:6.73074, 6.73074;stroke-dashoffset:0;stroke-opacity:1"><path
       d="m 235.292,285.677 c -10.216,8.477 -21.439,13.167 -33.217,13.166"
       style="fill:none;stroke:#0b3e4a;stroke-width:2.24357;stroke-linecap:butt;stroke-linejoin:miter;stroke-miterlimit:4;stroke-dasharray:6.73074, 6.73074;stroke-dashoffset:0;stroke-opacity:1"
       id="path554" /></g><g
     id="g560"
     transform="matrix(0.06300272,-0.28780406,0.28792556,0.06244472,0.05738501,0)"
     style="stroke-width:1.22524"><path
       d="m -124.685,287.748 c -2.599,0.865 -6.065,2.597 -7.799,4.331 0,0 -0.001,-3.464 1.733,-4.332 -1.732,-0.867 -1.733,-4.332 -1.733,-4.332 1.732,1.735 5.199,3.464 7.799,4.333 z"
       style="fill:#002255;fill-opacity:1;fill-rule:evenodd;stroke:#002255;stroke-width:1.4155;stroke-linecap:butt;stroke-linejoin:miter;stroke-miterlimit:4;stroke-dasharray:none;stroke-opacity:1"
       id="path562" /></g><g
     id="g582"
     transform="matrix(0.28792556,0,0,0.28792556,0.05738501,0)"
     style="stroke-width:1.22524"><g
       id="g584"
       style="stroke-width:1.22524" /><g
       id="g596"
       style="stroke-width:1.22524"><g
         clip-path="url(#clipPath588-9-3)"
         opacity="0.339445"
         id="g594"
         style="stroke-width:1.50121"><g
           id="g592"
           style="stroke-width:1.22524"><path
             d="m 170.277,12.07 -0.617,0.371 -0.851,0.52 -0.848,0.527 -0.848,0.547 -0.847,0.555 -0.844,0.57 -0.844,0.582 -0.32,0.223 1.019,1.453 0.317,-0.223 0.828,-0.574 0.828,-0.555 0.828,-0.546 0.832,-0.532 0.832,-0.519 0.832,-0.508 0.614,-0.363 z m -8.914,6.004 -0.148,0.117 -0.836,0.637 -0.836,0.66 -0.84,0.668 -0.828,0.676 -0.832,0.691 -0.828,0.704 -0.418,0.355 1.164,1.348 0.406,-0.36 0.821,-0.691 0.816,-0.676 0.816,-0.672 0.825,-0.656 0.82,-0.645 0.824,-0.628 0.145,-0.114 z m -8.234,6.887 -0.211,0.191 -0.82,0.766 -0.821,0.773 -0.812,0.782 -0.813,0.797 -0.812,0.804 -0.809,0.821 -0.043,0.046 1.27,1.235 0.039,-0.043 0.801,-0.805 0.797,-0.797 0.804,-0.785 0.805,-0.773 0.808,-0.762 0.805,-0.754 0.203,-0.184 z m -7.609,7.562 -0.708,0.754 -0.796,0.875 -0.793,0.887 -0.793,0.895 -0.785,0.902 -0.793,0.918 -0.082,0.105 1.351,1.145 0.086,-0.102 0.777,-0.906 0.778,-0.898 0.785,-0.883 0.785,-0.871 0.789,-0.867 0.695,-0.75 z m -7.043,8.082 -0.747,0.926 -0.773,0.965 -0.769,0.981 -0.77,0.988 -0.766,1.004 -0.566,0.754 1.414,1.066 0.566,-0.75 0.758,-0.992 0.758,-0.981 0.77,-0.968 0.761,-0.957 0.75,-0.926 z m -6.512,8.489 -0.34,0.476 -0.746,1.051 -0.75,1.063 -0.742,1.066 -0.735,1.082 -0.738,1.09 -0.023,0.031 1.48,0.981 0.016,-0.028 0.73,-1.082 0.735,-1.07 0.734,-1.059 0.742,-1.054 0.734,-1.039 0.344,-0.469 z m -6.031,8.832 -0.204,0.32 -0.722,1.129 -0.719,1.133 -0.711,1.152 -0.715,1.152 -0.707,1.161 1.524,0.922 0.699,-1.161 0.707,-1.148 0.707,-1.133 0.711,-1.133 0.715,-1.117 0.207,-0.312 z"
             style="fill:#000000;fill-opacity:1;fill-rule:nonzero;stroke:none;stroke-width:1.22524"
             id="path590" /></g></g></g></g><g
     id="g598"
     transform="matrix(0.28792556,0,0,0.28792556,0.05738501,0)"
     style="stroke-width:1.22524"><g
       id="g600"
       style="stroke-width:1.22524" /><g
       id="g618"
       style="stroke-width:1.22524"><g
         clip-path="url(#clipPath604-0-1)"
         opacity="0.339445"
         id="g616"
         style="stroke-width:1.50121"><g
           id="g614"
           style="stroke-width:1.22524"><g
             transform="matrix(1,0.216878,-0.218816,0.999578,0,0)"
             id="g608"
             style="stroke-width:1.22524"><path
               d="m 202.075,298.843 c -47.312,0 -85.67,-75.647 -85.67,-168.96 -0.001,-34.706 5.307,-66.968 14.408,-93.805"
               style="fill:none;stroke:#000000;stroke-width:2.12479;stroke-linecap:butt;stroke-linejoin:miter;stroke-miterlimit:4;stroke-dasharray:8.49911, 4.24955;stroke-dashoffset:0;stroke-opacity:1"
               id="path606" /></g><g
             transform="matrix(0.218816,-0.999578,1,0.216878,0,0)"
             id="g612"
             style="stroke-width:1.22524"><path
               d="m -124.681,116.407 c -2.603,0.867 -6.072,2.602 -7.806,4.333 0,0 0.002,-3.465 1.737,-4.333 -1.736,-0.866 -1.734,-4.335 -1.734,-4.335 1.732,1.734 5.199,3.467 7.803,4.335 z"
               style="fill:#000000;fill-opacity:1;fill-rule:evenodd;stroke:#000000;stroke-width:1.41652;stroke-linecap:butt;stroke-linejoin:miter;stroke-miterlimit:4;stroke-dasharray:none;stroke-opacity:1"
               id="path610" /></g></g></g></g></g><g
     id="g620"
     transform="matrix(0.28792556,0,0,0.28792556,0.05738501,0)"
     style="stroke-width:1.22524"><g
       id="g622"
       style="stroke-width:1.22524" /><g
       id="g636"
       style="stroke-width:1.22524"><g
         clip-path="url(#clipPath626-3-9)"
         opacity="0.339445"
         id="g634"
         style="stroke-width:1.50121"><g
           id="g632"
           style="stroke-width:1.22524"><g
             id="g630"
             style="stroke-width:1.22524"><path
               d="m 0.887,173.656 c 0,-32.804 77.347,-59.394 172.761,-59.394 95.414,0 172.762,26.59 172.762,59.394"
               style="fill:none;stroke:#000000;stroke-width:2.17418;stroke-linecap:butt;stroke-linejoin:miter;stroke-miterlimit:4;stroke-dasharray:8.69669, 4.34835;stroke-dashoffset:0;stroke-opacity:1"
               id="path628" /></g></g></g></g></g><g
     id="g638"
     transform="matrix(0.28792556,0,0,0.28792556,0.05738501,0)"
     style="stroke-width:1.22524"><path
       d="m 346.41,173.656 c 0,32.805 -77.348,59.395 -172.762,59.395 -95.414,0 -172.761,-26.59 -172.761,-59.395"
       style="fill:none;stroke:#002255;stroke-width:2.17261;stroke-linecap:butt;stroke-linejoin:miter;stroke-miterlimit:4;stroke-dasharray:none;stroke-opacity:1"
       id="path640" /></g><text
     xml:space="preserve"
     style="font-variant:normal;font-size:5.75851px;font-family:'Asana Math';-inkscape-font-specification:Asana-Math;writing-mode:lr-tb;fill:#ffffff;fill-opacity:1;fill-rule:nonzero;stroke:none;stroke-width:0.352778"
     id="text644"
     x="54.02206"
     y="98.825981"><tspan
       x="54.02206"
       y="98.825981"
       id="tspan642"
       style="stroke-width:0.352778">S</tspan></text><text
     xml:space="preserve"
     style="font-variant:normal;font-size:5.75851px;font-family:'Asana Math';-inkscape-font-specification:Asana-Math;writing-mode:lr-tb;fill:#ffffff;fill-opacity:1;fill-rule:nonzero;stroke:none;stroke-width:0.352778"
     id="text650"
     x="52.11211"
     y="9.0879002"><tspan
       x="52.11211"
       y="9.0879002"
       id="tspan648"
       style="stroke-width:0.352778">N</tspan></text><path
     d="m 36.67115,19.816194 c 0,1.086628 -0.880766,1.965958 -1.965957,1.965958 -1.085477,0 -1.964799,-0.87933 -1.964799,-1.965958 0,-1.085191 0.879322,-1.964806 1.964799,-1.964806 1.085191,0 1.965957,0.879615 1.965957,1.964806 z"
     style="fill:#ff0000;fill-opacity:1;fill-rule:evenodd;stroke:none;stroke-width:0.352778"
     id="path654" /><g
     id="g656"
     transform="matrix(0.28792556,0,0,0.28792556,0.05738501,0)"
     style="stroke-width:1.22524"><g
       id="g658"
       style="stroke-width:1.22524" /><g
       id="g672"
       style="stroke-width:1.22524"><g
         clip-path="url(#clipPath662-5-1)"
         opacity="0.339445"
         id="g670"
         style="stroke-width:1.50121"><g
           id="g668"
           style="stroke-width:1.22524"><path
             d="m 138.281,42.254 c 1,-2.621 1.875,-6.492 1.625,-8.988 0,0 2.75,2.246 2.313,4.179 1.808,-0.812 4.558,1.43 4.558,1.43 -2.5,0.25 -6.125,1.879 -8.496,3.379 z"
             style="fill:#000000;fill-opacity:1;fill-rule:evenodd;stroke:none;stroke-width:1.22524"
             id="path664" /><path
             d="m 137.094,43.699 1.5,-0.949 c 2.308,-1.457 5.941,-3.051 8.242,-3.285 l 1.422,-0.149 -1.106,-0.898 c 0,0 -0.73,-0.602 -1.711,-1.094 -0.804,-0.402 -1.847,-0.515 -2.843,-0.347 -0.032,-1.008 -0.348,-2.004 -0.903,-2.711 -0.679,-0.864 -1.414,-1.457 -1.414,-1.457 l -1.101,-0.903 0.14,1.418 c 0.231,2.301 -0.625,6.172 -1.597,8.719 z m 1.941,-2.371 c 0.727,-2.183 1.203,-4.648 1.231,-6.848 0.207,0.211 0.257,0.215 0.496,0.516 0.586,0.746 1.027,1.664 0.879,2.32 l -0.262,1.153 1.082,-0.485 c 0.617,-0.277 1.598,-0.027 2.445,0.399 0.34,0.172 0.356,0.222 0.602,0.387 -2.153,0.46 -4.481,1.414 -6.473,2.558 z"
             style="fill:#000000;fill-opacity:1;fill-rule:evenodd;stroke:none;stroke-width:1.22524"
             id="path666" /></g></g></g></g><text
     xml:space="preserve"
     style="font-variant:normal;font-size:5.75851px;font-family:'Asana Math';-inkscape-font-specification:Asana-Math;writing-mode:lr-tb;fill:#666666;fill-opacity:1;fill-rule:nonzero;stroke:none;stroke-width:0.352778"
     id="text676"
     x="27.831184"
     y="20.594755"><tspan
       x="27.831184"
       y="20.594755"
       id="tspan674"
       style="stroke-width:0.352778">P</tspan></text><path
     style="fill:none;stroke:#002255;stroke-width:0.626"
     d="M 50.418551,2.7984225 C 53.853657,1.0319527 57.337202,0.40239453 60.688218,1.1325533 74.288587,4.0959476 80.555962,28.334409 74.686795,55.270685 70.307907,75.367395 60.410477,91.287962 50.018311,96.846537"
     id="path8427" /><path
     d="m 52.204446,3.1378171 c 0,1.0854769 -0.880473,1.9650921 -1.965958,1.9650921 -1.085191,0 -1.964798,-0.8796152 -1.964798,-1.9650921 0,-1.0851912 0.879607,-1.9659572 1.964798,-1.9659572 1.085485,0 1.965958,0.880766 1.965958,1.9659572 z"
     style="fill:#ff0000;fill-opacity:1;fill-rule:evenodd;stroke:none;stroke-width:0.352778"
     id="path652" /><path
     d="m 52.022187,96.84204 c 0,1.085191 -0.879321,1.965957 -1.964798,1.965957 -1.085191,0 -1.965957,-0.880766 -1.965957,-1.965957 0,-1.085485 0.880766,-1.964806 1.965957,-1.964806 1.085477,0 1.964798,0.879321 1.964798,1.964806 z"
     style="fill:#ff0000;fill-opacity:1;fill-rule:evenodd;stroke:none;stroke-width:0.352778"
     id="path646" /></svg>
