<?xml version="1.0" encoding="UTF-8" standalone="no"?>
<!-- Created with Inkscape (http://www.inkscape.org/) -->

<svg
   width="100.11066mm"
   height="100mm"
   viewBox="0 0 100.11067 100"
   version="1.1"
   id="svg5"
   xml:space="preserve"
   inkscape:version="1.2.2 (1:1.2.2+202212051550+b0a8486541)"
   sodipodi:docname="sphere-cut_locus_point-04.svg"
   xmlns:inkscape="http://www.inkscape.org/namespaces/inkscape"
   xmlns:sodipodi="http://sodipodi.sourceforge.net/DTD/sodipodi-0.dtd"
   xmlns="http://www.w3.org/2000/svg"
   xmlns:svg="http://www.w3.org/2000/svg"><sodipodi:namedview
     id="namedview7"
     pagecolor="#ffffff"
     bordercolor="#999999"
     borderopacity="1"
     inkscape:showpageshadow="0"
     inkscape:pageopacity="0"
     inkscape:pagecheckerboard="0"
     inkscape:deskcolor="#d1d1d1"
     inkscape:document-units="mm"
     showgrid="false"
     inkscape:zoom="0.1767767"
     inkscape:cx="-517.60215"
     inkscape:cy="811.75856"
     inkscape:window-width="1600"
     inkscape:window-height="832"
     inkscape:window-x="0"
     inkscape:window-y="32"
     inkscape:window-maximized="1"
     inkscape:current-layer="svg5"
     showguides="true" /><defs
     id="defs2"><radialGradient
       fx="150.76173"
       fy="18.769068"
       cx="150.76173"
       cy="18.769068"
       r="61.394215"
       gradientUnits="userSpaceOnUse"
       gradientTransform="matrix(1.808472,4.793001,-4.330465,1.63395,-111.4208,-658.43887)"
       spreadMethod="pad"
       id="radialGradient212"><stop
         style="stop-opacity:1;stop-color:#d5f6ff"
         offset="0"
         id="stop204" /><stop
         style="stop-opacity:1;stop-color:#55ddff"
         offset="0.294028"
         id="stop206" /><stop
         style="stop-opacity:1;stop-color:#00aad4"
         offset="0.503525"
         id="stop208" /><stop
         style="stop-opacity:1;stop-color:#1c2422"
         offset="1"
         id="stop210" /></radialGradient><clipPath
       clipPathUnits="userSpaceOnUse"
       id="clipPath222"><path
         d="M 0,0 H 348 V 348 H 0 Z"
         id="path220" /></clipPath><radialGradient
       fx="150.76173"
       fy="18.769068"
       cx="150.76173"
       cy="18.769068"
       r="61.394215"
       gradientUnits="userSpaceOnUse"
       gradientTransform="matrix(1.808472,4.793001,-4.330465,1.63395,-111.4208,-658.43887)"
       spreadMethod="pad"
       id="radialGradient268"><stop
         style="stop-opacity:1;stop-color:#d5f6ff"
         offset="0"
         id="stop260" /><stop
         style="stop-opacity:1;stop-color:#55ddff"
         offset="0.294028"
         id="stop262" /><stop
         style="stop-opacity:1;stop-color:#00aad4"
         offset="0.503525"
         id="stop264" /><stop
         style="stop-opacity:1;stop-color:#1c2422"
         offset="1"
         id="stop266" /></radialGradient><clipPath
       clipPathUnits="userSpaceOnUse"
       id="clipPath286"><path
         d="M 0,0 H 348 V 348 H 0 Z"
         id="path284" /></clipPath><radialGradient
       fx="150.76173"
       fy="18.769068"
       cx="150.76173"
       cy="18.769068"
       r="61.394215"
       gradientUnits="userSpaceOnUse"
       gradientTransform="matrix(1.808472,4.793001,-4.330465,1.63395,-111.4208,-658.43887)"
       spreadMethod="pad"
       id="radialGradient332"><stop
         style="stop-opacity:1;stop-color:#d5f6ff"
         offset="0"
         id="stop324" /><stop
         style="stop-opacity:1;stop-color:#55ddff"
         offset="0.294028"
         id="stop326" /><stop
         style="stop-opacity:1;stop-color:#00aad4"
         offset="0.503525"
         id="stop328" /><stop
         style="stop-opacity:1;stop-color:#1c2422"
         offset="1"
         id="stop330" /></radialGradient><clipPath
       clipPathUnits="userSpaceOnUse"
       id="clipPath350"><path
         d="M 0,0 H 348 V 348 H 0 Z"
         id="path348" /></clipPath><clipPath
       clipPathUnits="userSpaceOnUse"
       id="clipPath368"><path
         d="M 0,0 H 348 V 348 H 0 Z"
         id="path366" /></clipPath><radialGradient
       fx="150.76173"
       fy="18.769068"
       cx="150.76173"
       cy="18.769068"
       r="61.394215"
       gradientUnits="userSpaceOnUse"
       gradientTransform="matrix(1.808472,4.793001,-4.330465,1.63395,-111.4208,-658.43887)"
       spreadMethod="pad"
       id="radialGradient420"><stop
         style="stop-opacity:1;stop-color:#d5f6ff"
         offset="0"
         id="stop412" /><stop
         style="stop-opacity:1;stop-color:#55ddff"
         offset="0.294028"
         id="stop414" /><stop
         style="stop-opacity:1;stop-color:#00aad4"
         offset="0.503525"
         id="stop416" /><stop
         style="stop-opacity:1;stop-color:#1c2422"
         offset="1"
         id="stop418" /></radialGradient><clipPath
       clipPathUnits="userSpaceOnUse"
       id="clipPath438"><path
         d="M 0,0 H 348 V 348 H 0 Z"
         id="path436" /></clipPath><clipPath
       clipPathUnits="userSpaceOnUse"
       id="clipPath456"><path
         d="M 0,0 H 348 V 348 H 0 Z"
         id="path454" /></clipPath><clipPath
       clipPathUnits="userSpaceOnUse"
       id="clipPath472"><path
         d="M 0,0 H 348 V 348 H 0 Z"
         id="path470" /></clipPath><clipPath
       clipPathUnits="userSpaceOnUse"
       id="clipPath508"><path
         d="M 0,0 H 348 V 348 H 0 Z"
         id="path506" /></clipPath><radialGradient
       fx="150.76173"
       fy="18.769068"
       cx="150.76173"
       cy="18.769068"
       r="61.394215"
       gradientUnits="userSpaceOnUse"
       gradientTransform="matrix(0.63798914,1.6908653,-1.5276928,0.57642161,490.78819,-232.28274)"
       spreadMethod="pad"
       id="radialGradient548"><stop
         style="stop-opacity:1;stop-color:#d5f6ff"
         offset="0"
         id="stop540" /><stop
         style="stop-opacity:1;stop-color:#55ddff"
         offset="0.294028"
         id="stop542" /><stop
         style="stop-opacity:1;stop-color:#00aad4"
         offset="0.503525"
         id="stop544" /><stop
         style="stop-opacity:1;stop-color:#1c2422"
         offset="1"
         id="stop546" /></radialGradient><clipPath
       clipPathUnits="userSpaceOnUse"
       id="clipPath570"><path
         d="M 0,0 H 348 V 348 H 0 Z"
         id="path568" /></clipPath><clipPath
       clipPathUnits="userSpaceOnUse"
       id="clipPath588"><path
         d="M 0,0 H 348 V 348 H 0 Z"
         id="path586" /></clipPath><clipPath
       clipPathUnits="userSpaceOnUse"
       id="clipPath604"><path
         d="M 0,0 H 348 V 348 H 0 Z"
         id="path602" /></clipPath><clipPath
       clipPathUnits="userSpaceOnUse"
       id="clipPath626"><path
         d="M 0,0 H 348 V 348 H 0 Z"
         id="path624" /></clipPath><clipPath
       clipPathUnits="userSpaceOnUse"
       id="clipPath662"><path
         d="M 0,0 H 348 V 348 H 0 Z"
         id="path660" /></clipPath><radialGradient
       fx="150.76173"
       fy="18.769068"
       cx="150.76173"
       cy="18.769068"
       r="61.394215"
       gradientUnits="userSpaceOnUse"
       gradientTransform="matrix(1.808472,4.793001,-4.330465,1.63395,-111.4208,-658.43887)"
       spreadMethod="pad"
       id="radialGradient420-2"><stop
         style="stop-opacity:1;stop-color:#d5f6ff"
         offset="0"
         id="stop412-9" /><stop
         style="stop-opacity:1;stop-color:#55ddff"
         offset="0.294028"
         id="stop414-1" /><stop
         style="stop-opacity:1;stop-color:#00aad4"
         offset="0.503525"
         id="stop416-2" /><stop
         style="stop-opacity:1;stop-color:#1c2422"
         offset="1"
         id="stop418-7" /></radialGradient><clipPath
       clipPathUnits="userSpaceOnUse"
       id="clipPath456-0"><path
         d="M 0,0 H 348 V 348 H 0 Z"
         id="path454-9" /></clipPath><clipPath
       clipPathUnits="userSpaceOnUse"
       id="clipPath472-3"><path
         d="M 0,0 H 348 V 348 H 0 Z"
         id="path470-6" /></clipPath><clipPath
       clipPathUnits="userSpaceOnUse"
       id="clipPath508-0"><path
         d="M 0,0 H 348 V 348 H 0 Z"
         id="path506-6" /></clipPath><radialGradient
       fx="150.76173"
       fy="18.769068"
       cx="150.76173"
       cy="18.769068"
       r="61.394215"
       gradientUnits="userSpaceOnUse"
       gradientTransform="matrix(0.63798914,1.6908653,-1.5276928,0.57642161,0.11723,-423.75848)"
       spreadMethod="pad"
       id="radialGradient548-2"><stop
         style="stop-opacity:1;stop-color:#d5f6ff"
         offset="0"
         id="stop540-6" /><stop
         style="stop-opacity:1;stop-color:#55ddff"
         offset="0.294028"
         id="stop542-1" /><stop
         style="stop-opacity:1;stop-color:#00aad4"
         offset="0.503525"
         id="stop544-8" /><stop
         style="stop-opacity:1;stop-color:#1c2422"
         offset="1"
         id="stop546-7" /></radialGradient><clipPath
       clipPathUnits="userSpaceOnUse"
       id="clipPath588-9"><path
         d="M 0,0 H 348 V 348 H 0 Z"
         id="path586-2" /></clipPath><clipPath
       clipPathUnits="userSpaceOnUse"
       id="clipPath604-0"><path
         d="M 0,0 H 348 V 348 H 0 Z"
         id="path602-2" /></clipPath><clipPath
       clipPathUnits="userSpaceOnUse"
       id="clipPath626-3"><path
         d="M 0,0 H 348 V 348 H 0 Z"
         id="path624-7" /></clipPath><clipPath
       clipPathUnits="userSpaceOnUse"
       id="clipPath662-5"><path
         d="M 0,0 H 348 V 348 H 0 Z"
         id="path660-9" /></clipPath></defs><g
     inkscape:label="Layer 1"
     inkscape:groupmode="layer"
     id="layer1"
     transform="translate(-126.84319,191.47574)" /><g
     id="g402"
     transform="matrix(0.28792555,0,0,0.28792555,0.05738501,0)"
     style="stroke-width:1.22524"><g
       id="g404"
       style="stroke-width:1.22524"><g
         id="g410"
         style="stroke-width:1.22524"><path
           d="m 347.312,173.656 c 0,95.906 -77.75,173.656 -173.656,173.656 C 77.75,347.312 0,269.562 0,173.656 0,77.75 77.75,0 173.656,0 269.562,0 347.312,77.75 347.312,173.656 Z"
           style="fill:url(#radialGradient420-2);stroke:none;stroke-width:1.22524"
           id="path422" /></g></g></g><g
     id="g428"
     transform="matrix(0.06300272,-0.28780407,0.28792555,0.06244472,0.05738501,0)"
     style="stroke-width:1.22524"><path
       d="m -124.685,287.748 c -2.599,0.865 -6.065,2.597 -7.799,4.331 0,0 -0.001,-3.464 1.733,-4.332 -1.732,-0.867 -1.733,-4.332 -1.733,-4.332 1.732,1.735 5.199,3.464 7.799,4.333 z"
       style="fill:#002255;fill-opacity:1;fill-rule:evenodd;stroke:#002255;stroke-width:1.41549;stroke-linecap:butt;stroke-linejoin:miter;stroke-miterlimit:4;stroke-dasharray:none;stroke-opacity:1"
       id="path430" /></g><g
     id="g450"
     transform="matrix(0.28792555,0,0,0.28792555,0.05738501,0)"
     style="stroke-width:1.22524"><g
       id="g452"
       style="stroke-width:1.22524" /><g
       id="g464"
       style="stroke-width:1.22524"><g
         clip-path="url(#clipPath456-0)"
         opacity="0.339445"
         id="g462"
         style="stroke-width:1.50121"><g
           id="g460"
           style="stroke-width:1.22524"><path
             d="m 170.277,12.07 -0.617,0.371 -0.851,0.52 -0.848,0.527 -0.848,0.547 -0.847,0.555 -0.844,0.57 -0.844,0.582 -0.32,0.223 1.019,1.453 0.317,-0.223 0.828,-0.574 0.828,-0.555 0.828,-0.546 0.832,-0.532 0.832,-0.519 0.832,-0.508 0.614,-0.363 z m -8.914,6.004 -0.148,0.117 -0.836,0.637 -0.836,0.66 -0.84,0.668 -0.828,0.676 -0.832,0.691 -0.828,0.704 -0.418,0.355 1.164,1.348 0.406,-0.36 0.821,-0.691 0.816,-0.676 0.816,-0.672 0.825,-0.656 0.82,-0.645 0.824,-0.628 0.145,-0.114 z m -8.234,6.887 -0.211,0.191 -0.82,0.766 -0.821,0.773 -0.812,0.782 -0.813,0.797 -0.812,0.804 -0.809,0.821 -0.043,0.046 1.27,1.235 0.039,-0.043 0.801,-0.805 0.797,-0.797 0.804,-0.785 0.805,-0.773 0.808,-0.762 0.805,-0.754 0.203,-0.184 z m -7.609,7.562 -0.708,0.754 -0.796,0.875 -0.793,0.887 -0.793,0.895 -0.785,0.902 -0.793,0.918 -0.082,0.105 1.351,1.145 0.086,-0.102 0.777,-0.906 0.778,-0.898 0.785,-0.883 0.785,-0.871 0.789,-0.867 0.695,-0.75 z m -7.043,8.082 -0.747,0.926 -0.773,0.965 -0.769,0.981 -0.77,0.988 -0.766,1.004 -0.566,0.754 1.414,1.066 0.566,-0.75 0.758,-0.992 0.758,-0.981 0.77,-0.968 0.761,-0.957 0.75,-0.926 z m -6.512,8.489 -0.34,0.476 -0.746,1.051 -0.75,1.063 -0.742,1.066 -0.735,1.082 -0.738,1.09 -0.023,0.031 1.48,0.981 0.016,-0.028 0.73,-1.082 0.735,-1.07 0.734,-1.059 0.742,-1.054 0.734,-1.039 0.344,-0.469 z m -6.031,8.832 -0.204,0.32 -0.722,1.129 -0.719,1.133 -0.711,1.152 -0.715,1.152 -0.707,1.161 1.524,0.922 0.699,-1.161 0.707,-1.148 0.707,-1.133 0.711,-1.133 0.715,-1.117 0.207,-0.312 z"
             style="fill:#000000;fill-opacity:1;fill-rule:nonzero;stroke:none;stroke-width:1.22524"
             id="path458" /></g></g></g></g><g
     id="g466"
     transform="matrix(0.28792555,0,0,0.28792555,0.05738501,0)"
     style="stroke-width:1.22524"><g
       id="g468"
       style="stroke-width:1.22524" /><g
       id="g482"
       style="stroke-width:1.22524"><g
         clip-path="url(#clipPath472-3)"
         opacity="0.339445"
         id="g480"
         style="stroke-width:1.50121"><g
           id="g478"
           style="stroke-width:1.22524"><g
             id="g476"
             style="stroke-width:1.22524"><path
               d="m 0.887,173.656 c 0,-32.804 77.347,-59.394 172.761,-59.394 95.414,0 172.762,26.59 172.762,59.394"
               style="fill:none;stroke:#000000;stroke-width:2.17418;stroke-linecap:butt;stroke-linejoin:miter;stroke-miterlimit:4;stroke-dasharray:8.69669, 4.34835;stroke-dashoffset:0;stroke-opacity:1"
               id="path474" /></g></g></g></g></g><g
     id="g484"
     transform="matrix(0.28792555,0,0,0.28792555,0.05738501,0)"
     style="stroke-width:1.22524"><path
       d="m 346.41,173.656 c 0,32.805 -77.348,59.395 -172.762,59.395 -95.414,0 -172.761,-26.59 -172.761,-59.395"
       style="fill:none;stroke:#002255;stroke-width:2.17261;stroke-linecap:butt;stroke-linejoin:miter;stroke-miterlimit:4;stroke-dasharray:none;stroke-opacity:1"
       id="path486" /></g><text
     xml:space="preserve"
     style="font-variant:normal;font-size:5.75851px;font-family:'Asana Math';-inkscape-font-specification:Asana-Math;writing-mode:lr-tb;fill:#ffffff;fill-opacity:1;fill-rule:nonzero;stroke:none;stroke-width:0.352778"
     id="text490"
     x="54.022118"
     y="98.825974"><tspan
       x="54.022118"
       y="98.825974"
       id="tspan488"
       style="stroke-width:0.352778">S</tspan></text><text
     xml:space="preserve"
     style="font-variant:normal;font-size:5.75851px;font-family:'Asana Math';-inkscape-font-specification:Asana-Math;writing-mode:lr-tb;fill:#ffffff;fill-opacity:1;fill-rule:nonzero;stroke:none;stroke-width:0.352778"
     id="text496"
     x="52.112141"
     y="9.0878916"><tspan
       x="52.112141"
       y="9.0878916"
       id="tspan494"
       style="stroke-width:0.352778">N</tspan></text><path
     d="m 36.671149,19.816191 c 0,1.086637 -0.880766,1.965959 -1.965958,1.965959 -1.085478,0 -1.9648,-0.879322 -1.9648,-1.965959 0,-1.085192 0.879322,-1.964799 1.9648,-1.964799 1.085192,0 1.965958,0.879607 1.965958,1.964799 z"
     style="fill:#ff0000;fill-opacity:1;fill-rule:evenodd;stroke:none;stroke-width:0.352778"
     id="path500" /><g
     id="g502"
     transform="matrix(0.28792555,0,0,0.28792555,0.05738501,0)"
     style="stroke-width:1.22524"><g
       id="g504"
       style="stroke-width:1.22524" /><g
       id="g518"
       style="stroke-width:1.22524"><g
         clip-path="url(#clipPath508-0)"
         opacity="0.339445"
         id="g516"
         style="stroke-width:1.50121"><g
           id="g514"
           style="stroke-width:1.22524"><path
             d="m 138.281,42.254 c 1,-2.621 1.875,-6.492 1.625,-8.988 0,0 2.75,2.246 2.313,4.179 1.808,-0.812 4.558,1.43 4.558,1.43 -2.5,0.25 -6.125,1.879 -8.496,3.379 z"
             style="fill:#000000;fill-opacity:1;fill-rule:evenodd;stroke:none;stroke-width:1.22524"
             id="path510" /><path
             d="m 137.094,43.699 1.5,-0.949 c 2.308,-1.457 5.941,-3.051 8.242,-3.285 l 1.422,-0.149 -1.106,-0.898 c 0,0 -0.73,-0.602 -1.711,-1.094 -0.804,-0.402 -1.847,-0.515 -2.843,-0.347 -0.032,-1.008 -0.348,-2.004 -0.903,-2.711 -0.679,-0.864 -1.414,-1.457 -1.414,-1.457 l -1.101,-0.903 0.14,1.418 c 0.231,2.301 -0.625,6.172 -1.597,8.719 z m 1.941,-2.371 c 0.727,-2.183 1.203,-4.648 1.231,-6.848 0.207,0.211 0.257,0.215 0.496,0.516 0.586,0.746 1.027,1.664 0.879,2.32 l -0.262,1.153 1.082,-0.485 c 0.617,-0.277 1.598,-0.027 2.445,0.399 0.34,0.172 0.356,0.222 0.602,0.387 -2.153,0.46 -4.481,1.414 -6.473,2.558 z"
             style="fill:#000000;fill-opacity:1;fill-rule:evenodd;stroke:none;stroke-width:1.22524"
             id="path512" /></g></g></g></g><text
     xml:space="preserve"
     style="font-variant:normal;font-size:5.75851px;font-family:'Asana Math';-inkscape-font-specification:Asana-Math;writing-mode:lr-tb;fill:#666666;fill-opacity:1;fill-rule:nonzero;stroke:none;stroke-width:0.352778"
     id="text522"
     x="27.831175"
     y="20.594767"><tspan
       x="27.831175"
       y="20.594767"
       id="tspan520"
       style="stroke-width:0.352778">P</tspan></text><path
     style="fill:none;stroke:#002255;stroke-width:0.626"
     d="M 50.459833,2.893418 C 53.894941,1.1269389 57.378489,0.49738847 60.729507,1.2275396 74.329885,4.1909439 80.597264,28.429422 74.728093,55.365715 70.349202,75.462435 60.451766,91.383008 50.059593,96.941587"
     id="path8379" /><path
     d="m 52.022189,96.842039 c 0,1.085192 -0.879322,1.965958 -1.964808,1.965958 -1.085183,0 -1.96595,-0.880766 -1.96595,-1.965958 0,-1.085478 0.880767,-1.9648 1.96595,-1.9648 1.085486,0 1.964808,0.879322 1.964808,1.9648 z"
     style="fill:#ff0000;fill-opacity:1;fill-rule:evenodd;stroke:none;stroke-width:0.352778"
     id="path492" /><path
     d="m 52.204447,3.1378192 c 0,1.0854776 -0.880481,1.9650852 -1.965958,1.9650852 -1.085192,0 -1.9648,-0.8796076 -1.9648,-1.9650852 0,-1.0851919 0.879608,-1.9659585 1.9648,-1.9659585 1.085477,0 1.965958,0.8807666 1.965958,1.9659585 z"
     style="fill:#ff0000;fill-opacity:1;fill-rule:evenodd;stroke:none;stroke-width:0.352778"
     id="path498" /></svg>
