<?xml version="1.0" encoding="UTF-8" standalone="no"?>
<svg
   id="primary_logo_-_single_color_-_white"
   data-name="primary logo - single color - white"
   viewBox="0 0 55.368729 24.813562"
   version="1.1"
   sodipodi:docname="arxiv_logo.svg"
   width="55.368729"
   height="24.813562"
   inkscape:version="1.1.2 (08b2f3d93c, 2022-04-05)"
   xmlns:inkscape="http://www.inkscape.org/namespaces/inkscape"
   xmlns:sodipodi="http://sodipodi.sourceforge.net/DTD/sodipodi-0.dtd"
   xmlns="http://www.w3.org/2000/svg"
   xmlns:svg="http://www.w3.org/2000/svg">
  <defs
     id="defs21" />
  <sodipodi:namedview
     id="namedview19"
     pagecolor="#ffffff"
     bordercolor="#999999"
     borderopacity="1"
     inkscape:pageshadow="0"
     inkscape:pageopacity="0"
     inkscape:pagecheckerboard="0"
     showgrid="false"
     inkscape:zoom="2.8284271"
     inkscape:cx="-4.7729708"
     inkscape:cy="-0.53033009"
     inkscape:window-width="1600"
     inkscape:window-height="832"
     inkscape:window-x="0"
     inkscape:window-y="32"
     inkscape:window-maximized="1"
     inkscape:current-layer="primary_logo_-_single_color_-_white" />
  <g
     id="g936"
     transform="matrix(0.22327901,0,0,0.22327901,0.11164668,0.11164017)"
     style="fill:#3b82f6;fill-opacity:1;stroke:#3b82f6;stroke-opacity:1">
    <path
       d="m 134.81269,46.228 24.36,-29.89 c 1.492,-1.989 2.2,-3.03 1.492,-4.723 a 5.142,5.142 0 0 0 -4.481,-3.161 v 0 a 4.024,4.024 0 0 0 -3.008,1.108 l -26.139,28.26 z"
       fill="#ffffff"
       id="path2"
       style="fill:#3b82f6;fill-opacity:1;stroke:#3b82f6;stroke-opacity:1" />
    <path
       d="m 168.10969,102.069 -32.363,-38.283 -0.972,1.033 -7.789,-9.214 -7.743,-9.357 -4.695,5.076 a 4.769,4.769 0 0 0 0.015,6.53 l 47.786,51.074 a 3.913,3.913 0 0 0 3.137,1.192 4.394,4.394 0 0 0 4.027,-2.818 c 0.724,-1.73 -0.076,-3.441 -1.403,-5.233 z"
       fill="#ffffff"
       id="path4"
       style="fill:#3b82f6;fill-opacity:1;stroke:#3b82f6;stroke-opacity:1" />
    <path
       d="m 121.05169,64.815 6.052,6.485 -26.553,28.128 a 2.98,2.98 0 0 1 -2.275002,1.194 3.449,3.449 0 0 1 -3.241,-2.144 c -0.513,-1.231 0.166,-3.15 1.122,-4.168 l 0.023,-0.024 0.021,-0.026 24.851002,-29.448 m -0.047,-1.882 -25.760002,30.524 c -1.286,1.372 -2.084,3.777 -1.365,5.5 a 4.705,4.705 0 0 0 4.4,2.914 4.191,4.191 0 0 0 3.161002,-1.563 l 27.382,-29.007 -7.814,-8.372 z"
       fill="#ffffff"
       id="path6"
       style="fill:#3b82f6;fill-opacity:1;stroke:#3b82f6;stroke-opacity:1" />
    <path
       d="m 69.407688,31.882 c 1.859,0 3.1,1.24 3.985,3.453 1.062,-2.213 2.568,-3.453 4.694,-3.453 h 14.878 a 4.062,4.062 0 0 1 4.074,4.074 v 7.828 c 0,2.656 -1.327,4.074 -4.074,4.074 -2.656,0 -4.074,-1.418 -4.074,-4.074 v -3.756 h -10.539 a 2.411,2.411 0 0 0 -2.656,2.745 v 27.188 h 10.007 c 2.658,0 4.074,1.329 4.074,4.074 0,2.745 -1.416,4.074 -4.074,4.074 h -26.39 c -2.659,0 -3.986,-1.328 -3.986,-4.074 0,-2.746 1.327,-4.074 3.986,-4.074 h 8.236 V 40.028 h -7.263 c -2.656,0 -3.985,-1.329 -3.985,-4.074 0,-2.658 1.329,-4.074 3.985,-4.074 z"
       fill="#ffffff"
       id="path8"
       style="fill:#3b82f6;fill-opacity:1;stroke:#3b82f6;stroke-opacity:1" />
    <path
       d="m 181.06969,31.882 c 2.656,0 4.074,1.416 4.074,4.074 v 34.007 h 10.1 c 2.746,0 4.074,1.329 4.074,4.074 0,2.745 -1.328,4.074 -4.074,4.074 h -28.607 c -2.656,0 -4.074,-1.328 -4.074,-4.074 0,-2.746 1.418,-4.074 4.074,-4.074 h 10.362 V 40.028 h -8.533 c -2.744,0 -4.073,-1.329 -4.073,-4.074 0,-2.658 1.329,-4.074 4.073,-4.074 z m 4.22,-17.615 a 5.859,5.859 0 1 1 -5.819,-5.819 5.9,5.9 0 0 1 5.819,5.819 z"
       fill="#ffffff"
       id="path10"
       style="fill:#3b82f6;fill-opacity:1;stroke:#3b82f6;stroke-opacity:1" />
    <path
       d="m 246.97969,35.956 a 4.589,4.589 0 0 1 -0.267,1.594 l -14.876,38.078 a 3.722,3.722 0 0 1 -3.721,2.48 h -5.933 a 3.689,3.689 0 0 1 -3.808,-2.48 l -15.055,-38.081 a 3.23,3.23 0 0 1 -0.355,-1.594 4.084,4.084 0 0 1 4.164,-4.074 3.8,3.8 0 0 1 3.718,2.656 l 14.348,36.134 13.9,-36.134 a 3.8,3.8 0 0 1 3.72,-2.656 4.084,4.084 0 0 1 4.165,4.077 z"
       fill="#ffffff"
       id="path12"
       style="fill:#3b82f6;fill-opacity:1;stroke:#3b82f6;stroke-opacity:1" />
    <path
       d="m 32.446688,31.882 c 5.018,0 8.206,3.312 8.206,8.4 V 78.113 H 5.1446876 A 4.813,4.813 0 0 1 0.00168756,73.184 V 60.155 A 8.256,8.256 0 0 1 7.0016876,52.007 L 32.508688,48.435 v -8.4 H 4.1426876 A 4.014,4.014 0 0 1 0.00168756,35.961 c 0,-2.87 2.14300004,-4.074 4.35500004,-4.074 z m 0.059,38.081 V 56.67 l -24.3540004,3.4 v 9.9 z"
       fill="#ffffff"
       id="path14"
       style="fill:#3b82f6;fill-opacity:1;stroke:#3b82f6;stroke-opacity:1" />
    <path
       d="m 90.374688,1.248 h 0.077 c 1,0.024 2.236,1.245 2.589,1.669 l 0.023,0.028 0.024,0.026 46.664002,50.433 a 3.173,3.173 0 0 1 -0.034,4.336 l -4.893,5.2 -6.876,-8.134 L 88.488688,7.128 c -1.508,-2.166 -1.617,-2.836 -1.191,-3.858 a 3.353,3.353 0 0 1 3.077,-2.02 m 0,-1.25 a 4.606,4.606 0 0 0 -4.231,2.789 c -0.705,1.692 -0.2,2.88 1.349,5.1 l 39.493002,47.722 7.789,9.214 5.853,-6.221 a 4.417,4.417 0 0 0 0.042,-6.042 L 94.005688,2.128 c 0,0 -1.713,-2.08 -3.524,-2.124 z"
       fill="#ffffff"
       id="path16"
       style="fill:#3b82f6;fill-opacity:1;stroke:#3b82f6;stroke-opacity:1" />
  </g>
</svg>
