<svg id="visual" viewBox="0 0 900 600" width="900" height="600" xmlns="http://www.w3.org/2000/svg" xmlns:xlink="http://www.w3.org/1999/xlink" version="1.1"><path d="M0 342L15 357.5C30 373 60 404 90 412.3C120 420.7 150 406.3 180 396.2C210 386 240 380 270 383.2C300 386.3 330 398.7 360 393C390 387.3 420 363.7 450 351C480 338.3 510 336.7 540 348.5C570 360.3 600 385.7 630 400.2C660 414.7 690 418.3 720 422.5C750 426.7 780 431.3 810 422C840 412.7 870 389.3 885 377.7L900 366L900 601L885 601C870 601 840 601 810 601C780 601 750 601 720 601C690 601 660 601 630 601C600 601 570 601 540 601C510 601 480 601 450 601C420 601 390 601 360 601C330 601 300 601 270 601C240 601 210 601 180 601C150 601 120 601 90 601C60 601 30 601 15 601L0 601Z" fill="#82b2f9" stroke-linecap="round" stroke-linejoin="miter"></path></svg>