<?xml version="1.0" encoding="UTF-8" standalone="no"?>
<!-- Created with Inkscape (http://www.inkscape.org/) -->

<svg
   width="963.25958mm"
   height="75.352226mm"
   viewBox="0 0 963.25956 75.352228"
   version="1.1"
   id="svg5"
   inkscape:version="1.2 (1:1.2.1+202207142221+cd75a1ee6d)"
   sodipodi:docname="myName.svg"
   xmlns:inkscape="http://www.inkscape.org/namespaces/inkscape"
   xmlns:sodipodi="http://sodipodi.sourceforge.net/DTD/sodipodi-0.dtd"
   xmlns:xlink="http://www.w3.org/1999/xlink"
   xmlns="http://www.w3.org/2000/svg"
   xmlns:svg="http://www.w3.org/2000/svg">
  <sodipodi:namedview
     id="namedview7"
     pagecolor="#f9f2a5"
     bordercolor="#999999"
     borderopacity="1"
     inkscape:showpageshadow="0"
     inkscape:pageopacity="0.90588235"
     inkscape:pagecheckerboard="false"
     inkscape:deskcolor="#d1d1d1"
     inkscape:document-units="mm"
     showgrid="false"
     showborder="true"
     borderlayer="true"
     shape-rendering="auto"
     inkscape:zoom="0.25"
     inkscape:cx="1660"
     inkscape:cy="182"
     inkscape:window-width="1600"
     inkscape:window-height="832"
     inkscape:window-x="0"
     inkscape:window-y="32"
     inkscape:window-maximized="1"
     inkscape:current-layer="text36710" />
  <defs
     id="defs2">
    <linearGradient
       inkscape:collect="always"
       id="linearGradient37281">
      <stop
         style="stop-color:#909050;stop-opacity:0;"
         offset="0"
         id="stop37279" />
      <stop
         style="stop-color:#909050;stop-opacity:1;"
         offset="1"
         id="stop37277" />
    </linearGradient>
    <linearGradient
       inkscape:collect="always"
       id="linearGradient37273">
      <stop
         style="stop-color:#9cfc00;stop-opacity:0;"
         offset="0"
         id="stop37271" />
      <stop
         style="stop-color:#9cfc00;stop-opacity:1;"
         offset="1"
         id="stop37269" />
    </linearGradient>
    <linearGradient
       inkscape:collect="always"
       id="linearGradient37265">
      <stop
         style="stop-color:#9e9e9e;stop-opacity:0;"
         offset="0"
         id="stop37263" />
      <stop
         style="stop-color:#9e9e9e;stop-opacity:1;"
         offset="1"
         id="stop37261" />
    </linearGradient>
    <linearGradient
       inkscape:collect="always"
       id="linearGradient37257">
      <stop
         style="stop-color:#c08400;stop-opacity:0;"
         offset="0"
         id="stop37255" />
      <stop
         style="stop-color:#c08400;stop-opacity:1;"
         offset="1"
         id="stop37253" />
    </linearGradient>
    <linearGradient
       inkscape:collect="always"
       id="linearGradient37249">
      <stop
         style="stop-color:#3cb1c3;stop-opacity:0;"
         offset="0"
         id="stop37247" />
      <stop
         style="stop-color:#3cb1c3;stop-opacity:1;"
         offset="1"
         id="stop37245" />
    </linearGradient>
    <linearGradient
       inkscape:collect="always"
       id="linearGradient37241">
      <stop
         style="stop-color:#67dab8;stop-opacity:0;"
         offset="0"
         id="stop37239" />
      <stop
         style="stop-color:#67dab8;stop-opacity:1;"
         offset="1"
         id="stop37237" />
    </linearGradient>
    <linearGradient
       inkscape:collect="always"
       id="linearGradient37233">
      <stop
         style="stop-color:#4ab563;stop-opacity:1;"
         offset="0"
         id="stop37229" />
      <stop
         style="stop-color:#4ab563;stop-opacity:0;"
         offset="1"
         id="stop37231" />
    </linearGradient>
    <linearGradient
       inkscape:collect="always"
       id="linearGradient37225">
      <stop
         style="stop-color:#fd7e14;stop-opacity:1;"
         offset="0"
         id="stop37221" />
      <stop
         style="stop-color:#fd7e14;stop-opacity:0;"
         offset="1"
         id="stop37223" />
    </linearGradient>
    <linearGradient
       inkscape:collect="always"
       id="linearGradient37217">
      <stop
         style="stop-color:#d63384;stop-opacity:1;"
         offset="0"
         id="stop37213" />
      <stop
         style="stop-color:#d63384;stop-opacity:0;"
         offset="1"
         id="stop37215" />
    </linearGradient>
    <linearGradient
       inkscape:collect="always"
       id="linearGradient37209">
      <stop
         style="stop-color:#fd7e14;stop-opacity:1;"
         offset="0"
         id="stop37205" />
      <stop
         style="stop-color:#fd7e14;stop-opacity:0;"
         offset="1"
         id="stop37207" />
    </linearGradient>
    <linearGradient
       inkscape:collect="always"
       id="linearGradient37201">
      <stop
         style="stop-color:#d63384;stop-opacity:1;"
         offset="0"
         id="stop37197" />
      <stop
         style="stop-color:#d63384;stop-opacity:0;"
         offset="1"
         id="stop37199" />
    </linearGradient>
    <linearGradient
       inkscape:collect="always"
       id="linearGradient37193">
      <stop
         style="stop-color:#975cf6;stop-opacity:1;"
         offset="0"
         id="stop37189" />
      <stop
         style="stop-color:#975cf6;stop-opacity:0;"
         offset="1"
         id="stop37191" />
    </linearGradient>
    <linearGradient
       inkscape:collect="always"
       id="linearGradient37185">
      <stop
         style="stop-color:#3485fd;stop-opacity:1;"
         offset="0"
         id="stop37181" />
      <stop
         style="stop-color:#3485fd;stop-opacity:0;"
         offset="1"
         id="stop37183" />
    </linearGradient>
    <linearGradient
       inkscape:collect="always"
       xlink:href="#linearGradient37193"
       id="linearGradient37195"
       x1="-19.92692"
       y1="89.369881"
       x2="5.1966305"
       y2="89.369881"
       gradientUnits="userSpaceOnUse"
       gradientTransform="matrix(2.9646798,0,0,2.9892627,-240.19163,-268.63693)" />
    <linearGradient
       inkscape:collect="always"
       xlink:href="#linearGradient37201"
       id="linearGradient37203"
       x1="6.3022933"
       y1="89.374123"
       x2="29.409357"
       y2="89.374123"
       gradientUnits="userSpaceOnUse"
       gradientTransform="matrix(2.9646798,0,0,2.9892627,-240.19163,-268.63693)" />
    <linearGradient
       inkscape:collect="always"
       xlink:href="#linearGradient37209"
       id="linearGradient37211"
       x1="30.51502"
       y1="89.380226"
       x2="57.555096"
       y2="89.380226"
       gradientUnits="userSpaceOnUse"
       gradientTransform="matrix(2.9646798,0,0,2.9892627,-240.19163,-268.63693)" />
    <linearGradient
       inkscape:collect="always"
       xlink:href="#linearGradient37217"
       id="linearGradient37219"
       x1="58.660759"
       y1="89.373299"
       x2="81.769424"
       y2="89.373299"
       gradientUnits="userSpaceOnUse"
       gradientTransform="matrix(2.9646798,0,0,2.9892627,-240.19163,-268.63693)" />
    <linearGradient
       inkscape:collect="always"
       xlink:href="#linearGradient37225"
       id="linearGradient37227"
       x1="82.875092"
       y1="89.393425"
       x2="109.90205"
       y2="89.393425"
       gradientUnits="userSpaceOnUse"
       gradientTransform="matrix(2.9646798,0,0,2.9892627,-240.19163,-268.63693)" />
    <linearGradient
       inkscape:collect="always"
       xlink:href="#linearGradient37233"
       id="linearGradient37235"
       x1="111.00772"
       y1="89.383324"
       x2="123.12363"
       y2="89.383324"
       gradientUnits="userSpaceOnUse"
       gradientTransform="matrix(2.9646798,0,0,2.9892627,-240.19163,-268.63693)" />
    <linearGradient
       inkscape:collect="always"
       xlink:href="#linearGradient37241"
       id="linearGradient37243"
       x1="124.2293"
       y1="89.384384"
       x2="147.86319"
       y2="89.384384"
       gradientUnits="userSpaceOnUse"
       gradientTransform="matrix(2.9646798,0,0,2.9892627,-240.19163,-268.63693)" />
    <linearGradient
       inkscape:collect="always"
       xlink:href="#linearGradient37249"
       id="linearGradient37251"
       x1="148.96886"
       y1="89.36985"
       x2="174.09264"
       y2="89.36985"
       gradientUnits="userSpaceOnUse"
       gradientTransform="matrix(2.9646798,0,0,2.9892627,-240.19163,-268.63693)" />
    <linearGradient
       inkscape:collect="always"
       xlink:href="#linearGradient37257"
       id="linearGradient37259"
       x1="175.19829"
       y1="89.385231"
       x2="202.61111"
       y2="89.385231"
       gradientUnits="userSpaceOnUse"
       gradientTransform="matrix(2.9646798,0,0,2.9892627,-240.19163,-268.63693)" />
    <linearGradient
       inkscape:collect="always"
       xlink:href="#linearGradient37265"
       id="linearGradient37267"
       x1="203.71678"
       y1="89.369957"
       x2="228.84035"
       y2="89.369957"
       gradientUnits="userSpaceOnUse"
       gradientTransform="matrix(2.9646798,0,0,2.9892627,-240.19163,-268.63693)" />
    <linearGradient
       inkscape:collect="always"
       xlink:href="#linearGradient37273"
       id="linearGradient37275"
       x1="229.94598"
       y1="89.387474"
       x2="257.36337"
       y2="89.387474"
       gradientUnits="userSpaceOnUse"
       gradientTransform="matrix(2.9646798,0,0,2.9892627,-240.19163,-268.63693)" />
    <linearGradient
       inkscape:collect="always"
       xlink:href="#linearGradient37281"
       id="linearGradient37283"
       x1="258.46902"
       y1="89.384361"
       x2="282.1087"
       y2="89.384361"
       gradientUnits="userSpaceOnUse"
       gradientTransform="matrix(2.9646798,0,0,2.9892627,-240.19163,-268.63693)" />
    <linearGradient
       inkscape:collect="always"
       xlink:href="#linearGradient37185"
       id="linearGradient37285"
       gradientUnits="userSpaceOnUse"
       x1="-43.497772"
       y1="89.488403"
       x2="-21.032581"
       y2="89.488403"
       gradientTransform="matrix(2.9646798,0,0,2.9892627,-240.19163,-268.63693)" />
  </defs>
  <g
     inkscape:label="Layer 1"
     inkscape:groupmode="layer"
     id="layer1"
     transform="translate(368.28392,39.019437)">
    <g
       aria-label="Hello World"
       transform="scale(0.99855517,1.0014469)"
       id="text36710"
       style="font-size:33.628px;line-height:1.25;font-family:'Century Schoolbook';-inkscape-font-specification:'Century Schoolbook, Normal';font-variant-ligatures:none;fill:none;stroke:#d40000;stroke-width:0.264583">
      <path
         id="path37026"
         style="font-size:18.9212px;font-family:YoungSerif;-inkscape-font-specification:'YoungSerif, Normal';fill:url(#linearGradient37285);fill-opacity:1;stroke-width:0.337734"
         d="m -321.64367,-38.335488 c -1.89362,0.0058 -3.72371,1.524212 -3.72189,3.499179 -9.9435,-4.336196 -22.44874,-4.224471 -31.46042,2.260083 -9.15435,6.644445 -8.41151,21.661881 0.0604,28.5612476 8.4053,7.6999439 20.05107,9.2351893 30.25612,13.2242927 5.12212,1.4216337 7.36393,9.0725357 2.75507,12.3423917 -6.87615,3.925541 -15.6178,1.115518 -21.73719,-3.101741 -5.27373,-3.46196 -8.75474,-8.8534486 -12.53665,-13.7399757 -3.39573,-2.0771906 -6.79016,1.3489924 -9.54305,3.0918721 -3.08488,3.6129576 1.31465,7.5477956 2.55473,10.9733266 2.97458,5.263458 5.28427,11.023403 8.65676,15.992569 2.60825,2.016282 6.33261,1.206264 9.37803,1.027562 2.3028,-1.018558 2.04669,-3.876696 4.8343,-1.890618 11.11349,3.400611 24.73155,2.104737 33.28288,-6.450034 7.71648,-7.806603 8.06699,-22.4550336 -0.92878,-29.4372968 -8.68159,-7.4985697 -20.56827,-8.4726452 -30.56052,-13.3026992 -3.25694,-1.297182 -5.59717,-5.564959 -2.90601,-8.553551 5.43337,-3.792897 12.59654,-0.738354 17.38101,2.814153 3.76414,2.491707 6.28932,6.400402 9.54304,9.368182 3.10545,1.503317 6.45475,-1.063232 8.75467,-3.045589 1.83476,-3.706789 -1.59757,-7.389857 -2.39793,-10.983265 -1.9014,-3.886372 -2.40231,-8.66079 -5.35751,-11.900268 -1.92245,-1.132624 -4.18919,-0.69972 -6.30703,-0.749821 z" />
      <path
         id="path37028"
         style="font-size:18.9212px;font-family:YoungSerif;-inkscape-font-specification:'YoungSerif, Normal';fill:url(#linearGradient37195);fill-opacity:1;stroke-width:0.337734"
         d="m -268.04969,-37.789319 c -4.33535,0.436664 -4.14397,5.987701 -5.7982,9.039085 -6.27442,17.070764 -12.15872,34.3039248 -18.67867,51.272711 -0.74246,3.002192 -4.79018,1.119307 -5.70152,3.960189 -0.91131,2.849807 -1.0716,8.01068 2.88369,8.387168 7.94562,-0.03251 15.9525,0.293554 23.87534,-0.157559 3.14223,-1.300395 2.76906,-5.639881 1.92511,-8.294345 -1.4704,-3.160656 -6.44017,-0.88395 -7.52627,-4.61005 -0.6318,-2.983581 1.43486,-5.726654 2.08095,-8.5628 6.88762,0 13.77524,0 20.66285,0 0.59829,3.212813 4.14375,7.141725 1.21007,10.071716 -2.0773,1.747353 -6.31935,0.480355 -6.85705,4.045336 -0.59859,2.952308 -0.26486,7.629691 3.6852,7.553797 9.50357,-0.141015 19.05204,0.278894 28.5283,-0.203577 3.1184,-1.303377 2.6733,-5.564622 1.94345,-8.229706 -0.85875,-2.780589 -4.74511,-0.975965 -5.50773,-3.835468 -7.79329,-19.4838211 -14.71269,-39.356909 -22.48887,-58.844305 -2.87586,-3.023655 -7.5619,-1.041508 -11.24264,-1.610733 -0.99705,0.0177 -1.9991,-0.03174 -2.99401,0.01847 z m 9.08469,38.1669945 c -3.85328,0 -7.70655,0 -11.55983,0 1.88233,-5.4586028 3.76466,-10.9171975 5.64699,-16.3757965 1.97095,5.458599 3.94189,10.9171937 5.91284,16.3757965 z" />
      <path
         id="path37030"
         style="font-size:18.9212px;font-family:YoungSerif;-inkscape-font-specification:'YoungSerif, Normal';fill:url(#linearGradient37203);fill-opacity:1;stroke-width:0.337734"
         d="m -188.30605,-38.7428 c -11.52382,0.214329 -22.93739,6.689491 -27.98677,17.34949 -6.60995,13.7142972 -6.64931,31.468467 2.36447,44.126867 9.20975,12.634716 27.3202,16.047582 41.36656,10.612875 9.01675,-3.632199 16.07295,-11.734684 19.0544,-20.971566 0.1702,-3.7531333 -4.31938,-4.5962634 -6.97623,-5.8412261 -4.47238,-0.9277525 -5.12752,4.5129681 -7.15041,7.1927621 -4.91739,8.068127 -16.66301,11.209448 -24.71475,6.257789 -7.77359,-6.043089 -8.57646,-16.9907291 -8.51907,-26.1561729 0.41431,-7.6061741 2.72167,-17.0849341 10.58169,-20.0182021 5.46026,-1.947469 12.45454,0.85657 13.56849,6.987919 1.29261,2.995351 -0.3286,6.44715 0.7965,9.286053 2.63509,3.4939028 7.14389,0.1606761 10.33834,-0.650111 3.24447,-1.614298 8.93148,-1.613515 9.1786,-6.329738 -1.52924,-10.965789 -11.11143,-19.208327 -21.60708,-21.069618 -3.37355,-0.744891 -6.85073,-0.930931 -10.29474,-0.777121 z" />
      <path
         id="path37032"
         style="font-size:18.9212px;font-family:YoungSerif;-inkscape-font-specification:'YoungSerif, Normal';fill:url(#linearGradient37211);fill-opacity:1;stroke-width:0.337734"
         d="m -145.6589,-37.780061 c -3.97918,0.198248 -3.78201,5.066439 -3.28185,7.979611 0.93279,3.70989 6.0726,1.052734 7.0404,4.610034 1.2124,6.747107 0.23548,13.736515 0.55003,20.5785178 -0.16123,8.5946627 0.32175,17.2279262 -0.23833,25.7995242 -0.1187,2.817334 -2.86868,3.491877 -5.14279,3.480662 -3.13563,1.294162 -2.69481,5.567642 -1.96178,8.238805 1.99502,3.469849 6.72614,1.479174 9.95374,2.008778 7.31308,-0.142554 14.67152,0.280991 21.95725,-0.203558 3.11839,-1.303203 2.6733,-5.564467 1.94344,-8.229551 -1.22461,-3.308019 -6.4779,-0.625833 -6.99824,-4.666821 -0.94041,-5.937572 -0.18381,-12.0458167 -0.42717,-18.0500892 8.4002,0 16.80041,0 25.200612,0 -0.298043,6.1489945 0.638099,12.4400792 -0.550032,18.4956802 -1.011003,3.562846 -6.16459,0.948012 -7.12291,4.647044 -0.60374,3.041938 -0.56097,8.089922 3.63021,8.007391 9.503559,-0.141015 19.052031,0.278894 28.528294,-0.203577 3.118396,-1.303223 2.673303,-5.564467 1.94345,-8.229551 -1.202081,-3.305826 -6.452952,-0.612116 -6.927482,-4.6502 -0.958668,-7.418947 -0.147468,-15.0085317 -0.415429,-22.49159748 0.233825,-7.95133502 -0.474514,-15.98600952 0.363755,-23.88643152 0.350048,-3.651489 4.408446,-2.128029 6.410779,-3.847817 1.504255,-2.39613 1.509366,-5.981112 0,-8.368417 -3.271842,-2.17118 -7.570217,-0.541257 -11.26281,-1.046051 -6.691531,0.129587 -13.419538,-0.255672 -20.088977,0.185127 -3.09789,1.348812 -2.67088,5.571203 -1.93428,8.248067 1.22352,3.294877 6.498418,0.659887 6.996176,4.67667 0.928267,5.360872 0.196113,10.890752 0.429229,16.3184182 -8.400205,0 -16.800415,0 -25.200605,0 0.37886,-5.6981322 -0.83051,-11.6571432 0.75648,-17.1809902 1.27033,-3.038673 6.0185,-0.65567 6.91645,-4.239925 0.60231,-3.036049 0.56106,-8.10294 -3.6302,-8.007387 -9.14503,0.01885 -18.296,-0.03746 -27.4374,0.02811 z" />
      <path
         id="path37034"
         style="font-size:18.9212px;font-family:YoungSerif;-inkscape-font-specification:'YoungSerif, Normal';font-variation-settings:normal;opacity:1;vector-effect:none;fill:url(#linearGradient37219);fill-opacity:1;stroke:#d40000;stroke-width:0.337734;stroke-linecap:butt;stroke-linejoin:miter;stroke-miterlimit:4;stroke-dasharray:none;stroke-dashoffset:0;stroke-opacity:1;-inkscape-stroke:none;stop-color:#000000;stop-opacity:1"
         d="m -33.084222,-38.7428 c -11.359351,0.229635 -22.638012,6.490585 -27.763917,16.932353 -6.618313,13.2949604 -6.903032,30.4141248 1.179068,43.155441 7.951126,12.444894 24.324814,16.740729 38.062919,13.406738 C -10.637287,32.138187 -1.7076482,23.05893 1.7236034,12.374866 1.8906964,8.6253379 -2.593818,7.7774925 -5.2526262,6.5336399 -9.7813217,5.6160085 -10.399535,11.114805 -12.467209,13.828231 c -4.962729,7.997675 -16.640113,11.082706 -24.668908,6.15596 -7.8583,-6.153915 -8.597518,-17.2570489 -8.497985,-26.5400814 0.495587,-7.5042026 2.872953,-16.9040946 10.707277,-19.6805766 5.530556,-1.912536 12.483746,1.080426 13.494104,7.257563 1.224116,2.935579 -0.389896,6.297524 0.733375,9.062692 2.635966,3.4915058 7.151584,0.1646392 10.347511,-0.650111 3.2171867,-1.594306 8.9668244,-1.637928 9.1602721,-6.329738 -1.5050789,-11.155761 -11.3977971,-19.400676 -22.0471141,-21.171605 -3.237493,-0.648043 -6.55139,-0.828659 -9.845545,-0.675134 z" />
      <path
         id="path37036"
         style="font-size:18.9212px;font-family:YoungSerif;-inkscape-font-specification:'YoungSerif, Normal';font-variation-settings:normal;opacity:1;vector-effect:none;fill:url(#linearGradient37227);fill-opacity:1;stroke:#d40000;stroke-width:0.337734;stroke-linecap:butt;stroke-linejoin:miter;stroke-miterlimit:4;stroke-dasharray:none;stroke-dashoffset:0;stroke-opacity:1;-inkscape-stroke:none;stop-color:#000000;stop-opacity:1"
         d="m 9.5719418,-37.780061 c -3.9791782,0.198248 -3.7820089,5.066439 -3.2818567,7.979611 0.863439,3.23709 4.6991189,1.602573 6.4903759,3.536211 2.128637,4.809535 0.662264,10.367077 1.100062,15.490819 -0.163375,10.64852485 0.324422,21.335551 -0.238331,31.961046 -0.124931,2.829704 -2.863689,3.49536 -5.1427921,3.480662 -3.1356318,1.294162 -2.694814,5.567642 -1.9617761,8.238805 1.9950164,3.469849 6.7261472,1.479174 9.9537352,2.008778 7.313085,-0.142554 14.67152,0.280991 21.957254,-0.203558 3.118394,-1.303203 2.673302,-5.564467 1.943444,-8.229551 -1.22651,-3.298266 -6.489092,-0.648553 -7.002809,-4.677402 -0.949785,-5.934808 -0.186429,-12.0384773 -0.431764,-18.0395082 8.403258,0 16.806518,0 25.209767,0 -0.303614,6.1511645 0.64965,12.4517312 -0.559199,18.5049342 -1.014275,3.573985 -6.165859,0.920405 -7.122898,4.63779 -0.58952,3.051346 -0.580519,8.090884 3.63937,8.007391 9.504171,-0.134474 19.048749,0.266043 28.528311,-0.194304 3.112465,-1.317555 2.676957,-5.567488 1.943446,-8.238805 -1.207232,-3.31129 -6.471399,-0.609519 -6.942878,-4.669534 -0.917066,-8.045966 -0.146415,-16.2450604 -0.400073,-24.3496091 0.232731,-7.3414893 -0.475215,-14.7665489 0.368989,-22.0564719 0.380448,-4.149172 5.743618,-1.48439 6.973962,-4.781692 0.820938,-2.746663 1.14629,-7.556543 -2.456836,-8.322125 -9.794176,-0.134224 -19.659861,-0.288553 -29.445003,0.07407 -3.13085,1.31113 -2.698587,5.569989 -1.961781,8.24807 1.232868,3.313361 6.51628,0.625503 7.016125,4.694708 0.905056,5.357688 0.190933,10.87837 0.418493,16.3003804 -8.40326,0 -16.80652,0 -25.209774,0 0.38614,-5.7048574 -0.847721,-11.6737644 0.772913,-17.2004414 1.280836,-2.991344 6.015361,-0.651558 6.909191,-4.220473 0.602307,-3.03605 0.56106,-8.102941 -3.630209,-8.007387 -9.145021,0.01885 -18.295995,-0.03746 -27.4373988,0.02811 z" />
      <path
         id="path37038"
         style="font-size:18.9212px;font-family:YoungSerif;-inkscape-font-specification:'YoungSerif, Normal';fill:url(#linearGradient37235);fill-opacity:1;stroke-width:0.337734"
         d="m 92.976211,-37.780061 c -3.979186,0.198248 -3.782006,5.066439 -3.281876,7.979611 0.862314,3.104055 4.41774,1.768085 6.362067,3.286269 2.443632,4.276798 0.859305,9.597782 1.320071,14.318873 -0.163279,11.1225028 0.324815,22.283454 -0.238365,33.382934 -0.123226,2.901828 -2.940235,3.462713 -5.234482,3.480662 -3.135633,1.294162 -2.694817,5.567642 -1.961766,8.238805 1.994997,3.469849 6.72615,1.479174 9.953771,2.008778 7.313089,-0.142554 14.671549,0.280991 21.957269,-0.203558 3.11841,-1.303203 2.67326,-5.564467 1.94343,-8.229551 -1.19606,-3.275853 -6.40465,-0.661577 -6.89583,-4.639503 -0.99872,-7.249585 -0.16424,-14.6877957 -0.43792,-22.00982375 0.1652,-7.96518645 -0.33139,-15.97438225 0.24726,-23.91291825 0.14258,-2.797393 2.85271,-3.497244 5.12444,-3.480669 3.13688,-1.297169 2.71112,-5.604612 1.9434,-8.266583 -2.00866,-3.44488 -6.71422,-1.44342 -9.93537,-1.981021 -6.95466,0.01885 -13.915326,-0.0379 -20.866406,0.02811 z" />
      <path
         id="path37040"
         style="font-size:18.9212px;font-family:YoungSerif;-inkscape-font-specification:'YoungSerif, Normal';fill:url(#linearGradient37243);fill-opacity:1;stroke-width:0.337734"
         d="m 132.17396,-37.780061 c -3.97919,0.198248 -3.78201,5.066439 -3.28184,7.979611 0.94419,3.670943 5.93246,1.131252 7.06789,4.489689 1.31258,6.45247 0.27364,13.179553 0.60505,19.74168 -0.17133,8.9102897 0.34312,17.862942 -0.25674,26.747435 -0.16194,2.826241 -2.91576,3.497898 -5.20693,3.489934 -3.13565,1.294162 -2.69483,5.567642 -1.96178,8.238805 1.995,3.469849 6.72611,1.479174 9.95371,2.008778 10.51197,-0.331644 21.11949,0.749302 31.56446,-0.722023 11.13728,-1.664513 21.1276,-9.670096 24.58393,-20.591403 4.71735,-14.06109703 2.93044,-31.682921 -8.58719,-41.949531 -8.62539,-7.968851 -20.81396,-10.048323 -32.12367,-9.460751 -7.45152,0.01885 -14.90902,-0.03746 -22.35691,0.02811 z m 24.95312,10.40497 c 8.60751,-0.422443 17.50048,4.612365 20.11795,13.194976 2.86914,8.6730016 2.6118,18.3547693 0.17133,27.098163 -1.695,6.744445 -8.2921,10.862712 -14.9264,10.991164 -2.40879,0.106002 -6.87298,0.874004 -6.82041,-2.851192 -0.23659,-16.139021 -0.033,-32.289662 -0.10081,-48.433111 0.51945,0 1.03895,0 1.55842,0 z" />
      <path
         id="path37042"
         style="font-size:18.9212px;font-family:YoungSerif;-inkscape-font-specification:'YoungSerif, Normal';fill:url(#linearGradient37251);fill-opacity:1;stroke-width:0.337734"
         d="m 232.6729,-37.789319 c -4.3331,0.436994 -4.13019,5.992122 -5.79006,9.038731 -6.27694,17.070967 -12.16565,34.3036035 -18.68684,51.273065 -0.74067,3.008637 -4.79226,1.109977 -5.70153,3.960189 -0.9341,2.892265 -1.05026,8.124896 3.00685,8.405445 7.90745,-0.07599 15.86994,0.287858 23.75218,-0.175836 3.14222,-1.300376 2.7691,-5.639862 1.92514,-8.294345 -1.53049,-3.1954 -6.84198,-0.877717 -7.6363,-4.971052 -0.26563,-2.875265 1.53128,-5.472983 2.20012,-8.201789 6.88458,0 13.76916,0 20.65368,0 0.59436,3.210101 4.1651,7.173016 1.19175,10.08098 -2.07482,1.734617 -6.30441,0.478642 -6.83872,4.036083 -0.59858,2.952288 -0.26476,7.62969 3.68524,7.553777 9.50355,-0.141015 19.05203,0.278913 28.52825,-0.203558 3.11841,-1.303223 2.67332,-5.564468 1.94345,-8.229571 -0.85467,-2.777568 -4.73006,-0.975176 -5.49255,-3.824503 -7.79904,-19.4754443 -14.73435,-39.336812 -22.47651,-58.836747 -2.88052,-3.048023 -7.57925,-1.060189 -11.27014,-1.62925 -0.99708,0.0177 -1.99912,-0.03174 -2.99401,0.01847 z m 9.10299,38.1669945 c -3.85939,0 -7.71874,0 -11.57817,0 1.88233,-5.4647725 3.7647,-10.9295465 5.64701,-16.3943095 1.97704,5.464763 3.95414,10.929537 5.93116,16.3943095 z" />
      <path
         id="path37044"
         style="font-size:18.9212px;font-family:YoungSerif;-inkscape-font-specification:'YoungSerif, Normal';fill:url(#linearGradient37259);fill-opacity:1;stroke-width:0.337734"
         d="m 284.16981,-37.780061 c -3.98696,0.19036 -3.79285,5.064173 -3.29101,7.979611 0.94834,3.167233 4.65075,1.805182 6.71035,3.425127 -0.11172,15.56494 0.22382,31.1574395 -0.16749,46.705279 -0.0422,2.899115 -2.58884,4.502798 -5.2135,4.338332 -3.13565,1.294162 -2.69484,5.567642 -1.9618,8.238805 1.99503,3.469849 6.72618,1.479174 9.95375,2.008778 5.54059,-0.144478 11.12768,0.283992 16.64029,-0.203558 3.11135,-1.328309 2.77352,-5.637149 1.9068,-8.294364 -1.29217,-3.032858 -6.12056,-0.8549 -6.80225,-4.584925 -1.25853,-6.227181 -0.23984,-12.7352115 -0.56822,-19.0724963 0,-4.5001811 0,-9.0003602 0,-13.5005437 12.73544,14.8828525 25.28836,29.95255 38.13551,44.721034 2.86239,1.769495 6.55814,0.718906 9.75391,0.814596 4.1756,-1.038815 2.5298,-6.294609 2.84183,-9.436661 0.10138,-16.2120373 -0.20102,-32.448901 0.14814,-48.645792 0.0172,-2.923385 2.62881,-4.411884 5.23299,-4.273313 3.13691,-1.297169 2.71114,-5.604612 1.94342,-8.266583 -2.00864,-3.44488 -6.71423,-1.44342 -9.93533,-1.981021 -5.55098,0.131915 -11.13903,-0.259198 -16.66779,0.185127 -3.10952,1.337131 -2.67978,5.571313 -1.94347,8.248067 1.22322,3.146779 6.18127,0.842104 6.86868,4.62113 1.23983,6.230285 0.24725,12.741272 0.56593,19.0825837 0,3.4973291 0,6.9946563 0,10.4919892 -11.98516,-13.884169 -23.77797,-27.9693389 -35.8804,-41.7309769 -3.46855,-1.911863 -7.77109,-0.433535 -11.57633,-0.89794 -2.23008,0.02241 -4.46762,-0.04265 -6.69389,0.02811 z" />
      <path
         id="path37046"
         style="font-size:18.9212px;font-family:YoungSerif;-inkscape-font-specification:'YoungSerif, Normal';fill:url(#linearGradient37267);fill-opacity:1;stroke-width:0.337734"
         d="m 394.98227,-37.789319 c -4.3306,0.420073 -4.14639,5.997153 -5.79818,9.039085 -6.27441,17.070764 -12.15873,34.3039248 -18.67865,51.272711 -0.74248,3.002192 -4.7902,1.119307 -5.70156,3.960189 -0.91131,2.849807 -1.07158,8.01068 2.88371,8.387168 7.95183,-0.03232 15.96421,0.293246 23.89366,-0.157559 3.12509,-1.340564 2.76314,-5.675548 1.88846,-8.331379 -1.57403,-3.146939 -6.87603,-0.852533 -7.62709,-4.97107 -0.25111,-2.86453 1.53373,-5.44682 2.20007,-8.164746 6.88765,0 13.77527,0 20.66288,0 0.6549,3.275335 4.4376,7.722771 0.77027,10.389394 -2.12299,1.224328 -5.94145,0.421871 -6.41728,3.727658 -0.57613,2.945306 -0.29557,7.641465 3.68525,7.553797 9.50354,-0.141015 19.05201,0.278894 28.52825,-0.203577 3.11842,-1.303223 2.67335,-5.564468 1.9435,-8.229552 -0.8586,-2.783013 -4.75641,-0.97381 -5.50951,-3.843798 -7.80741,-19.4736425 -14.70777,-39.35304 -22.48713,-58.835979 -2.88498,-3.021576 -7.56755,-1.042888 -11.25178,-1.610733 -0.99403,0.0177 -1.993,-0.03222 -2.98487,0.01847 z M 404.067,0.3776755 c -3.85331,0 -7.70657,0 -11.55985,0 1.88233,-5.4586028 3.76466,-10.9171975 5.64698,-16.3757965 1.97094,5.458599 3.94193,10.9171937 5.91287,16.3757965 z" />
      <path
         id="path37048"
         style="font-size:18.9212px;font-family:YoungSerif;-inkscape-font-specification:'YoungSerif, Normal';fill:url(#linearGradient37275);fill-opacity:1;stroke-width:0.337734"
         d="m 446.48367,-37.780061 c -3.97914,0.198248 -3.782,5.066439 -3.28183,7.979611 0.9478,3.171517 4.64491,1.791096 6.70125,3.425127 -0.11422,15.586231 0.22798,31.2008617 -0.17056,46.769534 -0.0705,2.904732 -2.59599,4.415957 -5.2015,4.274077 -3.13997,1.300895 -2.73265,5.612313 -1.94343,8.275838 2.02591,3.421427 6.71467,1.442449 9.93541,1.971745 5.53429,-0.14467 11.11628,0.284588 16.62192,-0.203558 3.14226,-1.300395 2.76911,-5.63988 1.92514,-8.294364 -1.29384,-3.068563 -6.18444,-0.811191 -6.81396,-4.630288 -1.22375,-6.210664 -0.23984,-12.6980843 -0.55645,-19.017874 0,-4.5032707 0,-9.0065337 0,-13.509803 12.73732,14.8814693 25.2769,29.961015 38.13553,44.721034 3.01501,1.767956 6.88582,0.789048 10.23058,0.740549 3.89275,-1.833462 1.86173,-6.928483 2.3651,-10.31055 0.0987,-15.9058245 -0.19567,-31.8344025 0.14411,-47.726365 0.0153,-2.919934 2.6426,-4.374997 5.21877,-4.235548 3.15437,-1.286675 2.73238,-5.608971 1.96178,-8.275839 -2.01309,-3.438391 -6.72057,-1.447273 -9.94457,-1.981021 -5.55098,0.131857 -11.13898,-0.259169 -16.66779,0.185127 -3.09786,1.348812 -2.67088,5.571203 -1.93428,8.248067 1.22963,3.171789 6.22011,0.834332 6.87595,4.658848 1.21019,6.381777 0.2357,13.031469 0.54948,19.5188294 0,3.3393367 0,6.678685 0,10.0180255 -11.98012,-13.8854233 -23.78355,-27.9616319 -35.87124,-41.7309769 -3.47208,-1.909874 -7.77694,-0.434768 -11.58549,-0.89794 -2.23003,0.02241 -4.46759,-0.04265 -6.69386,0.02811 z" />
      <path
         id="path37050"
         style="font-size:18.9212px;font-family:YoungSerif;-inkscape-font-specification:'YoungSerif, Normal';fill:url(#linearGradient37283);fill-opacity:1;stroke-width:0.337734"
         d="m 530.17256,-37.780061 c -4.05733,0.228201 -4.00826,5.52866 -3.03439,8.405437 1.19581,3.281446 6.35839,0.667437 6.95768,4.544883 1.05493,7.115454 0.18359,14.435733 0.46797,21.6304765 -0.24933,8.2660559 0.5044,16.6234325 -0.38396,24.8338295 -0.2935,2.986801 -3.47202,2.628589 -5.51052,3.292917 -2.70055,1.471171 -2.22321,5.462179 -1.53092,7.979611 1.99502,3.469849 6.72617,1.479174 9.95379,2.008778 10.51193,-0.331644 21.11946,0.749302 31.56446,-0.722023 11.13604,-1.666148 21.12599,-9.672135 24.58385,-20.591403 4.70796,-14.06240714 2.93192,-31.681382 -8.58711,-41.949531 -8.62632,-7.965201 -20.81342,-10.049158 -32.12367,-9.460751 -7.45152,0.01885 -14.90905,-0.03746 -22.35695,0.02811 z m 24.95305,10.40497 c 8.59639,-0.421023 17.46468,4.603399 20.1075,13.158429 2.87169,8.6857723 2.62742,18.3765281 0.18168,27.13471 -1.73473,6.923685 -8.62441,11.005054 -15.3954,11.010768 -2.53309,0.326643 -6.83031,0.450786 -6.38353,-3.352901 -0.18321,-15.9793051 -0.0238,-31.968098 -0.078,-47.951006 0.52251,0 1.04508,0 1.56758,0 z" />
    </g>
  </g>
</svg>
