<?xml version="1.0" encoding="UTF-8" standalone="no"?>
<!-- Created with Inkscape (http://www.inkscape.org/) -->

<svg
   width="119.37585mm"
   height="92.836983mm"
   viewBox="0 0 119.37585 92.836982"
   version="1.1"
   id="svg1"
   xml:space="preserve"
   inkscape:version="1.4.2 (ebf0e940, 2025-05-08)"
   sodipodi:docname="prob-16-07-26_01.svg"
   xmlns:inkscape="http://www.inkscape.org/namespaces/inkscape"
   xmlns:sodipodi="http://sodipodi.sourceforge.net/DTD/sodipodi-0.dtd"
   xmlns:xlink="http://www.w3.org/1999/xlink"
   xmlns="http://www.w3.org/2000/svg"
   xmlns:svg="http://www.w3.org/2000/svg"
   xmlns:ns1="http://www.iki.fi/pav/software/textext/"><sodipodi:namedview
     id="namedview1"
     pagecolor="#ffffff"
     bordercolor="#000000"
     borderopacity="0.25"
     inkscape:showpageshadow="2"
     inkscape:pageopacity="0.0"
     inkscape:pagecheckerboard="0"
     inkscape:deskcolor="#d1d1d1"
     inkscape:document-units="mm"
     inkscape:zoom="1"
     inkscape:cx="244"
     inkscape:cy="160.5"
     inkscape:window-width="1512"
     inkscape:window-height="921"
     inkscape:window-x="0"
     inkscape:window-y="33"
     inkscape:window-maximized="1"
     inkscape:current-layer="layer1" /><defs
     id="defs1" /><g
     inkscape:label="Layer 1"
     inkscape:groupmode="layer"
     id="layer1"
     transform="translate(-413.80228,-178.75292)"><g
       id="g303"
       inkscape:tile-cx="455.15094"
       inkscape:tile-cy="50.348577"
       inkscape:tile-w="151.37439"
       inkscape:tile-h="105.28909"
       inkscape:tile-x0="379.46374"
       inkscape:tile-y0="-2.2959686"
       style="stroke-width:1.7;stroke-dasharray:none"
       transform="matrix(0.23163004,0,0,0.23163004,363.81565,173.01495)"><ellipse
         style="fill:none;fill-opacity:0.44902;fill-rule:evenodd;stroke:#000000;stroke-width:1.7;stroke-dasharray:none"
         id="path1"
         cx="291.84094"
         cy="77.766678"
         rx="75.187195"
         ry="52.144547" /><circle
         id="path8"
         style="fill:#000000;stroke:none;stroke-width:1.7;stroke-dasharray:none"
         cx="240.14972"
         cy="77.766647"
         r="2.3759971" /><circle
         id="circle8"
         style="fill:#000000;stroke:none;stroke-width:1.7;stroke-dasharray:none"
         cx="294.31506"
         cy="77.766647"
         r="2.3759971" /><circle
         id="circle9"
         style="fill:#000000;stroke:none;stroke-width:1.7;stroke-dasharray:none"
         cx="343.53128"
         cy="77.766647"
         r="2.3759971" /><g
         transform="matrix(1.7447246,0,0,1.7447246,236.35748,82.439849)"
         ns1:version="1.10.2"
         ns1:texconverter="pdflatex"
         ns1:pdfconverter="inkscape"
         ns1:text="$a$"
         ns1:preamble="/Users/sachchidanandprasad/Library/Application Support/org.inkscape.Inkscape/config/inkscape/extensions/textext/default_packages.tex"
         ns1:scale="2.0"
         ns1:alignment="middle center"
         ns1:stroke-to-path="0"
         ns1:inkscapeversion="1.4.2"
         ns1:jacobian_sqrt="0.705556"
         id="g10"
         style="stroke-width:0.974366;stroke-dasharray:none"><defs
   id="id-2dd52161-0166-41cc-a8a9-6c4e1184192e">
    <g
   id="id-c1fa3cf7-0de3-445c-b344-5d42e4959d4b">
      <g
   id="id-0407b3fb-34d9-4aac-a574-808e1f02a215">
        <path
   d="M 3.71875,-3.765625 C 3.53125,-4.140625 3.25,-4.40625 2.796875,-4.40625 c -1.15625,0 -2.390625,1.46875 -2.390625,2.921875 0,0.9375 0.546875,1.59375 1.3125,1.59375 0.203125,0 0.703125,-0.046875 1.296875,-0.75 0.078125,0.421875 0.4375,0.75 0.90625,0.75 0.359375,0 0.578125,-0.234375 0.75,-0.546875 0.15625,-0.359375 0.296875,-0.96875 0.296875,-0.984375 0,-0.109375 -0.09375,-0.109375 -0.125,-0.109375 -0.09375,0 -0.109375,0.046875 -0.140625,0.1875 -0.171875,0.640625 -0.34375,1.234375 -0.75,1.234375 -0.28125,0 -0.296875,-0.265625 -0.296875,-0.453125 0,-0.21875 0.015625,-0.3125 0.125,-0.75 C 3.890625,-1.71875 3.90625,-1.828125 4,-2.203125 L 4.359375,-3.59375 c 0.0625,-0.28125 0.0625,-0.296875 0.0625,-0.34375 0,-0.171875 -0.109375,-0.265625 -0.28125,-0.265625 -0.25,0 -0.390625,0.21875 -0.421875,0.4375 z M 3.078125,-1.1875 C 3.015625,-1 3.015625,-0.984375 2.875,-0.8125 2.4375,-0.265625 2.03125,-0.109375 1.75,-0.109375 c -0.5,0 -0.640625,-0.546875 -0.640625,-0.9375 0,-0.5 0.3125,-1.71875 0.546875,-2.1875 0.3125,-0.578125 0.75,-0.953125 1.15625,-0.953125 0.640625,0 0.78125,0.8125 0.78125,0.875 0,0.0625 -0.015625,0.125 -0.03125,0.171875 z m 0,0"
   id="id-7ed10a92-b5ed-4565-a784-a733035f7498" />
      </g>
    </g>
  </defs>
  <g
   fill="#000000"
   fill-opacity="1"
   id="id-c99ab89b-5bc3-4dd6-ae71-d0aaa7fc95c9"
   transform="translate(-149.118,-130.359)"
   style="stroke-width:0.974366;stroke-dasharray:none">
    <g
   transform="translate(148.712,134.765)"
   id="g9"
   style="stroke-width:0.974366;stroke-dasharray:none"><path
   d="M 3.71875,-3.765625 C 3.53125,-4.140625 3.25,-4.40625 2.796875,-4.40625 c -1.15625,0 -2.390625,1.46875 -2.390625,2.921875 0,0.9375 0.546875,1.59375 1.3125,1.59375 0.203125,0 0.703125,-0.046875 1.296875,-0.75 0.078125,0.421875 0.4375,0.75 0.90625,0.75 0.359375,0 0.578125,-0.234375 0.75,-0.546875 0.15625,-0.359375 0.296875,-0.96875 0.296875,-0.984375 0,-0.109375 -0.09375,-0.109375 -0.125,-0.109375 -0.09375,0 -0.109375,0.046875 -0.140625,0.1875 -0.171875,0.640625 -0.34375,1.234375 -0.75,1.234375 -0.28125,0 -0.296875,-0.265625 -0.296875,-0.453125 0,-0.21875 0.015625,-0.3125 0.125,-0.75 C 3.890625,-1.71875 3.90625,-1.828125 4,-2.203125 L 4.359375,-3.59375 c 0.0625,-0.28125 0.0625,-0.296875 0.0625,-0.34375 0,-0.171875 -0.109375,-0.265625 -0.28125,-0.265625 -0.25,0 -0.390625,0.21875 -0.421875,0.4375 z M 3.078125,-1.1875 C 3.015625,-1 3.015625,-0.984375 2.875,-0.8125 2.4375,-0.265625 2.03125,-0.109375 1.75,-0.109375 c -0.5,0 -0.640625,-0.546875 -0.640625,-0.9375 0,-0.5 0.3125,-1.71875 0.546875,-2.1875 0.3125,-0.578125 0.75,-0.953125 1.15625,-0.953125 0.640625,0 0.78125,0.8125 0.78125,0.875 0,0.0625 -0.015625,0.125 -0.03125,0.171875 z m 0,0"
   id="id-76f0fb73-d57f-4e32-ae52-f54b7c6758ea"
   style="stroke-width:0.974366;stroke-dasharray:none" />
      </g></g>
</g><g
         transform="matrix(1.4347861,0,0,1.4347861,292.12412,81.075948)"
         ns1:version="1.10.2"
         ns1:texconverter="pdflatex"
         ns1:pdfconverter="inkscape"
         ns1:text="$b$"
         ns1:preamble="/Users/sachchidanandprasad/Library/Application Support/org.inkscape.Inkscape/config/inkscape/extensions/textext/default_packages.tex"
         ns1:scale="3.024948551213511"
         ns1:alignment="middle center"
         ns1:stroke-to-path="0"
         ns1:inkscapeversion="1.4.2"
         ns1:jacobian_sqrt="1.06714"
         style="stroke-width:1.18485;stroke-dasharray:none"
         id="g16"><defs
   id="id-66a0d2c7-f298-4cc1-a66b-1bddba8ddc46"
   style="stroke-width:0">
    <g
   id="id-f1f4cca5-6782-4d4e-89d0-432de1053d26"
   style="stroke-width:0">
      <g
   id="id-f726117b-e53b-4c6a-b65a-dae429e7f86d"
   style="stroke-width:0">
        <path
   d="m 2.375,-6.8125 c 0,0 0,-0.109375 -0.125,-0.109375 -0.21875,0 -0.953125,0.078125 -1.21875,0.109375 -0.078125,0 -0.1875,0.015625 -0.1875,0.1875 0,0.125 0.09375,0.125 0.25,0.125 0.46875,0 0.484375,0.0625 0.484375,0.171875 0,0.0625 -0.078125,0.40625 -0.125,0.609375 l -0.828125,3.25 c -0.109375,0.5 -0.15625,0.671875 -0.15625,1.015625 0,0.9375 0.53125,1.5625 1.265625,1.5625 1.171875,0 2.40625,-1.484375 2.40625,-2.921875 0,-0.90625 -0.53125,-1.59375 -1.328125,-1.59375 -0.453125,0 -0.875,0.296875 -1.171875,0.59375 z M 1.453125,-3.046875 C 1.5,-3.265625 1.5,-3.28125 1.59375,-3.390625 2.078125,-4.03125 2.53125,-4.1875 2.796875,-4.1875 c 0.359375,0 0.625,0.296875 0.625,0.9375 0,0.59375 -0.328125,1.734375 -0.515625,2.109375 -0.328125,0.671875 -0.78125,1.03125 -1.171875,1.03125 -0.34375,0 -0.671875,-0.265625 -0.671875,-1 0,-0.203125 0,-0.390625 0.15625,-1.015625 z m 0,0"
   id="id-ee310aca-0ee3-4123-883a-f4230525f556"
   style="stroke-width:0" />
      </g>
    </g>
  </defs>
  <g
   fill="#000000"
   fill-opacity="1"
   id="id-a6d9d91c-b8e6-4014-925f-f94a8ed136f1"
   transform="translate(-149.181,-127.843)"
   style="stroke-width:1.18485;stroke-dasharray:none">
    <g
   transform="translate(148.712,134.765)"
   style="stroke-width:1.18485;stroke-dasharray:none"
   id="g15"><path
   d="m 2.375,-6.8125 c 0,0 0,-0.109375 -0.125,-0.109375 -0.21875,0 -0.953125,0.078125 -1.21875,0.109375 -0.078125,0 -0.1875,0.015625 -0.1875,0.1875 0,0.125 0.09375,0.125 0.25,0.125 0.46875,0 0.484375,0.0625 0.484375,0.171875 0,0.0625 -0.078125,0.40625 -0.125,0.609375 l -0.828125,3.25 c -0.109375,0.5 -0.15625,0.671875 -0.15625,1.015625 0,0.9375 0.53125,1.5625 1.265625,1.5625 1.171875,0 2.40625,-1.484375 2.40625,-2.921875 0,-0.90625 -0.53125,-1.59375 -1.328125,-1.59375 -0.453125,0 -0.875,0.296875 -1.171875,0.59375 z M 1.453125,-3.046875 C 1.5,-3.265625 1.5,-3.28125 1.59375,-3.390625 2.078125,-4.03125 2.53125,-4.1875 2.796875,-4.1875 c 0.359375,0 0.625,0.296875 0.625,0.9375 0,0.59375 -0.328125,1.734375 -0.515625,2.109375 -0.328125,0.671875 -0.78125,1.03125 -1.171875,1.03125 -0.34375,0 -0.671875,-0.265625 -0.671875,-1 0,-0.203125 0,-0.390625 0.15625,-1.015625 z m 0,0"
   id="id-6f6cbf41-8c17-42cb-ba87-c32a86395a96"
   style="stroke-width:1.18485;stroke-dasharray:none" />
      </g><g
   transform="translate(148.712,134.765)"
   style="stroke-width:1.18485;stroke-dasharray:none"
   id="g17"><path
   d="m 2.375,-6.8125 c 0,0 0,-0.109375 -0.125,-0.109375 -0.21875,0 -0.953125,0.078125 -1.21875,0.109375 -0.078125,0 -0.1875,0.015625 -0.1875,0.1875 0,0.125 0.09375,0.125 0.25,0.125 0.46875,0 0.484375,0.0625 0.484375,0.171875 0,0.0625 -0.078125,0.40625 -0.125,0.609375 l -0.828125,3.25 c -0.109375,0.5 -0.15625,0.671875 -0.15625,1.015625 0,0.9375 0.53125,1.5625 1.265625,1.5625 1.171875,0 2.40625,-1.484375 2.40625,-2.921875 0,-0.90625 -0.53125,-1.59375 -1.328125,-1.59375 -0.453125,0 -0.875,0.296875 -1.171875,0.59375 z M 1.453125,-3.046875 C 1.5,-3.265625 1.5,-3.28125 1.59375,-3.390625 2.078125,-4.03125 2.53125,-4.1875 2.796875,-4.1875 c 0.359375,0 0.625,0.296875 0.625,0.9375 0,0.59375 -0.328125,1.734375 -0.515625,2.109375 -0.328125,0.671875 -0.78125,1.03125 -1.171875,1.03125 -0.34375,0 -0.671875,-0.265625 -0.671875,-1 0,-0.203125 0,-0.390625 0.15625,-1.015625 z m 0,0"
   id="path16"
   style="stroke-width:1.18485;stroke-dasharray:none" />
      </g></g>
</g><g
         transform="matrix(1.6302388,0,0,1.6302388,340.92652,81.405647)"
         ns1:version="1.10.2"
         ns1:texconverter="pdflatex"
         ns1:pdfconverter="inkscape"
         ns1:text="$c$"
         ns1:preamble="/Users/sachchidanandprasad/Library/Application Support/org.inkscape.Inkscape/config/inkscape/extensions/textext/default_packages.tex"
         ns1:scale="3.024948551213511"
         ns1:alignment="middle center"
         ns1:stroke-to-path="0"
         ns1:inkscapeversion="1.4.2"
         ns1:jacobian_sqrt="1.06714"
         style="stroke-width:1.04279;stroke-dasharray:none"
         id="g24"><defs
   id="id-3eb91713-32af-4fa1-9b5f-f902a477d0ab"
   style="stroke-width:0">
    <g
   id="id-4fc4caf8-ac5c-4fad-aaff-8e18613b6942"
   style="stroke-width:0">
      <g
   id="id-beaa9612-4325-45b7-b202-b626ec5c5d7b"
   style="stroke-width:0">
        <path
   d="m 3.953125,-3.78125 c -0.171875,0 -0.296875,0 -0.4375,0.125 -0.171875,0.15625 -0.1875,0.328125 -0.1875,0.390625 0,0.25 0.1875,0.359375 0.375,0.359375 0.28125,0 0.546875,-0.25 0.546875,-0.640625 0,-0.484375 -0.46875,-0.859375 -1.171875,-0.859375 -1.34375,0 -2.671875,1.421875 -2.671875,2.828125 0,0.90625 0.578125,1.6875 1.625,1.6875 1.421875,0 2.25,-1.0625 2.25,-1.171875 0,-0.0625 -0.046875,-0.140625 -0.109375,-0.140625 -0.0625,0 -0.078125,0.03125 -0.140625,0.109375 -0.78125,0.984375 -1.875,0.984375 -1.984375,0.984375 -0.625,0 -0.90625,-0.484375 -0.90625,-1.09375 0,-0.40625 0.203125,-1.375 0.546875,-1.984375 0.3125,-0.578125 0.859375,-1 1.40625,-1 0.328125,0 0.71875,0.125 0.859375,0.40625 z m 0,0"
   id="id-47bdc886-062b-48ae-bbb7-0377a6c838b2"
   style="stroke-width:0" />
      </g>
    </g>
  </defs>
  <g
   fill="#000000"
   fill-opacity="1"
   id="id-1057b970-aa97-47dd-874a-a0af59626c37"
   transform="translate(-149.118,-130.359)"
   style="stroke-width:1.04279;stroke-dasharray:none">
    <g
   transform="translate(148.712,134.765)"
   style="stroke-width:1.04279;stroke-dasharray:none"
   id="g23"><path
   d="m 3.953125,-3.78125 c -0.171875,0 -0.296875,0 -0.4375,0.125 -0.171875,0.15625 -0.1875,0.328125 -0.1875,0.390625 0,0.25 0.1875,0.359375 0.375,0.359375 0.28125,0 0.546875,-0.25 0.546875,-0.640625 0,-0.484375 -0.46875,-0.859375 -1.171875,-0.859375 -1.34375,0 -2.671875,1.421875 -2.671875,2.828125 0,0.90625 0.578125,1.6875 1.625,1.6875 1.421875,0 2.25,-1.0625 2.25,-1.171875 0,-0.0625 -0.046875,-0.140625 -0.109375,-0.140625 -0.0625,0 -0.078125,0.03125 -0.140625,0.109375 -0.78125,0.984375 -1.875,0.984375 -1.984375,0.984375 -0.625,0 -0.90625,-0.484375 -0.90625,-1.09375 0,-0.40625 0.203125,-1.375 0.546875,-1.984375 0.3125,-0.578125 0.859375,-1 1.40625,-1 0.328125,0 0.71875,0.125 0.859375,0.40625 z m 0,0"
   id="id-c5f194ec-66cf-488b-acb6-d1e62f165577"
   style="stroke-width:1.04279;stroke-dasharray:none" />
      </g></g>
</g></g><use
       x="0"
       y="0"
       inkscape:tiled-clone-of="#g303"
       xlink:href="#g303"
       transform="translate(0,34.143363)"
       id="use304"
       style="stroke-width:1.7;stroke-dasharray:none" /><use
       x="0"
       y="0"
       inkscape:tiled-clone-of="#g303"
       xlink:href="#g303"
       transform="translate(0,68.286726)"
       id="use305"
       style="stroke-width:1.7;stroke-dasharray:none" /><use
       x="0"
       y="0"
       inkscape:tiled-clone-of="#g303"
       xlink:href="#g303"
       transform="translate(42.075427)"
       id="use306"
       style="stroke-width:1.7;stroke-dasharray:none" /><use
       x="0"
       y="0"
       inkscape:tiled-clone-of="#g303"
       xlink:href="#g303"
       transform="translate(42.075427,34.143363)"
       id="use307"
       style="stroke-width:1.7;stroke-dasharray:none" /><use
       x="0"
       y="0"
       inkscape:tiled-clone-of="#g303"
       xlink:href="#g303"
       transform="translate(42.075427,68.286726)"
       id="use308"
       style="stroke-width:1.7;stroke-dasharray:none" /><use
       x="0"
       y="0"
       inkscape:tiled-clone-of="#g303"
       xlink:href="#g303"
       transform="translate(84.150852)"
       id="use309"
       style="stroke-width:1.7;stroke-dasharray:none" /><use
       x="0"
       y="0"
       inkscape:tiled-clone-of="#g303"
       xlink:href="#g303"
       transform="translate(84.150852,34.143363)"
       id="use310"
       style="stroke-width:1.7;stroke-dasharray:none" /><use
       x="0"
       y="0"
       inkscape:tiled-clone-of="#g303"
       xlink:href="#g303"
       transform="translate(84.150852,68.286726)"
       id="use311"
       style="stroke-width:1.7;stroke-dasharray:none" /><ellipse
       style="fill:none;fill-opacity:0.44902;fill-rule:evenodd;stroke:#ff00ff;stroke-width:0.393771;stroke-dasharray:none"
       id="path311"
       cx="467.91907"
       cy="191.42558"
       rx="11.216241"
       ry="6.2447176" /><circle
       style="fill:none;fill-opacity:0.44902;fill-rule:evenodd;stroke:#0000ff;stroke-width:0.393771;stroke-dasharray:none"
       id="path312"
       cx="461.31058"
       cy="191.61272"
       r="2.8399441" /><ellipse
       style="fill:none;fill-opacity:0.44902;fill-rule:evenodd;stroke:#ff00ff;stroke-width:0.393771;stroke-dasharray:none"
       id="ellipse312"
       cx="510.94409"
       cy="191.42558"
       rx="11.216241"
       ry="6.2447176" /><ellipse
       style="fill:none;fill-opacity:0.44902;fill-rule:evenodd;stroke:#008000;stroke-width:0.393771;stroke-dasharray:none"
       id="ellipse313"
       cx="520.59857"
       cy="191.42558"
       rx="11.216241"
       ry="6.2447176" /><circle
       style="fill:none;fill-opacity:0.44902;fill-rule:evenodd;stroke:#0000ff;stroke-width:0.393771;stroke-dasharray:none"
       id="circle313"
       cx="516.0697"
       cy="191.7757"
       r="2.8399441" /><circle
       style="fill:none;fill-opacity:0.44902;fill-rule:evenodd;stroke:#0000ff;stroke-width:0.393771;stroke-dasharray:none"
       id="circle314"
       cx="431.97534"
       cy="225.67421"
       r="2.8399441" /><circle
       style="fill:none;fill-opacity:0.44902;fill-rule:evenodd;stroke:#0000ff;stroke-width:0.393771;stroke-dasharray:none"
       id="circle315"
       cx="461.47354"
       cy="226.69244"
       r="2.8399441" /><circle
       style="fill:none;fill-opacity:0.44902;fill-rule:evenodd;stroke:#0000ff;stroke-width:0.393771;stroke-dasharray:none"
       id="circle316"
       cx="516.0697"
       cy="226.20354"
       r="2.8399441" /><circle
       style="fill:none;fill-opacity:0.44902;fill-rule:evenodd;stroke:#0000ff;stroke-width:0.393771;stroke-dasharray:none"
       id="circle317"
       cx="527.68121"
       cy="225.87758"
       r="2.8399441" /><circle
       style="fill:none;fill-opacity:0.44902;fill-rule:evenodd;stroke:#0000ff;stroke-width:0.393771;stroke-dasharray:none"
       id="circle318"
       cx="503.88708"
       cy="260.59094"
       r="2.8399441" /><circle
       style="fill:none;fill-opacity:0.44902;fill-rule:evenodd;stroke:#0000ff;stroke-width:0.393771;stroke-dasharray:none"
       id="circle319"
       cx="516.11011"
       cy="260.26501"
       r="2.8399441" /><circle
       style="fill:none;fill-opacity:0.44902;fill-rule:evenodd;stroke:#0000ff;stroke-width:0.393771;stroke-dasharray:none"
       id="circle320"
       cx="527.51825"
       cy="260.10205"
       r="2.8399441" /><circle
       style="fill:none;fill-opacity:0.44902;fill-rule:evenodd;stroke:#0000ff;stroke-width:0.393771;stroke-dasharray:none"
       id="circle321"
       cx="462.08368"
       cy="260.59094"
       r="2.8399441" /><circle
       style="fill:none;fill-opacity:0.44902;fill-rule:evenodd;stroke:#0000ff;stroke-width:0.393771;stroke-dasharray:none"
       id="circle322"
       cx="474.3067"
       cy="260.26501"
       r="2.8399441" /><ellipse
       style="fill:none;fill-opacity:0.44902;fill-rule:evenodd;stroke:#008000;stroke-width:0.393771;stroke-dasharray:none"
       id="ellipse322"
       cx="478.1864"
       cy="225.32408"
       rx="11.216241"
       ry="6.2447176" /><ellipse
       style="fill:none;fill-opacity:0.44902;fill-rule:evenodd;stroke:#ff00ff;stroke-width:0.393771;stroke-dasharray:none"
       id="ellipse323"
       cx="511.43301"
       cy="225.48706"
       rx="11.216241"
       ry="6.2447176" /><ellipse
       style="fill:none;fill-opacity:0.44902;fill-rule:evenodd;stroke:#008000;stroke-width:0.393771;stroke-dasharray:none"
       id="ellipse324"
       cx="520.72253"
       cy="225.48706"
       rx="11.216241"
       ry="6.2447176" /><ellipse
       style="fill:none;fill-opacity:0.44902;fill-rule:evenodd;stroke:#ff00ff;stroke-width:0.393771;stroke-dasharray:none"
       id="ellipse325"
       cx="427.17569"
       cy="260.03748"
       rx="11.216241"
       ry="6.2447176" /><ellipse
       style="fill:none;fill-opacity:0.44902;fill-rule:evenodd;stroke:#ff00ff;stroke-width:0.393771;stroke-dasharray:none"
       id="ellipse326"
       cx="468.40799"
       cy="260.03748"
       rx="11.216241"
       ry="6.2447176" /><ellipse
       style="fill:none;fill-opacity:0.44902;fill-rule:evenodd;stroke:#ff00ff;stroke-width:0.393771;stroke-dasharray:none"
       id="ellipse327"
       cx="510.29221"
       cy="260.03748"
       rx="11.216241"
       ry="6.2447176" /><ellipse
       style="fill:none;fill-opacity:0.44902;fill-rule:evenodd;stroke:#ff00ff;stroke-width:0.393771;stroke-dasharray:none"
       id="ellipse328"
       cx="521.04846"
       cy="260.03748"
       rx="11.216241"
       ry="6.2447176" /><path
       style="fill:none;fill-opacity:0.44902;fill-rule:evenodd;stroke:#7f2aff;stroke-width:0.393771;stroke-dasharray:none"
       d="m 502.88829,265.72311 c -4.68511,-3.3938 -3.15107,-9.30479 2.09276,-9.29434 5.24382,0.0104 7.18462,11.01731 11.264,10.89469 5.80715,-0.17456 4.87335,-8.33036 9.97141,-10.89469 5.09805,-2.56433 7.71162,7.29279 -1.72346,11.57176 -3.38354,1.53449 -10.4766,2.16543 -14.15693,1.47724 -3.68034,-0.68818 -5.58665,-1.92984 -7.44778,-3.75466 z"
       id="path329"
       sodipodi:nodetypes="zzzzzzz" /></g></svg>
