<?xml version="1.0" encoding="UTF-8" standalone="no"?>
<!-- Created with Inkscape (http://www.inkscape.org/) -->

<svg
   width="122.00376mm"
   height="62.001884mm"
   viewBox="0 0 122.00376 62.001884"
   version="1.1"
   id="svg5"
   sodipodi:docname="prob-26-01-23_01.svg"
   inkscape:version="1.2.2 (1:1.2.2+202212051552+b0a8486541)"
   xmlns:inkscape="http://www.inkscape.org/namespaces/inkscape"
   xmlns:sodipodi="http://sodipodi.sourceforge.net/DTD/sodipodi-0.dtd"
   xmlns="http://www.w3.org/2000/svg"
   xmlns:svg="http://www.w3.org/2000/svg">
  <sodipodi:namedview
     id="namedview7"
     pagecolor="#ffffff"
     bordercolor="#999999"
     borderopacity="1"
     inkscape:showpageshadow="0"
     inkscape:pageopacity="0"
     inkscape:pagecheckerboard="0"
     inkscape:deskcolor="#d1d1d1"
     inkscape:document-units="mm"
     showgrid="false"
     inkscape:zoom="1.4142136"
     inkscape:cx="149.19953"
     inkscape:cy="140.00714"
     inkscape:window-width="1920"
     inkscape:window-height="1011"
     inkscape:window-x="0"
     inkscape:window-y="0"
     inkscape:window-maximized="1"
     inkscape:current-layer="layer1" />
  <defs
     id="defs2">
    <clipPath
       id="clipPath2798">
      <path
         d="M 1,0 H 5 V 7.703125 H 1 Z m 0,0"
         id="path1387" />
    </clipPath>
    <clipPath
       id="clipPath9073">
      <path
         d="M 0,1 H 7 V 9.476562 H 0 Z m 0,0"
         id="path1944" />
    </clipPath>
    <clipPath
       id="clipPath9929">
      <path
         d="M 0,2 H 9 V 13.277344 H 0 Z m 0,0"
         id="path4775" />
    </clipPath>
    <clipPath
       id="clipPath227">
      <path
         d="M 1,0 H 7 V 11.097656 H 1 Z m 0,0"
         id="path4833" />
    </clipPath>
    <clipPath
       id="clipPath324">
      <path
         d="M 1,0 H 7 V 11.097656 H 1 Z m 0,0"
         id="path1891" />
    </clipPath>
  </defs>
  <g
     inkscape:label="Layer 1"
     inkscape:groupmode="layer"
     id="layer1"
     transform="translate(-39.98134,-117.49906)">
    <circle
       style="fill:none;stroke:#aa4400;stroke-width:1"
       id="path111"
       cx="100.98322"
       cy="148.5"
       r="30.500942" />
    <path
       style="fill:none;stroke:#000080;stroke-width:1"
       d="m 39.98134,148.5 h 30.50094 30.50094 30.50094 30.50094"
       id="path447"
       sodipodi:nodetypes="ccccc" />
    <circle
       id="path564"
       style="fill:#ff0000;stroke:none;stroke-width:0.653505"
       cx="70.479607"
       cy="148.5"
       r="1.8524555" />
    <circle
       id="circle566"
       style="fill:#ff0000;stroke:none;stroke-width:0.653505"
       cx="131.42786"
       cy="148.5"
       r="1.8524555" />
    <g
       inkscape:label=""
       transform="translate(72.174371,122.71591)"
       id="g1337"
       style="fill:#aa4400;fill-opacity:1">
      <g
         id="g1335"
         transform="matrix(0.352778,0,0,0.352778,-0.165365,0.0827704)"
         style="fill:#aa4400;fill-opacity:1">
        <g
           clip-path="url(#clipPath9929)"
           clip-rule="nonzero"
           id="g25"
           style="fill:#aa4400;fill-opacity:1">
          <g
             style="fill:#aa4400;fill-opacity:1"
             id="g23">
            <g
               id="use21"
               transform="translate(0,13.278)"
               style="fill:#aa4400;fill-opacity:1">
              <path
                 style="fill:#aa4400;fill-opacity:1;stroke:none"
                 d="M 1.140625,-1.671875 H 1.15625 c 0,0 0.25,0.375 0.734375,0.859375 -0.234375,0 -0.5,0.03125 -0.75,0.15625 z M 3.34375,-4.875 c 1.25,0.546875 2.9375,1.25 2.9375,2.71875 0,1.140625 -0.5,1.796875 -2.078125,1.796875 -0.828125,0 -1.53125,-0.453125 -2.078125,-1.03125 -0.953125,-0.953125 -0.984375,-1.8125 -0.984375,-2.15625 0,-0.15625 -0.125,-0.28125 -0.265625,-0.28125 -0.28125,0 -0.28125,0.265625 -0.28125,0.53125 v 2.96875 c 0,0.265625 0,0.515625 0.28125,0.515625 0.109375,0 0.15625,-0.046875 0.234375,-0.140625 0.28125,-0.25 0.5625,-0.296875 0.765625,-0.296875 0.421875,0 0.796875,0.140625 0.953125,0.203125 C 3.46875,0.1875 3.9375,0.1875 4.1875,0.1875 c 2.296875,0 4.265625,-1.15625 4.265625,-3.25 0,-1.34375 -0.8125,-2.765625 -3.09375,-3.65625 -1.421875,-0.578125 -3,-1.203125 -3,-2.3125 0,-0.875 0.625,-1.625 1.75,-1.625 1.15625,0 2.703125,1.1875 3,2.53125 C 7.15625,-7.90625 7.1875,-7.75 7.40625,-7.75 7.6875,-7.75 7.6875,-8 7.6875,-8.265625 V -10.6875 c 0,-0.28125 0,-0.53125 -0.28125,-0.53125 -0.125,0 -0.1875,0.07813 -0.25,0.125 -0.140625,0.140625 -0.359375,0.3125 -0.765625,0.3125 -0.390625,0 -0.765625,-0.125 -0.953125,-0.1875 -0.515625,-0.1875 -0.875,-0.25 -1.359375,-0.25 -2.171875,0 -3.609375,1.0625 -3.609375,3.1875 0,1.03125 0.421875,2.125 2.875,3.15625 z M 7.125,-9.421875 C 7.015625,-9.59375 6.875,-9.75 6.421875,-10.21875 6.859375,-10.23438 7.109375,-10.359375 7.125,-10.375 Z M 6.59375,-0.9375 c 0.234375,-0.46875 0.25,-1.109375 0.25,-1.21875 0,-1.671875 -1.65625,-2.546875 -2.90625,-3.078125 -1.5,-0.625 -2.921875,-1.296875 -2.921875,-2.796875 0,-0.75 0.21875,-1.65625 1.078125,-2.15625 l 0.015625,0.01563 c -0.296875,0.46875 -0.3125,1 -0.3125,1.140625 0,1.4375 1.75,2.171875 3.1875,2.75 0.59375,0.234375 1.40625,0.5625 2.03125,1.203125 0.5,0.546875 0.875,1.15625 0.875,2.015625 0,1.25 -0.8125,1.859375 -1.296875,2.125 z m 0,0"
                 id="path36" />
            </g>
          </g>
        </g>
        <g
           style="fill:#aa4400;fill-opacity:1"
           id="g29">
          <g
             id="use27"
             transform="translate(8.8559999,7.0310001)"
             style="fill:#aa4400;fill-opacity:1">
            <path
               style="fill:#aa4400;fill-opacity:1;stroke:none"
               d="m 3.203125,-6.984375 c 0,-0.25 0,-0.28125 -0.25,-0.28125 C 2.28125,-6.5625 1.3125,-6.5625 0.96875,-6.5625 v 0.328125 c 0.21875,0 0.859375,0 1.4375,-0.28125 v 5.65625 c 0,0.390625 -0.046875,0.515625 -1.015625,0.515625 H 1.03125 V 0 c 0.390625,-0.03125 1.328125,-0.03125 1.765625,-0.03125 0.4375,0 1.390625,0 1.765625,0.03125 V -0.34375 H 4.21875 c -0.984375,0 -1.015625,-0.109375 -1.015625,-0.515625 z m 0,0"
               id="path40" />
          </g>
        </g>
      </g>
    </g>
    <g
       inkscape:label=""
       transform="translate(62.184185,142.24847)"
       id="g1438">
      <g
         id="g1436"
         transform="matrix(0.352778,0,0,0.352778,-0.501606,0.0980722)">
        <g
           style="fill:#000000;fill-opacity:1"
           id="g1428">
          <g
             id="g1426"
             transform="translate(0,11.097)">
            <path
               style="stroke:none"
               d="m 11.34375,-3.953125 c 0.296875,0 0.609375,0 0.609375,-0.359375 0,-0.34375 -0.3125,-0.34375 -0.609375,-0.34375 h -9.3125 c -0.296875,0 -0.609375,0 -0.609375,0.34375 0,0.359375 0.3125,0.359375 0.609375,0.359375 z m 0,0"
               id="path1424" />
          </g>
        </g>
        <g
           style="fill:#000000;fill-opacity:1"
           id="g1434">
          <g
             id="g1432"
             transform="translate(13.39,11.097)">
            <path
               style="stroke:none"
               d="m 4.578125,-11 c 0,-0.359375 -0.015625,-0.375 -0.25,-0.375 -0.671875,0.796875 -1.6875,1.0625 -2.65625,1.09375 -0.046875,0 -0.140625,0 -0.15625,0.03125 C 1.5,-10.203125 1.5,-10.171875 1.5,-9.8125 c 0.53125,0 1.421875,-0.109375 2.109375,-0.515625 V -1.25 c 0,0.59375 -0.03125,0.796875 -1.515625,0.796875 H 1.578125 V 0 c 0.828125,-0.015625 1.6875,-0.03125 2.515625,-0.03125 0.828125,0 1.6875,0.015625 2.515625,0.03125 V -0.453125 H 6.09375 c -1.484375,0 -1.515625,-0.1875 -1.515625,-0.796875 z m 0,0"
               id="path1430" />
          </g>
        </g>
      </g>
    </g>
    <g
       inkscape:label=""
       transform="translate(133.58482,142.42752)"
       id="g1678">
      <g
         id="g1676"
         transform="matrix(0.352778,0,0,0.352778,-0.529167,0.0980722)">
        <g
           clip-path="url(#clipPath324)"
           clip-rule="nonzero"
           id="g1674">
          <g
             style="fill:#000000;fill-opacity:1"
             id="g1672">
            <g
               id="g1670"
               transform="translate(0,11.097)">
              <path
                 style="stroke:none"
                 d="m 4.578125,-11 c 0,-0.359375 -0.015625,-0.375 -0.25,-0.375 -0.671875,0.796875 -1.6875,1.0625 -2.65625,1.09375 -0.046875,0 -0.140625,0 -0.15625,0.03125 C 1.5,-10.203125 1.5,-10.171875 1.5,-9.8125 c 0.53125,0 1.421875,-0.109375 2.109375,-0.515625 V -1.25 c 0,0.59375 -0.03125,0.796875 -1.515625,0.796875 H 1.578125 V 0 c 0.828125,-0.015625 1.6875,-0.03125 2.515625,-0.03125 0.828125,0 1.6875,0.015625 2.515625,0.03125 V -0.453125 H 6.09375 c -1.484375,0 -1.515625,-0.1875 -1.515625,-0.796875 z m 0,0"
                 id="path1668" />
            </g>
          </g>
        </g>
      </g>
    </g>
  </g>
</svg>
