<?xml version="1.0" encoding="UTF-8" standalone="no"?>
<svg
   version="1.1"
   width="842.03058"
   height="778"
   id="svg299"
   sodipodi:docname="prob-14-04-23_01.svg"
   inkscape:version="1.2.2 (b0a84865, 2022-12-01)"
   xmlns:inkscape="http://www.inkscape.org/namespaces/inkscape"
   xmlns:sodipodi="http://sodipodi.sourceforge.net/DTD/sodipodi-0.dtd"
   xmlns="http://www.w3.org/2000/svg"
   xmlns:svg="http://www.w3.org/2000/svg">
  <sodipodi:namedview
     id="namedview301"
     pagecolor="#ffffff"
     bordercolor="#000000"
     borderopacity="0.25"
     inkscape:showpageshadow="2"
     inkscape:pageopacity="0.0"
     inkscape:pagecheckerboard="0"
     inkscape:deskcolor="#d1d1d1"
     showgrid="false"
     inkscape:zoom="0.73394009"
     inkscape:cx="575.66007"
     inkscape:cy="431.91536"
     inkscape:window-width="1512"
     inkscape:window-height="916"
     inkscape:window-x="0"
     inkscape:window-y="38"
     inkscape:window-maximized="1"
     inkscape:current-layer="svg299" />
  <defs
     id="defs135">
    <clipPath
       id="TnyhQDZlddOF">
      <path
         fill="none"
         stroke="none"
         d="M 0,0 H 1124 V 778 H 0 Z"
         id="path132" />
    </clipPath>
    <clipPath
       clipPathUnits="userSpaceOnUse"
       id="clipPath586">
      <rect
         style="fill:none;stroke:#000000;stroke-width:1.75748"
         id="rect588"
         width="842.03058"
         height="778"
         x="0"
         y="0" />
    </clipPath>
  </defs>
  <g
     clip-path="url(#clipPath586)"
     id="g297">
    <g
       id="g295">
      <rect
         fill="#ffffff"
         stroke="none"
         x="0"
         y="0"
         width="1124"
         height="778"
         fill-opacity="1"
         id="rect137" />
      <path
         fill="none"
         stroke="#c0c0c0"
         paint-order="fill stroke markers"
         d="m 34.5,0.5 v 778 m 0,-778 v 778 m 94,-778 v 778 m 189,-778 v 778 m 95,-778 v 778 m 94,-778 v 778 m 95,-778 v 778 m 94,-778 v 778 m 94,-778 v 778 m 95,-778 v 778 m 94,-778 v 778 m 95,-778 v 778"
         stroke-opacity="1"
         stroke-linecap="round"
         stroke-linejoin="round"
         stroke-miterlimit="10"
         id="path139" />
      <path
         fill="none"
         stroke="#c0c0c0"
         paint-order="fill stroke markers"
         d=""
         stroke-opacity="0.235294"
         stroke-linecap="round"
         stroke-linejoin="round"
         stroke-miterlimit="10"
         id="path141" />
      <path
         fill="none"
         stroke="#c0c0c0"
         paint-order="fill stroke markers"
         d="m 0.5,6.5 h 1124 m -1124,0 h 1124 m -1124,95 h 1124 m -1124,94 h 1124 m -1124,95 h 1124 m -1124,94 h 1124 m -1124,95 h 1124 m -1124,188 h 1124 m -1124,95 h 1124"
         stroke-opacity="1"
         stroke-linecap="round"
         stroke-linejoin="round"
         stroke-miterlimit="10"
         id="path143" />
      <path
         fill="none"
         stroke="#c0c0c0"
         paint-order="fill stroke markers"
         d=""
         stroke-opacity="0.235294"
         stroke-linecap="round"
         stroke-linejoin="round"
         stroke-miterlimit="10"
         id="path145" />
      <path
         fill="none"
         stroke="#252525"
         paint-order="fill stroke markers"
         d="m 223.5,2.5 v 776"
         stroke-opacity="1"
         stroke-miterlimit="10"
         id="path147" />
      <path
         fill="none"
         stroke="#252525"
         paint-order="fill stroke markers"
         d="m 223.5,1.5 -6,6"
         stroke-opacity="1"
         stroke-miterlimit="10"
         id="path149" />
      <path
         fill="none"
         stroke="#252525"
         paint-order="fill stroke markers"
         d="m 223.5,1.5 6,6"
         stroke-opacity="1"
         stroke-miterlimit="10"
         id="path151" />
      <g
         transform="scale(27)"
         id="g157">
        <g
           transform="translate(40.777778,21.036593)"
           id="g155">
          <path
             fill="#000000"
             stroke="none"
             paint-order="stroke fill markers"
             d="M 0.26,-0.229 0.46,0 H 0.377 L 0.227,-0.188 0.082,0 H 0 L 0.194,-0.229 0.006,-0.444 h 0.083 l 0.138,0.165 0.134,-0.165 h 0.082 z"
             id="path153" />
        </g>
      </g>
      <path
         fill="none"
         stroke="#252525"
         paint-order="fill stroke markers"
         d="m 0.5,573.5 h 1122"
         stroke-opacity="1"
         stroke-miterlimit="10"
         id="path159" />
      <path
         fill="none"
         stroke="#252525"
         paint-order="fill stroke markers"
         d="m 1123.5,573.5 -6,-6"
         stroke-opacity="1"
         stroke-miterlimit="10"
         id="path161" />
      <path
         fill="none"
         stroke="#252525"
         paint-order="fill stroke markers"
         d="m 1123.5,573.5 -6,6"
         stroke-opacity="1"
         stroke-miterlimit="10"
         id="path163" />
      <text
         fill="#252525"
         stroke="none"
         font-family="geogebra-sans-serif, sans-serif"
         font-size="18px"
         font-style="normal"
         font-weight="normal"
         text-decoration="normal"
         x="26"
         y="595"
         text-anchor="start"
         dominant-baseline="alphabetic"
         fill-opacity="1"
         id="text165">–4</text>
      <text
         fill="none"
         stroke="#ffffff"
         font-family="geogebra-sans-serif, sans-serif"
         font-size="18px"
         font-style="normal"
         font-weight="normal"
         text-decoration="normal"
         x="26"
         y="595"
         text-anchor="start"
         dominant-baseline="alphabetic"
         stroke-opacity="1"
         stroke-linejoin="bevel"
         stroke-miterlimit="10"
         stroke-width="3"
         id="text167">–4</text>
      <text
         fill="#252525"
         stroke="none"
         font-family="geogebra-sans-serif, sans-serif"
         font-size="18px"
         font-style="normal"
         font-weight="normal"
         text-decoration="normal"
         x="26"
         y="595"
         text-anchor="start"
         dominant-baseline="alphabetic"
         fill-opacity="1"
         id="text169">–4</text>
      <text
         fill="#252525"
         stroke="none"
         font-family="geogebra-sans-serif, sans-serif"
         font-size="18px"
         font-style="normal"
         font-weight="normal"
         text-decoration="normal"
         x="120"
         y="595"
         text-anchor="start"
         dominant-baseline="alphabetic"
         fill-opacity="1"
         id="text171">–2</text>
      <text
         fill="none"
         stroke="#ffffff"
         font-family="geogebra-sans-serif, sans-serif"
         font-size="18px"
         font-style="normal"
         font-weight="normal"
         text-decoration="normal"
         x="120"
         y="595"
         text-anchor="start"
         dominant-baseline="alphabetic"
         stroke-opacity="1"
         stroke-linejoin="bevel"
         stroke-miterlimit="10"
         stroke-width="3"
         id="text173">–2</text>
      <text
         fill="#252525"
         stroke="none"
         font-family="geogebra-sans-serif, sans-serif"
         font-size="18px"
         font-style="normal"
         font-weight="normal"
         text-decoration="normal"
         x="120"
         y="595"
         text-anchor="start"
         dominant-baseline="alphabetic"
         fill-opacity="1"
         id="text175">–2</text>
      <text
         fill="#252525"
         stroke="none"
         font-family="geogebra-sans-serif, sans-serif"
         font-size="18px"
         font-style="normal"
         font-weight="normal"
         text-decoration="normal"
         x="314"
         y="595"
         text-anchor="start"
         dominant-baseline="alphabetic"
         fill-opacity="1"
         id="text177">2</text>
      <text
         fill="none"
         stroke="#ffffff"
         font-family="geogebra-sans-serif, sans-serif"
         font-size="18px"
         font-style="normal"
         font-weight="normal"
         text-decoration="normal"
         x="314"
         y="595"
         text-anchor="start"
         dominant-baseline="alphabetic"
         stroke-opacity="1"
         stroke-linejoin="bevel"
         stroke-miterlimit="10"
         stroke-width="3"
         id="text179">2</text>
      <text
         fill="#252525"
         stroke="none"
         font-family="geogebra-sans-serif, sans-serif"
         font-size="18px"
         font-style="normal"
         font-weight="normal"
         text-decoration="normal"
         x="314"
         y="595"
         text-anchor="start"
         dominant-baseline="alphabetic"
         fill-opacity="1"
         id="text181">2</text>
      <text
         fill="#252525"
         stroke="none"
         font-family="geogebra-sans-serif, sans-serif"
         font-size="18px"
         font-style="normal"
         font-weight="normal"
         text-decoration="normal"
         x="408"
         y="595"
         text-anchor="start"
         dominant-baseline="alphabetic"
         fill-opacity="1"
         id="text183">4</text>
      <text
         fill="none"
         stroke="#ffffff"
         font-family="geogebra-sans-serif, sans-serif"
         font-size="18px"
         font-style="normal"
         font-weight="normal"
         text-decoration="normal"
         x="408"
         y="595"
         text-anchor="start"
         dominant-baseline="alphabetic"
         stroke-opacity="1"
         stroke-linejoin="bevel"
         stroke-miterlimit="10"
         stroke-width="3"
         id="text185">4</text>
      <text
         fill="#252525"
         stroke="none"
         font-family="geogebra-sans-serif, sans-serif"
         font-size="18px"
         font-style="normal"
         font-weight="normal"
         text-decoration="normal"
         x="408"
         y="595"
         text-anchor="start"
         dominant-baseline="alphabetic"
         fill-opacity="1"
         id="text187">4</text>
      <text
         fill="#252525"
         stroke="none"
         font-family="geogebra-sans-serif, sans-serif"
         font-size="18px"
         font-style="normal"
         font-weight="normal"
         text-decoration="normal"
         x="503"
         y="595"
         text-anchor="start"
         dominant-baseline="alphabetic"
         fill-opacity="1"
         id="text189">6</text>
      <text
         fill="none"
         stroke="#ffffff"
         font-family="geogebra-sans-serif, sans-serif"
         font-size="18px"
         font-style="normal"
         font-weight="normal"
         text-decoration="normal"
         x="503"
         y="595"
         text-anchor="start"
         dominant-baseline="alphabetic"
         stroke-opacity="1"
         stroke-linejoin="bevel"
         stroke-miterlimit="10"
         stroke-width="3"
         id="text191">6</text>
      <text
         fill="#252525"
         stroke="none"
         font-family="geogebra-sans-serif, sans-serif"
         font-size="18px"
         font-style="normal"
         font-weight="normal"
         text-decoration="normal"
         x="503"
         y="595"
         text-anchor="start"
         dominant-baseline="alphabetic"
         fill-opacity="1"
         id="text193">6</text>
      <text
         fill="#252525"
         stroke="none"
         font-family="geogebra-sans-serif, sans-serif"
         font-size="18px"
         font-style="normal"
         font-weight="normal"
         text-decoration="normal"
         x="597"
         y="595"
         text-anchor="start"
         dominant-baseline="alphabetic"
         fill-opacity="1"
         id="text195">8</text>
      <text
         fill="none"
         stroke="#ffffff"
         font-family="geogebra-sans-serif, sans-serif"
         font-size="18px"
         font-style="normal"
         font-weight="normal"
         text-decoration="normal"
         x="597"
         y="595"
         text-anchor="start"
         dominant-baseline="alphabetic"
         stroke-opacity="1"
         stroke-linejoin="bevel"
         stroke-miterlimit="10"
         stroke-width="3"
         id="text197">8</text>
      <text
         fill="#252525"
         stroke="none"
         font-family="geogebra-sans-serif, sans-serif"
         font-size="18px"
         font-style="normal"
         font-weight="normal"
         text-decoration="normal"
         x="597"
         y="595"
         text-anchor="start"
         dominant-baseline="alphabetic"
         fill-opacity="1"
         id="text199">8</text>
      <text
         fill="#252525"
         stroke="none"
         font-family="geogebra-sans-serif, sans-serif"
         font-size="18px"
         font-style="normal"
         font-weight="normal"
         text-decoration="normal"
         x="687"
         y="595"
         text-anchor="start"
         dominant-baseline="alphabetic"
         fill-opacity="1"
         id="text201">10</text>
      <text
         fill="none"
         stroke="#ffffff"
         font-family="geogebra-sans-serif, sans-serif"
         font-size="18px"
         font-style="normal"
         font-weight="normal"
         text-decoration="normal"
         x="687"
         y="595"
         text-anchor="start"
         dominant-baseline="alphabetic"
         stroke-opacity="1"
         stroke-linejoin="bevel"
         stroke-miterlimit="10"
         stroke-width="3"
         id="text203">10</text>
      <text
         fill="#252525"
         stroke="none"
         font-family="geogebra-sans-serif, sans-serif"
         font-size="18px"
         font-style="normal"
         font-weight="normal"
         text-decoration="normal"
         x="687"
         y="595"
         text-anchor="start"
         dominant-baseline="alphabetic"
         fill-opacity="1"
         id="text205">10</text>
      <text
         fill="#252525"
         stroke="none"
         font-family="geogebra-sans-serif, sans-serif"
         font-size="18px"
         font-style="normal"
         font-weight="normal"
         text-decoration="normal"
         x="781"
         y="595"
         text-anchor="start"
         dominant-baseline="alphabetic"
         fill-opacity="1"
         id="text207">12</text>
      <text
         fill="none"
         stroke="#ffffff"
         font-family="geogebra-sans-serif, sans-serif"
         font-size="18px"
         font-style="normal"
         font-weight="normal"
         text-decoration="normal"
         x="781"
         y="595"
         text-anchor="start"
         dominant-baseline="alphabetic"
         stroke-opacity="1"
         stroke-linejoin="bevel"
         stroke-miterlimit="10"
         stroke-width="3"
         id="text209">12</text>
      <text
         fill="#252525"
         stroke="none"
         font-family="geogebra-sans-serif, sans-serif"
         font-size="18px"
         font-style="normal"
         font-weight="normal"
         text-decoration="normal"
         x="781"
         y="595"
         text-anchor="start"
         dominant-baseline="alphabetic"
         fill-opacity="1"
         id="text211">12</text>
      <text
         fill="#252525"
         stroke="none"
         font-family="geogebra-sans-serif, sans-serif"
         font-size="18px"
         font-style="normal"
         font-weight="normal"
         text-decoration="normal"
         x="876"
         y="595"
         text-anchor="start"
         dominant-baseline="alphabetic"
         fill-opacity="1"
         id="text213">14</text>
      <text
         fill="none"
         stroke="#ffffff"
         font-family="geogebra-sans-serif, sans-serif"
         font-size="18px"
         font-style="normal"
         font-weight="normal"
         text-decoration="normal"
         x="876"
         y="595"
         text-anchor="start"
         dominant-baseline="alphabetic"
         stroke-opacity="1"
         stroke-linejoin="bevel"
         stroke-miterlimit="10"
         stroke-width="3"
         id="text215">14</text>
      <text
         fill="#252525"
         stroke="none"
         font-family="geogebra-sans-serif, sans-serif"
         font-size="18px"
         font-style="normal"
         font-weight="normal"
         text-decoration="normal"
         x="876"
         y="595"
         text-anchor="start"
         dominant-baseline="alphabetic"
         fill-opacity="1"
         id="text217">14</text>
      <text
         fill="#252525"
         stroke="none"
         font-family="geogebra-sans-serif, sans-serif"
         font-size="18px"
         font-style="normal"
         font-weight="normal"
         text-decoration="normal"
         x="970"
         y="595"
         text-anchor="start"
         dominant-baseline="alphabetic"
         fill-opacity="1"
         id="text219">16</text>
      <text
         fill="none"
         stroke="#ffffff"
         font-family="geogebra-sans-serif, sans-serif"
         font-size="18px"
         font-style="normal"
         font-weight="normal"
         text-decoration="normal"
         x="970"
         y="595"
         text-anchor="start"
         dominant-baseline="alphabetic"
         stroke-opacity="1"
         stroke-linejoin="bevel"
         stroke-miterlimit="10"
         stroke-width="3"
         id="text221">16</text>
      <text
         fill="#252525"
         stroke="none"
         font-family="geogebra-sans-serif, sans-serif"
         font-size="18px"
         font-style="normal"
         font-weight="normal"
         text-decoration="normal"
         x="970"
         y="595"
         text-anchor="start"
         dominant-baseline="alphabetic"
         fill-opacity="1"
         id="text223">16</text>
      <text
         fill="#252525"
         stroke="none"
         font-family="geogebra-sans-serif, sans-serif"
         font-size="18px"
         font-style="normal"
         font-weight="normal"
         text-decoration="normal"
         x="1065"
         y="595"
         text-anchor="start"
         dominant-baseline="alphabetic"
         fill-opacity="1"
         id="text225">18</text>
      <text
         fill="none"
         stroke="#ffffff"
         font-family="geogebra-sans-serif, sans-serif"
         font-size="18px"
         font-style="normal"
         font-weight="normal"
         text-decoration="normal"
         x="1065"
         y="595"
         text-anchor="start"
         dominant-baseline="alphabetic"
         stroke-opacity="1"
         stroke-linejoin="bevel"
         stroke-miterlimit="10"
         stroke-width="3"
         id="text227">18</text>
      <text
         fill="#252525"
         stroke="none"
         font-family="geogebra-sans-serif, sans-serif"
         font-size="18px"
         font-style="normal"
         font-weight="normal"
         text-decoration="normal"
         x="1065"
         y="595"
         text-anchor="start"
         dominant-baseline="alphabetic"
         fill-opacity="1"
         id="text229">18</text>
      <g
         transform="scale(27)"
         id="g235">
        <g
           transform="translate(8.5555556,0.99955556)"
           id="g233">
          <path
             fill="#000000"
             stroke="none"
             paint-order="stroke fill markers"
             d="M 0.446,-0.444 0.228,0.091 Q 0.2,0.16 0.1735,0.1825 0.147,0.205 0.115,0.205 0.078,0.205 0.043,0.197 L 0.037,0.132 q 0.04,0.016 0.078,0.016 0.01,0 0.016,-0.002 Q 0.137,0.144 0.1485,0.1305 0.16,0.117 0.172,0.09 0.181,0.07 0.208,0 L 0.014,-0.444 h 0.079 l 0.054,0.125 q 0.008,0.018 0.0245,0.058 0.0165,0.04 0.0395,0.107 0.023,0.067 0.026,0.097 h 0.001 q 0.003,-0.069 0.133,-0.387 z"
             id="path231" />
        </g>
      </g>
      <text
         fill="#252525"
         stroke="none"
         font-family="geogebra-sans-serif, sans-serif"
         font-size="18px"
         font-style="normal"
         font-weight="normal"
         text-decoration="normal"
         x="194"
         y="770"
         text-anchor="start"
         dominant-baseline="alphabetic"
         fill-opacity="1"
         id="text237">–4</text>
      <text
         fill="none"
         stroke="#ffffff"
         font-family="geogebra-sans-serif, sans-serif"
         font-size="18px"
         font-style="normal"
         font-weight="normal"
         text-decoration="normal"
         x="194"
         y="770"
         text-anchor="start"
         dominant-baseline="alphabetic"
         stroke-opacity="1"
         stroke-linejoin="bevel"
         stroke-miterlimit="10"
         stroke-width="3"
         id="text239">–4</text>
      <text
         fill="#252525"
         stroke="none"
         font-family="geogebra-sans-serif, sans-serif"
         font-size="18px"
         font-style="normal"
         font-weight="normal"
         text-decoration="normal"
         x="194"
         y="770"
         text-anchor="start"
         dominant-baseline="alphabetic"
         fill-opacity="1"
         id="text241">–4</text>
      <text
         fill="#252525"
         stroke="none"
         font-family="geogebra-sans-serif, sans-serif"
         font-size="18px"
         font-style="normal"
         font-weight="normal"
         text-decoration="normal"
         x="194"
         y="675"
         text-anchor="start"
         dominant-baseline="alphabetic"
         fill-opacity="1"
         id="text243">–2</text>
      <text
         fill="none"
         stroke="#ffffff"
         font-family="geogebra-sans-serif, sans-serif"
         font-size="18px"
         font-style="normal"
         font-weight="normal"
         text-decoration="normal"
         x="194"
         y="675"
         text-anchor="start"
         dominant-baseline="alphabetic"
         stroke-opacity="1"
         stroke-linejoin="bevel"
         stroke-miterlimit="10"
         stroke-width="3"
         id="text245">–2</text>
      <text
         fill="#252525"
         stroke="none"
         font-family="geogebra-sans-serif, sans-serif"
         font-size="18px"
         font-style="normal"
         font-weight="normal"
         text-decoration="normal"
         x="194"
         y="675"
         text-anchor="start"
         dominant-baseline="alphabetic"
         fill-opacity="1"
         id="text247">–2</text>
      <text
         fill="#252525"
         stroke="none"
         font-family="geogebra-sans-serif, sans-serif"
         font-size="18px"
         font-style="normal"
         font-weight="normal"
         text-decoration="normal"
         x="204"
         y="487"
         text-anchor="start"
         dominant-baseline="alphabetic"
         fill-opacity="1"
         id="text249">2</text>
      <text
         fill="none"
         stroke="#ffffff"
         font-family="geogebra-sans-serif, sans-serif"
         font-size="18px"
         font-style="normal"
         font-weight="normal"
         text-decoration="normal"
         x="204"
         y="487"
         text-anchor="start"
         dominant-baseline="alphabetic"
         stroke-opacity="1"
         stroke-linejoin="bevel"
         stroke-miterlimit="10"
         stroke-width="3"
         id="text251">2</text>
      <text
         fill="#252525"
         stroke="none"
         font-family="geogebra-sans-serif, sans-serif"
         font-size="18px"
         font-style="normal"
         font-weight="normal"
         text-decoration="normal"
         x="204"
         y="487"
         text-anchor="start"
         dominant-baseline="alphabetic"
         fill-opacity="1"
         id="text253">2</text>
      <text
         fill="#252525"
         stroke="none"
         font-family="geogebra-sans-serif, sans-serif"
         font-size="18px"
         font-style="normal"
         font-weight="normal"
         text-decoration="normal"
         x="204"
         y="392"
         text-anchor="start"
         dominant-baseline="alphabetic"
         fill-opacity="1"
         id="text255">4</text>
      <text
         fill="none"
         stroke="#ffffff"
         font-family="geogebra-sans-serif, sans-serif"
         font-size="18px"
         font-style="normal"
         font-weight="normal"
         text-decoration="normal"
         x="204"
         y="392"
         text-anchor="start"
         dominant-baseline="alphabetic"
         stroke-opacity="1"
         stroke-linejoin="bevel"
         stroke-miterlimit="10"
         stroke-width="3"
         id="text257">4</text>
      <text
         fill="#252525"
         stroke="none"
         font-family="geogebra-sans-serif, sans-serif"
         font-size="18px"
         font-style="normal"
         font-weight="normal"
         text-decoration="normal"
         x="204"
         y="392"
         text-anchor="start"
         dominant-baseline="alphabetic"
         fill-opacity="1"
         id="text259">4</text>
      <text
         fill="#252525"
         stroke="none"
         font-family="geogebra-sans-serif, sans-serif"
         font-size="18px"
         font-style="normal"
         font-weight="normal"
         text-decoration="normal"
         x="204"
         y="298"
         text-anchor="start"
         dominant-baseline="alphabetic"
         fill-opacity="1"
         id="text261">6</text>
      <text
         fill="none"
         stroke="#ffffff"
         font-family="geogebra-sans-serif, sans-serif"
         font-size="18px"
         font-style="normal"
         font-weight="normal"
         text-decoration="normal"
         x="204"
         y="298"
         text-anchor="start"
         dominant-baseline="alphabetic"
         stroke-opacity="1"
         stroke-linejoin="bevel"
         stroke-miterlimit="10"
         stroke-width="3"
         id="text263">6</text>
      <text
         fill="#252525"
         stroke="none"
         font-family="geogebra-sans-serif, sans-serif"
         font-size="18px"
         font-style="normal"
         font-weight="normal"
         text-decoration="normal"
         x="204"
         y="298"
         text-anchor="start"
         dominant-baseline="alphabetic"
         fill-opacity="1"
         id="text265">6</text>
      <text
         fill="#252525"
         stroke="none"
         font-family="geogebra-sans-serif, sans-serif"
         font-size="18px"
         font-style="normal"
         font-weight="normal"
         text-decoration="normal"
         x="204"
         y="203"
         text-anchor="start"
         dominant-baseline="alphabetic"
         fill-opacity="1"
         id="text267">8</text>
      <text
         fill="none"
         stroke="#ffffff"
         font-family="geogebra-sans-serif, sans-serif"
         font-size="18px"
         font-style="normal"
         font-weight="normal"
         text-decoration="normal"
         x="204"
         y="203"
         text-anchor="start"
         dominant-baseline="alphabetic"
         stroke-opacity="1"
         stroke-linejoin="bevel"
         stroke-miterlimit="10"
         stroke-width="3"
         id="text269">8</text>
      <text
         fill="#252525"
         stroke="none"
         font-family="geogebra-sans-serif, sans-serif"
         font-size="18px"
         font-style="normal"
         font-weight="normal"
         text-decoration="normal"
         x="204"
         y="203"
         text-anchor="start"
         dominant-baseline="alphabetic"
         fill-opacity="1"
         id="text271">8</text>
      <text
         fill="#252525"
         stroke="none"
         font-family="geogebra-sans-serif, sans-serif"
         font-size="18px"
         font-style="normal"
         font-weight="normal"
         text-decoration="normal"
         x="194"
         y="109"
         text-anchor="start"
         dominant-baseline="alphabetic"
         fill-opacity="1"
         id="text273">10</text>
      <text
         fill="none"
         stroke="#ffffff"
         font-family="geogebra-sans-serif, sans-serif"
         font-size="18px"
         font-style="normal"
         font-weight="normal"
         text-decoration="normal"
         x="194"
         y="109"
         text-anchor="start"
         dominant-baseline="alphabetic"
         stroke-opacity="1"
         stroke-linejoin="bevel"
         stroke-miterlimit="10"
         stroke-width="3"
         id="text275">10</text>
      <text
         fill="#252525"
         stroke="none"
         font-family="geogebra-sans-serif, sans-serif"
         font-size="18px"
         font-style="normal"
         font-weight="normal"
         text-decoration="normal"
         x="194"
         y="109"
         text-anchor="start"
         dominant-baseline="alphabetic"
         fill-opacity="1"
         id="text277">10</text>
      <text
         fill="#252525"
         stroke="none"
         font-family="geogebra-sans-serif, sans-serif"
         font-size="18px"
         font-style="normal"
         font-weight="normal"
         text-decoration="normal"
         x="204"
         y="595"
         text-anchor="start"
         dominant-baseline="alphabetic"
         fill-opacity="1"
         id="text279">0</text>
      <text
         fill="none"
         stroke="#ffffff"
         font-family="geogebra-sans-serif, sans-serif"
         font-size="18px"
         font-style="normal"
         font-weight="normal"
         text-decoration="normal"
         x="204"
         y="595"
         text-anchor="start"
         dominant-baseline="alphabetic"
         stroke-opacity="1"
         stroke-linejoin="bevel"
         stroke-miterlimit="10"
         stroke-width="3"
         id="text281">0</text>
      <text
         fill="#252525"
         stroke="none"
         font-family="geogebra-sans-serif, sans-serif"
         font-size="18px"
         font-style="normal"
         font-weight="normal"
         text-decoration="normal"
         x="204"
         y="595"
         text-anchor="start"
         dominant-baseline="alphabetic"
         fill-opacity="1"
         id="text283">0</text>
      <path
         fill="none"
         stroke="#006400"
         paint-order="fill stroke markers"
         d="m 224,573.4803 v 0.0803 -0.0803 l 1,-0.23457 v 0 l 1,-0.32108 v 0 l 1,-0.38846 v 0 l 1,-0.44567 v 0 l 1,-0.49632 v 0 l 1,-0.54223 v 0 l 1,-0.58455 v 0 l 1,-0.62399 v 0 l 1,-0.66109 v 0 l 1,-0.6962 v 0 l 1,-0.72964 v 0 l 1,-0.76159 v 0 l 1,-0.79227 v 0 l 1,-0.8218 v 0 l 1,-0.85031 v 0 l 1,-0.87788 v 0 l 1,-0.90461 v 0 l 1,-0.93059 v 0 l 1,-0.95585 v 0 l 1,-0.98046 v 0 l 1,-1.00448 v 0 l 1,-1.02792 v 0 l 1,-1.05085 v 0 l 1,-1.07328 v 0 l 1,-1.09526 v 0 l 1,-1.11681 v 0 l 1,-1.13794 v 0 l 1,-1.15869 v 0 l 1,-1.17908 v 0 l 1,-1.19911 v 0 l 1,-1.21883 v 0 l 1,-1.23822 v 0 l 1,-1.25732 v 0 l 1,-1.27613 v 0 l 1,-1.29467 v 0 l 1,-1.31294 v 0 l 1,-1.33097 v 0 l 1,-1.34876 v 0 l 1,-1.3663 v 0 l 1,-1.38364 v 0 l 1,-1.40075 v 0 l 1,-1.41766 v 0 l 1,-1.43437 v 0 l 1,-1.45088 v 0 l 1,-1.46722 v 0 l 1,-1.48337 v 0 l 1,-1.49935 v 0 l 1,-1.51515 v 0 l 1,-1.53081 v 0 l 1,-1.54628 v 0 l 1,-1.56163 v 0 l 1,-1.5768 v 0 l 1,-1.59185 v 0 l 1,-1.60675 v 0 l 1,-1.62151 v 0 l 1,-1.63613 v 0 l 1,-1.65064 v 0 l 1,-1.66501 v 0 l 1,-1.67926 v 0 l 1,-1.69339 v 0 l 1,-1.7074 v 0 l 1,-1.72131 v 0 l 1,-1.73509 v 0 l 1,-1.74877 v 0 l 1,-1.76234 v 0 l 1,-1.77581 v 0 l 1,-1.78918 v 0 l 1,-1.80245 v 0 l 1,-1.81562 v 0 l 1,-1.82869 v 0 l 1,-1.84168 v 0 l 1,-1.85457 v 0 l 1,-1.86738 v 0 l 1,-1.8801 v 0 l 1,-1.89272 v 0 l 1,-1.90527 v 0 l 1,-1.91774 v 0 l 1,-1.93013 v 0 l 1,-1.94242 v 0 l 1,-1.95466 v 0 l 1,-1.96681 v 0 l 1,-1.97889 v 0 l 1,-1.9909 v 0 l 1,-2.00282 v 0 l 1,-2.01469 v 0 l 1,-2.02648 v 0 l 1,-2.03821 v 0 l 1,-2.04986 v 0 l 1,-2.06145 v 0 l 1,-2.07298 v 0 l 1,-2.08444 v 0 l 1,-2.09585 v 0 l 1,-2.10718 v 0 l 1,-2.11846 v 0 l 1,-2.12968 v 0 l 1,-2.14083 v 0 l 1,-2.15194 v 0 l 1,-2.16298 v 0 l 1,-2.17397 v 0 l 1,-2.18491 v 0 l 1,-2.19578 v 0 l 1,-2.20661 v 0 l 1,-2.21738 v 0 l 1,-2.2281 v 0 l 1,-2.23877 v 0 l 1,-2.24938 v 0 l 1,-2.25996 v 0 l 1,-2.27047 v 0 l 1,-2.28095 v 0 l 1,-2.29136 v 0 l 1,-2.30175 v 0 l 1,-2.31207 v 0 l 1,-2.32235 v 0 l 1,-2.3326 v 0 l 1,-2.34278 v 0 l 1,-2.35294 v 0 l 1,-2.36303 v 0 l 1,-2.37311 v 0 l 1,-2.38312 v 0 l 1,-2.3931 v 0 l 1,-2.40303 v 0 l 1,-2.41293 v 0 l 1,-2.42279 v 0 l 1,-2.4326 v 0 l 1,-2.44237 v 0 l 1,-2.45212 v 0 l 1,-2.46181 v 0 l 1,-2.47147 v 0 l 1,-2.48109 v 0 l 1,-2.49068 v 0 l 1,-2.50023 v 0 l 1,-2.50973 v 0 l 1,-2.51922 v 0 l 1,-2.52866 v 0 l 1,-2.53806 v 0 l 1,-2.54743 v 0 l 1,-2.55677 v 0 l 1,-2.56607 v 0 l 1,-2.57534 v 0 l 1,-2.58458 v 0 l 1,-2.59378 v 0 l 1,-2.60295 v 0 l 1,-2.61209 v 0 l 1,-2.62119 v 0 l 1,-2.63027 v 0 l 1,-2.63932 v 0 l 1,-2.64832 v 0 l 1,-2.65731 v 0 l 1,-2.66626 v 0 l 1,-2.67518 v 0 l 1,-2.68407 v 0 l 1,-2.69294 v 0 l 1,-2.70177 v 0 l 1,-2.71057 v 0 l 1,-2.71936 v 0 l 1,-2.7281 v 0 l 1,-2.73682 v 0 l 1,-2.74551 v 0 l 1,-2.75418 v 0 l 1,-2.76281 v 0 l 1,-2.77143 v 0 l 1,-2.78001 v 0 l 1,-2.78857 v 0 l 1,-2.7971 v 0 l 1,-2.80561 v 0 l 1,-2.81409 v 0 l 1,-2.82254 v 0 l 1,-2.83097 v 0 l 1,-2.83938 v 0 l 1,-2.84775 v 0 l 1,-2.85611 v 0 l 1,-2.86444 v 0 l 1,-2.87275 v 0 l 1,-2.88103 v 0 l 1,-2.88929 v 0 l 1,-2.89752 v 0 l 1,-2.90574 v 0 l 1,-2.91392 v 0 l 1,-2.92209 v 0 l 1,-2.93024 v 0 l 1,-2.93835 v 0 l 1,-2.94645 v 0 l 1,-2.95453 v 0 l 1,-2.96258 v 0 l 1,-2.97062 v 0 l 1,-2.97862 v 0 l 1,-2.98661 v 0 l 1,-2.99459 v 0 l 1,-3.00252 v 0 l 1,-3.01046 v 0 l 1,-3.01835 v 0 l 1,-3.02624 v 0 l 1,-3.03411 v 0 l 1,-3.04195 v 0 l 1,-3.04977 v 0 l 1,-3.05757 v 0 l 1,-3.06536 v 0 l 1,-3.07312 v 0 l 1,-3.08087 v 0 l 1,-3.08858 v 0 l 1,-3.0963 v 0 l 1,-3.10398 v 0 l 1,-3.11165 v 0 l 1,-3.11929 v 0 l 1,-3.12693 v 0 l 1,-3.13453 v 0 l 1,-3.14213 v 0 l 1,-3.14971 v 0 l 1,-3.15726 v 0 l 1,-3.16479 v 0 l 1,-3.17232 v 0 l 1,-3.17982 v 0 l 1,-3.1873 v 0 l 1,-3.19477 v 0 l 1,-3.20223 v 0 l 1,-3.20965 v 0 l 1,-3.21707 v 0 l 1,-3.22446 v 0 l 1,-3.231853 v 0 l 1,-3.239212 v 0 l 1,-3.24656 v 0 l 1,-3.253892 v 0 l 1,-3.261206 v 0 l 1,-3.268504 v 0 l 1,-3.275787 v 0 l 1,-3.283052 v 0 l 1,-3.290302 v 0 l 1,-3.297536 v 0 l 1,-3.304754 v 0 l 1,-3.311957 v 0 l 1,-3.319143 v 0 l 1,-3.326314 v 0 l 1,-3.33347 v 0 l 1,-3.340611 v 0 l 1,-3.347736 v 0 l 1,-3.354845 v 0 l 1,-3.361941 v 0 l 1,-3.369021 v 0 l 1,-3.376086 v 0 l 1,-3.383137 v 0 l 1,-3.390172 v 0 l 1,-3.397194 v 0 l 1,-3.4042 v 0 l 1,-3.411193 v 0 l 1,-3.418171 v 0 l 1,-3.4251342 v 0 l 1,-3.4320844 v 0 l 1,-3.43902 v 0 l 1,-3.44594181 v 0 l 1,-3.45284959 v 0 l 1,-3.4597437 v 0 l 1,-3.4666243 v 0 l 1,-3.47349 v 0 l 1,-3.480344 v 0 l 1,-3.487184 v 0 l 1,-3.49401 v 0 l 1,-3.500822 v 0 l 1,-3.507623 v 0 l 1,-3.514409 v 0 l 1,-3.521183 v 0 l 1,-3.527943 v 0 l 1,-3.534691 v 0 l 1,-3.541426 v 0 l 1,-3.548147 v 0 l 1,-3.554857 v 0 l 1,-3.561553 v 0 l 1,-3.568238 v 0 l 1,-3.574909 v 0 l 1,-3.581568 v 0 l 1,-3.588214 v 0 l 1,-3.59485 v 0 l 1,-3.601471 v 0 l 1,-3.608082 v 0 l 1,-3.614679 v 0 l 1,-3.621266 v 0 l 1,-3.627839 v 0 l 1,-3.634402 v 0 l 1,-3.640953 v 0 l 1,-3.64749 v 0 l 1,-3.65402 v 0 l 1,-3.66053 v 0 l 1,-3.66704 v 0 l 1,-3.67352 v 0 l 1,-3.68001 v 0 l 1,-3.68648 v 0 l 1,-3.69294 v 0 l 1,-3.69938 v 0 l 1,-3.70582 v 0 l 1,-3.71224 v 0 l 1,-3.71866 v 0 l 1,-3.72505 v 0 l 1,-3.73145 v 0 l 1,-3.73783 v 0 l 1,-3.7442 v 0 l 1,-3.75056 v 0 l 1,-3.7569 v 0 l 1,-3.76324 v 0 l 1,-3.76957 v 0 l 1,-3.77589 v 0 l 1,-3.78219 v 0 l 1,-3.78848 v 0 l 1,-3.79477 v 0 l 1,-3.80104 v 0 l 1,-3.80731 v 0 l 1,-3.81356 v 0 l 1,-3.8198 v 0 l 1,-3.82604 v 0 l 1,-3.83225 v 0 l 1,-3.83847 v 0 l 1,-3.84468 v 0 l 1,-3.85086 v 0 l 1,-3.85705 v 0 l 1,-3.86323 v 0 l 1,-3.86938 v 0 l 1,-3.87554 v 0 l 1,-3.88168 v 0 l 1,-3.88781 v 0 l 1,-3.89394 v 0 l 1,-3.90006 v 0 l 1,-3.90615 v 0 l 1,-3.91226 v 0 l 1,-3.91834 v 0 l 1,-3.92441 v 0 l 1,-3.93049 v 0 l 1,-3.93654 v 0 l 1,-3.94259 v 0 l 1,-3.94862 v 0 l 1,-3.95466 v 0 l 1,-3.96068 v 0 l 1,-3.96669 v 0 l 1,-3.97269 v 0 l 1,-3.97869 v 0 l 1,-3.98467 v 0 l 1,-3.99064 v 0 l 1,-3.99662 v 0 l 1,-4.00257 v 0 l 1,-4.00851 v 0 l 1,-4.01446 v 0 l 1,-4.02039 v 0 l 1,-4.02631 v 0 l 1,-4.03223 v 0 l 1,-4.03813 v 0 l 1,-4.04403 v 0 l 1,-4.04991 v 0 l 1,-4.05579 v 0 l 1,-4.06167 v 0 l 1,-4.06753 v 0 l 1,-4.07338 v 0 l 1,-4.07922 v 0 l 1,-4.08507 v 0 l 1,-4.09089 v 0 l 1,-4.09671 v 0 l 1,-4.10253 v 0 l 1,-4.10833 v 0 l 1,-4.11412 v 0 l 1,-4.11991 v 0 l 1,-4.1257 v 0 l 1,-4.13146 v 0 l 1,-4.13723 v 0 l 1,-4.14298 v 0 l 1,-4.14873 v 0 l 1,-4.15447 v 0 l 1,-4.1602 v 0 l 1,-4.16592 v 0 l 1,-4.17164 v 0 l 1,-4.17735 v 0 l 1,-4.18305 v 0 l 1,-4.18874 v 0 l 1,-4.19442 v 0 l 1,-4.20011 v 0 l 1,-4.20577 v 0 l 1,-4.21143 v 0 l 1,-4.21709 v 0 l 1,-4.22273 v 0 l 1,-4.22838 v 0 l 1,-4.234 v 0 l 1,-4.23963 v 0 l 1,-4.24524 v 0 l 1,-4.25086 v 0 l 1,-4.25645 v 0 l 1,-4.26205 v 0 l 1,-4.26764 v 0 l 1,-4.27322 v 0 l 1,-4.27879 v 0 l 1,-4.28435 v 0 l 1,-4.28991 v 0 l 1,-4.29547 v 0 l 1,-4.301 v 0 l 1,-4.30655 v 0 l 1,-4.31207 v 0 l 1,-4.3176 v 0 l 1,-4.32311 v 0 l 1,-4.32862 v 0 l 1,-4.33412 v 0 l 1,-4.33961 v 0 l 1,-4.3451 v 0 l 1,-4.35058 v 0 l 1,-4.35606 v 0 l 1,-4.36152 v 0 l 1,-4.36698 v 0 l 1,-4.37244 v 0 l 1,-4.37788 v 0 l 1,-4.38332 v 0 l 1,-4.38875 v 0 l 1,-4.39418 v 0 l 1,-4.3996 v 0 l 1,-4.40501 v 0 l 1,-4.41042 v 0 l 1,-4.41581 v 0 l 1,-4.42121 v 0 l 1,-4.4266 v 0 l 1,-4.43197 v 0 l 1,-4.43735 v 0 l 1,-4.44271 v 0 l 1,-4.44808 v 0 l 1,-4.45343 v 0 l 1,-4.45877 v 0 l 1,-4.46412 v 0 l 1,-4.46945 v 0 l 1,-4.47478 v 0 l 1,-4.4801 v 0 l 1,-4.48542 v 0 l 1,-4.49072 v 0 l 1,-4.49603 v 0 l 1,-4.50132 v 0 l 1,-4.50662 v 0 l 1,-4.5119 v 0 l 1,-4.51718 v 0 l 1,-4.52244 v 0 l 1,-4.52772 v 0 l 1,-4.53297 v 0 l 1,-4.53823 v 0 l 1,-4.54348 v 0 l 1,-4.54871 v 0 l 1,-4.55396 v 0 l 1,-4.55918 v 0 l 1,-4.5644 v 0 l 1,-4.56963 v 0 l 1,-4.57483 v 0 l 1,-4.58004 v 0 l 1,-4.58524 v 0 l 1,-4.59043 v 0 l 1,-4.59562 v 0 l 1,-4.6008 v 0 l 1,-4.60598 v 0 l 1,-4.61115 v 0 l 1,-4.61631 v 0 l 1,-4.62148 v 0 l 1,-4.62662 v 0 l 1,-4.63177 v 0 l 1,-4.63692 v 0 l 1,-4.64205 v 0 l 1,-4.64718 v 0 l 1,-4.6523 v 0 l 1,-4.65743 v 0 l 1,-4.66253 v 0 l 1,-4.66765 v 0 l 1,-4.67275 v 0 l 1,-4.67784 v 0 l 1,-4.68293 v 0 l 1,-4.68802 v 0 l 1,-4.6931 v 0 l 1,-4.69818 v 0 l 1,-4.70324 v 0 l 1,-4.70831 v 0 l 1,-4.71336 v 0 l 1,-4.71842 v 0 l 1,-4.72347 v 0 l 1,-4.7285 v 0 l 1,-4.73355 v 0 l 1,-4.73857 v 0 l 1,-4.7436 v 0 l 1,-4.74862 v 0 l 1,-4.75364 v 0 l 1,-4.75864 v 0 l 1,-4.76365 v 0 l 1,-4.76865 v 0 l 1,-4.77365 v 0 l 1,-4.77863 v 0 l 1,-4.78362 v 0 l 1,-4.78859 v 0 l 1,-4.79357 v 0 l 1,-4.79854 v 0 l 1,-4.8035 v 0 l 1,-4.80846 v 0 l 1,-4.81341 v 0 l 1,-4.81836 v 0 l 1,-4.8233 v 0 l 1,-4.82825 v 0 l 1,-4.8332 v 0 l 1,-4.8381 v 0 l 1,-4.843 v 0 l 1,-4.8479 v 0 l 1,-4.8529 v 0 l 1,-4.8577 v 0 l 1,-4.8627 v 0 l 1,-4.8675 v 0 l 1,-4.8725 v 0 l 1,-4.8773 v 0 l 1,-4.8823 v 0 l 1,-4.8871 v 0 l 1,-4.8919 v 0 l 1,-4.8969 v 0 l 1,-4.9017 v 0 l 1,-4.9066 v 0 l 1,-4.9114 v 0 l 1,-4.9162 v 0 l 1,-4.9212 v 0 l 1,-4.9259 v 0 l 1,-4.9308 v 0 l 1,-4.9356 v 0 l 1,-4.9405 v 0 l 1,-4.9452 v 0 l 1,-4.9501 v 0 l 1,-4.9549 v 0 l 1,-4.9597 v 0 l 1,-4.9645 v 0 l 1,-4.9693 v 0 l 1,-4.9741 v 0 l 1,-4.9788 v 0 l 1,-4.9837 v 0 l 1,-4.9884 v 0 l 1,-4.9933 v 0 l 1,-4.9979 v 0 l 1,-5.0028 v 0 l 1,-5.0075 v 0 l 1,-5.0123 v 0 l 1,-5.017 v 0 l 1,-5.0218 v 0 l 1,-5.0265 v 0 l 1,-5.0312 v 0 l 1,-5.036 v 0 l 1,-5.0407 v 0 l 1,-5.0454 v 0 l 1,-5.0502 v 0 l 1,-5.0549 v 0 l 1,-5.0595 v 0 l 1,-5.0643 v 0 l 1,-5.069 v 0 l 1,-5.0737 v 0 l 1,-5.0784 v 0 l 1,-5.0831 v 0 l 1,-5.0877 v 0 l 1,-5.0925 v 0 l 1,-5.0971 v 0 l 1,-5.1018 v 0 l 1,-5.1064 v 0 l 1,-5.1112 v 0 l 1,-5.1157 v 0 l 1,-5.1205 v 0 l 1,-5.1251 v 0 l 1,-5.1297 v 0 l 1,-5.1344 v 0 l 1,-5.139 v 0 l 1,-5.1437 v 0 l 1,-5.1482 v 0 l 1,-5.1529 v 0 l 1,-5.1576 v 0 l 1,-5.1621 v 0 l 1,-5.1668 v 0 l 1,-5.1714 v 0 l 1,-5.1759 v 0 l 1,-5.1806 v 0 l 1,-5.1852 v 0 l 1,-5.1898 v 0 l 1,-5.1943 v 0 l 1,-5.199 v 0 l 1,-5.2035 v 0 l 1,-5.2081 v 0 l 1,-5.2127 v 0 l 1,-5.2172 v 0 l 1,-5.2218 v 0 l 1,-5.2264 v 0 l 1,-5.231 v 0 l 1,-5.2354 v 0 l 1,-5.2401 v 0 l 1,-5.2445 v 0 l 1,-5.2492 v 0 l 1,-5.2536 v 0 l 1,-5.2582 v 0 l 1,-5.2627 v 0 l 1,-5.2673 v 0 l 1,-5.2717 v 0 l 1,-5.2763 v 0 l 1,-5.2808 v 0 l 1,-5.2853 v 0 l 1,-5.2899 v 0 l 1,-5.2943 v 0 l 1,-5.2988 v 0 l 1,-5.3033 v 0 l 1,-5.3078 v 0 l 1,-5.3123 v 0 l 1,-5.3168 v 0 l 1,-5.3212 v 0 l 1,-5.3258 v 0 l 1,-5.3302 v 0 l 1,-5.3346 v 0 l 1,-5.3392 v 0 l 1,-5.3436 v 0 l 1,-5.348 v 0 l 1,-5.3525 v 0 l 1,-5.357 v 0 l 1,-5.3614 v 0 l 1,-5.3658 v 0 l 1,-5.3703 v 0 l 1,-5.3747 v 0 l 1,-5.3792 v 0 l 1,-5.3836 v 0 l 1,-5.388 v 0 l 1,-5.3924 v 0 l 1,-5.3968 v 0 l 1,-5.4013 v 0 l 1,-5.4056 v 0 l 1,-5.4101 v 0 l 1,-5.4145 v 0 l 1,-5.4189 v 0 l 1,-5.4232 v 0 l 1,-5.4277 v 0 l 1,-5.432 v 0 l 1,-5.4365 v 0 l 1,-5.4408 v 0 l 1,-5.4452 v 0 l 1,-5.4495 v 0 l 1,-5.454 v 0 l 1,-5.4583 v 0 l 1,-5.4626 v 0 l 1,-5.4671 v 0 l 1,-5.4713 v 0 l 1,-5.4758 v 0 l 1,-5.4801 v 0 l 1,-5.4844 v 0 l 1,-5.4888 v 0 l 1,-5.4931 v 0 l 1,-5.4974 v 0 l 1,-5.5018 v 0 l 1,-5.5061 v 0 l 1,-5.5105 v 0 l 1,-5.5147 v 0 l 1,-5.5191 v 0 l 1,-5.5234 v 0 l 1,-5.5277 v 0 l 1,-5.532 v 0 l 1,-5.5364 v 0 l 1,-5.5406 v 0 l 1,-5.5449 v 0 l 1,-5.5492 v 0 l 1,-5.5535 v 0 l 1,-5.5579 v 0 l 1,-5.562 v 0 l 1,-5.5664 v 0 l 1,-5.5707 v 0 l 1,-5.5749 v 0 l 1,-5.5792 v 0 l 1,-5.5834 v 0 l 1,-5.5878 v 0 l 1,-5.592 v 0 l 1,-5.5962 v 0 l 1,-5.6005 v 0 l 1,-5.6048 v 0 l 1,-5.609 v 0 l 1,-5.6133 v 0 l 1,-5.6175 v 0 l 1,-5.6217 v 0 l 1,-5.626 v 0 l 1,-5.6302 v 0 l 1,-5.6344 v 0 l 1,-5.6387 v 0 l 1,-5.6429 v 0 l 1,-5.6471 v 0 l 1,-5.6514 v 0 l 1,-5.6555 v 0 l 1,-5.6598 v 0 l 1,-5.6639 v 0 l 1,-5.6682 v 0 l 1,-5.6724 v 0 l 1,-5.6766 v 0 l 1,-5.6807 v 0 l 1,-5.685 v 0 l 1,-5.6892 v 0 l 1,-5.6933 v 0 l 1,-5.6975 v 0 l 1,-5.7017 v 0 l 1,-5.7059 v 0 l 1,-5.7101 v 0 l 1,-5.7142 v 0 l 1,-5.7184 v 0 l 1,-5.7226 v 0 l 1,-5.7267 v 0 l 1,-5.7309 v 0 l 1,-5.735 v 0 l 1,-5.7392 v 0 l 1,-5.7433 v 0 l 1,-5.7475 v 0 l 1,-5.7517 v 0 l 1,-5.7558 v 0 l 1,-5.7599 v 0 l 1,-5.764 v 0 l 1,-5.7682 v 0 l 1,-5.7723 v 0 l 1,-5.7765 v 0 l 1,-5.7805 v 0 l 1,-5.7847 v 0 l 1,-5.7888 v 0 l 1,-5.7929 v 0 l 1,-5.797 v 0 l 1,-5.8012 v 0 l 1,-5.8052 v 0 l 1,-5.8094 v 0 l 1,-5.8134 v 0 l 1,-5.8176 v 0 l 1,-5.8216 v 0 l 1,-5.8257 v 0 l 1,-5.8298 v 0 l 1,-5.8339 v 0 l 1,-5.838 v 0 l 1,-5.8421 v 0 l 1,-5.8461 v 0 l 1,-5.8503 v 0 l 1,-5.8542 v 0 l 1,-5.8584 v 0 l 1,-5.8624 v 0 l 1,-5.8665 v 0 l 1,-5.8706 v 0 l 1,-5.8746 v 0 l 1,-5.8786 v 0 l 1,-5.8827 v 0 l 1,-5.8868 v 0 l 1,-5.8908 v 0 l 1,-5.8949 v 0 l 1,-5.8989 v 0 l 1,-5.9029 v 0 l 1,-5.907 v 0 l 1,-5.9109 v 0 l 1,-5.9151 v 0 l 1,-5.919 v 0 l 1,-5.9231 v 0 l 1,-5.9271 v 0 l 1,-5.9311 v 0 l 1,-5.9352 v 0 l 1,-5.9391 v 0 l 1,-5.9432 v 0 l 1,-5.9471 v 0 l 1,-5.9512 v 0 l 1,-5.9552 v 0 l 1,-5.9592 v 0 l 1,-5.9631 v 0 l 1,-5.9672 v 0 l 1,-5.9711 v 0 l 1,-5.9752 v 0 l 1,-5.9791 v 0 l 1,-5.9831 v 0 l 1,-5.9871 v 0 l 1,-5.9911 v 0 l 1,-5.9951 v 0 l 1,-5.999 v 0 l 1,-6.003 v 0 l 1,-6.007 v 0 l 1,-6.0109 v 0 l 1,-6.0149 v 0 l 1,-6.0188 v 0 l 1,-6.0228 v 0 l 1,-6.0268 v 0 l 1,-6.0307 v 0 l 1,-6.0347 v 0 l 1,-6.0386 v 0 l 1,-6.0426 v 0 l 1,-6.0465 v 0 l 1,-6.0504 v 0 l 1,-6.0544 v 0 l 1,-6.0583 v 0 l 1,-6.0623 v 0 l 1,-6.0661 v 0 l 1,-6.0701 v 0 l 1,-6.0741 v 0 l 1,-6.0779 v 0 l 1,-6.0819 v 0 l 1,-6.0857 v 0 l 1,-6.0897 v 0 l 1,-6.0936 v 0 l 1,-6.0976 v 0 l 1,-6.1014 v 0 l 1,-6.1053 v 0 l 1,-6.1092 v 0 l 1,-6.1132 v 0 l 1,-6.117 v 0 l 1,-6.1209 v 0 l 1,-6.1248 v 0 l 1,-6.1287 v 0 l 1,-6.1326 v 0 l 1,-6.1365 v 0 l 1,-6.1403 v 0 l 1,-6.1443 v 0 l 1,-6.1481 v 0 l 1,-6.152 v 0 l 1,-6.1558 v 0 l 1,-6.1597 v 0 l 1,-6.1636 v 0 l 1,-6.1675 v 0 l 1,-6.1713 v 0 l 1,-6.1752 v 0 l 1,-6.179 v 0 l 1,-6.1829 v 0 l 1,-6.1867 v 0 l 1,-6.1906 v 0 l 1,-6.1945 v 0 l 1,-6.1983 v 0 l 1,-6.2021 v 0 l 1,-6.206 v 0 l 1,-6.2098 v 0 l 1,-6.2136 v 0 l 1,-6.2175 v 0 l 1,-6.2213 v 0 l 1,-6.2251 v 0 l 1,-6.229 v 0 l 1,-6.2328 v 0 l 1,-6.2366 v 0 l 1,-6.2404 v 0 l 1,-6.2443 v 0 l 1,-6.248 v 0 l 1,-6.2519 v 0 l 1,-6.2557 v 0 l 1,-6.2595 v 0 l 1,-6.2633 v 0 l 1,-6.2671 v 0 l 1,-6.2709 v 0 l 1,-6.2747 v 0 l 1,-6.2785 v 0 l 1,-6.2823 v 0 l 1,-6.2861 v 0 l 1,-6.2898 v 0 l 1,-6.2937 v 0 l 1,-6.2975 v 0 l 1,-6.3012 v 0 l 1,-6.305 v 0 l 1,-6.3088 v 0 l 1,-6.3125 v 0 l 1,-6.3164 v 0 l 1,-6.3201 v 0 l 1,-6.3238 v 0 l 1,-6.3277 v 0 l 1,-6.3314 v 0 l 1,-6.3352 v 0 l 1,-6.3389 v 0 l 1,-6.3427 v 0 l 1,-6.3464 v 0 l 1,-6.3502 v 0 l 1,-6.354 v 0 l 1,-6.3577 v 0 l 1,-6.3614 v 0 l 1,-6.3652 v 0 l 1,-6.3689 v 0 l 1,-6.3727 v 0 l 1,-6.3764 v 0 l 1,-6.3801 v 0 l 1,-6.3839 v 0 l 1,-6.3876 v 0 l 1,-6.3914 v 0 l 1,-6.395 v 0 l 1,-6.3988 v 0 l 1,-6.4025 v 0 l 1,-6.4063 v 0 l 1,-6.4099 v 0 l 1,-6.4137 v 0 l 1,-6.4174 v 0 l 1,-6.4211 v 0 l 1,-6.4248 v 0 l 1,-6.4285 v 0 l 1,-6.4322 v 0 l 1,-6.4359 v 0 l 1,-6.4396 v 0 l 1,-6.4434 v 0 l 1,-6.447 v 0 l 1,-6.4507 v 0 l 1,-6.4544 v 0 l 1,-6.4581 v 0 l 1,-6.4618 v 0 l 1,-6.4654 v 0 l 1,-6.4692 v 0 l 1,-6.4728 v 0 l 1,-6.4766 v 0 l 1,-6.4801 v 0 l 1,-6.4839 v 0 l 1,-6.4876 v 0 l 1,-6.4912 v 0 l 1,-6.4949 v 0 l 1,-6.4985 v 0 l 1,-6.5022 v 0 l 1,-6.5059 v 0 l 1,-6.5096 v 0 l 1,-6.5132 v 0 l 1,-6.5168 v 0 l 1,-6.5206 v 0 l 1,-6.5241 v 0 l 1,-6.5279 v 0 l 1,-6.5314 v 0 l 1,-6.5351 v 0 l 1,-6.5388 v 0 l 1,-6.5424 v 0 l 1,-6.5461 v 0 l 1,-6.5496"
         stroke-opacity="0.698039"
         stroke-linecap="round"
         stroke-linejoin="round"
         stroke-miterlimit="10"
         stroke-width="3"
         id="path285" />
      <path
         fill="none"
         stroke="#cc0000"
         paint-order="fill stroke markers"
         d="M 0,573.56064 H 1.7945125 3.589025 5.3835375 7.17805 h 1.7945126 1.7945124 1.794513 1.794512 1.794513 1.794512 1.794513 1.794512 1.794513 1.794512 1.794513 1.794512 1.794513 1.794512 1.794513 1.794512 1.794513 1.794512 1.794513 1.794512 1.794513 1.794512 1.794513 1.794512 1.794513 1.794512 1.794513 1.794512 1.794513 1.794512 1.794513 1.794512 1.794513 1.794512 1.794513 1.794512 1.794513 1.794512 1.794513 1.794513 1.794512 1.794513 1.794512 1.794513 1.794512 1.794513 1.794512 1.794513 1.794512 1.794513 1.794512 1.794512 1.79451 1.79452 1.79451 1.79451 1.79451 1.79452 1.79451 1.79451 1.79451 1.79452 1.79451 1.79451 1.79451 1.79452 1.79451 1.79451 1.79451 1.79452 1.79451 1.79451 1.79451 1.79452 1.79451 1.79451 1.79451 1.79452 1.79451 1.79451 1.79451 1.79452 1.79451 1.79451 1.79451 1.79452 1.79451 1.79451 1.79451 1.79452 1.79451 1.79451 1.79451 1.79452 1.79451 1.79451 1.79451 1.79452 1.79451 1.79451 1.79451 1.79452 1.79451 1.79451 1.79451 1.79452 1.79451 1.79451 1.79451 1.79452 1.79451 1.79451 1.79451 1.79452 1.79451 1.79451 1.79451 1.79452 1.79451 1.79451 1.79451 1.79452 1.79451 1.79451 1.79451 1.79452 1.79451 1.79451 1.79451 1.79452 1.79451 1.79451 1.79451 1.79452 1.79451 1.79451 1.79451 1.79452 1.79451 1.79451 1.79451 1.79452 1.79451 1.79451 1.79451 1.79452 1.79451 1.79451 1.79451 1.79452 1.79451 1.79451 1.79451 1.79452 1.79451 1.79451 1.79451 1.79452 1.79451 1.79451 1.79451 1.79452 1.79451 1.79451 1.79451 1.79452 1.79451 1.79451 1.79451 1.79452 1.79451 1.79451 1.79451 1.79452 1.79451 1.79451 1.79451 1.79452 1.79451 1.79451 1.79451 1.79452 1.79451 1.79451 1.79451 1.79452 1.79451 1.79451 1.79451 1.79452 1.79451 1.79451 1.79451 1.79452 1.79451 1.79451 1.79451 1.79452 1.79451 1.79451 1.79451 1.79452 1.79451 1.79451 1.79451 1.79452 1.79451 1.79451 1.79451 1.79452 1.79451 1.79451 1.79452 1.79451 1.79451 1.79451 1.79452 1.79451 1.79451 1.79451 1.79452 1.79451 1.79451 1.79451 1.79452 1.79451 1.79451 1.79451 1.79452 1.79451 1.79451 1.79451 1.79452 1.79451 1.79451 1.79451 1.79452 1.79451 1.79451 1.79451 1.79452 1.79451 1.79451 1.79451 1.79452 1.79451 1.79451 1.79451 1.79452 1.79451 1.79451 1.79451 m 0,0 1.29806,-0.21523 1.29806,-0.39353 2.59611,-1.11309 2.59611,-1.4414 2.59611,-1.70689 2.59612,-1.93609 2.59611,-2.14079 2.59611,-2.32751 2.59611,-2.50031 2.59612,-2.66188 2.59611,-2.8142 2.59611,-2.95867 2.59611,-3.0964 2.59612,-3.22826 2.59611,-3.35494 2.59611,-3.47701 2.59611,-3.59492 2.59612,-3.7091 2.59611,-3.81986 2.59611,-3.92749 2.59611,-4.03226 2.59612,-4.13436 2.59611,-4.23402 2.59611,-4.33137 2.59611,-4.42658 2.59612,-4.51979 2.59611,-4.61111 2.59611,-4.70067 2.59611,-4.78854 2.59612,-4.87483 2.59611,-4.95962 2.59611,-5.04299 2.59611,-5.125 2.59612,-5.20571 2.59611,-5.2852 2.59611,-5.3635 2.59611,-5.44068 2.59612,-5.51679 2.59611,-5.59184 2.59611,-5.66592 2.59611,-5.73903 2.59612,-5.81122 2.59611,-5.88253 2.59611,-5.95299 2.59611,-6.02261 2.59611,-6.09145 2.59612,-6.15951 2.59611,-6.22683 2.59611,-6.29344 2.59611,-6.35933 2.59612,-6.42456 2.59611,-6.48914 2.59611,-6.55307 2.59611,-6.61638 2.59612,-6.6791 2.59611,-6.74124 2.59611,-6.8028 2.59611,-6.86382 2.59612,-6.92429 2.59611,-6.98424 2.59611,-7.04369 2.59611,-7.10263 2.59612,-7.16109 2.59611,-7.21908 2.59611,-7.2766 2.59611,-7.33367 2.59612,-7.39031 2.59611,-7.44651 2.59611,-7.50228 2.59611,-7.55766 2.59612,-7.61262 2.59611,-7.6672 2.59611,-7.72138 2.59611,-7.77519 2.59612,-7.82862 2.59611,-7.88171 2.59611,-7.93442 2.59611,-7.9868 2.59612,-8.03883 2.59611,-8.09053 2.59611,-8.1419 2.59611,-8.19294 2.59612,-8.24368 2.59611,-8.2941 2.59611,-8.34421 2.59611,-8.394032 2.59612,-8.443553 2.59611,-8.492787 2.59611,-8.541738 2.59611,-8.59041 2.59612,-8.638807 2.59611,-8.686934 2.59611,-8.734797 2.59611,-8.782399 2.59612,-8.829743 2.59611,-8.8768363 2.59611,-8.92368022 2.59611,-8.97027958"
         stroke-opacity="0.698039"
         stroke-linecap="round"
         stroke-linejoin="round"
         stroke-miterlimit="10"
         stroke-width="3"
         id="path287" />
      <path
         fill="none"
         stroke="#666666"
         paint-order="fill stroke markers"
         d="m 0,573.56064 h 1.2412277 1.2412278 1.2412277 1.2412278 1.2412277 1.2412278 1.2412277 1.2412278 1.241228 1.241227 1.241228 1.241228 1.241228 1.241227 1.241228 1.241228 1.241228 1.241227 1.241228 1.241228 1.241228 1.241227 1.241228 1.241228 1.241228 1.241227 1.241228 1.241228 1.241228 1.241227 1.241228 1.241228 1.241228 1.241227 1.241228 1.241228 1.241228 1.241227 1.241228 1.241228 1.241228 1.241227 1.241228 1.241228 1.241228 1.241227 1.241228 1.241228 1.241228 1.241227 1.241228 1.241228 1.241228 1.241227 1.241228 1.241228 1.241227 1.241228 1.241228 1.241228 1.241227 1.241228 1.241228 1.241228 1.241227 1.241228 1.241228 1.241228 1.241227 1.241228 1.241228 1.241228 1.241227 1.241228 1.241228 1.241228 1.241227 1.241228 1.241228 1.241228 1.24123 1.24123 1.24122 1.24123 1.24123 1.24123 1.24122 1.24123 1.24123 1.24123 1.24122 1.24123 1.24123 1.24123 1.24123 1.24122 1.24123 1.24123 1.24123 1.24122 1.24123 1.24123 1.24123 1.24123 1.24122 1.24123 1.24123 1.24123 1.24122 1.24123 1.24123 1.24123 1.24123 1.24122 1.24123 1.24123 1.24123 1.24122 1.24123 1.24123 1.24123 1.24122 1.24123 1.24123 1.24123 1.24123 1.24122 1.24123 1.24123 1.24123 1.24122 1.24123 1.24123 1.24123 1.24123 1.24122 1.24123 1.24123 1.24123 1.24122 1.24123 1.24123 1.24123 1.24123 1.24122 1.24123 1.24123 1.24123 1.24122 1.24123 1.24123 1.24123 1.24123 1.24122 1.24123 1.24123 1.24123 1.24122 1.24123 1.24123 1.24123 1.24122 1.24123 1.24123 1.24123 1.24123 1.24122 1.24123 1.24123 1.24123 1.24122 1.24123 1.24123 1.24123 1.24123 1.24122 1.24123 1.24123 1.24123 1.24122 1.24123 1.24123 1.24123 1.24123 1.24122 1.24123 1.24123 1.24123 1.24122 1.24123 1.24123 1.24123 1.24122 1.24123 1.24123 1.24123 1.24123 1.24122 1.24123 1.24123 1.24123 1.24122 1.24123 1.24123 1.24123 1.24123 1.24122 1.24123 1.24123 1.24123 1.24122 1.24123 1.24123 1.24123 1.24123 1.24122 1.24123 1.24123 1.24123 1.24122 1.24123 1.24123 1.24123 1.24123 1.24122 1.24123 1.24123 1.24123 1.24122 1.24123 1.24123 1.24123 1.24122 1.24123 1.24123 1.24123 1.24123 1.24122 1.24123 1.24123 1.24123 1.24122 1.24123 1.24123 1.24123 1.24123 1.24122 1.24123 1.24123 1.24123 1.24122 1.24123 1.24123 1.24123 1.24123 1.24122 m 0,0 1.5747,-0.28758 1.5747,-0.52582 3.1494,-1.48726 3.14939,-1.92592 3.1494,-2.28067 3.1494,-2.5869 3.1494,-2.86043 3.14939,-3.10991 3.1494,-3.34079 3.1494,-3.55668 3.1494,-3.7602 3.14939,-3.95323 3.1494,-4.13727 3.1494,-4.31345 3.14939,-4.48271 3.1494,-4.6458 3.1494,-4.80337 3.1494,-4.95592 3.14939,-5.10391 3.1494,-5.24773 3.1494,-5.3877 3.1494,-5.52415 3.14939,-5.65728 3.1494,-5.78737 3.1494,-5.91459 3.14939,-6.03913 3.1494,-6.16115 3.1494,-6.2808 3.1494,-6.39822 3.14939,-6.51352 3.1494,-6.62681 3.1494,-6.73819 3.1494,-6.84778 3.14939,-6.95562 3.1494,-7.06183 3.1494,-7.16646 3.14939,-7.26958 3.1494,-7.37126 3.1494,-7.47155 3.1494,-7.57053 3.14939,-7.66822 3.1494,-7.76467 3.1494,-7.85996 3.14939,-7.95409 3.1494,-8.04713 3.1494,-8.1391 3.1494,-8.23005 3.14939,-8.31999 3.1494,-8.40899 3.1494,-8.49704 3.1494,-8.58419 3.14939,-8.67047 3.1494,-8.7559 3.1494,-8.8405 3.14939,-8.92429 3.1494,-9.00732 3.1494,-9.08958 3.1494,-9.1711 3.14939,-9.25191 3.1494,-9.33201 3.1494,-9.41144 3.1494,-9.49019 3.14939,-9.56831 3.1494,-9.64578 3.1494,-9.72265 3.14939,-9.7989 3.1494,-9.87457 3.1494,-9.94967 1.5747,-5.00282 1.5747,-5.02138 1.57469,-5.03987 1.5747,-5.05831 1.5747,-5.07666 1.5747,-5.094958 1.5747,-5.113187 1.5747,-5.131351 1.5747,-5.149451 1.5747,-5.167487 1.57469,-5.185462 1.5747,-5.203374 1.5747,-5.221223 1.5747,-5.239014 1.5747,-5.256743 1.5747,-5.274413 1.5747,-5.292023 1.57469,-5.309576 1.5747,-5.327071 1.5747,-5.344508 1.5747,-5.361888 1.5747,-5.379213 1.5747,-5.3964817 1.5747,-5.4136954 1.57469,-5.4308546 1.5747,-5.4479597"
         stroke-opacity="0.698039"
         stroke-linecap="round"
         stroke-linejoin="round"
         stroke-miterlimit="10"
         stroke-width="2.5"
         id="path289" />
      <path
         fill="none"
         stroke="#0000ff"
         paint-order="fill stroke markers"
         d="m 0,573.56064 h 1.425656 1.425656 1.425656 1.425656 1.425656 1.425656 1.425656 1.425656 1.425656 1.425656 1.425656 1.425656 1.425656 1.425656 1.425656 1.425656 1.425656 1.425656 1.425656 1.425656 1.425656 1.425656 1.425656 1.425656 1.425656 1.425656 1.425656 1.425656 1.425656 1.425656 1.425656 1.425656 1.425656 1.425656 1.425656 1.425656 1.425656 1.425656 1.425656 1.425656 1.425656 1.425656 1.425656 1.425656 1.425656 1.425656 1.425656 1.425656 1.425656 1.425656 1.425656 1.425656 1.425656 1.425656 1.425656 1.425656 1.425656 1.425656 1.425656 1.425656 1.425656 1.425656 1.425656 1.425656 1.425656 1.425656 1.425656 1.425656 1.425656 1.425656 1.42566 1.42565 1.42566 1.42565 1.42566 1.42566 1.42565 1.42566 1.42565 1.42566 1.42566 1.42565 1.42566 1.42565 1.42566 1.42566 1.42565 1.42566 1.42565 1.42566 1.42566 1.42565 1.42566 1.42565 1.42566 1.42566 1.42565 1.42566 1.42565 1.42566 1.42566 1.42565 1.42566 1.42565 1.42566 1.42566 1.42565 1.42566 1.42565 1.42566 1.42566 1.42565 1.42566 1.42565 1.42566 1.42566 1.42565 1.42566 1.42565 1.42566 1.42566 1.42565 1.42566 1.42565 1.42566 1.42566 1.42565 1.42566 1.42565 1.42566 1.42566 1.42565 1.42566 1.42565 1.42566 1.42566 1.42565 1.42566 1.42565 1.42566 1.42566 1.42565 1.42566 1.42565 1.42566 1.42566 1.42565 1.42566 1.42565 1.42566 1.42566 1.42565 1.42566 1.42565 1.42566 1.42566 1.42565 1.42566 1.42565 1.42566 1.42566 1.42565 1.42566 1.42565 1.42566 1.42566 1.42565 1.42566 1.42565 1.42566 1.42566 1.42565 1.42566 1.42565 1.42566 1.42566 1.42565 1.42566 1.42565 1.42566 1.42566 1.42565 1.42566 1.42565 1.42566 1.42566 1.42565 1.42566 1.42565 1.42566 1.42566 1.42565 1.42566 1.42565 1.42566 1.42566 1.42565 1.42566 1.42565 1.42566 1.42566 1.42565 1.42566 1.42565 1.42566 1.42566 1.42565 1.42566 1.42565 1.42566 1.42566 1.42565 1.42566 1.42565 1.42566 1.42566 1.42565 1.42566 1.42565 1.42566 1.42566 1.42565 1.42566 1.42565 1.42566 1.42566 1.42565 1.42566 1.42565 1.42566 1.42566 1.42565 1.42566 1.42565 1.42566 1.42566 1.42565 1.42566 1.42565 1.42566 1.42566 1.42565 1.42566 1.42565 1.42566 1.42566 1.42565 1.42566 1.42565 1.42566 1.42566 1.42565 1.42566 1.42565 1.42566 1.42566 m 0,0 1.48248,-0.26269 1.48249,-0.48032 2.96496,-1.35855 2.96497,-1.75925 2.96497,-2.08329 2.96497,-2.36304 2.96497,-2.61288 2.96497,-2.84077 2.96497,-3.05168 2.96497,-3.24888 2.96497,-3.43479 2.96497,-3.61111 2.96496,-3.77922 2.96497,-3.94016 2.96497,-4.09478 2.96497,-4.24375 2.96497,-4.38768 2.96497,-4.52703 2.96497,-4.66221 2.96497,-4.79359 2.96497,-4.92145 2.96497,-5.04607 2.96496,-5.1677 2.96497,-5.28653 2.96497,-5.40273 2.96497,-5.5165 2.96497,-5.62795 2.96497,-5.73726 2.96497,-5.84451 2.96497,-5.94983 2.96497,-6.05332 2.96497,-6.15507 2.96496,-6.25516 2.96497,-6.35368 2.96497,-6.45069 2.96497,-6.54626 2.96497,-6.64047 2.96497,-6.73334 2.96497,-6.82496 2.96497,-6.91537 2.96497,-7.0046 2.96497,-7.09271 2.96496,-7.17975 2.96497,-7.26574 2.96497,-7.35072 2.96497,-7.43474 2.96497,-7.51781 2.96497,-7.59997 2.96497,-7.68126 2.96497,-7.7617 2.96497,-7.84131 2.96497,-7.92012 2.96496,-7.99815 2.96497,-8.07543 2.96497,-8.15198 2.96497,-8.22782 2.96497,-8.30296 2.96497,-8.37742 2.96497,-8.45124 2.96497,-8.52441 2.96497,-8.59696 2.96497,-8.66891 2.96496,-8.74025 2.96497,-8.81103 2.96497,-8.88124 2.96497,-8.9509 2.96497,-9.02001 2.96497,-9.08862 2.96497,-9.15669 2.96497,-9.22427 2.96497,-9.29136 2.96497,-9.35797 2.96496,-9.4241 2.96497,-9.48977 2.96497,-9.555 2.96497,-9.61978 2.96497,-9.684127 2.96497,-9.748049 2.96497,-9.811556 2.96497,-9.874654 2.96497,-9.937351 2.96497,-9.999655 1.48248,-5.023071 1.48248,-5.038503 1.48249,-5.053887 1.48248,-5.069226 1.48249,-5.0845174 1.48248,-5.0997635 1.48249,-5.114964 1.48248,-5.1301195"
         stroke-opacity="0.698039"
         stroke-linecap="round"
         stroke-linejoin="round"
         stroke-miterlimit="10"
         stroke-width="2.5"
         id="path291" />
      <path
         fill="none"
         stroke="#993300"
         paint-order="fill stroke markers"
         d="m 0,573.56064 h 1.6100843 1.6100842 1.6100843 1.6100842 1.6100843 1.6100842 1.6100845 1.610084 1.610084 1.610085 1.610084 1.610084 1.610084 1.610085 1.610084 1.610084 1.610084 1.610085 1.610084 1.610084 1.610084 1.610085 1.610084 1.610084 1.610084 1.610085 1.610084 1.610084 1.610084 1.610085 1.610084 1.610084 1.610084 1.610085 1.610084 1.610084 1.610084 1.610085 1.610084 1.610084 1.610085 1.610084 1.610084 1.610084 1.610085 1.610084 1.610084 1.610084 1.610085 1.610084 1.610084 1.610084 1.610085 1.610084 1.610084 1.610084 1.610085 1.610084 1.610084 1.610084 1.610085 1.610084 1.610086 1.61008 1.61009 1.61008 1.61009 1.61008 1.61008 1.61009 1.61008 1.61009 1.61008 1.61008 1.61009 1.61008 1.61009 1.61008 1.61009 1.61008 1.61008 1.61009 1.61008 1.61009 1.61008 1.61009 1.61008 1.61008 1.61009 1.61008 1.61009 1.61008 1.61009 1.61008 1.61008 1.61009 1.61008 1.61009 1.61008 1.61009 1.61008 1.61008 1.61009 1.61008 1.61009 1.61008 1.61009 1.61008 1.61008 1.61009 1.61008 1.61009 1.61008 1.61009 1.61008 1.61008 1.61009 1.61008 1.61009 1.61008 1.61009 1.61008 1.61008 1.61009 1.61008 1.61009 1.61008 1.61008 1.61009 1.61008 1.61009 1.61008 1.61009 1.61008 1.61008 1.61009 1.61008 1.61009 1.61008 1.61009 1.61008 1.61008 1.61009 1.61008 1.61009 1.61008 1.61009 1.61008 1.61008 1.61009 1.61008 1.61009 1.61008 1.61009 1.61008 1.61008 1.61009 1.61008 1.61009 1.61008 1.61009 1.61008 1.61008 1.61009 1.61008 1.61009 1.61008 1.61009 1.61008 1.61008 1.61009 1.61008 1.61009 1.61008 1.61008 1.61009 1.61008 1.61009 1.61008 1.61009 1.61008 1.61008 1.61009 1.61008 1.61009 1.61008 1.61009 1.61008 1.61008 1.61009 1.61008 1.61009 1.61008 1.61009 1.61008 1.61008 1.61009 1.61008 1.61009 1.61008 1.61009 1.61008 1.61008 1.61009 1.61008 1.61009 1.61008 1.61009 1.61008 1.61008 1.61009 1.61008 1.61009 1.61008 1.61009 1.61008 1.61008 1.61009 1.61008 1.61009 1.61008 1.61008 1.61009 1.61008 1.61009 1.61008 1.61009 1.61008 1.61008 1.61009 1.61008 1.61009 1.61008 1.61009 1.61008 1.61008 1.61009 1.61008 1.61009 1.61008 1.61009 1.61008 1.61008 1.61009 1.61008 1.61009 1.61008 1.61009 1.61008 1.61008 1.61009 1.61008 1.61009 1.61008 1.61009 1.61008 m 0,0 1.39027,-0.23857 1.39027,-0.4362 2.78054,-1.23378 2.78054,-1.59769 2.78054,-1.89197 2.78054,-2.14602 2.78054,-2.37292 2.78054,-2.57989 2.78055,-2.77141 2.78054,-2.95052 2.78054,-3.11934 2.78054,-3.27948 2.78054,-3.43215 2.78054,-3.57831 2.78054,-3.71872 2.78054,-3.85402 2.78054,-3.98473 2.78054,-4.11127 2.78054,-4.23405 2.78054,-4.35336 2.78054,-4.46947 2.78055,-4.58266 2.78054,-4.69312 2.78054,-4.80102 2.78054,-4.90656 2.78054,-5.00987 2.78054,-5.11111 2.78054,-5.21036 2.78054,-5.30777 2.78054,-5.40341 2.78054,-5.4974 2.78054,-5.5898 2.78054,-5.68071 2.78054,-5.77017 2.78054,-5.85828 2.78055,-5.94507 2.78054,-6.03062 2.78054,-6.11497 2.78054,-6.19818 2.78054,-6.28027 2.78054,-6.36132 2.78054,-6.44134 2.78054,-6.52038 2.78054,-6.59847 2.78054,-6.67565 2.78054,-6.75195 2.78054,-6.8274 2.78054,-6.90201 2.78055,-6.97584 2.78054,-7.04888 2.78054,-7.12118 2.78054,-7.19276 2.78054,-7.26362 2.78054,-7.33381 2.78054,-7.40333 2.78054,-7.47219 2.78054,-7.54044 2.78054,-7.60806 2.78054,-7.6751 2.78054,-7.74155 2.78054,-7.80744 2.78054,-7.87278 2.78055,-7.93757 2.78054,-8.00185 2.78054,-8.06561 2.78054,-8.12887 2.78054,-8.19164 2.78054,-8.25394 2.78054,-8.31577 2.78054,-8.37714 2.78054,-8.43807 2.78054,-8.49855 2.78054,-8.55862 2.78054,-8.61826 2.78054,-8.67749 2.78055,-8.73633 2.78054,-8.79476 2.78054,-8.85281 2.78054,-8.91049 2.78054,-8.967795 2.78054,-9.024731 2.78054,-9.081314 2.78054,-9.137546 2.78054,-9.193433 2.78054,-9.248985 2.78054,-9.304202 2.78054,-9.359096 2.78054,-9.413668 2.78055,-9.467927 2.78054,-9.5218751 2.78054,-9.5755206 2.78054,-9.6288663"
         stroke-opacity="0.698039"
         stroke-linecap="round"
         stroke-linejoin="round"
         stroke-miterlimit="10"
         stroke-width="2.5"
         id="path293" />
    </g>
  </g>
</svg>
