<?xml version="1.0" encoding="UTF-8" standalone="no"?>
<!-- Created with Inkscape (http://www.inkscape.org/) -->

<svg
   width="131.48106mm"
   height="93.461014mm"
   viewBox="0 0 131.48106 93.461014"
   version="1.1"
   id="svg1"
   inkscape:version="1.4.2 (ebf0e940, 2025-05-08)"
   sodipodi:docname="prob-21-01-26_01.svg"
   xmlns:inkscape="http://www.inkscape.org/namespaces/inkscape"
   xmlns:sodipodi="http://sodipodi.sourceforge.net/DTD/sodipodi-0.dtd"
   xmlns="http://www.w3.org/2000/svg"
   xmlns:svg="http://www.w3.org/2000/svg"
   xmlns:ns1="http://www.iki.fi/pav/software/textext/">
  <sodipodi:namedview
     id="namedview1"
     pagecolor="#ffffff"
     bordercolor="#000000"
     borderopacity="0.25"
     inkscape:showpageshadow="2"
     inkscape:pageopacity="0.0"
     inkscape:pagecheckerboard="0"
     inkscape:deskcolor="#d1d1d1"
     inkscape:document-units="mm"
     inkscape:zoom="1"
     inkscape:cx="212.5"
     inkscape:cy="142.5"
     inkscape:window-width="1512"
     inkscape:window-height="921"
     inkscape:window-x="0"
     inkscape:window-y="33"
     inkscape:window-maximized="1"
     inkscape:current-layer="layer1" />
  <defs
     id="defs1" />
  <g
     inkscape:label="Layer 1"
     inkscape:groupmode="layer"
     id="layer1"
     transform="translate(-23.298182,-102.67289)">
    <ellipse
       style="fill:#0000ff;fill-opacity:0.424242;fill-rule:evenodd;stroke:#000000;stroke-width:0.5;stroke-linecap:round;stroke-linejoin:round;stroke-dasharray:1, 1;stroke-dashoffset:0"
       id="path1"
       cx="55.82708"
       cy="133.61458"
       rx="32.279167"
       ry="30.691666" />
    <ellipse
       style="fill:#008080;fill-opacity:0.424242;fill-rule:evenodd;stroke:#000000;stroke-width:0.5;stroke-linecap:round;stroke-linejoin:round;stroke-dasharray:1, 1;stroke-dashoffset:0"
       id="ellipse1"
       cx="108.29977"
       cy="151.92783"
       rx="46.229485"
       ry="43.955902" />
    <circle
       style="fill:#ff0000;fill-opacity:0.367713;fill-rule:evenodd;stroke:#000000;stroke-width:0.503086;stroke-linecap:round;stroke-linejoin:round;stroke-dasharray:1.00617, 1.00617;stroke-dashoffset:0"
       id="path3"
       cx="78.398277"
       cy="131.80704"
       r="7.9865036" />
    <g
       transform="matrix(0.705556,0,0,0.705556,77.075557,134.88045)"
       ns1:version="1.10.2"
       ns1:texconverter="pdflatex"
       ns1:pdfconverter="inkscape"
       ns1:text="$\\mathbf{x}$"
       ns1:preamble="/Users/sachchidanandprasad/Library/Application Support/org.inkscape.Inkscape/config/inkscape/extensions/textext/default_packages.tex"
       ns1:scale="2.0"
       ns1:alignment="middle center"
       ns1:stroke-to-path="0"
       ns1:jacobian_sqrt="0.705556"
       id="g3">
      <defs
         id="id-5649df2f-5fc6-41df-bf32-3d3303f72a6f">
        <g
           id="id-0f34f65d-0454-4b80-9e1d-c17bcee06d99">
          <g
             id="id-c42df31c-6820-40a1-b076-e61e9626db3e">
            <path
               d="M 3.453125,-2.453125 4.609375,-3.75 C 4.75,-3.890625 4.8125,-3.953125 5.625,-3.953125 v -0.46875 c -0.34375,0.015625 -0.859375,0.03125 -0.90625,0.03125 -0.25,0 -0.75,-0.03125 -1.03125,-0.03125 v 0.46875 c 0.140625,0 0.265625,0.015625 0.375,0.078125 -0.03125,0.0625 -0.03125,0.09375 -0.078125,0.125 L 3.15625,-2.8125 2.171875,-3.953125 h 0.40625 v -0.46875 c -0.265625,0 -0.890625,0.03125 -1.21875,0.03125 -0.3125,0 -0.765625,-0.03125 -1.09375,-0.03125 v 0.46875 h 0.71875 L 2.53125,-2.125 1.21875,-0.65625 c -0.15625,0.1875 -0.515625,0.1875 -1,0.1875 V 0 c 0.34375,-0.015625 0.875,-0.03125 0.921875,-0.03125 0.25,0 0.828125,0.015625 1.015625,0.03125 v -0.46875 c -0.171875,0 -0.359375,-0.046875 -0.359375,-0.109375 0,-0.015625 0,-0.015625 0.0625,-0.09375 l 0.96875,-1.09375 1.09375,1.296875 H 3.53125 V 0 c 0.265625,-0.015625 0.875,-0.03125 1.203125,-0.03125 0.3125,0 0.765625,0.015625 1.09375,0.03125 V -0.46875 H 5.125 Z m 0,0"
               id="id-cc268749-667a-4d1e-bad1-7daf810d0d17" />
          </g>
        </g>
      </defs>
      <g
         fill="#000000"
         fill-opacity="1"
         id="id-17225792-c2b7-47c4-a3fd-79d5bbb3472a"
         transform="translate(-148.931,-130.343)">
        <g
           transform="translate(148.712,134.765)"
           id="g2">
          <path
             d="M 3.453125,-2.453125 4.609375,-3.75 C 4.75,-3.890625 4.8125,-3.953125 5.625,-3.953125 v -0.46875 c -0.34375,0.015625 -0.859375,0.03125 -0.90625,0.03125 -0.25,0 -0.75,-0.03125 -1.03125,-0.03125 v 0.46875 c 0.140625,0 0.265625,0.015625 0.375,0.078125 -0.03125,0.0625 -0.03125,0.09375 -0.078125,0.125 L 3.15625,-2.8125 2.171875,-3.953125 h 0.40625 v -0.46875 c -0.265625,0 -0.890625,0.03125 -1.21875,0.03125 -0.3125,0 -0.765625,-0.03125 -1.09375,-0.03125 v 0.46875 h 0.71875 L 2.53125,-2.125 1.21875,-0.65625 c -0.15625,0.1875 -0.515625,0.1875 -1,0.1875 V 0 c 0.34375,-0.015625 0.875,-0.03125 0.921875,-0.03125 0.25,0 0.828125,0.015625 1.015625,0.03125 v -0.46875 c -0.171875,0 -0.359375,-0.046875 -0.359375,-0.109375 0,-0.015625 0,-0.015625 0.0625,-0.09375 l 0.96875,-1.09375 1.09375,1.296875 H 3.53125 V 0 c 0.265625,-0.015625 0.875,-0.03125 1.203125,-0.03125 0.3125,0 0.765625,0.015625 1.09375,0.03125 V -0.46875 H 5.125 Z m 0,0"
             id="id-bf5a28a1-cce4-4f65-956b-ad396cb24790" />
        </g>
      </g>
    </g>
    <circle
       id="circle3"
       style="fill:#000000;fill-opacity:1;stroke:none;stroke-width:2.14522"
       cx="55.827213"
       cy="133.61282"
       r="1.4301493" />
    <circle
       id="circle4"
       style="fill:#000000;fill-opacity:1;stroke:none;stroke-width:2.14522"
       cx="109.72991"
       cy="151.92783"
       r="1.4301493" />
    <path
       style="fill:none;fill-opacity:0.367713;fill-rule:evenodd;stroke:#000000;stroke-width:0.499999;stroke-linecap:round;stroke-linejoin:round;stroke-dasharray:1, 1;stroke-dashoffset:0"
       d="m 71.790814,127.32087 37.939096,24.60696"
       id="path9"
       sodipodi:nodetypes="cc" />
    <path
       style="fill:none;fill-opacity:0.367713;fill-rule:evenodd;stroke:#000000;stroke-width:0.499999;stroke-linecap:round;stroke-linejoin:round;stroke-dasharray:1, 1;stroke-dashoffset:0"
       d="m 55.82708,133.61458 30.511159,-2.6685"
       id="path4"
       sodipodi:nodetypes="cc" />
    <circle
       id="path2"
       style="fill:#ff0000;fill-opacity:1;stroke:none;stroke-width:2.14522"
       cx="78.644875"
       cy="131.6534"
       r="1.4301493" />
    <g
       transform="matrix(0.705556,0,0,0.705556,52.932709,136.71788)"
       ns1:version="1.10.2"
       ns1:texconverter="pdflatex"
       ns1:pdfconverter="inkscape"
       ns1:text="$\\mathbf{x}_1$"
       ns1:preamble="/Users/sachchidanandprasad/Library/Application Support/org.inkscape.Inkscape/config/inkscape/extensions/textext/default_packages.tex"
       ns1:scale="2.0"
       ns1:alignment="middle center"
       ns1:stroke-to-path="0"
       ns1:jacobian_sqrt="0.705556"
       id="g6">
      <defs
         id="id-a1ccbab2-5ca5-4e1c-bf6d-8913a20837d7">
        <g
           id="id-97fe664b-bf39-43cb-a53b-32cadc94b618">
          <g
             id="id-83d160e4-bd3f-4172-aa6c-c699cf2ec7d5">
            <path
               d="M 3.453125,-2.453125 4.609375,-3.75 C 4.75,-3.890625 4.8125,-3.953125 5.625,-3.953125 v -0.46875 c -0.34375,0.015625 -0.859375,0.03125 -0.90625,0.03125 -0.25,0 -0.75,-0.03125 -1.03125,-0.03125 v 0.46875 c 0.140625,0 0.265625,0.015625 0.375,0.078125 -0.03125,0.0625 -0.03125,0.09375 -0.078125,0.125 L 3.15625,-2.8125 2.171875,-3.953125 h 0.40625 v -0.46875 c -0.265625,0 -0.890625,0.03125 -1.21875,0.03125 -0.3125,0 -0.765625,-0.03125 -1.09375,-0.03125 v 0.46875 h 0.71875 L 2.53125,-2.125 1.21875,-0.65625 c -0.15625,0.1875 -0.515625,0.1875 -1,0.1875 V 0 c 0.34375,-0.015625 0.875,-0.03125 0.921875,-0.03125 0.25,0 0.828125,0.015625 1.015625,0.03125 v -0.46875 c -0.171875,0 -0.359375,-0.046875 -0.359375,-0.109375 0,-0.015625 0,-0.015625 0.0625,-0.09375 l 0.96875,-1.09375 1.09375,1.296875 H 3.53125 V 0 c 0.265625,-0.015625 0.875,-0.03125 1.203125,-0.03125 0.3125,0 0.765625,0.015625 1.09375,0.03125 V -0.46875 H 5.125 Z m 0,0"
               id="id-ef9ad34b-6132-4fde-b4af-4f0404402a07" />
          </g>
          <g
             id="id-11a1f504-ba20-4c34-bc90-344d056eef19">
            <path
               d="m 2.328125,-4.4375 c 0,-0.1875 0,-0.1875 -0.203125,-0.1875 -0.453125,0.4375 -1.078125,0.4375 -1.359375,0.4375 v 0.25 c 0.15625,0 0.625,0 1,-0.1875 v 3.546875 c 0,0.234375 0,0.328125 -0.6875,0.328125 H 0.8125 V 0 c 0.125,0 0.984375,-0.03125 1.234375,-0.03125 0.21875,0 1.09375,0.03125 1.25,0.03125 V -0.25 H 3.03125 c -0.703125,0 -0.703125,-0.09375 -0.703125,-0.328125 z m 0,0"
               id="id-17afafb3-fa2e-4ba8-b194-dcae57689b54" />
          </g>
        </g>
      </defs>
      <g
         fill="#000000"
         fill-opacity="1"
         id="id-6588bfd7-3433-4fea-ba54-16cc3b0ef321"
         transform="translate(-148.931,-130.343)">
        <g
           transform="translate(148.712,134.765)"
           id="g4">
          <path
             d="M 3.453125,-2.453125 4.609375,-3.75 C 4.75,-3.890625 4.8125,-3.953125 5.625,-3.953125 v -0.46875 c -0.34375,0.015625 -0.859375,0.03125 -0.90625,0.03125 -0.25,0 -0.75,-0.03125 -1.03125,-0.03125 v 0.46875 c 0.140625,0 0.265625,0.015625 0.375,0.078125 -0.03125,0.0625 -0.03125,0.09375 -0.078125,0.125 L 3.15625,-2.8125 2.171875,-3.953125 h 0.40625 v -0.46875 c -0.265625,0 -0.890625,0.03125 -1.21875,0.03125 -0.3125,0 -0.765625,-0.03125 -1.09375,-0.03125 v 0.46875 h 0.71875 L 2.53125,-2.125 1.21875,-0.65625 c -0.15625,0.1875 -0.515625,0.1875 -1,0.1875 V 0 c 0.34375,-0.015625 0.875,-0.03125 0.921875,-0.03125 0.25,0 0.828125,0.015625 1.015625,0.03125 v -0.46875 c -0.171875,0 -0.359375,-0.046875 -0.359375,-0.109375 0,-0.015625 0,-0.015625 0.0625,-0.09375 l 0.96875,-1.09375 1.09375,1.296875 H 3.53125 V 0 c 0.265625,-0.015625 0.875,-0.03125 1.203125,-0.03125 0.3125,0 0.765625,0.015625 1.09375,0.03125 V -0.46875 H 5.125 Z m 0,0"
             id="id-5786ee2b-154d-4ecc-a295-1aa286c78a0e" />
        </g>
      </g>
      <g
         fill="#000000"
         fill-opacity="1"
         id="id-94499ab9-4bbb-42bd-bd43-19a19329c98b"
         transform="translate(-148.931,-130.343)">
        <g
           transform="translate(154.759,136.259)"
           id="g5">
          <path
             d="m 2.328125,-4.4375 c 0,-0.1875 0,-0.1875 -0.203125,-0.1875 -0.453125,0.4375 -1.078125,0.4375 -1.359375,0.4375 v 0.25 c 0.15625,0 0.625,0 1,-0.1875 v 3.546875 c 0,0.234375 0,0.328125 -0.6875,0.328125 H 0.8125 V 0 c 0.125,0 0.984375,-0.03125 1.234375,-0.03125 0.21875,0 1.09375,0.03125 1.25,0.03125 V -0.25 H 3.03125 c -0.703125,0 -0.703125,-0.09375 -0.703125,-0.328125 z m 0,0"
             id="id-221118ae-cdf6-48e8-b48a-57105cfe3614" />
        </g>
      </g>
    </g>
    <g
       transform="matrix(0.705556,0,0,0.705556,106.62567,156.05228)"
       ns1:version="1.10.2"
       ns1:texconverter="pdflatex"
       ns1:pdfconverter="inkscape"
       ns1:text="$\\mathbf{x}_2$"
       ns1:preamble="/Users/sachchidanandprasad/Library/Application Support/org.inkscape.Inkscape/config/inkscape/extensions/textext/default_packages.tex"
       ns1:scale="2.0"
       ns1:alignment="middle center"
       ns1:stroke-to-path="0"
       ns1:jacobian_sqrt="0.705556"
       id="g9">
      <defs
         id="id-39ba8442-2539-4dd5-be0d-884cc21c9609">
        <g
           id="id-5e41d79b-186b-4bdf-a94b-124cb0f6d2dc">
          <g
             id="id-67879174-824a-45f1-a794-5e4bc83a1430">
            <path
               d="M 3.453125,-2.453125 4.609375,-3.75 C 4.75,-3.890625 4.8125,-3.953125 5.625,-3.953125 v -0.46875 c -0.34375,0.015625 -0.859375,0.03125 -0.90625,0.03125 -0.25,0 -0.75,-0.03125 -1.03125,-0.03125 v 0.46875 c 0.140625,0 0.265625,0.015625 0.375,0.078125 -0.03125,0.0625 -0.03125,0.09375 -0.078125,0.125 L 3.15625,-2.8125 2.171875,-3.953125 h 0.40625 v -0.46875 c -0.265625,0 -0.890625,0.03125 -1.21875,0.03125 -0.3125,0 -0.765625,-0.03125 -1.09375,-0.03125 v 0.46875 h 0.71875 L 2.53125,-2.125 1.21875,-0.65625 c -0.15625,0.1875 -0.515625,0.1875 -1,0.1875 V 0 c 0.34375,-0.015625 0.875,-0.03125 0.921875,-0.03125 0.25,0 0.828125,0.015625 1.015625,0.03125 v -0.46875 c -0.171875,0 -0.359375,-0.046875 -0.359375,-0.109375 0,-0.015625 0,-0.015625 0.0625,-0.09375 l 0.96875,-1.09375 1.09375,1.296875 H 3.53125 V 0 c 0.265625,-0.015625 0.875,-0.03125 1.203125,-0.03125 0.3125,0 0.765625,0.015625 1.09375,0.03125 V -0.46875 H 5.125 Z m 0,0"
               id="id-c9b59c97-913d-4cc2-a414-d6902af97f0d" />
          </g>
          <g
             id="id-751e20f0-8c8f-426b-a3d9-ba52f4447a61">
            <path
               d="M 3.515625,-1.265625 H 3.28125 c -0.015625,0.15625 -0.09375,0.5625 -0.1875,0.625 C 3.046875,-0.59375 2.515625,-0.59375 2.40625,-0.59375 H 1.125 c 0.734375,-0.640625 0.984375,-0.84375 1.390625,-1.171875 0.515625,-0.40625 1,-0.84375 1,-1.5 0,-0.84375 -0.734375,-1.359375 -1.625,-1.359375 -0.859375,0 -1.453125,0.609375 -1.453125,1.25 0,0.34375 0.296875,0.390625 0.375,0.390625 0.15625,0 0.359375,-0.125 0.359375,-0.375 0,-0.125 -0.046875,-0.375 -0.40625,-0.375 C 0.984375,-4.21875 1.453125,-4.375 1.78125,-4.375 c 0.703125,0 1.0625,0.546875 1.0625,1.109375 0,0.609375 -0.4375,1.078125 -0.65625,1.328125 L 0.515625,-0.265625 C 0.4375,-0.203125 0.4375,-0.1875 0.4375,0 h 2.875 z m 0,0"
               id="id-b8dedc92-b4b7-4836-ac44-a56d3c444b7e" />
          </g>
        </g>
      </defs>
      <g
         fill="#000000"
         fill-opacity="1"
         id="id-f75ad213-d897-4dfa-ad95-c3bafbcb3dd8"
         transform="translate(-148.931,-130.343)">
        <g
           transform="translate(148.712,134.765)"
           id="g7">
          <path
             d="M 3.453125,-2.453125 4.609375,-3.75 C 4.75,-3.890625 4.8125,-3.953125 5.625,-3.953125 v -0.46875 c -0.34375,0.015625 -0.859375,0.03125 -0.90625,0.03125 -0.25,0 -0.75,-0.03125 -1.03125,-0.03125 v 0.46875 c 0.140625,0 0.265625,0.015625 0.375,0.078125 -0.03125,0.0625 -0.03125,0.09375 -0.078125,0.125 L 3.15625,-2.8125 2.171875,-3.953125 h 0.40625 v -0.46875 c -0.265625,0 -0.890625,0.03125 -1.21875,0.03125 -0.3125,0 -0.765625,-0.03125 -1.09375,-0.03125 v 0.46875 h 0.71875 L 2.53125,-2.125 1.21875,-0.65625 c -0.15625,0.1875 -0.515625,0.1875 -1,0.1875 V 0 c 0.34375,-0.015625 0.875,-0.03125 0.921875,-0.03125 0.25,0 0.828125,0.015625 1.015625,0.03125 v -0.46875 c -0.171875,0 -0.359375,-0.046875 -0.359375,-0.109375 0,-0.015625 0,-0.015625 0.0625,-0.09375 l 0.96875,-1.09375 1.09375,1.296875 H 3.53125 V 0 c 0.265625,-0.015625 0.875,-0.03125 1.203125,-0.03125 0.3125,0 0.765625,0.015625 1.09375,0.03125 V -0.46875 H 5.125 Z m 0,0"
             id="id-d245076f-64cc-4ac5-866f-c8ceb7c087d3" />
        </g>
      </g>
      <g
         fill="#000000"
         fill-opacity="1"
         id="id-14eb9fca-46af-4e95-9ed0-b51e84e32953"
         transform="translate(-148.931,-130.343)">
        <g
           transform="translate(154.759,136.259)"
           id="g8">
          <path
             d="M 3.515625,-1.265625 H 3.28125 c -0.015625,0.15625 -0.09375,0.5625 -0.1875,0.625 C 3.046875,-0.59375 2.515625,-0.59375 2.40625,-0.59375 H 1.125 c 0.734375,-0.640625 0.984375,-0.84375 1.390625,-1.171875 0.515625,-0.40625 1,-0.84375 1,-1.5 0,-0.84375 -0.734375,-1.359375 -1.625,-1.359375 -0.859375,0 -1.453125,0.609375 -1.453125,1.25 0,0.34375 0.296875,0.390625 0.375,0.390625 0.15625,0 0.359375,-0.125 0.359375,-0.375 0,-0.125 -0.046875,-0.375 -0.40625,-0.375 C 0.984375,-4.21875 1.453125,-4.375 1.78125,-4.375 c 0.703125,0 1.0625,0.546875 1.0625,1.109375 0,0.609375 -0.4375,1.078125 -0.65625,1.328125 L 0.515625,-0.265625 C 0.4375,-0.203125 0.4375,-0.1875 0.4375,0 h 2.875 z m 0,0"
             id="id-8285c660-51c6-4d62-9d09-f58adbccd443" />
        </g>
      </g>
    </g>
    <g
       transform="matrix(0.352778,0,0,0.352778,82.592636,128.80964)"
       ns1:version="1.10.2"
       ns1:texconverter="pdflatex"
       ns1:pdfconverter="inkscape"
       ns1:text="$r$"
       ns1:preamble="/Users/sachchidanandprasad/Library/Application Support/org.inkscape.Inkscape/config/inkscape/extensions/textext/default_packages.tex"
       ns1:scale="1.0"
       ns1:alignment="middle center"
       ns1:stroke-to-path="0"
       ns1:jacobian_sqrt="0.352778"
       id="g11">
      <defs
         id="id-7ec1c919-7eba-49dd-84bd-485b1b919b76">
        <g
           id="id-952dd86d-da87-43a2-b989-b0c7e1bb807b">
          <g
             id="id-73ba2463-3e18-43a6-b07f-1689bba1bc60">
            <path
               d="m 0.875,-0.59375 c -0.03125,0.15625 -0.09375,0.390625 -0.09375,0.4375 0,0.171875 0.140625,0.265625 0.296875,0.265625 0.125,0 0.296875,-0.078125 0.375,-0.28125 C 1.46875,-0.203125 1.796875,-1.5625 1.84375,-1.75 c 0.078125,-0.328125 0.265625,-1.015625 0.3125,-1.296875 0.046875,-0.125 0.328125,-0.59375 0.5625,-0.8125 0.078125,-0.0625 0.375,-0.328125 0.796875,-0.328125 0.265625,0 0.40625,0.125 0.421875,0.125 -0.296875,0.046875 -0.515625,0.28125 -0.515625,0.546875 0,0.15625 0.109375,0.34375 0.375,0.34375 0.265625,0 0.546875,-0.234375 0.546875,-0.59375 0,-0.34375 -0.3125,-0.640625 -0.828125,-0.640625 C 2.875,-4.40625 2.4375,-3.921875 2.25,-3.640625 2.15625,-4.09375 1.796875,-4.40625 1.328125,-4.40625 0.875,-4.40625 0.6875,-4.015625 0.59375,-3.84375 0.421875,-3.5 0.296875,-2.90625 0.296875,-2.875 c 0,0.109375 0.09375,0.109375 0.109375,0.109375 0.109375,0 0.109375,-0.015625 0.171875,-0.234375 0.171875,-0.703125 0.375,-1.1875 0.734375,-1.1875 0.15625,0 0.296875,0.078125 0.296875,0.453125 0,0.21875 -0.03125,0.328125 -0.15625,0.84375 z m 0,0"
               id="id-b7208c13-8c78-468f-a786-70af42f7440d" />
          </g>
        </g>
      </defs>
      <g
         fill="#000000"
         fill-opacity="1"
         id="id-da84ade3-fccb-448a-a13e-69594e24e3cc"
         transform="translate(-149.009,-130.359)">
        <g
           transform="translate(148.712,134.765)"
           id="g10">
          <path
             d="m 0.875,-0.59375 c -0.03125,0.15625 -0.09375,0.390625 -0.09375,0.4375 0,0.171875 0.140625,0.265625 0.296875,0.265625 0.125,0 0.296875,-0.078125 0.375,-0.28125 C 1.46875,-0.203125 1.796875,-1.5625 1.84375,-1.75 c 0.078125,-0.328125 0.265625,-1.015625 0.3125,-1.296875 0.046875,-0.125 0.328125,-0.59375 0.5625,-0.8125 0.078125,-0.0625 0.375,-0.328125 0.796875,-0.328125 0.265625,0 0.40625,0.125 0.421875,0.125 -0.296875,0.046875 -0.515625,0.28125 -0.515625,0.546875 0,0.15625 0.109375,0.34375 0.375,0.34375 0.265625,0 0.546875,-0.234375 0.546875,-0.59375 0,-0.34375 -0.3125,-0.640625 -0.828125,-0.640625 C 2.875,-4.40625 2.4375,-3.921875 2.25,-3.640625 2.15625,-4.09375 1.796875,-4.40625 1.328125,-4.40625 0.875,-4.40625 0.6875,-4.015625 0.59375,-3.84375 0.421875,-3.5 0.296875,-2.90625 0.296875,-2.875 c 0,0.109375 0.09375,0.109375 0.109375,0.109375 0.109375,0 0.109375,-0.015625 0.171875,-0.234375 0.171875,-0.703125 0.375,-1.1875 0.734375,-1.1875 0.15625,0 0.296875,0.078125 0.296875,0.453125 0,0.21875 -0.03125,0.328125 -0.15625,0.84375 z m 0,0"
             id="id-a6c62c7b-8032-4b31-85bd-ab1444257c24" />
        </g>
      </g>
    </g>
    <g
       transform="matrix(0.352778,0,0,0.352778,74.877894,127.07096)"
       ns1:version="1.10.2"
       ns1:texconverter="pdflatex"
       ns1:pdfconverter="inkscape"
       ns1:text="$s$"
       ns1:preamble="/Users/sachchidanandprasad/Library/Application Support/org.inkscape.Inkscape/config/inkscape/extensions/textext/default_packages.tex"
       ns1:scale="1.0"
       ns1:alignment="middle center"
       ns1:stroke-to-path="0"
       ns1:jacobian_sqrt="0.352778"
       id="g13">
      <defs
         id="id-76af7091-7929-47c2-bfaa-bd78549dc9c2">
        <g
           id="id-c3c48bd6-5305-4629-b439-85081922d6b5">
          <g
             id="id-02c82a80-af58-4d47-a0da-2b29a559782c">
            <path
               d="M 3.890625,-3.734375 C 3.625,-3.71875 3.421875,-3.5 3.421875,-3.28125 c 0,0.140625 0.09375,0.296875 0.3125,0.296875 0.21875,0 0.453125,-0.171875 0.453125,-0.5625 C 4.1875,-4 3.765625,-4.40625 3,-4.40625 c -1.3125,0 -1.6875,1.015625 -1.6875,1.453125 0,0.78125 0.734375,0.921875 1.03125,0.984375 0.515625,0.109375 1.03125,0.21875 1.03125,0.765625 0,0.25 -0.21875,1.09375 -1.421875,1.09375 -0.140625,0 -0.90625,0 -1.140625,-0.53125 0.390625,0.046875 0.640625,-0.25 0.640625,-0.53125 0,-0.21875 -0.171875,-0.34375 -0.375,-0.34375 -0.265625,0 -0.5625,0.203125 -0.5625,0.65625 0,0.5625 0.578125,0.96875 1.421875,0.96875 1.625,0 2.015625,-1.203125 2.015625,-1.65625 0,-0.359375 -0.1875,-0.609375 -0.3125,-0.71875 -0.265625,-0.28125 -0.5625,-0.34375 -1,-0.421875 -0.359375,-0.078125 -0.75,-0.15625 -0.75,-0.609375 C 1.890625,-3.578125 2.125,-4.1875 3,-4.1875 c 0.25,0 0.75,0.078125 0.890625,0.453125 z m 0,0"
               id="id-9062a9cd-8ba5-412b-90ec-534f29360cbc" />
          </g>
        </g>
      </defs>
      <g
         fill="#000000"
         fill-opacity="1"
         id="id-b875f436-6a30-4509-9fca-0c277fad8c2e"
         transform="translate(-149.228,-130.359)">
        <g
           transform="translate(148.712,134.765)"
           id="g12">
          <path
             d="M 3.890625,-3.734375 C 3.625,-3.71875 3.421875,-3.5 3.421875,-3.28125 c 0,0.140625 0.09375,0.296875 0.3125,0.296875 0.21875,0 0.453125,-0.171875 0.453125,-0.5625 C 4.1875,-4 3.765625,-4.40625 3,-4.40625 c -1.3125,0 -1.6875,1.015625 -1.6875,1.453125 0,0.78125 0.734375,0.921875 1.03125,0.984375 0.515625,0.109375 1.03125,0.21875 1.03125,0.765625 0,0.25 -0.21875,1.09375 -1.421875,1.09375 -0.140625,0 -0.90625,0 -1.140625,-0.53125 0.390625,0.046875 0.640625,-0.25 0.640625,-0.53125 0,-0.21875 -0.171875,-0.34375 -0.375,-0.34375 -0.265625,0 -0.5625,0.203125 -0.5625,0.65625 0,0.5625 0.578125,0.96875 1.421875,0.96875 1.625,0 2.015625,-1.203125 2.015625,-1.65625 0,-0.359375 -0.1875,-0.609375 -0.3125,-0.71875 -0.265625,-0.28125 -0.5625,-0.34375 -1,-0.421875 -0.359375,-0.078125 -0.75,-0.15625 -0.75,-0.609375 C 1.890625,-3.578125 2.125,-4.1875 3,-4.1875 c 0.25,0 0.75,0.078125 0.890625,0.453125 z m 0,0"
             id="id-db77a21e-7d05-4f82-91b7-2e6f5b61cf49" />
        </g>
      </g>
    </g>
  </g>
</svg>
