<?xml version="1.0" encoding="UTF-8" standalone="no"?>
<!-- Created with Inkscape (http://www.inkscape.org/) -->

<svg
   width="239.62025mm"
   height="114.27731mm"
   viewBox="0 0 239.62025 114.27731"
   version="1.1"
   id="svg1"
   inkscape:version="1.4 (e7c3feb1, 2024-10-09)"
   sodipodi:docname="prob-05-06-25_01.svg"
   xmlns:inkscape="http://www.inkscape.org/namespaces/inkscape"
   xmlns:sodipodi="http://sodipodi.sourceforge.net/DTD/sodipodi-0.dtd"
   xmlns:xlink="http://www.w3.org/1999/xlink"
   xmlns="http://www.w3.org/2000/svg"
   xmlns:svg="http://www.w3.org/2000/svg"
   xmlns:ns1="http://www.iki.fi/pav/software/textext/">
  <sodipodi:namedview
     id="namedview1"
     pagecolor="#ffffff"
     bordercolor="#000000"
     borderopacity="0.25"
     inkscape:showpageshadow="2"
     inkscape:pageopacity="0.0"
     inkscape:pagecheckerboard="0"
     inkscape:deskcolor="#d1d1d1"
     inkscape:document-units="mm"
     inkscape:zoom="11.028996"
     inkscape:cx="745.80681"
     inkscape:cy="143.44008"
     inkscape:window-width="1512"
     inkscape:window-height="916"
     inkscape:window-x="0"
     inkscape:window-y="38"
     inkscape:window-maximized="1"
     inkscape:current-layer="svg1" />
  <defs
     id="defs1">
    <marker
       style="overflow:visible"
       id="ArrowWideRounded"
       refX="0"
       refY="0"
       orient="auto-start-reverse"
       inkscape:stockid="Wide, rounded arrow"
       markerWidth="1"
       markerHeight="1"
       viewBox="0 0 1 1"
       inkscape:isstock="true"
       inkscape:collect="always"
       preserveAspectRatio="xMidYMid">
      <path
         style="fill:none;stroke:context-stroke;stroke-width:1;stroke-linecap:round"
         d="M 3,-3 0,0 3,3"
         transform="rotate(180,0.125,0)"
         sodipodi:nodetypes="ccc"
         id="path2" />
    </marker>
    <marker
       style="overflow:visible"
       id="ArrowWide"
       refX="0"
       refY="0"
       orient="auto-start-reverse"
       inkscape:stockid="Wide arrow"
       markerWidth="1"
       markerHeight="1"
       viewBox="0 0 1 1"
       inkscape:isstock="true"
       inkscape:collect="always"
       preserveAspectRatio="xMidYMid">
      <path
         style="fill:none;stroke:context-stroke;stroke-width:1;stroke-linecap:butt"
         d="M 3,-3 0,0 3,3"
         transform="rotate(180,0.125,0)"
         sodipodi:nodetypes="ccc"
         id="path1-2" />
    </marker>
    <symbol
       id="math_diagram_symbols.svg:coordinateAxis">
      <title
         id="title2">math_diagram_symbols.svg:coordinateAxis_inkscape_duplicate</title>
      <path
         style="fill:none;fill-rule:evenodd;stroke:#000000;stroke-width:2;stroke-dasharray:none;marker-end:url(#ArrowWide)"
         d="M 215.47855,431.91422 V 1.9142136"
         id="path4" />
      <path
         style="fill:none;fill-rule:evenodd;stroke:#000000;stroke-width:2;stroke-dasharray:none;marker-end:url(#ArrowWide)"
         d="M 0,216.43566 H 430"
         id="path5" />
    </symbol>
    <defs
       id="id-e748f665-6ae7-4d73-9a65-14572e79d4d2">
      <g
         id="id-26657dc4-b818-4535-b769-5dd8469fb427">
        <g
           id="id-2289f352-29e9-461c-9442-67a73983c100">
          <path
             d="M 3.671875,-3.640625 C 3.703125,-4.015625 3.75,-4.34375 3.828125,-4.75 3.71875,-4.796875 3.671875,-4.8125 3.625,-4.8125 c -0.3125,0 -0.609375,0.25 -0.96875,0.75 L 2.375,-3.671875 c -0.375,0.5625 -0.5,0.765625 -0.65625,1.125 l 0.078125,-0.40625 C 1.828125,-3.1875 1.90625,-3.59375 1.96875,-3.8125 l 0.0625,-0.25 c 0.046875,-0.171875 0.0625,-0.296875 0.0625,-0.421875 0,-0.203125 -0.078125,-0.328125 -0.234375,-0.328125 -0.203125,0 -0.578125,0.21875 -1.328125,0.75 l -0.265625,0.1875 0.0625,0.203125 0.3125,-0.203125 C 0.921875,-4.0625 1.03125,-4.109375 1.125,-4.109375 c 0.09375,0 0.171875,0.09375 0.171875,0.21875 C 1.296875,-3.3125 0.875,-1.25 0.46875,0.015625 L 0.5625,0.09375 C 0.71875,0.046875 0.875,0.015625 1.109375,-0.046875 L 1.234375,-0.0625 1.5,-1.25 c 0.171875,-0.828125 0.40625,-1.359375 0.84375,-1.9375 0.34375,-0.4375 0.609375,-0.640625 0.828125,-0.640625 0.140625,0 0.25,0.046875 0.359375,0.1875 z m 0,0"
             id="id-6297e52a-da2a-40b4-888c-ceb12c5527ea" />
        </g>
        <g
           id="id-e6ab54e9-1031-4ab1-a95d-56616ec14e5d">
          <path
             d="m 2.40625,-5.390625 c -0.328125,0 -0.65625,0.15625 -1.015625,0.5 C 0.71875,-4.25 0.21875,-3.09375 0.21875,-1.703125 c 0,1.203125 0.25,1.78125 0.875,1.78125 0.40625,0 0.875,-0.28125 1.234375,-0.734375 C 2.84375,-1.3125 3.3125,-2.5625 3.3125,-3.703125 c 0,-1.0625 -0.28125,-1.6875 -0.90625,-1.6875 z M 1.75,-2.5 c 0.515625,0 0.734375,0.015625 0.859375,0.078125 -0.171875,0.765625 -0.453125,1.453125 -0.6875,1.84375 -0.15625,0.234375 -0.359375,0.375 -0.59375,0.375 -0.453125,0 -0.53125,-0.578125 -0.53125,-1.484375 0,-0.234375 0.015625,-0.484375 0.046875,-0.71875 C 1.015625,-2.484375 1.21875,-2.5 1.75,-2.5 Z m 0.46875,-2.59375 c 0.46875,0 0.515625,0.609375 0.515625,1.5625 0,0.203125 -0.015625,0.421875 -0.046875,0.640625 C 2.53125,-2.84375 2.296875,-2.8125 1.796875,-2.8125 1.28125,-2.8125 1.0625,-2.84375 0.9375,-2.890625 1.125,-3.796875 1.484375,-4.609375 1.75,-4.921875 1.859375,-5.046875 2.03125,-5.09375 2.21875,-5.09375 Z m 0,0"
             id="id-f1454618-d6cb-4472-803a-c8e52b37a241" />
        </g>
      </g>
    </defs>
  </defs>
  <g
     inkscape:label="Layer 1"
     inkscape:groupmode="layer"
     id="layer1"
     transform="translate(10.307402,-28.057182)">
    <use
       xlink:href="#math_diagram_symbols.svg:coordinateAxis"
       id="use2"
       transform="matrix(0.26458333,0,0,0.26458333,-10.307402,28.057182)" />
    <g
       id="g36">
      <path
         d="m 71.5405,85.1958 c 0,6.8225 -2.765,12.9993 -7.2355,17.4702 -4.4711,4.472 -10.6481,7.239 -17.4713,7.239 h -0.0025 c -6.8216,0 -12.9975,-2.764 -17.4688,-7.234 C 24.8901,98.2007 22.1233,92.0239 22.122,85.2008 v -0.005 c 0,-6.5533 2.6033,-12.8383 7.2371,-17.4723 4.6339,-4.6339 10.9188,-7.2372 17.4721,-7.2372 h 0.0025 c 6.8228,7e-4 12.9995,2.7666 17.4705,7.2381 4.471,4.4714 7.2363,10.6485 7.2363,17.4714 z"
         style="fill:none;fill-opacity:0;stroke:#800080;stroke-width:0.8px"
         id="path32" />
      <path
         d="m 76.7092,85.1958 c 0,8.1261 -3.2691,15.6442 -8.7498,21.1262 -5.4811,5.481 -12.9998,8.752 -21.1263,8.752 h -0.003 c -8.1249,0 -15.6423,-3.269 -21.1233,-8.749 -5.482,-5.48 -8.7525,-12.999 -8.7535,-21.1254 0,-0.002 0,-0.004 0,-0.0061 6e-4,-8.0474 3.2231,-15.5969 8.7514,-21.1251 5.5284,-5.5283 13.078,-8.7505 21.1254,-8.7508 h 0.003 c 8.1262,5e-4 15.6446,3.2703 21.1257,8.7517 5.481,5.4815 8.7504,13.0002 8.7504,21.1265 z"
         style="fill:none;fill-opacity:0;stroke:#60009f;stroke-width:0.8px"
         id="path33" />
      <path
         d="m 81.8778,85.1958 c 0,9.4296 -3.7732,18.2902 -10.2641,24.7812 -6.4911,6.492 -15.3514,10.265 -24.7812,10.266 H 46.829 C 37.4008,120.242 28.5419,116.469 22.0512,109.979 15.5595,103.488 11.7853,94.6282 11.7847,85.1983 c 0,-0.0023 0,-0.0047 0,-0.0071 0.0012,-9.5415 3.8428,-18.3555 10.2656,-24.778 6.4228,-6.4225 15.2371,-10.2637 24.7787,-10.2643 h 0.0035 c 9.4296,3e-4 18.2898,3.7741 24.7808,10.2654 6.4911,6.4914 10.2645,15.3517 10.2645,24.7815 z"
         style="fill:none;fill-opacity:0;stroke:#4000bf;stroke-width:0.8px"
         id="path34" />
      <path
         d="m 87.0465,85.1958 c 0,10.7332 -4.2774,20.9352 -11.7784,28.4362 -7.5011,7.502 -17.703,11.779 -28.4362,11.779 h -0.004 c -10.7316,0 -20.9319,-4.278 -28.4323,-11.778 C 10.8942,106.132 6.61637,95.9303 6.61603,85.1971 c 0,-0.0027 0,-0.0054 0,-0.0082 C 6.61789,74.1534 11.0786,64.0747 18.3959,56.758 25.7132,49.4412 35.7921,44.9811 46.8278,44.9802 h 0.0041 c 10.7331,2e-4 20.9349,4.2778 28.436,11.7791 7.5011,7.5013 11.7786,17.7033 11.7786,28.4365 z"
         style="fill:none;fill-opacity:0;stroke:#2000df;stroke-width:0.8px"
         id="path35" />
      <path
         d="m 92.2151,85.1958 c 0,12.0367 -4.7815,23.5802 -13.2926,32.0912 -8.5111,8.512 -20.0547,13.293 -32.0913,13.293 H 46.8268 C 34.7919,130.579 23.2501,125.798 14.74,117.287 6.22889,108.776 1.44739,97.2325 1.44739,85.1958 V 85.1867 C 1.44987,72.657 6.52978,61.3138 14.7415,53.1028 22.9533,44.8917 34.2968,39.8127 46.8267,39.8115 h 0.0045 c 12.0366,0 23.5802,4.7816 32.0913,13.2928 8.5111,8.5112 13.2926,20.0549 13.2926,32.0915 z"
         style="fill:none;fill-opacity:0;stroke:#0000ff;stroke-width:0.8px"
         id="path36" />
    </g>
    <use
       xlink:href="#math_diagram_symbols.svg:coordinateAxis"
       id="use36"
       transform="matrix(0.26458333,0,0,0.26458333,114.59047,28.057182)" />
    <path
       style="fill:none;fill-rule:evenodd;stroke:#1a1a1a;stroke-width:0.799999;paint-order:stroke fill markers"
       d="m 53.439005,78.923921 c 1.55088,1.633456 2.502455,3.841435 2.502455,6.271666"
       id="path50" />
    <g
       transform="matrix(0.937844,0,0,0.937844,57.206651,76.209153)"
       ns1:version="1.10.2"
       ns1:texconverter="pdflatex"
       ns1:pdfconverter="inkscape"
       ns1:text="$\\theta$"
       ns1:preamble="/Users/sachchidanandprasad/Library/Application Support/org.inkscape.Inkscape/config/inkscape/extensions/textext/default_packages.tex"
       ns1:scale="2.658454183650908"
       ns1:alignment="middle center"
       ns1:stroke-to-path="0"
       ns1:jacobian_sqrt="0.937844"
       id="g51">
      <defs
         id="id-5cc052d5-28de-4635-be35-526ce8e08c27">
        <g
           id="id-4ddef6de-9617-4691-98cc-eccd212c0809">
          <g
             id="id-a6c0a438-7a2e-4e7b-a82d-2b9674ec4f88">
            <path
               d="m 3.15625,-7.09375 c -0.421875,0 -0.859375,0.21875 -1.328125,0.65625 -0.875,0.859375 -1.53125,2.359375 -1.53125,4.1875 0,1.59375 0.3125,2.359375 1.15625,2.359375 0.515625,0 1.140625,-0.375 1.609375,-0.96875 C 3.734375,-1.71875 4.359375,-3.375 4.359375,-4.875 c 0,-1.390625 -0.375,-2.21875 -1.203125,-2.21875 z m -0.859375,3.796875 c 0.6875,0 0.96875,0.03125 1.125,0.109375 -0.21875,1.015625 -0.578125,1.90625 -0.90625,2.4375 -0.1875,0.296875 -0.46875,0.484375 -0.765625,0.484375 -0.59375,0 -0.703125,-0.765625 -0.703125,-1.953125 0,-0.3125 0.015625,-0.625 0.0625,-0.953125 0.21875,-0.09375 0.484375,-0.125 1.1875,-0.125 z m 0.609375,-3.40625 c 0.625,0 0.6875,0.8125 0.6875,2.046875 0,0.28125 -0.015625,0.5625 -0.0625,0.84375 -0.1875,0.078125 -0.5,0.109375 -1.15625,0.109375 -0.6875,0 -0.96875,-0.03125 -1.15625,-0.109375 0.265625,-1.171875 0.71875,-2.25 1.078125,-2.671875 0.140625,-0.140625 0.375,-0.21875 0.609375,-0.21875 z m 0,0"
               id="id-c479bbd9-b71b-4da2-9e1a-268a5fb3c300" />
          </g>
        </g>
      </defs>
      <g
         fill="#000000"
         fill-opacity="1"
         id="id-366418db-68f8-450f-9a68-1d9c5ac625b0"
         transform="translate(-149.134,-127.671)">
        <g
           transform="translate(148.837,134.765)"
           id="g50">
          <path
             d="m 3.15625,-7.09375 c -0.421875,0 -0.859375,0.21875 -1.328125,0.65625 -0.875,0.859375 -1.53125,2.359375 -1.53125,4.1875 0,1.59375 0.3125,2.359375 1.15625,2.359375 0.515625,0 1.140625,-0.375 1.609375,-0.96875 C 3.734375,-1.71875 4.359375,-3.375 4.359375,-4.875 c 0,-1.390625 -0.375,-2.21875 -1.203125,-2.21875 z m -0.859375,3.796875 c 0.6875,0 0.96875,0.03125 1.125,0.109375 -0.21875,1.015625 -0.578125,1.90625 -0.90625,2.4375 -0.1875,0.296875 -0.46875,0.484375 -0.765625,0.484375 -0.59375,0 -0.703125,-0.765625 -0.703125,-1.953125 0,-0.3125 0.015625,-0.625 0.0625,-0.953125 0.21875,-0.09375 0.484375,-0.125 1.1875,-0.125 z m 0.609375,-3.40625 c 0.625,0 0.6875,0.8125 0.6875,2.046875 0,0.28125 -0.015625,0.5625 -0.0625,0.84375 -0.1875,0.078125 -0.5,0.109375 -1.15625,0.109375 -0.6875,0 -0.96875,-0.03125 -1.15625,-0.109375 0.265625,-1.171875 0.71875,-2.25 1.078125,-2.671875 0.140625,-0.140625 0.375,-0.21875 0.609375,-0.21875 z m 0,0"
             id="id-0d230fc4-3524-492f-b9ac-2acdb70e1dbc" />
        </g>
      </g>
    </g>
    <path
       style="fill:none;fill-rule:evenodd;stroke:#1a1a1a;stroke-width:0.799999;paint-order:stroke fill markers"
       d="m 178.87475,78.923921 c 1.55088,1.633456 2.50246,3.841435 2.50246,6.271666"
       id="path51" />
    <g
       transform="matrix(0.937844,0,0,0.937844,182.6424,76.209153)"
       ns1:version="1.10.2"
       ns1:texconverter="pdflatex"
       ns1:pdfconverter="inkscape"
       ns1:text="$\\theta$"
       ns1:preamble="/Users/sachchidanandprasad/Library/Application Support/org.inkscape.Inkscape/config/inkscape/extensions/textext/default_packages.tex"
       ns1:scale="2.658454183650908"
       ns1:alignment="middle center"
       ns1:stroke-to-path="0"
       ns1:jacobian_sqrt="0.937844"
       id="g56">
      <defs
         id="defs53">
        <g
           id="g53">
          <g
             id="g52">
            <path
               d="m 3.15625,-7.09375 c -0.421875,0 -0.859375,0.21875 -1.328125,0.65625 -0.875,0.859375 -1.53125,2.359375 -1.53125,4.1875 0,1.59375 0.3125,2.359375 1.15625,2.359375 0.515625,0 1.140625,-0.375 1.609375,-0.96875 C 3.734375,-1.71875 4.359375,-3.375 4.359375,-4.875 c 0,-1.390625 -0.375,-2.21875 -1.203125,-2.21875 z m -0.859375,3.796875 c 0.6875,0 0.96875,0.03125 1.125,0.109375 -0.21875,1.015625 -0.578125,1.90625 -0.90625,2.4375 -0.1875,0.296875 -0.46875,0.484375 -0.765625,0.484375 -0.59375,0 -0.703125,-0.765625 -0.703125,-1.953125 0,-0.3125 0.015625,-0.625 0.0625,-0.953125 0.21875,-0.09375 0.484375,-0.125 1.1875,-0.125 z m 0.609375,-3.40625 c 0.625,0 0.6875,0.8125 0.6875,2.046875 0,0.28125 -0.015625,0.5625 -0.0625,0.84375 -0.1875,0.078125 -0.5,0.109375 -1.15625,0.109375 -0.6875,0 -0.96875,-0.03125 -1.15625,-0.109375 0.265625,-1.171875 0.71875,-2.25 1.078125,-2.671875 0.140625,-0.140625 0.375,-0.21875 0.609375,-0.21875 z m 0,0"
               id="path52" />
          </g>
        </g>
      </defs>
      <g
         fill="#000000"
         fill-opacity="1"
         id="g55"
         transform="translate(-149.134,-127.671)">
        <g
           transform="translate(148.837,134.765)"
           id="g54">
          <path
             d="m 3.15625,-7.09375 c -0.421875,0 -0.859375,0.21875 -1.328125,0.65625 -0.875,0.859375 -1.53125,2.359375 -1.53125,4.1875 0,1.59375 0.3125,2.359375 1.15625,2.359375 0.515625,0 1.140625,-0.375 1.609375,-0.96875 C 3.734375,-1.71875 4.359375,-3.375 4.359375,-4.875 c 0,-1.390625 -0.375,-2.21875 -1.203125,-2.21875 z m -0.859375,3.796875 c 0.6875,0 0.96875,0.03125 1.125,0.109375 -0.21875,1.015625 -0.578125,1.90625 -0.90625,2.4375 -0.1875,0.296875 -0.46875,0.484375 -0.765625,0.484375 -0.59375,0 -0.703125,-0.765625 -0.703125,-1.953125 0,-0.3125 0.015625,-0.625 0.0625,-0.953125 0.21875,-0.09375 0.484375,-0.125 1.1875,-0.125 z m 0.609375,-3.40625 c 0.625,0 0.6875,0.8125 0.6875,2.046875 0,0.28125 -0.015625,0.5625 -0.0625,0.84375 -0.1875,0.078125 -0.5,0.109375 -1.15625,0.109375 -0.6875,0 -0.96875,-0.03125 -1.15625,-0.109375 0.265625,-1.171875 0.71875,-2.25 1.078125,-2.671875 0.140625,-0.140625 0.375,-0.21875 0.609375,-0.21875 z m 0,0"
             id="path53" />
        </g>
      </g>
    </g>
  </g>
  <g
     id="g45"
     transform="translate(10.307402,-28.057182)">
    <path
       d="m 141.728,55.1943 h 60.003 v 0 60.0027 0 h -60.003 v 0 z"
       style="fill:none;fill-opacity:0;stroke:#800080;stroke-width:0.800001px"
       id="path41" />
    <path
       d="m 137.57,51.0364 h 68.319 v 10e-5 68.3185 h -0.001 -68.318 v 0 z"
       style="fill:none;fill-opacity:0;stroke:#60009f;stroke-width:0.800001px"
       id="path42" />
    <path
       d="m 133.412,46.8786 h 76.634 v 1e-4 76.6343 0 h -76.634 v 0 z"
       style="fill:none;fill-opacity:0;stroke:#4000bf;stroke-width:0.8px"
       id="path43" />
    <path
       d="m 129.254,42.7208 h 84.95 v 2e-4 84.95 0 h -84.95 v 0 z"
       style="fill:none;fill-opacity:0;stroke:#2000df;stroke-width:0.799999px"
       id="path44" />
    <path
       d="m 125.096,38.563 h 93.266 v 2e-4 93.2658 0 h -93.266 v -0.001 z"
       style="fill:none;fill-opacity:0;stroke:#0000ff;stroke-width:0.799999px"
       id="path45" />
  </g>
  <path
     style="fill:none;fill-rule:evenodd;stroke:#000000;stroke-width:0.799999;marker-end:url(#ArrowWideRounded);paint-order:stroke fill markers"
     d="M 56.885416,57.265267 107.81253,9.770892"
     id="path46" />
  <path
     style="fill:none;fill-rule:evenodd;stroke:#000000;stroke-width:0.799999;marker-end:url(#ArrowWideRounded);paint-order:stroke fill markers"
     d="M 182.03652,57.265268 239.052,5.775402"
     id="path47"
     sodipodi:nodetypes="cc" />
  <circle
     id="path48"
     style="fill:#ff0000;stroke:none;stroke-width:0.264585"
     cx="57.138664"
     cy="57.138405"
     r="1.059454" />
  <circle
     id="circle48"
     style="fill:#ff0000;stroke:none;stroke-width:0.264585"
     cx="181.90991"
     cy="57.391884"
     r="1.059454" />
</svg>
