<?xml version="1.0" encoding="UTF-8" standalone="no"?>
<!-- Created with Inkscape (http://www.inkscape.org/) -->

<svg
   width="100.09818mm"
   height="99.8433mm"
   viewBox="0 0 100.09819 99.843301"
   version="1.1"
   id="svg1"
   xml:space="preserve"
   inkscape:version="1.4 (e7c3feb1, 2024-10-09)"
   sodipodi:docname="prob-28-01-25_04.svg"
   xmlns:inkscape="http://www.inkscape.org/namespaces/inkscape"
   xmlns:sodipodi="http://sodipodi.sourceforge.net/DTD/sodipodi-0.dtd"
   xmlns="http://www.w3.org/2000/svg"
   xmlns:svg="http://www.w3.org/2000/svg"
   xmlns:ns1="http://www.iki.fi/pav/software/textext/"><sodipodi:namedview
     id="namedview1"
     pagecolor="#ffffff"
     bordercolor="#000000"
     borderopacity="0.25"
     inkscape:showpageshadow="2"
     inkscape:pageopacity="0.0"
     inkscape:pagecheckerboard="0"
     inkscape:deskcolor="#d1d1d1"
     inkscape:document-units="mm"
     showgrid="false"
     inkscape:zoom="1"
     inkscape:cx="145"
     inkscape:cy="210"
     inkscape:window-width="1512"
     inkscape:window-height="916"
     inkscape:window-x="0"
     inkscape:window-y="38"
     inkscape:window-maximized="1"
     inkscape:current-layer="layer1"><inkscape:grid
       id="grid8"
       units="mm"
       originx="-55.444312"
       originy="-89.193828"
       spacingx="0.99999998"
       spacingy="1"
       empcolor="#0099e5"
       empopacity="0.30196078"
       color="#0099e5"
       opacity="0.14901961"
       empspacing="5"
       enabled="true"
       visible="false" /></sodipodi:namedview><defs
     id="defs1"><inkscape:path-effect
       effect="bspline"
       id="path-effect47"
       is_visible="true"
       lpeversion="1.3"
       weight="33.333333"
       steps="2"
       helper_size="0"
       apply_no_weight="true"
       apply_with_weight="true"
       only_selected="false"
       uniform="false" /><inkscape:path-effect
       effect="bspline"
       id="path-effect45"
       is_visible="true"
       lpeversion="1.3"
       weight="33.333333"
       steps="2"
       helper_size="0"
       apply_no_weight="true"
       apply_with_weight="true"
       only_selected="false"
       uniform="false" /><inkscape:path-effect
       effect="bspline"
       id="path-effect36"
       is_visible="true"
       lpeversion="1.3"
       weight="33.333333"
       steps="2"
       helper_size="0"
       apply_no_weight="true"
       apply_with_weight="true"
       only_selected="false"
       uniform="false" /><inkscape:path-effect
       effect="mirror_symmetry"
       start_point="99.302601,111.39852"
       end_point="99.302601,210.75326"
       center_point="99.302601,161.07589"
       id="path-effect21"
       is_visible="true"
       lpeversion="1.2"
       lpesatellites=""
       mode="free"
       discard_orig_path="false"
       fuse_paths="false"
       oposite_fuse="false"
       split_items="false"
       split_open="false"
       link_styles="false" /><inkscape:path-effect
       effect="fillet_chamfer"
       id="path-effect19"
       is_visible="true"
       lpeversion="1"
       nodesatellites_param="F,0,0,1,0,0,0,1 @ F,0,0,1,0,0,0,1 @ F,0,0,1,0,0,0,1 @ F,0,0,1,0,0,0,1"
       radius="0"
       unit="px"
       method="auto"
       mode="F"
       chamfer_steps="1"
       flexible="false"
       use_knot_distance="true"
       apply_no_radius="true"
       apply_with_radius="true"
       only_selected="false"
       hide_knots="false" /><inkscape:path-effect
       effect="fillet_chamfer"
       id="path-effect18"
       is_visible="true"
       lpeversion="1"
       nodesatellites_param="F,0,0,1,0,0,0,1 @ F,0,0,1,0,0,0,1 @ F,0,0,1,0,0,0,1 @ F,0,0,1,0,0,0,1"
       radius="0"
       unit="px"
       method="auto"
       mode="F"
       chamfer_steps="1"
       flexible="false"
       use_knot_distance="true"
       apply_no_radius="true"
       apply_with_radius="true"
       only_selected="false"
       hide_knots="false" /><inkscape:path-effect
       effect="bspline"
       id="path-effect12"
       is_visible="true"
       lpeversion="1.3"
       weight="33.333333"
       steps="2"
       helper_size="0"
       apply_no_weight="true"
       apply_with_weight="true"
       only_selected="false"
       uniform="false" /><inkscape:path-effect
       effect="bspline"
       id="path-effect10"
       is_visible="true"
       lpeversion="1.3"
       weight="33.333333"
       steps="2"
       helper_size="0"
       apply_no_weight="true"
       apply_with_weight="true"
       only_selected="false"
       uniform="false" /><inkscape:path-effect
       effect="bspline"
       id="path-effect8"
       is_visible="true"
       lpeversion="1.3"
       weight="33.333333"
       steps="2"
       helper_size="0"
       apply_no_weight="true"
       apply_with_weight="true"
       only_selected="false"
       uniform="false" /><marker
       style="overflow:visible"
       id="marker5"
       refX="0"
       refY="0"
       orient="auto-start-reverse"
       inkscape:stockid="Wide, rounded arrow"
       markerWidth="1"
       markerHeight="1"
       viewBox="0 0 1 1"
       inkscape:isstock="true"
       inkscape:collect="always"
       preserveAspectRatio="xMidYMid"><path
         style="fill:none;stroke:context-stroke;stroke-width:1;stroke-linecap:round"
         d="M 3,-3 0,0 3,3"
         transform="rotate(180,0.125,0)"
         sodipodi:nodetypes="ccc"
         id="path5" /></marker><inkscape:path-effect
       effect="bspline"
       id="path-effect4"
       is_visible="true"
       lpeversion="1.3"
       weight="33.333333"
       steps="2"
       helper_size="0"
       apply_no_weight="true"
       apply_with_weight="true"
       only_selected="false"
       uniform="false" /><marker
       style="overflow:visible"
       id="ArrowWideRounded"
       refX="0"
       refY="0"
       orient="auto-start-reverse"
       inkscape:stockid="Wide, rounded arrow"
       markerWidth="1"
       markerHeight="1"
       viewBox="0 0 1 1"
       inkscape:isstock="true"
       inkscape:collect="always"
       preserveAspectRatio="xMidYMid"><path
         style="fill:none;stroke:context-stroke;stroke-width:1;stroke-linecap:round"
         d="M 3,-3 0,0 3,3"
         transform="rotate(180,0.125,0)"
         sodipodi:nodetypes="ccc"
         id="path2" /></marker><inkscape:path-effect
       effect="bspline"
       id="path-effect1"
       is_visible="true"
       lpeversion="1.3"
       weight="33.333333"
       steps="2"
       helper_size="0"
       apply_no_weight="true"
       apply_with_weight="true"
       only_selected="false"
       uniform="false" /></defs><g
     inkscape:label="Layer 1"
     inkscape:groupmode="layer"
     id="layer1"
     transform="translate(-55.444351,-89.193831)"><path
       style="fill:none;stroke:#000000;stroke-width:0.6;stroke-miterlimit:10;stroke-dasharray:none;marker-start:url(#marker5);marker-end:url(#ArrowWideRounded)"
       d="m 107.7527,198.46941 c 0,-39.46674 0,-78.93347 0,-118.400208"
       id="path1"
       inkscape:path-effect="#path-effect1"
       inkscape:original-d="m 107.7527,198.46941 c 0,-39.46674 0,-78.93347 0,-118.400208"
       transform="matrix(0.83108147,0,0,0.83108147,15.57045,23.371343)" /><path
       style="fill:none;stroke:#000000;stroke-width:0.6;stroke-miterlimit:10;stroke-dasharray:none;marker-start:url(#marker5);marker-end:url(#ArrowWideRounded)"
       d="m 107.7527,198.46941 c 0,-39.46674 0,-78.93347 0,-118.400208"
       id="path8"
       inkscape:path-effect="#path-effect10"
       inkscape:original-d="m 107.7527,198.46941 c 0,-39.46674 0,-78.93347 0,-118.400208"
       transform="matrix(0,0.83108147,-0.83108147,0,220.86586,49.56421)" /><path
       style="opacity:1;fill:none;fill-opacity:1;stroke:#68ab6b;stroke-width:0.518012;stroke-miterlimit:10;stroke-dasharray:none;stroke-opacity:1"
       d="m 155.47981,89.445129 c -86.878982,21.682191 -87.968761,77.386541 0,99.340701"
       id="path39"
       sodipodi:nodetypes="cc" /><path
       style="opacity:1;fill:#000000;fill-opacity:1;stroke:#000000;stroke-width:0.5;stroke-miterlimit:10;stroke-dasharray:none;stroke-opacity:1"
       d="m 104.22172,139.85058 c 0.6,0 1.2,0 1.8,0"
       id="path36"
       inkscape:path-effect="#path-effect36"
       inkscape:original-d="m 104.22172,139.85058 c 0.6,0 1.2,0 1.8,0"
       transform="matrix(0,1,1,0,-49.939189,33.993762)" /><g
       transform="matrix(0.529167,0,0,0.529167,101.95179,109.86211)"
       ns1:version="1.10.2"
       ns1:texconverter="pdflatex"
       ns1:pdfconverter="inkscape"
       ns1:text="$\\iota$"
       ns1:preamble="/Users/sachchidanandprasad/Library/Application Support/org.inkscape.Inkscape/config/inkscape/extensions/textext/default_packages.tex"
       ns1:scale="1.5"
       ns1:alignment="middle center"
       ns1:stroke-to-path="0"
       ns1:inkscapeversion="1.4"
       ns1:jacobian_sqrt="0.529167"
       id="g34"><defs
   id="id-f695f379-7eb1-4f3c-b77b-458c31d88f38">
    <g
   id="id-177264f1-8e05-44c5-95fc-46e1670bff1f">
      <g
   id="id-65c42b3c-1578-4800-9bad-aa4f3ba5abce">
        <path
   d="M 2.03125,-4.8125 1.328125,-4.609375 C 1.28125,-3.9375 1.1875,-3.640625 1.140625,-3.453125 L 0.484375,-1.0625 C 0.484375,-1 0.46875,-0.96875 0.4375,-0.859375 0.375,-0.5625 0.359375,-0.4375 0.359375,-0.3125 c 0,0.25 0.109375,0.40625 0.296875,0.40625 0.34375,0 0.703125,-0.1875 1.484375,-0.828125 l 0.296875,-0.25 -0.09375,-0.1875 -0.453125,0.3125 C 1.59375,-0.640625 1.40625,-0.5625 1.28125,-0.5625 c -0.078125,0 -0.125,-0.078125 -0.125,-0.1875 0,-0.109375 0.015625,-0.1875 0.0625,-0.40625 L 2,-4.1875 C 2.03125,-4.34375 2.078125,-4.5 2.140625,-4.671875 Z m 0,0"
   id="id-641c3fdf-822c-4c79-8483-2819d9ed5ef4" />
      </g>
    </g>
  </defs>
  <g
   fill="#000000"
   fill-opacity="1"
   id="id-70b20c1a-ecc3-486d-9833-94afe967457f"
   transform="translate(-149.196,-129.952)">
    <g
   transform="translate(148.837,134.765)"
   id="g39"><path
   d="M 2.03125,-4.8125 1.328125,-4.609375 C 1.28125,-3.9375 1.1875,-3.640625 1.140625,-3.453125 L 0.484375,-1.0625 C 0.484375,-1 0.46875,-0.96875 0.4375,-0.859375 0.375,-0.5625 0.359375,-0.4375 0.359375,-0.3125 c 0,0.25 0.109375,0.40625 0.296875,0.40625 0.34375,0 0.703125,-0.1875 1.484375,-0.828125 l 0.296875,-0.25 -0.09375,-0.1875 -0.453125,0.3125 C 1.59375,-0.640625 1.40625,-0.5625 1.28125,-0.5625 c -0.078125,0 -0.125,-0.078125 -0.125,-0.1875 0,-0.109375 0.015625,-0.1875 0.0625,-0.40625 L 2,-4.1875 C 2.03125,-4.34375 2.078125,-4.5 2.140625,-4.671875 Z m 0,0"
   id="id-db0bc681-815a-4188-adf2-1504cd84e470" />
      </g></g>
</g><path
       style="opacity:1;fill:#000000;fill-opacity:1;stroke:#000000;stroke-width:0.5;stroke-miterlimit:10;stroke-dasharray:none;stroke-opacity:1"
       d="m 104.22172,139.85058 c 0.6,0 1.2,0 1.8,0"
       id="path44"
       inkscape:path-effect="#path-effect45"
       inkscape:original-d="m 104.22172,139.85058 c 0.6,0 1.2,0 1.8,0"
       transform="matrix(-1,0,0,1,210.24344,26.368298)" /><path
       style="opacity:1;fill:#000000;fill-opacity:1;stroke:#000000;stroke-width:0.5;stroke-miterlimit:10;stroke-dasharray:none;stroke-opacity:1"
       d="m 104.22172,139.85058 c 0.6,0 1.2,0 1.8,0"
       id="path45"
       inkscape:path-effect="#path-effect47"
       inkscape:original-d="m 104.22172,139.85058 c 0.6,0 1.2,0 1.8,0"
       transform="matrix(-1,0,0,1,210.24344,-27.745064)" /><g
       transform="matrix(0.529167,0,0,0.529167,97.905899,166.633)"
       ns1:version="1.10.2"
       ns1:texconverter="pdflatex"
       ns1:pdfconverter="inkscape"
       ns1:text="$-\\iota$"
       ns1:preamble="/Users/sachchidanandprasad/Library/Application Support/org.inkscape.Inkscape/config/inkscape/extensions/textext/default_packages.tex"
       ns1:scale="1.5"
       ns1:alignment="middle center"
       ns1:stroke-to-path="0"
       ns1:inkscapeversion="1.4"
       ns1:jacobian_sqrt="0.529167"
       id="g44"><defs
   id="id-e8c4aca4-ff1b-4772-9864-ff993ebd1038">
    <g
   id="id-5c8cd205-afd0-4b67-a990-ef7d9aeba1cc">
      <g
   id="id-d4f90006-7b9b-4e8a-9338-40cf22575179">
        <path
   d="m 6.84375,-2.390625 c 0.171875,0 0.359375,0 0.359375,-0.203125 0,-0.203125 -0.1875,-0.203125 -0.359375,-0.203125 h -5.625 c -0.171875,0 -0.359375,0 -0.359375,0.203125 0,0.203125 0.1875,0.203125 0.359375,0.203125 z m 0,0"
   id="id-2f4cb23a-bd6c-4284-ac13-e629277b0a4c" />
      </g>
      <g
   id="id-ff37163a-0630-4cb7-9058-8ac7430d6a9f">
        <path
   d="M 2.03125,-4.8125 1.328125,-4.609375 C 1.28125,-3.9375 1.1875,-3.640625 1.140625,-3.453125 L 0.484375,-1.0625 C 0.484375,-1 0.46875,-0.96875 0.4375,-0.859375 0.375,-0.5625 0.359375,-0.4375 0.359375,-0.3125 c 0,0.25 0.109375,0.40625 0.296875,0.40625 0.34375,0 0.703125,-0.1875 1.484375,-0.828125 l 0.296875,-0.25 -0.09375,-0.1875 -0.453125,0.3125 C 1.59375,-0.640625 1.40625,-0.5625 1.28125,-0.5625 c -0.078125,0 -0.125,-0.078125 -0.125,-0.1875 0,-0.109375 0.015625,-0.1875 0.0625,-0.40625 L 2,-4.1875 C 2.03125,-4.34375 2.078125,-4.5 2.140625,-4.671875 Z m 0,0"
   id="id-96fa90d4-95aa-4df8-90a0-51dd63d33793" />
      </g>
    </g>
  </defs>
  <g
   fill="#000000"
   fill-opacity="1"
   id="id-71a5d659-8470-4525-83e7-9eded3b11ddc"
   transform="translate(-149.696,-129.952)">
    <g
   transform="translate(148.837,134.765)"
   id="g47"><path
   d="m 6.84375,-2.390625 c 0.171875,0 0.359375,0 0.359375,-0.203125 0,-0.203125 -0.1875,-0.203125 -0.359375,-0.203125 h -5.625 c -0.171875,0 -0.359375,0 -0.359375,0.203125 0,0.203125 0.1875,0.203125 0.359375,0.203125 z m 0,0"
   id="id-bc4bb851-a306-4aff-a6b7-58f9a3f9cb8c" />
      </g></g>
  <g
   fill="#000000"
   fill-opacity="1"
   id="id-ab4971f1-6216-4a07-9c3f-d05a337d2eb5"
   transform="translate(-149.696,-129.952)">
    <g
   transform="translate(157.156,134.765)"
   id="g48"><path
   d="M 2.03125,-4.8125 1.328125,-4.609375 C 1.28125,-3.9375 1.1875,-3.640625 1.140625,-3.453125 L 0.484375,-1.0625 C 0.484375,-1 0.46875,-0.96875 0.4375,-0.859375 0.375,-0.5625 0.359375,-0.4375 0.359375,-0.3125 c 0,0.25 0.109375,0.40625 0.296875,0.40625 0.34375,0 0.703125,-0.1875 1.484375,-0.828125 l 0.296875,-0.25 -0.09375,-0.1875 -0.453125,0.3125 C 1.59375,-0.640625 1.40625,-0.5625 1.28125,-0.5625 c -0.078125,0 -0.125,-0.078125 -0.125,-0.1875 0,-0.109375 0.015625,-0.1875 0.0625,-0.40625 L 2,-4.1875 C 2.03125,-4.34375 2.078125,-4.5 2.140625,-4.671875 Z m 0,0"
   id="id-7ff0e14e-b8e3-436a-9f41-ddf9b129d6d5" />
      </g></g>
</g><g
       transform="matrix(0.529167,0,0,0.529167,81.901757,140.4858)"
       ns1:version="1.10.2"
       ns1:texconverter="pdflatex"
       ns1:pdfconverter="inkscape"
       ns1:text="$-\\frac{1}{2}$"
       ns1:preamble="/Users/sachchidanandprasad/Library/Application Support/org.inkscape.Inkscape/config/inkscape/extensions/textext/default_packages.tex"
       ns1:scale="1.5"
       ns1:alignment="middle center"
       ns1:stroke-to-path="0"
       ns1:inkscapeversion="1.4"
       ns1:jacobian_sqrt="0.529167"
       id="g59"><defs
   id="id-1edd94de-6412-4d74-b6bb-ecaa04050849">
    <g
   id="id-45dc3d43-c6f9-4b82-a6f3-f35c1cec8b1a">
      <g
   id="id-4d437753-a4b6-413e-8697-5321f68596a3">
        <path
   d="m 6.84375,-2.390625 c 0.171875,0 0.359375,0 0.359375,-0.203125 0,-0.203125 -0.1875,-0.203125 -0.359375,-0.203125 h -5.625 c -0.171875,0 -0.359375,0 -0.359375,0.203125 0,0.203125 0.1875,0.203125 0.359375,0.203125 z m 0,0"
   id="id-9b732407-b1fd-4cab-9464-a9a123af4c31" />
      </g>
      <g
   id="id-f3e2f620-06ca-4dd2-bed6-df72f2025e69">
        <path
   d="m 0.5,-4.203125 h 0.078125 l 0.984375,-0.4375 c 0,-0.015625 0.015625,-0.015625 0.015625,-0.015625 0.046875,0 0.0625,0.078125 0.0625,0.25 v 3.671875 c 0,0.40625 -0.078125,0.484375 -0.484375,0.5 l -0.421875,0.03125 v 0.21875 C 1.890625,0 1.890625,0 1.984375,0 2.078125,0 2.25,0 2.5,0 2.59375,0.015625 2.859375,0.015625 3.171875,0.015625 v -0.21875 L 2.78125,-0.234375 c -0.421875,-0.015625 -0.5,-0.09375 -0.5,-0.5 V -5.21875 L 2.171875,-5.265625 C 1.6875,-5 1.140625,-4.78125 0.453125,-4.53125 Z m 0,0"
   id="id-5fb21db2-4f6b-443c-98c0-6b6bc3f07489" />
      </g>
      <g
   id="id-83d3cd9f-9399-4471-9992-a38e1943f14a">
        <path
   d="m 0.125,-0.171875 v 0.1875 C 1.53125,0 1.53125,0 1.8125,0 2.078125,0 2.078125,0 3.546875,0.015625 3.53125,-0.140625 3.53125,-0.21875 3.53125,-0.3125 c 0,-0.109375 0,-0.1875 0.015625,-0.34375 -0.875,0.03125 -1.21875,0.046875 -2.625,0.078125 l 1.375,-1.46875 C 3.03125,-2.828125 3.265625,-3.25 3.265625,-3.8125 c 0,-0.875 -0.59375,-1.40625 -1.546875,-1.40625 -0.546875,0 -0.921875,0.15625 -1.296875,0.53125 l -0.125,1.03125 h 0.21875 l 0.09375,-0.359375 c 0.125,-0.4375 0.40625,-0.625 0.90625,-0.625 0.65625,0 1.0625,0.40625 1.0625,1.0625 0,0.5625 -0.3125,1.125 -1.171875,2.03125 z m 0,0"
   id="id-faabc82f-ead6-4be6-8d42-1be6f5788fc6" />
      </g>
    </g>
  </defs>
  <g
   fill="#000000"
   fill-opacity="1"
   id="id-e9a5ce86-0ed2-4e57-8a6c-b834aeb795b1"
   transform="translate(-149.696,-125.573)">
    <g
   transform="translate(148.837,134.765)"
   id="g56"><path
   d="m 6.84375,-2.390625 c 0.171875,0 0.359375,0 0.359375,-0.203125 0,-0.203125 -0.1875,-0.203125 -0.359375,-0.203125 h -5.625 c -0.171875,0 -0.359375,0 -0.359375,0.203125 0,0.203125 0.1875,0.203125 0.359375,0.203125 z m 0,0"
   id="id-2c1033f2-9371-442a-8f29-1a48492d0723" />
      </g></g>
  <g
   fill="#000000"
   fill-opacity="1"
   id="id-b6bf29a2-e688-42d4-b6a7-4ea1de002e24"
   transform="translate(-149.696,-125.573)">
    <g
   transform="translate(158.227,130.839)"
   id="g57"><path
   d="m 0.5,-4.203125 h 0.078125 l 0.984375,-0.4375 c 0,-0.015625 0.015625,-0.015625 0.015625,-0.015625 0.046875,0 0.0625,0.078125 0.0625,0.25 v 3.671875 c 0,0.40625 -0.078125,0.484375 -0.484375,0.5 l -0.421875,0.03125 v 0.21875 C 1.890625,0 1.890625,0 1.984375,0 2.078125,0 2.25,0 2.5,0 2.59375,0.015625 2.859375,0.015625 3.171875,0.015625 v -0.21875 L 2.78125,-0.234375 c -0.421875,-0.015625 -0.5,-0.09375 -0.5,-0.5 V -5.21875 L 2.171875,-5.265625 C 1.6875,-5 1.140625,-4.78125 0.453125,-4.53125 Z m 0,0"
   id="id-73068fc7-eb2f-43b4-9182-0c97af2d7c85" />
      </g></g>
  <path
   fill="none"
   stroke-width="0.398"
   stroke-linecap="butt"
   stroke-linejoin="miter"
   stroke="#000000"
   stroke-opacity="1"
   stroke-miterlimit="10"
   d="M 8.5301819,6.700058 H 12.315338"
   id="id-3b05d4c0-246f-4bfc-9774-7463e35239a1" />
  <g
   fill="#000000"
   fill-opacity="1"
   id="id-43289a3d-a3d6-4146-88f8-73862a2d0529"
   transform="translate(-149.696,-125.573)">
    <g
   transform="translate(158.227,138.202)"
   id="g58"><path
   d="m 0.125,-0.171875 v 0.1875 C 1.53125,0 1.53125,0 1.8125,0 2.078125,0 2.078125,0 3.546875,0.015625 3.53125,-0.140625 3.53125,-0.21875 3.53125,-0.3125 c 0,-0.109375 0,-0.1875 0.015625,-0.34375 -0.875,0.03125 -1.21875,0.046875 -2.625,0.078125 l 1.375,-1.46875 C 3.03125,-2.828125 3.265625,-3.25 3.265625,-3.8125 c 0,-0.875 -0.59375,-1.40625 -1.546875,-1.40625 -0.546875,0 -0.921875,0.15625 -1.296875,0.53125 l -0.125,1.03125 h 0.21875 l 0.09375,-0.359375 c 0.125,-0.4375 0.40625,-0.625 0.90625,-0.625 0.65625,0 1.0625,0.40625 1.0625,1.0625 0,0.5625 -0.3125,1.125 -1.171875,2.03125 z m 0,0"
   id="id-86c1463e-aac4-4559-8165-c3fd19a3d6f0" />
      </g></g>
</g></g></svg>
