<?xml version="1.0" encoding="UTF-8" standalone="no"?>
<!-- Created with Inkscape (http://www.inkscape.org/) -->

<svg
   width="90.294098mm"
   height="91.264351mm"
   viewBox="0 0 90.2941 91.264354"
   version="1.1"
   id="svg1"
   inkscape:version="1.4 (e7c3feb1, 2024-10-09)"
   sodipodi:docname="prob-12-02-25_01.svg"
   xmlns:inkscape="http://www.inkscape.org/namespaces/inkscape"
   xmlns:sodipodi="http://sodipodi.sourceforge.net/DTD/sodipodi-0.dtd"
   xmlns="http://www.w3.org/2000/svg"
   xmlns:svg="http://www.w3.org/2000/svg"
   xmlns:ns1="http://www.iki.fi/pav/software/textext/">
  <sodipodi:namedview
     id="namedview1"
     pagecolor="#ffffff"
     bordercolor="#000000"
     borderopacity="0.25"
     inkscape:showpageshadow="2"
     inkscape:pageopacity="0.0"
     inkscape:pagecheckerboard="0"
     inkscape:deskcolor="#d1d1d1"
     inkscape:document-units="mm"
     inkscape:zoom="1.0601596"
     inkscape:cx="91.495657"
     inkscape:cy="290.05066"
     inkscape:window-width="1920"
     inkscape:window-height="1027"
     inkscape:window-x="1512"
     inkscape:window-y="25"
     inkscape:window-maximized="1"
     inkscape:current-layer="layer1" />
  <defs
     id="defs1">
    <inkscape:path-effect
       effect="bspline"
       id="path-effect12"
       is_visible="true"
       lpeversion="1.3"
       weight="33.333333"
       steps="2"
       helper_size="0"
       apply_no_weight="true"
       apply_with_weight="true"
       only_selected="false"
       uniform="false" />
    <inkscape:path-effect
       effect="bspline"
       id="path-effect11"
       is_visible="true"
       lpeversion="1.3"
       weight="33.333333"
       steps="2"
       helper_size="0"
       apply_no_weight="true"
       apply_with_weight="true"
       only_selected="false"
       uniform="false" />
  </defs>
  <g
     inkscape:label="Layer 1"
     inkscape:groupmode="layer"
     id="layer1"
     transform="translate(-19.616287,-43.713792)">
    <rect
       style="fill:none;stroke:#1a1a1a;stroke-width:0.373914;stroke-miterlimit:10"
       id="rect1"
       width="77.166656"
       height="77.166656"
       x="25.828838"
       y="50.033405" />
    <path
       style="fill:none;stroke:#0000ff;stroke-width:0.499999;stroke-miterlimit:10"
       d="M 12.7,139.96458 C 47.095832,105.56875 81.491664,71.172917 115.8875,36.777083"
       id="path11"
       inkscape:path-effect="#path-effect11"
       inkscape:original-d="M 12.7,139.96458 C 47.095833,105.56875 81.491663,71.172916 115.8875,36.777083"
       transform="matrix(0.7478295,0,0,0.7478295,16.331403,22.530418)" />
    <path
       style="fill:none;stroke:#ff00ff;stroke-width:0.499999;stroke-miterlimit:10"
       d="M 115.8875,139.96458 C 81.491666,105.56875 47.095833,71.172915 12.7,36.777083"
       id="path12"
       inkscape:path-effect="#path-effect12"
       inkscape:original-d="M 115.8875,139.96458 C 81.491663,105.56875 47.095833,71.172916 12.7,36.777083"
       transform="matrix(0.7478295,0,0,0.7478295,16.331403,22.530418)" />
    <circle
       id="circle6"
       style="fill:#1a1a1a;stroke:none;stroke-width:0.358148"
       cx="102.99549"
       cy="50.033405"
       r="1.0152223" />
    <circle
       id="circle7"
       style="fill:#1a1a1a;stroke:none;stroke-width:0.358148"
       cx="102.99549"
       cy="50.033405"
       r="1.0152223" />
    <circle
       id="circle8"
       style="fill:#1a1a1a;stroke:none;stroke-width:0.358148"
       cx="25.828838"
       cy="50.033405"
       r="1.0152223" />
    <circle
       id="circle9"
       style="fill:#1a1a1a;stroke:none;stroke-width:0.358148"
       cx="25.828838"
       cy="50.033405"
       r="1.0152223" />
    <circle
       id="path1"
       style="fill:#1a1a1a;stroke:none;stroke-width:0.358148"
       cx="102.99549"
       cy="127.20007"
       r="1.0152223" />
    <circle
       id="circle5"
       style="fill:#1a1a1a;stroke:none;stroke-width:0.358148"
       cx="102.99549"
       cy="127.20007"
       r="1.0152223" />
    <circle
       id="circle10"
       style="fill:#1a1a1a;stroke:none;stroke-width:0.358148"
       cx="25.828838"
       cy="127.20007"
       r="1.0152223" />
    <circle
       id="circle11"
       style="fill:#1a1a1a;stroke:none;stroke-width:0.358148"
       cx="25.828838"
       cy="127.20007"
       r="1.0152223" />
    <g
       transform="matrix(0.39572669,0,0,0.39572669,89.134164,57.362418)"
       ns1:version="1.10.2"
       ns1:texconverter="pdflatex"
       ns1:pdfconverter="inkscape"
       ns1:text="$d$"
       ns1:preamble="/Users/sachchidanandprasad/Library/Application Support/org.inkscape.Inkscape/config/inkscape/extensions/textext/default_packages.tex"
       ns1:scale="1.5"
       ns1:alignment="middle center"
       ns1:stroke-to-path="0"
       ns1:jacobian_sqrt="0.529167"
       id="g13">
      <defs
         id="id-00ac9c71-0784-4b5f-9bc2-590f719aab3e">
        <g
           id="id-2b683472-8714-47f6-9926-fd92cacdbccf">
          <g
             id="id-8554bcdc-dfdc-4fbe-a504-5679bd2a845f">
            <path
               d="M 4.8125,-7.203125 4.6875,-7.3125 c -0.515625,0.265625 -0.875,0.359375 -1.59375,0.421875 l -0.03125,0.21875 h 0.46875 c 0.25,0 0.34375,0.0625 0.34375,0.234375 0,0.078125 0,0.171875 -0.015625,0.234375 l -0.28125,1.53125 C 3.28125,-4.75 3.015625,-4.8125 2.765625,-4.8125 c -0.6875,0 -1.625,0.71875 -2.09375,1.59375 -0.296875,0.578125 -0.5,1.53125 -0.5,2.359375 0,0.65625 0.140625,0.96875 0.4375,0.96875 0.265625,0 0.640625,-0.171875 0.96875,-0.4375 C 2.125,-0.765625 2.453125,-1.15625 3.125,-2.15625 L 2.890625,-1.25 c -0.109375,0.4375 -0.15625,0.75 -0.15625,1.015625 0,0.203125 0.09375,0.328125 0.25,0.328125 0.171875,0 0.421875,-0.125 0.75,-0.375 L 4.546875,-0.875 4.453125,-1.0625 4,-0.75 c -0.125,0.09375 -0.296875,0.15625 -0.375,0.15625 -0.09375,0 -0.140625,-0.078125 -0.140625,-0.21875 0,-0.078125 0,-0.171875 0.078125,-0.46875 z M 3.359375,-3.5 C 3.1875,-2.625 2.6875,-1.75 2.078125,-1.15625 c -0.359375,0.328125 -0.75,0.5625 -0.9375,0.5625 -0.15625,0 -0.25,-0.140625 -0.25,-0.390625 0,-1.25 0.453125,-2.796875 0.9375,-3.1875 0.140625,-0.09375 0.328125,-0.140625 0.59375,-0.140625 0.4375,0 0.734375,0.0625 1.0625,0.21875 z m 0,0"
               id="id-90f9882d-dfa5-4cb3-9e07-be481e770030" />
          </g>
        </g>
      </defs>
      <g
         fill="#000000"
         fill-opacity="1"
         id="id-a01b2538-dd75-4643-a0f4-8e76963af7bb"
         transform="translate(-149.009,-127.453)">
        <g
           transform="translate(148.837,134.765)"
           id="g12">
          <path
             d="M 4.8125,-7.203125 4.6875,-7.3125 c -0.515625,0.265625 -0.875,0.359375 -1.59375,0.421875 l -0.03125,0.21875 h 0.46875 c 0.25,0 0.34375,0.0625 0.34375,0.234375 0,0.078125 0,0.171875 -0.015625,0.234375 l -0.28125,1.53125 C 3.28125,-4.75 3.015625,-4.8125 2.765625,-4.8125 c -0.6875,0 -1.625,0.71875 -2.09375,1.59375 -0.296875,0.578125 -0.5,1.53125 -0.5,2.359375 0,0.65625 0.140625,0.96875 0.4375,0.96875 0.265625,0 0.640625,-0.171875 0.96875,-0.4375 C 2.125,-0.765625 2.453125,-1.15625 3.125,-2.15625 L 2.890625,-1.25 c -0.109375,0.4375 -0.15625,0.75 -0.15625,1.015625 0,0.203125 0.09375,0.328125 0.25,0.328125 0.171875,0 0.421875,-0.125 0.75,-0.375 L 4.546875,-0.875 4.453125,-1.0625 4,-0.75 c -0.125,0.09375 -0.296875,0.15625 -0.375,0.15625 -0.09375,0 -0.140625,-0.078125 -0.140625,-0.21875 0,-0.078125 0,-0.171875 0.078125,-0.46875 z M 3.359375,-3.5 C 3.1875,-2.625 2.6875,-1.75 2.078125,-1.15625 c -0.359375,0.328125 -0.75,0.5625 -0.9375,0.5625 -0.15625,0 -0.25,-0.140625 -0.25,-0.390625 0,-1.25 0.453125,-2.796875 0.9375,-3.1875 0.140625,-0.09375 0.328125,-0.140625 0.59375,-0.140625 0.4375,0 0.734375,0.0625 1.0625,0.21875 z m 0,0"
             id="id-e50eab98-8a76-491d-8239-ea5da9202ff5" />
        </g>
      </g>
    </g>
    <g
       transform="matrix(0.39572669,0,0,0.39572669,89.440799,118.99811)"
       ns1:version="1.10.2"
       ns1:texconverter="pdflatex"
       ns1:pdfconverter="inkscape"
       ns1:text="$d'$"
       ns1:preamble="/Users/sachchidanandprasad/Library/Application Support/org.inkscape.Inkscape/config/inkscape/extensions/textext/default_packages.tex"
       ns1:scale="1.5"
       ns1:alignment="middle center"
       ns1:stroke-to-path="0"
       ns1:jacobian_sqrt="0.529167"
       id="g16">
      <defs
         id="id-462357e0-2111-4d81-bce0-340f9f6d694e">
        <g
           id="id-9154027c-077d-4cb6-baec-b47ce8a5da8d">
          <g
             id="id-081888c8-7f10-4236-ab56-8219179330b5">
            <path
               d="M 4.8125,-7.203125 4.6875,-7.3125 c -0.515625,0.265625 -0.875,0.359375 -1.59375,0.421875 l -0.03125,0.21875 h 0.46875 c 0.25,0 0.34375,0.0625 0.34375,0.234375 0,0.078125 0,0.171875 -0.015625,0.234375 l -0.28125,1.53125 C 3.28125,-4.75 3.015625,-4.8125 2.765625,-4.8125 c -0.6875,0 -1.625,0.71875 -2.09375,1.59375 -0.296875,0.578125 -0.5,1.53125 -0.5,2.359375 0,0.65625 0.140625,0.96875 0.4375,0.96875 0.265625,0 0.640625,-0.171875 0.96875,-0.4375 C 2.125,-0.765625 2.453125,-1.15625 3.125,-2.15625 L 2.890625,-1.25 c -0.109375,0.4375 -0.15625,0.75 -0.15625,1.015625 0,0.203125 0.09375,0.328125 0.25,0.328125 0.171875,0 0.421875,-0.125 0.75,-0.375 L 4.546875,-0.875 4.453125,-1.0625 4,-0.75 c -0.125,0.09375 -0.296875,0.15625 -0.375,0.15625 -0.09375,0 -0.140625,-0.078125 -0.140625,-0.21875 0,-0.078125 0,-0.171875 0.078125,-0.46875 z M 3.359375,-3.5 C 3.1875,-2.625 2.6875,-1.75 2.078125,-1.15625 c -0.359375,0.328125 -0.75,0.5625 -0.9375,0.5625 -0.15625,0 -0.25,-0.140625 -0.25,-0.390625 0,-1.25 0.453125,-2.796875 0.9375,-3.1875 0.140625,-0.09375 0.328125,-0.140625 0.59375,-0.140625 0.4375,0 0.734375,0.0625 1.0625,0.21875 z m 0,0"
               id="id-12b4bc44-bb0f-463c-b331-a03915271b63" />
          </g>
          <g
             id="id-ed145c5c-197a-41e5-aa60-a34beccc6bfe">
            <path
               d="M 2,-3.75 C 2.03125,-3.84375 2.0625,-3.90625 2.0625,-4 c 0,-0.21875 -0.203125,-0.40625 -0.4375,-0.40625 -0.234375,0 -0.375,0.140625 -0.421875,0.34375 l -0.9375,3.453125 c 0,0.015625 -0.03125,0.109375 -0.03125,0.109375 0,0.09375 0.203125,0.140625 0.265625,0.140625 0.046875,0 0.046875,-0.015625 0.09375,-0.125 z m 0,0"
               id="id-295fa8f4-db0a-4986-a33d-f2a2bf76cd23" />
          </g>
        </g>
      </defs>
      <g
         fill="#000000"
         fill-opacity="1"
         id="id-0cc5c493-8be2-4804-81e6-77ecb514dd0c"
         transform="translate(-149.009,-126.742)">
        <g
           transform="translate(148.837,134.765)"
           id="g14">
          <path
             d="M 4.8125,-7.203125 4.6875,-7.3125 c -0.515625,0.265625 -0.875,0.359375 -1.59375,0.421875 l -0.03125,0.21875 h 0.46875 c 0.25,0 0.34375,0.0625 0.34375,0.234375 0,0.078125 0,0.171875 -0.015625,0.234375 l -0.28125,1.53125 C 3.28125,-4.75 3.015625,-4.8125 2.765625,-4.8125 c -0.6875,0 -1.625,0.71875 -2.09375,1.59375 -0.296875,0.578125 -0.5,1.53125 -0.5,2.359375 0,0.65625 0.140625,0.96875 0.4375,0.96875 0.265625,0 0.640625,-0.171875 0.96875,-0.4375 C 2.125,-0.765625 2.453125,-1.15625 3.125,-2.15625 L 2.890625,-1.25 c -0.109375,0.4375 -0.15625,0.75 -0.15625,1.015625 0,0.203125 0.09375,0.328125 0.25,0.328125 0.171875,0 0.421875,-0.125 0.75,-0.375 L 4.546875,-0.875 4.453125,-1.0625 4,-0.75 c -0.125,0.09375 -0.296875,0.15625 -0.375,0.15625 -0.09375,0 -0.140625,-0.078125 -0.140625,-0.21875 0,-0.078125 0,-0.171875 0.078125,-0.46875 z M 3.359375,-3.5 C 3.1875,-2.625 2.6875,-1.75 2.078125,-1.15625 c -0.359375,0.328125 -0.75,0.5625 -0.9375,0.5625 -0.15625,0 -0.25,-0.140625 -0.25,-0.390625 0,-1.25 0.453125,-2.796875 0.9375,-3.1875 0.140625,-0.09375 0.328125,-0.140625 0.59375,-0.140625 0.4375,0 0.734375,0.0625 1.0625,0.21875 z m 0,0"
             id="id-2fda579d-19b5-446f-8073-d20e6926a530" />
        </g>
      </g>
      <g
         fill="#000000"
         fill-opacity="1"
         id="id-8bfac23d-372d-4b4e-aec3-ca5de63f79ae"
         transform="translate(-149.009,-126.742)">
        <g
           transform="translate(154.037,131.148)"
           id="g15">
          <path
             d="M 2,-3.75 C 2.03125,-3.84375 2.0625,-3.90625 2.0625,-4 c 0,-0.21875 -0.203125,-0.40625 -0.4375,-0.40625 -0.234375,0 -0.375,0.140625 -0.421875,0.34375 l -0.9375,3.453125 c 0,0.015625 -0.03125,0.109375 -0.03125,0.109375 0,0.09375 0.203125,0.140625 0.265625,0.140625 0.046875,0 0.046875,-0.015625 0.09375,-0.125 z m 0,0"
             id="id-cf3753ba-b963-4374-a906-435a3fafd759" />
        </g>
      </g>
    </g>
    <g
       transform="matrix(0.39572669,0,0,0.39572669,98.562921,129.00623)"
       ns1:version="1.10.2"
       ns1:texconverter="pdflatex"
       ns1:pdfconverter="inkscape"
       ns1:text="$(1,-1)$"
       ns1:preamble="/Users/sachchidanandprasad/Library/Application Support/org.inkscape.Inkscape/config/inkscape/extensions/textext/default_packages.tex"
       ns1:scale="1.5"
       ns1:alignment="middle center"
       ns1:stroke-to-path="0"
       ns1:jacobian_sqrt="0.529167"
       id="g23">
      <defs
         id="id-0a2664f2-b025-4b26-804b-3b9df2ad6070">
        <g
           id="id-c20be79e-73d8-456a-b3c3-122fb94dba53">
          <g
             id="id-030b5c1c-9fe8-49c1-a022-009d035a19f5">
            <path
               d="m 3.4375,2.484375 c 0,-0.03125 0,-0.046875 -0.1875,-0.21875 C 1.953125,0.953125 1.625,-1 1.625,-2.59375 1.625,-4.40625 2.015625,-6.203125 3.296875,-7.5 3.4375,-7.625 3.4375,-7.640625 3.4375,-7.671875 3.4375,-7.75 3.390625,-7.78125 3.328125,-7.78125 c -0.09375,0 -1.03125,0.703125 -1.640625,2.015625 -0.53125,1.15625 -0.65625,2.296875 -0.65625,3.171875 0,0.8125 0.109375,2.0625 0.6875,3.234375 0.609375,1.28125 1.515625,1.953125 1.609375,1.953125 0.0625,0 0.109375,-0.03125 0.109375,-0.109375 z m 0,0"
               id="id-94c0af41-d929-4b13-b3d4-7074081d9a45" />
          </g>
          <g
             id="id-6d585aac-e027-4eba-90ca-c70f00647cd6">
            <path
               d="m 3,-2.59375 c 0,-0.8125 -0.109375,-2.0625 -0.6875,-3.234375 -0.625,-1.28125 -1.515625,-1.953125 -1.625,-1.953125 -0.046875,0 -0.09375,0.046875 -0.09375,0.109375 0,0.03125 0,0.046875 0.1875,0.234375 1.03125,1.03125 1.609375,2.671875 1.609375,4.84375 0,1.78125 -0.375,3.59375 -1.671875,4.90625 -0.125,0.125 -0.125,0.140625 -0.125,0.171875 0,0.0625 0.046875,0.109375 0.09375,0.109375 0.109375,0 1.046875,-0.703125 1.65625,-2.015625 C 2.875,-0.578125 3,-1.71875 3,-2.59375 Z m 0,0"
               id="id-7688d864-1a01-41d5-92c4-e0d82fdb317f" />
          </g>
          <g
             id="id-a7019412-3ddf-42ee-a118-1859f65a330d">
            <path
               d="m 0.671875,-5.53125 h 0.09375 l 1.28125,-0.578125 C 2.0625,-6.125 2.078125,-6.125 2.078125,-6.125 c 0.0625,0 0.078125,0.09375 0.078125,0.328125 v 4.84375 c 0,0.515625 -0.109375,0.625 -0.640625,0.65625 l -0.5625,0.03125 V 0.03125 C 2.5,0 2.5,0 2.609375,0 c 0.125,0 0.34375,0 0.6875,0.015625 0.109375,0 0.46875,0 0.875,0.015625 V -0.265625 L 3.65625,-0.296875 C 3.09375,-0.328125 3,-0.4375 3,-0.953125 V -6.875 L 2.859375,-6.921875 C 2.21875,-6.578125 1.5,-6.28125 0.59375,-5.96875 Z m 0,0"
               id="id-f707e92b-99d6-49a9-841b-04ad9792168e" />
          </g>
          <g
             id="id-ef63ca75-5182-4200-9f48-1bc9055cd0e2">
            <path
               d="m 2.03125,-1.21875 c -0.265625,0.078125 -0.453125,0.140625 -0.96875,0.296875 -0.078125,0.75 -0.328125,1.40625 -0.90625,2.359375 l 0.140625,0.109375 0.40625,-0.1875 C 1.515625,0.3125 1.890625,-0.3125 2.171875,-1.09375 Z m 0,0"
               id="id-83cbef4b-f628-48a1-b115-820394b8a2ab" />
          </g>
          <g
             id="id-71e9eba1-ffda-4a46-83b8-93e8b34f237b">
            <path
               d="m 6.84375,-2.390625 c 0.171875,0 0.359375,0 0.359375,-0.203125 0,-0.203125 -0.1875,-0.203125 -0.359375,-0.203125 h -5.625 c -0.171875,0 -0.359375,0 -0.359375,0.203125 0,0.203125 0.1875,0.203125 0.359375,0.203125 z m 0,0"
               id="id-b4206f4e-3a45-4923-a68c-e18a431cbc18" />
          </g>
        </g>
      </defs>
      <g
         fill="#000000"
         fill-opacity="1"
         id="id-364d266e-1b44-4cb5-b823-71b797aa019b"
         transform="translate(-149.868,-126.984)">
        <g
           transform="translate(148.837,134.765)"
           id="g17">
          <path
             d="m 3.4375,2.484375 c 0,-0.03125 0,-0.046875 -0.1875,-0.21875 C 1.953125,0.953125 1.625,-1 1.625,-2.59375 1.625,-4.40625 2.015625,-6.203125 3.296875,-7.5 3.4375,-7.625 3.4375,-7.640625 3.4375,-7.671875 3.4375,-7.75 3.390625,-7.78125 3.328125,-7.78125 c -0.09375,0 -1.03125,0.703125 -1.640625,2.015625 -0.53125,1.15625 -0.65625,2.296875 -0.65625,3.171875 0,0.8125 0.109375,2.0625 0.6875,3.234375 0.609375,1.28125 1.515625,1.953125 1.609375,1.953125 0.0625,0 0.109375,-0.03125 0.109375,-0.109375 z m 0,0"
             id="id-98d1dcf2-c9ce-467b-87c2-109be284fafe" />
        </g>
      </g>
      <g
         fill="#000000"
         fill-opacity="1"
         id="id-250f6749-8962-4b8a-a08d-46c06e85d2c9"
         transform="translate(-149.868,-126.984)">
        <g
           transform="translate(152.986,134.765)"
           id="g18">
          <path
             d="m 0.671875,-5.53125 h 0.09375 l 1.28125,-0.578125 C 2.0625,-6.125 2.078125,-6.125 2.078125,-6.125 c 0.0625,0 0.078125,0.09375 0.078125,0.328125 v 4.84375 c 0,0.515625 -0.109375,0.625 -0.640625,0.65625 l -0.5625,0.03125 V 0.03125 C 2.5,0 2.5,0 2.609375,0 c 0.125,0 0.34375,0 0.6875,0.015625 0.109375,0 0.46875,0 0.875,0.015625 V -0.265625 L 3.65625,-0.296875 C 3.09375,-0.328125 3,-0.4375 3,-0.953125 V -6.875 L 2.859375,-6.921875 C 2.21875,-6.578125 1.5,-6.28125 0.59375,-5.96875 Z m 0,0"
             id="id-266b9c37-940f-4e97-9de5-42adf78ce029" />
        </g>
        <g
           transform="translate(157.967,134.765)"
           id="g19">
          <path
             d="m 2.03125,-1.21875 c -0.265625,0.078125 -0.453125,0.140625 -0.96875,0.296875 -0.078125,0.75 -0.328125,1.40625 -0.90625,2.359375 l 0.140625,0.109375 0.40625,-0.1875 C 1.515625,0.3125 1.890625,-0.3125 2.171875,-1.09375 Z m 0,0"
             id="id-e4dd847d-1045-438e-b22b-9c66c9c7a1fd" />
        </g>
      </g>
      <g
         fill="#000000"
         fill-opacity="1"
         id="id-25c90faf-f3a4-4455-999d-f848f8cddf8d"
         transform="translate(-149.868,-126.984)">
        <g
           transform="translate(162.243,134.765)"
           id="g20">
          <path
             d="m 6.84375,-2.390625 c 0.171875,0 0.359375,0 0.359375,-0.203125 0,-0.203125 -0.1875,-0.203125 -0.359375,-0.203125 h -5.625 c -0.171875,0 -0.359375,0 -0.359375,0.203125 0,0.203125 0.1875,0.203125 0.359375,0.203125 z m 0,0"
             id="id-77042486-bec2-4235-b71c-0d995e3bb6ed" />
        </g>
      </g>
      <g
         fill="#000000"
         fill-opacity="1"
         id="id-70401164-fea4-483c-848c-aa05e0cc9252"
         transform="translate(-149.868,-126.984)">
        <g
           transform="translate(170.437,134.765)"
           id="g21">
          <path
             d="m 0.671875,-5.53125 h 0.09375 l 1.28125,-0.578125 C 2.0625,-6.125 2.078125,-6.125 2.078125,-6.125 c 0.0625,0 0.078125,0.09375 0.078125,0.328125 v 4.84375 c 0,0.515625 -0.109375,0.625 -0.640625,0.65625 l -0.5625,0.03125 V 0.03125 C 2.5,0 2.5,0 2.609375,0 c 0.125,0 0.34375,0 0.6875,0.015625 0.109375,0 0.46875,0 0.875,0.015625 V -0.265625 L 3.65625,-0.296875 C 3.09375,-0.328125 3,-0.4375 3,-0.953125 V -6.875 L 2.859375,-6.921875 C 2.21875,-6.578125 1.5,-6.28125 0.59375,-5.96875 Z m 0,0"
             id="id-b3b0410d-7ff6-4e22-8d8f-e1637ad9f1d3" />
        </g>
      </g>
      <g
         fill="#000000"
         fill-opacity="1"
         id="id-26d7e33c-6909-4413-b7fa-5c01050607e6"
         transform="translate(-149.868,-126.984)">
        <g
           transform="translate(175.543,134.765)"
           id="g22">
          <path
             d="m 3,-2.59375 c 0,-0.8125 -0.109375,-2.0625 -0.6875,-3.234375 -0.625,-1.28125 -1.515625,-1.953125 -1.625,-1.953125 -0.046875,0 -0.09375,0.046875 -0.09375,0.109375 0,0.03125 0,0.046875 0.1875,0.234375 1.03125,1.03125 1.609375,2.671875 1.609375,4.84375 0,1.78125 -0.375,3.59375 -1.671875,4.90625 -0.125,0.125 -0.125,0.140625 -0.125,0.171875 0,0.0625 0.046875,0.109375 0.09375,0.109375 0.109375,0 1.046875,-0.703125 1.65625,-2.015625 C 2.875,-0.578125 3,-1.71875 3,-2.59375 Z m 0,0"
             id="id-fce07f12-65fa-4857-a417-d80e9455d498" />
        </g>
      </g>
    </g>
    <g
       transform="matrix(0.39572669,0,0,0.39572669,99.83548,44.273796)"
       ns1:version="1.10.2"
       ns1:texconverter="pdflatex"
       ns1:pdfconverter="inkscape"
       ns1:text="$(1,1)$"
       ns1:preamble="/Users/sachchidanandprasad/Library/Application Support/org.inkscape.Inkscape/config/inkscape/extensions/textext/default_packages.tex"
       ns1:scale="1.5"
       ns1:alignment="middle center"
       ns1:stroke-to-path="0"
       ns1:jacobian_sqrt="0.529167"
       id="g29">
      <defs
         id="id-3bb18966-3335-4df6-88f4-b178c0b4378d">
        <g
           id="id-8c4c14dd-398c-4e38-aa21-ce412aef0a3b">
          <g
             id="id-ca77982d-fa13-49f4-a82b-15ad77c12277">
            <path
               d="m 3.4375,2.484375 c 0,-0.03125 0,-0.046875 -0.1875,-0.21875 C 1.953125,0.953125 1.625,-1 1.625,-2.59375 1.625,-4.40625 2.015625,-6.203125 3.296875,-7.5 3.4375,-7.625 3.4375,-7.640625 3.4375,-7.671875 3.4375,-7.75 3.390625,-7.78125 3.328125,-7.78125 c -0.09375,0 -1.03125,0.703125 -1.640625,2.015625 -0.53125,1.15625 -0.65625,2.296875 -0.65625,3.171875 0,0.8125 0.109375,2.0625 0.6875,3.234375 0.609375,1.28125 1.515625,1.953125 1.609375,1.953125 0.0625,0 0.109375,-0.03125 0.109375,-0.109375 z m 0,0"
               id="id-d777ea26-3779-4a6f-aa35-b174fc119788" />
          </g>
          <g
             id="id-54f99314-c0c2-429e-bb95-01bcb9ac9038">
            <path
               d="m 3,-2.59375 c 0,-0.8125 -0.109375,-2.0625 -0.6875,-3.234375 -0.625,-1.28125 -1.515625,-1.953125 -1.625,-1.953125 -0.046875,0 -0.09375,0.046875 -0.09375,0.109375 0,0.03125 0,0.046875 0.1875,0.234375 1.03125,1.03125 1.609375,2.671875 1.609375,4.84375 0,1.78125 -0.375,3.59375 -1.671875,4.90625 -0.125,0.125 -0.125,0.140625 -0.125,0.171875 0,0.0625 0.046875,0.109375 0.09375,0.109375 0.109375,0 1.046875,-0.703125 1.65625,-2.015625 C 2.875,-0.578125 3,-1.71875 3,-2.59375 Z m 0,0"
               id="id-6b1a7277-27a3-410b-9656-b584c0285fab" />
          </g>
          <g
             id="id-46144937-efc6-4a48-8556-be1475bfe3a6">
            <path
               d="m 0.671875,-5.53125 h 0.09375 l 1.28125,-0.578125 C 2.0625,-6.125 2.078125,-6.125 2.078125,-6.125 c 0.0625,0 0.078125,0.09375 0.078125,0.328125 v 4.84375 c 0,0.515625 -0.109375,0.625 -0.640625,0.65625 l -0.5625,0.03125 V 0.03125 C 2.5,0 2.5,0 2.609375,0 c 0.125,0 0.34375,0 0.6875,0.015625 0.109375,0 0.46875,0 0.875,0.015625 V -0.265625 L 3.65625,-0.296875 C 3.09375,-0.328125 3,-0.4375 3,-0.953125 V -6.875 L 2.859375,-6.921875 C 2.21875,-6.578125 1.5,-6.28125 0.59375,-5.96875 Z m 0,0"
               id="id-11be81a4-f196-4be8-9aae-111f8afa68d6" />
          </g>
          <g
             id="id-b9fabe51-74c3-41e0-900a-3d49d2ab1137">
            <path
               d="m 2.03125,-1.21875 c -0.265625,0.078125 -0.453125,0.140625 -0.96875,0.296875 -0.078125,0.75 -0.328125,1.40625 -0.90625,2.359375 l 0.140625,0.109375 0.40625,-0.1875 C 1.515625,0.3125 1.890625,-0.3125 2.171875,-1.09375 Z m 0,0"
               id="id-d4ec1a30-dbe2-449d-97ba-470972b46320" />
          </g>
        </g>
      </defs>
      <g
         fill="#000000"
         fill-opacity="1"
         id="id-79b13085-aa6e-4965-a49d-705206b20f08"
         transform="translate(-149.868,-126.984)">
        <g
           transform="translate(148.837,134.765)"
           id="g24">
          <path
             d="m 3.4375,2.484375 c 0,-0.03125 0,-0.046875 -0.1875,-0.21875 C 1.953125,0.953125 1.625,-1 1.625,-2.59375 1.625,-4.40625 2.015625,-6.203125 3.296875,-7.5 3.4375,-7.625 3.4375,-7.640625 3.4375,-7.671875 3.4375,-7.75 3.390625,-7.78125 3.328125,-7.78125 c -0.09375,0 -1.03125,0.703125 -1.640625,2.015625 -0.53125,1.15625 -0.65625,2.296875 -0.65625,3.171875 0,0.8125 0.109375,2.0625 0.6875,3.234375 0.609375,1.28125 1.515625,1.953125 1.609375,1.953125 0.0625,0 0.109375,-0.03125 0.109375,-0.109375 z m 0,0"
             id="id-9a290f14-42b2-4541-95ec-9e193dbd2275" />
        </g>
      </g>
      <g
         fill="#000000"
         fill-opacity="1"
         id="id-71849eb1-feec-442d-a5e0-69cdd6e8edc1"
         transform="translate(-149.868,-126.984)">
        <g
           transform="translate(152.986,134.765)"
           id="g25">
          <path
             d="m 0.671875,-5.53125 h 0.09375 l 1.28125,-0.578125 C 2.0625,-6.125 2.078125,-6.125 2.078125,-6.125 c 0.0625,0 0.078125,0.09375 0.078125,0.328125 v 4.84375 c 0,0.515625 -0.109375,0.625 -0.640625,0.65625 l -0.5625,0.03125 V 0.03125 C 2.5,0 2.5,0 2.609375,0 c 0.125,0 0.34375,0 0.6875,0.015625 0.109375,0 0.46875,0 0.875,0.015625 V -0.265625 L 3.65625,-0.296875 C 3.09375,-0.328125 3,-0.4375 3,-0.953125 V -6.875 L 2.859375,-6.921875 C 2.21875,-6.578125 1.5,-6.28125 0.59375,-5.96875 Z m 0,0"
             id="id-8a2d580a-6260-4b2e-b3ba-7d8bd4931a66" />
        </g>
        <g
           transform="translate(157.967,134.765)"
           id="g26">
          <path
             d="m 2.03125,-1.21875 c -0.265625,0.078125 -0.453125,0.140625 -0.96875,0.296875 -0.078125,0.75 -0.328125,1.40625 -0.90625,2.359375 l 0.140625,0.109375 0.40625,-0.1875 C 1.515625,0.3125 1.890625,-0.3125 2.171875,-1.09375 Z m 0,0"
             id="id-fba75765-437d-4fd1-939f-a90469e15d67" />
        </g>
      </g>
      <g
         fill="#000000"
         fill-opacity="1"
         id="id-e82130a3-040a-4310-9847-82e683b50511"
         transform="translate(-149.868,-126.984)">
        <g
           transform="translate(162.122,134.765)"
           id="g27">
          <path
             d="m 0.671875,-5.53125 h 0.09375 l 1.28125,-0.578125 C 2.0625,-6.125 2.078125,-6.125 2.078125,-6.125 c 0.0625,0 0.078125,0.09375 0.078125,0.328125 v 4.84375 c 0,0.515625 -0.109375,0.625 -0.640625,0.65625 l -0.5625,0.03125 V 0.03125 C 2.5,0 2.5,0 2.609375,0 c 0.125,0 0.34375,0 0.6875,0.015625 0.109375,0 0.46875,0 0.875,0.015625 V -0.265625 L 3.65625,-0.296875 C 3.09375,-0.328125 3,-0.4375 3,-0.953125 V -6.875 L 2.859375,-6.921875 C 2.21875,-6.578125 1.5,-6.28125 0.59375,-5.96875 Z m 0,0"
             id="id-4ca1b3c6-4553-434b-9ec1-df9fd49ee643" />
        </g>
      </g>
      <g
         fill="#000000"
         fill-opacity="1"
         id="id-dd72b04b-bca9-4924-a973-70af97620af5"
         transform="translate(-149.868,-126.984)">
        <g
           transform="translate(167.225,134.765)"
           id="g28">
          <path
             d="m 3,-2.59375 c 0,-0.8125 -0.109375,-2.0625 -0.6875,-3.234375 -0.625,-1.28125 -1.515625,-1.953125 -1.625,-1.953125 -0.046875,0 -0.09375,0.046875 -0.09375,0.109375 0,0.03125 0,0.046875 0.1875,0.234375 1.03125,1.03125 1.609375,2.671875 1.609375,4.84375 0,1.78125 -0.375,3.59375 -1.671875,4.90625 -0.125,0.125 -0.125,0.140625 -0.125,0.171875 0,0.0625 0.046875,0.109375 0.09375,0.109375 0.109375,0 1.046875,-0.703125 1.65625,-2.015625 C 2.875,-0.578125 3,-1.71875 3,-2.59375 Z m 0,0"
             id="id-38fc90a3-e6c3-4db2-abfb-16c85fc90645" />
        </g>
      </g>
    </g>
    <g
       transform="matrix(0.39572669,0,0,0.39572669,19.616188,43.713891)"
       ns1:version="1.10.2"
       ns1:texconverter="pdflatex"
       ns1:pdfconverter="inkscape"
       ns1:text="$(-1,1)$"
       ns1:preamble="/Users/sachchidanandprasad/Library/Application Support/org.inkscape.Inkscape/config/inkscape/extensions/textext/default_packages.tex"
       ns1:scale="1.5"
       ns1:alignment="middle center"
       ns1:stroke-to-path="0"
       ns1:jacobian_sqrt="0.529167"
       id="g36">
      <defs
         id="id-1bca619d-e473-4a79-a2e5-a87fe963ed11">
        <g
           id="id-a0fc74eb-554b-49d8-9d10-31016347d29d">
          <g
             id="id-3e3dfcfc-678a-45f5-b498-973721e4b2be">
            <path
               d="m 3.4375,2.484375 c 0,-0.03125 0,-0.046875 -0.1875,-0.21875 C 1.953125,0.953125 1.625,-1 1.625,-2.59375 1.625,-4.40625 2.015625,-6.203125 3.296875,-7.5 3.4375,-7.625 3.4375,-7.640625 3.4375,-7.671875 3.4375,-7.75 3.390625,-7.78125 3.328125,-7.78125 c -0.09375,0 -1.03125,0.703125 -1.640625,2.015625 -0.53125,1.15625 -0.65625,2.296875 -0.65625,3.171875 0,0.8125 0.109375,2.0625 0.6875,3.234375 0.609375,1.28125 1.515625,1.953125 1.609375,1.953125 0.0625,0 0.109375,-0.03125 0.109375,-0.109375 z m 0,0"
               id="id-56f2a49c-cbc3-47c6-8dff-799393dd06f1" />
          </g>
          <g
             id="id-5c649458-b30e-4450-b1a3-955d6a136d39">
            <path
               d="m 3,-2.59375 c 0,-0.8125 -0.109375,-2.0625 -0.6875,-3.234375 -0.625,-1.28125 -1.515625,-1.953125 -1.625,-1.953125 -0.046875,0 -0.09375,0.046875 -0.09375,0.109375 0,0.03125 0,0.046875 0.1875,0.234375 1.03125,1.03125 1.609375,2.671875 1.609375,4.84375 0,1.78125 -0.375,3.59375 -1.671875,4.90625 -0.125,0.125 -0.125,0.140625 -0.125,0.171875 0,0.0625 0.046875,0.109375 0.09375,0.109375 0.109375,0 1.046875,-0.703125 1.65625,-2.015625 C 2.875,-0.578125 3,-1.71875 3,-2.59375 Z m 0,0"
               id="id-17574a66-d32e-40ae-bae9-ecbcea7a5fc0" />
          </g>
          <g
             id="id-6e53272c-4cd4-4ce9-9e44-685e19d75231">
            <path
               d="m 6.84375,-2.390625 c 0.171875,0 0.359375,0 0.359375,-0.203125 0,-0.203125 -0.1875,-0.203125 -0.359375,-0.203125 h -5.625 c -0.171875,0 -0.359375,0 -0.359375,0.203125 0,0.203125 0.1875,0.203125 0.359375,0.203125 z m 0,0"
               id="id-6c5d6e94-10c1-4bea-9d7b-551c4f4a33a1" />
          </g>
          <g
             id="id-09267266-931e-422f-9068-d9543405da61">
            <path
               d="m 0.671875,-5.53125 h 0.09375 l 1.28125,-0.578125 C 2.0625,-6.125 2.078125,-6.125 2.078125,-6.125 c 0.0625,0 0.078125,0.09375 0.078125,0.328125 v 4.84375 c 0,0.515625 -0.109375,0.625 -0.640625,0.65625 l -0.5625,0.03125 V 0.03125 C 2.5,0 2.5,0 2.609375,0 c 0.125,0 0.34375,0 0.6875,0.015625 0.109375,0 0.46875,0 0.875,0.015625 V -0.265625 L 3.65625,-0.296875 C 3.09375,-0.328125 3,-0.4375 3,-0.953125 V -6.875 L 2.859375,-6.921875 C 2.21875,-6.578125 1.5,-6.28125 0.59375,-5.96875 Z m 0,0"
               id="id-3cc0719c-2f17-4723-8383-96585a25b920" />
          </g>
          <g
             id="id-c5f6352e-cbcc-44ec-8dec-d069d8595db4">
            <path
               d="m 2.03125,-1.21875 c -0.265625,0.078125 -0.453125,0.140625 -0.96875,0.296875 -0.078125,0.75 -0.328125,1.40625 -0.90625,2.359375 l 0.140625,0.109375 0.40625,-0.1875 C 1.515625,0.3125 1.890625,-0.3125 2.171875,-1.09375 Z m 0,0"
               id="id-c59cfc93-cf9d-4c0e-848a-88e73b01db9c" />
          </g>
        </g>
      </defs>
      <g
         fill="#000000"
         fill-opacity="1"
         id="id-c822c769-6aff-4b4d-94f3-8496e007b94a"
         transform="translate(-149.868,-126.984)">
        <g
           transform="translate(148.837,134.765)"
           id="g30">
          <path
             d="m 3.4375,2.484375 c 0,-0.03125 0,-0.046875 -0.1875,-0.21875 C 1.953125,0.953125 1.625,-1 1.625,-2.59375 1.625,-4.40625 2.015625,-6.203125 3.296875,-7.5 3.4375,-7.625 3.4375,-7.640625 3.4375,-7.671875 3.4375,-7.75 3.390625,-7.78125 3.328125,-7.78125 c -0.09375,0 -1.03125,0.703125 -1.640625,2.015625 -0.53125,1.15625 -0.65625,2.296875 -0.65625,3.171875 0,0.8125 0.109375,2.0625 0.6875,3.234375 0.609375,1.28125 1.515625,1.953125 1.609375,1.953125 0.0625,0 0.109375,-0.03125 0.109375,-0.109375 z m 0,0"
             id="id-561d05e6-f6f9-40d1-8564-1a4d73c2086d" />
        </g>
      </g>
      <g
         fill="#000000"
         fill-opacity="1"
         id="id-997f6fea-e8fd-4e5b-9d9a-a96a8b19ebda"
         transform="translate(-149.868,-126.984)">
        <g
           transform="translate(153.111,134.765)"
           id="g31">
          <path
             d="m 6.84375,-2.390625 c 0.171875,0 0.359375,0 0.359375,-0.203125 0,-0.203125 -0.1875,-0.203125 -0.359375,-0.203125 h -5.625 c -0.171875,0 -0.359375,0 -0.359375,0.203125 0,0.203125 0.1875,0.203125 0.359375,0.203125 z m 0,0"
             id="id-ad1674f8-f4a2-4eeb-8406-e62b2d6caeff" />
        </g>
      </g>
      <g
         fill="#000000"
         fill-opacity="1"
         id="id-f048c1a5-1f54-447c-8eda-cfb5a29ace7a"
         transform="translate(-149.868,-126.984)">
        <g
           transform="translate(161.305,134.765)"
           id="g32">
          <path
             d="m 0.671875,-5.53125 h 0.09375 l 1.28125,-0.578125 C 2.0625,-6.125 2.078125,-6.125 2.078125,-6.125 c 0.0625,0 0.078125,0.09375 0.078125,0.328125 v 4.84375 c 0,0.515625 -0.109375,0.625 -0.640625,0.65625 l -0.5625,0.03125 V 0.03125 C 2.5,0 2.5,0 2.609375,0 c 0.125,0 0.34375,0 0.6875,0.015625 0.109375,0 0.46875,0 0.875,0.015625 V -0.265625 L 3.65625,-0.296875 C 3.09375,-0.328125 3,-0.4375 3,-0.953125 V -6.875 L 2.859375,-6.921875 C 2.21875,-6.578125 1.5,-6.28125 0.59375,-5.96875 Z m 0,0"
             id="id-da9adefd-fb2e-4ae4-855a-933fd313d5f7" />
        </g>
        <g
           transform="translate(166.286,134.765)"
           id="g33">
          <path
             d="m 2.03125,-1.21875 c -0.265625,0.078125 -0.453125,0.140625 -0.96875,0.296875 -0.078125,0.75 -0.328125,1.40625 -0.90625,2.359375 l 0.140625,0.109375 0.40625,-0.1875 C 1.515625,0.3125 1.890625,-0.3125 2.171875,-1.09375 Z m 0,0"
             id="id-786b01a1-7f19-4ac1-8b70-0a09afe919de" />
        </g>
      </g>
      <g
         fill="#000000"
         fill-opacity="1"
         id="id-a651340e-694b-4d2f-8941-41f46204e02a"
         transform="translate(-149.868,-126.984)">
        <g
           transform="translate(170.441,134.765)"
           id="g34">
          <path
             d="m 0.671875,-5.53125 h 0.09375 l 1.28125,-0.578125 C 2.0625,-6.125 2.078125,-6.125 2.078125,-6.125 c 0.0625,0 0.078125,0.09375 0.078125,0.328125 v 4.84375 c 0,0.515625 -0.109375,0.625 -0.640625,0.65625 l -0.5625,0.03125 V 0.03125 C 2.5,0 2.5,0 2.609375,0 c 0.125,0 0.34375,0 0.6875,0.015625 0.109375,0 0.46875,0 0.875,0.015625 V -0.265625 L 3.65625,-0.296875 C 3.09375,-0.328125 3,-0.4375 3,-0.953125 V -6.875 L 2.859375,-6.921875 C 2.21875,-6.578125 1.5,-6.28125 0.59375,-5.96875 Z m 0,0"
             id="id-36469a67-96fd-4377-9241-8e8fed92b9e2" />
        </g>
      </g>
      <g
         fill="#000000"
         fill-opacity="1"
         id="id-017082d8-f61d-4977-a9af-7850be3bdb4a"
         transform="translate(-149.868,-126.984)">
        <g
           transform="translate(175.543,134.765)"
           id="g35">
          <path
             d="m 3,-2.59375 c 0,-0.8125 -0.109375,-2.0625 -0.6875,-3.234375 -0.625,-1.28125 -1.515625,-1.953125 -1.625,-1.953125 -0.046875,0 -0.09375,0.046875 -0.09375,0.109375 0,0.03125 0,0.046875 0.1875,0.234375 1.03125,1.03125 1.609375,2.671875 1.609375,4.84375 0,1.78125 -0.375,3.59375 -1.671875,4.90625 -0.125,0.125 -0.125,0.140625 -0.125,0.171875 0,0.0625 0.046875,0.109375 0.09375,0.109375 0.109375,0 1.046875,-0.703125 1.65625,-2.015625 C 2.875,-0.578125 3,-1.71875 3,-2.59375 Z m 0,0"
             id="id-0004e981-c2b3-4f6b-a7d1-1311056bd9d6" />
        </g>
      </g>
    </g>
    <g
       transform="matrix(0.39572669,0,0,0.39572669,20.023203,130.87258)"
       ns1:version="1.10.2"
       ns1:texconverter="pdflatex"
       ns1:pdfconverter="inkscape"
       ns1:text="$(-1,-1)$"
       ns1:preamble="/Users/sachchidanandprasad/Library/Application Support/org.inkscape.Inkscape/config/inkscape/extensions/textext/default_packages.tex"
       ns1:scale="1.5"
       ns1:alignment="middle center"
       ns1:stroke-to-path="0"
       ns1:jacobian_sqrt="0.529167"
       id="g44">
      <defs
         id="id-4e872dc5-8307-4234-a8e7-0c1f48c9b963">
        <g
           id="id-33ec4865-3e63-4747-87af-0a20e52c2c27">
          <g
             id="id-61446088-8ff6-4d13-a063-7019a7d22d47">
            <path
               d="m 3.4375,2.484375 c 0,-0.03125 0,-0.046875 -0.1875,-0.21875 C 1.953125,0.953125 1.625,-1 1.625,-2.59375 1.625,-4.40625 2.015625,-6.203125 3.296875,-7.5 3.4375,-7.625 3.4375,-7.640625 3.4375,-7.671875 3.4375,-7.75 3.390625,-7.78125 3.328125,-7.78125 c -0.09375,0 -1.03125,0.703125 -1.640625,2.015625 -0.53125,1.15625 -0.65625,2.296875 -0.65625,3.171875 0,0.8125 0.109375,2.0625 0.6875,3.234375 0.609375,1.28125 1.515625,1.953125 1.609375,1.953125 0.0625,0 0.109375,-0.03125 0.109375,-0.109375 z m 0,0"
               id="id-b580c2e2-5259-4d11-bab4-4ba98aada6fb" />
          </g>
          <g
             id="id-04348ac7-9ca8-447c-a12e-133cb299eecf">
            <path
               d="m 3,-2.59375 c 0,-0.8125 -0.109375,-2.0625 -0.6875,-3.234375 -0.625,-1.28125 -1.515625,-1.953125 -1.625,-1.953125 -0.046875,0 -0.09375,0.046875 -0.09375,0.109375 0,0.03125 0,0.046875 0.1875,0.234375 1.03125,1.03125 1.609375,2.671875 1.609375,4.84375 0,1.78125 -0.375,3.59375 -1.671875,4.90625 -0.125,0.125 -0.125,0.140625 -0.125,0.171875 0,0.0625 0.046875,0.109375 0.09375,0.109375 0.109375,0 1.046875,-0.703125 1.65625,-2.015625 C 2.875,-0.578125 3,-1.71875 3,-2.59375 Z m 0,0"
               id="id-05c06352-8855-4f78-ad25-eb30b97f1c0b" />
          </g>
          <g
             id="id-53fd9710-392a-4301-91ac-4ff6fd566030">
            <path
               d="m 6.84375,-2.390625 c 0.171875,0 0.359375,0 0.359375,-0.203125 0,-0.203125 -0.1875,-0.203125 -0.359375,-0.203125 h -5.625 c -0.171875,0 -0.359375,0 -0.359375,0.203125 0,0.203125 0.1875,0.203125 0.359375,0.203125 z m 0,0"
               id="id-00f2cd32-1780-4e02-93d6-54e1c874b699" />
          </g>
          <g
             id="id-e7922d8b-2a96-4ccf-8802-5653e1f21078">
            <path
               d="m 0.671875,-5.53125 h 0.09375 l 1.28125,-0.578125 C 2.0625,-6.125 2.078125,-6.125 2.078125,-6.125 c 0.0625,0 0.078125,0.09375 0.078125,0.328125 v 4.84375 c 0,0.515625 -0.109375,0.625 -0.640625,0.65625 l -0.5625,0.03125 V 0.03125 C 2.5,0 2.5,0 2.609375,0 c 0.125,0 0.34375,0 0.6875,0.015625 0.109375,0 0.46875,0 0.875,0.015625 V -0.265625 L 3.65625,-0.296875 C 3.09375,-0.328125 3,-0.4375 3,-0.953125 V -6.875 L 2.859375,-6.921875 C 2.21875,-6.578125 1.5,-6.28125 0.59375,-5.96875 Z m 0,0"
               id="id-5e0acd9e-16fe-467b-9e26-cded40c822ac" />
          </g>
          <g
             id="id-169e0e23-7b22-42de-97e3-6b6d0c49385c">
            <path
               d="m 2.03125,-1.21875 c -0.265625,0.078125 -0.453125,0.140625 -0.96875,0.296875 -0.078125,0.75 -0.328125,1.40625 -0.90625,2.359375 l 0.140625,0.109375 0.40625,-0.1875 C 1.515625,0.3125 1.890625,-0.3125 2.171875,-1.09375 Z m 0,0"
               id="id-6560ce7a-1e82-4672-854a-6421c3a99828" />
          </g>
        </g>
      </defs>
      <g
         fill="#000000"
         fill-opacity="1"
         id="id-836d3c4f-194a-481d-8dfb-a3e7418d9d49"
         transform="translate(-149.868,-126.984)">
        <g
           transform="translate(148.837,134.765)"
           id="g37">
          <path
             d="m 3.4375,2.484375 c 0,-0.03125 0,-0.046875 -0.1875,-0.21875 C 1.953125,0.953125 1.625,-1 1.625,-2.59375 1.625,-4.40625 2.015625,-6.203125 3.296875,-7.5 3.4375,-7.625 3.4375,-7.640625 3.4375,-7.671875 3.4375,-7.75 3.390625,-7.78125 3.328125,-7.78125 c -0.09375,0 -1.03125,0.703125 -1.640625,2.015625 -0.53125,1.15625 -0.65625,2.296875 -0.65625,3.171875 0,0.8125 0.109375,2.0625 0.6875,3.234375 0.609375,1.28125 1.515625,1.953125 1.609375,1.953125 0.0625,0 0.109375,-0.03125 0.109375,-0.109375 z m 0,0"
             id="id-e6163acc-5d5e-452c-ac40-fe7f73510012" />
        </g>
      </g>
      <g
         fill="#000000"
         fill-opacity="1"
         id="id-4f51f0e3-9e67-4eab-843d-efdb5622a5ff"
         transform="translate(-149.868,-126.984)">
        <g
           transform="translate(153.111,134.765)"
           id="g38">
          <path
             d="m 6.84375,-2.390625 c 0.171875,0 0.359375,0 0.359375,-0.203125 0,-0.203125 -0.1875,-0.203125 -0.359375,-0.203125 h -5.625 c -0.171875,0 -0.359375,0 -0.359375,0.203125 0,0.203125 0.1875,0.203125 0.359375,0.203125 z m 0,0"
             id="id-c7c5f3f5-a24c-4e33-b372-1c6f27194371" />
        </g>
      </g>
      <g
         fill="#000000"
         fill-opacity="1"
         id="id-3ba9d487-8d1e-4793-b306-57210d6740d7"
         transform="translate(-149.868,-126.984)">
        <g
           transform="translate(161.305,134.765)"
           id="g39">
          <path
             d="m 0.671875,-5.53125 h 0.09375 l 1.28125,-0.578125 C 2.0625,-6.125 2.078125,-6.125 2.078125,-6.125 c 0.0625,0 0.078125,0.09375 0.078125,0.328125 v 4.84375 c 0,0.515625 -0.109375,0.625 -0.640625,0.65625 l -0.5625,0.03125 V 0.03125 C 2.5,0 2.5,0 2.609375,0 c 0.125,0 0.34375,0 0.6875,0.015625 0.109375,0 0.46875,0 0.875,0.015625 V -0.265625 L 3.65625,-0.296875 C 3.09375,-0.328125 3,-0.4375 3,-0.953125 V -6.875 L 2.859375,-6.921875 C 2.21875,-6.578125 1.5,-6.28125 0.59375,-5.96875 Z m 0,0"
             id="id-3ea3897f-21d8-4070-85de-045c7752ff2b" />
        </g>
        <g
           transform="translate(166.286,134.765)"
           id="g40">
          <path
             d="m 2.03125,-1.21875 c -0.265625,0.078125 -0.453125,0.140625 -0.96875,0.296875 -0.078125,0.75 -0.328125,1.40625 -0.90625,2.359375 l 0.140625,0.109375 0.40625,-0.1875 C 1.515625,0.3125 1.890625,-0.3125 2.171875,-1.09375 Z m 0,0"
             id="id-b55f8dd4-f2d3-4556-aefa-d614e201394d" />
        </g>
      </g>
      <g
         fill="#000000"
         fill-opacity="1"
         id="id-50dda0d2-b06d-4002-9720-5d150e113cc0"
         transform="translate(-149.868,-126.984)">
        <g
           transform="translate(170.562,134.765)"
           id="g41">
          <path
             d="m 6.84375,-2.390625 c 0.171875,0 0.359375,0 0.359375,-0.203125 0,-0.203125 -0.1875,-0.203125 -0.359375,-0.203125 h -5.625 c -0.171875,0 -0.359375,0 -0.359375,0.203125 0,0.203125 0.1875,0.203125 0.359375,0.203125 z m 0,0"
             id="id-40b31988-5ea5-4751-9c0b-0b6e01b94c8b" />
        </g>
      </g>
      <g
         fill="#000000"
         fill-opacity="1"
         id="id-16afc85d-6f6a-48d0-a935-001de750ac07"
         transform="translate(-149.868,-126.984)">
        <g
           transform="translate(178.756,134.765)"
           id="g42">
          <path
             d="m 0.671875,-5.53125 h 0.09375 l 1.28125,-0.578125 C 2.0625,-6.125 2.078125,-6.125 2.078125,-6.125 c 0.0625,0 0.078125,0.09375 0.078125,0.328125 v 4.84375 c 0,0.515625 -0.109375,0.625 -0.640625,0.65625 l -0.5625,0.03125 V 0.03125 C 2.5,0 2.5,0 2.609375,0 c 0.125,0 0.34375,0 0.6875,0.015625 0.109375,0 0.46875,0 0.875,0.015625 V -0.265625 L 3.65625,-0.296875 C 3.09375,-0.328125 3,-0.4375 3,-0.953125 V -6.875 L 2.859375,-6.921875 C 2.21875,-6.578125 1.5,-6.28125 0.59375,-5.96875 Z m 0,0"
             id="id-0cb0eb16-3700-4474-a313-0de2d3d84157" />
        </g>
      </g>
      <g
         fill="#000000"
         fill-opacity="1"
         id="id-af868709-c943-4d63-9de0-35466eda5921"
         transform="translate(-149.868,-126.984)">
        <g
           transform="translate(183.862,134.765)"
           id="g43">
          <path
             d="m 3,-2.59375 c 0,-0.8125 -0.109375,-2.0625 -0.6875,-3.234375 -0.625,-1.28125 -1.515625,-1.953125 -1.625,-1.953125 -0.046875,0 -0.09375,0.046875 -0.09375,0.109375 0,0.03125 0,0.046875 0.1875,0.234375 1.03125,1.03125 1.609375,2.671875 1.609375,4.84375 0,1.78125 -0.375,3.59375 -1.671875,4.90625 -0.125,0.125 -0.125,0.140625 -0.125,0.171875 0,0.0625 0.046875,0.109375 0.09375,0.109375 0.109375,0 1.046875,-0.703125 1.65625,-2.015625 C 2.875,-0.578125 3,-1.71875 3,-2.59375 Z m 0,0"
             id="id-786cab8b-36fc-48f3-bdf2-415c100860de" />
        </g>
      </g>
    </g>
  </g>
</svg>
