<?xml version="1.0" encoding="UTF-8" standalone="no"?>
<!-- Created with Inkscape (http://www.inkscape.org/) -->

<svg
   width="106.81632mm"
   height="94.883614mm"
   viewBox="0 0 403.71523 358.61524"
   version="1.1"
   id="svg1"
   inkscape:version="1.3 (1:1.3+202307231459+0e150ed6c4)"
   sodipodi:docname="prob-27-10-23_01.svg"
   xmlns:inkscape="http://www.inkscape.org/namespaces/inkscape"
   xmlns:sodipodi="http://sodipodi.sourceforge.net/DTD/sodipodi-0.dtd"
   xmlns="http://www.w3.org/2000/svg"
   xmlns:svg="http://www.w3.org/2000/svg">
  <sodipodi:namedview
     id="namedview1"
     pagecolor="#ffffff"
     bordercolor="#999999"
     borderopacity="1"
     inkscape:showpageshadow="true"
     inkscape:pageopacity="0"
     inkscape:pagecheckerboard="false"
     inkscape:deskcolor="#d1d1d1"
     inkscape:document-units="px"
     showborder="false"
     labelstyle="default"
     inkscape:clip-to-page="false"
     inkscape:zoom="1"
     inkscape:cx="293.5"
     inkscape:cy="155.5"
     inkscape:window-width="1920"
     inkscape:window-height="1012"
     inkscape:window-x="0"
     inkscape:window-y="32"
     inkscape:window-maximized="1"
     inkscape:current-layer="layer1" />
  <defs
     id="defs1">
    <marker
       style="overflow:visible"
       id="ConcaveTriangle"
       refX="0"
       refY="0"
       orient="auto-start-reverse"
       inkscape:stockid="Concave triangle arrow"
       markerWidth="1"
       markerHeight="1"
       viewBox="0 0 1 1"
       inkscape:isstock="true"
       inkscape:collect="always"
       preserveAspectRatio="xMidYMid">
      <path
         transform="scale(0.7)"
         d="M -2,-4 9,0 -2,4 c 2,-2.33 2,-5.66 0,-8 z"
         style="fill:context-stroke;fill-rule:evenodd;stroke:none"
         id="path7" />
    </marker>
  </defs>
  <g
     inkscape:label="Layer 1"
     inkscape:groupmode="layer"
     id="layer1"
     transform="translate(-201.13665,-322.25352)">
    <path
       style="fill:none;stroke:#000000;stroke-width:1.88977;stroke-linecap:butt;stroke-linejoin:miter;stroke-dasharray:none;stroke-opacity:1;marker-end:url(#ConcaveTriangle)"
       d="M 352.39793,680.86874 V 334.15907"
       id="path1" />
    <path
       style="fill:none;stroke:#000000;stroke-width:1.88976;stroke-linecap:butt;stroke-linejoin:miter;stroke-dasharray:none;stroke-opacity:1;marker-end:url(#ConcaveTriangle)"
       d="M 201.13665,501.5301 H 592.94641"
       id="path2" />
    <circle
       style="font-variation-settings:normal;opacity:1;vector-effect:none;fill:none;fill-opacity:1;fill-rule:evenodd;stroke:#0000ff;stroke-width:2.96489;stroke-linecap:butt;stroke-linejoin:miter;stroke-miterlimit:4;stroke-dasharray:none;stroke-dashoffset:0;stroke-opacity:1;-inkscape-stroke:none;stop-color:#000000;stop-opacity:1"
       id="path3"
       cx="460.07034"
       cy="501.53009"
       r="107.6724" />
    <g
       inkscape:label=""
       transform="translate(439.01066,507.21545)"
       id="g4">
      <g
         id="surface1"
         transform="matrix(1.33333,0,0,1.33333,-5.11017,-2.67317)">
        <g
           style="fill:#000000;fill-opacity:1"
           id="g9">
          <g
             id="use8"
             transform="translate(2.1919999,14.458)">
            <path
               style="stroke:none"
               d="M 5.5,3.984375 C 5.5,3.9375 5.5,3.90625 5.21875,3.625 3.140625,1.53125 2.609375,-1.609375 2.609375,-4.15625 c 0,-2.890625 0.625,-5.78125 2.671875,-7.859375 C 5.5,-12.203125 5.5,-12.234375 5.5,-12.296875 c 0,-0.109375 -0.0625,-0.15625 -0.171875,-0.15625 -0.15625,0 -1.65625,1.125 -2.640625,3.234375 -0.84375,1.828125 -1.046875,3.671875 -1.046875,5.0625 0,1.296875 0.1875,3.3125 1.09375,5.1875 1,2.046875 2.4375,3.125 2.59375,3.125 C 5.4375,4.15625 5.5,4.109375 5.5,3.984375 Z m 0,0"
               id="path13" />
          </g>
        </g>
        <g
           style="fill:#000000;fill-opacity:1"
           id="g10">
          <g
             id="use9"
             transform="translate(9.2690001,14.458)">
            <path
               style="stroke:none"
               d="M 6.40625,-7.515625 6.25,-7.671875 5.71875,-7.375 C 5.0625,-7.625 4.796875,-7.6875 4.359375,-7.6875 c -0.4375,0 -0.75,0.078125 -1.1875,0.296875 -0.984375,0.484375 -1.515625,0.96875 -1.90625,1.75 C 0.5625,-4.21875 0.0625,-2.3125 0.0625,-1.0625 c 0,0.703125 0.234375,1.234375 0.546875,1.234375 0.34375,0 0.953125,-0.34375 1.5625,-0.890625 C 2.84375,-1.328125 3.453125,-2.046875 4.3125,-3.25 l -0.453125,2.015625 c -0.0625,0.28125 -0.09375,0.5625 -0.09375,0.8125 0,0.359375 0.140625,0.5625 0.375,0.5625 0.375,0 1.015625,-0.40625 2.328125,-1.5 L 6.359375,-1.6875 c -0.09375,0.078125 -0.140625,0.109375 -0.203125,0.171875 -0.515625,0.4375 -0.75,0.578125 -1,0.578125 -0.140625,0 -0.234375,-0.140625 -0.234375,-0.375 0,-0.078125 0,-0.125 0.015625,-0.171875 z M 5.078125,-6.59375 c -0.34375,1.734375 -0.640625,2.5625 -1.1875,3.390625 -0.90625,1.34375 -1.875,2.265625 -2.390625,2.265625 -0.1875,0 -0.28125,-0.203125 -0.28125,-0.640625 0,-1.015625 0.4375,-2.890625 1,-4.15625 0.375,-0.875 0.75,-1.171875 1.515625,-1.171875 0.359375,0 0.65625,0.0625 1.34375,0.3125 z m 0,0"
               id="path14" />
          </g>
        </g>
        <g
           style="fill:#000000;fill-opacity:1"
           id="g11">
          <g
             id="use10"
             transform="translate(16.546,14.458)">
            <path
               style="stroke:none"
               d="M 3.25,-1.953125 C 2.828125,-1.8125 2.53125,-1.71875 1.6875,-1.484375 1.578125,-0.265625 1.171875,0.765625 0.25,2.296875 L 0.484375,2.46875 1.125,2.171875 C 2.421875,0.5 3.03125,-0.515625 3.46875,-1.734375 Z m 0,0"
               id="path15" />
          </g>
        </g>
        <g
           style="fill:#000000;fill-opacity:1"
           id="g12">
          <g
             id="use11"
             transform="translate(23.193064,14.458)">
            <path
               style="stroke:none"
               d="m 4.1875,-10.984375 c -2.46875,0 -3.71875,1.96875 -3.71875,5.828125 0,1.859375 0.328125,3.46875 0.890625,4.25 0.546875,0.78125 1.453125,1.21875 2.4375,1.21875 2.40625,0 3.609375,-2.0625 3.609375,-6.140625 0,-3.5 -1.03125,-5.15625 -3.21875,-5.15625 z m -0.28125,0.5625 c 1.546875,0 2.171875,1.5625 2.171875,5.390625 0,3.390625 -0.609375,4.796875 -2.078125,4.796875 -1.546875,0 -2.203125,-1.609375 -2.203125,-5.5 0,-3.359375 0.59375,-4.6875 2.109375,-4.6875 z m 0,0"
               id="path16" />
          </g>
        </g>
        <g
           style="fill:#000000;fill-opacity:1"
           id="g13">
          <g
             id="use12"
             transform="translate(31.357,14.458)">
            <path
               style="stroke:none"
               d="m 4.796875,-4.15625 c 0,-1.296875 -0.171875,-3.296875 -1.09375,-5.171875 -1,-2.046875 -2.421875,-3.125 -2.59375,-3.125 -0.09375,0 -0.15625,0.0625 -0.15625,0.15625 0,0.0625 0,0.09375 0.3125,0.390625 1.625,1.640625 2.578125,4.28125 2.578125,7.75 0,2.84375 -0.625,5.765625 -2.6875,7.859375 C 0.953125,3.90625 0.953125,3.9375 0.953125,3.984375 c 0,0.09375 0.0625,0.171875 0.15625,0.171875 0.171875,0 1.671875,-1.140625 2.640625,-3.25 0.84375,-1.8125 1.046875,-3.65625 1.046875,-5.0625 z m 0,0"
               id="path17" />
          </g>
        </g>
      </g>
    </g>
    <path
       style="font-variation-settings:normal;opacity:1;vector-effect:none;fill:none;fill-opacity:1;stroke:#000000;stroke-width:1.88976;stroke-linecap:butt;stroke-linejoin:miter;stroke-miterlimit:4;stroke-dasharray:none;stroke-dashoffset:0;stroke-opacity:1;-inkscape-stroke:none;marker-end:url(#ConcaveTriangle);stop-color:#000000;stop-opacity:1"
       d="m 460.07034,501.53009 62.75103,-70.3521"
       id="path5"
       sodipodi:nodetypes="cc" />
    <circle
       id="path4"
       style="fill:#ff0000;stroke:none;stroke-width:1"
       cx="460.07034"
       cy="501.53009"
       r="4.3757324" />
    <g
       inkscape:label=""
       transform="translate(482.10555,452.54645)"
       id="g7">
      <g
         id="g6"
         transform="matrix(1.33333,0,0,1.33333,-3.32467,-2.68333)">
        <g
           style="fill:#000000;fill-opacity:1"
           id="g3">
          <g
             id="use2"
             transform="translate(2.431,9.6999998)">
            <path
               style="stroke:none"
               d="M 6.40625,-7.515625 6.25,-7.671875 5.71875,-7.375 C 5.0625,-7.625 4.796875,-7.6875 4.359375,-7.6875 c -0.4375,0 -0.75,0.078125 -1.1875,0.296875 -0.984375,0.484375 -1.515625,0.96875 -1.90625,1.75 C 0.5625,-4.21875 0.0625,-2.3125 0.0625,-1.0625 c 0,0.703125 0.234375,1.234375 0.546875,1.234375 0.34375,0 0.953125,-0.34375 1.5625,-0.890625 C 2.84375,-1.328125 3.453125,-2.046875 4.3125,-3.25 l -0.453125,2.015625 c -0.0625,0.28125 -0.09375,0.5625 -0.09375,0.8125 0,0.359375 0.140625,0.5625 0.375,0.5625 0.375,0 1.015625,-0.40625 2.328125,-1.5 L 6.359375,-1.6875 c -0.09375,0.078125 -0.140625,0.109375 -0.203125,0.171875 -0.515625,0.4375 -0.75,0.578125 -1,0.578125 -0.140625,0 -0.234375,-0.140625 -0.234375,-0.375 0,-0.078125 0,-0.125 0.015625,-0.171875 z M 5.078125,-6.59375 c -0.34375,1.734375 -0.640625,2.5625 -1.1875,3.390625 -0.90625,1.34375 -1.875,2.265625 -2.390625,2.265625 -0.1875,0 -0.28125,-0.203125 -0.28125,-0.640625 0,-1.015625 0.4375,-2.890625 1,-4.15625 0.375,-0.875 0.75,-1.171875 1.515625,-1.171875 0.359375,0 0.65625,0.0625 1.34375,0.3125 z m 0,0"
               id="path6" />
          </g>
        </g>
      </g>
    </g>
  </g>
</svg>
