<?xml version="1.0" encoding="UTF-8" standalone="no"?>
<!-- Created with Inkscape (http://www.inkscape.org/) -->

<svg
   width="308.65186mm"
   height="55.743607mm"
   viewBox="0 0 308.65186 55.743607"
   version="1.1"
   id="svg5"
   sodipodi:docname="prob-05-02-23_01.svg"
   inkscape:version="1.2.2 (1:1.2.2+202212051550+b0a8486541)"
   xmlns:inkscape="http://www.inkscape.org/namespaces/inkscape"
   xmlns:sodipodi="http://sodipodi.sourceforge.net/DTD/sodipodi-0.dtd"
   xmlns="http://www.w3.org/2000/svg"
   xmlns:svg="http://www.w3.org/2000/svg">
  <sodipodi:namedview
     id="namedview7"
     pagecolor="#ffffff"
     bordercolor="#999999"
     borderopacity="1"
     inkscape:showpageshadow="0"
     inkscape:pageopacity="0"
     inkscape:pagecheckerboard="0"
     inkscape:deskcolor="#d1d1d1"
     inkscape:document-units="mm"
     showgrid="false"
     inkscape:zoom="0.70710678"
     inkscape:cx="479.4184"
     inkscape:cy="146.3711"
     inkscape:window-width="1600"
     inkscape:window-height="832"
     inkscape:window-x="0"
     inkscape:window-y="32"
     inkscape:window-maximized="1"
     inkscape:current-layer="layer1" />
  <defs
     id="defs2">
    <marker
       style="overflow:visible"
       id="Arrow5"
       refX="0"
       refY="0"
       orient="auto-start-reverse"
       inkscape:stockid="Arrow5"
       markerWidth="5.8874264"
       markerHeight="6.6094756"
       viewBox="0 0 5.8874262 6.6094758"
       inkscape:isstock="true"
       inkscape:collect="always"
       preserveAspectRatio="xMidYMid">
      <path
         transform="scale(0.5)"
         style="fill:context-stroke;fill-rule:evenodd;stroke:context-stroke;stroke-width:1pt"
         d="m 6,0 c -3,1 -7,3 -9,5 0,0 0,-4 2,-5 -2,-1 -2,-5 -2,-5 2,2 6,4 9,5 z"
         id="path8893" />
    </marker>
    <clipPath
       id="clipPath3254">
      <path
         d="M 0,0 H 8.847656 V 7.410156 H 0 Z m 0,0"
         id="path7589" />
    </clipPath>
    <clipPath
       id="clipPath3453">
      <path
         d="M 0,0 H 7 V 11.953125 H 0 Z m 0,0"
         id="path5356" />
    </clipPath>
    <clipPath
       id="clipPath6748">
      <path
         d="M 0,0 H 7.253906 V 7.410156 H 0 Z m 0,0"
         id="path6755" />
    </clipPath>
    <clipPath
       id="clipPath5562">
      <path
         d="M 0,0 H 7.894531 V 11.097656 H 0 Z m 0,0"
         id="path9427" />
    </clipPath>
    <clipPath
       id="clipPath3897">
      <path
         d="M 1,0 H 7 V 11.097656 H 1 Z m 0,0"
         id="path4628" />
    </clipPath>
    <clipPath
       id="clipPath7652">
      <path
         d="M 1,0 H 6 V 17.1875 H 1 Z m 0,0"
         id="path6507" />
    </clipPath>
    <clipPath
       id="clipPath4030">
      <path
         d="m 28,0 h 4 v 17.1875 h -4 z m 0,0"
         id="path2316" />
    </clipPath>
    <clipPath
       id="clipPath6591">
      <path
         d="m 39,5 h 6.859375 v 9 H 39 Z m 0,0"
         id="path7001" />
    </clipPath>
    <clipPath
       id="clipPath4903">
      <path
         d="M 1,0 H 6 V 17.1875 H 1 Z m 0,0"
         id="path4251" />
    </clipPath>
    <clipPath
       id="clipPath7910">
      <path
         d="m 28,0 h 4 v 17.1875 h -4 z m 0,0"
         id="path9358" />
    </clipPath>
    <clipPath
       id="clipPath6103">
      <path
         d="m 39,0 h 6.859375 V 14 H 39 Z m 0,0"
         id="path1463" />
    </clipPath>
    <clipPath
       id="clipPath361">
      <path
         d="M 1,0 H 6 V 17.1875 H 1 Z m 0,0"
         id="path3677" />
    </clipPath>
    <clipPath
       id="clipPath1037">
      <path
         d="m 26,0 h 5 v 17.1875 h -5 z m 0,0"
         id="path9283" />
    </clipPath>
    <clipPath
       id="clipPath1801">
      <path
         d="m 37,5 h 8.859375 v 9 H 37 Z m 0,0"
         id="path8202" />
    </clipPath>
    <clipPath
       id="clipPath7652-0">
      <path
         d="M 1,0 H 6 V 17.1875 H 1 Z m 0,0"
         id="path6507-6" />
    </clipPath>
    <clipPath
       id="clipPath4030-1">
      <path
         d="m 28,0 h 4 v 17.1875 h -4 z m 0,0"
         id="path2316-5" />
    </clipPath>
    <clipPath
       id="clipPath6591-5">
      <path
         d="m 39,5 h 6.859375 v 9 H 39 Z m 0,0"
         id="path7001-4" />
    </clipPath>
    <clipPath
       id="clipPath7652-8">
      <path
         d="M 1,0 H 6 V 17.1875 H 1 Z m 0,0"
         id="path6507-8" />
    </clipPath>
    <clipPath
       id="clipPath4030-4">
      <path
         d="m 28,0 h 4 v 17.1875 h -4 z m 0,0"
         id="path2316-3" />
    </clipPath>
    <clipPath
       id="clipPath6591-1">
      <path
         d="m 39,5 h 6.859375 v 9 H 39 Z m 0,0"
         id="path7001-49" />
    </clipPath>
  </defs>
  <g
     inkscape:label="Layer 1"
     inkscape:groupmode="layer"
     id="layer1"
     transform="translate(-48.45702,43.719231)">
    <ellipse
       style="font-variation-settings:normal;opacity:1;vector-effect:none;fill:#f0f00e;fill-opacity:1;fill-rule:evenodd;stroke:#4d4d4d;stroke-width:0.5;stroke-linecap:butt;stroke-linejoin:miter;stroke-miterlimit:4;stroke-dasharray:none;stroke-dashoffset:0;stroke-opacity:1;-inkscape-stroke:none;paint-order:fill stroke markers;stop-color:#000000;stop-opacity:1"
       id="ellipse1003"
       cx="63.385326"
       cy="-16.276917"
       rx="14.678307"
       ry="27.192314" />
    <ellipse
       style="font-variation-settings:normal;opacity:1;vector-effect:none;fill:#ffb380;fill-opacity:1;fill-rule:evenodd;stroke:#4d4d4d;stroke-width:0.5;stroke-linecap:butt;stroke-linejoin:miter;stroke-miterlimit:4;stroke-dasharray:none;stroke-dashoffset:0;stroke-opacity:1;-inkscape-stroke:none;paint-order:fill stroke markers;stop-color:#000000;stop-opacity:1"
       id="ellipse1005"
       cx="126.10146"
       cy="-16.276917"
       rx="14.678307"
       ry="27.192314" />
    <g
       id="path3578"
       transform="matrix(0.49782302,0,0,0.51726573,101.83293,-4.7930814)"
       style="stroke-width:1.97063" />
    <ellipse
       style="font-variation-settings:normal;opacity:1;vector-effect:none;fill:#f0f00e;fill-opacity:1;fill-rule:evenodd;stroke:#4d4d4d;stroke-width:0.5;stroke-linecap:butt;stroke-linejoin:miter;stroke-miterlimit:4;stroke-dasharray:none;stroke-dashoffset:0;stroke-opacity:1;-inkscape-stroke:none;paint-order:fill stroke markers;stop-color:#000000;stop-opacity:1"
       id="ellipse10832"
       cx="165.9697"
       cy="-16.276917"
       rx="14.678307"
       ry="27.192314" />
    <ellipse
       style="font-variation-settings:normal;opacity:1;vector-effect:none;fill:#ffb380;fill-opacity:1;fill-rule:evenodd;stroke:#4d4d4d;stroke-width:0.5;stroke-linecap:butt;stroke-linejoin:miter;stroke-miterlimit:4;stroke-dasharray:none;stroke-dashoffset:0;stroke-opacity:1;-inkscape-stroke:none;paint-order:fill stroke markers;stop-color:#000000;stop-opacity:1"
       id="ellipse10834"
       cx="228.68581"
       cy="-16.276917"
       rx="14.678307"
       ry="27.192314" />
    <g
       id="path10836"
       transform="matrix(0.49782302,0,0,0.51726573,101.83293,-4.7930814)"
       style="stroke-width:1.97063">
      <g
         id="g498"
         style="stroke-width:1.97063">
        <g
           id="path500"
           style="stroke-width:1.97063" />
      </g>
    </g>
    <g
       inkscape:label=""
       transform="matrix(1.1930309,0,0,1.2421043,185.11063,13.841597)"
       id="g10950"
       style="stroke-width:0.821476" />
    <ellipse
       style="font-variation-settings:normal;opacity:1;vector-effect:none;fill:#f0f00e;fill-opacity:1;fill-rule:evenodd;stroke:#4d4d4d;stroke-width:0.5;stroke-linecap:butt;stroke-linejoin:miter;stroke-miterlimit:4;stroke-dasharray:none;stroke-dashoffset:0;stroke-opacity:1;-inkscape-stroke:none;paint-order:fill stroke markers;stop-color:#000000;stop-opacity:1"
       id="ellipse12402"
       cx="279.46448"
       cy="-15.417938"
       rx="14.678307"
       ry="27.192314" />
    <ellipse
       style="font-variation-settings:normal;opacity:1;vector-effect:none;fill:#ffb380;fill-opacity:1;fill-rule:evenodd;stroke:#4d4d4d;stroke-width:0.5;stroke-linecap:butt;stroke-linejoin:miter;stroke-miterlimit:4;stroke-dasharray:none;stroke-dashoffset:0;stroke-opacity:1;-inkscape-stroke:none;paint-order:fill stroke markers;stop-color:#000000;stop-opacity:1"
       id="ellipse12404"
       cx="342.18057"
       cy="-15.417938"
       rx="14.678307"
       ry="27.192314" />
    <ellipse
       id="circle12414"
       style="fill:#0000ff;stroke:none;stroke-width:0.264582"
       cx="342.18057"
       cy="-28.955462"
       rx="0.96940798"
       ry="1.0092829" />
    <ellipse
       id="circle12420"
       style="fill:#0000ff;stroke:none;stroke-width:0.264582"
       cx="342.18057"
       cy="-1.8804158"
       rx="0.96940798"
       ry="1.0092829" />
    <g
       inkscape:label=""
       transform="matrix(0.96940798,0,0,1.009283,343.71634,-4.0622562)"
       id="g12468"
       style="stroke-width:1.01098">
      <g
         id="g12466"
         transform="matrix(0.352778,0,0,0.352778,-0.248047,0.0980722)"
         style="stroke-width:1.01098">
        <g
           clip-path="url(#clipPath5562)"
           clip-rule="nonzero"
           id="g12464"
           style="stroke-width:0.587252">
          <g
             style="fill:#000000;fill-opacity:1;stroke-width:1.01098"
             id="g12462">
            <g
               id="g12460"
               transform="translate(0,11.097)"
               style="stroke-width:1.01098">
              <path
                 style="stroke:none;stroke-width:1.01098"
                 d="M 7.1875,-2.671875 H 6.875 c -0.171875,1.21875 -0.3125,1.4375 -0.390625,1.53125 C 6.40625,-1 5.171875,-1 4.921875,-1 H 1.625 c 0.609375,-0.671875 1.8125,-1.890625 3.28125,-3.3125 1.046875,-0.984375 2.28125,-2.15625 2.28125,-3.859375 0,-2.03125 -1.625,-3.203125 -3.4375,-3.203125 -1.890625,0 -3.046875,1.65625 -3.046875,3.21875 0,0.671875 0.5,0.75 0.703125,0.75 0.171875,0 0.6875,-0.09375 0.6875,-0.703125 0,-0.53125 -0.4375,-0.6875 -0.6875,-0.6875 -0.09375,0 -0.203125,0.015625 -0.265625,0.046875 0.328125,-1.453125 1.328125,-2.1875 2.375,-2.1875 1.5,0 2.46875,1.1875 2.46875,2.765625 0,1.484375 -0.875,2.78125 -1.859375,3.90625 l -3.421875,3.875 V 0 h 6.0625 z m 0,0"
                 id="path12458" />
            </g>
          </g>
        </g>
      </g>
    </g>
    <g
       inkscape:label=""
       transform="matrix(0.96940798,0,0,1.009283,343.50034,-31.037037)"
       id="g12480"
       style="stroke-width:1.01098">
      <g
         id="g12478"
         transform="matrix(0.352778,0,0,0.352778,-0.529167,0.0980722)"
         style="stroke-width:1.01098">
        <g
           clip-path="url(#clipPath3897)"
           clip-rule="nonzero"
           id="g12476"
           style="stroke-width:0.587252">
          <g
             style="fill:#000000;fill-opacity:1;stroke-width:1.01098"
             id="g12474">
            <g
               id="g12472"
               transform="translate(0,11.097)"
               style="stroke-width:1.01098">
              <path
                 style="stroke:none;stroke-width:1.01098"
                 d="m 4.578125,-11 c 0,-0.359375 -0.015625,-0.375 -0.25,-0.375 -0.671875,0.796875 -1.6875,1.0625 -2.65625,1.09375 -0.046875,0 -0.140625,0 -0.15625,0.03125 C 1.5,-10.203125 1.5,-10.171875 1.5,-9.8125 c 0.53125,0 1.421875,-0.109375 2.109375,-0.515625 V -1.25 c 0,0.59375 -0.03125,0.796875 -1.515625,0.796875 H 1.578125 V 0 c 0.828125,-0.015625 1.6875,-0.03125 2.515625,-0.03125 0.828125,0 1.6875,0.015625 2.515625,0.03125 V -0.453125 H 6.09375 c -1.484375,0 -1.515625,-0.1875 -1.515625,-0.796875 z m 0,0"
                 id="path12470" />
            </g>
          </g>
        </g>
      </g>
    </g>
    <ellipse
       id="circle12410"
       style="fill:#0000ff;stroke:none;stroke-width:0.264582"
       cx="279.46448"
       cy="-16.427221"
       rx="0.96940798"
       ry="1.0092829" />
    <ellipse
       id="circle12412"
       style="fill:#0000ff;stroke:none;stroke-width:0.264582"
       cx="279.46448"
       cy="-30.97403"
       rx="0.96940798"
       ry="1.0092829" />
    <ellipse
       id="circle12418"
       style="fill:#0000ff;stroke:none;stroke-width:0.264582"
       cx="279.46448"
       cy="-1.8804158"
       rx="0.96940798"
       ry="1.0092829" />
    <g
       inkscape:label=""
       transform="matrix(0.96940798,0,0,1.009283,275.73097,-32.795546)"
       id="g12432"
       style="stroke-width:1.01098">
      <g
         id="g12430"
         transform="matrix(0.352778,0,0,0.352778,-0.242535,0.0641173)"
         style="stroke-width:1.01098">
        <g
           clip-path="url(#clipPath3254)"
           clip-rule="nonzero"
           id="g12428"
           style="stroke-width:0.587252">
          <g
             style="fill:#000000;fill-opacity:1;stroke-width:1.01098"
             id="g12426">
            <g
               id="g12424"
               transform="translate(0,7.4120002)"
               style="stroke-width:1.01098">
              <path
                 style="stroke:none;stroke-width:1.01098"
                 d="M 5.1875,-2.046875 C 5.09375,-1.75 5.09375,-1.71875 4.859375,-1.390625 c -0.375,0.484375 -1.140625,1.21875 -1.953125,1.21875 -0.703125,0 -1.09375,-0.640625 -1.09375,-1.65625 0,-0.9375 0.53125,-2.875 0.859375,-3.59375 C 3.25,-6.625 4.0625,-7.25 4.734375,-7.25 c 1.140625,0 1.359375,1.40625 1.359375,1.546875 0,0.015625 -0.046875,0.25 -0.0625,0.28125 z m 1.09375,-4.40625 C 6.09375,-6.90625 5.625,-7.59375 4.734375,-7.59375 c -1.9375,0 -4.046875,2.515625 -4.046875,5.0625 0,1.703125 1,2.703125 2.171875,2.703125 0.953125,0 1.75,-0.734375 2.234375,-1.3125 0.171875,1.015625 0.984375,1.3125 1.5,1.3125 0.515625,0 0.9375,-0.3125 1.234375,-0.921875 C 8.109375,-1.34375 8.34375,-2.390625 8.34375,-2.46875 8.34375,-2.546875 8.28125,-2.625 8.171875,-2.625 8.03125,-2.625 8,-2.53125 7.9375,-2.265625 7.671875,-1.25 7.359375,-0.171875 6.640625,-0.171875 c -0.5,0 -0.53125,-0.453125 -0.53125,-0.796875 0,-0.390625 0.0625,-0.578125 0.203125,-1.25 0.125,-0.4375 0.21875,-0.8125 0.34375,-1.3125 0.640625,-2.578125 0.796875,-3.203125 0.796875,-3.296875 0,-0.25 -0.1875,-0.4375 -0.4375,-0.4375 -0.5625,0 -0.703125,0.609375 -0.734375,0.8125 z m 0,0"
                 id="path12422" />
            </g>
          </g>
        </g>
      </g>
    </g>
    <g
       inkscape:label=""
       transform="matrix(0.96940798,0,0,1.009283,275.66272,-19.148637)"
       id="g12444"
       style="stroke-width:1.01098">
      <g
         id="g12442"
         transform="matrix(0.352778,0,0,0.352778,-0.275608,-6.6143e-4)"
         style="stroke-width:1.01098">
        <g
           clip-path="url(#clipPath3453)"
           clip-rule="nonzero"
           id="g12440"
           style="stroke-width:0.587252">
          <g
             style="fill:#000000;fill-opacity:1;stroke-width:1.01098"
             id="g12438">
            <g
               id="g12436"
               transform="translate(0,11.955)"
               style="stroke-width:1.01098">
              <path
                 style="stroke:none;stroke-width:1.01098"
                 d="M 3.984375,-11.515625 C 4,-11.59375 4.03125,-11.6875 4.03125,-11.78125 c 0,-0.171875 -0.171875,-0.171875 -0.203125,-0.171875 -0.015625,0 -0.640625,0.0625 -0.953125,0.09375 -0.296875,0.01563 -0.546875,0.04687 -0.859375,0.0625 -0.421875,0.03125 -0.53125,0.04687 -0.53125,0.359375 0,0.171875 0.171875,0.171875 0.34375,0.171875 0.875,0 0.875,0.15625 0.875,0.328125 0,0.125 -0.140625,0.625 -0.203125,0.9375 L 2.078125,-8.34375 C 1.90625,-7.65625 0.9375,-3.75 0.859375,-3.4375 0.78125,-3.015625 0.78125,-2.71875 0.78125,-2.5 c 0,1.765625 0.96875,2.671875 2.09375,2.671875 2,0 4.0625,-2.5625 4.0625,-5.0625 0,-1.578125 -0.890625,-2.703125 -2.1875,-2.703125 -0.890625,0 -1.703125,0.734375 -2.03125,1.078125 z m -1.09375,11.34375 c -0.546875,0 -1.15625,-0.40625 -1.15625,-1.75 0,-0.578125 0.0625,-0.90625 0.359375,-2.109375 C 2.15625,-4.25 2.421875,-5.359375 2.5,-5.578125 2.53125,-5.71875 3.546875,-7.25 4.71875,-7.25 c 0.75,0 1.09375,0.765625 1.09375,1.65625 0,0.828125 -0.46875,2.765625 -0.90625,3.671875 -0.421875,0.921875 -1.21875,1.75 -2.015625,1.75 z m 0,0"
                 id="path12434" />
            </g>
          </g>
        </g>
      </g>
    </g>
    <g
       inkscape:label=""
       transform="matrix(0.96940798,0,0,1.009283,275.61645,-3.0256856)"
       id="g12456"
       style="stroke-width:1.01098">
      <g
         id="g12454"
         transform="matrix(0.352778,0,0,0.352778,-0.242535,0.0641173)"
         style="stroke-width:1.01098">
        <g
           clip-path="url(#clipPath6748)"
           clip-rule="nonzero"
           id="g12452"
           style="stroke-width:0.587252">
          <g
             style="fill:#000000;fill-opacity:1;stroke-width:1.01098"
             id="g12450">
            <g
               id="g12448"
               transform="translate(0,7.4120002)"
               style="stroke-width:1.01098">
              <path
                 style="stroke:none;stroke-width:1.01098"
                 d="m 6.734375,-6.46875 c -0.328125,0 -0.484375,0 -0.71875,0.203125 -0.109375,0.078125 -0.296875,0.34375 -0.296875,0.625 0,0.34375 0.25,0.546875 0.578125,0.546875 0.421875,0 0.890625,-0.34375 0.890625,-1.03125 0,-0.828125 -0.796875,-1.46875 -1.984375,-1.46875 -2.265625,0 -4.515625,2.46875 -4.515625,4.90625 0,1.5 0.9375,2.859375 2.6875,2.859375 2.34375,0 3.828125,-1.828125 3.828125,-2.046875 0,-0.109375 -0.109375,-0.1875 -0.171875,-0.1875 -0.0625,0 -0.078125,0.015625 -0.234375,0.171875 -1.09375,1.453125 -2.734375,1.71875 -3.390625,1.71875 -1.1875,0 -1.5625,-1.03125 -1.5625,-1.890625 0,-0.609375 0.296875,-2.28125 0.90625,-3.453125 C 3.203125,-6.3125 4.125,-7.25 5.21875,-7.25 c 0.21875,0 1.171875,0.03125 1.515625,0.78125 z m 0,0"
                 id="path12446" />
            </g>
          </g>
        </g>
      </g>
    </g>
    <path
       style="font-variation-settings:normal;opacity:1;vector-effect:none;fill:none;fill-opacity:1;stroke:#000000;stroke-width:0.465;stroke-linecap:butt;stroke-linejoin:miter;stroke-miterlimit:4;stroke-dasharray:none;stroke-dashoffset:0;stroke-opacity:1;-inkscape-stroke:none;marker-mid:url(#Arrow5);stop-color:#000000;stop-opacity:1"
       d="m 63.385326,-31.833008 30.953564,0.996265 31.76257,1.022303"
       id="path3075"
       sodipodi:nodetypes="ccc" />
    <path
       style="font-variation-settings:normal;opacity:1;vector-effect:none;fill:none;fill-opacity:1;stroke:#000000;stroke-width:0.465;stroke-linecap:butt;stroke-linejoin:miter;stroke-miterlimit:4;stroke-dasharray:none;stroke-dashoffset:0;stroke-opacity:1;-inkscape-stroke:none;marker-mid:url(#Arrow5);stop-color:#000000;stop-opacity:1"
       d="m 63.385326,-17.2862 30.208672,-6.034516 32.507462,-6.493724"
       id="path3976"
       sodipodi:nodetypes="ccc" />
    <path
       style="font-variation-settings:normal;opacity:1;vector-effect:none;fill:none;fill-opacity:1;stroke:#000000;stroke-width:0.465;stroke-linecap:butt;stroke-linejoin:miter;stroke-miterlimit:4;stroke-dasharray:none;stroke-dashoffset:0;stroke-opacity:1;-inkscape-stroke:none;marker-mid:url(#Arrow5);stop-color:#000000;stop-opacity:1"
       d="M 63.385326,-2.7393954 H 94.706289 126.10146"
       id="path4024"
       sodipodi:nodetypes="ccc" />
    <ellipse
       id="circle1013"
       style="fill:#0000ff;stroke:none;stroke-width:0.264582"
       cx="126.10146"
       cy="-29.81444"
       rx="0.96940798"
       ry="1.0092829" />
    <ellipse
       id="circle1015"
       style="fill:#0000ff;stroke:none;stroke-width:0.264582"
       cx="126.10146"
       cy="-2.7393942"
       rx="0.96940798"
       ry="1.0092829" />
    <g
       inkscape:label=""
       transform="matrix(0.96940798,0,0,1.009283,127.6372,-4.921234)"
       id="g9329"
       style="stroke-width:1.01098">
      <g
         id="g9327"
         transform="matrix(0.352778,0,0,0.352778,-0.248047,0.0980722)"
         style="stroke-width:1.01098">
        <g
           clip-path="url(#clipPath5562)"
           clip-rule="nonzero"
           id="g9325"
           style="stroke-width:0.587252">
          <g
             style="fill:#000000;fill-opacity:1;stroke-width:1.01098"
             id="g9323">
            <g
               id="g9321"
               transform="translate(0,11.097)"
               style="stroke-width:1.01098">
              <path
                 style="stroke:none;stroke-width:1.01098"
                 d="M 7.1875,-2.671875 H 6.875 c -0.171875,1.21875 -0.3125,1.4375 -0.390625,1.53125 C 6.40625,-1 5.171875,-1 4.921875,-1 H 1.625 c 0.609375,-0.671875 1.8125,-1.890625 3.28125,-3.3125 1.046875,-0.984375 2.28125,-2.15625 2.28125,-3.859375 0,-2.03125 -1.625,-3.203125 -3.4375,-3.203125 -1.890625,0 -3.046875,1.65625 -3.046875,3.21875 0,0.671875 0.5,0.75 0.703125,0.75 0.171875,0 0.6875,-0.09375 0.6875,-0.703125 0,-0.53125 -0.4375,-0.6875 -0.6875,-0.6875 -0.09375,0 -0.203125,0.015625 -0.265625,0.046875 0.328125,-1.453125 1.328125,-2.1875 2.375,-2.1875 1.5,0 2.46875,1.1875 2.46875,2.765625 0,1.484375 -0.875,2.78125 -1.859375,3.90625 l -3.421875,3.875 V 0 h 6.0625 z m 0,0"
                 id="path9319" />
            </g>
          </g>
        </g>
      </g>
    </g>
    <g
       inkscape:label=""
       transform="matrix(0.96940798,0,0,1.009283,127.42121,-31.896014)"
       id="g9455"
       style="stroke-width:1.01098">
      <g
         id="g9453"
         transform="matrix(0.352778,0,0,0.352778,-0.529167,0.0980722)"
         style="stroke-width:1.01098">
        <g
           clip-path="url(#clipPath3897)"
           clip-rule="nonzero"
           id="g9451"
           style="stroke-width:0.587252">
          <g
             style="fill:#000000;fill-opacity:1;stroke-width:1.01098"
             id="g9449">
            <g
               id="g9447"
               transform="translate(0,11.097)"
               style="stroke-width:1.01098">
              <path
                 style="stroke:none;stroke-width:1.01098"
                 d="m 4.578125,-11 c 0,-0.359375 -0.015625,-0.375 -0.25,-0.375 -0.671875,0.796875 -1.6875,1.0625 -2.65625,1.09375 -0.046875,0 -0.140625,0 -0.15625,0.03125 C 1.5,-10.203125 1.5,-10.171875 1.5,-9.8125 c 0.53125,0 1.421875,-0.109375 2.109375,-0.515625 V -1.25 c 0,0.59375 -0.03125,0.796875 -1.515625,0.796875 H 1.578125 V 0 c 0.828125,-0.015625 1.6875,-0.03125 2.515625,-0.03125 0.828125,0 1.6875,0.015625 2.515625,0.03125 V -0.453125 H 6.09375 c -1.484375,0 -1.515625,-0.1875 -1.515625,-0.796875 z m 0,0"
                 id="path9445" />
            </g>
          </g>
        </g>
      </g>
    </g>
    <ellipse
       id="circle1011"
       style="fill:#0000ff;stroke:none;stroke-width:0.264582"
       cx="63.385326"
       cy="-17.2862"
       rx="0.96940798"
       ry="1.0092829" />
    <ellipse
       id="circle1007"
       style="fill:#0000ff;stroke:none;stroke-width:0.264582"
       cx="63.385326"
       cy="-31.833008"
       rx="0.96940798"
       ry="1.0092829" />
    <ellipse
       id="circle1009"
       style="fill:#0000ff;stroke:none;stroke-width:0.264582"
       cx="63.385326"
       cy="-2.7393942"
       rx="0.96940798"
       ry="1.0092829" />
    <g
       inkscape:label=""
       transform="matrix(0.96940798,0,0,1.009283,59.651838,-33.654524)"
       id="g9036"
       style="stroke-width:1.01098">
      <g
         id="surface1"
         transform="matrix(0.352778,0,0,0.352778,-0.242535,0.0641173)"
         style="stroke-width:1.01098">
        <g
           clip-path="url(#clipPath3254)"
           clip-rule="nonzero"
           id="g19"
           style="stroke-width:0.587252">
          <g
             style="fill:#000000;fill-opacity:1;stroke-width:1.01098"
             id="g17">
            <g
               id="use15"
               transform="translate(0,7.4120002)"
               style="stroke-width:1.01098">
              <path
                 style="stroke:none;stroke-width:1.01098"
                 d="M 5.1875,-2.046875 C 5.09375,-1.75 5.09375,-1.71875 4.859375,-1.390625 c -0.375,0.484375 -1.140625,1.21875 -1.953125,1.21875 -0.703125,0 -1.09375,-0.640625 -1.09375,-1.65625 0,-0.9375 0.53125,-2.875 0.859375,-3.59375 C 3.25,-6.625 4.0625,-7.25 4.734375,-7.25 c 1.140625,0 1.359375,1.40625 1.359375,1.546875 0,0.015625 -0.046875,0.25 -0.0625,0.28125 z m 1.09375,-4.40625 C 6.09375,-6.90625 5.625,-7.59375 4.734375,-7.59375 c -1.9375,0 -4.046875,2.515625 -4.046875,5.0625 0,1.703125 1,2.703125 2.171875,2.703125 0.953125,0 1.75,-0.734375 2.234375,-1.3125 0.171875,1.015625 0.984375,1.3125 1.5,1.3125 0.515625,0 0.9375,-0.3125 1.234375,-0.921875 C 8.109375,-1.34375 8.34375,-2.390625 8.34375,-2.46875 8.34375,-2.546875 8.28125,-2.625 8.171875,-2.625 8.03125,-2.625 8,-2.53125 7.9375,-2.265625 7.671875,-1.25 7.359375,-0.171875 6.640625,-0.171875 c -0.5,0 -0.53125,-0.453125 -0.53125,-0.796875 0,-0.390625 0.0625,-0.578125 0.203125,-1.25 0.125,-0.4375 0.21875,-0.8125 0.34375,-1.3125 0.640625,-2.578125 0.796875,-3.203125 0.796875,-3.296875 0,-0.25 -0.1875,-0.4375 -0.4375,-0.4375 -0.5625,0 -0.703125,0.609375 -0.734375,0.8125 z m 0,0"
                 id="path26" />
            </g>
          </g>
        </g>
      </g>
    </g>
    <g
       inkscape:label=""
       transform="matrix(0.96940798,0,0,1.009283,59.583586,-20.007614)"
       id="g9125"
       style="stroke-width:1.01098">
      <g
         id="g9123"
         transform="matrix(0.352778,0,0,0.352778,-0.275608,-6.6143e-4)"
         style="stroke-width:1.01098">
        <g
           clip-path="url(#clipPath3453)"
           clip-rule="nonzero"
           id="g9121"
           style="stroke-width:0.587252">
          <g
             style="fill:#000000;fill-opacity:1;stroke-width:1.01098"
             id="g9119">
            <g
               id="g9117"
               transform="translate(0,11.955)"
               style="stroke-width:1.01098">
              <path
                 style="stroke:none;stroke-width:1.01098"
                 d="M 3.984375,-11.515625 C 4,-11.59375 4.03125,-11.6875 4.03125,-11.78125 c 0,-0.171875 -0.171875,-0.171875 -0.203125,-0.171875 -0.015625,0 -0.640625,0.0625 -0.953125,0.09375 -0.296875,0.01563 -0.546875,0.04687 -0.859375,0.0625 -0.421875,0.03125 -0.53125,0.04687 -0.53125,0.359375 0,0.171875 0.171875,0.171875 0.34375,0.171875 0.875,0 0.875,0.15625 0.875,0.328125 0,0.125 -0.140625,0.625 -0.203125,0.9375 L 2.078125,-8.34375 C 1.90625,-7.65625 0.9375,-3.75 0.859375,-3.4375 0.78125,-3.015625 0.78125,-2.71875 0.78125,-2.5 c 0,1.765625 0.96875,2.671875 2.09375,2.671875 2,0 4.0625,-2.5625 4.0625,-5.0625 0,-1.578125 -0.890625,-2.703125 -2.1875,-2.703125 -0.890625,0 -1.703125,0.734375 -2.03125,1.078125 z m -1.09375,11.34375 c -0.546875,0 -1.15625,-0.40625 -1.15625,-1.75 0,-0.578125 0.0625,-0.90625 0.359375,-2.109375 C 2.15625,-4.25 2.421875,-5.359375 2.5,-5.578125 2.53125,-5.71875 3.546875,-7.25 4.71875,-7.25 c 0.75,0 1.09375,0.765625 1.09375,1.65625 0,0.828125 -0.46875,2.765625 -0.90625,3.671875 -0.421875,0.921875 -1.21875,1.75 -2.015625,1.75 z m 0,0"
                 id="path9115" />
            </g>
          </g>
        </g>
      </g>
    </g>
    <g
       inkscape:label=""
       transform="matrix(0.96940798,0,0,1.009283,59.537318,-3.8846633)"
       id="g9219"
       style="stroke-width:1.01098">
      <g
         id="g9217"
         transform="matrix(0.352778,0,0,0.352778,-0.242535,0.0641173)"
         style="stroke-width:1.01098">
        <g
           clip-path="url(#clipPath6748)"
           clip-rule="nonzero"
           id="g9215"
           style="stroke-width:0.587252">
          <g
             style="fill:#000000;fill-opacity:1;stroke-width:1.01098"
             id="g9213">
            <g
               id="g9211"
               transform="translate(0,7.4120002)"
               style="stroke-width:1.01098">
              <path
                 style="stroke:none;stroke-width:1.01098"
                 d="m 6.734375,-6.46875 c -0.328125,0 -0.484375,0 -0.71875,0.203125 -0.109375,0.078125 -0.296875,0.34375 -0.296875,0.625 0,0.34375 0.25,0.546875 0.578125,0.546875 0.421875,0 0.890625,-0.34375 0.890625,-1.03125 0,-0.828125 -0.796875,-1.46875 -1.984375,-1.46875 -2.265625,0 -4.515625,2.46875 -4.515625,4.90625 0,1.5 0.9375,2.859375 2.6875,2.859375 2.34375,0 3.828125,-1.828125 3.828125,-2.046875 0,-0.109375 -0.109375,-0.1875 -0.171875,-0.1875 -0.0625,0 -0.078125,0.015625 -0.234375,0.171875 -1.09375,1.453125 -2.734375,1.71875 -3.390625,1.71875 -1.1875,0 -1.5625,-1.03125 -1.5625,-1.890625 0,-0.609375 0.296875,-2.28125 0.90625,-3.453125 C 3.203125,-6.3125 4.125,-7.25 5.21875,-7.25 c 0.21875,0 1.171875,0.03125 1.515625,0.78125 z m 0,0"
                 id="path9209" />
            </g>
          </g>
        </g>
      </g>
    </g>
    <path
       style="font-variation-settings:normal;opacity:1;vector-effect:none;fill:none;fill-opacity:1;stroke:#000000;stroke-width:0.465;stroke-linecap:butt;stroke-linejoin:miter;stroke-miterlimit:4;stroke-dasharray:none;stroke-dashoffset:0;stroke-opacity:1;-inkscape-stroke:none;marker-mid:url(#Arrow5);stop-color:#000000;stop-opacity:1"
       d="m 165.9697,-31.833008 31.85772,1.025366 30.85838,0.993202"
       id="path4277"
       sodipodi:nodetypes="ccc" />
    <path
       style="font-variation-settings:normal;opacity:1;vector-effect:none;fill:none;fill-opacity:1;stroke:#000000;stroke-width:0.465;stroke-linecap:butt;stroke-linejoin:miter;stroke-miterlimit:4;stroke-dasharray:none;stroke-dashoffset:0;stroke-opacity:1;-inkscape-stroke:none;marker-mid:url(#Arrow5);stop-color:#000000;stop-opacity:1"
       d="M 165.9697,-2.7393954 197.27952,-16.256097 228.6858,-29.81444"
       id="path4303"
       sodipodi:nodetypes="ccc" />
    <path
       style="font-variation-settings:normal;opacity:1;vector-effect:none;fill:none;fill-opacity:1;stroke:#000000;stroke-width:0.465;stroke-linecap:butt;stroke-linejoin:miter;stroke-miterlimit:4;stroke-dasharray:none;stroke-dashoffset:0;stroke-opacity:1;-inkscape-stroke:none;marker-mid:url(#Arrow5);stop-color:#000000;stop-opacity:1"
       d="m 165.9697,-17.2862 36.45018,8.4545058 26.26592,6.0922988"
       id="path4329"
       sodipodi:nodetypes="ccc" />
    <ellipse
       id="circle10842"
       style="fill:#0000ff;stroke:none;stroke-width:0.264582"
       cx="165.9697"
       cy="-31.833008"
       rx="0.96940798"
       ry="1.0092829" />
    <g
       inkscape:label=""
       transform="matrix(0.96940798,0,0,1.009283,162.23619,-33.654524)"
       id="g10862"
       style="stroke-width:1.01098">
      <g
         id="g10860"
         transform="matrix(0.352778,0,0,0.352778,-0.242535,0.0641173)"
         style="stroke-width:1.01098">
        <g
           clip-path="url(#clipPath3254)"
           clip-rule="nonzero"
           id="g10858"
           style="stroke-width:0.587252">
          <g
             style="fill:#000000;fill-opacity:1;stroke-width:1.01098"
             id="g10856">
            <g
               id="g10854"
               transform="translate(0,7.4120002)"
               style="stroke-width:1.01098">
              <path
                 style="stroke:none;stroke-width:1.01098"
                 d="M 5.1875,-2.046875 C 5.09375,-1.75 5.09375,-1.71875 4.859375,-1.390625 c -0.375,0.484375 -1.140625,1.21875 -1.953125,1.21875 -0.703125,0 -1.09375,-0.640625 -1.09375,-1.65625 0,-0.9375 0.53125,-2.875 0.859375,-3.59375 C 3.25,-6.625 4.0625,-7.25 4.734375,-7.25 c 1.140625,0 1.359375,1.40625 1.359375,1.546875 0,0.015625 -0.046875,0.25 -0.0625,0.28125 z m 1.09375,-4.40625 C 6.09375,-6.90625 5.625,-7.59375 4.734375,-7.59375 c -1.9375,0 -4.046875,2.515625 -4.046875,5.0625 0,1.703125 1,2.703125 2.171875,2.703125 0.953125,0 1.75,-0.734375 2.234375,-1.3125 0.171875,1.015625 0.984375,1.3125 1.5,1.3125 0.515625,0 0.9375,-0.3125 1.234375,-0.921875 C 8.109375,-1.34375 8.34375,-2.390625 8.34375,-2.46875 8.34375,-2.546875 8.28125,-2.625 8.171875,-2.625 8.03125,-2.625 8,-2.53125 7.9375,-2.265625 7.671875,-1.25 7.359375,-0.171875 6.640625,-0.171875 c -0.5,0 -0.53125,-0.453125 -0.53125,-0.796875 0,-0.390625 0.0625,-0.578125 0.203125,-1.25 0.125,-0.4375 0.21875,-0.8125 0.34375,-1.3125 0.640625,-2.578125 0.796875,-3.203125 0.796875,-3.296875 0,-0.25 -0.1875,-0.4375 -0.4375,-0.4375 -0.5625,0 -0.703125,0.609375 -0.734375,0.8125 z m 0,0"
                 id="path10852" />
            </g>
          </g>
        </g>
      </g>
    </g>
    <g
       inkscape:label=""
       transform="matrix(0.96940798,0,0,1.009283,162.16794,-20.007614)"
       id="g10874"
       style="stroke-width:1.01098">
      <g
         id="g10872"
         transform="matrix(0.352778,0,0,0.352778,-0.275608,-6.6143e-4)"
         style="stroke-width:1.01098">
        <g
           clip-path="url(#clipPath3453)"
           clip-rule="nonzero"
           id="g10870"
           style="stroke-width:0.587252">
          <g
             style="fill:#000000;fill-opacity:1;stroke-width:1.01098"
             id="g10868">
            <g
               id="g10866"
               transform="translate(0,11.955)"
               style="stroke-width:1.01098">
              <path
                 style="stroke:none;stroke-width:1.01098"
                 d="M 3.984375,-11.515625 C 4,-11.59375 4.03125,-11.6875 4.03125,-11.78125 c 0,-0.171875 -0.171875,-0.171875 -0.203125,-0.171875 -0.015625,0 -0.640625,0.0625 -0.953125,0.09375 -0.296875,0.01563 -0.546875,0.04687 -0.859375,0.0625 -0.421875,0.03125 -0.53125,0.04687 -0.53125,0.359375 0,0.171875 0.171875,0.171875 0.34375,0.171875 0.875,0 0.875,0.15625 0.875,0.328125 0,0.125 -0.140625,0.625 -0.203125,0.9375 L 2.078125,-8.34375 C 1.90625,-7.65625 0.9375,-3.75 0.859375,-3.4375 0.78125,-3.015625 0.78125,-2.71875 0.78125,-2.5 c 0,1.765625 0.96875,2.671875 2.09375,2.671875 2,0 4.0625,-2.5625 4.0625,-5.0625 0,-1.578125 -0.890625,-2.703125 -2.1875,-2.703125 -0.890625,0 -1.703125,0.734375 -2.03125,1.078125 z m -1.09375,11.34375 c -0.546875,0 -1.15625,-0.40625 -1.15625,-1.75 0,-0.578125 0.0625,-0.90625 0.359375,-2.109375 C 2.15625,-4.25 2.421875,-5.359375 2.5,-5.578125 2.53125,-5.71875 3.546875,-7.25 4.71875,-7.25 c 0.75,0 1.09375,0.765625 1.09375,1.65625 0,0.828125 -0.46875,2.765625 -0.90625,3.671875 -0.421875,0.921875 -1.21875,1.75 -2.015625,1.75 z m 0,0"
                 id="path10864" />
            </g>
          </g>
        </g>
      </g>
    </g>
    <g
       inkscape:label=""
       transform="matrix(0.96940798,0,0,1.009283,162.12167,-3.8846633)"
       id="g10886"
       style="stroke-width:1.01098">
      <g
         id="g10884"
         transform="matrix(0.352778,0,0,0.352778,-0.242535,0.0641173)"
         style="stroke-width:1.01098">
        <g
           clip-path="url(#clipPath6748)"
           clip-rule="nonzero"
           id="g10882"
           style="stroke-width:0.587252">
          <g
             style="fill:#000000;fill-opacity:1;stroke-width:1.01098"
             id="g10880">
            <g
               id="g10878"
               transform="translate(0,7.4120002)"
               style="stroke-width:1.01098">
              <path
                 style="stroke:none;stroke-width:1.01098"
                 d="m 6.734375,-6.46875 c -0.328125,0 -0.484375,0 -0.71875,0.203125 -0.109375,0.078125 -0.296875,0.34375 -0.296875,0.625 0,0.34375 0.25,0.546875 0.578125,0.546875 0.421875,0 0.890625,-0.34375 0.890625,-1.03125 0,-0.828125 -0.796875,-1.46875 -1.984375,-1.46875 -2.265625,0 -4.515625,2.46875 -4.515625,4.90625 0,1.5 0.9375,2.859375 2.6875,2.859375 2.34375,0 3.828125,-1.828125 3.828125,-2.046875 0,-0.109375 -0.109375,-0.1875 -0.171875,-0.1875 -0.0625,0 -0.078125,0.015625 -0.234375,0.171875 -1.09375,1.453125 -2.734375,1.71875 -3.390625,1.71875 -1.1875,0 -1.5625,-1.03125 -1.5625,-1.890625 0,-0.609375 0.296875,-2.28125 0.90625,-3.453125 C 3.203125,-6.3125 4.125,-7.25 5.21875,-7.25 c 0.21875,0 1.171875,0.03125 1.515625,0.78125 z m 0,0"
                 id="path10876" />
            </g>
          </g>
        </g>
      </g>
    </g>
    <ellipse
       id="circle10840"
       style="fill:#0000ff;stroke:none;stroke-width:0.264582"
       cx="165.9697"
       cy="-17.2862"
       rx="0.96940798"
       ry="1.0092829" />
    <ellipse
       id="circle10848"
       style="fill:#0000ff;stroke:none;stroke-width:0.264582"
       cx="165.9697"
       cy="-2.7393942"
       rx="0.96940798"
       ry="1.0092829" />
    <ellipse
       id="circle10844"
       style="fill:#0000ff;stroke:none;stroke-width:0.264582"
       cx="228.68581"
       cy="-29.81444"
       rx="0.96940798"
       ry="1.0092829" />
    <ellipse
       id="circle10850"
       style="fill:#0000ff;stroke:none;stroke-width:0.264582"
       cx="228.68581"
       cy="-2.7393942"
       rx="0.96940798"
       ry="1.0092829" />
    <g
       inkscape:label=""
       transform="matrix(0.96940798,0,0,1.009283,230.22156,-4.921234)"
       id="g10898"
       style="stroke-width:1.01098">
      <g
         id="g10896"
         transform="matrix(0.352778,0,0,0.352778,-0.248047,0.0980722)"
         style="stroke-width:1.01098">
        <g
           clip-path="url(#clipPath5562)"
           clip-rule="nonzero"
           id="g10894"
           style="stroke-width:0.587252">
          <g
             style="fill:#000000;fill-opacity:1;stroke-width:1.01098"
             id="g10892">
            <g
               id="g10890"
               transform="translate(0,11.097)"
               style="stroke-width:1.01098">
              <path
                 style="stroke:none;stroke-width:1.01098"
                 d="M 7.1875,-2.671875 H 6.875 c -0.171875,1.21875 -0.3125,1.4375 -0.390625,1.53125 C 6.40625,-1 5.171875,-1 4.921875,-1 H 1.625 c 0.609375,-0.671875 1.8125,-1.890625 3.28125,-3.3125 1.046875,-0.984375 2.28125,-2.15625 2.28125,-3.859375 0,-2.03125 -1.625,-3.203125 -3.4375,-3.203125 -1.890625,0 -3.046875,1.65625 -3.046875,3.21875 0,0.671875 0.5,0.75 0.703125,0.75 0.171875,0 0.6875,-0.09375 0.6875,-0.703125 0,-0.53125 -0.4375,-0.6875 -0.6875,-0.6875 -0.09375,0 -0.203125,0.015625 -0.265625,0.046875 0.328125,-1.453125 1.328125,-2.1875 2.375,-2.1875 1.5,0 2.46875,1.1875 2.46875,2.765625 0,1.484375 -0.875,2.78125 -1.859375,3.90625 l -3.421875,3.875 V 0 h 6.0625 z m 0,0"
                 id="path10888" />
            </g>
          </g>
        </g>
      </g>
    </g>
    <g
       inkscape:label=""
       transform="matrix(0.96940798,0,0,1.009283,230.00556,-31.896014)"
       id="g10910"
       style="stroke-width:1.01098">
      <g
         id="g10908"
         transform="matrix(0.352778,0,0,0.352778,-0.529167,0.0980722)"
         style="stroke-width:1.01098">
        <g
           clip-path="url(#clipPath3897)"
           clip-rule="nonzero"
           id="g10906"
           style="stroke-width:0.587252">
          <g
             style="fill:#000000;fill-opacity:1;stroke-width:1.01098"
             id="g10904">
            <g
               id="g10902"
               transform="translate(0,11.097)"
               style="stroke-width:1.01098">
              <path
                 style="stroke:none;stroke-width:1.01098"
                 d="m 4.578125,-11 c 0,-0.359375 -0.015625,-0.375 -0.25,-0.375 -0.671875,0.796875 -1.6875,1.0625 -2.65625,1.09375 -0.046875,0 -0.140625,0 -0.15625,0.03125 C 1.5,-10.203125 1.5,-10.171875 1.5,-9.8125 c 0.53125,0 1.421875,-0.109375 2.109375,-0.515625 V -1.25 c 0,0.59375 -0.03125,0.796875 -1.515625,0.796875 H 1.578125 V 0 c 0.828125,-0.015625 1.6875,-0.03125 2.515625,-0.03125 0.828125,0 1.6875,0.015625 2.515625,0.03125 V -0.453125 H 6.09375 c -1.484375,0 -1.515625,-0.1875 -1.515625,-0.796875 z m 0,0"
                 id="path10900" />
            </g>
          </g>
        </g>
      </g>
    </g>
    <path
       style="font-variation-settings:normal;opacity:1;vector-effect:none;fill:none;fill-opacity:1;stroke:#000000;stroke-width:0.465;stroke-linecap:butt;stroke-linejoin:miter;stroke-miterlimit:4;stroke-dasharray:none;stroke-dashoffset:0;stroke-opacity:1;-inkscape-stroke:none;marker-mid:url(#Arrow5);stop-color:#000000;stop-opacity:1"
       d="m 279.46447,-30.97403 42.0257,19.495463 20.69041,9.598152"
       id="path4827"
       sodipodi:nodetypes="ccc" />
    <path
       style="font-variation-settings:normal;opacity:1;vector-effect:none;fill:none;fill-opacity:1;stroke:#000000;stroke-width:0.465;stroke-linecap:butt;stroke-linejoin:miter;stroke-miterlimit:4;stroke-dasharray:none;stroke-dashoffset:0;stroke-opacity:1;-inkscape-stroke:none;marker-mid:url(#Arrow5);stop-color:#000000;stop-opacity:1"
       d="m 279.46447,-16.427222 34.48022,-6.887807 28.23589,-5.640433"
       id="path4853"
       sodipodi:nodetypes="ccc" />
    <path
       style="font-variation-settings:normal;opacity:1;vector-effect:none;fill:none;fill-opacity:1;stroke:#000000;stroke-width:0.465;stroke-linecap:butt;stroke-linejoin:miter;stroke-miterlimit:4;stroke-dasharray:none;stroke-dashoffset:0;stroke-opacity:1;-inkscape-stroke:none;marker-mid:url(#Arrow5);stop-color:#000000;stop-opacity:1"
       d="m 279.46447,-1.880415 44.22687,-19.093095 18.48924,-7.981952"
       id="path4879"
       sodipodi:nodetypes="ccc" />
  </g>
</svg>
