<?xml version="1.0" encoding="UTF-8" standalone="no"?>
<!-- Created with Inkscape (http://www.inkscape.org/) -->

<svg
   width="99.354736mm"
   height="99.354736mm"
   viewBox="0 0 99.35475 99.354737"
   version="1.1"
   id="svg1"
   xml:space="preserve"
   inkscape:version="1.4 (e7c3feb1, 2024-10-09)"
   sodipodi:docname="prob-28-01-25_03.svg"
   xmlns:inkscape="http://www.inkscape.org/namespaces/inkscape"
   xmlns:sodipodi="http://sodipodi.sourceforge.net/DTD/sodipodi-0.dtd"
   xmlns="http://www.w3.org/2000/svg"
   xmlns:svg="http://www.w3.org/2000/svg"
   xmlns:ns1="http://www.iki.fi/pav/software/textext/"><sodipodi:namedview
     id="namedview1"
     pagecolor="#ffffff"
     bordercolor="#000000"
     borderopacity="0.25"
     inkscape:showpageshadow="2"
     inkscape:pageopacity="0.0"
     inkscape:pagecheckerboard="0"
     inkscape:deskcolor="#d1d1d1"
     inkscape:document-units="mm"
     showgrid="false"
     inkscape:zoom="1"
     inkscape:cx="188"
     inkscape:cy="188"
     inkscape:window-width="1512"
     inkscape:window-height="916"
     inkscape:window-x="0"
     inkscape:window-y="38"
     inkscape:window-maximized="1"
     inkscape:current-layer="layer1"><inkscape:grid
       id="grid8"
       units="mm"
       originx="-56.122483"
       originy="-89.438107"
       spacingx="0.99999998"
       spacingy="1"
       empcolor="#0099e5"
       empopacity="0.30196078"
       color="#0099e5"
       opacity="0.14901961"
       empspacing="5"
       enabled="true"
       visible="false" /></sodipodi:namedview><defs
     id="defs1"><inkscape:path-effect
       effect="bspline"
       id="path-effect36"
       is_visible="true"
       lpeversion="1.3"
       weight="33.333333"
       steps="2"
       helper_size="0"
       apply_no_weight="true"
       apply_with_weight="true"
       only_selected="false"
       uniform="false" /><inkscape:path-effect
       effect="mirror_symmetry"
       start_point="99.302601,111.39852"
       end_point="99.302601,210.75326"
       center_point="99.302601,161.07589"
       id="path-effect21"
       is_visible="true"
       lpeversion="1.2"
       lpesatellites=""
       mode="free"
       discard_orig_path="false"
       fuse_paths="false"
       oposite_fuse="false"
       split_items="false"
       split_open="false"
       link_styles="false" /><inkscape:path-effect
       effect="fillet_chamfer"
       id="path-effect19"
       is_visible="true"
       lpeversion="1"
       nodesatellites_param="F,0,0,1,0,0,0,1 @ F,0,0,1,0,0,0,1 @ F,0,0,1,0,0,0,1 @ F,0,0,1,0,0,0,1"
       radius="0"
       unit="px"
       method="auto"
       mode="F"
       chamfer_steps="1"
       flexible="false"
       use_knot_distance="true"
       apply_no_radius="true"
       apply_with_radius="true"
       only_selected="false"
       hide_knots="false" /><inkscape:path-effect
       effect="fillet_chamfer"
       id="path-effect18"
       is_visible="true"
       lpeversion="1"
       nodesatellites_param="F,0,0,1,0,0,0,1 @ F,0,0,1,0,0,0,1 @ F,0,0,1,0,0,0,1 @ F,0,0,1,0,0,0,1"
       radius="0"
       unit="px"
       method="auto"
       mode="F"
       chamfer_steps="1"
       flexible="false"
       use_knot_distance="true"
       apply_no_radius="true"
       apply_with_radius="true"
       only_selected="false"
       hide_knots="false" /><inkscape:path-effect
       effect="bspline"
       id="path-effect12"
       is_visible="true"
       lpeversion="1.3"
       weight="33.333333"
       steps="2"
       helper_size="0"
       apply_no_weight="true"
       apply_with_weight="true"
       only_selected="false"
       uniform="false" /><inkscape:path-effect
       effect="bspline"
       id="path-effect10"
       is_visible="true"
       lpeversion="1.3"
       weight="33.333333"
       steps="2"
       helper_size="0"
       apply_no_weight="true"
       apply_with_weight="true"
       only_selected="false"
       uniform="false" /><inkscape:path-effect
       effect="bspline"
       id="path-effect8"
       is_visible="true"
       lpeversion="1.3"
       weight="33.333333"
       steps="2"
       helper_size="0"
       apply_no_weight="true"
       apply_with_weight="true"
       only_selected="false"
       uniform="false" /><marker
       style="overflow:visible"
       id="marker5"
       refX="0"
       refY="0"
       orient="auto-start-reverse"
       inkscape:stockid="Wide, rounded arrow"
       markerWidth="1"
       markerHeight="1"
       viewBox="0 0 1 1"
       inkscape:isstock="true"
       inkscape:collect="always"
       preserveAspectRatio="xMidYMid"><path
         style="fill:none;stroke:context-stroke;stroke-width:1;stroke-linecap:round"
         d="M 3,-3 0,0 3,3"
         transform="rotate(180,0.125,0)"
         sodipodi:nodetypes="ccc"
         id="path5" /></marker><inkscape:path-effect
       effect="bspline"
       id="path-effect4"
       is_visible="true"
       lpeversion="1.3"
       weight="33.333333"
       steps="2"
       helper_size="0"
       apply_no_weight="true"
       apply_with_weight="true"
       only_selected="false"
       uniform="false" /><marker
       style="overflow:visible"
       id="ArrowWideRounded"
       refX="0"
       refY="0"
       orient="auto-start-reverse"
       inkscape:stockid="Wide, rounded arrow"
       markerWidth="1"
       markerHeight="1"
       viewBox="0 0 1 1"
       inkscape:isstock="true"
       inkscape:collect="always"
       preserveAspectRatio="xMidYMid"><path
         style="fill:none;stroke:context-stroke;stroke-width:1;stroke-linecap:round"
         d="M 3,-3 0,0 3,3"
         transform="rotate(180,0.125,0)"
         sodipodi:nodetypes="ccc"
         id="path2" /></marker><inkscape:path-effect
       effect="bspline"
       id="path-effect1"
       is_visible="true"
       lpeversion="1.3"
       weight="33.333333"
       steps="2"
       helper_size="0"
       apply_no_weight="true"
       apply_with_weight="true"
       only_selected="false"
       uniform="false" /></defs><g
     inkscape:label="Layer 1"
     inkscape:groupmode="layer"
     id="layer1"
     transform="translate(-56.122521,-89.438113)"><path
       style="fill:none;stroke:#000000;stroke-width:0.6;stroke-miterlimit:10;stroke-dasharray:none;marker-start:url(#marker5);marker-end:url(#ArrowWideRounded)"
       d="m 107.7527,198.46941 c 0,-39.46674 0,-78.93347 0,-118.400208"
       id="path1"
       inkscape:path-effect="#path-effect1"
       inkscape:original-d="m 107.7527,198.46941 c 0,-39.46674 0,-78.93347 0,-118.400208"
       transform="matrix(0.83108147,0,0,0.83108147,15.57045,23.371343)" /><path
       style="fill:none;stroke:#000000;stroke-width:0.6;stroke-miterlimit:10;stroke-dasharray:none;marker-start:url(#marker5);marker-end:url(#ArrowWideRounded)"
       d="m 107.7527,198.46941 c 0,-39.46674 0,-78.93347 0,-118.400208"
       id="path8"
       inkscape:path-effect="#path-effect10"
       inkscape:original-d="m 107.7527,198.46941 c 0,-39.46674 0,-78.93347 0,-118.400208"
       transform="matrix(0,0.83108147,-0.83108147,0,221.54403,16.355431)" /><circle
       style="opacity:1;fill:none;fill-opacity:0.290909;stroke:#68ab6b;stroke-width:0.600001;stroke-miterlimit:10;stroke-dasharray:none;stroke-opacity:1"
       id="path34"
       cx="105.12172"
       cy="139.85059"
       r="33.950657" /><path
       style="opacity:1;fill:#000000;fill-opacity:1;stroke:#000000;stroke-width:0.5;stroke-miterlimit:10;stroke-dasharray:none;stroke-opacity:1"
       d="m 104.22172,139.85058 c 0.6,0 1.2,0 1.8,0"
       id="path36"
       inkscape:path-effect="#path-effect36"
       inkscape:original-d="m 104.22172,139.85058 c 0.6,0 1.2,0 1.8,0" /><circle
       id="path37"
       style="fill:#f9f9f9;stroke:#68ab6b;stroke-width:0.373391;stroke-opacity:1"
       cx="105.12172"
       cy="105.89993"
       r="1.0584311" /><g
       transform="matrix(0.529167,0,0,0.529167,107.43549,137.65449)"
       ns1:version="1.10.2"
       ns1:texconverter="pdflatex"
       ns1:pdfconverter="inkscape"
       ns1:text="$-2 \\iota$"
       ns1:preamble="/Users/sachchidanandprasad/Library/Application Support/org.inkscape.Inkscape/config/inkscape/extensions/textext/default_packages.tex"
       ns1:scale="1.5"
       ns1:alignment="middle center"
       ns1:stroke-to-path="0"
       ns1:inkscapeversion="1.4"
       ns1:jacobian_sqrt="0.529167"
       id="g34"><defs
   id="id-897700ea-a723-4df5-a808-4cc4d3f6aec4">
    <g
   id="id-d73117e2-45c4-485e-8943-9cd823839321">
      <g
   id="id-52c9c962-319b-47e7-bf5a-e1d58967dadd">
        <path
   d="m 6.84375,-2.390625 c 0.171875,0 0.359375,0 0.359375,-0.203125 0,-0.203125 -0.1875,-0.203125 -0.359375,-0.203125 h -5.625 c -0.171875,0 -0.359375,0 -0.359375,0.203125 0,0.203125 0.1875,0.203125 0.359375,0.203125 z m 0,0"
   id="id-7c856780-b7de-4d58-aa18-3dd50274f1f1" />
      </g>
      <g
   id="id-a011a034-45e6-4c34-9e3c-c9423c2d83d9">
        <path
   d="M 0.15625,-0.234375 V 0.03125 C 2.03125,0 2.03125,0 2.375,0 c 0.359375,0 0.359375,0 2.296875,0.03125 -0.03125,-0.203125 -0.03125,-0.3125 -0.03125,-0.453125 0,-0.125 0,-0.21875 0.03125,-0.453125 C 3.515625,-0.8125 3.0625,-0.8125 1.21875,-0.765625 L 3.03125,-2.6875 C 4,-3.71875 4.296875,-4.265625 4.296875,-5.015625 4.296875,-6.15625 3.515625,-6.875 2.25,-6.875 c -0.71875,0 -1.203125,0.203125 -1.6875,0.703125 L 0.390625,-4.8125 h 0.28125 L 0.8125,-5.28125 C 0.96875,-5.859375 1.328125,-6.09375 2,-6.09375 c 0.84375,0 1.40625,0.53125 1.40625,1.375 0,0.75 -0.421875,1.484375 -1.546875,2.6875 z m 0,0"
   id="id-15bb036b-0901-432a-b7cc-6b167adf4879" />
      </g>
      <g
   id="id-c7aeccd1-26d9-4263-b0d8-c4d56e8266c0">
        <path
   d="M 2.03125,-4.8125 1.328125,-4.609375 C 1.28125,-3.9375 1.1875,-3.640625 1.140625,-3.453125 L 0.484375,-1.0625 C 0.484375,-1 0.46875,-0.96875 0.4375,-0.859375 0.375,-0.5625 0.359375,-0.4375 0.359375,-0.3125 c 0,0.25 0.109375,0.40625 0.296875,0.40625 0.34375,0 0.703125,-0.1875 1.484375,-0.828125 l 0.296875,-0.25 -0.09375,-0.1875 -0.453125,0.3125 C 1.59375,-0.640625 1.40625,-0.5625 1.28125,-0.5625 c -0.078125,0 -0.125,-0.078125 -0.125,-0.1875 0,-0.109375 0.015625,-0.1875 0.0625,-0.40625 L 2,-4.1875 C 2.03125,-4.34375 2.078125,-4.5 2.140625,-4.671875 Z m 0,0"
   id="id-cf2346cc-fcbc-4375-aab2-019752c17e0d" />
      </g>
    </g>
  </defs>
  <g
   fill="#000000"
   fill-opacity="1"
   id="id-33074e8c-ea79-473f-9db3-140d8296b991"
   transform="translate(-149.696,-127.89)">
    <g
   transform="translate(148.837,134.765)"
   id="g37"><path
   d="m 6.84375,-2.390625 c 0.171875,0 0.359375,0 0.359375,-0.203125 0,-0.203125 -0.1875,-0.203125 -0.359375,-0.203125 h -5.625 c -0.171875,0 -0.359375,0 -0.359375,0.203125 0,0.203125 0.1875,0.203125 0.359375,0.203125 z m 0,0"
   id="id-25905426-8be1-43f2-b363-dd85e23fc92c" />
      </g></g>
  <g
   fill="#000000"
   fill-opacity="1"
   id="id-ef849c3b-7776-432e-be4c-b2e62714f083"
   transform="translate(-149.696,-127.89)">
    <g
   transform="translate(157.031,134.765)"
   id="g38"><path
   d="M 0.15625,-0.234375 V 0.03125 C 2.03125,0 2.03125,0 2.375,0 c 0.359375,0 0.359375,0 2.296875,0.03125 -0.03125,-0.203125 -0.03125,-0.3125 -0.03125,-0.453125 0,-0.125 0,-0.21875 0.03125,-0.453125 C 3.515625,-0.8125 3.0625,-0.8125 1.21875,-0.765625 L 3.03125,-2.6875 C 4,-3.71875 4.296875,-4.265625 4.296875,-5.015625 4.296875,-6.15625 3.515625,-6.875 2.25,-6.875 c -0.71875,0 -1.203125,0.203125 -1.6875,0.703125 L 0.390625,-4.8125 h 0.28125 L 0.8125,-5.28125 C 0.96875,-5.859375 1.328125,-6.09375 2,-6.09375 c 0.84375,0 1.40625,0.53125 1.40625,1.375 0,0.75 -0.421875,1.484375 -1.546875,2.6875 z m 0,0"
   id="id-efc584f3-6e5c-43d3-898f-702445790a3d" />
      </g></g>
  <g
   fill="#000000"
   fill-opacity="1"
   id="id-11e816fa-5ff6-4f76-bc7e-b928f48a2dfc"
   transform="translate(-149.696,-127.89)">
    <g
   transform="translate(162.137,134.765)"
   id="g39"><path
   d="M 2.03125,-4.8125 1.328125,-4.609375 C 1.28125,-3.9375 1.1875,-3.640625 1.140625,-3.453125 L 0.484375,-1.0625 C 0.484375,-1 0.46875,-0.96875 0.4375,-0.859375 0.375,-0.5625 0.359375,-0.4375 0.359375,-0.3125 c 0,0.25 0.109375,0.40625 0.296875,0.40625 0.34375,0 0.703125,-0.1875 1.484375,-0.828125 l 0.296875,-0.25 -0.09375,-0.1875 -0.453125,0.3125 C 1.59375,-0.640625 1.40625,-0.5625 1.28125,-0.5625 c -0.078125,0 -0.125,-0.078125 -0.125,-0.1875 0,-0.109375 0.015625,-0.1875 0.0625,-0.40625 L 2,-4.1875 C 2.03125,-4.34375 2.078125,-4.5 2.140625,-4.671875 Z m 0,0"
   id="id-936aaf9b-b0d9-4962-8404-09ef783af20a" />
      </g></g>
</g></g></svg>
