<?xml version="1.0" encoding="UTF-8" standalone="no"?>
<!-- Created with Inkscape (http://www.inkscape.org/) -->

<svg
   width="210mm"
   height="71.761345mm"
   viewBox="0 0 210 71.761345"
   version="1.1"
   id="svg1"
   inkscape:version="1.3-beta (cedbd6c, 2023-05-28)"
   sodipodi:docname="prob-16-07-23_01.svg"
   xmlns:inkscape="http://www.inkscape.org/namespaces/inkscape"
   xmlns:sodipodi="http://sodipodi.sourceforge.net/DTD/sodipodi-0.dtd"
   xmlns="http://www.w3.org/2000/svg"
   xmlns:svg="http://www.w3.org/2000/svg">
  <sodipodi:namedview
     id="namedview1"
     pagecolor="#ffffff"
     bordercolor="#999999"
     borderopacity="1"
     inkscape:showpageshadow="0"
     inkscape:pageopacity="0"
     inkscape:pagecheckerboard="0"
     inkscape:deskcolor="#d1d1d1"
     inkscape:document-units="mm"
     inkscape:zoom="2"
     inkscape:cx="427.25"
     inkscape:cy="67.5"
     inkscape:window-width="1920"
     inkscape:window-height="1012"
     inkscape:window-x="0"
     inkscape:window-y="32"
     inkscape:window-maximized="1"
     inkscape:current-layer="layer1" />
  <defs
     id="defs1">
    <inkscape:path-effect
       effect="fillet_chamfer"
       id="path-effect90"
       is_visible="true"
       lpeversion="1"
       nodesatellites_param="F,0,0,1,0,3.7866344,0,1 @ F,0,0,1,0,3.7866344,0,1 @ F,0,0,1,0,3.7866344,0,1 @ F,0,0,1,0,3.7866344,0,1 @ F,0,0,1,0,3.7866344,0,1 @ F,0,0,1,0,3.7866344,0,1"
       radius="0"
       unit="px"
       method="auto"
       mode="F"
       chamfer_steps="1"
       flexible="false"
       use_knot_distance="true"
       apply_no_radius="true"
       apply_with_radius="true"
       only_selected="false"
       hide_knots="false" />
  </defs>
  <g
     inkscape:label="Layer 1"
     inkscape:groupmode="layer"
     id="layer1"
     transform="translate(-2.02624e-08, -81.7803)">
    <path
       style="fill:#0000ff;fill-opacity:0.312312;stroke:#0000ff;stroke-width:0.264583px;stroke-linecap:butt;stroke-linejoin:miter;stroke-opacity:1"
       d="m 9.5596891,96.255924 c -13.5243026,3.510879 -11.9981306,43.080336 1.3840209,47.444966 5.419388,1.76754 21.301902,5.55898 24.412202,7.15026 8.453046,4.32473 15.480461,-6.2949 24.954877,-5.66416 8.618116,0.57374 11.78924,-20.06547 11.390437,-23.1883 -1.150994,-9.01284 -6.423233,-6.18365 -5.933684,-15.77476 C 67.112276,79.878247 40.606085,87.954686 33.118295,91.764933 27.235105,95.345511 16.029849,94.576284 9.5596891,96.255924 Z"
       id="path1"
       sodipodi:nodetypes="sssssscs" />
    <path
       style="font-variation-settings:normal;opacity:1;vector-effect:none;fill:#0000ff;fill-opacity:0.312312;stroke:#0000ff;stroke-width:0.264583px;stroke-linecap:butt;stroke-linejoin:miter;stroke-miterlimit:4;stroke-dasharray:none;stroke-dashoffset:0;stroke-opacity:1;-inkscape-stroke:none;stop-color:#000000;stop-opacity:1"
       d="m 192.26745,89.713564 c -15.89334,-13.734905 -19.57507,-6.972038 -32.44383,2.228056 -70.134894,50.14062 13.83792,78.46997 41.70823,50.35963 4.72573,-4.76643 -0.0845,-20.7072 5.25113,-27.25906 9.33852,-11.46724 -4.57715,-18.612638 -14.51553,-25.328626 z"
       id="path2"
       sodipodi:nodetypes="csssc" />
    <g
       id="g5">
      <path
         style="color:#000000;fill:#000000;-inkscape-stroke:none"
         d="m 101.78711,112.11133 c -6.827906,0.0292 -13.834469,2.53407 -21.00586,7.40234 l 0.28125,0.41406 c 7.112138,-4.82804 14.021389,-7.28774 20.72852,-7.3164 6.70712,-0.0287 13.22316,2.36971 19.56836,7.30664 l 0.30664,-0.39453 c -6.41438,-4.99076 -13.05101,-7.44129 -19.87891,-7.41211 z"
         id="path5" />
      <g
         id="g4">
        <path
           d="m 121.82067,118.18601 2.17888,3.46915 -3.8983,-1.25926 c 1.05325,-0.21378 1.76896,-1.13364 1.71942,-2.20989 z"
           style="color:#000000;fill:#000000;fill-rule:evenodd;-inkscape-stroke:none"
           id="path4" />
      </g>
    </g>
    <g
       inkscape:label=""
       transform="translate(34.431729,116.41868)"
       id="g6">
      <g
         fill="#000000"
         fill-opacity="1"
         id="g2"
         transform="matrix(0.352778,0,0,0.352778,-0.907036,-0.514747)">
        <g
           id="use1"
           transform="translate(1.993,13.756)">
          <path
             d="M 2.921875,-1.90625 C 2.328125,-0.890625 1.734375,-0.546875 0.90625,-0.5 0.71875,-0.484375 0.578125,-0.484375 0.578125,-0.171875 0.578125,-0.0625 0.671875,0 0.796875,0 1.109375,0 1.875,-0.03125 2.1875,-0.03125 2.6875,-0.03125 3.234375,0 3.71875,0 3.828125,0 4.03125,0 4.03125,-0.328125 4.03125,-0.484375 3.890625,-0.5 3.78125,-0.5 3.390625,-0.53125 3.0625,-0.671875 3.0625,-1.078125 c 0,-0.25 0.109375,-0.4375 0.328125,-0.8125 L 4.703125,-4.0625 H 9.09375 c 0.015625,0.15625 0.015625,0.296875 0.03125,0.453125 0.046875,0.4375 0.265625,2.234375 0.265625,2.5625 C 9.390625,-0.53125 8.5,-0.5 8.234375,-0.5 c -0.1875,0 -0.375,0 -0.375,0.3125 C 7.859375,0 8,0 8.109375,0 8.40625,0 8.75,-0.03125 9.046875,-0.03125 h 0.96875 c 1.0625,0 1.8125,0.03125 1.828125,0.03125 0.125,0 0.3125,0 0.3125,-0.328125 C 12.15625,-0.5 12,-0.5 11.75,-0.5 c -0.953125,0 -0.96875,-0.15625 -1.015625,-0.671875 l -1.0625,-10.75 c -0.03125,-0.34375 -0.09375,-0.375 -0.28125,-0.375 -0.171875,0 -0.28125,0.03125 -0.4375,0.296875 z M 5,-4.5625 l 3.453125,-5.78125 0.59375,5.78125 z m 0,0"
             id="path6" />
        </g>
      </g>
    </g>
    <g
       inkscape:label=""
       transform="translate(162.71642,119.36138)"
       id="g11">
      <g
         fill="#000000"
         fill-opacity="1"
         id="g7"
         transform="matrix(0.352778,0,0,0.352778,-0.846402,-0.704982)">
        <g
           id="use4"
           transform="translate(1.993,14.889)">
          <path
             d="m 7.1875,-10.5 c 0.09375,-0.421875 0.125,-0.578125 0.390625,-0.640625 0.140625,-0.03125 0.703125,-0.03125 1.0625,-0.03125 1.71875,0 2.53125,0.0625 2.53125,1.40625 0,0.265625 -0.0625,0.921875 -0.171875,1.546875 L 10.984375,-8 c 0,0.0625 0.0625,0.171875 0.171875,0.171875 0.171875,0 0.171875,-0.09375 0.21875,-0.375 l 0.5,-3.046875 c 0.04687,-0.15625 0.04687,-0.1875 0.04687,-0.234375 0,-0.1875 -0.109375,-0.1875 -0.453125,-0.1875 h -9.42187 c -0.390625,0 -0.40625,0.01563 -0.515625,0.328125 L 0.484375,-8.25 C 0.46875,-8.21875 0.40625,-8.03125 0.40625,-8 c 0,0.078125 0.078125,0.171875 0.171875,0.171875 0.140625,0 0.171875,-0.078125 0.25,-0.296875 0.71875,-2.078125 1.078125,-3.046875 3.375,-3.046875 h 1.15625 c 0.40625,0 0.578125,0 0.578125,0.1875 0,0.04687 0,0.07813 -0.078125,0.390625 l -2.3125,9.25 C 3.375,-0.671875 3.34375,-0.5 1.515625,-0.5 1.078125,-0.5 0.96875,-0.5 0.96875,-0.171875 0.96875,0 1.15625,0 1.234375,0 1.671875,0 2.125,-0.03125 2.546875,-0.03125 h 2.6875 C 5.671875,-0.03125 6.125,0 6.5625,0 6.75,0 6.921875,0 6.921875,-0.328125 6.921875,-0.5 6.796875,-0.5 6.359375,-0.5 c -1.5625,0 -1.5625,-0.15625 -1.5625,-0.40625 0,-0.03125 0,-0.140625 0.078125,-0.421875 z m 0,0"
             id="path8" />
        </g>
      </g>
      <g
         fill="#000000"
         fill-opacity="1"
         id="g8"
         transform="matrix(0.352778,0,0,0.352778,-0.846402,-0.704982)">
        <g
           id="use5"
           transform="translate(14.214,14.889)">
          <path
             d="m 5.265625,4.203125 c 0,-0.015625 0,-0.046875 -0.046875,-0.109375 -0.796875,-0.8125 -2.90625,-3.015625 -2.90625,-8.375 0,-5.375 2.078125,-7.5625 2.921875,-8.421875 0,-0.01563 0.03125,-0.0625 0.03125,-0.109375 0,-0.04687 -0.046875,-0.07813 -0.125,-0.07813 -0.1875,0 -1.640625,1.265625 -2.484375,3.15625 -0.859375,1.921875 -1.109375,3.78125 -1.109375,5.421875 0,1.25 0.125,3.34375 1.15625,5.5625 0.828125,1.796875 2.234375,3.0625 2.4375,3.0625 0.09375,0 0.125,-0.046875 0.125,-0.109375 z m 0,0"
             id="path9" />
        </g>
      </g>
      <g
         fill="#000000"
         fill-opacity="1"
         id="g9"
         transform="matrix(0.352778,0,0,0.352778,-0.846402,-0.704982)">
        <g
           id="use6"
           transform="translate(20.309999,14.889)">
          <path
             d="M 2.921875,-1.90625 C 2.328125,-0.890625 1.734375,-0.546875 0.90625,-0.5 0.71875,-0.484375 0.578125,-0.484375 0.578125,-0.171875 0.578125,-0.0625 0.671875,0 0.796875,0 1.109375,0 1.875,-0.03125 2.1875,-0.03125 2.6875,-0.03125 3.234375,0 3.71875,0 3.828125,0 4.03125,0 4.03125,-0.328125 4.03125,-0.484375 3.890625,-0.5 3.78125,-0.5 3.390625,-0.53125 3.0625,-0.671875 3.0625,-1.078125 c 0,-0.25 0.109375,-0.4375 0.328125,-0.8125 L 4.703125,-4.0625 H 9.09375 c 0.015625,0.15625 0.015625,0.296875 0.03125,0.453125 0.046875,0.4375 0.265625,2.234375 0.265625,2.5625 C 9.390625,-0.53125 8.5,-0.5 8.234375,-0.5 c -0.1875,0 -0.375,0 -0.375,0.3125 C 7.859375,0 8,0 8.109375,0 8.40625,0 8.75,-0.03125 9.046875,-0.03125 h 0.96875 c 1.0625,0 1.8125,0.03125 1.828125,0.03125 0.125,0 0.3125,0 0.3125,-0.328125 C 12.15625,-0.5 12,-0.5 11.75,-0.5 c -0.953125,0 -0.96875,-0.15625 -1.015625,-0.671875 l -1.0625,-10.75 c -0.03125,-0.34375 -0.09375,-0.375 -0.28125,-0.375 -0.171875,0 -0.28125,0.03125 -0.4375,0.296875 z M 5,-4.5625 l 3.453125,-5.78125 0.59375,5.78125 z m 0,0"
             id="path10" />
        </g>
      </g>
      <g
         fill="#000000"
         fill-opacity="1"
         id="g10"
         transform="matrix(0.352778,0,0,0.352778,-0.846402,-0.704982)">
        <g
           id="use7"
           transform="translate(32.946999,14.889)">
          <path
             d="m 4.53125,-4.28125 c 0,-1.25 -0.125,-3.34375 -1.15625,-5.5625 -0.828125,-1.796875 -2.234375,-3.046875 -2.4375,-3.046875 -0.0625,0 -0.125,0.01563 -0.125,0.09375 0,0.03125 0.015625,0.0625 0.03125,0.09375 0.828125,0.859375 2.921875,3.046875 2.921875,8.390625 0,5.375 -2.078125,7.5625 -2.921875,8.421875 C 0.828125,4.15625 0.8125,4.171875 0.8125,4.203125 0.8125,4.28125 0.875,4.3125 0.9375,4.3125 1.125,4.3125 2.578125,3.03125 3.421875,1.140625 4.28125,-0.78125 4.53125,-2.640625 4.53125,-4.28125 Z m 0,0"
             id="path11" />
        </g>
      </g>
    </g>
    <g
       inkscape:label=""
       transform="translate(101.79878,106.20586)"
       id="g14">
      <g
         fill="#000000"
         fill-opacity="1"
         id="g13"
         transform="matrix(0.352778,0,0,0.352778,-0.846402,-0.735233)">
        <g
           id="g12"
           transform="translate(1.993,13.756)">
          <path
             d="m 7.1875,-10.5 c 0.09375,-0.421875 0.125,-0.578125 0.390625,-0.640625 0.140625,-0.03125 0.703125,-0.03125 1.0625,-0.03125 1.71875,0 2.53125,0.0625 2.53125,1.40625 0,0.265625 -0.0625,0.921875 -0.171875,1.546875 L 10.984375,-8 c 0,0.0625 0.0625,0.171875 0.171875,0.171875 0.171875,0 0.171875,-0.09375 0.21875,-0.375 l 0.5,-3.046875 c 0.04687,-0.15625 0.04687,-0.1875 0.04687,-0.234375 0,-0.1875 -0.109375,-0.1875 -0.453125,-0.1875 h -9.42187 c -0.390625,0 -0.40625,0.01563 -0.515625,0.328125 L 0.484375,-8.25 C 0.46875,-8.21875 0.40625,-8.03125 0.40625,-8 c 0,0.078125 0.078125,0.171875 0.171875,0.171875 0.140625,0 0.171875,-0.078125 0.25,-0.296875 0.71875,-2.078125 1.078125,-3.046875 3.375,-3.046875 h 1.15625 c 0.40625,0 0.578125,0 0.578125,0.1875 0,0.04687 0,0.07813 -0.078125,0.390625 l -2.3125,9.25 C 3.375,-0.671875 3.34375,-0.5 1.515625,-0.5 1.078125,-0.5 0.96875,-0.5 0.96875,-0.171875 0.96875,0 1.15625,0 1.234375,0 1.671875,0 2.125,-0.03125 2.546875,-0.03125 h 2.6875 C 5.671875,-0.03125 6.125,0 6.5625,0 6.75,0 6.921875,0 6.921875,-0.328125 6.921875,-0.5 6.796875,-0.5 6.359375,-0.5 c -1.5625,0 -1.5625,-0.15625 -1.5625,-0.40625 0,-0.03125 0,-0.140625 0.078125,-0.421875 z m 0,0"
             id="path12" />
        </g>
      </g>
    </g>
    <path
       style="fill:none;fill-opacity:0.353409;fill-rule:evenodd;stroke:#0000ff;stroke-width:0.5"
       id="rect19"
       width="85.992935"
       height="12.010555"
       x="65.707695"
       y="81.912552"
       ry="6.0052776"
       rx="3.7866344"
       inkscape:path-effect="#path-effect90"
       sodipodi:type="rect"
       d="m 75.499607,81.912552 66.409113,0 c 2.0913,0 5.66705,-0.06261 7.3288,1.149186 0.50328,0.367006 0.94684,0.810557 1.31385,1.313827 1.21187,1.661776 1.21187,5.422684 7e-5,7.084433 -0.367,0.503278 -0.81055,0.946837 -1.31382,1.313853 -1.66178,1.211869 -5.2376,1.149256 -7.3289,1.149256 H 75.499607 c -2.0913,0 -5.667053,0.06261 -7.328803,-1.149186 -0.503278,-0.367006 -0.946837,-0.810557 -1.313853,-1.313827 -1.211869,-1.661776 -1.21187,-5.422684 -7e-5,-7.084433 0.367006,-0.503278 0.810557,-0.946837 1.313827,-1.313853 1.661776,-1.211869 5.237599,-1.149256 7.328899,-1.149256 z" />
    <g
       inkscape:label=""
       transform="translate(69.505614,84.877875)"
       id="g89"
       style="fill:#800080">
      <g
         fill="#000000"
         fill-opacity="1"
         id="g31"
         transform="matrix(0.352778,0,0,0.352778,-0.945621,-0.69925)"
         style="fill:#800080">
        <g
           id="g22"
           transform="translate(1.993,14.904)"
           style="fill:#800080">
          <path
             d="m 6.203125,-4.453125 c 0,-1.140625 0,-1.75 -0.734375,-2.421875 -0.625,-0.5625 -1.375,-0.734375 -1.953125,-0.734375 -1.359375,0 -2.34375,1.0625 -2.34375,2.203125 0,0.640625 0.515625,0.671875 0.625,0.671875 0.21875,0 0.609375,-0.140625 0.609375,-0.625 0,-0.421875 -0.328125,-0.609375 -0.609375,-0.609375 -0.078125,0 -0.15625,0.015625 -0.21875,0.03125 0.375,-1.09375 1.296875,-1.390625 1.90625,-1.390625 0.859375,0 1.796875,0.75 1.796875,2.203125 v 0.75 C 4.265625,-4.34375 3.046875,-4.203125 2.078125,-3.6875 1,-3.078125 0.6875,-2.21875 0.6875,-1.5625 c 0,1.328125 1.546875,1.703125 2.46875,1.703125 0.9375,0 1.8125,-0.53125 2.203125,-1.515625 0.03125,0.75 0.515625,1.4375 1.265625,1.4375 0.359375,0 1.28125,-0.234375 1.28125,-1.59375 V -2.5 h -0.3125 v 0.984375 c 0,1.046875 -0.46875,1.1875 -0.6875,1.1875 -0.703125,0 -0.703125,-0.890625 -0.703125,-1.65625 z m -0.921875,2.0625 c 0,1.5 -1.0625,2.25 -2.015625,2.25 -0.859375,0 -1.53125,-0.640625 -1.53125,-1.421875 0,-0.515625 0.234375,-1.4375 1.234375,-1.984375 0.8125,-0.46875 1.765625,-0.53125 2.3125,-0.5625 z m 0,0"
             id="path19"
             style="fill:#800080" />
        </g>
        <g
           id="g23"
           transform="translate(9.8879824,14.904)"
           style="fill:#800080">
          <path
             d="m 2.578125,-4.0625 c 0,-1.65625 0.703125,-3.203125 2,-3.203125 0.125,0 0.25,0.015625 0.359375,0.0625 0,0 -0.375,0.125 -0.375,0.578125 0,0.40625 0.328125,0.578125 0.578125,0.578125 0.21875,0 0.59375,-0.125 0.59375,-0.59375 0,-0.5625 -0.546875,-0.90625 -1.140625,-0.90625 -1.3125,0 -1.875,1.28125 -2.046875,1.875 H 2.53125 v -1.875 l -2,0.1875 v 0.453125 c 1.015625,0 1.171875,0.109375 1.171875,0.9375 v 4.78125 c 0,0.65625 -0.0625,0.734375 -1.171875,0.734375 V 0 c 0.421875,-0.03125 1.203125,-0.03125 1.65625,-0.03125 0.5,0 1.375,0 1.84375,0.03125 v -0.453125 c -1.234375,0 -1.453125,0 -1.453125,-0.765625 z m 0,0"
             id="path22"
             style="fill:#800080" />
        </g>
        <g
           id="g24"
           transform="translate(15.983956,14.904)"
           style="fill:#800080">
          <path
             d="m 6.5625,-4.046875 c 0.0625,-0.0625 0.0625,-0.109375 0.0625,-0.28125 0,-1.75 -0.921875,-3.28125 -2.890625,-3.28125 -1.828125,0 -3.265625,1.734375 -3.265625,3.859375 0,2.234375 1.625,3.890625 3.453125,3.890625 1.9375,0 2.6875,-1.828125 2.6875,-2.1875 0,-0.125 -0.09375,-0.125 -0.140625,-0.125 -0.109375,0 -0.125,0.03125 -0.203125,0.25 -0.375,1.171875 -1.328125,1.75 -2.21875,1.75 C 3.3125,-0.171875 2.5625,-0.578125 2.09375,-1.34375 1.5625,-2.21875 1.5625,-3.234375 1.5625,-4.046875 Z M 1.578125,-4.3125 c 0.125,-2.46875 1.453125,-3.015625 2.140625,-3.015625 1.171875,0 1.96875,1.09375 1.984375,3.015625 z m 0,0"
             id="path23"
             style="fill:#800080" />
        </g>
        <g
           id="g25"
           transform="translate(22.980293,14.904)"
           style="fill:#800080">
          <path
             d="m 6.203125,-4.453125 c 0,-1.140625 0,-1.75 -0.734375,-2.421875 -0.625,-0.5625 -1.375,-0.734375 -1.953125,-0.734375 -1.359375,0 -2.34375,1.0625 -2.34375,2.203125 0,0.640625 0.515625,0.671875 0.625,0.671875 0.21875,0 0.609375,-0.140625 0.609375,-0.625 0,-0.421875 -0.328125,-0.609375 -0.609375,-0.609375 -0.078125,0 -0.15625,0.015625 -0.21875,0.03125 0.375,-1.09375 1.296875,-1.390625 1.90625,-1.390625 0.859375,0 1.796875,0.75 1.796875,2.203125 v 0.75 C 4.265625,-4.34375 3.046875,-4.203125 2.078125,-3.6875 1,-3.078125 0.6875,-2.21875 0.6875,-1.5625 c 0,1.328125 1.546875,1.703125 2.46875,1.703125 0.9375,0 1.8125,-0.53125 2.203125,-1.515625 0.03125,0.75 0.515625,1.4375 1.265625,1.4375 0.359375,0 1.28125,-0.234375 1.28125,-1.59375 V -2.5 h -0.3125 v 0.984375 c 0,1.046875 -0.46875,1.1875 -0.6875,1.1875 -0.703125,0 -0.703125,-0.890625 -0.703125,-1.65625 z m -0.921875,2.0625 c 0,1.5 -1.0625,2.25 -2.015625,2.25 -0.859375,0 -1.53125,-0.640625 -1.53125,-1.421875 0,-0.515625 0.234375,-1.4375 1.234375,-1.984375 0.8125,-0.46875 1.765625,-0.53125 2.3125,-0.5625 z m 0,0"
             id="path24"
             style="fill:#800080" />
        </g>
        <g
           id="g30"
           transform="translate(30.875277,14.904)"
           style="fill:#800080">
          <path
             d="m 5.265625,4.203125 c 0,-0.015625 0,-0.046875 -0.046875,-0.109375 -0.796875,-0.8125 -2.90625,-3.015625 -2.90625,-8.375 0,-5.375 2.078125,-7.5625 2.921875,-8.421875 0,-0.01563 0.03125,-0.0625 0.03125,-0.109375 0,-0.04687 -0.046875,-0.07813 -0.125,-0.07813 -0.1875,0 -1.640625,1.265625 -2.484375,3.15625 -0.859375,1.921875 -1.109375,3.78125 -1.109375,5.421875 0,1.25 0.125,3.34375 1.15625,5.5625 0.828125,1.796875 2.234375,3.0625 2.4375,3.0625 0.09375,0 0.125,-0.046875 0.125,-0.109375 z m 0,0"
             id="path25"
             style="fill:#800080" />
        </g>
      </g>
      <g
         fill="#000000"
         fill-opacity="1"
         id="g36"
         transform="matrix(0.352778,0,0,0.352778,-0.945621,-0.69925)"
         style="fill:#800080">
        <g
           id="g32"
           transform="translate(36.972,14.904)"
           style="fill:#800080">
          <path
             d="m 7.1875,-10.5 c 0.09375,-0.421875 0.125,-0.578125 0.390625,-0.640625 0.140625,-0.03125 0.703125,-0.03125 1.0625,-0.03125 1.71875,0 2.53125,0.0625 2.53125,1.40625 0,0.265625 -0.0625,0.921875 -0.171875,1.546875 L 10.984375,-8 c 0,0.0625 0.0625,0.171875 0.171875,0.171875 0.171875,0 0.171875,-0.09375 0.21875,-0.375 l 0.5,-3.046875 c 0.04687,-0.15625 0.04687,-0.1875 0.04687,-0.234375 0,-0.1875 -0.109375,-0.1875 -0.453125,-0.1875 h -9.42187 c -0.390625,0 -0.40625,0.01563 -0.515625,0.328125 L 0.484375,-8.25 C 0.46875,-8.21875 0.40625,-8.03125 0.40625,-8 c 0,0.078125 0.078125,0.171875 0.171875,0.171875 0.140625,0 0.171875,-0.078125 0.25,-0.296875 0.71875,-2.078125 1.078125,-3.046875 3.375,-3.046875 h 1.15625 c 0.40625,0 0.578125,0 0.578125,0.1875 0,0.04687 0,0.07813 -0.078125,0.390625 l -2.3125,9.25 C 3.375,-0.671875 3.34375,-0.5 1.515625,-0.5 1.078125,-0.5 0.96875,-0.5 0.96875,-0.171875 0.96875,0 1.15625,0 1.234375,0 1.671875,0 2.125,-0.03125 2.546875,-0.03125 h 2.6875 C 5.671875,-0.03125 6.125,0 6.5625,0 6.75,0 6.921875,0 6.921875,-0.328125 6.921875,-0.5 6.796875,-0.5 6.359375,-0.5 c -1.5625,0 -1.5625,-0.15625 -1.5625,-0.40625 0,-0.03125 0,-0.140625 0.078125,-0.421875 z m 0,0"
             id="path31"
             style="fill:#800080" />
        </g>
      </g>
      <g
         fill="#000000"
         fill-opacity="1"
         id="g61"
         transform="matrix(0.352778,0,0,0.352778,-0.945621,-0.69925)"
         style="fill:#800080">
        <g
           id="g60"
           transform="translate(49.193001,14.904)"
           style="fill:#800080">
          <path
             d="m 5.265625,4.203125 c 0,-0.015625 0,-0.046875 -0.046875,-0.109375 -0.796875,-0.8125 -2.90625,-3.015625 -2.90625,-8.375 0,-5.375 2.078125,-7.5625 2.921875,-8.421875 0,-0.01563 0.03125,-0.0625 0.03125,-0.109375 0,-0.04687 -0.046875,-0.07813 -0.125,-0.07813 -0.1875,0 -1.640625,1.265625 -2.484375,3.15625 -0.859375,1.921875 -1.109375,3.78125 -1.109375,5.421875 0,1.25 0.125,3.34375 1.15625,5.5625 0.828125,1.796875 2.234375,3.0625 2.4375,3.0625 0.09375,0 0.125,-0.046875 0.125,-0.109375 z m 0,0"
             id="path60"
             style="fill:#800080" />
        </g>
      </g>
      <g
         fill="#000000"
         fill-opacity="1"
         id="g63"
         transform="matrix(0.352778,0,0,0.352778,-0.945621,-0.69925)"
         style="fill:#800080">
        <g
           id="g62"
           transform="translate(55.290001,14.904)"
           style="fill:#800080">
          <path
             d="M 2.921875,-1.90625 C 2.328125,-0.890625 1.734375,-0.546875 0.90625,-0.5 0.71875,-0.484375 0.578125,-0.484375 0.578125,-0.171875 0.578125,-0.0625 0.671875,0 0.796875,0 1.109375,0 1.875,-0.03125 2.1875,-0.03125 2.6875,-0.03125 3.234375,0 3.71875,0 3.828125,0 4.03125,0 4.03125,-0.328125 4.03125,-0.484375 3.890625,-0.5 3.78125,-0.5 3.390625,-0.53125 3.0625,-0.671875 3.0625,-1.078125 c 0,-0.25 0.109375,-0.4375 0.328125,-0.8125 L 4.703125,-4.0625 H 9.09375 c 0.015625,0.15625 0.015625,0.296875 0.03125,0.453125 0.046875,0.4375 0.265625,2.234375 0.265625,2.5625 C 9.390625,-0.53125 8.5,-0.5 8.234375,-0.5 c -0.1875,0 -0.375,0 -0.375,0.3125 C 7.859375,0 8,0 8.109375,0 8.40625,0 8.75,-0.03125 9.046875,-0.03125 h 0.96875 c 1.0625,0 1.8125,0.03125 1.828125,0.03125 0.125,0 0.3125,0 0.3125,-0.328125 C 12.15625,-0.5 12,-0.5 11.75,-0.5 c -0.953125,0 -0.96875,-0.15625 -1.015625,-0.671875 l -1.0625,-10.75 c -0.03125,-0.34375 -0.09375,-0.375 -0.28125,-0.375 -0.171875,0 -0.28125,0.03125 -0.4375,0.296875 z M 5,-4.5625 l 3.453125,-5.78125 0.59375,5.78125 z m 0,0"
             id="path61"
             style="fill:#800080" />
        </g>
      </g>
      <g
         fill="#000000"
         fill-opacity="1"
         id="g66"
         transform="matrix(0.352778,0,0,0.352778,-0.945621,-0.69925)"
         style="fill:#800080">
        <g
           id="g64"
           transform="translate(67.926003,14.904)"
           style="fill:#800080">
          <path
             d="m 4.53125,-4.28125 c 0,-1.25 -0.125,-3.34375 -1.15625,-5.5625 -0.828125,-1.796875 -2.234375,-3.046875 -2.4375,-3.046875 -0.0625,0 -0.125,0.01563 -0.125,0.09375 0,0.03125 0.015625,0.0625 0.03125,0.09375 0.828125,0.859375 2.921875,3.046875 2.921875,8.390625 0,5.375 -2.078125,7.5625 -2.921875,8.421875 C 0.828125,4.15625 0.8125,4.171875 0.8125,4.203125 0.8125,4.28125 0.875,4.3125 0.9375,4.3125 1.125,4.3125 2.578125,3.03125 3.421875,1.140625 4.28125,-0.78125 4.53125,-2.640625 4.53125,-4.28125 Z m 0,0"
             id="path63"
             style="fill:#800080" />
        </g>
        <g
           id="g65"
           transform="translate(74.021973,14.904)"
           style="fill:#800080">
          <path
             d="m 4.53125,-4.28125 c 0,-1.25 -0.125,-3.34375 -1.15625,-5.5625 -0.828125,-1.796875 -2.234375,-3.046875 -2.4375,-3.046875 -0.0625,0 -0.125,0.01563 -0.125,0.09375 0,0.03125 0.015625,0.0625 0.03125,0.09375 0.828125,0.859375 2.921875,3.046875 2.921875,8.390625 0,5.375 -2.078125,7.5625 -2.921875,8.421875 C 0.828125,4.15625 0.8125,4.171875 0.8125,4.203125 0.8125,4.28125 0.875,4.3125 0.9375,4.3125 1.125,4.3125 2.578125,3.03125 3.421875,1.140625 4.28125,-0.78125 4.53125,-2.640625 4.53125,-4.28125 Z m 0,0"
             id="path64"
             style="fill:#800080" />
        </g>
      </g>
      <g
         fill="#000000"
         fill-opacity="1"
         id="g68"
         transform="matrix(0.352778,0,0,0.352778,-0.945621,-0.69925)"
         style="fill:#800080">
        <g
           id="g67"
           transform="translate(84.903824,14.904)"
           style="fill:#800080">
          <path
             d="m 11.078125,-5.53125 c 0.25,0 0.515625,0 0.515625,-0.28125 C 11.59375,-6.125 11.296875,-6.125 11,-6.125 H 1.375 c -0.296875,0 -0.578125,0 -0.578125,0.3125 0,0.28125 0.25,0.28125 0.515625,0.28125 z M 11,-2.46875 c 0.296875,0 0.59375,0 0.59375,-0.296875 0,-0.296875 -0.265625,-0.296875 -0.515625,-0.296875 H 1.3125 c -0.265625,0 -0.515625,0 -0.515625,0.296875 0,0.296875 0.28125,0.296875 0.578125,0.296875 z m 0,0"
             id="path66"
             style="fill:#800080" />
        </g>
      </g>
      <g
         fill="#000000"
         fill-opacity="1"
         id="g74"
         transform="matrix(0.352778,0,0,0.352778,-0.945621,-0.69925)"
         style="fill:#800080">
        <g
           id="g69"
           transform="translate(102.08135,14.904)"
           style="fill:#800080">
          <path
             d="m 6.203125,-4.453125 c 0,-1.140625 0,-1.75 -0.734375,-2.421875 -0.625,-0.5625 -1.375,-0.734375 -1.953125,-0.734375 -1.359375,0 -2.34375,1.0625 -2.34375,2.203125 0,0.640625 0.515625,0.671875 0.625,0.671875 0.21875,0 0.609375,-0.140625 0.609375,-0.625 0,-0.421875 -0.328125,-0.609375 -0.609375,-0.609375 -0.078125,0 -0.15625,0.015625 -0.21875,0.03125 0.375,-1.09375 1.296875,-1.390625 1.90625,-1.390625 0.859375,0 1.796875,0.75 1.796875,2.203125 v 0.75 C 4.265625,-4.34375 3.046875,-4.203125 2.078125,-3.6875 1,-3.078125 0.6875,-2.21875 0.6875,-1.5625 c 0,1.328125 1.546875,1.703125 2.46875,1.703125 0.9375,0 1.8125,-0.53125 2.203125,-1.515625 0.03125,0.75 0.515625,1.4375 1.265625,1.4375 0.359375,0 1.28125,-0.234375 1.28125,-1.59375 V -2.5 h -0.3125 v 0.984375 c 0,1.046875 -0.46875,1.1875 -0.6875,1.1875 -0.703125,0 -0.703125,-0.890625 -0.703125,-1.65625 z m -0.921875,2.0625 c 0,1.5 -1.0625,2.25 -2.015625,2.25 -0.859375,0 -1.53125,-0.640625 -1.53125,-1.421875 0,-0.515625 0.234375,-1.4375 1.234375,-1.984375 0.8125,-0.46875 1.765625,-0.53125 2.3125,-0.5625 z m 0,0"
             id="path68"
             style="fill:#800080" />
        </g>
        <g
           id="g70"
           transform="translate(109.97633,14.904)"
           style="fill:#800080">
          <path
             d="m 2.578125,-4.0625 c 0,-1.65625 0.703125,-3.203125 2,-3.203125 0.125,0 0.25,0.015625 0.359375,0.0625 0,0 -0.375,0.125 -0.375,0.578125 0,0.40625 0.328125,0.578125 0.578125,0.578125 0.21875,0 0.59375,-0.125 0.59375,-0.59375 0,-0.5625 -0.546875,-0.90625 -1.140625,-0.90625 -1.3125,0 -1.875,1.28125 -2.046875,1.875 H 2.53125 v -1.875 l -2,0.1875 v 0.453125 c 1.015625,0 1.171875,0.109375 1.171875,0.9375 v 4.78125 c 0,0.65625 -0.0625,0.734375 -1.171875,0.734375 V 0 c 0.421875,-0.03125 1.203125,-0.03125 1.65625,-0.03125 0.5,0 1.375,0 1.84375,0.03125 v -0.453125 c -1.234375,0 -1.453125,0 -1.453125,-0.765625 z m 0,0"
             id="path69"
             style="fill:#800080" />
        </g>
        <g
           id="g71"
           transform="translate(116.07231,14.904)"
           style="fill:#800080">
          <path
             d="m 6.5625,-4.046875 c 0.0625,-0.0625 0.0625,-0.109375 0.0625,-0.28125 0,-1.75 -0.921875,-3.28125 -2.890625,-3.28125 -1.828125,0 -3.265625,1.734375 -3.265625,3.859375 0,2.234375 1.625,3.890625 3.453125,3.890625 1.9375,0 2.6875,-1.828125 2.6875,-2.1875 0,-0.125 -0.09375,-0.125 -0.140625,-0.125 -0.109375,0 -0.125,0.03125 -0.203125,0.25 -0.375,1.171875 -1.328125,1.75 -2.21875,1.75 C 3.3125,-0.171875 2.5625,-0.578125 2.09375,-1.34375 1.5625,-2.21875 1.5625,-3.234375 1.5625,-4.046875 Z M 1.578125,-4.3125 c 0.125,-2.46875 1.453125,-3.015625 2.140625,-3.015625 1.171875,0 1.96875,1.09375 1.984375,3.015625 z m 0,0"
             id="path70"
             style="fill:#800080" />
        </g>
        <g
           id="g72"
           transform="translate(123.06865,14.904)"
           style="fill:#800080">
          <path
             d="m 6.203125,-4.453125 c 0,-1.140625 0,-1.75 -0.734375,-2.421875 -0.625,-0.5625 -1.375,-0.734375 -1.953125,-0.734375 -1.359375,0 -2.34375,1.0625 -2.34375,2.203125 0,0.640625 0.515625,0.671875 0.625,0.671875 0.21875,0 0.609375,-0.140625 0.609375,-0.625 0,-0.421875 -0.328125,-0.609375 -0.609375,-0.609375 -0.078125,0 -0.15625,0.015625 -0.21875,0.03125 0.375,-1.09375 1.296875,-1.390625 1.90625,-1.390625 0.859375,0 1.796875,0.75 1.796875,2.203125 v 0.75 C 4.265625,-4.34375 3.046875,-4.203125 2.078125,-3.6875 1,-3.078125 0.6875,-2.21875 0.6875,-1.5625 c 0,1.328125 1.546875,1.703125 2.46875,1.703125 0.9375,0 1.8125,-0.53125 2.203125,-1.515625 0.03125,0.75 0.515625,1.4375 1.265625,1.4375 0.359375,0 1.28125,-0.234375 1.28125,-1.59375 V -2.5 h -0.3125 v 0.984375 c 0,1.046875 -0.46875,1.1875 -0.6875,1.1875 -0.703125,0 -0.703125,-0.890625 -0.703125,-1.65625 z m -0.921875,2.0625 c 0,1.5 -1.0625,2.25 -2.015625,2.25 -0.859375,0 -1.53125,-0.640625 -1.53125,-1.421875 0,-0.515625 0.234375,-1.4375 1.234375,-1.984375 0.8125,-0.46875 1.765625,-0.53125 2.3125,-0.5625 z m 0,0"
             id="path71"
             style="fill:#800080" />
        </g>
        <g
           id="g73"
           transform="translate(130.96362,14.904)"
           style="fill:#800080">
          <path
             d="m 5.265625,4.203125 c 0,-0.015625 0,-0.046875 -0.046875,-0.109375 -0.796875,-0.8125 -2.90625,-3.015625 -2.90625,-8.375 0,-5.375 2.078125,-7.5625 2.921875,-8.421875 0,-0.01563 0.03125,-0.0625 0.03125,-0.109375 0,-0.04687 -0.046875,-0.07813 -0.125,-0.07813 -0.1875,0 -1.640625,1.265625 -2.484375,3.15625 -0.859375,1.921875 -1.109375,3.78125 -1.109375,5.421875 0,1.25 0.125,3.34375 1.15625,5.5625 0.828125,1.796875 2.234375,3.0625 2.4375,3.0625 0.09375,0 0.125,-0.046875 0.125,-0.109375 z m 0,0"
             id="path72"
             style="fill:#800080" />
        </g>
      </g>
      <g
         fill="#000000"
         fill-opacity="1"
         id="g76"
         transform="matrix(0.352778,0,0,0.352778,-0.945621,-0.69925)"
         style="fill:#800080">
        <g
           id="g75"
           transform="translate(137.05499,14.904)"
           style="fill:#800080">
          <path
             d="M 2.921875,-1.90625 C 2.328125,-0.890625 1.734375,-0.546875 0.90625,-0.5 0.71875,-0.484375 0.578125,-0.484375 0.578125,-0.171875 0.578125,-0.0625 0.671875,0 0.796875,0 1.109375,0 1.875,-0.03125 2.1875,-0.03125 2.6875,-0.03125 3.234375,0 3.71875,0 3.828125,0 4.03125,0 4.03125,-0.328125 4.03125,-0.484375 3.890625,-0.5 3.78125,-0.5 3.390625,-0.53125 3.0625,-0.671875 3.0625,-1.078125 c 0,-0.25 0.109375,-0.4375 0.328125,-0.8125 L 4.703125,-4.0625 H 9.09375 c 0.015625,0.15625 0.015625,0.296875 0.03125,0.453125 0.046875,0.4375 0.265625,2.234375 0.265625,2.5625 C 9.390625,-0.53125 8.5,-0.5 8.234375,-0.5 c -0.1875,0 -0.375,0 -0.375,0.3125 C 7.859375,0 8,0 8.109375,0 8.40625,0 8.75,-0.03125 9.046875,-0.03125 h 0.96875 c 1.0625,0 1.8125,0.03125 1.828125,0.03125 0.125,0 0.3125,0 0.3125,-0.328125 C 12.15625,-0.5 12,-0.5 11.75,-0.5 c -0.953125,0 -0.96875,-0.15625 -1.015625,-0.671875 l -1.0625,-10.75 c -0.03125,-0.34375 -0.09375,-0.375 -0.28125,-0.375 -0.171875,0 -0.28125,0.03125 -0.4375,0.296875 z M 5,-4.5625 l 3.453125,-5.78125 0.59375,5.78125 z m 0,0"
             id="path74"
             style="fill:#800080" />
        </g>
      </g>
      <g
         fill="#000000"
         fill-opacity="1"
         id="g78"
         transform="matrix(0.352778,0,0,0.352778,-0.945621,-0.69925)"
         style="fill:#800080">
        <g
           id="g77"
           transform="translate(149.69099,14.904)"
           style="fill:#800080">
          <path
             d="m 4.53125,-4.28125 c 0,-1.25 -0.125,-3.34375 -1.15625,-5.5625 -0.828125,-1.796875 -2.234375,-3.046875 -2.4375,-3.046875 -0.0625,0 -0.125,0.01563 -0.125,0.09375 0,0.03125 0.015625,0.0625 0.03125,0.09375 0.828125,0.859375 2.921875,3.046875 2.921875,8.390625 0,5.375 -2.078125,7.5625 -2.921875,8.421875 C 0.828125,4.15625 0.8125,4.171875 0.8125,4.203125 0.8125,4.28125 0.875,4.3125 0.9375,4.3125 1.125,4.3125 2.578125,3.03125 3.421875,1.140625 4.28125,-0.78125 4.53125,-2.640625 4.53125,-4.28125 Z m 0,0"
             id="path76"
             style="fill:#800080" />
        </g>
      </g>
      <g
         fill="#000000"
         fill-opacity="1"
         id="g80"
         transform="matrix(0.352778,0,0,0.352778,-0.945621,-0.69925)"
         style="fill:#800080">
        <g
           id="g79"
           transform="translate(159.614,14.904)"
           style="fill:#800080">
          <path
             d="m 3.3125,-4.3125 c 0,-0.484375 -0.421875,-0.90625 -0.921875,-0.90625 -0.5,0 -0.90625,0.421875 -0.90625,0.90625 0,0.5 0.40625,0.921875 0.90625,0.921875 0.5,0 0.921875,-0.421875 0.921875,-0.921875 z m 0,0"
             id="path78"
             style="fill:#800080" />
        </g>
      </g>
      <g
         fill="#000000"
         fill-opacity="1"
         id="g82"
         transform="matrix(0.352778,0,0,0.352778,-0.945621,-0.69925)"
         style="fill:#800080">
        <g
           id="g81"
           transform="translate(168.21826,14.904)"
           style="fill:#800080">
          <path
             d="m 2.734375,-12.296875 c 0,-0.3125 0,-0.625 -0.34375,-0.625 -0.34375,0 -0.34375,0.3125 -0.34375,0.625 V 3.6875 c 0,0.3125 0,0.625 0.34375,0.625 0.34375,0 0.34375,-0.3125 0.34375,-0.625 z m 0,0"
             id="path80"
             style="fill:#800080" />
        </g>
      </g>
      <g
         fill="#000000"
         fill-opacity="1"
         id="g87"
         transform="matrix(0.352778,0,0,0.352778,-0.945621,-0.69925)"
         style="fill:#800080">
        <g
           id="g83"
           transform="translate(175.873,14.904)"
           style="fill:#800080">
          <path
             d="m 5.03125,-11.765625 v 0.453125 c 1.015625,0 1.171875,0.109375 1.171875,0.921875 v 4.03125 C 6.125,-6.4375 5.421875,-7.546875 4.03125,-7.546875 c -1.765625,0 -3.46875,1.578125 -3.46875,3.84375 0,2.25 1.609375,3.84375 3.296875,3.84375 1.46875,0 2.21875,-1.140625 2.3125,-1.265625 V 0.140625 L 8.25,0 v -0.453125 c -1.015625,0 -1.171875,-0.09375 -1.171875,-0.921875 V -11.953125 Z M 6.171875,-2.0625 c 0,0.515625 -0.3125,0.984375 -0.71875,1.328125 -0.578125,0.515625 -1.171875,0.59375 -1.5,0.59375 -0.484375,0 -2.28125,-0.25 -2.28125,-3.546875 0,-3.375 2,-3.578125 2.4375,-3.578125 0.796875,0 1.4375,0.453125 1.828125,1.0625 0.234375,0.359375 0.234375,0.421875 0.234375,0.734375 z m 0,0"
             id="path82"
             style="fill:#800080" />
        </g>
        <g
           id="g84"
           transform="translate(184.66835,14.904)"
           style="fill:#800080">
          <path
             d="m 6.5625,-4.046875 c 0.0625,-0.0625 0.0625,-0.109375 0.0625,-0.28125 0,-1.75 -0.921875,-3.28125 -2.890625,-3.28125 -1.828125,0 -3.265625,1.734375 -3.265625,3.859375 0,2.234375 1.625,3.890625 3.453125,3.890625 1.9375,0 2.6875,-1.828125 2.6875,-2.1875 0,-0.125 -0.09375,-0.125 -0.140625,-0.125 -0.109375,0 -0.125,0.03125 -0.203125,0.25 -0.375,1.171875 -1.328125,1.75 -2.21875,1.75 C 3.3125,-0.171875 2.5625,-0.578125 2.09375,-1.34375 1.5625,-2.21875 1.5625,-3.234375 1.5625,-4.046875 Z M 1.578125,-4.3125 c 0.125,-2.46875 1.453125,-3.015625 2.140625,-3.015625 1.171875,0 1.96875,1.09375 1.984375,3.015625 z m 0,0"
             id="path83"
             style="fill:#800080" />
        </g>
        <g
           id="g85"
           transform="translate(191.66469,14.904)"
           style="fill:#800080">
          <path
             d="M 2.59375,-6.953125 H 5.015625 V -7.40625 H 2.59375 v -3.1875 H 2.296875 C 2.25,-8.8125 1.65625,-7.265625 0.1875,-7.234375 v 0.28125 h 1.5 V -2.125 c 0,0.328125 0,2.265625 2,2.265625 1.015625,0 1.59375,-1 1.59375,-2.28125 v -0.96875 h -0.3125 v 0.953125 c 0,1.1875 -0.453125,1.984375 -1.1875,1.984375 -0.5,0 -1.1875,-0.34375 -1.1875,-1.90625 z m 0,0"
             id="path84"
             style="fill:#800080" />
        </g>
        <g
           id="g86"
           transform="translate(197.76067,14.904)"
           style="fill:#800080">
          <path
             d="m 5.265625,4.203125 c 0,-0.015625 0,-0.046875 -0.046875,-0.109375 -0.796875,-0.8125 -2.90625,-3.015625 -2.90625,-8.375 0,-5.375 2.078125,-7.5625 2.921875,-8.421875 0,-0.01563 0.03125,-0.0625 0.03125,-0.109375 0,-0.04687 -0.046875,-0.07813 -0.125,-0.07813 -0.1875,0 -1.640625,1.265625 -2.484375,3.15625 -0.859375,1.921875 -1.109375,3.78125 -1.109375,5.421875 0,1.25 0.125,3.34375 1.15625,5.5625 0.828125,1.796875 2.234375,3.0625 2.4375,3.0625 0.09375,0 0.125,-0.046875 0.125,-0.109375 z m 0,0"
             id="path85"
             style="fill:#800080" />
        </g>
      </g>
      <g
         fill="#000000"
         fill-opacity="1"
         id="g88"
         transform="matrix(0.352778,0,0,0.352778,-0.945621,-0.69925)"
         style="fill:#800080">
        <g
           id="use36"
           transform="translate(203.856,14.904)"
           style="fill:#800080">
          <path
             d="m 7.1875,-10.5 c 0.09375,-0.421875 0.125,-0.578125 0.390625,-0.640625 0.140625,-0.03125 0.703125,-0.03125 1.0625,-0.03125 1.71875,0 2.53125,0.0625 2.53125,1.40625 0,0.265625 -0.0625,0.921875 -0.171875,1.546875 L 10.984375,-8 c 0,0.0625 0.0625,0.171875 0.171875,0.171875 0.171875,0 0.171875,-0.09375 0.21875,-0.375 l 0.5,-3.046875 c 0.04687,-0.15625 0.04687,-0.1875 0.04687,-0.234375 0,-0.1875 -0.109375,-0.1875 -0.453125,-0.1875 h -9.42187 c -0.390625,0 -0.40625,0.01563 -0.515625,0.328125 L 0.484375,-8.25 C 0.46875,-8.21875 0.40625,-8.03125 0.40625,-8 c 0,0.078125 0.078125,0.171875 0.171875,0.171875 0.140625,0 0.171875,-0.078125 0.25,-0.296875 0.71875,-2.078125 1.078125,-3.046875 3.375,-3.046875 h 1.15625 c 0.40625,0 0.578125,0 0.578125,0.1875 0,0.04687 0,0.07813 -0.078125,0.390625 l -2.3125,9.25 C 3.375,-0.671875 3.34375,-0.5 1.515625,-0.5 1.078125,-0.5 0.96875,-0.5 0.96875,-0.171875 0.96875,0 1.15625,0 1.234375,0 1.671875,0 2.125,-0.03125 2.546875,-0.03125 h 2.6875 C 5.671875,-0.03125 6.125,0 6.5625,0 6.75,0 6.921875,0 6.921875,-0.328125 6.921875,-0.5 6.796875,-0.5 6.359375,-0.5 c -1.5625,0 -1.5625,-0.15625 -1.5625,-0.40625 0,-0.03125 0,-0.140625 0.078125,-0.421875 z m 0,0"
             id="path62"
             style="fill:#800080" />
        </g>
      </g>
      <g
         fill="#000000"
         fill-opacity="1"
         id="g37"
         transform="matrix(0.352778,0,0,0.352778,-0.945621,-0.69925)"
         style="fill:#800080">
        <g
           id="use37"
           transform="translate(216.077,14.904)"
           style="fill:#800080">
          <path
             d="m 4.53125,-4.28125 c 0,-1.25 -0.125,-3.34375 -1.15625,-5.5625 -0.828125,-1.796875 -2.234375,-3.046875 -2.4375,-3.046875 -0.0625,0 -0.125,0.01563 -0.125,0.09375 0,0.03125 0.015625,0.0625 0.03125,0.09375 0.828125,0.859375 2.921875,3.046875 2.921875,8.390625 0,5.375 -2.078125,7.5625 -2.921875,8.421875 C 0.828125,4.15625 0.8125,4.171875 0.8125,4.203125 0.8125,4.28125 0.875,4.3125 0.9375,4.3125 1.125,4.3125 2.578125,3.03125 3.421875,1.140625 4.28125,-0.78125 4.53125,-2.640625 4.53125,-4.28125 Z m 0,0"
             id="path88"
             style="fill:#800080" />
        </g>
      </g>
      <g
         fill="#000000"
         fill-opacity="1"
         id="g38"
         transform="matrix(0.352778,0,0,0.352778,-0.945621,-0.69925)"
         style="fill:#800080">
        <g
           id="use38"
           transform="translate(222.174,14.904)"
           style="fill:#800080">
          <path
             d="m 2.734375,-12.296875 c 0,-0.3125 0,-0.625 -0.34375,-0.625 -0.34375,0 -0.34375,0.3125 -0.34375,0.625 V 3.6875 c 0,0.3125 0,0.625 0.34375,0.625 0.34375,0 0.34375,-0.3125 0.34375,-0.625 z m 0,0"
             id="path89"
             style="fill:#800080" />
        </g>
      </g>
    </g>
  </g>
</svg>
