<?xml version="1.0" encoding="UTF-8" standalone="no"?>
<!-- Created with Inkscape (http://www.inkscape.org/) -->

<svg
   width="104.77533mm"
   height="104.775mm"
   viewBox="0 0 104.77533 104.775"
   version="1.1"
   id="svg5"
   sodipodi:docname="prob-22-04-23_01.svg"
   inkscape:version="1.2.2 (b0a84865, 2022-12-01)"
   xmlns:inkscape="http://www.inkscape.org/namespaces/inkscape"
   xmlns:sodipodi="http://sodipodi.sourceforge.net/DTD/sodipodi-0.dtd"
   xmlns="http://www.w3.org/2000/svg"
   xmlns:svg="http://www.w3.org/2000/svg">
  <sodipodi:namedview
     id="namedview7"
     pagecolor="#ffffff"
     bordercolor="#000000"
     borderopacity="0.25"
     inkscape:showpageshadow="2"
     inkscape:pageopacity="0.0"
     inkscape:pagecheckerboard="0"
     inkscape:deskcolor="#d1d1d1"
     inkscape:document-units="mm"
     showgrid="false"
     inkscape:zoom="2.1636645"
     inkscape:cx="228.08527"
     inkscape:cy="206.59395"
     inkscape:window-width="1512"
     inkscape:window-height="916"
     inkscape:window-x="0"
     inkscape:window-y="38"
     inkscape:window-maximized="1"
     inkscape:current-layer="layer1" />
  <defs
     id="defs2">
    <clipPath
       id="clipPath1812">
      <rect
         style="font-variation-settings:normal;vector-effect:none;fill:#ffffff;fill-opacity:1;stroke:#ff00ff;stroke-width:0.465;stroke-linecap:butt;stroke-linejoin:miter;stroke-miterlimit:4;stroke-dasharray:none;stroke-dashoffset:0;stroke-opacity:1;-inkscape-stroke:none;stop-color:#000000"
         width="104.775"
         height="104.775"
         x="49.966667"
         y="88.635406"
         id="rect526" />
    </clipPath>
    <clipPath
       id="clipPath3195">
      <rect
         style="font-variation-settings:normal;vector-effect:none;fill:none;fill-opacity:1;stroke:#008000;stroke-width:0.465;stroke-linecap:butt;stroke-linejoin:miter;stroke-miterlimit:4;stroke-dasharray:none;stroke-dashoffset:0;stroke-opacity:1;-inkscape-stroke:none;stop-color:#000000"
         width="104.775"
         height="104.775"
         x="49.966667"
         y="88.635406"
         id="rect556" />
    </clipPath>
    <clipPath
       clipPathUnits="userSpaceOnUse"
       id="clipPath588">
      <rect
         style="font-variation-settings:normal;vector-effect:none;fill:none;fill-opacity:1;stroke:#ff00ff;stroke-width:0.465;stroke-linecap:butt;stroke-linejoin:miter;stroke-miterlimit:4;stroke-dasharray:none;stroke-dashoffset:0;stroke-opacity:1;-inkscape-stroke:none;stop-color:#000000"
         id="rect590"
         width="104.775"
         height="104.775"
         x="49.966667"
         y="88.635406" />
    </clipPath>
  </defs>
  <g
     inkscape:label="Layer 1"
     inkscape:groupmode="layer"
     id="layer1"
     transform="translate(-49.966667,-88.635)">
    <path
       style="font-variation-settings:normal;fill:#ffffff;fill-opacity:1;stroke:#000000;stroke-width:0.565;stroke-linecap:butt;stroke-linejoin:miter;stroke-miterlimit:4;stroke-dasharray:none;stroke-dashoffset:0;stroke-opacity:1;stop-color:#000000"
       d="m 49.9667,141.023 h 104.775"
       id="path530" />
    <path
       style="font-variation-settings:normal;fill:#ffffff;fill-opacity:1;stroke:#000000;stroke-width:0.565;stroke-linecap:butt;stroke-linejoin:miter;stroke-miterlimit:4;stroke-dasharray:none;stroke-dashoffset:0;stroke-opacity:1;stop-color:#000000"
       d="M 102.354,193.41 V 88.635"
       id="path576" />
    <path
       style="font-variation-settings:normal;fill:none;fill-opacity:1;stroke:#0000ff;stroke-width:0.565;stroke-linecap:butt;stroke-linejoin:miter;stroke-miterlimit:4;stroke-dasharray:none;stroke-dashoffset:0;stroke-opacity:1;stop-color:#000000"
       d="m 49.9667,-23.5573 c 0.0349,0.2197 0.0699,0.4391 0.1048,0.6583 0.035,0.2193 0.07,0.4383 0.1049,0.657 0.035,0.2188 0.0699,0.4374 0.1049,0.6557 0.035,0.2184 0.0699,0.4365 0.1049,0.6544 0.0349,0.2179 0.0699,0.4356 0.1049,0.653 0.0349,0.2175 0.0699,0.4347 0.1048,0.6518 0.035,0.217 0.07,0.4338 0.1049,0.6504 0.035,0.2165 0.0699,0.4329 0.1049,0.649 0.035,0.2162 0.0699,0.4321 0.1049,0.6478 0.0349,0.2157 0.0699,0.4312 0.1049,0.6465 0.0349,0.2152 0.0699,0.4303 0.1048,0.6451 0.035,0.2148 0.07,0.4294 0.1049,0.6438 0.035,0.2144 0.0699,0.4285 0.1049,0.6425 0.035,0.2139 0.0699,0.4276 0.1049,0.6411 0.0349,0.2136 0.0699,0.4268 0.1049,0.6399 0.0349,0.2131 0.0699,0.4259 0.1048,0.6385 0.035,0.2127 0.07,0.4251 0.1049,0.6372 0.035,0.2122 0.0699,0.4242 0.1049,0.6359 0.035,0.2118 0.0699,0.4233 0.1049,0.6346 0.0349,0.2113 0.0699,0.4224 0.1049,0.6333 0.0349,0.2108 0.0699,0.4215 0.1048,0.6319 0.035,0.21042 0.07,0.42062 0.1049,0.63061 0.035,0.20998 0.0699,0.41975 0.1049,0.6293 0.035,0.20954 0.0699,0.41887 0.1049,0.62797 0.0349,0.20911 0.0699,0.41799 0.1049,0.62666 0.0349,0.20867 0.0699,0.41711 0.1048,0.62534 0.035,0.20822 0.07,0.41623 0.1049,0.62402 0.035,0.20778 0.0699,0.41535 0.1049,0.6227 0.035,0.20734 0.0699,0.41447 0.1049,0.62138 0.0349,0.2069 0.0699,0.41359 0.1049,0.62006 0.0349,0.20646 0.0699,0.41271 0.1048,0.61874 0.035,0.20603 0.07,0.41183 0.1049,0.61742 0.035,0.20559 0.0699,0.41096 0.1049,0.6161 0.035,0.20515 0.0699,0.41008 0.1049,0.61479 0.0349,0.20471 0.0699,0.40919 0.1049,0.61346 0.0349,0.20427 0.0699,0.408319 0.1048,0.612148 0.035,0.203829 0.07,0.407437 0.1049,0.6108262 0.035,0.2033888 0.0699,0.4065578 0.1049,0.6095068 0.035,0.202949 0.0699,0.405678 0.1049,0.608189 0.0349,0.20251 0.0699,0.4048 0.1049,0.60687 0.0349,0.20207 0.0699,0.40392 0.1048,0.60555 0.035,0.20163 0.07,0.40304 0.1049,0.60423 0.035,0.20119 0.0699,0.40216 0.1049,0.60291 0.035,0.20075 0.0699,0.40128 0.1049,0.60159 0.0349,0.20031 0.0699,0.4004 0.1049,0.60027 0.0349,0.19987 0.0699,0.39952 0.1048,0.59895 0.035,0.19943 0.07,0.39864 0.1049,0.59763 0.035,0.199 0.0699,0.39777 0.1049,0.59632 0.035,0.19855 0.0699,0.39688 0.1049,0.59499 0.0349,0.19811 0.0699,0.39601 0.1049,0.59368 0.0349,0.19767 0.0699,0.39512 0.1048,0.59235 0.035,0.19724 0.07,0.39425 0.1049,0.59104 0.035,0.19679 0.0699,0.39337 0.1049,0.58972 0.035,0.19635 0.0699,0.39248 0.1049,0.58838 0.0349,0.1959 0.0699,0.3916 0.1049,0.5871 0.0349,0.1955 0.0699,0.3907 0.1048,0.5858 0.035,0.195 0.07,0.3898 0.1049,0.5844 0.035,0.1946 0.0699,0.389 0.1049,0.5831 0.035,0.1942 0.0699,0.3881 0.1049,0.5818 0.0349,0.1937 0.0699,0.3872 0.1049,0.5805 0.0349,0.1933 0.0699,0.3863 0.1048,0.5792 0.035,0.1928 0.07,0.3854 0.1049,0.5778 0.035,0.1924 0.0699,0.3846 0.1049,0.5765 0.035,0.192 0.0699,0.3837 0.1049,0.5752 0.0349,0.1916 0.0699,0.3829 0.1049,0.5739 0.0349,0.1911 0.0699,0.382 0.1048,0.5726 0.035,0.1906 0.07,0.381 0.1049,0.5712 0.035,0.1902 0.0699,0.3802 0.1049,0.57 0.035,0.1897 0.0699,0.3793 0.1049,0.5686 0.0349,0.1893 0.0699,0.3784 0.1049,0.5673 0.0349,0.1888 0.0699,0.3775 0.1048,0.5659 0.035,0.1885 0.07,0.3767 0.1049,0.5647 0.035,0.188 0.0699,0.3758 0.1049,0.5633 0.035,0.1876 0.0699,0.3749 0.1049,0.562 0.0349,0.1872 0.0699,0.3741 0.1049,0.5607 0.0349,0.1867 0.0699,0.3732 0.1048,0.5594 0.035,0.1862 0.07,0.3723 0.1049,0.5581 0.035,0.1858 0.0699,0.3713 0.1049,0.5567 0.035,0.1854 0.0699,0.3705 0.1049,0.5554 0.0349,0.1849 0.0699,0.3696 0.1049,0.5541 0.0349,0.1845 0.0699,0.3687 0.1048,0.5528 0.035,0.184 0.07,0.3678 0.1049,0.5514 0.035,0.1836 0.0699,0.367 0.1049,0.5502 0.035,0.1831 0.0699,0.3661 0.1049,0.5488 0.0349,0.1827 0.0699,0.3652 0.1049,0.5475 0.0349,0.1823 0.0699,0.3643 0.1048,0.5462 0.035,0.1818 0.07,0.3634 0.1049,0.5448 0.035,0.1814 0.0699,0.3626 0.1049,0.5436 0.035,0.181 0.0699,0.3617 0.1049,0.5422 0.0349,0.1805 0.0699,0.3608 0.1049,0.5409 0.0349,0.1801 0.0699,0.36 0.1048,0.5396 0.035,0.1796 0.07,0.3591 0.1049,0.5383 0.035,0.1792 0.0699,0.3582 0.1049,0.5369 0.035,0.1788 0.0699,0.3573 0.1049,0.5356 0.0349,0.1784 0.0699,0.3565 0.1049,0.5343 0.0349,0.1779 0.0699,0.3556 0.1048,0.533 0.035,0.1775 0.07,0.3547 0.1049,0.5317 0.035,0.177 0.0699,0.3538 0.1049,0.5304 0.035,0.1765 0.0699,0.3529 0.1049,0.529 0.0349,0.1761 0.0699,0.352 0.1049,0.5277 0.0349,0.1757 0.0699,0.3511 0.1048,0.5264 0.035,0.1752 0.07,0.3503 0.1049,0.5251 0.035,0.1748 0.0699,0.3494 0.1049,0.5237 0.035,0.1744 0.0699,0.3485 0.1049,0.5225 0.0349,0.1739 0.0699,0.3476 0.1049,0.5211 0.0349,0.1735 0.0699,0.3467 0.1048,0.5198 0.035,0.173 0.07,0.3458 0.1049,0.5184 0.035,0.1726 0.0699,0.345 0.1049,0.5172 0.035,0.1722 0.0699,0.3441 0.1049,0.5158 0.0349,0.1718 0.0699,0.3433 0.1049,0.5146 0.0349,0.1712 0.0699,0.3423 0.1048,0.5132 0.035,0.1708 0.07,0.3414 0.1049,0.5118 0.035,0.1704 0.0699,0.3406 0.1049,0.5106 0.035,0.17 0.0699,0.3397 0.1049,0.5092 0.0349,0.1696 0.0699,0.3389 0.1049,0.508 0.0349,0.169 0.0699,0.3379 0.1048,0.5066 0.035,0.1686 0.07,0.337 0.1049,0.5052 0.035,0.1683 0.0699,0.3362 0.1049,0.504 0.035,0.1678 0.0699,0.3353 0.1049,0.5027 0.0349,0.1673 0.0699,0.3344 0.1049,0.5013 0.0349,0.1669 0.0699,0.3335 0.1048,0.5 0.035,0.1664 0.07,0.3327 0.1049,0.4987 0.035,0.166 0.0699,0.3318 0.1049,0.4973 0.035,0.1656 0.0699,0.331 0.1049,0.4961 0.0349,0.1651 0.0699,0.33 0.1049,0.4947 0.0349,0.1647 0.0699,0.3292 0.1048,0.4934 0.035,0.1643 0.07,0.3283 0.1049,0.4921 0.035,0.1638 0.0699,0.3274 0.1049,0.4908 0.035,0.1634 0.0699,0.3265 0.1049,0.4894 0.0349,0.163 0.0699,0.3257 0.1049,0.4882 0.0349,0.1625 0.0699,0.3247 0.1048,0.4868 0.035,0.162 0.07,0.3239 0.1049,0.4855 0.035,0.1616 0.0699,0.323 0.1049,0.4842 0.035,0.1611 0.0699,0.3221 0.1049,0.4828 0.0349,0.1608 0.0699,0.3213 0.1049,0.4816 0.0349,0.1602 0.0699,0.3203 0.1048,0.4802 0.035,0.1598 0.07,0.3195 0.1049,0.4789 0.035,0.1594 0.0699,0.3186 0.1049,0.4776 0.035,0.1589 0.0699,0.3177 0.1049,0.4762 0.0349,0.1585 0.0699,0.3169 0.1049,0.475 0.0349,0.158 0.0699,0.3159 0.1048,0.4736 0.035,0.1576 0.0699,0.3151 0.1049,0.4723 0.035,0.1572 0.0699,0.3142 0.1049,0.471 0.0349,0.1567 0.0699,0.3133 0.1049,0.4696 0.0349,0.1564 0.0699,0.3125 0.1048,0.4684 0.035,0.1559 0.07,0.3115 0.1049,0.467 0.035,0.1554 0.0699,0.3107 0.1049,0.4657 0.035,0.155 0.0699,0.3098 0.1049,0.4644 0.0349,0.1546 0.0699,0.3089 0.1049,0.463 0.0349,0.1542 0.0699,0.3081 0.1048,0.4618 0.035,0.1537 0.07,0.3072 0.1049,0.4604 0.035,0.1533 0.0699,0.3063 0.1049,0.4591 0.035,0.1528 0.0699,0.3054 0.1049,0.4578 0.0349,0.1524 0.0699,0.3046 0.1049,0.4565 0.0349,0.1519 0.0699,0.3036 0.1048,0.4551 0.035,0.1515 0.07,0.3028 0.1049,0.4539 0.035,0.151 0.0699,0.3019 0.1049,0.4525 0.035,0.1506 0.0699,0.301 0.1049,0.4512 0.0349,0.1502 0.0699,0.3001 0.1049,0.4499 0.0349,0.1497 0.0699,0.2992 0.1048,0.4485 0.035,0.1493 0.07,0.2984 0.1049,0.4472 0.035,0.1489 0.0699,0.2975 0.1049,0.446 0.035,0.1484 0.0699,0.2966 0.1049,0.4446 0.0349,0.1479 0.0699,0.2957 0.1049,0.4432 0.0349,0.1476 0.0699,0.2949 0.1048,0.442 0.035,0.1471 0.07,0.294 0.1049,0.4406 0.035,0.1467 0.0699,0.2931 0.1049,0.4394 0.035,0.1462 0.0699,0.2922 0.1049,0.438 0.0349,0.1457 0.0699,0.2913 0.1049,0.4366 0.0349,0.1454 0.0699,0.2905 0.1048,0.4354 0.035,0.1449 0.07,0.2896 0.1049,0.434 0.035,0.1445 0.0699,0.2887 0.1049,0.4328 0.035,0.144 0.0699,0.2878 0.1049,0.4314 0.0349,0.1435 0.0699,0.2869 0.1049,0.4301 0.0349,0.1431 0.0699,0.286 0.1048,0.4287 0.035,0.1427 0.07,0.2852 0.1049,0.4275 0.035,0.1422 0.0699,0.2843 0.1049,0.4261 0.035,0.1418 0.0699,0.2834 0.1049,0.4248 0.0349,0.1414 0.0699,0.2825 0.1049,0.4235 0.0349,0.1409 0.0699,0.2817 0.1048,0.4222 0.035,0.1405 0.07,0.2807 0.1049,0.4208 0.035,0.1401 0.0699,0.2799 0.1049,0.4195 0.035,0.1397 0.0699,0.2791 0.1049,0.4182 0.0349,0.1392 0.0699,0.2782 0.1049,0.4169 0.0349,0.1388 0.0699,0.2773 0.1048,0.4156 0.035,0.1383 0.07,0.2764 0.1049,0.4143 0.035,0.1378 0.0699,0.2755 0.1049,0.4129 0.035,0.1374 0.0699,0.2746 0.1049,0.4116 0.0349,0.137 0.0699,0.2738 0.1049,0.4103 0.0349,0.1366 0.0699,0.2729 0.1048,0.409 0.035,0.1361 0.07,0.272 0.1049,0.4076 0.035,0.1357 0.0699,0.2712 0.1049,0.4064 0.035,0.1352 0.0699,0.2702 0.1049,0.405 0.0349,0.1348 0.0699,0.2694 0.1049,0.4037 0.0349,0.1343 0.0699,0.2685 0.1048,0.4024 0.035,0.1339 0.07,0.2676 0.1049,0.401 0.035,0.1335 0.0699,0.2668 0.1049,0.3998 0.035,0.133 0.0699,0.2658 0.1049,0.3984 0.0349,0.1326 0.0699,0.265 0.1049,0.3971 0.0349,0.1322 0.0699,0.2641 0.1048,0.3958 0.035,0.1317 0.07,0.2632 0.1049,0.3945 0.035,0.1312 0.0699,0.2623 0.1049,0.3931 0.035,0.1308 0.0699,0.2614 0.1049,0.3918 0.0349,0.1304 0.0699,0.2606 0.1049,0.3905 0.0349,0.13 0.0699,0.2597 0.1048,0.3892 0.035,0.1295 0.07,0.2588 0.1049,0.3879 0.035,0.1291 0.0699,0.2579 0.1049,0.3865 0.035,0.1287 0.0699,0.2571 0.1049,0.3853 0.0349,0.1282 0.0699,0.2561 0.1049,0.3839 0.0349,0.1277 0.0699,0.2553 0.1048,0.3826 0.035,0.1273 0.07,0.2544 0.1049,0.3812 0.035,0.1269 0.0699,0.2536 0.1049,0.38 0.035,0.1264 0.0699,0.2526 0.1049,0.3786 0.0349,0.126 0.0699,0.2518 0.1049,0.3773 0.0349,0.1256 0.0699,0.2509 0.1048,0.376 0.035,0.1251 0.07,0.25 0.1049,0.3747 0.035,0.1247 0.0699,0.2491 0.1049,0.3734 0.035,0.1242 0.0699,0.2482 0.1049,0.372 0.0349,0.1238 0.0699,0.2474 0.1049,0.3707 0.0349,0.1234 0.0699,0.2465 0.1048,0.3694 0.035,0.1229 0.07,0.2456 0.1049,0.3681 0.035,0.1225 0.0699,0.2447 0.1049,0.3668 0.035,0.122 0.0699,0.2438 0.1049,0.3654 0.0349,0.1216 0.0699,0.243 0.1049,0.3641 0.0349,0.1212 0.0699,0.2421 0.1048,0.3628 0.035,0.1207 0.07,0.2412 0.1049,0.3615 0.035,0.1203 0.0699,0.2403 0.1049,0.3602 0.035,0.1198 0.0699,0.2394 0.1049,0.3588 0.0349,0.1194 0.0699,0.2386 0.1049,0.3575 0.0349,0.119 0.0699,0.2377 0.1048,0.3562 0.035,0.1185 0.07,0.2368 0.1049,0.3549 0.035,0.1181 0.0699,0.236 0.1049,0.3536 0.035,0.1176 0.0699,0.235 0.1049,0.3522 0.0349,0.1172 0.0699,0.2342 0.1049,0.351 0.0349,0.1167 0.0699,0.2333 0.1048,0.3496 0.035,0.1163 0.07,0.2324 0.1049,0.3483 0.035,0.1158 0.0699,0.2315 0.1049,0.3469 0.035,0.1155 0.0699,0.2307 0.1049,0.3457 0.0349,0.115 0.0699,0.2298 0.1049,0.3443 0.0349,0.1146 0.0699,0.2289 0.1048,0.343 0.035,0.1141 0.07,0.228 0.1049,0.3417 0.035,0.1137 0.0699,0.2272 0.1049,0.3404 0.035,0.1132 0.0699,0.2262 0.1049,0.339 0.0349,0.1128 0.0699,0.2254 0.1049,0.3378 0.0349,0.1123 0.0699,0.2245 0.1048,0.3364 0.035,0.1119 0.07,0.2236 0.1049,0.3351 0.035,0.1115 0.0699,0.2227 0.1049,0.3338 0.035,0.111 0.0699,0.2218 0.1049,0.3324 0.0349,0.1106 0.0699,0.221 0.1049,0.3312 0.0349,0.1101 0.0699,0.2201 0.1048,0.3298 0.035,0.1098 0.07,0.2188 0.1049,0.3288 0.035,0.109 0.0699,0.218 0.1049,0.327 0.035,0.109 0.0699,0.217 0.1049,0.326 0.0349,0.108 0.0699,0.216 0.1049,0.324 0.0349,0.108 0.0699,0.216 0.1048,0.324 0.035,0.107 0.07,0.214 0.1049,0.321 0.035,0.107 0.0699,0.214 0.1049,0.321 0.035,0.107 0.0699,0.213 0.1049,0.319 0.0349,0.106 0.0699,0.212 0.1049,0.318 0.0349,0.106 0.0699,0.212 0.1048,0.317 0.035,0.105 0.07,0.21 0.1049,0.315 0.035,0.105 0.0699,0.21 0.1049,0.314 0.035,0.105 0.0699,0.209 0.1049,0.313 0.0349,0.104 0.0699,0.208 0.1049,0.311 0.0349,0.104 0.0699,0.207 0.1048,0.31 0.035,0.103 0.07,0.206 0.1049,0.309 0.035,0.103 0.0699,0.205 0.1049,0.307 0.035,0.103 0.0699,0.205 0.1049,0.306 0.0349,0.102 0.0699,0.204 0.1049,0.305 0.0349,0.101 0.0699,0.203 0.1048,0.304 0.035,0.1 0.07,0.201 0.1049,0.302 0.035,0.1 0.0699,0.2 0.1049,0.3 0.035,0.1 0.0699,0.2 0.1049,0.3 0.0349,0.1 0.0699,0.199 0.1049,0.298 0.0349,0.099 0.0699,0.198 0.1048,0.297 0.035,0.099 0.07,0.197 0.1049,0.295 0.035,0.099 0.0699,0.197 0.1049,0.295 0.035,0.097 0.0699,0.195 0.1049,0.293 0.0349,0.097 0.0699,0.194 0.1049,0.291 0.0349,0.097 0.0699,0.194 0.1048,0.29 0.035,0.097 0.07,0.193 0.1049,0.289 0.035,0.096 0.0699,0.192 0.1049,0.288 0.035,0.095 0.0699,0.191 0.1049,0.286 0.0349,0.095 0.0699,0.19 0.1049,0.285 0.0349,0.095 0.0699,0.189 0.1048,0.284 0.035,0.094 0.07,0.188 0.1049,0.282 0.035,0.094 0.0699,0.188 0.1049,0.281 0.035,0.094 0.0699,0.187 0.1049,0.28 0.0349,0.093 0.0699,0.186 0.1049,0.278 0.0349,0.093 0.0699,0.185 0.1048,0.277 0.035,0.092 0.07,0.184 0.1049,0.276 0.035,0.092 0.0699,0.183 0.1049,0.274 0.035,0.092 0.0699,0.183 0.1049,0.273 0.0349,0.091 0.0699,0.182 0.1049,0.272 0.0349,0.091 0.0699,0.181 0.1048,0.271 0.035,0.09 0.07,0.179 0.1049,0.269 0.035,0.089 0.0699,0.179 0.1049,0.268 0.035,0.089 0.0699,0.177 0.1049,0.266 0.0349,0.089 0.0699,0.177 0.1049,0.265 0.0349,0.088 0.0699,0.176 0.1048,0.264 0.035,0.088 0.07,0.175 0.1049,0.263 0.035,0.087 0.0699,0.174 0.1049,0.261 0.035,0.087 0.0699,0.173 0.1049,0.26 0.0349,0.086 0.0699,0.172 0.1049,0.258 0.0349,0.086 0.0699,0.172 0.1048,0.258 0.035,0.085 0.07,0.17 0.1049,0.256 0.035,0.085 0.0699,0.169 0.1049,0.254 0.035,0.085 0.0699,0.169 0.1049,0.253 0.0349,0.085 0.0699,0.169 0.1048,0.252 0.035,0.084 0.07,0.168 0.1049,0.251 0.035,0.083 0.0699,0.167 0.1049,0.249 0.035,0.083 0.0699,0.166 0.1049,0.248 0.0349,0.083 0.0699,0.165 0.1049,0.247 0.0349,0.082 0.0699,0.164 0.1048,0.246 0.035,0.081 0.07,0.162 0.1049,0.244 0.035,0.081 0.0699,0.162 0.1049,0.242 0.035,0.081 0.0699,0.162 0.1049,0.242 0.0349,0.08 0.0699,0.16 0.1049,0.24 0.0349,0.08 0.0699,0.159 0.1048,0.239 0.035,0.079 0.07,0.158 0.1049,0.237 0.035,0.079 0.0699,0.158 0.1049,0.236 0.035,0.079 0.0699,0.157 0.1049,0.235 0.0349,0.078 0.0699,0.156 0.1049,0.234 0.0349,0.077 0.0699,0.155 0.1048,0.232 0.035,0.077 0.07,0.154 0.1049,0.231 0.035,0.076 0.0699,0.153 0.1049,0.229 0.035,0.077 0.0699,0.153 0.1049,0.229 0.0349,0.075 0.0699,0.151 0.1049,0.226 0.0349,0.076 0.0699,0.151 0.1048,0.226 0.035,0.075 0.07,0.15 0.1049,0.224 0.035,0.075 0.0699,0.149 0.1049,0.223 0.035,0.074 0.0699,0.148 0.1049,0.222 0.0349,0.074 0.0699,0.147 0.1049,0.22 0.0349,0.073 0.0699,0.146 0.1048,0.219 0.035,0.073 0.07,0.146 0.1049,0.218 0.035,0.072 0.0699,0.144 0.1049,0.216 0.035,0.072 0.0699,0.144 0.1049,0.215 0.0349,0.072 0.0699,0.143 0.1049,0.214 0.0349,0.071 0.0699,0.142 0.1048,0.212 0.035,0.071 0.07,0.141 0.1049,0.212 0.035,0.07 0.0699,0.14 0.1049,0.209 0.035,0.07 0.0699,0.139 0.1049,0.209 0.0349,0.069 0.0699,0.138 0.1049,0.207 0.0349,0.069 0.0699,0.137 0.1048,0.206 0.035,0.068 0.07,0.136 0.1049,0.204 0.035,0.068 0.0699,0.136 0.1049,0.203 0.035,0.068 0.0699,0.135 0.1049,0.202 0.0349,0.067 0.0699,0.134 0.1049,0.201 0.0349,0.066 0.0699,0.133 0.1048,0.199 0.035,0.066 0.07,0.132 0.1049,0.198 0.035,0.066 0.0699,0.131 0.1049,0.196 0.035,0.066 0.0699,0.131 0.1049,0.196 0.0349,0.064 0.0699,0.129 0.1049,0.194 0.0349,0.064 0.0699,0.128 0.1048,0.192 0.035,0.064 0.07,0.128 0.1049,0.191 0.035,0.064 0.0699,0.127 0.1049,0.19 0.035,0.064 0.0699,0.126 0.1049,0.189 0.0349,0.063 0.0699,0.125 0.1049,0.187 0.0349,0.063 0.0699,0.125 0.1048,0.186 0.035,0.062 0.07,0.124 0.1049,0.185 0.035,0.062 0.0699,0.123 0.1049,0.184 0.035,0.06 0.0699,0.121 0.1049,0.182 0.0349,0.06 0.0699,0.12 0.1049,0.18 0.0349,0.06 0.0699,0.12 0.1048,0.18 0.035,0.059 0.07,0.119 0.1049,0.178 0.035,0.059 0.0699,0.118 0.1049,0.177 0.035,0.058 0.0699,0.117 0.1049,0.175 0.0349,0.058 0.0699,0.116 0.1049,0.174 0.0349,0.058 0.0699,0.116 0.1048,0.173 0.035,0.057 0.07,0.115 0.1049,0.172 0.035,0.057 0.0699,0.113 0.1049,0.17 0.035,0.056 0.0699,0.113 0.1049,0.169 0.0349,0.056 0.0699,0.112 0.1049,0.167 0.0349,0.056 0.0699,0.111 0.1048,0.166 0.035,0.056 0.07,0.111 0.1049,0.165 0.035,0.055 0.0699,0.11 0.1049,0.164 0.035,0.054 0.0699,0.108 0.1049,0.162 0.0349,0.054 0.0699,0.108 0.1049,0.161 0.0349,0.054 0.0699,0.107 0.1048,0.16 0.035,0.053 0.07,0.106 0.1049,0.158 0.035,0.053 0.0699,0.105 0.1049,0.157 0.035,0.052 0.0699,0.104 0.1049,0.156 0.0349,0.051 0.0699,0.103 0.1049,0.154 0.0349,0.051 0.0699,0.102 0.1048,0.153 0.035,0.051 0.07,0.102 0.1049,0.152 0.035,0.05 0.0699,0.1 0.1049,0.15 0.035,0.05 0.0699,0.1 0.1049,0.149 0.0349,0.05 0.0699,0.099 0.1049,0.148 0.0349,0.049 0.0699,0.098 0.1048,0.147 0.035,0.048 0.07,0.097 0.1049,0.145 0.035,0.048 0.0699,0.096 0.1049,0.143 0.035,0.048 0.0699,0.096 0.1049,0.143 0.0349,0.047 0.0699,0.094 0.1049,0.141 0.0349,0.047 0.0699,0.094 0.1048,0.14 0.035,0.046 0.07,0.093 0.1049,0.138 0.035,0.046 0.0699,0.092 0.1049,0.138 0.035,0.045 0.0699,0.09 0.1049,0.136 0.0349,0.045 0.0699,0.09 0.1049,0.134 0.0349,0.045 0.0699,0.089 0.1048,0.133 0.035,0.045 0.07,0.089 0.1049,0.132 0.035,0.044 0.0699,0.088 0.1049,0.131 0.035,0.043 0.0699,0.086 0.1049,0.129 0.0349,0.043 0.0699,0.086 0.1049,0.128 0.0349,0.043 0.0699,0.085 0.1048,0.127 0.035,0.042 0.07,0.084 0.1049,0.125 0.035,0.042 0.0699,0.083 0.1049,0.124 0.035,0.041 0.0699,0.082 0.1049,0.123 0.0349,0.041 0.0699,0.081 0.1049,0.121 0.0349,0.04 0.0699,0.08 0.1048,0.12 0.035,0.04 0.07,0.08 0.1049,0.119 0.035,0.039 0.0699,0.079 0.1049,0.117 0.035,0.039 0.0699,0.078 0.1049,0.117 0.0349,0.038 0.0699,0.076 0.1049,0.114 0.0349,0.038 0.0699,0.076 0.1048,0.114 0.035,0.037 0.07,0.075 0.1049,0.112 0.035,0.037 0.0699,0.074 0.1049,0.111 0.035,0.036 0.0699,0.073 0.1049,0.109 0.0349,0.037 0.0699,0.073 0.1049,0.108 0.0349,0.036 0.0699,0.072 0.1048,0.107 0.035,0.036 0.07,0.071 0.1049,0.106 0.035,0.035 0.0699,0.07 0.1049,0.104 0.035,0.035 0.0699,0.069 0.1049,0.103 0.0349,0.034 0.0699,0.068 0.1049,0.102 0.0349,0.033 0.0699,0.067 0.1048,0.1 0.035,0.033 0.07,0.066 0.1049,0.099 0.035,0.033 0.0699,0.065 0.1049,0.097 0.035,0.033 0.0699,0.065 0.1049,0.097 0.0349,0.032 0.0699,0.063 0.1049,0.095 0.0349,0.031 0.0699,0.062 0.1048,0.093 0.035,0.031 0.07,0.062 0.1049,0.093 0.035,0.03 0.0699,0.061 0.1049,0.091 0.035,0.03 0.0699,0.06 0.1049,0.089 0.0349,0.03 0.0699,0.06 0.1049,0.089 0.0349,0.029 0.0699,0.058 0.1048,0.087 0.035,0.029 0.07,0.057 0.1049,0.086 0.035,0.028 0.0699,0.056 0.1049,0.084 0.035,0.028 0.0699,0.056 0.1049,0.083 0.0349,0.028 0.0699,0.055 0.1049,0.082 0.0349,0.027 0.0699,0.054 0.1048,0.08 0.035,0.027 0.07,0.053 0.1049,0.08 0.035,0.026 0.0699,0.052 0.1049,0.077 0.035,0.026 0.0699,0.052 0.1049,0.077 0.0349,0.025 0.0699,0.05 0.1049,0.075 0.0349,0.025 0.0699,0.05 0.1048,0.074 0.035,0.024 0.07,0.049 0.1049,0.073 0.035,0.024 0.0699,0.047 0.1049,0.071 0.035,0.023 0.0699,0.047 0.1049,0.07 0.0349,0.023 0.0699,0.046 0.1049,0.068 0.0349,0.023 0.0699,0.045 0.1048,0.068 0.035,0.022 0.07,0.044 0.1049,0.066 0.035,0.021 0.0699,0.043 0.1049,0.064 0.035,0.022 0.0699,0.043 0.1049,0.064 0.0349,0.02 0.0699,0.041 0.1049,0.062 0.0349,0.02 0.0699,0.04 0.1048,0.06 0.035,0.02 0.07,0.04 0.1049,0.06 0.035,0.019 0.0699,0.039 0.1049,0.058 0.035,0.019 0.0699,0.038 0.1049,0.056 0.0349,0.019 0.0699,0.038 0.1049,0.056 0.0349,0.018 0.0699,0.036 0.1048,0.054 0.035,0.018 0.07,0.035 0.1049,0.053 0.035,0.017 0.0699,0.034 0.1049,0.051 0.035,0.017 0.0699,0.034 0.1049,0.05 0.0349,0.017 0.0699,0.033 0.1049,0.049 0.0349,0.016 0.0699,0.032 0.1048,0.048 0.035,0.015 0.07,0.031 0.1049,0.046 0.035,0.015 0.0699,0.03 0.1049,0.045 0.035,0.014 0.0699,0.029 0.1049,0.043 0.0349,0.014 0.0699,0.029 0.1049,0.042 0.0349,0.014 0.0699,0.028 0.1048,0.041 0.035,0.014 0.07,0.027 0.1049,0.04 0.035,0.013 0.0699,0.026 0.1049,0.038 0.035,0.013 0.0699,0.025 0.1049,0.037 0.0349,0.012 0.0699,0.024 0.1049,0.036 0.0349,0.011 0.0699,0.023 0.1048,0.034 0.035,0.011 0.0699,0.022 0.1049,0.033 0.035,0.011 0.0699,0.021 0.1049,0.032 0.0349,0.01 0.0699,0.02 0.1049,0.03 0.0346,0.01 0.0696,0.02 0.1046,0.029 0.035,0.009 0.07,0.019 0.105,0.028 0.035,0.009 0.07,0.018 0.105,0.026 0.035,0.009 0.07,0.017 0.105,0.025 0.035,0.008 0.07,0.016 0.105,0.024 0.035,0.008 0.07,0.015 0.105,0.022 0.035,0.008 0.07,0.015 0.105,0.021 0.034,0.007 0.069,0.014 0.104,0.02 0.035,0.007 0.07,0.013 0.105,0.019 0.035,0.006 0.07,0.011 0.105,0.017 0.035,0.005 0.07,0.011 0.105,0.016 0.035,0.005 0.07,0.01 0.105,0.014 0.035,0.005 0.07,0.009 0.105,0.013 0.035,0.005 0.07,0.009 0.105,0.012 0.035,0.004 0.07,0.008 0.105,0.011 0.035,0.003 0.069,0.006 0.104,0.009 0.035,0.003 0.07,0.006 0.105,0.008 0.035,0.002 0.07,0.005 0.105,0.007 0.035,0.002 0.07,0.003 0.105,0.005 0.035,0.001 0.07,0.003 0.105,0.004 0.035,0.001 0.07,0.002 0.105,0.002 0.035,0.001 0.07,0.002 0.105,0.002 0.035,0 0.07,0 0.105,0 0.035,0 0.07,-0.001 0.104,-0.002 0.035,0 0.07,-10e-4 0.105,-0.002 0.035,-0.001 0.07,-0.003 0.105,-0.004 0.035,-0.002 0.07,-0.003 0.105,-0.005 0.035,-0.002 0.07,-0.005 0.105,-0.007 0.035,-0.002 0.07,-0.005 0.105,-0.008 0.035,-0.003 0.07,-0.006 0.105,-0.009 0.035,-0.003 0.07,-0.007 0.105,-0.011 0.035,-0.003 0.07,-0.007 0.105,-0.012 0.034,-0.004 0.069,-0.008 0.104,-0.013 0.035,-0.004 0.07,-0.009 0.105,-0.014 0.035,-0.005 0.07,-0.011 0.105,-0.016 0.035,-0.006 0.07,-0.011 0.105,-0.017 0.035,-0.006 0.07,-0.012 0.105,-0.019 0.035,-0.006 0.07,-0.013 0.105,-0.02 0.035,-0.006 0.07,-0.013 0.105,-0.021 0.035,-0.007 0.07,-0.014 0.105,-0.022 0.035,-0.008 0.069,-0.016 0.104,-0.024 0.035,-0.008 0.07,-0.016 0.105,-0.025 0.035,-0.008 0.07,-0.017 0.105,-0.026 0.035,-0.009 0.07,-0.019 0.105,-0.028 0.035,-0.009 0.07,-0.019 0.105,-0.029 0.035,-0.01 0.07,-0.02 0.105,-0.03 0.035,-0.011 0.07,-0.021 0.105,-0.032 0.035,-0.011 0.07,-0.022 0.105,-0.033 0.035,-0.011 0.07,-0.023 0.104,-0.034 0.035,-0.012 0.07,-0.024 0.105,-0.036 0.035,-0.012 0.07,-0.024 0.105,-0.037 0.035,-0.012 0.07,-0.025 0.105,-0.038 0.035,-0.013 0.07,-0.026 0.105,-0.04 0.035,-0.013 0.07,-0.027 0.105,-0.041 0.035,-0.013 0.07,-0.028 0.105,-0.042 0.035,-0.014 0.07,-0.029 0.105,-0.043 0.035,-0.015 0.07,-0.03 0.105,-0.045 0.034,-0.015 0.069,-0.031 0.104,-0.046 0.035,-0.016 0.07,-0.032 0.105,-0.048 0.035,-0.016 0.07,-0.032 0.105,-0.049 0.035,-0.016 0.07,-0.033 0.105,-0.05 0.035,-0.017 0.07,-0.034 0.105,-0.051 0.035,-0.018 0.07,-0.035 0.105,-0.053 0.035,-0.018 0.07,-0.036 0.105,-0.054 0.035,-0.018 0.07,-0.037 0.105,-0.056 0.035,-0.018 0.069,-0.037 0.104,-0.056 0.035,-0.019 0.07,-0.039 0.105,-0.058 0.035,-0.02 0.07,-0.04 0.105,-0.06 0.035,-0.02 0.07,-0.04 0.105,-0.06 0.035,-0.021 0.07,-0.042 0.105,-0.062 0.035,-0.021 0.07,-0.042 0.105,-0.064 0.035,-0.021 0.07,-0.043 0.105,-0.064 0.035,-0.022 0.07,-0.044 0.105,-0.066 0.035,-0.023 0.07,-0.045 0.104,-0.068 0.035,-0.022 0.07,-0.045 0.105,-0.068 0.035,-0.023 0.07,-0.047 0.105,-0.07 0.035,-0.024 0.07,-0.047 0.105,-0.071 0.035,-0.024 0.07,-0.049 0.105,-0.073 0.035,-0.024 0.07,-0.049 0.105,-0.074 0.035,-0.025 0.07,-0.05 0.105,-0.075 0.035,-0.025 0.07,-0.051 0.105,-0.077 0.035,-0.025 0.07,-0.051 0.105,-0.077 0.034,-0.027 0.069,-0.053 0.104,-0.08 0.035,-0.026 0.07,-0.053 0.105,-0.08 0.035,-0.027 0.07,-0.054 0.105,-0.082 0.035,-0.027 0.07,-0.055 0.105,-0.083 0.035,-0.028 0.07,-0.056 0.105,-0.084 0.035,-0.029 0.07,-0.057 0.105,-0.086 0.035,-0.029 0.07,-0.058 0.105,-0.087 0.035,-0.029 0.07,-0.059 0.105,-0.089 0.035,-0.029 0.069,-0.059 0.104,-0.089 0.035,-0.03 0.07,-0.061 0.105,-0.091 0.035,-0.031 0.07,-0.062 0.105,-0.093 0.035,-0.031 0.07,-0.062 0.105,-0.093 0.035,-0.032 0.07,-0.063 0.105,-0.095 0.035,-0.032 0.07,-0.064 0.105,-0.097 0.035,-0.032 0.07,-0.064 0.105,-0.097 0.035,-0.033 0.07,-0.066 0.105,-0.099 0.035,-0.033 0.07,-0.067 0.104,-0.1 0.035,-0.034 0.07,-0.068 0.105,-0.102 0.035,-0.034 0.07,-0.068 0.105,-0.103 0.035,-0.034 0.07,-0.069 0.105,-0.104 0.035,-0.035 0.07,-0.07 0.105,-0.106 0.035,-0.035 0.07,-0.071 0.105,-0.107 0.035,-0.035 0.07,-0.071 0.105,-0.108 0.035,-0.036 0.07,-0.073 0.105,-0.109 0.035,-0.037 0.07,-0.074 0.105,-0.111 0.034,-0.037 0.069,-0.075 0.104,-0.112 0.035,-0.038 0.07,-0.076 0.105,-0.114 0.035,-0.038 0.07,-0.076 0.105,-0.114 0.035,-0.039 0.07,-0.078 0.105,-0.117 0.035,-0.038 0.07,-0.078 0.105,-0.117 0.035,-0.039 0.07,-0.079 0.105,-0.119 0.035,-0.04 0.07,-0.08 0.105,-0.12 0.035,-0.04 0.07,-0.08 0.105,-0.121 0.035,-0.041 0.069,-0.082 0.104,-0.123 0.035,-0.041 0.07,-0.082 0.105,-0.124 0.035,-0.041 0.07,-0.083 0.105,-0.125 0.035,-0.042 0.07,-0.084 0.105,-0.127 0.035,-0.042 0.07,-0.085 0.105,-0.128 0.035,-0.043 0.07,-0.086 0.105,-0.129 0.035,-0.043 0.07,-0.087 0.105,-0.131 0.035,-0.043 0.07,-0.087 0.105,-0.132 0.035,-0.044 0.07,-0.088 0.104,-0.133 0.035,-0.044 0.07,-0.089 0.105,-0.134 0.035,-0.046 0.07,-0.091 0.105,-0.136 0.035,-0.046 0.07,-0.092 0.105,-0.138 0.035,-0.045 0.07,-0.092 0.105,-0.138 0.035,-0.046 0.07,-0.093 0.105,-0.14 0.035,-0.047 0.07,-0.094 0.105,-0.141 0.035,-0.047 0.07,-0.095 0.105,-0.143 0.035,-0.047 0.07,-0.095 0.105,-0.143 0.034,-0.048 0.069,-0.097 0.104,-0.145 0.035,-0.049 0.07,-0.098 0.105,-0.147 0.035,-0.049 0.07,-0.098 0.105,-0.148 0.035,-0.049 0.07,-0.099 0.105,-0.149 0.035,-0.05 0.07,-0.1 0.105,-0.15 0.035,-0.05 0.07,-0.101 0.105,-0.152 0.035,-0.051 0.07,-0.102 0.105,-0.153 0.035,-0.051 0.07,-0.103 0.105,-0.154 0.035,-0.052 0.069,-0.104 0.104,-0.156 0.035,-0.052 0.07,-0.104 0.105,-0.157 0.035,-0.052 0.07,-0.105 0.105,-0.158 0.035,-0.053 0.07,-0.106 0.105,-0.16 0.035,-0.053 0.07,-0.107 0.105,-0.161 0.035,-0.054 0.07,-0.108 0.105,-0.162 0.035,-0.054 0.07,-0.109 0.105,-0.164 0.035,-0.054 0.07,-0.109 0.105,-0.165 0.035,-0.055 0.07,-0.11 0.104,-0.166 0.035,-0.055 0.07,-0.111 0.105,-0.167 0.035,-0.056 0.07,-0.113 0.105,-0.169 0.035,-0.057 0.07,-0.113 0.105,-0.17 0.035,-0.057 0.07,-0.115 0.105,-0.172 0.035,-0.057 0.07,-0.115 0.105,-0.173 0.035,-0.058 0.07,-0.116 0.105,-0.174 0.035,-0.058 0.07,-0.117 0.105,-0.175 0.035,-0.059 0.07,-0.118 0.105,-0.177 0.034,-0.059 0.069,-0.119 0.104,-0.178 0.035,-0.06 0.07,-0.12 0.105,-0.18 0.035,-0.06 0.07,-0.12 0.105,-0.18 0.035,-0.061 0.07,-0.122 0.105,-0.182 0.035,-0.061 0.07,-0.122 0.105,-0.184 0.035,-0.061 0.07,-0.123 0.105,-0.185 0.035,-0.061 0.07,-0.123 0.105,-0.186 0.035,-0.062 0.07,-0.124 0.105,-0.187 0.035,-0.063 0.069,-0.125 0.104,-0.189 0.035,-0.063 0.07,-0.126 0.105,-0.19 0.035,-0.063 0.07,-0.127 0.105,-0.191 0.035,-0.064 0.07,-0.128 0.105,-0.192 0.035,-0.065 0.07,-0.13 0.105,-0.194 0.035,-0.065 0.07,-0.13 0.105,-0.196 0.035,-0.065 0.07,-0.13 0.105,-0.196 0.035,-0.066 0.07,-0.132 0.105,-0.198 0.035,-0.066 0.07,-0.133 0.104,-0.199 0.035,-0.067 0.07,-0.134 0.105,-0.201 0.035,-0.067 0.07,-0.134 0.105,-0.202 0.035,-0.067 0.07,-0.135 0.105,-0.203 0.035,-0.068 0.07,-0.136 0.105,-0.204 0.035,-0.069 0.07,-0.137 0.105,-0.206 0.035,-0.069 0.07,-0.138 0.105,-0.207 0.035,-0.07 0.07,-0.139 0.105,-0.209 0.035,-0.069 0.07,-0.139 0.105,-0.209 0.034,-0.071 0.069,-0.141 0.104,-0.212 0.035,-0.07 0.07,-0.141 0.105,-0.212 0.035,-0.071 0.07,-0.142 0.105,-0.214 0.035,-0.071 0.07,-0.143 0.105,-0.215 0.035,-0.072 0.07,-0.144 0.105,-0.216 0.035,-0.072 0.07,-0.145 0.105,-0.218 0.035,-0.073 0.07,-0.146 0.105,-0.219 0.035,-0.073 0.07,-0.146 0.105,-0.22 0.035,-0.074 0.069,-0.148 0.104,-0.222 0.035,-0.074 0.07,-0.148 0.105,-0.223 0.035,-0.074 0.07,-0.149 0.105,-0.224 0.035,-0.075 0.07,-0.15 0.105,-0.226 0.035,-0.075 0.07,-0.151 0.105,-0.226 0.035,-0.076 0.07,-0.152 0.105,-0.229 0.035,-0.076 0.07,-0.153 0.105,-0.229 0.035,-0.077 0.07,-0.154 0.105,-0.231 0.035,-0.077 0.07,-0.155 0.104,-0.232 0.035,-0.078 0.07,-0.156 0.105,-0.234 0.035,-0.078 0.07,-0.156 0.105,-0.235 0.035,-0.078 0.07,-0.157 0.105,-0.236 0.035,-0.079 0.07,-0.158 0.105,-0.237 0.035,-0.08 0.07,-0.159 0.105,-0.239 0.035,-0.08 0.07,-0.16 0.105,-0.24 0.035,-0.08 0.07,-0.161 0.105,-0.242 0.035,-0.08 0.07,-0.161 0.105,-0.242 0.034,-0.082 0.069,-0.163 0.104,-0.244 0.035,-0.082 0.07,-0.164 0.105,-0.246 0.035,-0.082 0.07,-0.164 0.105,-0.247 0.035,-0.082 0.07,-0.165 0.105,-0.248 0.035,-0.082 0.07,-0.166 0.105,-0.249 0.035,-0.083 0.07,-0.167 0.105,-0.251 0.035,-0.083 0.07,-0.167 0.105,-0.252 0.035,-0.084 0.07,-0.168 0.105,-0.253 0.035,-0.085 0.069,-0.169 0.104,-0.254 0.035,-0.086 0.07,-0.171 0.105,-0.256 0.035,-0.086 0.07,-0.172 0.105,-0.258 0.035,-0.086 0.07,-0.172 0.105,-0.258 0.035,-0.087 0.07,-0.173 0.105,-0.26 0.035,-0.087 0.07,-0.174 0.105,-0.261 0.035,-0.088 0.07,-0.175 0.105,-0.263 0.035,-0.088 0.07,-0.176 0.105,-0.264 0.035,-0.088 0.07,-0.176 0.104,-0.265 0.035,-0.089 0.07,-0.177 0.105,-0.266 0.035,-0.089 0.07,-0.179 0.105,-0.268 0.035,-0.09 0.07,-0.179 0.105,-0.269 0.035,-0.09 0.07,-0.18 0.105,-0.271 0.035,-0.09 0.07,-0.181 0.105,-0.272 0.035,-0.09 0.07,-0.181 0.105,-0.273 0.035,-0.091 0.07,-0.182 0.105,-0.274 0.035,-0.092 0.07,-0.184 0.105,-0.276 0.034,-0.092 0.069,-0.184 0.104,-0.277 0.035,-0.092 0.07,-0.185 0.105,-0.278 0.035,-0.093 0.07,-0.186 0.105,-0.28 0.035,-0.093 0.07,-0.187 0.105,-0.281 0.035,-0.094 0.07,-0.188 0.105,-0.282 0.035,-0.095 0.07,-0.189 0.105,-0.284 0.035,-0.095 0.07,-0.19 0.105,-0.285 0.035,-0.095 0.07,-0.191 0.105,-0.286 0.035,-0.096 0.069,-0.192 0.104,-0.288 0.035,-0.096 0.07,-0.192 0.105,-0.289 0.035,-0.096 0.07,-0.193 0.105,-0.29 0.035,-0.097 0.07,-0.194 0.105,-0.291 0.035,-0.098 0.07,-0.196 0.105,-0.293 0.035,-0.098 0.07,-0.196 0.105,-0.295 0.035,-0.098 0.07,-0.196 0.105,-0.295 0.035,-0.099 0.07,-0.198 0.105,-0.297 0.035,-0.099 0.069,-0.198 0.104,-0.298 0.035,-0.1 0.07,-0.2 0.105,-0.3 0.035,-0.1 0.07,-0.2 0.105,-0.3 0.035,-0.101 0.07,-0.202 0.105,-0.302 0.035,-0.101 0.07,-0.203 0.105,-0.304 0.035,-0.101 0.07,-0.203 0.105,-0.305 0.035,-0.101 0.07,-0.203 0.105,-0.306 0.035,-0.102 0.07,-0.204 0.105,-0.307 0.035,-0.103 0.07,-0.206 0.104,-0.309 0.035,-0.103 0.07,-0.206 0.105,-0.31 0.035,-0.103 0.07,-0.207 0.105,-0.311 0.035,-0.104 0.07,-0.208 0.105,-0.313 0.035,-0.104 0.07,-0.209 0.105,-0.314 0.035,-0.105 0.07,-0.21 0.105,-0.315 0.035,-0.105 0.07,-0.211 0.105,-0.317 0.035,-0.106 0.07,-0.212 0.105,-0.318 0.035,-0.106 0.07,-0.212 0.105,-0.319 0.034,-0.107 0.069,-0.214 0.104,-0.321 0.035,-0.107 0.07,-0.214 0.105,-0.321 0.035,-0.108 0.07,-0.216 0.105,-0.324 0.035,-0.108 0.07,-0.216 0.105,-0.324 0.035,-0.109 0.07,-0.217 0.105,-0.326 0.035,-0.109 0.07,-0.218 0.105,-0.327 0.035,-0.11 0.07,-0.219 0.105,-0.3288 0.035,-0.1097 0.07,-0.2197 0.105,-0.3298 0.035,-0.1102 0.069,-0.2206 0.104,-0.3312 0.035,-0.1106 0.07,-0.2214 0.105,-0.3324 0.035,-0.1111 0.07,-0.2223 0.105,-0.3338 0.035,-0.1115 0.07,-0.2232 0.105,-0.3351 0.035,-0.1119 0.07,-0.2241 0.105,-0.3364 0.035,-0.1124 0.07,-0.225 0.105,-0.3378 0.035,-0.1127 0.07,-0.2258 0.105,-0.339 0.035,-0.1132 0.07,-0.2267 0.105,-0.3404 0.035,-0.1137 0.07,-0.2276 0.104,-0.3417 0.035,-0.1141 0.07,-0.2284 0.105,-0.343 0.035,-0.1145 0.07,-0.2293 0.105,-0.3443 0.035,-0.115 0.07,-0.2302 0.105,-0.3457 0.035,-0.1154 0.07,-0.2311 0.105,-0.3469 0.035,-0.1159 0.07,-0.232 0.105,-0.3483 0.035,-0.1163 0.07,-0.2329 0.105,-0.3496 0.035,-0.1168 0.07,-0.2338 0.105,-0.351 0.035,-0.1172 0.07,-0.2346 0.105,-0.3522 0.034,-0.1176 0.069,-0.2355 0.104,-0.3536 0.035,-0.1181 0.07,-0.2364 0.105,-0.3549 0.035,-0.1185 0.07,-0.2372 0.105,-0.3562 0.035,-0.1189 0.07,-0.2381 0.105,-0.3575 0.035,-0.1194 0.07,-0.239 0.105,-0.3588 0.035,-0.1199 0.07,-0.2399 0.105,-0.3602 0.035,-0.1203 0.07,-0.2408 0.105,-0.3615 0.035,-0.1207 0.07,-0.2416 0.105,-0.3628 0.035,-0.1211 0.069,-0.2425 0.104,-0.3641 0.035,-0.1216 0.07,-0.2434 0.105,-0.3654 0.035,-0.1221 0.07,-0.2443 0.105,-0.3668 0.035,-0.1225 0.07,-0.2452 0.105,-0.3681 0.035,-0.1229 0.07,-0.246 0.105,-0.3694 0.035,-0.1233 0.07,-0.2469 0.105,-0.3707 0.035,-0.1238 0.07,-0.2478 0.105,-0.372 0.035,-0.1243 0.07,-0.2487 0.105,-0.3734 0.035,-0.1247 0.07,-0.2496 0.104,-0.3747 0.035,-0.1251 0.07,-0.2504 0.105,-0.376 0.035,-0.1255 0.07,-0.2513 0.105,-0.3773 0.035,-0.126 0.07,-0.2522 0.105,-0.3786 0.035,-0.1264 0.07,-0.2531 0.105,-0.38 0.035,-0.1268 0.07,-0.2539 0.105,-0.3812 0.035,-0.1273 0.07,-0.2549 0.105,-0.3826 0.035,-0.1278 0.07,-0.2557 0.105,-0.3839 0.035,-0.1282 0.07,-0.2566 0.105,-0.3853 0.034,-0.1286 0.069,-0.2574 0.104,-0.3865 0.035,-0.1291 0.07,-0.2584 0.105,-0.3879 0.035,-0.1295 0.07,-0.2592 0.105,-0.3892 0.035,-0.1299 0.07,-0.2601 0.105,-0.3905 0.035,-0.1304 0.07,-0.261 0.105,-0.3918 0.035,-0.1308 0.07,-0.2619 0.105,-0.3931 0.035,-0.1313 0.07,-0.2628 0.105,-0.3945 0.035,-0.1317 0.07,-0.2636 0.105,-0.3958 0.035,-0.1321 0.069,-0.2645 0.104,-0.3971 0.035,-0.1326 0.07,-0.2654 0.105,-0.3984 0.035,-0.133 0.07,-0.2663 0.105,-0.3998 0.035,-0.1334 0.07,-0.2671 0.105,-0.401 0.035,-0.1339 0.07,-0.2681 0.105,-0.4024 0.035,-0.1343 0.07,-0.2689 0.105,-0.4037 0.035,-0.1348 0.07,-0.2698 0.105,-0.405 0.035,-0.1352 0.07,-0.2707 0.105,-0.4064 0.035,-0.1356 0.07,-0.2715 0.104,-0.4076 0.035,-0.1361 0.07,-0.2724 0.105,-0.409 0.035,-0.1365 0.07,-0.2733 0.105,-0.4103 0.035,-0.137 0.07,-0.2742 0.105,-0.4116 0.035,-0.1374 0.07,-0.2751 0.105,-0.4129 0.035,-0.1379 0.07,-0.276 0.105,-0.4143 0.035,-0.1383 0.07,-0.2768 0.105,-0.4156 0.035,-0.1387 0.07,-0.2777 0.105,-0.4169 0.035,-0.1391 0.07,-0.2785 0.105,-0.4182 0.034,-0.1396 0.069,-0.2794 0.104,-0.4195 0.035,-0.1401 0.07,-0.2803 0.105,-0.4208 0.035,-0.1405 0.07,-0.2813 0.105,-0.4222 0.035,-0.141 0.07,-0.2821 0.105,-0.4235 0.035,-0.1414 0.07,-0.283 0.105,-0.4248 0.035,-0.1418 0.07,-0.2839 0.105,-0.4261 0.035,-0.1423 0.07,-0.2848 0.105,-0.4275 0.035,-0.1427 0.07,-0.2856 0.105,-0.4287 0.035,-0.1432 0.069,-0.2866 0.104,-0.4301 0.035,-0.1436 0.07,-0.2874 0.105,-0.4314 0.035,-0.1441 0.07,-0.2883 0.105,-0.4328 0.035,-0.1444 0.07,-0.2891 0.105,-0.434 0.035,-0.1449 0.07,-0.29 0.105,-0.4354 0.035,-0.1453 0.07,-0.2909 0.105,-0.4366 0.035,-0.1458 0.07,-0.2918 0.105,-0.438 0.035,-0.1463 0.07,-0.2927 0.105,-0.4394 0.035,-0.1466 0.07,-0.2935 0.104,-0.4406 0.035,-0.1471 0.07,-0.2944 0.105,-0.442 0.035,-0.1475 0.07,-0.2953 0.105,-0.4432 0.035,-0.148 0.07,-0.2962 0.105,-0.4446 0.035,-0.1485 0.07,-0.2971 0.105,-0.446 0.035,-0.1488 0.07,-0.2979 0.105,-0.4472 0.035,-0.1493 0.07,-0.2988 0.105,-0.4485 0.035,-0.1498 0.07,-0.2997 0.105,-0.4499 0.035,-0.1502 0.07,-0.3006 0.105,-0.4512 0.034,-0.1506 0.069,-0.3015 0.104,-0.4525 0.035,-0.1511 0.07,-0.3024 0.105,-0.4539 0.035,-0.1515 0.07,-0.3032 0.105,-0.4551 0.035,-0.1519 0.07,-0.3041 0.105,-0.4565 0.035,-0.1524 0.07,-0.305 0.105,-0.4578 0.035,-0.1528 0.07,-0.3058 0.105,-0.4591 0.035,-0.1532 0.07,-0.3067 0.105,-0.4604 0.035,-0.1537 0.07,-0.3076 0.105,-0.4618 0.035,-0.1541 0.069,-0.3084 0.104,-0.463 0.035,-0.1546 0.07,-0.3094 0.105,-0.4644 0.035,-0.155 0.07,-0.3103 0.105,-0.4657 0.035,-0.1555 0.07,-0.3111 0.105,-0.467 0.035,-0.1559 0.07,-0.312 0.105,-0.4684 0.035,-0.1563 0.07,-0.3129 0.105,-0.4696 0.035,-0.1568 0.07,-0.3138 0.105,-0.471 0.035,-0.1572 0.07,-0.3147 0.105,-0.4723 0.035,-0.1577 0.07,-0.3156 0.104,-0.4736 0.035,-0.1581 0.07,-0.3165 0.105,-0.475 0.035,-0.1585 0.07,-0.3173 0.105,-0.4762 0.035,-0.159 0.07,-0.3182 0.105,-0.4776 0.035,-0.1594 0.07,-0.3191 0.105,-0.4789 0.035,-0.1599 0.07,-0.32 0.105,-0.4802 0.035,-0.1603 0.07,-0.3208 0.105,-0.4816 0.035,-0.1607 0.07,-0.3217 0.105,-0.4828 0.035,-0.1612 0.07,-0.3226 0.105,-0.4842 0.034,-0.1616 0.069,-0.3235 0.104,-0.4855 0.035,-0.1621 0.07,-0.3243 0.105,-0.4868 0.035,-0.1625 0.07,-0.3252 0.105,-0.4882 0.035,-0.1629 0.07,-0.326 0.105,-0.4894 0.035,-0.1634 0.07,-0.327 0.105,-0.4908 0.035,-0.1638 0.07,-0.3278 0.105,-0.4921 0.035,-0.1642 0.07,-0.3287 0.105,-0.4934 0.035,-0.1647 0.07,-0.3296 0.105,-0.4947 0.035,-0.1651 0.069,-0.3305 0.104,-0.4961 0.035,-0.1655 0.07,-0.3313 0.105,-0.4973 0.035,-0.166 0.07,-0.3323 0.105,-0.4987 0.035,-0.1665 0.07,-0.3331 0.105,-0.5 0.035,-0.1669 0.07,-0.334 0.105,-0.5013 0.035,-0.1674 0.07,-0.3349 0.105,-0.5027 0.035,-0.1678 0.07,-0.3357 0.105,-0.504 0.035,-0.1682 0.07,-0.3366 0.105,-0.5052 0.035,-0.1687 0.07,-0.3376 0.104,-0.5066 0.035,-0.1691 0.07,-0.3384 0.105,-0.508 0.035,-0.1695 0.07,-0.3392 0.105,-0.5092 0.035,-0.17 0.07,-0.3402 0.105,-0.5106 0.035,-0.1704 0.07,-0.341 0.105,-0.5118 0.035,-0.1709 0.07,-0.342 0.105,-0.5132 0.035,-0.1713 0.07,-0.3428 0.105,-0.5146 0.035,-0.1717 0.07,-0.3436 0.105,-0.5158 0.035,-0.1722 0.07,-0.3446 0.105,-0.5172 0.034,-0.1726 0.069,-0.3454 0.104,-0.5184 0.035,-0.1731 0.07,-0.3463 0.105,-0.5198 0.035,-0.1735 0.07,-0.3472 0.105,-0.5211 0.035,-0.174 0.07,-0.3481 0.105,-0.5225 0.035,-0.1743 0.07,-0.3489 0.105,-0.5237 0.035,-0.1748 0.07,-0.3499 0.105,-0.5251 0.035,-0.1753 0.07,-0.3507 0.105,-0.5264 0.035,-0.1757 0.07,-0.3516 0.105,-0.5277 0.035,-0.1761 0.069,-0.3525 0.104,-0.529 0.035,-0.1766 0.07,-0.3534 0.105,-0.5304 0.035,-0.177 0.07,-0.3542 0.105,-0.5317 0.035,-0.1774 0.07,-0.3551 0.105,-0.533 0.035,-0.1778 0.07,-0.3559 0.105,-0.5343 0.035,-0.1783 0.07,-0.3568 0.105,-0.5356 0.035,-0.1787 0.07,-0.3577 0.105,-0.5369 0.035,-0.1792 0.07,-0.3587 0.105,-0.5383 0.035,-0.1796 0.07,-0.3595 0.104,-0.5396 0.035,-0.1801 0.07,-0.3604 0.105,-0.5409 0.035,-0.1805 0.07,-0.3613 0.105,-0.5422 0.035,-0.181 0.07,-0.3622 0.105,-0.5436 0.035,-0.1814 0.07,-0.363 0.105,-0.5448 0.035,-0.1819 0.07,-0.3639 0.105,-0.5462 0.035,-0.1823 0.07,-0.3648 0.105,-0.5475 0.035,-0.1827 0.07,-0.3657 0.105,-0.5488 0.035,-0.1832 0.07,-0.3666 0.105,-0.5502 0.034,-0.1836 0.069,-0.3674 0.104,-0.5514 0.035,-0.1841 0.07,-0.3683 0.105,-0.5528 0.035,-0.1845 0.07,-0.3692 0.105,-0.5541 0.035,-0.1849 0.07,-0.37 0.105,-0.5554 0.035,-0.1854 0.07,-0.3709 0.105,-0.5567 0.035,-0.1858 0.07,-0.3719 0.105,-0.5581 0.035,-0.1862 0.07,-0.3727 0.105,-0.5594 0.035,-0.1866 0.07,-0.3735 0.105,-0.5607 0.035,-0.1871 0.069,-0.3744 0.104,-0.562 0.035,-0.1875 0.07,-0.3753 0.105,-0.5633 0.035,-0.188 0.07,-0.3762 0.105,-0.5647 0.035,-0.1884 0.07,-0.3771 0.105,-0.5659 0.035,-0.1889 0.07,-0.378 0.105,-0.5673 0.035,-0.1893 0.07,-0.3789 0.105,-0.5686 0.035,-0.1898 0.07,-0.3798 0.105,-0.57 0.035,-0.1902 0.07,-0.3806 0.105,-0.5712 0.035,-0.1906 0.07,-0.3815 0.104,-0.5726 0.035,-0.191 0.07,-0.3823 0.105,-0.5739 0.035,-0.1915 0.07,-0.3832 0.105,-0.5752 0.035,-0.1919 0.07,-0.3841 0.105,-0.5765 0.035,-0.1924 0.07,-0.385 0.105,-0.5778 0.035,-0.1929 0.07,-0.3859 0.105,-0.5792 0.035,-0.1933 0.07,-0.3868 0.105,-0.5805 0.035,-0.1937 0.07,-0.3876 0.105,-0.5818 0.035,-0.1941 0.07,-0.3885 0.105,-0.5831 0.034,-0.1946 0.069,-0.3894 0.104,-0.5844 0.035,-0.1951 0.07,-0.3903 0.105,-0.5858 0.035,-0.1955 0.07,-0.3912 0.105,-0.5871 0.035,-0.1959 0.07,-0.39203 0.105,-0.58838 0.035,-0.19635 0.07,-0.39293 0.105,-0.58972 0.035,-0.19679 0.07,-0.3938 0.105,-0.59104 0.035,-0.19723 0.07,-0.39468 0.105,-0.59235 0.035,-0.19767 0.07,-0.39557 0.105,-0.59368 0.035,-0.19811 0.069,-0.39644 0.104,-0.59499 0.035,-0.19855 0.07,-0.39732 0.105,-0.59632 0.035,-0.19899 0.07,-0.3982 0.105,-0.59763 0.035,-0.19943 0.07,-0.39908 0.105,-0.59895 0.035,-0.19987 0.07,-0.39996 0.105,-0.60027 0.035,-0.20031 0.07,-0.40084 0.105,-0.60159 0.035,-0.20075 0.07,-0.40172 0.105,-0.60291 0.035,-0.20119 0.07,-0.4026 0.105,-0.60423 0.035,-0.20163 0.07,-0.40348 0.104,-0.60555 0.035,-0.20207 0.07,-0.40436 0.105,-0.60687 0.035,-0.202511 0.07,-0.40524 0.105,-0.608189 0.035,-0.202949 0.07,-0.406118 0.105,-0.6095068 0.035,-0.2033882 0.07,-0.4069972 0.105,-0.6108262 0.035,-0.203828 0.07,-0.407878 0.105,-0.612148 0.035,-0.20427 0.07,-0.40875 0.105,-0.61346 0.035,-0.20471 0.07,-0.40964 0.105,-0.61479 0.035,-0.20514 0.07,-0.41051 0.105,-0.6161 0.034,-0.20559 0.069,-0.41139 0.104,-0.61742 0.035,-0.20603 0.07,-0.41228 0.105,-0.61874 0.035,-0.20647 0.07,-0.41316 0.105,-0.62006 0.035,-0.20691 0.07,-0.41404 0.105,-0.62138 0.035,-0.20735 0.07,-0.41492 0.105,-0.6227 0.035,-0.20779 0.07,-0.4158 0.105,-0.62402 0.035,-0.20823 0.07,-0.41668 0.105,-0.62534 0.035,-0.20867 0.07,-0.41755 0.105,-0.62666 0.035,-0.2091 0.069,-0.41843 0.104,-0.62797 0.035,-0.20955 0.07,-0.41932 0.105,-0.6293 0.035,-0.20999 0.07,-0.42019 0.105,-0.63061 0.035,-0.2104 0.07,-0.4211 0.105,-0.6319 0.035,-0.2109 0.07,-0.422 0.105,-0.6333 0.035,-0.2113 0.07,-0.4228 0.105,-0.6346 0.035,-0.2117 0.07,-0.4237 0.105,-0.6359 0.035,-0.2121 0.07,-0.4245 0.105,-0.6372 0.035,-0.2126 0.07,-0.4254 0.104,-0.6385 0.035,-0.2131 0.07,-0.4263 0.105,-0.6399 0.035,-0.2135 0.07,-0.4272 0.105,-0.6411 0.035,-0.214 0.07,-0.4281 0.105,-0.6425 0.035,-0.2144 0.07,-0.429 0.105,-0.6438 0.035,-0.2148 0.07,-0.4299 0.105,-0.6451 0.035,-0.2153 0.07,-0.4308 0.105,-0.6465 0.035,-0.2157 0.07,-0.4316 0.105,-0.6478 0.035,-0.2161 0.07,-0.4325 0.105,-0.649 0.034,-0.2166 0.069,-0.4334 0.104,-0.6504 0.035,-0.2171 0.07,-0.4343 0.105,-0.6518 0.035,-0.2174 0.07,-0.4351 0.105,-0.653 0.035,-0.2179 0.07,-0.436 0.105,-0.6544 0.035,-0.2183 0.07,-0.4369 0.105,-0.6557 0.035,-0.2187 0.07,-0.4377 0.105,-0.657 0.035,-0.2192 0.07,-0.4386 0.105,-0.6583"
       id="path578"
       clip-path="url(#clipPath588)" />
    <path
       style="font-variation-settings:normal;fill:none;fill-opacity:1;stroke:#008000;stroke-width:0.565;stroke-linecap:butt;stroke-linejoin:miter;stroke-miterlimit:4;stroke-dasharray:none;stroke-dashoffset:0;stroke-opacity:1;stop-color:#000000"
       d="m 49.9667,157.698 c 0.0349,0 0.0699,0 0.1048,0 0.035,0 0.07,-0.001 0.1049,-0.001 0.035,0 0.0699,-0.001 0.1049,-0.002 0.035,0 0.0699,-0.001 0.1049,-0.002 0.0349,-0.001 0.0699,-0.002 0.1049,-0.003 0.0349,-0.001 0.0699,-0.002 0.1048,-0.004 0.035,-0.001 0.07,-0.002 0.1049,-0.004 0.035,-10e-4 0.0699,-0.003 0.1049,-0.005 0.035,-0.001 0.0699,-0.003 0.1049,-0.005 0.0349,-0.002 0.0699,-0.004 0.1049,-0.007 0.0349,-0.002 0.0699,-0.004 0.1048,-0.007 0.035,-0.002 0.07,-0.004 0.1049,-0.007 0.035,-0.003 0.0699,-0.005 0.1049,-0.008 0.035,-0.003 0.0699,-0.006 0.1049,-0.009 0.0349,-0.003 0.0699,-0.006 0.1049,-0.01 0.0349,-0.003 0.0699,-0.006 0.1048,-0.01 0.035,-0.004 0.07,-0.007 0.1049,-0.011 0.035,-0.004 0.0699,-0.007 0.1049,-0.011 0.035,-0.004 0.0699,-0.008 0.1049,-0.013 0.0349,-0.004 0.0699,-0.008 0.1049,-0.012 0.0349,-0.005 0.0699,-0.009 0.1048,-0.014 0.035,-0.004 0.07,-0.009 0.1049,-0.014 0.035,-0.005 0.0699,-0.01 0.1049,-0.015 0.035,-0.005 0.0699,-0.01 0.1049,-0.015 0.0349,-0.006 0.0699,-0.011 0.1049,-0.016 0.0349,-0.006 0.0699,-0.011 0.1048,-0.017 0.035,-0.006 0.07,-0.012 0.1049,-0.017 0.035,-0.006 0.0699,-0.012 0.1049,-0.019 0.035,-0.006 0.0699,-0.012 0.1049,-0.018 0.0349,-0.007 0.0699,-0.013 0.1049,-0.02 0.0349,-0.006 0.0699,-0.013 0.1048,-0.02 0.035,-0.006 0.07,-0.013 0.1049,-0.02 0.035,-0.007 0.0699,-0.014 0.1049,-0.022 0.035,-0.007 0.0699,-0.014 0.1049,-0.021 0.0349,-0.008 0.0699,-0.015 0.1049,-0.023 0.0349,-0.008 0.0699,-0.015 0.1048,-0.023 0.035,-0.008 0.07,-0.016 0.1049,-0.024 0.035,-0.008 0.0699,-0.016 0.1049,-0.025 0.035,-0.008 0.0699,-0.016 0.1049,-0.025 0.0349,-0.008 0.0699,-0.017 0.1049,-0.026 0.0349,-0.008 0.0699,-0.017 0.1048,-0.026 0.035,-0.009 0.07,-0.018 0.1049,-0.027 0.035,-0.009 0.0699,-0.018 0.1049,-0.028 0.035,-0.009 0.0699,-0.019 0.1049,-0.028 0.0349,-0.01 0.0699,-0.019 0.1049,-0.029 0.0349,-0.01 0.0699,-0.02 0.1048,-0.03 0.035,-0.01 0.07,-0.02 0.1049,-0.03 0.035,-0.01 0.0699,-0.02 0.1049,-0.031 0.035,-0.01 0.0699,-0.021 0.1049,-0.031 0.0349,-0.011 0.0699,-0.022 0.1049,-0.032 0.0349,-0.011 0.0699,-0.022 0.1048,-0.033 0.035,-0.011 0.07,-0.022 0.1049,-0.034 0.035,-0.011 0.0699,-0.022 0.1049,-0.034 0.035,-0.011 0.0699,-0.023 0.1049,-0.034 0.0349,-0.012 0.0699,-0.024 0.1049,-0.035 0.0349,-0.012 0.0699,-0.024 0.1048,-0.036 0.035,-0.012 0.07,-0.025 0.1049,-0.037 0.035,-0.012 0.0699,-0.024 0.1049,-0.037 0.035,-0.012 0.0699,-0.025 0.1049,-0.038 0.0349,-0.012 0.0699,-0.025 0.1049,-0.038 0.0349,-0.013 0.0699,-0.026 0.1048,-0.039 0.035,-0.013 0.07,-0.026 0.1049,-0.039 0.035,-0.014 0.0699,-0.027 0.1049,-0.041 0.035,-0.013 0.0699,-0.027 0.1049,-0.04 0.0349,-0.014 0.0699,-0.028 0.1049,-0.042 0.0349,-0.014 0.0699,-0.028 0.1048,-0.042 0.035,-0.014 0.07,-0.028 0.1049,-0.042 0.035,-0.015 0.0699,-0.029 0.1049,-0.044 0.035,-0.014 0.0699,-0.029 0.1049,-0.043 0.0349,-0.015 0.0699,-0.03 0.1049,-0.045 0.0349,-0.015 0.0699,-0.03 0.1048,-0.045 0.035,-0.015 0.07,-0.03 0.1049,-0.045 0.035,-0.016 0.0699,-0.031 0.1049,-0.047 0.035,-0.015 0.0699,-0.031 0.1049,-0.046 0.0349,-0.016 0.0699,-0.032 0.1049,-0.048 0.0349,-0.016 0.0699,-0.032 0.1048,-0.048 0.035,-0.016 0.07,-0.032 0.1049,-0.048 0.035,-0.016 0.0699,-0.033 0.1049,-0.049 0.035,-0.017 0.0699,-0.033 0.1049,-0.05 0.0349,-0.017 0.0699,-0.033 0.1049,-0.05 0.0349,-0.017 0.0699,-0.034 0.1048,-0.051 0.035,-0.017 0.07,-0.034 0.1049,-0.052 0.035,-0.017 0.0699,-0.034 0.1049,-0.052 0.035,-0.017 0.0699,-0.035 0.1049,-0.052 0.0349,-0.018 0.0699,-0.036 0.1049,-0.053 0.0349,-0.018 0.0699,-0.036 0.1048,-0.054 0.035,-0.018 0.07,-0.036 0.1049,-0.054 0.035,-0.019 0.0699,-0.037 0.1049,-0.055 0.035,-0.019 0.0699,-0.037 0.1049,-0.056 0.0349,-0.018 0.0699,-0.037 0.1049,-0.056 0.0349,-0.018 0.0699,-0.037 0.1048,-0.056 0.035,-0.019 0.07,-0.038 0.1049,-0.057 0.035,-0.019 0.0699,-0.039 0.1049,-0.058 0.035,-0.019 0.0699,-0.039 0.1049,-0.058 0.0349,-0.02 0.0699,-0.039 0.1049,-0.059 0.0349,-0.019 0.0699,-0.039 0.1048,-0.059 0.035,-0.02 0.07,-0.04 0.1049,-0.06 0.035,-0.02 0.0699,-0.04 0.1049,-0.06 0.035,-0.02 0.0699,-0.041 0.1049,-0.061 0.0349,-0.02 0.0699,-0.041 0.1049,-0.062 0.0349,-0.02 0.0699,-0.041 0.1048,-0.061 0.035,-0.021 0.07,-0.042 0.1049,-0.063 0.035,-0.021 0.0699,-0.042 0.1049,-0.063 0.035,-0.021 0.0699,-0.042 0.1049,-0.064 0.0349,-0.021 0.0699,-0.042 0.1049,-0.064 0.0349,-0.021 0.0699,-0.043 0.1048,-0.064 0.035,-0.022 0.07,-0.044 0.1049,-0.065 0.035,-0.022 0.0699,-0.044 0.1049,-0.066 0.035,-0.022 0.0699,-0.044 0.1049,-0.066 0.0349,-0.022 0.0699,-0.044 0.1049,-0.067 0.0349,-0.022 0.0699,-0.044 0.1048,-0.067 0.035,-0.022 0.07,-0.045 0.1049,-0.068 0.035,-0.022 0.0699,-0.045 0.1049,-0.068 0.035,-0.023 0.0699,-0.045 0.1049,-0.068 0.0349,-0.023 0.0699,-0.046 0.1049,-0.07 0.0349,-0.023 0.0699,-0.046 0.1048,-0.069 0.035,-0.024 0.07,-0.047 0.1049,-0.07 0.035,-0.024 0.0699,-0.047 0.1049,-0.071 0.035,-0.024 0.0699,-0.047 0.1049,-0.071 0.0349,-0.024 0.0699,-0.048 0.1049,-0.072 0.0349,-0.024 0.0699,-0.048 0.1048,-0.072 0.035,-0.024 0.07,-0.048 0.1049,-0.072 0.035,-0.025 0.0699,-0.049 0.1049,-0.074 0.035,-0.024 0.0699,-0.048 0.1049,-0.073 0.0349,-0.025 0.0699,-0.049 0.1049,-0.074 0.0349,-0.025 0.0699,-0.05 0.1048,-0.074 0.035,-0.025 0.07,-0.05 0.1049,-0.075 0.035,-0.025 0.0699,-0.051 0.1049,-0.076 0.035,-0.025 0.0699,-0.05 0.1049,-0.076 0.0349,-0.025 0.0699,-0.05 0.1049,-0.076 0.0349,-0.025 0.0699,-0.051 0.1048,-0.077 0.035,-0.025 0.07,-0.051 0.1049,-0.077 0.035,-0.026 0.0699,-0.052 0.1049,-0.077 0.035,-0.026 0.0699,-0.052 0.1049,-0.079 0.0349,-0.026 0.0699,-0.052 0.1049,-0.078 0.0349,-0.026 0.0699,-0.053 0.1048,-0.079 0.035,-0.026 0.07,-0.053 0.1049,-0.079 0.035,-0.027 0.0699,-0.054 0.1049,-0.08 0.035,-0.027 0.0699,-0.054 0.1049,-0.08 0.0349,-0.027 0.0699,-0.054 0.1049,-0.081 0.0349,-0.027 0.0699,-0.054 0.1048,-0.081 0.035,-0.027 0.0699,-0.054 0.1049,-0.082 0.035,-0.027 0.0699,-0.054 0.1049,-0.082 0.0349,-0.027 0.0699,-0.054 0.1049,-0.082 0.0349,-0.027 0.0699,-0.055 0.1048,-0.083 0.035,-0.027 0.07,-0.055 0.1049,-0.083 0.035,-0.028 0.0699,-0.055 0.1049,-0.083 0.035,-0.028 0.0699,-0.056 0.1049,-0.084 0.0349,-0.028 0.0699,-0.056 0.1049,-0.085 0.0349,-0.028 0.0699,-0.056 0.1048,-0.084 0.035,-0.029 0.07,-0.057 0.1049,-0.085 0.035,-0.029 0.0699,-0.057 0.1049,-0.086 0.035,-0.028 0.0699,-0.057 0.1049,-0.086 0.0349,-0.028 0.0699,-0.057 0.1049,-0.086 0.0349,-0.029 0.0699,-0.058 0.1048,-0.087 0.035,-0.028 0.07,-0.057 0.1049,-0.087 0.035,-0.029 0.0699,-0.058 0.1049,-0.087 0.035,-0.029 0.0699,-0.058 0.1049,-0.088 0.0349,-0.029 0.0699,-0.058 0.1049,-0.088 0.0349,-0.029 0.0699,-0.059 0.1048,-0.088 0.035,-0.03 0.07,-0.059 0.1049,-0.089 0.035,-0.03 0.0699,-0.059 0.1049,-0.089 0.035,-0.03 0.0699,-0.06 0.1049,-0.09 0.0349,-0.029 0.0699,-0.059 0.1049,-0.089 0.0349,-0.03 0.0699,-0.06 0.1048,-0.09 0.035,-0.031 0.07,-0.061 0.1049,-0.091 0.035,-0.03 0.0699,-0.06 0.1049,-0.091 0.035,-0.03 0.0699,-0.061 0.1049,-0.091 0.0349,-0.03 0.0699,-0.061 0.1049,-0.091 0.0349,-0.031 0.0699,-0.062 0.1048,-0.092 0.035,-0.031 0.07,-0.062 0.1049,-0.092 0.035,-0.031 0.0699,-0.062 0.1049,-0.093 0.035,-0.031 0.0699,-0.062 0.1049,-0.093 0.0349,-0.031 0.0699,-0.062 0.1049,-0.093 0.0349,-0.031 0.0699,-0.062 0.1048,-0.093 0.035,-0.031 0.07,-0.062 0.1049,-0.094 0.035,-0.031 0.0699,-0.062 0.1049,-0.094 0.035,-0.031 0.0699,-0.062 0.1049,-0.094 0.0349,-0.031 0.0699,-0.063 0.1049,-0.094 0.0349,-0.032 0.0699,-0.063 0.1048,-0.095 0.035,-0.032 0.07,-0.063 0.1049,-0.095 0.035,-0.032 0.0699,-0.064 0.1049,-0.096 0.035,-0.031 0.0699,-0.063 0.1049,-0.095 0.0349,-0.032 0.0699,-0.064 0.1049,-0.096 0.0349,-0.032 0.0699,-0.064 0.1048,-0.096 0.035,-0.032 0.07,-0.065 0.1049,-0.097 0.035,-0.032 0.0699,-0.064 0.1049,-0.096 0.035,-0.033 0.0699,-0.065 0.1049,-0.097 0.0349,-0.033 0.0699,-0.065 0.1049,-0.098 0.0349,-0.032 0.0699,-0.064 0.1048,-0.097 0.035,-0.033 0.07,-0.065 0.1049,-0.098 0.035,-0.032 0.0699,-0.065 0.1049,-0.098 0.035,-0.032 0.0699,-0.065 0.1049,-0.098 0.0349,-0.032 0.0699,-0.065 0.1049,-0.098 0.0349,-0.033 0.0699,-0.066 0.1048,-0.099 0.035,-0.033 0.07,-0.066 0.1049,-0.099 0.035,-0.033 0.0699,-0.066 0.1049,-0.099 0.035,-0.033 0.0699,-0.066 0.1049,-0.099 0.0349,-0.033 0.0699,-0.066 0.1049,-0.099 0.0349,-0.034 0.0699,-0.067 0.1048,-0.1 0.035,-0.033 0.07,-0.067 0.1049,-0.1 0.035,-0.033 0.0699,-0.067 0.1049,-0.1 0.035,-0.033 0.0699,-0.067 0.1049,-0.1 0.0349,-0.034 0.0699,-0.067 0.1049,-0.101 0.0349,-0.033 0.0699,-0.067 0.1048,-0.1 0.035,-0.034 0.07,-0.068 0.1049,-0.101 0.035,-0.034 0.0699,-0.068 0.1049,-0.101 0.035,-0.034 0.0699,-0.068 0.1049,-0.102 0.0349,-0.033 0.0699,-0.067 0.1049,-0.101 0.0349,-0.034 0.0699,-0.068 0.1048,-0.101 0.035,-0.034 0.07,-0.068 0.1049,-0.102 0.035,-0.034 0.0699,-0.068 0.1049,-0.102 0.035,-0.034 0.0699,-0.068 0.1049,-0.102 0.0349,-0.034 0.0699,-0.068 0.1049,-0.102 0.0349,-0.034 0.0699,-0.068 0.1048,-0.102 0.035,-0.035 0.07,-0.069 0.1049,-0.103 0.035,-0.034 0.0699,-0.068 0.1049,-0.103 0.035,-0.034 0.0699,-0.068 0.1049,-0.102 0.0349,-0.035 0.0699,-0.069 0.1049,-0.103 0.0349,-0.034 0.0699,-0.069 0.1048,-0.103 0.035,-0.034 0.07,-0.069 0.1049,-0.103 0.035,-0.035 0.0699,-0.069 0.1049,-0.103 0.035,-0.035 0.0699,-0.069 0.1049,-0.104 0.0349,-0.034 0.0699,-0.069 0.1049,-0.103 0.0349,-0.035 0.0699,-0.069 0.1048,-0.104 0.035,-0.034 0.07,-0.069 0.1049,-0.103 0.035,-0.035 0.0699,-0.07 0.1049,-0.104 0.035,-0.035 0.0699,-0.069 0.1049,-0.104 0.0349,-0.035 0.0699,-0.069 0.1049,-0.104 0.0349,-0.035 0.0699,-0.069 0.1048,-0.104 0.035,-0.035 0.07,-0.069 0.1049,-0.104 0.035,-0.035 0.0699,-0.07 0.1049,-0.104 0.035,-0.035 0.0699,-0.07 0.1049,-0.105 0.0349,-0.034 0.0699,-0.069 0.1049,-0.104 0.0349,-0.035 0.0699,-0.07 0.1048,-0.104 0.035,-0.035 0.07,-0.07 0.1049,-0.105 0.035,-0.035 0.0699,-0.069 0.1049,-0.104 0.035,-0.035 0.0699,-0.07 0.1049,-0.105 0.0349,-0.035 0.0699,-0.07 0.1049,-0.104 0.0349,-0.035 0.0699,-0.07 0.1048,-0.105 0.035,-0.035 0.07,-0.07 0.1049,-0.105 0.035,-0.035 0.0699,-0.07 0.1049,-0.105 0.035,-0.035 0.0699,-0.069 0.1049,-0.104 0.0349,-0.035 0.0699,-0.07 0.1049,-0.105 0.0349,-0.035 0.0699,-0.07 0.1048,-0.105 0.035,-0.035 0.07,-0.07 0.1049,-0.105 0.035,-0.035 0.0699,-0.07 0.1049,-0.105 0.035,-0.035 0.0699,-0.07 0.1049,-0.105 0.0349,-0.035 0.0699,-0.069 0.1049,-0.104 0.0349,-0.035 0.0699,-0.07 0.1048,-0.105 0.035,-0.035 0.07,-0.07 0.1049,-0.105 0.035,-0.035 0.0699,-0.07 0.1049,-0.105 0.035,-0.035 0.0699,-0.07 0.1049,-0.105 0.0349,-0.035 0.0699,-0.07 0.1049,-0.105 0.0349,-0.035 0.0699,-0.07 0.1048,-0.105 0.035,-0.035 0.07,-0.069 0.1049,-0.104 0.035,-0.035 0.0699,-0.07 0.1049,-0.105 0.035,-0.035 0.0699,-0.07 0.1049,-0.105 0.0349,-0.035 0.0699,-0.07 0.1049,-0.105 0.0349,-0.035 0.0699,-0.069 0.1048,-0.104 0.035,-0.035 0.07,-0.07 0.1049,-0.105 0.035,-0.035 0.0699,-0.07 0.1049,-0.105 0.035,-0.034 0.0699,-0.069 0.1049,-0.104 0.0349,-0.035 0.0699,-0.07 0.1049,-0.105 0.0349,-0.034 0.0699,-0.069 0.1048,-0.104 0.035,-0.035 0.07,-0.07 0.1049,-0.104 0.035,-0.035 0.0699,-0.07 0.1049,-0.105 0.035,-0.034 0.0699,-0.069 0.1049,-0.104 0.0349,-0.035 0.0699,-0.069 0.1049,-0.104 0.0349,-0.035 0.0699,-0.069 0.1048,-0.104 0.035,-0.035 0.07,-0.07 0.1049,-0.104 0.035,-0.035 0.0699,-0.069 0.1049,-0.104 0.035,-0.035 0.0699,-0.069 0.1049,-0.104 0.0349,-0.034 0.0699,-0.069 0.1049,-0.104 0.0349,-0.034 0.0699,-0.069 0.1048,-0.103 0.035,-0.035 0.07,-0.069 0.1049,-0.104 0.035,-0.034 0.0699,-0.069 0.1049,-0.103 0.035,-0.035 0.0699,-0.069 0.1049,-0.103 0.0349,-0.035 0.0699,-0.069 0.1049,-0.104 0.0349,-0.034 0.0699,-0.068 0.1048,-0.103 0.035,-0.034 0.07,-0.068 0.1049,-0.103 0.035,-0.034 0.0699,-0.068 0.1049,-0.102 0.035,-0.035 0.0699,-0.069 0.1049,-0.103 0.0349,-0.034 0.0699,-0.068 0.1049,-0.103 0.0349,-0.034 0.0699,-0.068 0.1048,-0.102 0.035,-0.034 0.07,-0.068 0.1049,-0.102 0.035,-0.034 0.0699,-0.068 0.1049,-0.102 0.035,-0.034 0.0699,-0.068 0.1049,-0.102 0.0349,-0.034 0.0699,-0.068 0.1049,-0.102 0.0349,-0.034 0.0699,-0.068 0.1048,-0.102 0.035,-0.033 0.07,-0.067 0.1049,-0.101 0.035,-0.034 0.0699,-0.068 0.1049,-0.101 0.035,-0.034 0.0699,-0.068 0.1049,-0.101 0.0349,-0.034 0.0699,-0.068 0.1049,-0.101 0.0349,-0.034 0.0699,-0.068 0.1048,-0.101 0.035,-0.034 0.07,-0.067 0.1049,-0.101 0.035,-0.033 0.0699,-0.067 0.1049,-0.1 0.035,-0.033 0.0699,-0.067 0.1049,-0.1 0.0349,-0.034 0.0699,-0.067 0.1049,-0.1 0.0349,-0.034 0.0699,-0.067 0.1048,-0.1 0.035,-0.033 0.07,-0.066 0.1049,-0.1 0.035,-0.033 0.0699,-0.066 0.1049,-0.099 0.035,-0.033 0.0699,-0.066 0.1049,-0.099 0.0349,-0.033 0.0699,-0.066 0.1049,-0.099 0.0349,-0.033 0.0699,-0.066 0.1048,-0.099 0.035,-0.033 0.07,-0.065 0.1049,-0.098 0.035,-0.033 0.0699,-0.066 0.1049,-0.099 0.035,-0.032 0.0699,-0.065 0.1049,-0.098 0.0349,-0.032 0.0699,-0.065 0.1048,-0.097 0.035,-0.033 0.07,-0.065 0.1049,-0.098 0.035,-0.032 0.0699,-0.065 0.1049,-0.097 0.035,-0.033 0.0699,-0.065 0.1049,-0.097 0.0349,-0.033 0.0699,-0.065 0.1049,-0.097 0.0349,-0.032 0.0699,-0.065 0.1048,-0.097 0.035,-0.032 0.07,-0.064 0.1049,-0.096 0.035,-0.032 0.0699,-0.064 0.1049,-0.096 0.035,-0.032 0.0699,-0.064 0.1049,-0.096 0.0349,-0.032 0.0699,-0.064 0.1049,-0.095 0.0349,-0.032 0.0699,-0.064 0.1048,-0.096 0.035,-0.031 0.07,-0.063 0.1049,-0.095 0.035,-0.031 0.0699,-0.063 0.1049,-0.094 0.035,-0.032 0.0699,-0.063 0.1049,-0.095 0.0349,-0.031 0.0699,-0.062 0.1049,-0.094 0.0349,-0.031 0.0699,-0.062 0.1048,-0.093 0.035,-0.032 0.07,-0.063 0.1049,-0.094 0.035,-0.031 0.0699,-0.062 0.1049,-0.093 0.035,-0.031 0.0699,-0.062 0.1049,-0.093 0.0349,-0.031 0.0699,-0.062 0.1049,-0.093 0.0349,-0.03 0.0699,-0.061 0.1048,-0.092 0.035,-0.031 0.07,-0.061 0.1049,-0.092 0.035,-0.03 0.0699,-0.061 0.1049,-0.092 0.035,-0.03 0.0699,-0.06 0.1049,-0.091 0.0349,-0.03 0.0699,-0.061 0.1049,-0.091 0.0349,-0.03 0.0699,-0.06 0.1048,-0.09 0.035,-0.031 0.07,-0.061 0.1049,-0.091 0.035,-0.03 0.0699,-0.06 0.1049,-0.09 0.035,-0.03 0.0699,-0.06 0.1049,-0.089 0.0349,-0.03 0.0699,-0.06 0.1049,-0.09 0.0349,-0.029 0.0699,-0.059 0.1048,-0.089 0.035,-0.029 0.07,-0.059 0.1049,-0.088 0.035,-0.03 0.0699,-0.059 0.1049,-0.089 0.035,-0.029 0.0699,-0.058 0.1049,-0.087 0.0349,-0.03 0.0699,-0.059 0.1049,-0.088 0.0349,-0.029 0.0699,-0.058 0.1048,-0.087 0.035,-0.029 0.07,-0.058 0.1049,-0.087 0.035,-0.029 0.0699,-0.058 0.1049,-0.086 0.035,-0.029 0.0699,-0.058 0.1049,-0.086 0.0349,-0.029 0.0699,-0.058 0.1049,-0.086 0.0349,-0.029 0.0699,-0.057 0.1048,-0.085 0.035,-0.029 0.07,-0.057 0.1049,-0.085 0.035,-0.029 0.0699,-0.057 0.1049,-0.085 0.035,-0.028 0.0699,-0.056 0.1049,-0.084 0.0349,-0.028 0.0699,-0.056 0.1049,-0.084 0.0349,-0.028 0.0699,-0.055 0.1048,-0.083 0.035,-0.028 0.07,-0.055 0.1049,-0.083 0.035,-0.028 0.0699,-0.055 0.1049,-0.083 0.035,-0.027 0.0699,-0.054 0.1049,-0.082 0.0349,-0.027 0.0699,-0.054 0.1049,-0.081 0.0349,-0.028 0.0699,-0.055 0.1048,-0.082 0.035,-0.027 0.07,-0.054 0.1049,-0.08 0.035,-0.027 0.0699,-0.054 0.1049,-0.081 0.035,-0.027 0.0699,-0.053 0.1049,-0.08 0.0349,-0.027 0.0699,-0.053 0.1049,-0.08 0.0349,-0.026 0.0699,-0.052 0.1048,-0.079 0.035,-0.026 0.07,-0.052 0.1049,-0.078 0.035,-0.027 0.0699,-0.053 0.1049,-0.079 0.035,-0.026 0.0699,-0.052 0.1049,-0.078 0.0349,-0.025 0.0699,-0.051 0.1049,-0.077 0.0349,-0.026 0.0699,-0.051 0.1048,-0.077 0.035,-0.026 0.07,-0.051 0.1049,-0.076 0.035,-0.026 0.0699,-0.051 0.1049,-0.077 0.035,-0.025 0.0699,-0.05 0.1049,-0.075 0.0349,-0.025 0.0699,-0.05 0.1049,-0.075 0.0349,-0.025 0.0699,-0.05 0.1048,-0.075 0.035,-0.025 0.07,-0.05 0.1049,-0.074 0.035,-0.025 0.0699,-0.049 0.1049,-0.074 0.035,-0.024 0.0699,-0.049 0.1049,-0.073 0.0349,-0.025 0.0699,-0.049 0.1049,-0.073 0.0349,-0.024 0.0699,-0.048 0.1048,-0.072 0.035,-0.024 0.07,-0.048 0.1049,-0.072 0.035,-0.024 0.0699,-0.048 0.1049,-0.072 0.035,-0.023 0.0699,-0.047 0.1049,-0.07 0.0349,-0.024 0.0699,-0.047 0.1049,-0.071 0.0349,-0.023 0.0699,-0.047 0.1048,-0.07 0.035,-0.023 0.07,-0.046 0.1049,-0.069 0.035,-0.023 0.0699,-0.046 0.1049,-0.069 0.035,-0.023 0.0699,-0.046 0.1049,-0.069 0.0349,-0.022 0.0699,-0.045 0.1049,-0.067 0.0349,-0.023 0.0699,-0.045 0.1048,-0.068 0.035,-0.022 0.07,-0.045 0.1049,-0.067 0.035,-0.022 0.0699,-0.044 0.1049,-0.066 0.035,-0.022 0.0699,-0.044 0.1049,-0.066 0.0349,-0.022 0.0699,-0.044 0.1049,-0.065 0.0349,-0.022 0.0699,-0.044 0.1048,-0.065 0.035,-0.022 0.07,-0.043 0.1049,-0.065 0.035,-0.021 0.0699,-0.042 0.1049,-0.063 0.035,-0.022 0.0699,-0.043 0.1049,-0.064 0.0349,-0.021 0.0699,-0.042 0.1049,-0.063 0.0349,-0.02 0.0699,-0.041 0.1048,-0.062 0.035,-0.02 0.07,-0.041 0.1049,-0.061 0.035,-0.021 0.0699,-0.041 0.1049,-0.062 0.035,-0.02 0.0699,-0.04 0.1049,-0.06 0.0349,-0.02 0.0699,-0.04 0.1049,-0.06 0.0349,-0.02 0.0699,-0.04 0.1048,-0.06 0.035,-0.02 0.07,-0.039 0.1049,-0.059 0.035,-0.019 0.0699,-0.039 0.1049,-0.058 0.035,-0.02 0.0699,-0.039 0.1049,-0.058 0.0349,-0.019 0.0699,-0.039 0.1049,-0.058 0.0349,-0.019 0.0699,-0.038 0.1048,-0.056 0.035,-0.019 0.07,-0.038 0.1049,-0.057 0.035,-0.018 0.0699,-0.037 0.1049,-0.055 0.035,-0.019 0.0699,-0.037 0.1049,-0.055 0.0349,-0.019 0.0699,-0.037 0.1049,-0.055 0.0349,-0.018 0.0699,-0.036 0.1048,-0.054 0.035,-0.018 0.07,-0.036 0.1049,-0.053 0.035,-0.018 0.0699,-0.036 0.1049,-0.053 0.035,-0.018 0.0699,-0.035 0.1049,-0.053 0.0349,-0.017 0.0699,-0.034 0.1049,-0.051 0.0349,-0.018 0.0699,-0.035 0.1048,-0.052 0.035,-0.016 0.07,-0.033 0.1049,-0.05 0.035,-0.017 0.0699,-0.034 0.1049,-0.05 0.035,-0.017 0.0699,-0.033 0.1049,-0.049 0.0349,-0.017 0.0699,-0.033 0.1049,-0.049 0.0349,-0.016 0.0699,-0.033 0.1048,-0.049 0.035,-0.016 0.07,-0.031 0.1049,-0.047 0.035,-0.016 0.0699,-0.032 0.1049,-0.047 0.035,-0.016 0.0699,-0.031 0.1049,-0.047 0.0349,-0.015 0.0699,-0.03 0.1049,-0.046 0.0349,-0.015 0.0699,-0.03 0.1048,-0.045 0.035,-0.015 0.07,-0.03 0.1049,-0.045 0.035,-0.014 0.0699,-0.029 0.1049,-0.044 0.035,-0.014 0.0699,-0.029 0.1049,-0.043 0.0349,-0.015 0.0699,-0.029 0.1049,-0.043 0.0349,-0.014 0.0699,-0.028 0.1048,-0.042 0.035,-0.014 0.07,-0.028 0.1049,-0.042 0.035,-0.014 0.0699,-0.028 0.1049,-0.041 0.035,-0.014 0.0699,-0.027 0.1049,-0.041 0.0349,-0.013 0.0699,-0.026 0.1049,-0.04 0.0349,-0.013 0.0699,-0.026 0.1048,-0.039 0.035,-0.013 0.07,-0.026 0.1049,-0.038 0.035,-0.013 0.0699,-0.026 0.1049,-0.039 0.035,-0.012 0.0699,-0.025 0.1049,-0.037 0.0349,-0.012 0.0699,-0.025 0.1049,-0.037 0.0349,-0.012 0.0699,-0.024 0.1048,-0.036 0.035,-0.012 0.07,-0.024 0.1049,-0.035 0.035,-0.012 0.0699,-0.024 0.1049,-0.035 0.035,-0.012 0.0699,-0.023 0.1049,-0.035 0.0349,-0.011 0.0699,-0.022 0.1049,-0.033 0.0349,-0.012 0.0699,-0.023 0.1048,-0.033 0.035,-0.011 0.07,-0.022 0.1049,-0.033 0.035,-0.011 0.0699,-0.021 0.1049,-0.032 0.035,-0.01 0.0699,-0.021 0.1049,-0.031 0.0349,-0.01 0.0699,-0.02 0.1049,-0.03 0.0349,-0.011 0.0699,-0.021 0.1048,-0.03 0.035,-0.01 0.07,-0.02 0.1049,-0.03 0.035,-0.009 0.0699,-0.019 0.1049,-0.028 0.035,-0.01 0.0699,-0.019 0.1049,-0.028 0.0349,-0.01 0.0699,-0.019 0.1049,-0.028 0.0349,-0.009 0.0699,-0.018 0.1048,-0.026 0.035,-0.009 0.07,-0.018 0.1049,-0.027 0.035,-0.008 0.0699,-0.017 0.1049,-0.025 0.035,-0.008 0.0699,-0.017 0.1049,-0.025 0.0349,-0.008 0.0699,-0.016 0.1049,-0.024 0.0349,-0.008 0.0699,-0.016 0.1048,-0.024 0.035,-0.007 0.07,-0.015 0.1049,-0.023 0.035,-0.007 0.0699,-0.014 0.1049,-0.022 0.035,-0.007 0.0699,-0.014 0.1049,-0.021 0.0349,-0.007 0.0699,-0.014 0.1049,-0.021 0.0349,-0.007 0.0699,-0.014 0.1048,-0.021 0.035,-0.006 0.07,-0.013 0.1049,-0.019 0.035,-0.007 0.0699,-0.013 0.1049,-0.019 0.035,-0.007 0.0699,-0.013 0.1049,-0.019 0.0349,-0.006 0.0699,-0.012 0.1049,-0.017 0.0349,-0.006 0.0699,-0.012 0.1048,-0.018 0.035,-0.005 0.0699,-0.011 0.1049,-0.016 0.035,-0.005 0.0699,-0.011 0.1049,-0.016 0.0349,-0.005 0.0699,-0.01 0.1049,-0.015 0.0346,-0.005 0.0696,-0.01 0.1046,-0.014 0.035,-0.005 0.07,-0.01 0.105,-0.014 0.035,-0.005 0.07,-0.009 0.105,-0.013 0.035,-0.005 0.07,-0.009 0.105,-0.013 0.035,-0.004 0.07,-0.008 0.105,-0.012 0.035,-0.003 0.07,-0.007 0.105,-0.011 0.035,-0.003 0.07,-0.007 0.105,-0.01 0.034,-0.004 0.069,-0.007 0.104,-0.01 0.035,-0.003 0.07,-0.007 0.105,-0.009 0.035,-0.003 0.07,-0.006 0.105,-0.009 0.035,-0.003 0.07,-0.005 0.105,-0.008 0.035,-0.002 0.07,-0.005 0.105,-0.007 0.035,-0.003 0.07,-0.005 0.105,-0.007 0.035,-0.002 0.07,-0.004 0.105,-0.006 0.035,-0.002 0.07,-0.003 0.105,-0.005 0.035,-0.002 0.069,-0.003 0.104,-0.005 0.035,-0.001 0.07,-0.002 0.105,-0.004 0.035,-0.001 0.07,-0.002 0.105,-0.003 0.035,-0.001 0.07,-0.002 0.105,-0.003 0.035,0 0.07,-0.001 0.105,-0.001 0.035,-10e-4 0.07,-10e-4 0.105,-0.002 0.035,0 0.07,0 0.105,0 0.035,-0.001 0.07,-0.001 0.105,0 0.035,0 0.07,0 0.104,0 0.035,0.001 0.07,0.001 0.105,0.002 0.035,0 0.07,0.001 0.105,0.001 0.035,0.001 0.07,0.002 0.105,0.003 0.035,0.001 0.07,0.002 0.105,0.003 0.035,0.002 0.07,0.003 0.105,0.004 0.035,0.002 0.07,0.003 0.105,0.005 0.035,0.002 0.07,0.003 0.105,0.005 0.035,0.002 0.07,0.004 0.105,0.006 0.034,0.002 0.069,0.004 0.104,0.007 0.035,0.002 0.07,0.005 0.105,0.007 0.035,0.003 0.07,0.005 0.105,0.008 0.035,0.003 0.07,0.006 0.105,0.009 0.035,0.002 0.07,0.006 0.105,0.009 0.035,0.003 0.07,0.006 0.105,0.01 0.035,0.003 0.07,0.007 0.105,0.01 0.035,0.004 0.07,0.008 0.105,0.011 0.035,0.004 0.069,0.008 0.104,0.012 0.035,0.004 0.07,0.008 0.105,0.013 0.035,0.004 0.07,0.008 0.105,0.013 0.035,0.004 0.07,0.009 0.105,0.014 0.035,0.004 0.07,0.009 0.105,0.014 0.035,0.005 0.07,0.01 0.105,0.015 0.035,0.005 0.07,0.011 0.105,0.016 0.035,0.005 0.07,0.011 0.105,0.016 0.035,0.006 0.07,0.012 0.104,0.018 0.035,0.005 0.07,0.011 0.105,0.017 0.035,0.006 0.07,0.012 0.105,0.019 0.035,0.006 0.07,0.012 0.105,0.019 0.035,0.006 0.07,0.013 0.105,0.019 0.035,0.007 0.07,0.014 0.105,0.021 0.035,0.007 0.07,0.014 0.105,0.021 0.035,0.007 0.07,0.014 0.105,0.021 0.035,0.008 0.07,0.015 0.105,0.022 0.034,0.008 0.069,0.016 0.104,0.023 0.035,0.008 0.07,0.016 0.105,0.024 0.035,0.008 0.07,0.016 0.105,0.024 0.035,0.008 0.07,0.017 0.105,0.025 0.035,0.008 0.07,0.017 0.105,0.025 0.035,0.009 0.07,0.018 0.105,0.027 0.035,0.008 0.07,0.017 0.105,0.026 0.035,0.009 0.07,0.018 0.105,0.028 0.035,0.009 0.069,0.018 0.104,0.028 0.035,0.009 0.07,0.019 0.105,0.028 0.035,0.01 0.07,0.02 0.105,0.03 0.035,0.009 0.07,0.019 0.105,0.03 0.035,0.01 0.07,0.02 0.105,0.03 0.035,0.01 0.07,0.021 0.105,0.031 0.035,0.011 0.07,0.021 0.105,0.032 0.035,0.011 0.07,0.022 0.105,0.033 0.035,0.01 0.07,0.021 0.104,0.033 0.035,0.011 0.07,0.022 0.105,0.033 0.035,0.012 0.07,0.023 0.105,0.035 0.035,0.011 0.07,0.023 0.105,0.035 0.035,0.011 0.07,0.023 0.105,0.035 0.035,0.012 0.07,0.024 0.105,0.036 0.035,0.012 0.07,0.025 0.105,0.037 0.035,0.012 0.07,0.025 0.105,0.037 0.035,0.013 0.07,0.026 0.105,0.039 0.034,0.012 0.069,0.025 0.104,0.038 0.035,0.013 0.07,0.026 0.105,0.039 0.035,0.014 0.07,0.027 0.105,0.04 0.035,0.014 0.07,0.027 0.105,0.041 0.035,0.013 0.07,0.027 0.105,0.041 0.035,0.014 0.07,0.028 0.105,0.042 0.035,0.014 0.07,0.028 0.105,0.042 0.035,0.014 0.07,0.028 0.105,0.043 0.035,0.014 0.069,0.029 0.104,0.043 0.035,0.015 0.07,0.03 0.105,0.044 0.035,0.015 0.07,0.03 0.105,0.045 0.035,0.015 0.07,0.03 0.105,0.045 0.035,0.016 0.07,0.031 0.105,0.046 0.035,0.016 0.07,0.031 0.105,0.047 0.035,0.015 0.07,0.031 0.105,0.047 0.035,0.016 0.07,0.031 0.105,0.047 0.035,0.016 0.07,0.033 0.104,0.049 0.035,0.016 0.07,0.032 0.105,0.049 0.035,0.016 0.07,0.032 0.105,0.049 0.035,0.016 0.07,0.033 0.105,0.05 0.035,0.017 0.07,0.034 0.105,0.05 0.035,0.017 0.07,0.034 0.105,0.052 0.035,0.017 0.07,0.034 0.105,0.051 0.035,0.018 0.07,0.035 0.105,0.053 0.035,0.017 0.07,0.035 0.105,0.053 0.034,0.017 0.069,0.035 0.104,0.053 0.035,0.018 0.07,0.036 0.105,0.054 0.035,0.018 0.07,0.036 0.105,0.055 0.035,0.018 0.07,0.036 0.105,0.055 0.035,0.018 0.07,0.037 0.105,0.055 0.035,0.019 0.07,0.038 0.105,0.057 0.035,0.018 0.07,0.037 0.105,0.056 0.035,0.019 0.07,0.039 0.105,0.058 0.035,0.019 0.069,0.038 0.104,0.058 0.035,0.019 0.07,0.039 0.105,0.058 0.035,0.02 0.07,0.039 0.105,0.059 0.035,0.02 0.07,0.04 0.105,0.06 0.035,0.02 0.07,0.04 0.105,0.06 0.035,0.02 0.07,0.04 0.105,0.06 0.035,0.021 0.07,0.041 0.105,0.062 0.035,0.02 0.07,0.041 0.105,0.061 0.035,0.021 0.07,0.042 0.104,0.062 0.035,0.021 0.07,0.042 0.105,0.063 0.035,0.021 0.07,0.042 0.105,0.064 0.035,0.021 0.07,0.042 0.105,0.063 0.035,0.022 0.07,0.043 0.105,0.065 0.035,0.021 0.07,0.043 0.105,0.065 0.035,0.021 0.07,0.043 0.105,0.065 0.035,0.022 0.07,0.044 0.105,0.066 0.035,0.022 0.07,0.044 0.105,0.066 0.034,0.022 0.069,0.045 0.104,0.067 0.035,0.023 0.07,0.045 0.105,0.068 0.035,0.022 0.07,0.045 0.105,0.067 0.035,0.023 0.07,0.046 0.105,0.069 0.035,0.023 0.07,0.046 0.105,0.069 0.035,0.023 0.07,0.046 0.105,0.069 0.035,0.023 0.07,0.047 0.105,0.07 0.035,0.024 0.07,0.047 0.105,0.071 0.035,0.023 0.069,0.047 0.104,0.07 0.035,0.024 0.07,0.048 0.105,0.072 0.035,0.024 0.07,0.048 0.105,0.072 0.035,0.024 0.07,0.048 0.105,0.072 0.035,0.024 0.07,0.048 0.105,0.073 0.035,0.024 0.07,0.049 0.105,0.073 0.035,0.025 0.07,0.049 0.105,0.074 0.035,0.024 0.07,0.049 0.105,0.074 0.035,0.025 0.07,0.05 0.104,0.075 0.035,0.025 0.07,0.05 0.105,0.075 0.035,0.025 0.07,0.05 0.105,0.075 0.035,0.026 0.07,0.051 0.105,0.077 0.035,0.025 0.07,0.05 0.105,0.076 0.035,0.026 0.07,0.051 0.105,0.077 0.035,0.026 0.07,0.052 0.105,0.077 0.035,0.026 0.07,0.052 0.105,0.078 0.035,0.026 0.07,0.052 0.105,0.079 0.034,0.026 0.069,0.052 0.104,0.078 0.035,0.027 0.07,0.053 0.105,0.079 0.035,0.027 0.07,0.053 0.105,0.08 0.035,0.027 0.07,0.053 0.105,0.08 0.035,0.027 0.07,0.054 0.105,0.081 0.035,0.026 0.07,0.053 0.105,0.08 0.035,0.027 0.07,0.054 0.105,0.082 0.035,0.027 0.07,0.054 0.105,0.081 0.035,0.028 0.069,0.055 0.104,0.082 0.035,0.028 0.07,0.055 0.105,0.083 0.035,0.028 0.07,0.055 0.105,0.083 0.035,0.028 0.07,0.055 0.105,0.083 0.035,0.028 0.07,0.056 0.105,0.084 0.035,0.028 0.07,0.056 0.105,0.084 0.035,0.028 0.07,0.056 0.105,0.085 0.035,0.028 0.07,0.056 0.105,0.085 0.035,0.028 0.07,0.056 0.104,0.085 0.035,0.028 0.07,0.057 0.105,0.086 0.035,0.028 0.07,0.057 0.105,0.086 0.035,0.028 0.07,0.057 0.105,0.086 0.035,0.029 0.07,0.058 0.105,0.087 0.035,0.029 0.07,0.058 0.105,0.087 0.035,0.029 0.07,0.058 0.105,0.088 0.035,0.029 0.07,0.058 0.105,0.087 0.035,0.03 0.07,0.059 0.105,0.089 0.034,0.029 0.069,0.059 0.104,0.088 0.035,0.03 0.07,0.06 0.105,0.089 0.035,0.03 0.07,0.06 0.105,0.09 0.035,0.029 0.07,0.059 0.105,0.089 0.035,0.03 0.07,0.06 0.105,0.09 0.035,0.03 0.07,0.06 0.105,0.091 0.035,0.03 0.07,0.06 0.105,0.09 0.035,0.03 0.07,0.061 0.105,0.091 0.035,0.031 0.069,0.061 0.104,0.091 0.035,0.031 0.07,0.062 0.105,0.092 0.035,0.031 0.07,0.061 0.105,0.092 0.035,0.031 0.07,0.062 0.105,0.092 0.035,0.031 0.07,0.062 0.105,0.093 0.035,0.031 0.07,0.062 0.105,0.093 0.035,0.031 0.07,0.062 0.105,0.093 0.035,0.031 0.07,0.062 0.105,0.094 0.035,0.031 0.07,0.062 0.104,0.093 0.035,0.032 0.07,0.063 0.105,0.094 0.035,0.032 0.07,0.063 0.105,0.095 0.035,0.031 0.07,0.063 0.105,0.094 0.035,0.032 0.07,0.064 0.105,0.095 0.035,0.032 0.07,0.064 0.105,0.096 0.035,0.031 0.07,0.063 0.105,0.095 0.035,0.032 0.07,0.064 0.105,0.096 0.035,0.032 0.07,0.064 0.105,0.096 0.034,0.032 0.069,0.064 0.104,0.096 0.035,0.032 0.07,0.065 0.105,0.097 0.035,0.032 0.07,0.064 0.105,0.097 0.035,0.032 0.07,0.064 0.105,0.097 0.035,0.032 0.07,0.065 0.105,0.097 0.035,0.033 0.07,0.065 0.105,0.098 0.035,0.032 0.07,0.065 0.105,0.097 0.035,0.033 0.07,0.066 0.105,0.098 0.035,0.033 0.069,0.066 0.104,0.099 0.035,0.033 0.07,0.065 0.105,0.098 0.035,0.033 0.07,0.066 0.105,0.099 0.035,0.033 0.07,0.066 0.105,0.099 0.035,0.033 0.07,0.066 0.105,0.099 0.035,0.033 0.07,0.066 0.105,0.099 0.035,0.034 0.07,0.067 0.105,0.1 0.035,0.033 0.07,0.066 0.105,0.1 0.035,0.033 0.07,0.066 0.104,0.1 0.035,0.033 0.07,0.067 0.105,0.1 0.035,0.033 0.07,0.067 0.105,0.1 0.035,0.034 0.07,0.067 0.105,0.101 0.035,0.033 0.07,0.067 0.105,0.101 0.035,0.033 0.07,0.067 0.105,0.101 0.035,0.033 0.07,0.067 0.105,0.101 0.035,0.033 0.07,0.067 0.105,0.101 0.035,0.034 0.07,0.068 0.105,0.101 0.034,0.034 0.069,0.068 0.104,0.102 0.035,0.034 0.07,0.068 0.105,0.102 0.035,0.034 0.07,0.068 0.105,0.102 0.035,0.034 0.07,0.068 0.105,0.102 0.035,0.034 0.07,0.068 0.105,0.102 0.035,0.034 0.07,0.068 0.105,0.102 0.035,0.035 0.07,0.069 0.105,0.103 0.035,0.034 0.07,0.068 0.105,0.103 0.035,0.034 0.069,0.068 0.104,0.102 0.035,0.035 0.07,0.069 0.105,0.103 0.035,0.035 0.07,0.069 0.105,0.103 0.035,0.035 0.07,0.069 0.105,0.104 0.035,0.034 0.07,0.068 0.105,0.103 0.035,0.034 0.07,0.069 0.105,0.103 0.035,0.035 0.07,0.069 0.105,0.104 0.035,0.034 0.07,0.069 0.105,0.103 0.035,0.035 0.069,0.07 0.104,0.104 0.035,0.035 0.07,0.069 0.105,0.104 0.035,0.035 0.07,0.069 0.105,0.104 0.035,0.034 0.07,0.069 0.105,0.104 0.035,0.035 0.07,0.069 0.105,0.104 0.035,0.035 0.07,0.069 0.105,0.104 0.035,0.035 0.07,0.07 0.105,0.104 0.035,0.035 0.07,0.07 0.105,0.105 0.035,0.034 0.07,0.069 0.104,0.104 0.035,0.035 0.07,0.07 0.105,0.104 0.035,0.035 0.07,0.07 0.105,0.105 0.035,0.035 0.07,0.07 0.105,0.104 0.035,0.035 0.07,0.07 0.105,0.105 0.035,0.035 0.07,0.07 0.105,0.105 0.035,0.035 0.07,0.069 0.105,0.104 0.035,0.035 0.07,0.07 0.105,0.105 0.035,0.035 0.07,0.07 0.105,0.105 0.034,0.035 0.069,0.07 0.104,0.105 0.035,0.035 0.07,0.069 0.105,0.104 0.035,0.035 0.07,0.07 0.105,0.105 0.035,0.035 0.07,0.07 0.105,0.105 0.035,0.035 0.07,0.07 0.105,0.105 0.035,0.035 0.07,0.07 0.105,0.105 0.035,0.035 0.07,0.07 0.105,0.105 0.035,0.035 0.07,0.07 0.105,0.105 0.035,0.035 0.069,0.069 0.104,0.104 0.035,0.035 0.07,0.07 0.105,0.105 0.035,0.035 0.07,0.07 0.105,0.105 0.035,0.035 0.07,0.07 0.105,0.105 0.035,0.035 0.07,0.07 0.105,0.105 0.035,0.035 0.07,0.07 0.105,0.105 0.035,0.035 0.07,0.069 0.105,0.104 0.035,0.035 0.07,0.07 0.105,0.105 0.035,0.035 0.07,0.07 0.104,0.105 0.035,0.035 0.07,0.07 0.105,0.105 0.035,0.034 0.07,0.069 0.105,0.104 0.035,0.035 0.07,0.07 0.105,0.105 0.035,0.035 0.07,0.069 0.105,0.104 0.035,0.035 0.07,0.07 0.105,0.105 0.035,0.034 0.07,0.069 0.105,0.104 0.035,0.035 0.07,0.07 0.105,0.104 0.035,0.035 0.07,0.07 0.105,0.105 0.034,0.034 0.069,0.069 0.104,0.104 0.035,0.035 0.07,0.069 0.105,0.104 0.035,0.035 0.07,0.069 0.105,0.104 0.035,0.035 0.07,0.069 0.105,0.104 0.035,0.035 0.07,0.069 0.105,0.104 0.035,0.034 0.07,0.069 0.105,0.104 0.035,0.034 0.07,0.069 0.105,0.103 0.035,0.035 0.07,0.069 0.105,0.104 0.035,0.034 0.069,0.069 0.104,0.103 0.035,0.035 0.07,0.069 0.105,0.104 0.035,0.034 0.07,0.068 0.105,0.103 0.035,0.034 0.07,0.069 0.105,0.103 0.035,0.034 0.07,0.069 0.105,0.103 0.035,0.034 0.07,0.068 0.105,0.103 0.035,0.034 0.07,0.068 0.105,0.102 0.035,0.035 0.07,0.069 0.105,0.103 0.035,0.034 0.07,0.068 0.104,0.103 0.035,0.034 0.07,0.068 0.105,0.102 0.035,0.034 0.07,0.068 0.105,0.102 0.035,0.034 0.07,0.068 0.105,0.102 0.035,0.034 0.07,0.068 0.105,0.102 0.035,0.034 0.07,0.068 0.105,0.102 0.035,0.033 0.07,0.067 0.105,0.101 0.035,0.034 0.07,0.068 0.105,0.101 0.035,0.034 0.07,0.068 0.105,0.102 0.034,0.033 0.069,0.067 0.104,0.101 0.035,0.033 0.07,0.067 0.105,0.101 0.035,0.033 0.07,0.067 0.105,0.1 0.035,0.034 0.07,0.067 0.105,0.101 0.035,0.033 0.07,0.067 0.105,0.1 0.035,0.033 0.07,0.067 0.105,0.1 0.035,0.033 0.07,0.067 0.105,0.1 0.035,0.033 0.07,0.066 0.105,0.1 0.035,0.033 0.069,0.066 0.104,0.099 0.035,0.033 0.07,0.066 0.105,0.099 0.035,0.033 0.07,0.066 0.105,0.099 0.035,0.033 0.07,0.066 0.105,0.099 0.035,0.033 0.07,0.066 0.105,0.099 0.035,0.033 0.07,0.066 0.105,0.098 0.035,0.033 0.07,0.066 0.105,0.098 0.035,0.033 0.07,0.066 0.105,0.098 0.035,0.033 0.07,0.065 0.104,0.098 0.035,0.033 0.07,0.065 0.105,0.097 0.035,0.033 0.07,0.065 0.105,0.098 0.035,0.032 0.07,0.064 0.105,0.097 0.035,0.032 0.07,0.064 0.105,0.096 0.035,0.032 0.07,0.065 0.105,0.097 0.035,0.032 0.07,0.064 0.105,0.096 0.035,0.032 0.07,0.064 0.105,0.096 0.035,0.032 0.07,0.064 0.105,0.095 0.034,0.032 0.069,0.064 0.104,0.096 0.035,0.032 0.07,0.063 0.105,0.095 0.035,0.032 0.07,0.063 0.105,0.095 0.035,0.031 0.07,0.063 0.105,0.094 0.035,0.032 0.07,0.063 0.105,0.094 0.035,0.032 0.07,0.063 0.105,0.094 0.035,0.032 0.07,0.063 0.105,0.094 0.035,0.031 0.07,0.062 0.105,0.093 0.035,0.031 0.069,0.062 0.104,0.093 0.035,0.031 0.07,0.062 0.105,0.093 0.035,0.031 0.07,0.062 0.105,0.093 0.035,0.03 0.07,0.061 0.105,0.092 0.035,0.03 0.07,0.061 0.105,0.092 0.035,0.03 0.07,0.061 0.105,0.091 0.035,0.03 0.07,0.061 0.105,0.091 0.035,0.031 0.07,0.061 0.105,0.091 0.035,0.03 0.07,0.06 0.104,0.091 0.035,0.03 0.07,0.06 0.105,0.09 0.035,0.03 0.07,0.06 0.105,0.089 0.035,0.03 0.07,0.06 0.105,0.09 0.035,0.03 0.07,0.059 0.105,0.089 0.035,0.03 0.07,0.059 0.105,0.089 0.035,0.029 0.07,0.059 0.105,0.088 0.035,0.03 0.07,0.059 0.105,0.088 0.035,0.03 0.07,0.059 0.105,0.088 0.034,0.029 0.069,0.058 0.104,0.087 0.035,0.03 0.07,0.059 0.105,0.087 0.035,0.029 0.07,0.058 0.105,0.087 0.035,0.029 0.07,0.058 0.105,0.086 0.035,0.029 0.07,0.058 0.105,0.086 0.035,0.029 0.07,0.057 0.105,0.086 0.035,0.028 0.07,0.056 0.105,0.085 0.035,0.028 0.07,0.056 0.105,0.084 0.035,0.029 0.069,0.057 0.104,0.085 0.035,0.028 0.07,0.056 0.105,0.084 0.035,0.028 0.07,0.055 0.105,0.083 0.035,0.028 0.07,0.056 0.105,0.083 0.035,0.028 0.07,0.056 0.105,0.083 0.035,0.028 0.07,0.055 0.105,0.082 0.035,0.028 0.07,0.055 0.105,0.082 0.035,0.028 0.07,0.055 0.105,0.082 0.035,0.027 0.07,0.054 0.104,0.081 0.035,0.027 0.07,0.054 0.105,0.081 0.035,0.026 0.07,0.053 0.105,0.08 0.035,0.026 0.07,0.053 0.105,0.08 0.035,0.026 0.07,0.053 0.105,0.079 0.035,0.026 0.07,0.053 0.105,0.079 0.035,0.026 0.07,0.052 0.105,0.078 0.035,0.027 0.07,0.053 0.105,0.079 0.035,0.025 0.07,0.051 0.105,0.077 0.034,0.026 0.069,0.052 0.104,0.077 0.035,0.026 0.07,0.052 0.105,0.077 0.035,0.026 0.07,0.051 0.105,0.076 0.035,0.026 0.07,0.051 0.105,0.076 0.035,0.025 0.07,0.051 0.105,0.076 0.035,0.025 0.07,0.05 0.105,0.075 0.035,0.024 0.07,0.049 0.105,0.074 0.035,0.025 0.07,0.049 0.105,0.074 0.035,0.025 0.069,0.049 0.104,0.073 0.035,0.025 0.07,0.049 0.105,0.074 0.035,0.024 0.07,0.048 0.105,0.072 0.035,0.024 0.07,0.048 0.105,0.072 0.035,0.024 0.07,0.048 0.105,0.072 0.035,0.024 0.07,0.047 0.105,0.071 0.035,0.024 0.07,0.047 0.105,0.071 0.035,0.023 0.07,0.046 0.105,0.07 0.035,0.023 0.07,0.046 0.104,0.069 0.035,0.024 0.07,0.047 0.105,0.07 0.035,0.023 0.07,0.045 0.105,0.068 0.035,0.023 0.07,0.046 0.105,0.068 0.035,0.023 0.07,0.046 0.105,0.068 0.035,0.023 0.07,0.045 0.105,0.067 0.035,0.023 0.07,0.045 0.105,0.067 0.035,0.022 0.07,0.044 0.105,0.066 0.035,0.022 0.07,0.044 0.105,0.066 0.034,0.021 0.069,0.043 0.104,0.065 0.035,0.021 0.07,0.043 0.105,0.064 0.035,0.022 0.07,0.043 0.105,0.064 0.035,0.022 0.07,0.043 0.105,0.064 0.035,0.021 0.07,0.042 0.105,0.063 0.035,0.021 0.07,0.042 0.105,0.063 0.035,0.02 0.07,0.041 0.105,0.061 0.035,0.021 0.07,0.042 0.105,0.062 0.035,0.02 0.069,0.041 0.104,0.061 0.035,0.02 0.07,0.04 0.105,0.06 0.035,0.02 0.07,0.04 0.105,0.06 0.035,0.02 0.07,0.04 0.105,0.059 0.035,0.02 0.07,0.039 0.105,0.059 0.035,0.019 0.07,0.039 0.105,0.058 0.035,0.019 0.07,0.039 0.105,0.058 0.035,0.019 0.07,0.038 0.105,0.057 0.035,0.019 0.07,0.038 0.104,0.056 0.035,0.019 0.07,0.038 0.105,0.056 0.035,0.019 0.07,0.037 0.105,0.056 0.035,0.018 0.07,0.036 0.105,0.055 0.035,0.018 0.07,0.036 0.105,0.054 0.035,0.018 0.07,0.036 0.105,0.054 0.035,0.017 0.07,0.035 0.105,0.053 0.035,0.017 0.07,0.035 0.105,0.052 0.035,0.018 0.07,0.035 0.105,0.052 0.034,0.018 0.069,0.035 0.104,0.052 0.035,0.017 0.07,0.034 0.105,0.051 0.035,0.017 0.07,0.033 0.105,0.05 0.035,0.017 0.07,0.033 0.105,0.05 0.035,0.016 0.07,0.033 0.105,0.049 0.035,0.016 0.07,0.032 0.105,0.048 0.035,0.016 0.07,0.032 0.105,0.048 0.035,0.016 0.07,0.032 0.105,0.048 0.035,0.015 0.069,0.031 0.104,0.046 0.035,0.016 0.07,0.031 0.105,0.047 0.035,0.015 0.07,0.03 0.105,0.045 0.035,0.015 0.07,0.03 0.105,0.045 0.035,0.015 0.07,0.03 0.105,0.045 0.035,0.014 0.07,0.029 0.105,0.043 0.035,0.015 0.07,0.029 0.105,0.044 0.035,0.014 0.07,0.028 0.105,0.042 0.035,0.014 0.07,0.028 0.104,0.042 0.035,0.014 0.07,0.028 0.105,0.042 0.035,0.013 0.07,0.027 0.105,0.04 0.035,0.014 0.07,0.027 0.105,0.041 0.035,0.013 0.07,0.026 0.105,0.039 0.035,0.013 0.07,0.026 0.105,0.039 0.035,0.013 0.07,0.026 0.105,0.038 0.035,0.013 0.07,0.026 0.105,0.038 0.035,0.013 0.07,0.025 0.105,0.037 0.034,0.012 0.069,0.025 0.104,0.037 0.035,0.012 0.07,0.024 0.105,0.036 0.035,0.011 0.07,0.023 0.105,0.035 0.035,0.011 0.07,0.023 0.105,0.034 0.035,0.012 0.07,0.023 0.105,0.034 0.035,0.012 0.07,0.023 0.105,0.034 0.035,0.011 0.07,0.022 0.105,0.033 0.035,0.01 0.07,0.021 0.105,0.032 0.035,0.01 0.069,0.021 0.104,0.031 0.035,0.011 0.07,0.021 0.105,0.031 0.035,0.01 0.07,0.02 0.105,0.03 0.035,0.01 0.07,0.02 0.105,0.03 0.035,0.01 0.07,0.019 0.105,0.029 0.035,0.009 0.07,0.019 0.105,0.028 0.035,0.01 0.07,0.019 0.105,0.028 0.035,0.009 0.07,0.018 0.105,0.027 0.035,0.009 0.07,0.018 0.104,0.026 0.035,0.009 0.07,0.018 0.105,0.026 0.035,0.009 0.07,0.017 0.105,0.025 0.035,0.009 0.07,0.017 0.105,0.025 0.035,0.008 0.07,0.016 0.105,0.024 0.035,0.008 0.07,0.015 0.105,0.023 0.035,0.008 0.07,0.015 0.105,0.023 0.035,0.007 0.07,0.014 0.105,0.021 0.035,0.008 0.07,0.015 0.105,0.022 0.034,0.007 0.069,0.014 0.104,0.02 0.035,0.007 0.07,0.014 0.105,0.02 0.035,0.007 0.07,0.013 0.105,0.02 0.035,0.006 0.07,0.012 0.105,0.018 0.035,0.007 0.07,0.013 0.105,0.019 0.035,0.005 0.07,0.011 0.105,0.017 0.035,0.006 0.07,0.011 0.105,0.017 0.035,0.005 0.07,0.01 0.105,0.016 0.035,0.005 0.069,0.01 0.104,0.015 0.035,0.005 0.07,0.01 0.105,0.015 0.035,0.005 0.07,0.01 0.105,0.014 0.035,0.005 0.07,0.009 0.105,0.014 0.035,0.004 0.07,0.008 0.105,0.012 0.035,0.005 0.07,0.009 0.105,0.013 0.035,0.004 0.07,0.007 0.105,0.011 0.035,0.004 0.07,0.007 0.105,0.011 0.035,0.004 0.07,0.007 0.104,0.01 0.035,0.004 0.07,0.007 0.105,0.01 0.035,0.003 0.07,0.006 0.105,0.009 0.035,0.003 0.07,0.005 0.105,0.008 0.035,0.003 0.07,0.005 0.105,0.007 0.035,0.003 0.07,0.005 0.105,0.007 0.035,0.003 0.07,0.005 0.105,0.007 0.035,0.002 0.07,0.004 0.105,0.005 0.035,0.002 0.07,0.004 0.105,0.005 0.034,0.002 0.069,0.003 0.104,0.004 0.035,0.002 0.07,0.003 0.105,0.004 0.035,0.001 0.07,0.002 0.105,0.003 0.035,10e-4 0.07,0.002 0.105,0.002 0.035,0.001 0.07,0.002 0.105,0.002 0.035,0 0.07,0.001 0.105,0.001 0.035,0 0.07,0 0.105,0"
       id="path572" />
    <circle
       id="path1209"
       style="fill:#800080;stroke:none;stroke-width:0.39024"
       cx="116.251"
       cy="129.81"
       r="1.25" />
    <circle
       id="circle1211"
       style="fill:#800080;stroke:none;stroke-width:0.39024"
       cx="88.457603"
       cy="129.442"
       r="1.25" />
    <path
       style="font-variation-settings:normal;opacity:1;fill:#000000;fill-opacity:1;stroke:#000000;stroke-width:0.564999;stroke-linecap:butt;stroke-linejoin:miter;stroke-miterlimit:4;stroke-dasharray:none;stroke-dashoffset:0;stroke-opacity:1;stop-color:#000000;stop-opacity:1"
       d="m 128.417,139.66915 v 2.4457"
       id="path1276" />
    <path
       style="font-variation-settings:normal;opacity:1;fill:#000000;fill-opacity:1;stroke:#000000;stroke-width:0.564999;stroke-linecap:butt;stroke-linejoin:miter;stroke-miterlimit:4;stroke-dasharray:none;stroke-dashoffset:0;stroke-opacity:1;stop-color:#000000;stop-opacity:1"
       d="m 76.3964,139.56415 v 2.4457"
       id="path1278" />
  </g>
</svg>
