<?xml version="1.0" encoding="UTF-8" standalone="no"?>
<!-- Created with Inkscape (http://www.inkscape.org/) -->

<svg
   width="619.49878mm"
   height="130.18268mm"
   viewBox="0 0 619.49879 130.18268"
   version="1.1"
   id="svg5"
   sodipodi:docname="prob-05-02-23_01.svg"
   inkscape:version="1.2.2 (1:1.2.2+202212051550+b0a8486541)"
   xmlns:inkscape="http://www.inkscape.org/namespaces/inkscape"
   xmlns:sodipodi="http://sodipodi.sourceforge.net/DTD/sodipodi-0.dtd"
   xmlns="http://www.w3.org/2000/svg"
   xmlns:svg="http://www.w3.org/2000/svg">
  <sodipodi:namedview
     id="namedview7"
     pagecolor="#ffffff"
     bordercolor="#999999"
     borderopacity="1"
     inkscape:showpageshadow="0"
     inkscape:pageopacity="0"
     inkscape:pagecheckerboard="0"
     inkscape:deskcolor="#d1d1d1"
     inkscape:document-units="mm"
     showgrid="false"
     inkscape:zoom="0.70710678"
     inkscape:cx="544.47222"
     inkscape:cy="325.97623"
     inkscape:window-width="1600"
     inkscape:window-height="832"
     inkscape:window-x="0"
     inkscape:window-y="32"
     inkscape:window-maximized="1"
     inkscape:current-layer="layer1" />
  <defs
     id="defs2">
    <clipPath
       id="clipPath3254">
      <path
         d="M 0,0 H 8.847656 V 7.410156 H 0 Z m 0,0"
         id="path7589" />
    </clipPath>
    <clipPath
       id="clipPath3453">
      <path
         d="M 0,0 H 7 V 11.953125 H 0 Z m 0,0"
         id="path5356" />
    </clipPath>
    <clipPath
       id="clipPath6748">
      <path
         d="M 0,0 H 7.253906 V 7.410156 H 0 Z m 0,0"
         id="path6755" />
    </clipPath>
    <clipPath
       id="clipPath5562">
      <path
         d="M 0,0 H 7.894531 V 11.097656 H 0 Z m 0,0"
         id="path9427" />
    </clipPath>
    <clipPath
       id="clipPath3897">
      <path
         d="M 1,0 H 7 V 11.097656 H 1 Z m 0,0"
         id="path4628" />
    </clipPath>
    <clipPath
       id="clipPath7652">
      <path
         d="M 1,0 H 6 V 17.1875 H 1 Z m 0,0"
         id="path6507" />
    </clipPath>
    <clipPath
       id="clipPath4030">
      <path
         d="m 28,0 h 4 v 17.1875 h -4 z m 0,0"
         id="path2316" />
    </clipPath>
    <clipPath
       id="clipPath6591">
      <path
         d="m 39,5 h 6.859375 v 9 H 39 Z m 0,0"
         id="path7001" />
    </clipPath>
    <clipPath
       id="clipPath4903">
      <path
         d="M 1,0 H 6 V 17.1875 H 1 Z m 0,0"
         id="path4251" />
    </clipPath>
    <clipPath
       id="clipPath7910">
      <path
         d="m 28,0 h 4 v 17.1875 h -4 z m 0,0"
         id="path9358" />
    </clipPath>
    <clipPath
       id="clipPath6103">
      <path
         d="m 39,0 h 6.859375 V 14 H 39 Z m 0,0"
         id="path1463" />
    </clipPath>
    <clipPath
       id="clipPath361">
      <path
         d="M 1,0 H 6 V 17.1875 H 1 Z m 0,0"
         id="path3677" />
    </clipPath>
    <clipPath
       id="clipPath1037">
      <path
         d="m 26,0 h 5 v 17.1875 h -5 z m 0,0"
         id="path9283" />
    </clipPath>
    <clipPath
       id="clipPath1801">
      <path
         d="m 37,5 h 8.859375 v 9 H 37 Z m 0,0"
         id="path8202" />
    </clipPath>
    <clipPath
       id="clipPath7652-0">
      <path
         d="M 1,0 H 6 V 17.1875 H 1 Z m 0,0"
         id="path6507-6" />
    </clipPath>
    <clipPath
       id="clipPath4030-1">
      <path
         d="m 28,0 h 4 v 17.1875 h -4 z m 0,0"
         id="path2316-5" />
    </clipPath>
    <clipPath
       id="clipPath6591-5">
      <path
         d="m 39,5 h 6.859375 v 9 H 39 Z m 0,0"
         id="path7001-4" />
    </clipPath>
    <clipPath
       id="clipPath7652-8">
      <path
         d="M 1,0 H 6 V 17.1875 H 1 Z m 0,0"
         id="path6507-8" />
    </clipPath>
    <clipPath
       id="clipPath4030-4">
      <path
         d="m 28,0 h 4 v 17.1875 h -4 z m 0,0"
         id="path2316-3" />
    </clipPath>
    <clipPath
       id="clipPath6591-1">
      <path
         d="m 39,5 h 6.859375 v 9 H 39 Z m 0,0"
         id="path7001-49" />
    </clipPath>
  </defs>
  <g
     inkscape:label="Layer 1"
     inkscape:groupmode="layer"
     id="layer1"
     transform="translate(106.96646,75.020369)">
    <ellipse
       style="font-variation-settings:normal;opacity:1;vector-effect:none;fill:#f0f00e;fill-opacity:1;fill-rule:evenodd;stroke:#4d4d4d;stroke-width:0.5;stroke-linecap:butt;stroke-linejoin:miter;stroke-miterlimit:4;stroke-dasharray:none;stroke-dashoffset:0;stroke-opacity:1;-inkscape-stroke:none;paint-order:fill stroke markers;stop-color:#000000;stop-opacity:1"
       id="ellipse1003"
       cx="-77.231468"
       cy="-22.201036"
       rx="29.484989"
       ry="52.569332" />
    <ellipse
       style="font-variation-settings:normal;opacity:1;vector-effect:none;fill:#ffb380;fill-opacity:1;fill-rule:evenodd;stroke:#4d4d4d;stroke-width:0.5;stroke-linecap:butt;stroke-linejoin:miter;stroke-miterlimit:4;stroke-dasharray:none;stroke-dashoffset:0;stroke-opacity:1;-inkscape-stroke:none;paint-order:fill stroke markers;stop-color:#000000;stop-opacity:1"
       id="ellipse1005"
       cx="48.749313"
       cy="-22.201036"
       rx="29.484989"
       ry="52.569332" />
    <g
       id="path2674">
      <path
         style="color:#000000;fill:#000000;-inkscape-stroke:none"
         d="m -75.277344,-52.507812 -0.01367,0.464843 61.564453,1.96875 60.521485,1.933594 0.01367,-0.464844 -60.519532,-1.933593 z"
         id="path646" />
      <g
         id="g636">
        <g
           id="path638">
          <path
             style="color:#000000;fill:#000000;fill-rule:evenodd;stroke-width:0.2325pt;-inkscape-stroke:none"
             d="m -12.324259,-50.262272 c -0.704572,0.210098 -1.648953,0.645149 -2.128571,1.095056 0,0 0.02971,-0.929525 0.501902,-1.147051 -0.457335,-0.247237 -0.427624,-1.176762 -0.427624,-1.176762 0.449907,0.479618 1.364577,0.974092 2.054293,1.228757 z"
             id="path642" />
          <path
             style="color:#000000;fill:#000000;fill-rule:evenodd;-inkscape-stroke:none"
             d="m -14.521484,-51.869141 -0.01172,0.373047 c 0,0 -0.0084,0.246899 0.04492,0.529297 0.04386,0.232143 0.185795,0.468 0.380859,0.648438 -0.20521,0.167685 -0.36342,0.392758 -0.421875,0.621093 -0.07127,0.278415 -0.07813,0.525391 -0.07813,0.525391 l -0.01172,0.373047 0.271485,-0.255859 c 0.441935,-0.414559 1.383593,-0.854402 2.068359,-1.058594 l 0.445313,-0.132813 -0.4375,-0.162109 c -0.670328,-0.247506 -1.579582,-0.747518 -1.994141,-1.189453 z m 0.322265,0.660157 c 0.438649,0.373877 1.007349,0.705124 1.5625,0.9375 -0.569495,0.196747 -1.159565,0.490371 -1.621094,0.835937 0.0103,-0.07697 0.0044,-0.08816 0.0293,-0.185547 0.06163,-0.240728 0.180784,-0.47856 0.341797,-0.552734 l 0.28125,-0.128906 -0.271484,-0.148438 c -0.155947,-0.08431 -0.260512,-0.328093 -0.306641,-0.572265 -0.01849,-0.09787 -0.01023,-0.108483 -0.01563,-0.185547 z"
             id="path644" />
        </g>
      </g>
    </g>
    <g
       id="path3520">
      <path
         style="color:#000000;fill:#000000;-inkscape-stroke:none"
         d="m 46.755859,-48.599609 -60.478515,11.998047 -63.552735,12.220703 0.08789,0.457031 63.554687,-12.222656 60.480469,-11.998047 z"
         id="path632" />
      <g
         id="g622">
        <g
           id="path624">
          <path
             style="color:#000000;fill:#000000;fill-rule:evenodd;stroke-width:0.2325pt;-inkscape-stroke:none"
             d="m -12.308064,-36.641605 c -0.639986,0.361912 -1.463584,0.996586 -1.830808,1.54211 0,0 -0.1783,-0.912748 0.233499,-1.230085 -0.500949,-0.139037 -0.679249,-1.051785 -0.679249,-1.051785 0.545524,0.367224 1.547422,0.645298 2.276558,0.73976 z"
             id="path628" />
          <path
             style="color:#000000;fill:#000000;fill-rule:evenodd;-inkscape-stroke:none"
             d="m -14.808594,-37.71875 0.07227,0.367188 c 0,0 0.04713,0.242466 0.162109,0.505859 0.09431,0.216053 0.284168,0.414263 0.513672,0.546875 -0.162093,0.209134 -0.265423,0.463917 -0.271484,0.699219 -0.0074,0.287298 0.04101,0.529297 0.04101,0.529297 l 0.07227,0.367187 0.208984,-0.310547 c 0.338372,-0.502663 1.155348,-1.140449 1.777344,-1.492187 l 0.40625,-0.230469 -0.462891,-0.05859 c -0.708639,-0.09181 -1.706321,-0.376472 -2.208984,-0.714844 z m 0.460938,0.572266 c 0.510627,0.266623 1.139494,0.461602 1.732422,0.564453 -0.510673,0.31845 -1.01983,0.736561 -1.392579,1.175781 -0.007,-0.07693 -0.01624,-0.08599 -0.01367,-0.185547 0.0064,-0.248409 0.07052,-0.507025 0.210937,-0.615234 l 0.246094,-0.189453 -0.298828,-0.08203 c -0.170819,-0.04741 -0.328323,-0.262494 -0.427735,-0.490234 -0.04003,-0.0917 -0.03417,-0.103616 -0.05664,-0.177734 z"
             id="path630" />
        </g>
      </g>
    </g>
    <ellipse
       id="circle1011"
       style="fill:#0000ff;stroke:none;stroke-width:0.264582"
       cx="-77.231468"
       cy="-24.152224"
       rx="1.9472944"
       ry="1.9511886" />
    <ellipse
       id="circle1007"
       style="fill:#0000ff;stroke:none;stroke-width:0.264582"
       cx="-77.231468"
       cy="-52.274731"
       rx="1.9472944"
       ry="1.9511886" />
    <ellipse
       id="circle1013"
       style="fill:#0000ff;stroke:none;stroke-width:0.264582"
       cx="48.749313"
       cy="-48.372349"
       rx="1.9472944"
       ry="1.9511886" />
    <g
       id="path3578">
      <path
         style="color:#000000;fill:#000000;-inkscape-stroke:none"
         d="M -77.232422,3.7382813 V 4.203125 H -14.382813 48.75 V 3.7382813 h -63.132813 z"
         id="path618" />
      <g
         id="g608">
        <g
           id="path610">
          <path
             style="color:#000000;fill:#000000;fill-rule:evenodd;stroke-width:0.2325pt;-inkscape-stroke:none"
             d="m -12.988781,3.9702753 c -0.6975,0.2325 -1.6275,0.6975 -2.0925,1.1625 0,0 0,-0.93 0.465,-1.1625 -0.465,-0.2325 -0.465,-1.1625 -0.465,-1.1625 0.465,0.465 1.395,0.93 2.0925,1.1625 z"
             id="path614" />
          <path
             style="color:#000000;fill:#000000;fill-rule:evenodd;-inkscape-stroke:none"
             d="m -15.236328,2.4335938 v 0.375 c 0,0 1.55e-4,0.2467937 0.0625,0.5273437 0.05115,0.2301929 0.200447,0.4606182 0.40039,0.6347656 -0.199943,0.1741474 -0.349236,0.4045728 -0.40039,0.6347656 -0.06235,0.2805501 -0.0625,0.5273438 -0.0625,0.5273438 v 0.375 l 0.265625,-0.265625 c 0.428466,-0.4284657 1.353357,-0.8990356 2.03125,-1.125 l 0.441406,-0.1464844 -0.441406,-0.1484375 c -0.677893,-0.2259644 -1.602784,-0.6965343 -2.03125,-1.125 z m 0.34375,0.6503906 c 0.449697,0.3591343 1.02817,0.6721955 1.589844,0.8867187 -0.561526,0.2145396 -1.140347,0.5277175 -1.589844,0.8867188 0.0078,-0.077025 -2.08e-4,-0.087933 0.02148,-0.1855469 0.05391,-0.2425745 0.165658,-0.4832197 0.324219,-0.5625 l 0.277344,-0.1386719 -0.277344,-0.1386718 c -0.158561,-0.07928 -0.270313,-0.3218787 -0.324219,-0.5644532 -0.02156,-0.097006 -0.01362,-0.1068443 -0.02148,-0.1835937 z"
             id="path616" />
        </g>
      </g>
    </g>
    <ellipse
       id="circle1009"
       style="fill:#0000ff;stroke:none;stroke-width:0.264582"
       cx="-77.231468"
       cy="3.9702752"
       rx="1.9472944"
       ry="1.9511886" />
    <ellipse
       id="circle1015"
       style="fill:#0000ff;stroke:none;stroke-width:0.264582"
       cx="48.749313"
       cy="3.9702752"
       rx="1.9472944"
       ry="1.9511886" />
    <g
       inkscape:label=""
       transform="matrix(1.9472944,0,0,1.9511886,-84.731096,-55.796162)"
       id="g9036"
       style="stroke-width:0.513021">
      <g
         id="surface1"
         transform="matrix(0.352778,0,0,0.352778,-0.242535,0.0641173)"
         style="stroke-width:0.513021">
        <g
           clip-path="url(#clipPath3254)"
           clip-rule="nonzero"
           id="g19"
           style="stroke-width:0.298002">
          <g
             style="fill:#000000;fill-opacity:1;stroke-width:0.513021"
             id="g17">
            <g
               id="use15"
               transform="translate(0,7.4120002)"
               style="stroke-width:0.513021">
              <path
                 style="stroke:none;stroke-width:0.513021"
                 d="M 5.1875,-2.046875 C 5.09375,-1.75 5.09375,-1.71875 4.859375,-1.390625 c -0.375,0.484375 -1.140625,1.21875 -1.953125,1.21875 -0.703125,0 -1.09375,-0.640625 -1.09375,-1.65625 0,-0.9375 0.53125,-2.875 0.859375,-3.59375 C 3.25,-6.625 4.0625,-7.25 4.734375,-7.25 c 1.140625,0 1.359375,1.40625 1.359375,1.546875 0,0.015625 -0.046875,0.25 -0.0625,0.28125 z m 1.09375,-4.40625 C 6.09375,-6.90625 5.625,-7.59375 4.734375,-7.59375 c -1.9375,0 -4.046875,2.515625 -4.046875,5.0625 0,1.703125 1,2.703125 2.171875,2.703125 0.953125,0 1.75,-0.734375 2.234375,-1.3125 0.171875,1.015625 0.984375,1.3125 1.5,1.3125 0.515625,0 0.9375,-0.3125 1.234375,-0.921875 C 8.109375,-1.34375 8.34375,-2.390625 8.34375,-2.46875 8.34375,-2.546875 8.28125,-2.625 8.171875,-2.625 8.03125,-2.625 8,-2.53125 7.9375,-2.265625 7.671875,-1.25 7.359375,-0.171875 6.640625,-0.171875 c -0.5,0 -0.53125,-0.453125 -0.53125,-0.796875 0,-0.390625 0.0625,-0.578125 0.203125,-1.25 0.125,-0.4375 0.21875,-0.8125 0.34375,-1.3125 0.640625,-2.578125 0.796875,-3.203125 0.796875,-3.296875 0,-0.25 -0.1875,-0.4375 -0.4375,-0.4375 -0.5625,0 -0.703125,0.609375 -0.734375,0.8125 z m 0,0"
                 id="path26" />
            </g>
          </g>
        </g>
      </g>
    </g>
    <g
       inkscape:label=""
       transform="matrix(1.9472944,0,0,1.9511886,-84.868197,-29.413379)"
       id="g9125"
       style="stroke-width:0.513021">
      <g
         id="g9123"
         transform="matrix(0.352778,0,0,0.352778,-0.275608,-6.6143e-4)"
         style="stroke-width:0.513021">
        <g
           clip-path="url(#clipPath3453)"
           clip-rule="nonzero"
           id="g9121"
           style="stroke-width:0.298002">
          <g
             style="fill:#000000;fill-opacity:1;stroke-width:0.513021"
             id="g9119">
            <g
               id="g9117"
               transform="translate(0,11.955)"
               style="stroke-width:0.513021">
              <path
                 style="stroke:none;stroke-width:0.513021"
                 d="M 3.984375,-11.515625 C 4,-11.59375 4.03125,-11.6875 4.03125,-11.78125 c 0,-0.171875 -0.171875,-0.171875 -0.203125,-0.171875 -0.015625,0 -0.640625,0.0625 -0.953125,0.09375 -0.296875,0.01563 -0.546875,0.04687 -0.859375,0.0625 -0.421875,0.03125 -0.53125,0.04687 -0.53125,0.359375 0,0.171875 0.171875,0.171875 0.34375,0.171875 0.875,0 0.875,0.15625 0.875,0.328125 0,0.125 -0.140625,0.625 -0.203125,0.9375 L 2.078125,-8.34375 C 1.90625,-7.65625 0.9375,-3.75 0.859375,-3.4375 0.78125,-3.015625 0.78125,-2.71875 0.78125,-2.5 c 0,1.765625 0.96875,2.671875 2.09375,2.671875 2,0 4.0625,-2.5625 4.0625,-5.0625 0,-1.578125 -0.890625,-2.703125 -2.1875,-2.703125 -0.890625,0 -1.703125,0.734375 -2.03125,1.078125 z m -1.09375,11.34375 c -0.546875,0 -1.15625,-0.40625 -1.15625,-1.75 0,-0.578125 0.0625,-0.90625 0.359375,-2.109375 C 2.15625,-4.25 2.421875,-5.359375 2.5,-5.578125 2.53125,-5.71875 3.546875,-7.25 4.71875,-7.25 c 0.75,0 1.09375,0.765625 1.09375,1.65625 0,0.828125 -0.46875,2.765625 -0.90625,3.671875 -0.421875,0.921875 -1.21875,1.75 -2.015625,1.75 z m 0,0"
                 id="path9115" />
            </g>
          </g>
        </g>
      </g>
    </g>
    <g
       inkscape:label=""
       transform="matrix(1.9472944,0,0,1.9511886,-84.961139,1.7561922)"
       id="g9219"
       style="stroke-width:0.513021">
      <g
         id="g9217"
         transform="matrix(0.352778,0,0,0.352778,-0.242535,0.0641173)"
         style="stroke-width:0.513021">
        <g
           clip-path="url(#clipPath6748)"
           clip-rule="nonzero"
           id="g9215"
           style="stroke-width:0.298002">
          <g
             style="fill:#000000;fill-opacity:1;stroke-width:0.513021"
             id="g9213">
            <g
               id="g9211"
               transform="translate(0,7.4120002)"
               style="stroke-width:0.513021">
              <path
                 style="stroke:none;stroke-width:0.513021"
                 d="m 6.734375,-6.46875 c -0.328125,0 -0.484375,0 -0.71875,0.203125 -0.109375,0.078125 -0.296875,0.34375 -0.296875,0.625 0,0.34375 0.25,0.546875 0.578125,0.546875 0.421875,0 0.890625,-0.34375 0.890625,-1.03125 0,-0.828125 -0.796875,-1.46875 -1.984375,-1.46875 -2.265625,0 -4.515625,2.46875 -4.515625,4.90625 0,1.5 0.9375,2.859375 2.6875,2.859375 2.34375,0 3.828125,-1.828125 3.828125,-2.046875 0,-0.109375 -0.109375,-0.1875 -0.171875,-0.1875 -0.0625,0 -0.078125,0.015625 -0.234375,0.171875 -1.09375,1.453125 -2.734375,1.71875 -3.390625,1.71875 -1.1875,0 -1.5625,-1.03125 -1.5625,-1.890625 0,-0.609375 0.296875,-2.28125 0.90625,-3.453125 C 3.203125,-6.3125 4.125,-7.25 5.21875,-7.25 c 0.21875,0 1.171875,0.03125 1.515625,0.78125 z m 0,0"
                 id="path9209" />
            </g>
          </g>
        </g>
      </g>
    </g>
    <g
       inkscape:label=""
       transform="matrix(1.9472944,0,0,1.9511886,51.834234,-0.24775005)"
       id="g9329"
       style="stroke-width:0.513021">
      <g
         id="g9327"
         transform="matrix(0.352778,0,0,0.352778,-0.248047,0.0980722)"
         style="stroke-width:0.513021">
        <g
           clip-path="url(#clipPath5562)"
           clip-rule="nonzero"
           id="g9325"
           style="stroke-width:0.298002">
          <g
             style="fill:#000000;fill-opacity:1;stroke-width:0.513021"
             id="g9323">
            <g
               id="g9321"
               transform="translate(0,11.097)"
               style="stroke-width:0.513021">
              <path
                 style="stroke:none;stroke-width:0.513021"
                 d="M 7.1875,-2.671875 H 6.875 c -0.171875,1.21875 -0.3125,1.4375 -0.390625,1.53125 C 6.40625,-1 5.171875,-1 4.921875,-1 H 1.625 c 0.609375,-0.671875 1.8125,-1.890625 3.28125,-3.3125 1.046875,-0.984375 2.28125,-2.15625 2.28125,-3.859375 0,-2.03125 -1.625,-3.203125 -3.4375,-3.203125 -1.890625,0 -3.046875,1.65625 -3.046875,3.21875 0,0.671875 0.5,0.75 0.703125,0.75 0.171875,0 0.6875,-0.09375 0.6875,-0.703125 0,-0.53125 -0.4375,-0.6875 -0.6875,-0.6875 -0.09375,0 -0.203125,0.015625 -0.265625,0.046875 0.328125,-1.453125 1.328125,-2.1875 2.375,-2.1875 1.5,0 2.46875,1.1875 2.46875,2.765625 0,1.484375 -0.875,2.78125 -1.859375,3.90625 l -3.421875,3.875 V 0 h 6.0625 z m 0,0"
                 id="path9319" />
            </g>
          </g>
        </g>
      </g>
    </g>
    <g
       inkscape:label=""
       transform="matrix(1.9472944,0,0,1.9511886,51.400352,-52.396537)"
       id="g9455"
       style="stroke-width:0.513021">
      <g
         id="g9453"
         transform="matrix(0.352778,0,0,0.352778,-0.529167,0.0980722)"
         style="stroke-width:0.513021">
        <g
           clip-path="url(#clipPath3897)"
           clip-rule="nonzero"
           id="g9451"
           style="stroke-width:0.298002">
          <g
             style="fill:#000000;fill-opacity:1;stroke-width:0.513021"
             id="g9449">
            <g
               id="g9447"
               transform="translate(0,11.097)"
               style="stroke-width:0.513021">
              <path
                 style="stroke:none;stroke-width:0.513021"
                 d="m 4.578125,-11 c 0,-0.359375 -0.015625,-0.375 -0.25,-0.375 -0.671875,0.796875 -1.6875,1.0625 -2.65625,1.09375 -0.046875,0 -0.140625,0 -0.15625,0.03125 C 1.5,-10.203125 1.5,-10.171875 1.5,-9.8125 c 0.53125,0 1.421875,-0.109375 2.109375,-0.515625 V -1.25 c 0,0.59375 -0.03125,0.796875 -1.515625,0.796875 H 1.578125 V 0 c 0.828125,-0.015625 1.6875,-0.03125 2.515625,-0.03125 0.828125,0 1.6875,0.015625 2.515625,0.03125 V -0.453125 H 6.09375 c -1.484375,0 -1.515625,-0.1875 -1.515625,-0.796875 z m 0,0"
                 id="path9445" />
            </g>
          </g>
        </g>
      </g>
    </g>
    <g
       inkscape:label=""
       transform="matrix(2.3964961,0,0,2.4012886,-37.976326,39.822943)"
       id="g10425"
       style="stroke-width:0.416859">
      <g
         id="g10423"
         transform="matrix(0.352778,0,0,0.352778,-0.545703,-0.00224907)"
         style="stroke-width:0.416859">
        <g
           clip-path="url(#clipPath7652)"
           clip-rule="nonzero"
           id="g40"
           style="stroke-width:0.338723">
          <g
             style="fill:#000000;fill-opacity:1;stroke-width:0.416859"
             id="g38">
            <g
               id="use36"
               transform="translate(0,12.897)"
               style="stroke-width:0.416859">
              <path
                 style="stroke:none;stroke-width:0.416859"
                 d="m 5.265625,4.203125 c 0,-0.015625 0,-0.046875 -0.046875,-0.109375 -0.796875,-0.8125 -2.90625,-3.015625 -2.90625,-8.375 0,-5.375 2.078125,-7.5625 2.921875,-8.421875 0,-0.01563 0.03125,-0.0625 0.03125,-0.109375 0,-0.04687 -0.046875,-0.07813 -0.125,-0.07813 -0.1875,0 -1.640625,1.265625 -2.484375,3.15625 -0.859375,1.921875 -1.109375,3.78125 -1.109375,5.421875 0,1.25 0.125,3.34375 1.15625,5.5625 0.828125,1.796875 2.234375,3.0625 2.4375,3.0625 0.09375,0 0.125,-0.046875 0.125,-0.109375 z m 0,0"
                 id="path67" />
            </g>
          </g>
        </g>
        <g
           style="fill:#000000;fill-opacity:1;stroke-width:0.416859"
           id="g44">
          <g
             id="use42"
             transform="translate(6.0970001,12.897)"
             style="stroke-width:0.416859">
            <path
               style="stroke:none;stroke-width:0.416859"
               d="M 5.1875,-2.046875 C 5.09375,-1.75 5.09375,-1.71875 4.859375,-1.390625 c -0.375,0.484375 -1.140625,1.21875 -1.953125,1.21875 -0.703125,0 -1.09375,-0.640625 -1.09375,-1.65625 0,-0.9375 0.53125,-2.875 0.859375,-3.59375 C 3.25,-6.625 4.0625,-7.25 4.734375,-7.25 c 1.140625,0 1.359375,1.40625 1.359375,1.546875 0,0.015625 -0.046875,0.25 -0.0625,0.28125 z m 1.09375,-4.40625 C 6.09375,-6.90625 5.625,-7.59375 4.734375,-7.59375 c -1.9375,0 -4.046875,2.515625 -4.046875,5.0625 0,1.703125 1,2.703125 2.171875,2.703125 0.953125,0 1.75,-0.734375 2.234375,-1.3125 0.171875,1.015625 0.984375,1.3125 1.5,1.3125 0.515625,0 0.9375,-0.3125 1.234375,-0.921875 C 8.109375,-1.34375 8.34375,-2.390625 8.34375,-2.46875 8.34375,-2.546875 8.28125,-2.625 8.171875,-2.625 8.03125,-2.625 8,-2.53125 7.9375,-2.265625 7.671875,-1.25 7.359375,-0.171875 6.640625,-0.171875 c -0.5,0 -0.53125,-0.453125 -0.53125,-0.796875 0,-0.390625 0.0625,-0.578125 0.203125,-1.25 0.125,-0.4375 0.21875,-0.8125 0.34375,-1.3125 0.640625,-2.578125 0.796875,-3.203125 0.796875,-3.296875 0,-0.25 -0.1875,-0.4375 -0.4375,-0.4375 -0.5625,0 -0.703125,0.609375 -0.734375,0.8125 z m 0,0"
               id="path71" />
          </g>
        </g>
        <g
           style="fill:#000000;fill-opacity:1;stroke-width:0.416859"
           id="g48">
          <g
             id="use46"
             transform="translate(20.144766,12.897)"
             style="stroke-width:0.416859">
            <path
               style="stroke:none;stroke-width:0.416859"
               d="M 3.984375,-11.515625 C 4,-11.59375 4.03125,-11.6875 4.03125,-11.78125 c 0,-0.171875 -0.171875,-0.171875 -0.203125,-0.171875 -0.015625,0 -0.640625,0.0625 -0.953125,0.09375 -0.296875,0.01563 -0.546875,0.04687 -0.859375,0.0625 -0.421875,0.03125 -0.53125,0.04687 -0.53125,0.359375 0,0.171875 0.171875,0.171875 0.34375,0.171875 0.875,0 0.875,0.15625 0.875,0.328125 0,0.125 -0.140625,0.625 -0.203125,0.9375 L 2.078125,-8.34375 C 1.90625,-7.65625 0.9375,-3.75 0.859375,-3.4375 0.78125,-3.015625 0.78125,-2.71875 0.78125,-2.5 c 0,1.765625 0.96875,2.671875 2.09375,2.671875 2,0 4.0625,-2.5625 4.0625,-5.0625 0,-1.578125 -0.890625,-2.703125 -2.1875,-2.703125 -0.890625,0 -1.703125,0.734375 -2.03125,1.078125 z m -1.09375,11.34375 c -0.546875,0 -1.15625,-0.40625 -1.15625,-1.75 0,-0.578125 0.0625,-0.90625 0.359375,-2.109375 C 2.15625,-4.25 2.421875,-5.359375 2.5,-5.578125 2.53125,-5.71875 3.546875,-7.25 4.71875,-7.25 c 0.75,0 1.09375,0.765625 1.09375,1.65625 0,0.828125 -0.46875,2.765625 -0.90625,3.671875 -0.421875,0.921875 -1.21875,1.75 -2.015625,1.75 z m 0,0"
               id="path75" />
          </g>
        </g>
        <g
           clip-path="url(#clipPath4030)"
           clip-rule="nonzero"
           id="g54"
           style="stroke-width:0.338723">
          <g
             style="fill:#000000;fill-opacity:1;stroke-width:0.416859"
             id="g52">
            <g
               id="use50"
               transform="translate(27.309,12.897)"
               style="stroke-width:0.416859">
              <path
                 style="stroke:none;stroke-width:0.416859"
                 d="m 4.53125,-4.28125 c 0,-1.25 -0.125,-3.34375 -1.15625,-5.5625 -0.828125,-1.796875 -2.234375,-3.046875 -2.4375,-3.046875 -0.0625,0 -0.125,0.01563 -0.125,0.09375 0,0.03125 0.015625,0.0625 0.03125,0.09375 0.828125,0.859375 2.921875,3.046875 2.921875,8.390625 0,5.375 -2.078125,7.5625 -2.921875,8.421875 C 0.828125,4.15625 0.8125,4.171875 0.8125,4.203125 0.8125,4.28125 0.875,4.3125 0.9375,4.3125 1.125,4.3125 2.578125,3.03125 3.421875,1.140625 4.28125,-0.78125 4.53125,-2.640625 4.53125,-4.28125 Z m 0,0"
                 id="path79" />
            </g>
          </g>
        </g>
        <g
           clip-path="url(#clipPath6591)"
           clip-rule="nonzero"
           id="g60"
           style="stroke-width:0.338723">
          <g
             style="fill:#000000;fill-opacity:1;stroke-width:0.416859"
             id="g58">
            <g
               id="use56"
               transform="translate(38.603001,12.897)"
               style="stroke-width:0.416859">
              <path
                 style="stroke:none;stroke-width:0.416859"
                 d="m 6.734375,-6.46875 c -0.328125,0 -0.484375,0 -0.71875,0.203125 -0.109375,0.078125 -0.296875,0.34375 -0.296875,0.625 0,0.34375 0.25,0.546875 0.578125,0.546875 0.421875,0 0.890625,-0.34375 0.890625,-1.03125 0,-0.828125 -0.796875,-1.46875 -1.984375,-1.46875 -2.265625,0 -4.515625,2.46875 -4.515625,4.90625 0,1.5 0.9375,2.859375 2.6875,2.859375 2.34375,0 3.828125,-1.828125 3.828125,-2.046875 0,-0.109375 -0.109375,-0.1875 -0.171875,-0.1875 -0.0625,0 -0.078125,0.015625 -0.234375,0.171875 -1.09375,1.453125 -2.734375,1.71875 -3.390625,1.71875 -1.1875,0 -1.5625,-1.03125 -1.5625,-1.890625 0,-0.609375 0.296875,-2.28125 0.90625,-3.453125 C 3.203125,-6.3125 4.125,-7.25 5.21875,-7.25 c 0.21875,0 1.171875,0.03125 1.515625,0.78125 z m 0,0"
                 id="path83" />
            </g>
          </g>
        </g>
      </g>
    </g>
    <ellipse
       style="font-variation-settings:normal;opacity:1;vector-effect:none;fill:#f0f00e;fill-opacity:1;fill-rule:evenodd;stroke:#4d4d4d;stroke-width:0.5;stroke-linecap:butt;stroke-linejoin:miter;stroke-miterlimit:4;stroke-dasharray:none;stroke-dashoffset:0;stroke-opacity:1;-inkscape-stroke:none;paint-order:fill stroke markers;stop-color:#000000;stop-opacity:1"
       id="ellipse10832"
       cx="128.83447"
       cy="-22.201036"
       rx="29.484989"
       ry="52.569332" />
    <ellipse
       style="font-variation-settings:normal;opacity:1;vector-effect:none;fill:#ffb380;fill-opacity:1;fill-rule:evenodd;stroke:#4d4d4d;stroke-width:0.5;stroke-linecap:butt;stroke-linejoin:miter;stroke-miterlimit:4;stroke-dasharray:none;stroke-dashoffset:0;stroke-opacity:1;-inkscape-stroke:none;paint-order:fill stroke markers;stop-color:#000000;stop-opacity:1"
       id="ellipse10834"
       cx="254.81522"
       cy="-22.201036"
       rx="29.484989"
       ry="52.569332" />
    <g
       id="path10836">
      <path
         style="color:#000000;fill:#000000;-inkscape-stroke:none"
         d="m 130.78906,-52.507812 -0.0156,0.464843 61.5664,1.96875 60.52149,1.933594 0.0137,-0.464844 -60.51953,-1.933593 z"
         id="path508" />
      <g
         id="g498">
        <g
           id="path500">
          <path
             style="color:#000000;fill:#000000;fill-rule:evenodd;stroke-width:0.2325pt;-inkscape-stroke:none"
             d="m 193.74167,-50.262272 c -0.70457,0.210098 -1.64895,0.645149 -2.12857,1.095056 0,0 0.0297,-0.929525 0.5019,-1.147051 -0.45734,-0.247237 -0.42762,-1.176762 -0.42762,-1.176762 0.4499,0.479618 1.36457,0.974092 2.05429,1.228757 z"
             id="path504" />
          <path
             style="color:#000000;fill:#000000;fill-rule:evenodd;-inkscape-stroke:none"
             d="m 191.54492,-51.869141 -0.0117,0.373047 c 0,0 -0.008,0.246898 0.0449,0.529297 0.0439,0.232143 0.1858,0.468 0.38086,0.648438 -0.20521,0.167685 -0.36342,0.392758 -0.42187,0.621093 -0.0713,0.278416 -0.0781,0.525391 -0.0781,0.525391 l -0.0137,0.373047 0.27344,-0.255859 c 0.44194,-0.414559 1.38164,-0.854402 2.06641,-1.058594 l 0.44726,-0.132813 -0.4375,-0.162109 c -0.67033,-0.247506 -1.57959,-0.747519 -1.99414,-1.189453 z m 0.32227,0.660157 c 0.43864,0.373878 1.00734,0.705124 1.5625,0.9375 -0.5695,0.196747 -1.15957,0.490371 -1.6211,0.835937 0.0103,-0.07697 0.004,-0.08816 0.0293,-0.185547 0.0616,-0.240728 0.18078,-0.478559 0.3418,-0.552734 l 0.28125,-0.128906 -0.27149,-0.148438 c -0.15595,-0.08431 -0.26051,-0.328093 -0.30664,-0.572265 -0.0185,-0.09784 -0.0102,-0.108499 -0.0156,-0.185547 z"
             id="path506" />
        </g>
      </g>
    </g>
    <ellipse
       id="circle10842"
       style="fill:#0000ff;stroke:none;stroke-width:0.264582"
       cx="128.83447"
       cy="-52.274731"
       rx="1.9472944"
       ry="1.9511886" />
    <g
       inkscape:label=""
       transform="matrix(1.9472944,0,0,1.9511886,121.33481,-55.796162)"
       id="g10862"
       style="stroke-width:0.513021">
      <g
         id="g10860"
         transform="matrix(0.352778,0,0,0.352778,-0.242535,0.0641173)"
         style="stroke-width:0.513021">
        <g
           clip-path="url(#clipPath3254)"
           clip-rule="nonzero"
           id="g10858"
           style="stroke-width:0.298002">
          <g
             style="fill:#000000;fill-opacity:1;stroke-width:0.513021"
             id="g10856">
            <g
               id="g10854"
               transform="translate(0,7.4120002)"
               style="stroke-width:0.513021">
              <path
                 style="stroke:none;stroke-width:0.513021"
                 d="M 5.1875,-2.046875 C 5.09375,-1.75 5.09375,-1.71875 4.859375,-1.390625 c -0.375,0.484375 -1.140625,1.21875 -1.953125,1.21875 -0.703125,0 -1.09375,-0.640625 -1.09375,-1.65625 0,-0.9375 0.53125,-2.875 0.859375,-3.59375 C 3.25,-6.625 4.0625,-7.25 4.734375,-7.25 c 1.140625,0 1.359375,1.40625 1.359375,1.546875 0,0.015625 -0.046875,0.25 -0.0625,0.28125 z m 1.09375,-4.40625 C 6.09375,-6.90625 5.625,-7.59375 4.734375,-7.59375 c -1.9375,0 -4.046875,2.515625 -4.046875,5.0625 0,1.703125 1,2.703125 2.171875,2.703125 0.953125,0 1.75,-0.734375 2.234375,-1.3125 0.171875,1.015625 0.984375,1.3125 1.5,1.3125 0.515625,0 0.9375,-0.3125 1.234375,-0.921875 C 8.109375,-1.34375 8.34375,-2.390625 8.34375,-2.46875 8.34375,-2.546875 8.28125,-2.625 8.171875,-2.625 8.03125,-2.625 8,-2.53125 7.9375,-2.265625 7.671875,-1.25 7.359375,-0.171875 6.640625,-0.171875 c -0.5,0 -0.53125,-0.453125 -0.53125,-0.796875 0,-0.390625 0.0625,-0.578125 0.203125,-1.25 0.125,-0.4375 0.21875,-0.8125 0.34375,-1.3125 0.640625,-2.578125 0.796875,-3.203125 0.796875,-3.296875 0,-0.25 -0.1875,-0.4375 -0.4375,-0.4375 -0.5625,0 -0.703125,0.609375 -0.734375,0.8125 z m 0,0"
                 id="path10852" />
            </g>
          </g>
        </g>
      </g>
    </g>
    <g
       inkscape:label=""
       transform="matrix(1.9472944,0,0,1.9511886,121.19772,-29.413379)"
       id="g10874"
       style="stroke-width:0.513021">
      <g
         id="g10872"
         transform="matrix(0.352778,0,0,0.352778,-0.275608,-6.6143e-4)"
         style="stroke-width:0.513021">
        <g
           clip-path="url(#clipPath3453)"
           clip-rule="nonzero"
           id="g10870"
           style="stroke-width:0.298002">
          <g
             style="fill:#000000;fill-opacity:1;stroke-width:0.513021"
             id="g10868">
            <g
               id="g10866"
               transform="translate(0,11.955)"
               style="stroke-width:0.513021">
              <path
                 style="stroke:none;stroke-width:0.513021"
                 d="M 3.984375,-11.515625 C 4,-11.59375 4.03125,-11.6875 4.03125,-11.78125 c 0,-0.171875 -0.171875,-0.171875 -0.203125,-0.171875 -0.015625,0 -0.640625,0.0625 -0.953125,0.09375 -0.296875,0.01563 -0.546875,0.04687 -0.859375,0.0625 -0.421875,0.03125 -0.53125,0.04687 -0.53125,0.359375 0,0.171875 0.171875,0.171875 0.34375,0.171875 0.875,0 0.875,0.15625 0.875,0.328125 0,0.125 -0.140625,0.625 -0.203125,0.9375 L 2.078125,-8.34375 C 1.90625,-7.65625 0.9375,-3.75 0.859375,-3.4375 0.78125,-3.015625 0.78125,-2.71875 0.78125,-2.5 c 0,1.765625 0.96875,2.671875 2.09375,2.671875 2,0 4.0625,-2.5625 4.0625,-5.0625 0,-1.578125 -0.890625,-2.703125 -2.1875,-2.703125 -0.890625,0 -1.703125,0.734375 -2.03125,1.078125 z m -1.09375,11.34375 c -0.546875,0 -1.15625,-0.40625 -1.15625,-1.75 0,-0.578125 0.0625,-0.90625 0.359375,-2.109375 C 2.15625,-4.25 2.421875,-5.359375 2.5,-5.578125 2.53125,-5.71875 3.546875,-7.25 4.71875,-7.25 c 0.75,0 1.09375,0.765625 1.09375,1.65625 0,0.828125 -0.46875,2.765625 -0.90625,3.671875 -0.421875,0.921875 -1.21875,1.75 -2.015625,1.75 z m 0,0"
                 id="path10864" />
            </g>
          </g>
        </g>
      </g>
    </g>
    <g
       inkscape:label=""
       transform="matrix(1.9472944,0,0,1.9511886,121.10477,1.7561922)"
       id="g10886"
       style="stroke-width:0.513021">
      <g
         id="g10884"
         transform="matrix(0.352778,0,0,0.352778,-0.242535,0.0641173)"
         style="stroke-width:0.513021">
        <g
           clip-path="url(#clipPath6748)"
           clip-rule="nonzero"
           id="g10882"
           style="stroke-width:0.298002">
          <g
             style="fill:#000000;fill-opacity:1;stroke-width:0.513021"
             id="g10880">
            <g
               id="g10878"
               transform="translate(0,7.4120002)"
               style="stroke-width:0.513021">
              <path
                 style="stroke:none;stroke-width:0.513021"
                 d="m 6.734375,-6.46875 c -0.328125,0 -0.484375,0 -0.71875,0.203125 -0.109375,0.078125 -0.296875,0.34375 -0.296875,0.625 0,0.34375 0.25,0.546875 0.578125,0.546875 0.421875,0 0.890625,-0.34375 0.890625,-1.03125 0,-0.828125 -0.796875,-1.46875 -1.984375,-1.46875 -2.265625,0 -4.515625,2.46875 -4.515625,4.90625 0,1.5 0.9375,2.859375 2.6875,2.859375 2.34375,0 3.828125,-1.828125 3.828125,-2.046875 0,-0.109375 -0.109375,-0.1875 -0.171875,-0.1875 -0.0625,0 -0.078125,0.015625 -0.234375,0.171875 -1.09375,1.453125 -2.734375,1.71875 -3.390625,1.71875 -1.1875,0 -1.5625,-1.03125 -1.5625,-1.890625 0,-0.609375 0.296875,-2.28125 0.90625,-3.453125 C 3.203125,-6.3125 4.125,-7.25 5.21875,-7.25 c 0.21875,0 1.171875,0.03125 1.515625,0.78125 z m 0,0"
                 id="path10876" />
            </g>
          </g>
        </g>
      </g>
    </g>
    <g
       inkscape:label=""
       transform="matrix(2.3964961,0,0,2.4012886,167.28375,36.025349)"
       id="g10950"
       style="stroke-width:0.416859" />
    <g
       inkscape:label=""
       transform="matrix(2.4061524,0,0,2.401289,173.11579,39.813627)"
       id="g11619"
       style="font-variation-settings:normal;opacity:1;vector-effect:none;fill:#000000;fill-opacity:1;stroke-width:0.416022;stroke-linecap:butt;stroke-linejoin:miter;stroke-miterlimit:4;stroke-dasharray:none;stroke-dashoffset:0;stroke-opacity:1;-inkscape-stroke:none;stop-color:#000000;stop-opacity:1">
      <g
         id="g11617"
         transform="matrix(0.352778,0,0,0.352778,-0.545703,-0.00224907)"
         style="font-variation-settings:normal;vector-effect:none;fill:#000000;fill-opacity:1;stroke-width:1.17928;stroke-linecap:butt;stroke-linejoin:miter;stroke-miterlimit:4;stroke-dasharray:none;stroke-dashoffset:0;stroke-opacity:1;-inkscape-stroke:none;stop-color:#000000;stop-opacity:1">
        <g
           clip-path="url(#clipPath4903)"
           clip-rule="nonzero"
           id="g11587"
           style="font-variation-settings:normal;vector-effect:none;fill:#000000;fill-opacity:1;stroke-width:1.17928;stroke-linecap:butt;stroke-linejoin:miter;stroke-miterlimit:4;stroke-dasharray:none;stroke-dashoffset:0;stroke-opacity:1;-inkscape-stroke:none;stop-color:#000000;stop-opacity:1">
          <g
             style="font-variation-settings:normal;vector-effect:none;fill:#000000;fill-opacity:1;stroke-width:1.17928;stroke-linecap:butt;stroke-linejoin:miter;stroke-miterlimit:4;stroke-dasharray:none;stroke-dashoffset:0;stroke-opacity:1;-inkscape-stroke:none;stop-color:#000000;stop-opacity:1"
             id="g11585">
            <g
               id="g11583"
               transform="translate(0,12.897)"
               style="font-variation-settings:normal;vector-effect:none;fill:#000000;fill-opacity:1;stroke-width:1.17928;stroke-linecap:butt;stroke-linejoin:miter;stroke-miterlimit:4;stroke-dasharray:none;stroke-dashoffset:0;stroke-opacity:1;-inkscape-stroke:none;stop-color:#000000;stop-opacity:1">
              <path
                 style="font-variation-settings:normal;vector-effect:none;fill:#000000;fill-opacity:1;stroke:none;stroke-width:1.17928;stroke-linecap:butt;stroke-linejoin:miter;stroke-miterlimit:4;stroke-dasharray:none;stroke-dashoffset:0;stroke-opacity:1;-inkscape-stroke:none;stop-color:#000000;stop-opacity:1"
                 d="m 5.265625,4.203125 c 0,-0.015625 0,-0.046875 -0.046875,-0.109375 -0.796875,-0.8125 -2.90625,-3.015625 -2.90625,-8.375 0,-5.375 2.078125,-7.5625 2.921875,-8.421875 0,-0.01563 0.03125,-0.0625 0.03125,-0.109375 0,-0.04687 -0.046875,-0.07813 -0.125,-0.07813 -0.1875,0 -1.640625,1.265625 -2.484375,3.15625 -0.859375,1.921875 -1.109375,3.78125 -1.109375,5.421875 0,1.25 0.125,3.34375 1.15625,5.5625 0.828125,1.796875 2.234375,3.0625 2.4375,3.0625 0.09375,0 0.125,-0.046875 0.125,-0.109375 z m 0,0"
                 id="path11581" />
            </g>
          </g>
        </g>
        <g
           style="font-variation-settings:normal;vector-effect:none;fill:#000000;fill-opacity:1;stroke-width:1.17928;stroke-linecap:butt;stroke-linejoin:miter;stroke-miterlimit:4;stroke-dasharray:none;stroke-dashoffset:0;stroke-opacity:1;-inkscape-stroke:none;stop-color:#000000;stop-opacity:1"
           id="g11593">
          <g
             id="g11591"
             transform="translate(6.0970001,12.897)"
             style="font-variation-settings:normal;vector-effect:none;fill:#000000;fill-opacity:1;stroke-width:1.17928;stroke-linecap:butt;stroke-linejoin:miter;stroke-miterlimit:4;stroke-dasharray:none;stroke-dashoffset:0;stroke-opacity:1;-inkscape-stroke:none;stop-color:#000000;stop-opacity:1">
            <path
               style="font-variation-settings:normal;vector-effect:none;fill:#000000;fill-opacity:1;stroke:none;stroke-width:1.17928;stroke-linecap:butt;stroke-linejoin:miter;stroke-miterlimit:4;stroke-dasharray:none;stroke-dashoffset:0;stroke-opacity:1;-inkscape-stroke:none;stop-color:#000000;stop-opacity:1"
               d="M 5.1875,-2.046875 C 5.09375,-1.75 5.09375,-1.71875 4.859375,-1.390625 c -0.375,0.484375 -1.140625,1.21875 -1.953125,1.21875 -0.703125,0 -1.09375,-0.640625 -1.09375,-1.65625 0,-0.9375 0.53125,-2.875 0.859375,-3.59375 C 3.25,-6.625 4.0625,-7.25 4.734375,-7.25 c 1.140625,0 1.359375,1.40625 1.359375,1.546875 0,0.015625 -0.046875,0.25 -0.0625,0.28125 z m 1.09375,-4.40625 C 6.09375,-6.90625 5.625,-7.59375 4.734375,-7.59375 c -1.9375,0 -4.046875,2.515625 -4.046875,5.0625 0,1.703125 1,2.703125 2.171875,2.703125 0.953125,0 1.75,-0.734375 2.234375,-1.3125 0.171875,1.015625 0.984375,1.3125 1.5,1.3125 0.515625,0 0.9375,-0.3125 1.234375,-0.921875 C 8.109375,-1.34375 8.34375,-2.390625 8.34375,-2.46875 8.34375,-2.546875 8.28125,-2.625 8.171875,-2.625 8.03125,-2.625 8,-2.53125 7.9375,-2.265625 7.671875,-1.25 7.359375,-0.171875 6.640625,-0.171875 c -0.5,0 -0.53125,-0.453125 -0.53125,-0.796875 0,-0.390625 0.0625,-0.578125 0.203125,-1.25 0.125,-0.4375 0.21875,-0.8125 0.34375,-1.3125 0.640625,-2.578125 0.796875,-3.203125 0.796875,-3.296875 0,-0.25 -0.1875,-0.4375 -0.4375,-0.4375 -0.5625,0 -0.703125,0.609375 -0.734375,0.8125 z m 0,0"
               id="path11589" />
          </g>
        </g>
        <g
           style="font-variation-settings:normal;vector-effect:none;fill:#000000;fill-opacity:1;stroke-width:1.17928;stroke-linecap:butt;stroke-linejoin:miter;stroke-miterlimit:4;stroke-dasharray:none;stroke-dashoffset:0;stroke-opacity:1;-inkscape-stroke:none;stop-color:#000000;stop-opacity:1"
           id="g11599">
          <g
             id="g11597"
             transform="translate(20.144766,12.897)"
             style="font-variation-settings:normal;vector-effect:none;fill:#000000;fill-opacity:1;stroke-width:1.17928;stroke-linecap:butt;stroke-linejoin:miter;stroke-miterlimit:4;stroke-dasharray:none;stroke-dashoffset:0;stroke-opacity:1;-inkscape-stroke:none;stop-color:#000000;stop-opacity:1">
            <path
               style="font-variation-settings:normal;vector-effect:none;fill:#000000;fill-opacity:1;stroke:none;stroke-width:1.17928;stroke-linecap:butt;stroke-linejoin:miter;stroke-miterlimit:4;stroke-dasharray:none;stroke-dashoffset:0;stroke-opacity:1;-inkscape-stroke:none;stop-color:#000000;stop-opacity:1"
               d="m 6.734375,-6.46875 c -0.328125,0 -0.484375,0 -0.71875,0.203125 -0.109375,0.078125 -0.296875,0.34375 -0.296875,0.625 0,0.34375 0.25,0.546875 0.578125,0.546875 0.421875,0 0.890625,-0.34375 0.890625,-1.03125 0,-0.828125 -0.796875,-1.46875 -1.984375,-1.46875 -2.265625,0 -4.515625,2.46875 -4.515625,4.90625 0,1.5 0.9375,2.859375 2.6875,2.859375 2.34375,0 3.828125,-1.828125 3.828125,-2.046875 0,-0.109375 -0.109375,-0.1875 -0.171875,-0.1875 -0.0625,0 -0.078125,0.015625 -0.234375,0.171875 -1.09375,1.453125 -2.734375,1.71875 -3.390625,1.71875 -1.1875,0 -1.5625,-1.03125 -1.5625,-1.890625 0,-0.609375 0.296875,-2.28125 0.90625,-3.453125 C 3.203125,-6.3125 4.125,-7.25 5.21875,-7.25 c 0.21875,0 1.171875,0.03125 1.515625,0.78125 z m 0,0"
               id="path11595" />
          </g>
        </g>
        <g
           clip-path="url(#clipPath7910)"
           clip-rule="nonzero"
           id="g11607"
           style="font-variation-settings:normal;vector-effect:none;fill:#000000;fill-opacity:1;stroke-width:1.17928;stroke-linecap:butt;stroke-linejoin:miter;stroke-miterlimit:4;stroke-dasharray:none;stroke-dashoffset:0;stroke-opacity:1;-inkscape-stroke:none;stop-color:#000000;stop-opacity:1">
          <g
             style="font-variation-settings:normal;vector-effect:none;fill:#000000;fill-opacity:1;stroke-width:1.17928;stroke-linecap:butt;stroke-linejoin:miter;stroke-miterlimit:4;stroke-dasharray:none;stroke-dashoffset:0;stroke-opacity:1;-inkscape-stroke:none;stop-color:#000000;stop-opacity:1"
             id="g11605">
            <g
               id="g11603"
               transform="translate(27.396999,12.897)"
               style="font-variation-settings:normal;vector-effect:none;fill:#000000;fill-opacity:1;stroke-width:1.17928;stroke-linecap:butt;stroke-linejoin:miter;stroke-miterlimit:4;stroke-dasharray:none;stroke-dashoffset:0;stroke-opacity:1;-inkscape-stroke:none;stop-color:#000000;stop-opacity:1">
              <path
                 style="font-variation-settings:normal;vector-effect:none;fill:#000000;fill-opacity:1;stroke:none;stroke-width:1.17928;stroke-linecap:butt;stroke-linejoin:miter;stroke-miterlimit:4;stroke-dasharray:none;stroke-dashoffset:0;stroke-opacity:1;-inkscape-stroke:none;stop-color:#000000;stop-opacity:1"
                 d="m 4.53125,-4.28125 c 0,-1.25 -0.125,-3.34375 -1.15625,-5.5625 -0.828125,-1.796875 -2.234375,-3.046875 -2.4375,-3.046875 -0.0625,0 -0.125,0.01563 -0.125,0.09375 0,0.03125 0.015625,0.0625 0.03125,0.09375 0.828125,0.859375 2.921875,3.046875 2.921875,8.390625 0,5.375 -2.078125,7.5625 -2.921875,8.421875 C 0.828125,4.15625 0.8125,4.171875 0.8125,4.203125 0.8125,4.28125 0.875,4.3125 0.9375,4.3125 1.125,4.3125 2.578125,3.03125 3.421875,1.140625 4.28125,-0.78125 4.53125,-2.640625 4.53125,-4.28125 Z m 0,0"
                 id="path11601" />
            </g>
          </g>
        </g>
        <g
           clip-path="url(#clipPath6103)"
           clip-rule="nonzero"
           id="g11615"
           style="font-variation-settings:normal;vector-effect:none;fill:#000000;fill-opacity:1;stroke-width:1.17928;stroke-linecap:butt;stroke-linejoin:miter;stroke-miterlimit:4;stroke-dasharray:none;stroke-dashoffset:0;stroke-opacity:1;-inkscape-stroke:none;stop-color:#000000;stop-opacity:1">
          <g
             style="font-variation-settings:normal;vector-effect:none;fill:#000000;fill-opacity:1;stroke-width:1.17928;stroke-linecap:butt;stroke-linejoin:miter;stroke-miterlimit:4;stroke-dasharray:none;stroke-dashoffset:0;stroke-opacity:1;-inkscape-stroke:none;stop-color:#000000;stop-opacity:1"
             id="g11613">
            <g
               id="g11611"
               transform="translate(38.691002,12.897)"
               style="font-variation-settings:normal;vector-effect:none;fill:#000000;fill-opacity:1;stroke-width:1.17928;stroke-linecap:butt;stroke-linejoin:miter;stroke-miterlimit:4;stroke-dasharray:none;stroke-dashoffset:0;stroke-opacity:1;-inkscape-stroke:none;stop-color:#000000;stop-opacity:1">
              <path
                 style="font-variation-settings:normal;vector-effect:none;fill:#000000;fill-opacity:1;stroke:none;stroke-width:1.17928;stroke-linecap:butt;stroke-linejoin:miter;stroke-miterlimit:4;stroke-dasharray:none;stroke-dashoffset:0;stroke-opacity:1;-inkscape-stroke:none;stop-color:#000000;stop-opacity:1"
                 d="M 3.984375,-11.515625 C 4,-11.59375 4.03125,-11.6875 4.03125,-11.78125 c 0,-0.171875 -0.171875,-0.171875 -0.203125,-0.171875 -0.015625,0 -0.640625,0.0625 -0.953125,0.09375 -0.296875,0.01563 -0.546875,0.04687 -0.859375,0.0625 -0.421875,0.03125 -0.53125,0.04687 -0.53125,0.359375 0,0.171875 0.171875,0.171875 0.34375,0.171875 0.875,0 0.875,0.15625 0.875,0.328125 0,0.125 -0.140625,0.625 -0.203125,0.9375 L 2.078125,-8.34375 C 1.90625,-7.65625 0.9375,-3.75 0.859375,-3.4375 0.78125,-3.015625 0.78125,-2.71875 0.78125,-2.5 c 0,1.765625 0.96875,2.671875 2.09375,2.671875 2,0 4.0625,-2.5625 4.0625,-5.0625 0,-1.578125 -0.890625,-2.703125 -2.1875,-2.703125 -0.890625,0 -1.703125,0.734375 -2.03125,1.078125 z m -1.09375,11.34375 c -0.546875,0 -1.15625,-0.40625 -1.15625,-1.75 0,-0.578125 0.0625,-0.90625 0.359375,-2.109375 C 2.15625,-4.25 2.421875,-5.359375 2.5,-5.578125 2.53125,-5.71875 3.546875,-7.25 4.71875,-7.25 c 0.75,0 1.09375,0.765625 1.09375,1.65625 0,0.828125 -0.46875,2.765625 -0.90625,3.671875 -0.421875,0.921875 -1.21875,1.75 -2.015625,1.75 z m 0,0"
                 id="path11609" />
            </g>
          </g>
        </g>
      </g>
    </g>
    <g
       inkscape:label=""
       transform="matrix(2.4212991,0,0,2.401289,412.8736,40.607808)"
       id="g11995"
       style="stroke-width:0.414718">
      <g
         id="g11993"
         transform="matrix(0.352778,0,0,0.352778,-0.545703,-0.00224907)"
         style="stroke-width:0.414718">
        <g
           clip-path="url(#clipPath361)"
           clip-rule="nonzero"
           id="g11963"
           style="stroke-width:0.335253">
          <g
             style="fill:#000000;fill-opacity:1;stroke-width:0.414718"
             id="g11961">
            <g
               id="g11959"
               transform="translate(0,12.897)"
               style="stroke-width:0.414718">
              <path
                 style="stroke:none;stroke-width:0.414718"
                 d="m 5.265625,4.203125 c 0,-0.015625 0,-0.046875 -0.046875,-0.109375 -0.796875,-0.8125 -2.90625,-3.015625 -2.90625,-8.375 0,-5.375 2.078125,-7.5625 2.921875,-8.421875 0,-0.01563 0.03125,-0.0625 0.03125,-0.109375 0,-0.04687 -0.046875,-0.07813 -0.125,-0.07813 -0.1875,0 -1.640625,1.265625 -2.484375,3.15625 -0.859375,1.921875 -1.109375,3.78125 -1.109375,5.421875 0,1.25 0.125,3.34375 1.15625,5.5625 0.828125,1.796875 2.234375,3.0625 2.4375,3.0625 0.09375,0 0.125,-0.046875 0.125,-0.109375 z m 0,0"
                 id="path11957" />
            </g>
          </g>
        </g>
        <g
           style="fill:#000000;fill-opacity:1;stroke-width:0.414718"
           id="g11969">
          <g
             id="g11967"
             transform="translate(6.0970001,12.897)"
             style="stroke-width:0.414718">
            <path
               style="stroke:none;stroke-width:0.414718"
               d="M 3.984375,-11.515625 C 4,-11.59375 4.03125,-11.6875 4.03125,-11.78125 c 0,-0.171875 -0.171875,-0.171875 -0.203125,-0.171875 -0.015625,0 -0.640625,0.0625 -0.953125,0.09375 -0.296875,0.01563 -0.546875,0.04687 -0.859375,0.0625 -0.421875,0.03125 -0.53125,0.04687 -0.53125,0.359375 0,0.171875 0.171875,0.171875 0.34375,0.171875 0.875,0 0.875,0.15625 0.875,0.328125 0,0.125 -0.140625,0.625 -0.203125,0.9375 L 2.078125,-8.34375 C 1.90625,-7.65625 0.9375,-3.75 0.859375,-3.4375 0.78125,-3.015625 0.78125,-2.71875 0.78125,-2.5 c 0,1.765625 0.96875,2.671875 2.09375,2.671875 2,0 4.0625,-2.5625 4.0625,-5.0625 0,-1.578125 -0.890625,-2.703125 -2.1875,-2.703125 -0.890625,0 -1.703125,0.734375 -2.03125,1.078125 z m -1.09375,11.34375 c -0.546875,0 -1.15625,-0.40625 -1.15625,-1.75 0,-0.578125 0.0625,-0.90625 0.359375,-2.109375 C 2.15625,-4.25 2.421875,-5.359375 2.5,-5.578125 2.53125,-5.71875 3.546875,-7.25 4.71875,-7.25 c 0.75,0 1.09375,0.765625 1.09375,1.65625 0,0.828125 -0.46875,2.765625 -0.90625,3.671875 -0.421875,0.921875 -1.21875,1.75 -2.015625,1.75 z m 0,0"
               id="path11965" />
          </g>
        </g>
        <g
           style="fill:#000000;fill-opacity:1;stroke-width:0.414718"
           id="g11975">
          <g
             id="g11973"
             transform="translate(18.462822,12.897)"
             style="stroke-width:0.414718">
            <path
               style="stroke:none;stroke-width:0.414718"
               d="m 6.734375,-6.46875 c -0.328125,0 -0.484375,0 -0.71875,0.203125 -0.109375,0.078125 -0.296875,0.34375 -0.296875,0.625 0,0.34375 0.25,0.546875 0.578125,0.546875 0.421875,0 0.890625,-0.34375 0.890625,-1.03125 0,-0.828125 -0.796875,-1.46875 -1.984375,-1.46875 -2.265625,0 -4.515625,2.46875 -4.515625,4.90625 0,1.5 0.9375,2.859375 2.6875,2.859375 2.34375,0 3.828125,-1.828125 3.828125,-2.046875 0,-0.109375 -0.109375,-0.1875 -0.171875,-0.1875 -0.0625,0 -0.078125,0.015625 -0.234375,0.171875 -1.09375,1.453125 -2.734375,1.71875 -3.390625,1.71875 -1.1875,0 -1.5625,-1.03125 -1.5625,-1.890625 0,-0.609375 0.296875,-2.28125 0.90625,-3.453125 C 3.203125,-6.3125 4.125,-7.25 5.21875,-7.25 c 0.21875,0 1.171875,0.03125 1.515625,0.78125 z m 0,0"
               id="path11971" />
          </g>
        </g>
        <g
           clip-path="url(#clipPath1037)"
           clip-rule="nonzero"
           id="g11983"
           style="stroke-width:0.335253">
          <g
             style="fill:#000000;fill-opacity:1;stroke-width:0.414718"
             id="g11981">
            <g
               id="g11979"
               transform="translate(25.715,12.897)"
               style="stroke-width:0.414718">
              <path
                 style="stroke:none;stroke-width:0.414718"
                 d="m 4.53125,-4.28125 c 0,-1.25 -0.125,-3.34375 -1.15625,-5.5625 -0.828125,-1.796875 -2.234375,-3.046875 -2.4375,-3.046875 -0.0625,0 -0.125,0.01563 -0.125,0.09375 0,0.03125 0.015625,0.0625 0.03125,0.09375 0.828125,0.859375 2.921875,3.046875 2.921875,8.390625 0,5.375 -2.078125,7.5625 -2.921875,8.421875 C 0.828125,4.15625 0.8125,4.171875 0.8125,4.203125 0.8125,4.28125 0.875,4.3125 0.9375,4.3125 1.125,4.3125 2.578125,3.03125 3.421875,1.140625 4.28125,-0.78125 4.53125,-2.640625 4.53125,-4.28125 Z m 0,0"
                 id="path11977" />
            </g>
          </g>
        </g>
        <g
           clip-path="url(#clipPath1801)"
           clip-rule="nonzero"
           id="g11991"
           style="stroke-width:0.335253">
          <g
             style="fill:#000000;fill-opacity:1;stroke-width:0.414718"
             id="g11989">
            <g
               id="g11987"
               transform="translate(37.008999,12.897)"
               style="stroke-width:0.414718">
              <path
                 style="stroke:none;stroke-width:0.414718"
                 d="M 5.1875,-2.046875 C 5.09375,-1.75 5.09375,-1.71875 4.859375,-1.390625 c -0.375,0.484375 -1.140625,1.21875 -1.953125,1.21875 -0.703125,0 -1.09375,-0.640625 -1.09375,-1.65625 0,-0.9375 0.53125,-2.875 0.859375,-3.59375 C 3.25,-6.625 4.0625,-7.25 4.734375,-7.25 c 1.140625,0 1.359375,1.40625 1.359375,1.546875 0,0.015625 -0.046875,0.25 -0.0625,0.28125 z m 1.09375,-4.40625 C 6.09375,-6.90625 5.625,-7.59375 4.734375,-7.59375 c -1.9375,0 -4.046875,2.515625 -4.046875,5.0625 0,1.703125 1,2.703125 2.171875,2.703125 0.953125,0 1.75,-0.734375 2.234375,-1.3125 0.171875,1.015625 0.984375,1.3125 1.5,1.3125 0.515625,0 0.9375,-0.3125 1.234375,-0.921875 C 8.109375,-1.34375 8.34375,-2.390625 8.34375,-2.46875 8.34375,-2.546875 8.28125,-2.625 8.171875,-2.625 8.03125,-2.625 8,-2.53125 7.9375,-2.265625 7.671875,-1.25 7.359375,-0.171875 6.640625,-0.171875 c -0.5,0 -0.53125,-0.453125 -0.53125,-0.796875 0,-0.390625 0.0625,-0.578125 0.203125,-1.25 0.125,-0.4375 0.21875,-0.8125 0.34375,-1.3125 0.640625,-2.578125 0.796875,-3.203125 0.796875,-3.296875 0,-0.25 -0.1875,-0.4375 -0.4375,-0.4375 -0.5625,0 -0.703125,0.609375 -0.734375,0.8125 z m 0,0"
                 id="path11985" />
            </g>
          </g>
        </g>
      </g>
    </g>
    <ellipse
       style="font-variation-settings:normal;opacity:1;vector-effect:none;fill:#f0f00e;fill-opacity:1;fill-rule:evenodd;stroke:#4d4d4d;stroke-width:0.5;stroke-linecap:butt;stroke-linejoin:miter;stroke-miterlimit:4;stroke-dasharray:none;stroke-dashoffset:0;stroke-opacity:1;-inkscape-stroke:none;paint-order:fill stroke markers;stop-color:#000000;stop-opacity:1"
       id="ellipse12402"
       cx="356.81668"
       cy="-20.540422"
       rx="29.484989"
       ry="52.569332" />
    <ellipse
       style="font-variation-settings:normal;opacity:1;vector-effect:none;fill:#ffb380;fill-opacity:1;fill-rule:evenodd;stroke:#4d4d4d;stroke-width:0.5;stroke-linecap:butt;stroke-linejoin:miter;stroke-miterlimit:4;stroke-dasharray:none;stroke-dashoffset:0;stroke-opacity:1;-inkscape-stroke:none;paint-order:fill stroke markers;stop-color:#000000;stop-opacity:1"
       id="ellipse12404"
       cx="482.79736"
       cy="-20.540422"
       rx="29.484989"
       ry="52.569332" />
    <g
       id="path12408">
      <path
         style="color:#000000;fill:#000000;-inkscape-stroke:none"
         d="m 482.75391,-46.939453 -62.42774,11.998047 -63.55273,12.220703 0.0879,0.457031 63.55273,-12.220703 62.42774,-12 z"
         id="path550" />
      <g
         id="g540">
        <g
           id="path542">
          <path
             style="color:#000000;fill:#000000;fill-rule:evenodd;stroke-width:0.2325pt;-inkscape-stroke:none"
             d="m 421.74083,-34.976911 c -0.64106,0.360003 -1.46654,0.99222 -1.83539,1.536648 0,0 -0.17558,-0.913276 0.23716,-1.229384 -0.50053,-0.140529 -0.67611,-1.053805 -0.67611,-1.053805 0.54443,0.368848 1.54549,0.649907 2.27434,0.746541 z"
             id="path546" />
          <path
             style="color:#000000;fill:#000000;fill-rule:evenodd;-inkscape-stroke:none"
             d="m 419.24414,-36.0625 0.0703,0.369141 c 0,0 0.046,0.242125 0.16016,0.505859 0.0935,0.215997 0.2852,0.413431 0.51367,0.546875 -0.16361,0.208785 -0.26666,0.463428 -0.27344,0.699219 -0.008,0.287275 0.0391,0.53125 0.0391,0.53125 l 0.0703,0.367187 0.20898,-0.310547 c 0.33987,-0.501654 1.16017,-1.138398 1.78321,-1.488281 l 0.40625,-0.228515 -0.46094,-0.06055 c -0.70836,-0.09392 -1.70733,-0.380835 -2.20899,-0.720703 z m 0.45898,0.574219 c 0.50981,0.268035 1.13801,0.465728 1.73047,0.570312 -0.51211,0.317139 -1.02222,0.73329 -1.39648,1.171875 -0.007,-0.07695 -0.0165,-0.086 -0.0137,-0.185547 0.007,-0.248389 0.0722,-0.507445 0.21289,-0.615234 l 0.24609,-0.1875 -0.29883,-0.08398 c -0.17067,-0.04792 -0.32509,-0.264153 -0.42382,-0.492188 -0.0398,-0.09182 -0.0344,-0.103549 -0.0566,-0.177734 z"
             id="path548" />
        </g>
      </g>
    </g>
    <g
       id="path12510">
      <path
         style="color:#000000;fill:#000000;-inkscape-stroke:none"
         d="m 254.72656,-48.587891 -62.60547,26.011719 -63.375,26.3320314 0.17774,0.4296875 63.375,-26.3320309 62.60547,-26.011719 z"
         id="path494" />
      <g
         id="g484">
        <g
           id="path486">
          <path
             style="color:#000000;fill:#000000;fill-rule:evenodd;stroke-width:0.2325pt;-inkscape-stroke:none"
             d="m 193.4979,-22.896163 c -0.55491,0.482324 -1.23532,1.26856 -1.48632,1.876384 0,0 -0.35682,-0.858823 -0.0166,-1.251941 -0.51861,-0.03629 -0.87544,-0.895116 -0.87544,-0.895116 0.60783,0.250999 1.64506,0.323586 2.37838,0.270673 z"
             id="path490" />
          <path
             style="color:#000000;fill:#000000;fill-rule:evenodd;-inkscape-stroke:none"
             d="m 190.83203,-23.453125 0.14453,0.345703 c 0,0 0.0945,0.227733 0.25977,0.462891 0.13538,0.192689 0.36233,0.3473 0.61328,0.43164 -0.1188,0.237888 -0.16813,0.509416 -0.12695,0.742188 0.0501,0.282999 0.14648,0.509766 0.14648,0.509766 l 0.14258,0.345703 0.14258,-0.345703 c 0.23128,-0.560069 0.906,-1.349594 1.44531,-1.81836 l -0.0898,0.03516 -0.0117,-0.30664 h -0.0117 c -0.71271,0.05143 -1.74852,-0.02849 -2.3086,-0.259766 z m 0.56641,0.46875 c 0.55343,0.159488 1.2089,0.224489 1.81054,0.207031 -0.43699,0.414007 -0.85122,0.926727 -1.1289,1.431641 -0.0224,-0.07427 -0.0333,-0.0809 -0.0508,-0.179688 -0.0433,-0.244691 -0.034,-0.51048 0.082,-0.644531 l 0.20312,-0.234375 -0.30859,-0.02148 c -0.17684,-0.01237 -0.37277,-0.193157 -0.51563,-0.396485 -0.0573,-0.08156 -0.055,-0.09412 -0.0918,-0.162109 z m 2.09961,0.240234 c 0.002,-1.3e-4 0.004,0.0021 0.006,0.002 l -0.006,0.002 z"
             id="path492" />
        </g>
      </g>
    </g>
    <g
       id="path12558">
      <path
         style="color:#000000;fill:#000000;-inkscape-stroke:none"
         d="m 128.88477,-24.378906 -0.10157,0.453125 64.0625,14.300781 61.91797,13.8222656 0.10156,-0.453125 -61.91796,-13.8222656 z"
         id="path480" />
      <g
         id="g470">
        <g
           id="path472">
          <path
             style="color:#000000;fill:#000000;fill-rule:evenodd;stroke-width:0.2325pt;-inkscape-stroke:none"
             d="m 194.25792,-9.5478385 c -0.7314,0.074953 -1.74037,0.3261677 -2.2955,0.6786899 0,0 0.20261,-0.9076601 0.70709,-1.0332673 -0.40317,-0.3282231 -0.20056,-1.2358831 -0.20056,-1.2358831 0.35253,0.555138 1.15888,1.2115837 1.78897,1.5904605 z"
             id="path476" />
          <path
             style="color:#000000;fill:#000000;fill-rule:evenodd;-inkscape-stroke:none"
             d="m 192.39844,-11.537109 -0.0801,0.365234 c 0,0 -0.0544,0.239951 -0.0547,0.527344 -2.2e-4,0.236076 0.0962,0.495375 0.25391,0.7089841 -0.23308,0.1264029 -0.43118,0.31773 -0.53125,0.53125 -0.12197,0.2602281 -0.17578,0.5019532 -0.17578,0.5019531 l -0.0801,0.3652344 0.31445,-0.2011719 c 0.51151,-0.3248239 1.51768,-0.5834039 2.22852,-0.65625 l 0.46289,-0.046875 -0.39844,-0.2402343 c -0.61238,-0.3682264 -1.41345,-1.0275384 -1.73828,-1.5390624 z m 0.19336,0.708984 c 0.36098,0.449268 0.85909,0.8807958 1.36132,1.2128906 -0.59572,0.086976 -1.2303,0.2645164 -1.74804,0.5175781 0.0244,-0.073436 0.0201,-0.085297 0.0625,-0.1757812 0.10546,-0.2250033 0.26743,-0.4356851 0.43945,-0.4785156 l 0.30078,-0.074219 -0.24023,-0.1972661 c -0.13748,-0.11192 -0.19555,-0.370648 -0.19531,-0.61914 9e-5,-0.0996 0.0104,-0.108829 0.0195,-0.185547 z"
             id="path478" />
        </g>
      </g>
    </g>
    <ellipse
       id="circle10840"
       style="fill:#0000ff;stroke:none;stroke-width:0.264582"
       cx="128.83447"
       cy="-24.152224"
       rx="1.9472944"
       ry="1.9511886" />
    <ellipse
       id="circle10848"
       style="fill:#0000ff;stroke:none;stroke-width:0.264582"
       cx="128.83447"
       cy="3.9702752"
       rx="1.9472944"
       ry="1.9511886" />
    <ellipse
       id="circle10844"
       style="fill:#0000ff;stroke:none;stroke-width:0.264582"
       cx="254.81522"
       cy="-48.372349"
       rx="1.9472944"
       ry="1.9511886" />
    <ellipse
       id="circle10850"
       style="fill:#0000ff;stroke:none;stroke-width:0.264582"
       cx="254.81522"
       cy="3.9702752"
       rx="1.9472944"
       ry="1.9511886" />
    <g
       inkscape:label=""
       transform="matrix(1.9472944,0,0,1.9511886,257.90015,-0.24775005)"
       id="g10898"
       style="stroke-width:0.513021">
      <g
         id="g10896"
         transform="matrix(0.352778,0,0,0.352778,-0.248047,0.0980722)"
         style="stroke-width:0.513021">
        <g
           clip-path="url(#clipPath5562)"
           clip-rule="nonzero"
           id="g10894"
           style="stroke-width:0.298002">
          <g
             style="fill:#000000;fill-opacity:1;stroke-width:0.513021"
             id="g10892">
            <g
               id="g10890"
               transform="translate(0,11.097)"
               style="stroke-width:0.513021">
              <path
                 style="stroke:none;stroke-width:0.513021"
                 d="M 7.1875,-2.671875 H 6.875 c -0.171875,1.21875 -0.3125,1.4375 -0.390625,1.53125 C 6.40625,-1 5.171875,-1 4.921875,-1 H 1.625 c 0.609375,-0.671875 1.8125,-1.890625 3.28125,-3.3125 1.046875,-0.984375 2.28125,-2.15625 2.28125,-3.859375 0,-2.03125 -1.625,-3.203125 -3.4375,-3.203125 -1.890625,0 -3.046875,1.65625 -3.046875,3.21875 0,0.671875 0.5,0.75 0.703125,0.75 0.171875,0 0.6875,-0.09375 0.6875,-0.703125 0,-0.53125 -0.4375,-0.6875 -0.6875,-0.6875 -0.09375,0 -0.203125,0.015625 -0.265625,0.046875 0.328125,-1.453125 1.328125,-2.1875 2.375,-2.1875 1.5,0 2.46875,1.1875 2.46875,2.765625 0,1.484375 -0.875,2.78125 -1.859375,3.90625 l -3.421875,3.875 V 0 h 6.0625 z m 0,0"
                 id="path10888" />
            </g>
          </g>
        </g>
      </g>
    </g>
    <g
       inkscape:label=""
       transform="matrix(1.9472944,0,0,1.9511886,257.46627,-52.396537)"
       id="g10910"
       style="stroke-width:0.513021">
      <g
         id="g10908"
         transform="matrix(0.352778,0,0,0.352778,-0.529167,0.0980722)"
         style="stroke-width:0.513021">
        <g
           clip-path="url(#clipPath3897)"
           clip-rule="nonzero"
           id="g10906"
           style="stroke-width:0.298002">
          <g
             style="fill:#000000;fill-opacity:1;stroke-width:0.513021"
             id="g10904">
            <g
               id="g10902"
               transform="translate(0,11.097)"
               style="stroke-width:0.513021">
              <path
                 style="stroke:none;stroke-width:0.513021"
                 d="m 4.578125,-11 c 0,-0.359375 -0.015625,-0.375 -0.25,-0.375 -0.671875,0.796875 -1.6875,1.0625 -2.65625,1.09375 -0.046875,0 -0.140625,0 -0.15625,0.03125 C 1.5,-10.203125 1.5,-10.171875 1.5,-9.8125 c 0.53125,0 1.421875,-0.109375 2.109375,-0.515625 V -1.25 c 0,0.59375 -0.03125,0.796875 -1.515625,0.796875 H 1.578125 V 0 c 0.828125,-0.015625 1.6875,-0.03125 2.515625,-0.03125 0.828125,0 1.6875,0.015625 2.515625,0.03125 V -0.453125 H 6.09375 c -1.484375,0 -1.515625,-0.1875 -1.515625,-0.796875 z m 0,0"
                 id="path10900" />
            </g>
          </g>
        </g>
      </g>
    </g>
    <g
       id="path12844">
      <path
         style="color:#000000;fill:#000000;-inkscape-stroke:none"
         d="m 482.70898,-46.925781 c -12.44767,5.171777 -24.89607,10.34385 -37.34375,15.515625 -29.54585,12.275744 -59.09281,24.5504256 -88.63867,36.8261716 l 0.17969,0.4296875 c 29.54586,-12.275746 59.09087,-24.5523801 88.63672,-36.8281251 12.44768,-5.171775 24.89607,-10.341895 37.34375,-15.513672 z"
         id="path522" />
      <g
         id="g512">
        <g
           id="path514">
          <path
             style="color:#000000;fill:#000000;fill-rule:evenodd;stroke-width:0.2325pt;-inkscape-stroke:none"
             d="m 446.74252,-31.731624 c -0.55491,0.482324 -1.23532,1.26856 -1.48632,1.876384 0,0 -0.35682,-0.858823 -0.0166,-1.251941 -0.51861,-0.03629 -0.87544,-0.895116 -0.87544,-0.895116 0.60783,0.250999 1.64506,0.323586 2.37838,0.270673 z"
             id="path518" />
          <path
             style="color:#000000;fill:#000000;fill-rule:evenodd;-inkscape-stroke:none"
             d="m 444.07812,-32.289062 0.14258,0.345703 c 0,0 0.0945,0.229685 0.25977,0.464843 0.13583,0.193338 0.36301,0.347897 0.61523,0.431641 -0.11781,0.237529 -0.16998,0.508039 -0.1289,0.740234 0.0501,0.283 0.14648,0.511719 0.14648,0.511719 l 0.14258,0.34375 0.14453,-0.345703 c 0.23128,-0.560069 0.90405,-1.349594 1.44336,-1.818359 l -0.0898,0.03516 -0.0117,-0.306641 h -0.0117 c -0.71271,0.05143 -1.74657,-0.02849 -2.30664,-0.259765 z m 0.56641,0.46875 c 0.5532,0.159101 1.20758,0.226425 1.80859,0.208984 -0.4369,0.413942 -0.85124,0.924876 -1.1289,1.429687 -0.0223,-0.07411 -0.0334,-0.0813 -0.0508,-0.179687 -0.0433,-0.244691 -0.032,-0.51048 0.084,-0.644531 l 0.20313,-0.234375 -0.31055,-0.02148 c -0.17684,-0.01237 -0.37277,-0.193157 -0.51563,-0.396484 -0.0571,-0.08131 -0.0531,-0.09425 -0.0898,-0.162109 z m 2.09766,0.242187 c 5.9e-4,-4.2e-5 0.001,4.2e-5 0.002,0 l -0.002,0.002 z"
             id="path520" />
        </g>
      </g>
    </g>
    <g
       id="path12964">
      <path
         style="color:#000000;fill:#000000;-inkscape-stroke:none"
         d="m 356.91211,-50.826172 -0.18945,0.423828 77.08007,34.414063 48.90039,21.832031 0.18946,-0.4257813 -48.90039,-21.8320307 z"
         id="path536" />
      <g
         id="g526">
        <g
           id="path528">
          <path
             style="color:#000000;fill:#000000;fill-rule:evenodd;stroke-width:0.2325pt;-inkscape-stroke:none"
             d="m 435.17113,-15.632194 c -0.73169,-0.07205 -1.77046,-0.02658 -2.38464,0.208457 0,0 0.37914,-0.849209 0.89853,-0.871944 -0.32982,-0.40187 0.0493,-1.251079 0.0493,-1.251079 0.23504,0.614172 0.89468,1.417912 1.4368,1.914566 z"
             id="path532" />
          <path
             style="color:#000000;fill:#000000;fill-rule:evenodd;-inkscape-stroke:none"
             d="m 433.74609,-17.951172 -0.15234,0.341797 c 0,0 -0.10272,0.224265 -0.16016,0.505859 -0.0472,0.231222 -0.004,0.503496 0.10743,0.744141 -0.2534,0.0776 -0.48452,0.226764 -0.625,0.416016 -0.17131,0.230762 -0.27149,0.457031 -0.27149,0.457031 l -0.15234,0.341797 0.34961,-0.134766 c 0.56592,-0.216571 1.60333,-0.269243 2.31445,-0.199219 l 0.46289,0.04687 -0.34375,-0.314453 c -0.52688,-0.482694 -1.17991,-1.289551 -1.39648,-1.855468 z m 0.0469,0.730469 c 0.26414,0.512086 0.6656,1.035365 1.0918,1.460937 -0.6008,-0.03322 -1.25696,0.01728 -1.81446,0.16211 0.0387,-0.06745 0.0356,-0.0812 0.0957,-0.16211 0.14811,-0.199526 0.34828,-0.373107 0.52539,-0.380859 l 0.31054,-0.01367 -0.19726,-0.240234 c -0.11247,-0.137035 -0.11607,-0.403007 -0.0664,-0.646485 0.0201,-0.09857 0.0303,-0.105921 0.0547,-0.179687 z"
             id="path534" />
        </g>
      </g>
    </g>
    <ellipse
       id="circle12414"
       style="fill:#0000ff;stroke:none;stroke-width:0.264582"
       cx="482.79736"
       cy="-46.711735"
       rx="1.9472944"
       ry="1.9511886" />
    <ellipse
       id="circle12420"
       style="fill:#0000ff;stroke:none;stroke-width:0.264582"
       cx="482.79736"
       cy="5.6308885"
       rx="1.9472944"
       ry="1.9511886" />
    <g
       inkscape:label=""
       transform="matrix(1.9472944,0,0,1.9511886,485.88233,1.4128621)"
       id="g12468"
       style="stroke-width:0.513021">
      <g
         id="g12466"
         transform="matrix(0.352778,0,0,0.352778,-0.248047,0.0980722)"
         style="stroke-width:0.513021">
        <g
           clip-path="url(#clipPath5562)"
           clip-rule="nonzero"
           id="g12464"
           style="stroke-width:0.298002">
          <g
             style="fill:#000000;fill-opacity:1;stroke-width:0.513021"
             id="g12462">
            <g
               id="g12460"
               transform="translate(0,11.097)"
               style="stroke-width:0.513021">
              <path
                 style="stroke:none;stroke-width:0.513021"
                 d="M 7.1875,-2.671875 H 6.875 c -0.171875,1.21875 -0.3125,1.4375 -0.390625,1.53125 C 6.40625,-1 5.171875,-1 4.921875,-1 H 1.625 c 0.609375,-0.671875 1.8125,-1.890625 3.28125,-3.3125 1.046875,-0.984375 2.28125,-2.15625 2.28125,-3.859375 0,-2.03125 -1.625,-3.203125 -3.4375,-3.203125 -1.890625,0 -3.046875,1.65625 -3.046875,3.21875 0,0.671875 0.5,0.75 0.703125,0.75 0.171875,0 0.6875,-0.09375 0.6875,-0.703125 0,-0.53125 -0.4375,-0.6875 -0.6875,-0.6875 -0.09375,0 -0.203125,0.015625 -0.265625,0.046875 0.328125,-1.453125 1.328125,-2.1875 2.375,-2.1875 1.5,0 2.46875,1.1875 2.46875,2.765625 0,1.484375 -0.875,2.78125 -1.859375,3.90625 l -3.421875,3.875 V 0 h 6.0625 z m 0,0"
                 id="path12458" />
            </g>
          </g>
        </g>
      </g>
    </g>
    <g
       inkscape:label=""
       transform="matrix(1.9472944,0,0,1.9511886,485.44844,-50.735925)"
       id="g12480"
       style="stroke-width:0.513021">
      <g
         id="g12478"
         transform="matrix(0.352778,0,0,0.352778,-0.529167,0.0980722)"
         style="stroke-width:0.513021">
        <g
           clip-path="url(#clipPath3897)"
           clip-rule="nonzero"
           id="g12476"
           style="stroke-width:0.298002">
          <g
             style="fill:#000000;fill-opacity:1;stroke-width:0.513021"
             id="g12474">
            <g
               id="g12472"
               transform="translate(0,11.097)"
               style="stroke-width:0.513021">
              <path
                 style="stroke:none;stroke-width:0.513021"
                 d="m 4.578125,-11 c 0,-0.359375 -0.015625,-0.375 -0.25,-0.375 -0.671875,0.796875 -1.6875,1.0625 -2.65625,1.09375 -0.046875,0 -0.140625,0 -0.15625,0.03125 C 1.5,-10.203125 1.5,-10.171875 1.5,-9.8125 c 0.53125,0 1.421875,-0.109375 2.109375,-0.515625 V -1.25 c 0,0.59375 -0.03125,0.796875 -1.515625,0.796875 H 1.578125 V 0 c 0.828125,-0.015625 1.6875,-0.03125 2.515625,-0.03125 0.828125,0 1.6875,0.015625 2.515625,0.03125 V -0.453125 H 6.09375 c -1.484375,0 -1.515625,-0.1875 -1.515625,-0.796875 z m 0,0"
                 id="path12470" />
            </g>
          </g>
        </g>
      </g>
    </g>
    <ellipse
       id="circle12410"
       style="fill:#0000ff;stroke:none;stroke-width:0.264582"
       cx="356.81668"
       cy="-22.491613"
       rx="1.9472944"
       ry="1.9511886" />
    <ellipse
       id="circle12412"
       style="fill:#0000ff;stroke:none;stroke-width:0.264582"
       cx="356.81668"
       cy="-50.614117"
       rx="1.9472944"
       ry="1.9511886" />
    <ellipse
       id="circle12418"
       style="fill:#0000ff;stroke:none;stroke-width:0.264582"
       cx="356.81668"
       cy="5.6308885"
       rx="1.9472944"
       ry="1.9511886" />
    <g
       inkscape:label=""
       transform="matrix(1.9472944,0,0,1.9511886,349.31699,-54.135549)"
       id="g12432"
       style="stroke-width:0.513021">
      <g
         id="g12430"
         transform="matrix(0.352778,0,0,0.352778,-0.242535,0.0641173)"
         style="stroke-width:0.513021">
        <g
           clip-path="url(#clipPath3254)"
           clip-rule="nonzero"
           id="g12428"
           style="stroke-width:0.298002">
          <g
             style="fill:#000000;fill-opacity:1;stroke-width:0.513021"
             id="g12426">
            <g
               id="g12424"
               transform="translate(0,7.4120002)"
               style="stroke-width:0.513021">
              <path
                 style="stroke:none;stroke-width:0.513021"
                 d="M 5.1875,-2.046875 C 5.09375,-1.75 5.09375,-1.71875 4.859375,-1.390625 c -0.375,0.484375 -1.140625,1.21875 -1.953125,1.21875 -0.703125,0 -1.09375,-0.640625 -1.09375,-1.65625 0,-0.9375 0.53125,-2.875 0.859375,-3.59375 C 3.25,-6.625 4.0625,-7.25 4.734375,-7.25 c 1.140625,0 1.359375,1.40625 1.359375,1.546875 0,0.015625 -0.046875,0.25 -0.0625,0.28125 z m 1.09375,-4.40625 C 6.09375,-6.90625 5.625,-7.59375 4.734375,-7.59375 c -1.9375,0 -4.046875,2.515625 -4.046875,5.0625 0,1.703125 1,2.703125 2.171875,2.703125 0.953125,0 1.75,-0.734375 2.234375,-1.3125 0.171875,1.015625 0.984375,1.3125 1.5,1.3125 0.515625,0 0.9375,-0.3125 1.234375,-0.921875 C 8.109375,-1.34375 8.34375,-2.390625 8.34375,-2.46875 8.34375,-2.546875 8.28125,-2.625 8.171875,-2.625 8.03125,-2.625 8,-2.53125 7.9375,-2.265625 7.671875,-1.25 7.359375,-0.171875 6.640625,-0.171875 c -0.5,0 -0.53125,-0.453125 -0.53125,-0.796875 0,-0.390625 0.0625,-0.578125 0.203125,-1.25 0.125,-0.4375 0.21875,-0.8125 0.34375,-1.3125 0.640625,-2.578125 0.796875,-3.203125 0.796875,-3.296875 0,-0.25 -0.1875,-0.4375 -0.4375,-0.4375 -0.5625,0 -0.703125,0.609375 -0.734375,0.8125 z m 0,0"
                 id="path12422" />
            </g>
          </g>
        </g>
      </g>
    </g>
    <g
       inkscape:label=""
       transform="matrix(1.9472944,0,0,1.9511886,349.1799,-27.752767)"
       id="g12444"
       style="stroke-width:0.513021">
      <g
         id="g12442"
         transform="matrix(0.352778,0,0,0.352778,-0.275608,-6.6143e-4)"
         style="stroke-width:0.513021">
        <g
           clip-path="url(#clipPath3453)"
           clip-rule="nonzero"
           id="g12440"
           style="stroke-width:0.298002">
          <g
             style="fill:#000000;fill-opacity:1;stroke-width:0.513021"
             id="g12438">
            <g
               id="g12436"
               transform="translate(0,11.955)"
               style="stroke-width:0.513021">
              <path
                 style="stroke:none;stroke-width:0.513021"
                 d="M 3.984375,-11.515625 C 4,-11.59375 4.03125,-11.6875 4.03125,-11.78125 c 0,-0.171875 -0.171875,-0.171875 -0.203125,-0.171875 -0.015625,0 -0.640625,0.0625 -0.953125,0.09375 -0.296875,0.01563 -0.546875,0.04687 -0.859375,0.0625 -0.421875,0.03125 -0.53125,0.04687 -0.53125,0.359375 0,0.171875 0.171875,0.171875 0.34375,0.171875 0.875,0 0.875,0.15625 0.875,0.328125 0,0.125 -0.140625,0.625 -0.203125,0.9375 L 2.078125,-8.34375 C 1.90625,-7.65625 0.9375,-3.75 0.859375,-3.4375 0.78125,-3.015625 0.78125,-2.71875 0.78125,-2.5 c 0,1.765625 0.96875,2.671875 2.09375,2.671875 2,0 4.0625,-2.5625 4.0625,-5.0625 0,-1.578125 -0.890625,-2.703125 -2.1875,-2.703125 -0.890625,0 -1.703125,0.734375 -2.03125,1.078125 z m -1.09375,11.34375 c -0.546875,0 -1.15625,-0.40625 -1.15625,-1.75 0,-0.578125 0.0625,-0.90625 0.359375,-2.109375 C 2.15625,-4.25 2.421875,-5.359375 2.5,-5.578125 2.53125,-5.71875 3.546875,-7.25 4.71875,-7.25 c 0.75,0 1.09375,0.765625 1.09375,1.65625 0,0.828125 -0.46875,2.765625 -0.90625,3.671875 -0.421875,0.921875 -1.21875,1.75 -2.015625,1.75 z m 0,0"
                 id="path12434" />
            </g>
          </g>
        </g>
      </g>
    </g>
    <g
       inkscape:label=""
       transform="matrix(1.9472944,0,0,1.9511886,349.08695,3.4168043)"
       id="g12456"
       style="stroke-width:0.513021">
      <g
         id="g12454"
         transform="matrix(0.352778,0,0,0.352778,-0.242535,0.0641173)"
         style="stroke-width:0.513021">
        <g
           clip-path="url(#clipPath6748)"
           clip-rule="nonzero"
           id="g12452"
           style="stroke-width:0.298002">
          <g
             style="fill:#000000;fill-opacity:1;stroke-width:0.513021"
             id="g12450">
            <g
               id="g12448"
               transform="translate(0,7.4120002)"
               style="stroke-width:0.513021">
              <path
                 style="stroke:none;stroke-width:0.513021"
                 d="m 6.734375,-6.46875 c -0.328125,0 -0.484375,0 -0.71875,0.203125 -0.109375,0.078125 -0.296875,0.34375 -0.296875,0.625 0,0.34375 0.25,0.546875 0.578125,0.546875 0.421875,0 0.890625,-0.34375 0.890625,-1.03125 0,-0.828125 -0.796875,-1.46875 -1.984375,-1.46875 -2.265625,0 -4.515625,2.46875 -4.515625,4.90625 0,1.5 0.9375,2.859375 2.6875,2.859375 2.34375,0 3.828125,-1.828125 3.828125,-2.046875 0,-0.109375 -0.109375,-0.1875 -0.171875,-0.1875 -0.0625,0 -0.078125,0.015625 -0.234375,0.171875 -1.09375,1.453125 -2.734375,1.71875 -3.390625,1.71875 -1.1875,0 -1.5625,-1.03125 -1.5625,-1.890625 0,-0.609375 0.296875,-2.28125 0.90625,-3.453125 C 3.203125,-6.3125 4.125,-7.25 5.21875,-7.25 c 0.21875,0 1.171875,0.03125 1.515625,0.78125 z m 0,0"
                 id="path12446" />
            </g>
          </g>
        </g>
      </g>
    </g>
  </g>
</svg>
