<?xml version="1.0" encoding="UTF-8" standalone="no"?>
<!-- Created with Inkscape (http://www.inkscape.org/) -->

<svg
   width="110.84142mm"
   height="102.6107mm"
   viewBox="0 0 110.84142 102.6107"
   version="1.1"
   id="svg1"
   inkscape:version="1.4 (e7c3feb1, 2024-10-09)"
   sodipodi:docname="prob-03-05-25_01.svg"
   xmlns:inkscape="http://www.inkscape.org/namespaces/inkscape"
   xmlns:sodipodi="http://sodipodi.sourceforge.net/DTD/sodipodi-0.dtd"
   xmlns="http://www.w3.org/2000/svg"
   xmlns:svg="http://www.w3.org/2000/svg"
   xmlns:ns1="http://www.iki.fi/pav/software/textext/">
  <sodipodi:namedview
     id="namedview1"
     pagecolor="#ffffff"
     bordercolor="#000000"
     borderopacity="0.25"
     inkscape:showpageshadow="2"
     inkscape:pageopacity="0.0"
     inkscape:pagecheckerboard="0"
     inkscape:deskcolor="#d1d1d1"
     inkscape:document-units="mm"
     showguides="true"
     inkscape:zoom="1"
     inkscape:cx="217.5"
     inkscape:cy="237"
     inkscape:window-width="1512"
     inkscape:window-height="916"
     inkscape:window-x="0"
     inkscape:window-y="91"
     inkscape:window-maximized="1"
     inkscape:current-layer="layer1">
    <sodipodi:guide
       position="39.324923,282.24231"
       orientation="0,-1"
       id="guide6"
       inkscape:locked="false" />
    <sodipodi:guide
       position="39.296695,155.73149"
       orientation="1,0"
       id="guide7"
       inkscape:locked="false" />
  </sodipodi:namedview>
  <defs
     id="defs1">
    <marker
       style="overflow:visible"
       id="Triangle"
       refX="0"
       refY="0"
       orient="auto-start-reverse"
       inkscape:stockid="Triangle arrow"
       markerWidth="1"
       markerHeight="1"
       viewBox="0 0 1 1"
       inkscape:isstock="true"
       inkscape:collect="always"
       preserveAspectRatio="xMidYMid">
      <path
         transform="scale(0.5)"
         style="fill:context-stroke;fill-rule:evenodd;stroke:context-stroke;stroke-width:1pt"
         d="M 5.77,0 -2.88,5 V -5 Z"
         id="path135" />
    </marker>
    <inkscape:path-effect
       effect="bspline"
       id="path-effect6"
       is_visible="true"
       lpeversion="1.3"
       weight="33.333333"
       steps="2"
       helper_size="0"
       apply_no_weight="true"
       apply_with_weight="true"
       only_selected="false"
       uniform="false" />
    <marker
       style="overflow:visible"
       id="ArrowWide"
       refX="0"
       refY="0"
       orient="auto-start-reverse"
       inkscape:stockid="Wide arrow"
       markerWidth="1"
       markerHeight="1"
       viewBox="0 0 1 1"
       inkscape:isstock="true"
       inkscape:collect="always"
       preserveAspectRatio="xMidYMid">
      <path
         style="fill:none;stroke:context-stroke;stroke-width:1;stroke-linecap:butt"
         d="M 3,-3 0,0 3,3"
         transform="rotate(180,0.125,0)"
         sodipodi:nodetypes="ccc"
         id="path1" />
    </marker>
    <symbol
       id="math_diagram_symbols.svg:coordinateAxis">
      <title
         id="title2">math_diagram_symbols.svg:coordinateAxis_inkscape_duplicate</title>
      <path
         style="fill:none;fill-rule:evenodd;stroke:#000000;stroke-width:2;stroke-dasharray:none;marker-end:url(#ArrowWide)"
         d="M 215.47855,431.91422 V 1.9142136"
         id="path4" />
      <path
         style="fill:none;fill-rule:evenodd;stroke:#000000;stroke-width:2;stroke-dasharray:none;marker-end:url(#ArrowWide)"
         d="M 0,216.43566 H 430"
         id="path5" />
    </symbol>
    <symbol
       id="math_diagram_symbols.svg:parabola">
      <title
         id="title1">math_diagram_symbols.svg:parabola_inkscape_duplicate</title>
      <g
         id="parabola_transform"
         transform="matrix(4.0172136,0,0,4.0172136,-768.59766,-822.50518)"
         inkscape:label="parabola">
        <g
           id="g32"
           style="stroke:#000000">
          <path
             fill="none"
             stroke-width="0.79701"
             stroke-linecap="butt"
             stroke-linejoin="miter"
             stroke="#ff0000"
             stroke-opacity="1"
             stroke-miterlimit="10"
             d="m 209.38601,227.09901 c 0,0 2.73047,10.64453 3.77734,14.48828 1.05078,3.84375 2.73047,9.73047 3.78125,13.22657 1.04688,3.49609 2.73047,8.82422 3.77734,11.96875 1.05079,3.14844 2.73047,7.91406 3.78125,10.71094 1.04688,2.79687 2.73047,7 3.77735,9.44531 1.05078,2.44922 2.73047,6.09375 3.78125,8.1914 1.04687,2.09766 2.73047,5.17969 3.77734,6.92969 1.05078,1.7461 2.73438,4.26953 3.78125,5.66797 1.04688,1.39844 2.73047,3.36328 3.78125,4.41016 1.04688,1.05078 2.73047,2.44921 3.77735,3.15234 1.05078,0.69922 2.73046,1.53906 3.78125,1.89062 1.04687,0.34766 2.73046,0.62891 3.77734,0.62891 1.05078,0 2.73047,-0.28125 3.78125,-0.62891 1.04687,-0.34765 2.73047,-1.1914 3.77734,-1.89062 1.05078,-0.69531 2.73047,-2.09766 3.78125,-3.14844 1.04688,-1.04687 2.73047,-3.00781 3.77735,-4.40625 1.05078,-1.39843 2.73047,-3.92187 3.78125,-5.66797 1.04687,-1.74609 2.73047,-4.83203 3.77734,-6.92578 1.05078,-2.09765 2.73047,-5.74218 3.78125,-8.1875 1.04688,-2.44922 2.73047,-6.65234 3.77734,-9.44922 1.05079,-2.79296 2.73047,-7.55859 3.78125,-10.70703 1.04688,-3.14453 2.73047,-8.46875 3.77735,-11.96484 1.05078,-3.4961 2.73047,-9.37891 3.78125,-13.22656 1.04687,-3.84375 3.77734,-14.48438 3.77734,-14.48438"
             id="path82"
             style="stroke:#000000" />
        </g>
      </g>
    </symbol>
  </defs>
  <g
     inkscape:label="Layer 1"
     inkscape:groupmode="layer"
     id="layer1"
     transform="translate(-57.6505, -61.6955)">
    <path
       style="fill:#2ad4ff;fill-opacity:0.623529;fill-rule:evenodd;stroke:none;stroke-width:0.600001;stroke-linejoin:round;stroke-dasharray:none"
       d="m 97.083404,105.1008 v -28.139474 0 c 0,0 6.933846,0.280642 9.039596,0.966074 14.90544,4.851775 30.58155,21.909628 45.395,50.9396 l 2.159,4.231 -28.71465,0.14227 H 97.083404 Z"
       id="path10"
       sodipodi:nodetypes="ccssscccc" />
    <path
       style="fill:none;fill-opacity:0.623529;fill-rule:evenodd;stroke:#000000;stroke-width:1;stroke-linejoin:round;stroke-dasharray:none;-inkscape-stroke:none"
       d="m 96.9755,76.4532 c 0.0189,0 0.0378,1e-4 0.0568,1e-4 0.0189,0 0.0378,1e-4 0.0568,2e-4 0.0189,0 0.0379,10e-5 0.0568,2e-4 0.0189,2e-4 0.0379,3e-4 0.0568,4e-4 0.019,2e-4 0.0379,4e-4 0.0568,6e-4 0.019,1e-4 0.0379,4e-4 0.0568,6e-4 0.019,2e-4 0.0379,5e-4 0.0569,7e-4 0.0189,3e-4 0.0378,6e-4 0.0568,9e-4 0.0189,3e-4 0.0379,6e-4 0.0568,9e-4 0.0189,4e-4 0.0379,7e-4 0.0568,0.0011 0.019,4e-4 0.0379,8e-4 0.0568,0.0012 0.019,4e-4 0.0379,9e-4 0.0568,0.0013 0.019,5e-4 0.0379,0.001 0.0569,0.0014 0.0189,5e-4 0.0378,0.001 0.0568,0.0016 0.0189,5e-4 0.0379,0.0011 0.0568,0.0016 0.0189,6e-4 0.0379,0.0012 0.0568,0.0018 0.0189,6e-4 0.0379,0.0012 0.0568,0.0019 0.019,6e-4 0.0379,0.0013 0.0568,0.002 0.019,6e-4 0.0379,0.0013 0.0569,0.0021 0.0189,7e-4 0.0378,0.0014 0.0568,0.0022 0.0189,7e-4 0.0378,0.0015 0.0568,0.0023 0.0189,8e-4 0.0379,0.0016 0.0568,0.0025 0.0189,8e-4 0.0379,0.0016 0.0568,0.0025 0.019,9e-4 0.0379,0.0018 0.0568,0.0027 0.019,9e-4 0.0379,0.0018 0.0568,0.0028 0.019,9e-4 0.0379,0.0019 0.0569,0.0029 0.0189,0.001 0.0378,0.002 0.0568,0.003 0.0189,0.001 0.0379,0.0021 0.0568,0.0031 0.0189,0.0011 0.0379,0.0022 0.0568,0.0033 0.0189,0.0011 0.0379,0.0022 0.0568,0.0033 0.019,0.0012 0.0379,0.0023 0.0568,0.0035 0.019,0.0012 0.0379,0.0024 0.0569,0.0036 0.0189,0.0012 0.0378,0.0024 0.0568,0.0037 0.0189,0.0012 0.0378,0.0025 0.0568,0.0038 0.0189,0.0013 0.0379,0.0026 0.0568,0.0039 0.0189,0.0013 0.0379,0.0027 0.0568,0.004 0.019,0.0014 0.0379,0.0028 0.0568,0.0042 0.019,0.0014 0.0379,0.0028 0.0568,0.0043 0.019,0.0014 0.0379,0.0029 0.0569,0.0043 0.0189,0.0015 0.0378,0.003 0.0568,0.0045 0.0189,0.0015 0.0379,0.0031 0.0568,0.0046 0.0189,0.0016 0.0379,0.0032 0.0568,0.0048 0.019,0.0015 0.0379,0.0032 0.0568,0.0048 0.019,0.0016 0.0379,0.0033 0.0568,0.0049 0.019,0.0017 0.0379,0.0034 0.0569,0.0051 0.0189,0.0017 0.0378,0.0034 0.0568,0.0052 0.0189,0.0017 0.0379,0.0035 0.0568,0.0053 0.0189,0.0017 0.0379,0.0035 0.0568,0.0054 0.0189,0.0018 0.0379,0.0036 0.0568,0.0055 0.019,0.0018 0.0379,0.0037 0.0568,0.0056 0.019,0.0019 0.0379,0.0038 0.0569,0.0058 0.0189,0.0019 0.0378,0.0038 0.0568,0.0058 0.0189,0.002 0.0378,0.004 0.0568,0.006 0.0193,0.002 0.0383,0.004 0.0563,0.0061 0.019,0.002 0.038,0.0041 0.057,0.0062 0.019,0.0021 0.038,0.0042 0.057,0.0063 0.019,0.0021 0.038,0.0042 0.057,0.0064 0.019,0.0022 0.038,0.0044 0.057,0.0066 0.019,0.0022 0.038,0.0044 0.057,0.0066 0.019,0.0022 0.037,0.0045 0.056,0.0068 0.019,0.0022 0.038,0.0045 0.057,0.0069 0.019,0.0023 0.038,0.0046 0.057,0.0069 0.019,0.0024 0.038,0.0048 0.057,0.0072 0.019,0.0023 0.038,0.0048 0.057,0.0072 0.019,0.0024 0.038,0.0049 0.056,0.0073 0.019,0.0025 0.038,0.005 0.057,0.0075 0.019,0.0025 0.038,0.005 0.057,0.0075 0.019,0.0026 0.038,0.0051 0.057,0.0077 0.019,0.0026 0.038,0.0052 0.057,0.0078 0.019,0.0026 0.038,0.0053 0.057,0.0079 0.018,0.0027 0.037,0.0053 0.056,0.008 0.019,0.0027 0.038,0.0054 0.057,0.0082 0.019,0.0027 0.038,0.0054 0.057,0.0082 0.019,0.0028 0.038,0.0056 0.057,0.0084 0.019,0.0028 0.038,0.0056 0.057,0.0084 0.019,0.0029 0.038,0.0057 0.056,0.0086 0.019,0.0029 0.038,0.0058 0.057,0.0087 0.019,0.0029 0.038,0.0059 0.057,0.0088 0.019,0.003 0.038,0.006 0.057,0.009 0.019,0.003 0.038,0.006 0.057,0.009 0.019,0.003 0.038,0.0061 0.057,0.0092 0.018,0.003 0.037,0.0061 0.056,0.0092 0.019,0.0032 0.038,0.0063 0.057,0.0094 0.019,0.0032 0.038,0.0063 0.057,0.0095 0.019,0.0032 0.038,0.0064 0.057,0.0096 0.019,0.0033 0.038,0.0065 0.057,0.0098 0.019,0.0032 0.037,0.0065 0.056,0.0098 0.019,0.0033 0.038,0.0066 0.057,0.01 0.019,0.0033 0.038,0.0066 0.057,0.01 0.019,0.0034 0.038,0.0068 0.057,0.0102 0.019,0.0034 0.038,0.0068 0.057,0.0103 0.019,0.0034 0.038,0.0069 0.056,0.0104 0.019,0.0035 0.038,0.007 0.057,0.0105 0.019,0.0035 0.038,0.0071 0.057,0.0107 0.019,0.0035 0.038,0.0071 0.057,0.0107 0.019,0.0036 0.038,0.0072 0.057,0.0109 0.019,0.0036 0.038,0.0073 0.057,0.0109 0.019,0.0037 0.037,0.0074 0.056,0.0111 0.019,0.0038 0.038,0.0075 0.057,0.0112 0.019,0.0038 0.038,0.0076 0.057,0.0114 0.019,0.0037 0.038,0.0076 0.057,0.0114 0.019,0.0038 0.038,0.0077 0.057,0.0115 0.019,0.0039 0.038,0.0078 0.056,0.0117 0.019,0.0039 0.038,0.0078 0.057,0.0118 0.019,0.0039 0.038,0.0079 0.057,0.0119 0.019,0.0039 0.038,0.0079 0.057,0.012 0.019,0.004 0.038,0.008 0.057,0.0121 0.019,0.004 0.038,0.0081 0.057,0.0122 0.018,0.0041 0.037,0.0082 0.056,0.0123 0.019,0.0042 0.038,0.0083 0.057,0.0125 0.019,0.0042 0.038,0.0083 0.057,0.0126 0.019,0.0042 0.038,0.0084 0.057,0.0126 0.019,0.0043 0.038,0.0086 0.057,0.0128 0.019,0.0043 0.037,0.0086 0.056,0.0129 0.019,0.0044 0.038,0.0087 0.057,0.0131 0.019,0.0043 0.038,0.0087 0.057,0.0131 0.019,0.0044 0.038,0.0088 0.057,0.0133 0.019,0.0044 0.038,0.0089 0.057,0.0133 0.019,0.0045 0.038,0.009 0.057,0.0135 0.018,0.0045 0.037,0.009 0.056,0.0136 0.019,0.0045 0.038,0.0091 0.057,0.0137 0.019,0.0046 0.038,0.0092 0.057,0.0138 0.019,0.0046 0.038,0.0093 0.057,0.014 0.019,0.0046 0.038,0.0093 0.057,0.014 0.019,0.0047 0.037,0.0094 0.056,0.0142 0.019,0.0047 0.038,0.0095 0.057,0.0142 0.019,0.0048 0.038,0.0096 0.057,0.0144 0.019,0.0048 0.038,0.0097 0.057,0.0145 0.019,0.0049 0.038,0.0098 0.057,0.0146 0.019,0.0049 0.038,0.0098 0.056,0.0148 0.019,0.0049 0.038,0.0099 0.057,0.0148 0.019,0.005 0.038,0.01 0.057,0.015 0.019,0.005 0.038,0.01 0.057,0.015 0.019,0.0051 0.038,0.0102 0.057,0.0152 0.019,0.0051 0.038,0.0102 0.057,0.0153 0.019,0.0052 0.037,0.0103 0.056,0.0154 0.019,0.0052 0.038,0.0104 0.057,0.0156 0.019,0.0052 0.038,0.0104 0.057,0.0156 0.019,0.0052 0.038,0.0105 0.057,0.0158 0.019,0.0052 0.038,0.0105 0.057,0.0158 0.019,0.0053 0.038,0.0107 0.056,0.016 0.019,0.0054 0.038,0.0107 0.057,0.0161 0.019,0.0054 0.038,0.0108 0.057,0.0162 0.019,0.0054 0.038,0.0109 0.057,0.0163 0.019,0.0055 0.038,0.011 0.057,0.0165 0.019,0.0055 0.038,0.011 0.057,0.0165 0.018,0.0056 0.037,0.0111 0.056,0.0167 0.019,0.0056 0.038,0.0112 0.057,0.0168 0.019,0.0056 0.038,0.0112 0.057,0.0169 0.019,0.0056 0.038,0.0113 0.057,0.017 0.019,0.0057 0.038,0.0114 0.057,0.0171 0.019,0.0057 0.037,0.0115 0.056,0.0172 0.019,0.0058 0.038,0.0116 0.057,0.0174 0.019,0.0058 0.038,0.0116 0.057,0.0174 0.019,0.0059 0.038,0.0117 0.057,0.0176 0.019,0.0059 0.038,0.0118 0.057,0.0177 0.019,0.0059 0.038,0.0118 0.057,0.0178 0.018,0.0059 0.037,0.0119 0.056,0.0179 0.019,0.006 0.038,0.012 0.057,0.018 0.019,0.0061 0.038,0.0121 0.057,0.0182 0.019,0.006 0.038,0.0121 0.057,0.0182 0.019,0.0061 0.038,0.0123 0.057,0.0184 0.019,0.0061 0.037,0.0123 0.056,0.0185 0.019,0.0062 0.038,0.0124 0.057,0.0186 0.019,0.0062 0.038,0.0124 0.057,0.0187 0.019,0.0062 0.038,0.0125 0.057,0.0188 0.019,0.0063 0.038,0.0126 0.057,0.0189 0.019,0.0064 0.038,0.0127 0.056,0.0191 0.019,0.0064 0.038,0.0128 0.057,0.0192 0.019,0.0064 0.038,0.0128 0.057,0.0192 0.019,0.0065 0.038,0.013 0.057,0.0194 0.019,0.0065 0.038,0.013 0.057,0.0195 0.019,0.0066 0.038,0.0131 0.057,0.0197 0.018,0.0065 0.037,0.0131 0.056,0.0197 0.019,0.0066 0.038,0.0132 0.057,0.0199 0.019,0.0066 0.038,0.0132 0.057,0.0199 0.019,0.0067 0.038,0.0134 0.057,0.0201 0.019,0.0067 0.038,0.0134 0.057,0.0202 0.019,0.0067 0.038,0.0135 0.056,0.0203 0.019,0.0068 0.038,0.0136 0.057,0.0204 0.019,0.0068 0.038,0.0137 0.057,0.0205 0.019,0.0069 0.038,0.0138 0.057,0.0207 0.019,0.0069 0.038,0.0138 0.057,0.0207 0.019,0.007 0.038,0.0139 0.057,0.0209 0.018,0.007 0.037,0.014 0.056,0.021 0.019,0.007 0.038,0.014 0.057,0.0211 0.019,0.007 0.038,0.0141 0.057,0.0212 0.019,0.0071 0.038,0.0142 0.057,0.0213 0.019,0.0072 0.038,0.0143 0.057,0.0215 0.019,0.0071 0.037,0.0143 0.056,0.0215 0.019,0.0072 0.038,0.0145 0.057,0.0217 0.019,0.0072 0.038,0.0145 0.057,0.0218 0.019,0.0073 0.038,0.0146 0.057,0.0219 0.019,0.0073 0.038,0.0146 0.057,0.022 0.019,0.0073 0.038,0.0147 0.057,0.0221 0.018,0.0074 0.037,0.0148 0.056,0.0222 0.019,0.0075 0.038,0.0149 0.057,0.0224 0.019,0.0075 0.038,0.015 0.057,0.0225 0.019,0.0075 0.038,0.015 0.057,0.0225 0.019,0.0076 0.038,0.0151 0.057,0.0227 0.019,0.0076 0.037,0.0152 0.056,0.0228 0.019,0.0077 0.038,0.0153 0.057,0.023 0.019,0.0076 0.038,0.0153 0.057,0.023 0.019,0.0077 0.038,0.0154 0.057,0.0231 0.019,0.0078 0.038,0.0155 0.057,0.0233 0.019,0.0078 0.038,0.0156 0.056,0.0234 0.019,0.0078 0.038,0.0156 0.057,0.0235 0.019,0.0078 0.038,0.0157 0.057,0.0236 0.019,0.0078 0.038,0.0158 0.057,0.0237 0.019,0.0079 0.038,0.0158 0.057,0.0238 0.019,0.008 0.038,0.016 0.057,0.024 0.018,0.008 0.037,0.016 0.056,0.024 0.019,0.008 0.038,0.0161 0.057,0.0242 0.019,0.0081 0.038,0.0162 0.057,0.0243 0.019,0.0081 0.038,0.0162 0.057,0.0244 0.019,0.0081 0.038,0.0163 0.057,0.0245 0.019,0.0082 0.038,0.0164 0.056,0.0246 0.019,0.0082 0.038,0.0165 0.057,0.0247 0.019,0.0083 0.038,0.0166 0.057,0.0249 0.019,0.0083 0.038,0.0166 0.057,0.025 0.019,0.0083 0.038,0.0167 0.057,0.025 0.019,0.0084 0.038,0.0168 0.057,0.0252 0.018,0.0085 0.037,0.0169 0.056,0.0253 0.019,0.0085 0.038,0.017 0.057,0.0255 0.019,0.0085 0.038,0.017 0.057,0.0255 0.019,0.0085 0.038,0.0171 0.057,0.0257 0.019,0.0085 0.038,0.0171 0.057,0.0257 0.019,0.0086 0.037,0.0172 0.056,0.0259 0.019,0.0086 0.038,0.0173 0.057,0.026 0.019,0.0087 0.038,0.0174 0.057,0.0261 0.019,0.0087 0.038,0.0174 0.057,0.0262 0.019,0.0088 0.038,0.0175 0.057,0.0263 0.019,0.0088 0.038,0.0176 0.056,0.0265 0.019,0.0088 0.038,0.0177 0.057,0.0265 0.019,0.0089 0.038,0.0178 0.057,0.0267 0.019,0.0089 0.038,0.0179 0.057,0.0268 0.019,0.009 0.038,0.0179 0.057,0.0269 0.019,0.009 0.038,0.018 0.057,0.027 0.019,0.009 0.037,0.0181 0.056,0.0271 0.019,0.0091 0.038,0.0182 0.057,0.0273 0.019,0.0091 0.038,0.0182 0.057,0.0273 0.019,0.0092 0.038,0.0183 0.057,0.0275 0.019,0.0092 0.038,0.0184 0.057,0.0276 0.019,0.0092 0.038,0.0184 0.056,0.0277 0.019,0.0092 0.038,0.0185 0.057,0.0278 0.019,0.0093 0.038,0.0186 0.057,0.0279 0.019,0.0094 0.038,0.0187 0.057,0.0281 0.019,0.0093 0.038,0.0187 0.057,0.0281 0.019,0.0094 0.038,0.0188 0.057,0.0283 0.018,0.0094 0.037,0.0189 0.056,0.0284 0.019,0.0094 0.038,0.0189 0.057,0.0285 0.019,0.0095 0.038,0.019 0.057,0.0286 0.019,0.0095 0.038,0.0191 0.057,0.0287 0.019,0.0096 0.038,0.0192 0.057,0.0288 0.019,0.0096 0.037,0.0193 0.056,0.029 0.019,0.0096 0.038,0.0193 0.057,0.029 0.019,0.0097 0.038,0.0195 0.057,0.0292 0.019,0.0097 0.038,0.0195 0.057,0.0293 0.019,0.0098 0.038,0.0196 0.057,0.0294 0.019,0.0098 0.038,0.0197 0.057,0.0295 0.018,0.0099 0.037,0.0197 0.056,0.0296 0.019,0.0099 0.038,0.0199 0.057,0.0298 0.019,0.0099 0.038,0.0199 0.057,0.0298 0.019,0.01 0.038,0.02 0.057,0.03 0.019,0.01 0.038,0.0201 0.057,0.0301 0.019,0.0101 0.037,0.0201 0.056,0.0302 0.019,0.0101 0.038,0.0202 0.057,0.0303 0.019,0.0101 0.038,0.0203 0.057,0.0304 0.019,0.0102 0.038,0.0204 0.057,0.0306 0.019,0.0102 0.038,0.0204 0.057,0.0306 0.019,0.0103 0.038,0.0205 0.056,0.0308 0.019,0.0103 0.038,0.0206 0.057,0.0309 0.019,0.0103 0.038,0.0206 0.057,0.031 0.019,0.0103 0.038,0.0207 0.057,0.0311 0.019,0.0104 0.038,0.0208 0.057,0.0312 0.019,0.0104 0.038,0.0209 0.057,0.0314 0.019,0.0104 0.037,0.0209 0.056,0.0314 0.019,0.0105 0.038,0.021 0.057,0.0316 0.019,0.0105 0.038,0.0211 0.057,0.0316 0.019,0.0106 0.038,0.0212 0.057,0.0318 0.019,0.0107 0.038,0.0213 0.057,0.0319 0.019,0.0107 0.038,0.0214 0.056,0.0321 0.019,0.0107 0.038,0.0214 0.057,0.0321 0.019,0.0107 0.038,0.0215 0.057,0.0322 0.019,0.0108 0.038,0.0216 0.057,0.0324 0.019,0.0108 0.038,0.0216 0.057,0.0325 0.019,0.0108 0.038,0.0217 0.057,0.0326 0.018,0.0108 0.037,0.0217 0.056,0.0327 0.019,0.0109 0.038,0.0218 0.057,0.0328 0.019,0.0109 0.038,0.0219 0.057,0.0329 0.019,0.011 0.038,0.022 0.057,0.0331 0.019,0.011 0.038,0.022 0.057,0.0331 0.019,0.0111 0.037,0.0222 0.056,0.0333 0.019,0.0111 0.038,0.0222 0.057,0.0334 0.019,0.0111 0.038,0.0223 0.057,0.0335 0.019,0.0111 0.038,0.0223 0.057,0.0336 0.019,0.0112 0.038,0.0224 0.057,0.0337 0.019,0.0113 0.038,0.0225 0.057,0.0338 0.018,0.0113 0.037,0.0227 0.056,0.034 0.019,0.0113 0.038,0.0227 0.057,0.0341 0.019,0.0113 0.038,0.0227 0.057,0.0341 0.019,0.0114 0.038,0.0229 0.057,0.0343 0.019,0.0115 0.038,0.023 0.057,0.0344 0.019,0.0115 0.037,0.023 0.056,0.0346 0.019,0.0115 0.038,0.023 0.057,0.0346 0.019,0.0116 0.038,0.0231 0.057,0.0347 0.019,0.0116 0.038,0.0233 0.057,0.0349 0.019,0.0116 0.038,0.0233 0.057,0.035 0.019,0.0117 0.038,0.0234 0.056,0.0351 0.019,0.0117 0.038,0.0234 0.057,0.0352 0.019,0.0117 0.038,0.0235 0.057,0.0353 0.019,0.0118 0.038,0.0236 0.057,0.0354 0.019,0.0119 0.038,0.0237 0.057,0.0356 0.019,0.0118 0.038,0.0237 0.057,0.0356 0.018,0.0119 0.037,0.0239 0.056,0.0358 0.019,0.0119 0.038,0.0239 0.057,0.0359 0.019,0.012 0.038,0.024 0.057,0.036 0.019,0.012 0.038,0.024 0.057,0.0361 0.019,0.0121 0.038,0.0241 0.057,0.0362 0.019,0.0121 0.038,0.0242 0.056,0.0364 0.019,0.0121 0.038,0.0243 0.057,0.0364 0.019,0.0122 0.038,0.0244 0.057,0.0366 0.019,0.0122 0.038,0.0244 0.057,0.0367 0.019,0.0122 0.038,0.0245 0.057,0.0368 0.019,0.0123 0.038,0.0246 0.057,0.0369 0.018,0.0123 0.037,0.0247 0.056,0.037 0.019,0.0124 0.038,0.0248 0.057,0.0372 0.019,0.0123 0.038,0.0248 0.057,0.0372 0.019,0.0124 0.038,0.0249 0.057,0.0374 0.019,0.0124 0.038,0.0249 0.057,0.0374 0.019,0.0126 0.037,0.0251 0.056,0.0376 0.019,0.0126 0.038,0.0252 0.057,0.0377 0.019,0.0126 0.038,0.0252 0.057,0.0379 0.019,0.0126 0.038,0.0252 0.057,0.0379 0.019,0.0127 0.038,0.0253 0.057,0.038 0.019,0.0127 0.038,0.0255 0.057,0.0382 0.018,0.0127 0.037,0.0255 0.056,0.0383 0.019,0.0128 0.038,0.0256 0.057,0.0384 0.019,0.0128 0.038,0.0256 0.057,0.0385 0.019,0.0128 0.038,0.0257 0.057,0.0386 0.019,0.0129 0.038,0.0258 0.057,0.0387 0.019,0.013 0.037,0.0259 0.056,0.0389 0.019,0.0129 0.038,0.0259 0.057,0.0389 0.019,0.013 0.038,0.0261 0.057,0.0391 0.019,0.013 0.038,0.0261 0.057,0.0392 0.019,0.0131 0.038,0.0262 0.057,0.0393 0.019,0.0131 0.038,0.0262 0.056,0.0394 0.019,0.0131 0.038,0.0263 0.057,0.0395 0.019,0.0132 0.038,0.0264 0.057,0.0397 0.019,0.0132 0.038,0.0264 0.057,0.0397 0.019,0.0133 0.038,0.0266 0.057,0.0399 0.019,0.0133 0.038,0.0266 0.057,0.04 0.018,0.0133 0.037,0.0267 0.056,0.0401 0.019,0.0133 0.038,0.0267 0.057,0.0402 0.019,0.0134 0.038,0.0268 0.057,0.0403 0.019,0.0134 0.038,0.0269 0.057,0.0404 0.019,0.0135 0.038,0.027 0.057,0.0406 0.019,0.0135 0.038,0.0271 0.056,0.0406 0.019,0.0136 0.038,0.0272 0.057,0.0408 0.019,0.0136 0.038,0.0273 0.057,0.0409 0.019,0.0137 0.038,0.0273 0.057,0.041 0.019,0.0137 0.038,0.0274 0.057,0.0411 0.019,0.0138 0.038,0.0275 0.057,0.0413 0.018,0.0137 0.037,0.0275 0.056,0.0413 0.019,0.0138 0.038,0.0276 0.057,0.0415 0.019,0.0138 0.038,0.0277 0.057,0.0415 0.019,0.0139 0.038,0.0278 0.057,0.0417 0.019,0.0139 0.038,0.0279 0.057,0.0418 0.019,0.014 0.037,0.028 0.056,0.0419 0.019,0.014 0.038,0.028 0.057,0.0421 0.019,0.014 0.038,0.0281 0.057,0.0421 0.019,0.0141 0.038,0.0282 0.057,0.0423 0.019,0.0141 0.038,0.0282 0.057,0.0423 0.019,0.0142 0.038,0.0283 0.056,0.0425 0.019,0.0142 0.038,0.0284 0.057,0.0426 0.019,0.0142 0.038,0.0285 0.057,0.0427 0.019,0.0143 0.038,0.0286 0.057,0.0429 0.019,0.0143 0.038,0.0286 0.057,0.0429 0.019,0.0143 0.038,0.0287 0.057,0.0431 0.019,0.0143 0.037,0.0287 0.056,0.0431 0.019,0.0144 0.038,0.0289 0.057,0.0433 0.019,0.0144 0.038,0.0289 0.057,0.0434 0.019,0.0145 0.038,0.029 0.057,0.0435 0.019,0.0145 0.038,0.0291 0.057,0.0436 0.019,0.0146 0.038,0.0292 0.056,0.0438 0.019,0.0146 0.038,0.0292 0.057,0.0438 0.019,0.0146 0.038,0.0293 0.057,0.044 0.019,0.0146 0.038,0.0293 0.057,0.044 0.019,0.0148 0.038,0.0295 0.057,0.0442 0.019,0.0148 0.038,0.0296 0.057,0.0443 0.018,0.0148 0.037,0.0296 0.056,0.0445 0.019,0.0148 0.038,0.0296 0.057,0.0445 0.019,0.0148 0.038,0.0297 0.057,0.0446 0.019,0.0149 0.038,0.0299 0.057,0.0448 0.019,0.0149 0.038,0.0299 0.057,0.0449 0.019,0.0149 0.038,0.0299 0.056,0.0449 0.019,0.0151 0.038,0.0301 0.057,0.0451 0.019,0.0151 0.038,0.0302 0.057,0.0453 0.019,0.0151 0.038,0.0302 0.057,0.0453 0.019,0.0151 0.038,0.0303 0.057,0.0454 0.019,0.0152 0.038,0.0304 0.057,0.0456 0.018,0.0152 0.037,0.0304 0.056,0.0457 0.019,0.0152 0.038,0.0305 0.057,0.0457 0.019,0.0153 0.038,0.0306 0.057,0.0459 0.019,0.0153 0.038,0.0307 0.057,0.046 0.019,0.0154 0.038,0.0308 0.057,0.0462 0.019,0.0154 0.037,0.0308 0.056,0.0462 0.019,0.0154 0.038,0.0309 0.057,0.0464 0.019,0.0154 0.038,0.0309 0.057,0.0464 0.019,0.0155 0.038,0.0311 0.057,0.0466 0.019,0.0155 0.038,0.0311 0.057,0.0467 0.019,0.0156 0.038,0.0312 0.056,0.0468 0.019,0.0156 0.038,0.0313 0.057,0.0469 0.019,0.0157 0.038,0.0314 0.057,0.047 0.019,0.0157 0.038,0.0315 0.057,0.0472 0.019,0.0157 0.038,0.0315 0.057,0.0473 0.019,0.0157 0.038,0.0315 0.057,0.0473 0.019,0.0158 0.037,0.0317 0.056,0.0475 0.019,0.0159 0.038,0.0317 0.057,0.0476 0.019,0.0159 0.038,0.0318 0.057,0.0477 0.019,0.016 0.038,0.0319 0.057,0.0479 0.019,0.0159 0.038,0.0319 0.057,0.0479 0.019,0.016 0.038,0.032 0.056,0.0481 0.019,0.016 0.038,0.0321 0.057,0.0481 0.019,0.0161 0.038,0.0322 0.057,0.0483 0.019,0.0161 0.038,0.0323 0.057,0.0484 0.019,0.0162 0.038,0.0323 0.057,0.0485 0.019,0.0162 0.038,0.0324 0.057,0.0487 0.018,0.0162 0.037,0.0324 0.056,0.0487 0.019,0.0163 0.038,0.0326 0.057,0.0489 0.019,0.0163 0.038,0.0326 0.057,0.0489 0.019,0.0164 0.038,0.0327 0.057,0.0491 0.019,0.0164 0.038,0.0328 0.057,0.0492 0.019,0.0164 0.037,0.0329 0.056,0.0493 0.019,0.0165 0.038,0.0329 0.057,0.0494 0.019,0.0165 0.038,0.033 0.057,0.0496 0.019,0.0165 0.038,0.033 0.057,0.0496 0.019,0.0166 0.038,0.0332 0.057,0.0498 0.019,0.0166 0.038,0.0332 0.057,0.0499 0.018,0.0166 0.037,0.0333 0.056,0.0499 0.019,0.0167 0.038,0.0334 0.057,0.0502 0.019,0.0167 0.038,0.0334 0.057,0.0502 0.019,0.0167 0.038,0.0335 0.057,0.0503 0.019,0.0168 0.038,0.0336 0.057,0.0504 0.019,0.0169 0.037,0.0337 0.056,0.0506 0.019,0.0169 0.038,0.0338 0.057,0.0507 0.019,0.0169 0.038,0.0338 0.057,0.0508 0.019,0.0169 0.038,0.0339 0.057,0.0509 0.019,0.017 0.038,0.034 0.057,0.051 0.019,0.017 0.038,0.034 0.056,0.0511 0.019,0.0171 0.038,0.0342 0.057,0.0513 0.019,0.0171 0.038,0.0342 0.057,0.0513 0.019,0.0171 0.038,0.0343 0.057,0.0515 0.019,0.0172 0.038,0.0343 0.057,0.0516 0.019,0.0172 0.038,0.0344 0.057,0.0517 0.019,0.0172 0.037,0.0345 0.056,0.0518 0.019,0.0173 0.038,0.0346 0.057,0.0519 0.019,0.0173 0.038,0.0347 0.057,0.052 0.019,0.0174 0.038,0.0348 0.057,0.0522 0.019,0.0174 0.038,0.0348 0.057,0.0523 0.019,0.0174 0.038,0.0349 0.056,0.0523 0.019,0.0175 0.038,0.035 0.057,0.0525 0.019,0.0175 0.038,0.0351 0.057,0.0526 0.019,0.0176 0.038,0.0352 0.057,0.0528 0.019,0.0175 0.038,0.0352 0.057,0.0528 0.019,0.0176 0.038,0.0353 0.057,0.0529 0.018,0.0177 0.037,0.0354 0.056,0.0531 0.019,0.0177 0.038,0.0354 0.057,0.0532 0.019,0.0177 0.038,0.0355 0.057,0.0533 0.019,0.0177 0.038,0.0355 0.057,0.0534 0.019,0.0178 0.038,0.0356 0.057,0.0535 0.019,0.0178 0.037,0.0357 0.056,0.0536 0.019,0.0179 0.038,0.0358 0.057,0.0538 0.019,0.0179 0.038,0.0358 0.057,0.0538 0.019,0.018 0.038,0.036 0.057,0.054 0.019,0.018 0.038,0.036 0.057,0.0541 0.019,0.018 0.038,0.0361 0.057,0.0542 0.018,0.0181 0.037,0.0362 0.056,0.0543 0.019,0.0181 0.038,0.0363 0.057,0.0544 0.019,0.0182 0.038,0.0364 0.057,0.0546 0.019,0.0182 0.038,0.0364 0.057,0.0546 0.019,0.0182 0.038,0.0365 0.057,0.0548 0.019,0.0183 0.037,0.0365 0.056,0.0549 0.019,0.0183 0.038,0.0366 0.057,0.055 0.019,0.0183 0.038,0.0367 0.057,0.0551 0.019,0.0184 0.038,0.0368 0.057,0.0552 0.019,0.0184 0.038,0.0369 0.057,0.0553 0.019,0.0185 0.038,0.037 0.056,0.0555 0.019,0.0185 0.038,0.037 0.057,0.0555 0.019,0.0186 0.038,0.0371 0.057,0.0557 0.019,0.0186 0.038,0.0372 0.057,0.0558 0.019,0.0186 0.038,0.0373 0.057,0.0559 0.019,0.0187 0.038,0.0373 0.057,0.056 0.018,0.0187 0.037,0.0374 0.056,0.0562 0.019,0.0187 0.038,0.0374 0.057,0.0562 0.019,0.0188 0.038,0.0376 0.057,0.0564 0.019,0.0188 0.038,0.0376 0.057,0.0564 0.019,0.0189 0.038,0.0378 0.057,0.0566 0.019,0.0189 0.038,0.0378 0.056,0.0567 0.019,0.019 0.038,0.0379 0.057,0.0569 0.019,0.0189 0.038,0.0379 0.057,0.0569 0.019,0.019 0.038,0.038 0.057,0.057 0.019,0.0191 0.038,0.0381 0.057,0.0572 0.019,0.0191 0.038,0.0381 0.057,0.0573 0.018,0.0191 0.037,0.0382 0.056,0.0573 0.019,0.0192 0.038,0.0384 0.057,0.0575 0.019,0.0192 0.038,0.0384 0.057,0.0576 0.019,0.0193 0.038,0.0385 0.057,0.0578 0.019,0.0192 0.038,0.0385 0.057,0.0578 0.019,0.0193 0.037,0.0386 0.056,0.058 0.019,0.0193 0.038,0.0387 0.057,0.058 0.019,0.0194 0.038,0.0388 0.057,0.0582 0.019,0.0194 0.038,0.0389 0.057,0.0583 0.019,0.0195 0.038,0.0389 0.057,0.0584 0.019,0.0195 0.038,0.039 0.056,0.0585 0.019,0.0196 0.038,0.0391 0.057,0.0587 0.019,0.0195 0.038,0.0391 0.057,0.0587 0.019,0.0196 0.038,0.0392 0.057,0.0589 0.019,0.0196 0.038,0.0393 0.057,0.059 0.019,0.0196 0.038,0.0393 0.057,0.0591 0.019,0.0197 0.037,0.0394 0.056,0.0592 0.019,0.0197 0.038,0.0395 0.057,0.0593 0.019,0.0198 0.038,0.0396 0.057,0.0594 0.019,0.0198 0.038,0.0397 0.057,0.0596 0.019,0.0198 0.038,0.0397 0.057,0.0596 0.019,0.0199 0.038,0.0398 0.056,0.0598 0.019,0.0199 0.038,0.0399 0.057,0.0599 0.019,0.02 0.038,0.04 0.057,0.06 0.019,0.02 0.038,0.04 0.057,0.0601 0.019,0.02 0.038,0.0401 0.057,0.0602 0.019,0.0201 0.038,0.0402 0.057,0.0604 0.018,0.0201 0.037,0.0402 0.056,0.0604 0.019,0.0202 0.038,0.0404 0.057,0.0606 0.019,0.0202 0.038,0.0404 0.057,0.0607 0.019,0.0202 0.038,0.0405 0.057,0.0608 0.019,0.0202 0.038,0.0405 0.057,0.0609 0.019,0.0203 0.038,0.0406 0.056,0.061 0.019,0.0204 0.038,0.0407 0.057,0.0611 0.019,0.0204 0.038,0.0408 0.057,0.0613 0.019,0.0204 0.038,0.0409 0.057,0.0613 0.019,0.0205 0.038,0.041 0.057,0.0615 0.019,0.0205 0.038,0.0411 0.057,0.0616 0.018,0.0206 0.037,0.0411 0.056,0.0617 0.019,0.0206 0.038,0.0412 0.057,0.0618 0.019,0.0207 0.038,0.0413 0.057,0.062 0.019,0.0206 0.038,0.0413 0.057,0.062 0.019,0.0207 0.038,0.0415 0.057,0.0622 0.019,0.0207 0.037,0.0415 0.056,0.0623 0.019,0.0207 0.038,0.0415 0.057,0.0624 0.019,0.0208 0.038,0.0416 0.057,0.0625 0.019,0.0208 0.038,0.0417 0.057,0.0626 0.019,0.0209 0.038,0.0418 0.057,0.0627 0.019,0.0209 0.038,0.0419 0.056,0.0629 0.019,0.0209 0.038,0.0419 0.057,0.0629 0.019,0.021 0.038,0.042 0.057,0.0631 0.019,0.021 0.038,0.0421 0.057,0.0632 0.019,0.021 0.038,0.0421 0.057,0.0633 0.019,0.0211 0.038,0.0422 0.057,0.0634 0.019,0.0211 0.037,0.0423 0.056,0.0635 0.019,0.0212 0.038,0.0424 0.057,0.0636 0.019,0.0213 0.038,0.0425 0.057,0.0638 0.019,0.0213 0.038,0.0426 0.057,0.0639 0.019,0.0213 0.038,0.0426 0.057,0.0639 0.019,0.0214 0.038,0.0428 0.056,0.0641 0.019,0.0214 0.038,0.0428 0.057,0.0643 0.019,0.0214 0.038,0.0428 0.057,0.0643 0.019,0.0214 0.038,0.0429 0.057,0.0644 0.019,0.0215 0.038,0.043 0.057,0.0646 0.019,0.0215 0.038,0.0431 0.057,0.0646 0.018,0.0216 0.037,0.0432 0.056,0.0648 0.019,0.0216 0.038,0.0432 0.057,0.0649 0.019,0.0216 0.038,0.0433 0.057,0.065 0.019,0.0217 0.038,0.0434 0.057,0.0651 0.019,0.0217 0.038,0.0435 0.057,0.0653 0.019,0.0217 0.037,0.0435 0.056,0.0653 0.019,0.0218 0.038,0.0436 0.057,0.0655 0.019,0.0218 0.038,0.0437 0.057,0.0655 0.019,0.0219 0.038,0.0438 0.057,0.0657 0.019,0.0219 0.038,0.0439 0.057,0.0658 0.019,0.022 0.038,0.0439 0.057,0.0659 0.018,0.022 0.037,0.044 0.056,0.0661 0.019,0.022 0.038,0.044 0.057,0.0661 0.019,0.0221 0.038,0.0442 0.057,0.0663 0.019,0.0221 0.038,0.0442 0.057,0.0663 0.019,0.0222 0.038,0.0443 0.057,0.0665 0.019,0.0222 0.037,0.0444 0.056,0.0666 0.019,0.0222 0.038,0.0445 0.057,0.0667 0.019,0.0223 0.038,0.0446 0.057,0.0669 0.019,0.0222 0.038,0.0446 0.057,0.0669 0.019,0.0223 0.038,0.0447 0.057,0.067 0.019,0.0224 0.038,0.0448 0.056,0.0672 0.019,0.0224 0.038,0.0448 0.057,0.0673 0.019,0.0224 0.038,0.0449 0.057,0.0674 0.019,0.0225 0.038,0.045 0.057,0.0675 0.019,0.0225 0.038,0.0451 0.057,0.0676 0.019,0.0226 0.038,0.0452 0.057,0.0678 0.019,0.0225 0.037,0.0452 0.056,0.0678 0.019,0.0226 0.038,0.0453 0.057,0.068 0.019,0.0226 0.038,0.0453 0.057,0.068 0.019,0.0227 0.038,0.0455 0.057,0.0682 0.019,0.0228 0.038,0.0455 0.057,0.0683 0.019,0.0228 0.038,0.0456 0.056,0.0684 0.019,0.0229 0.038,0.0457 0.057,0.0686 0.019,0.0228 0.038,0.0457 0.057,0.0686 0.019,0.0229 0.038,0.0458 0.057,0.0688 0.019,0.0229 0.038,0.0459 0.057,0.0689 0.019,0.0229 0.038,0.0459 0.057,0.0689 0.018,0.0231 0.037,0.0461 0.056,0.0691 0.019,0.0231 0.038,0.0462 0.057,0.0693 0.019,0.023 0.038,0.0462 0.057,0.0693 0.019,0.0231 0.038,0.0463 0.057,0.0694 0.019,0.0232 0.038,0.0464 0.057,0.0696 0.019,0.0232 0.037,0.0464 0.056,0.0697 0.019,0.0232 0.038,0.0465 0.057,0.0697 0.019,0.0233 0.038,0.0466 0.057,0.0699 0.019,0.0233 0.038,0.0467 0.057,0.07 0.019,0.0234 0.038,0.0468 0.057,0.0702 0.019,0.0234 0.038,0.0468 0.057,0.0702 0.018,0.0234 0.037,0.0469 0.056,0.0704 0.019,0.0234 0.038,0.0469 0.057,0.0704 0.019,0.0235 0.038,0.0471 0.057,0.0706 0.019,0.0235 0.038,0.0471 0.057,0.0707 0.019,0.0236 0.038,0.0472 0.057,0.0708 0.019,0.0236 0.037,0.0473 0.056,0.0709 0.019,0.0237 0.038,0.0474 0.057,0.071 0.019,0.0237 0.038,0.0475 0.057,0.0712 0.019,0.0237 0.038,0.0475 0.057,0.0713 0.019,0.0237 0.038,0.0475 0.057,0.0713 0.019,0.0238 0.038,0.0477 0.056,0.0715 0.019,0.0239 0.038,0.0477 0.057,0.0716 0.019,0.0239 0.038,0.0478 0.057,0.0717 0.019,0.024 0.038,0.0479 0.057,0.0719 0.019,0.0239 0.038,0.0479 0.057,0.0719 0.019,0.024 0.038,0.048 0.057,0.0721 0.018,0.024 0.037,0.0481 0.056,0.0721 0.019,0.0241 0.038,0.0482 0.057,0.0723 0.019,0.0241 0.038,0.0483 0.057,0.0724 0.019,0.0242 0.038,0.0483 0.057,0.0725 0.019,0.0242 0.038,0.0484 0.057,0.0727 0.019,0.0242 0.038,0.0484 0.056,0.0727 0.019,0.0243 0.038,0.0486 0.057,0.0729 0.019,0.0243 0.038,0.0486 0.057,0.0729 0.019,0.0244 0.038,0.0487 0.057,0.0731 0.019,0.0244 0.038,0.0489 0.057,0.0729 0.019,0.025 0.038,0.049 0.057,0.074 0.018,0.024 0.037,0.049 0.056,0.073 0.019,0.025 0.038,0.049 0.057,0.074 0.019,0.024 0.038,0.049 0.057,0.073 0.019,0.025 0.038,0.049 0.057,0.074 0.019,0.025 0.038,0.049 0.057,0.074 0.019,0.025 0.037,0.049 0.056,0.074 0.019,0.025 0.038,0.049 0.057,0.074 0.019,0.025 0.038,0.049 0.057,0.074 0.019,0.025 0.038,0.05 0.057,0.075 0.019,0.024 0.038,0.049 0.057,0.074 0.019,0.025 0.038,0.05 0.057,0.075 0.018,0.024 0.037,0.049 0.056,0.074 0.019,0.025 0.038,0.05 0.057,0.075 0.019,0.025 0.038,0.05 0.057,0.075 0.019,0.025 0.038,0.05 0.057,0.075 0.019,0.025 0.038,0.05 0.057,0.075 0.019,0.025 0.037,0.05 0.056,0.075 0.019,0.025 0.038,0.05 0.057,0.076 0.019,0.025 0.038,0.05 0.057,0.075 0.019,0.025 0.038,0.05 0.057,0.076 0.019,0.025 0.038,0.05 0.057,0.075 0.019,0.026 0.038,0.051 0.056,0.076 0.019,0.025 0.038,0.051 0.057,0.076 0.019,0.025 0.038,0.051 0.057,0.076 0.019,0.026 0.038,0.051 0.057,0.076 0.019,0.026 0.038,0.051 0.057,0.077 0.019,0.025 0.038,0.05 0.057,0.076 0.018,0.025 0.037,0.051 0.056,0.076 0.019,0.026 0.038,0.051 0.057,0.077 0.019,0.026 0.038,0.051 0.057,0.077 0.019,0.025 0.038,0.051 0.057,0.077 0.019,0.025 0.038,0.051 0.057,0.077 0.019,0.025 0.038,0.051 0.056,0.077 0.019,0.025 0.038,0.051 0.057,0.077 0.019,0.026 0.038,0.051 0.057,0.077 0.019,0.026 0.038,0.052 0.057,0.077 0.019,0.026 0.038,0.052 0.057,0.078 0.019,0.026 0.038,0.052 0.057,0.078 0.018,0.026 0.037,0.051 0.056,0.077 0.019,0.026 0.038,0.052 0.057,0.078 0.019,0.026 0.038,0.052 0.057,0.078 0.019,0.026 0.038,0.052 0.057,0.078 0.019,0.026 0.038,0.052 0.057,0.078 0.019,0.027 0.037,0.053 0.056,0.079 0.019,0.026 0.038,0.052 0.057,0.078 0.019,0.026 0.038,0.053 0.057,0.079 0.019,0.026 0.038,0.052 0.057,0.078 0.019,0.027 0.038,0.053 0.057,0.079 0.019,0.026 0.038,0.053 0.056,0.079 0.019,0.026 0.038,0.053 0.057,0.079 0.019,0.026 0.038,0.053 0.057,0.079 0.019,0.027 0.038,0.053 0.057,0.079 0.019,0.027 0.038,0.053 0.057,0.08 0.019,0.026 0.038,0.053 0.057,0.079 0.019,0.027 0.037,0.053 0.056,0.08 0.019,0.026 0.038,0.053 0.057,0.079 0.019,0.027 0.038,0.054 0.057,0.08 0.019,0.027 0.038,0.053 0.057,0.08 0.019,0.027 0.038,0.053 0.057,0.08 0.019,0.027 0.038,0.054 0.056,0.08 0.019,0.027 0.038,0.054 0.057,0.081 0.019,0.026 0.038,0.053 0.057,0.08 0.019,0.027 0.038,0.054 0.057,0.08 0.019,0.027 0.038,0.054 0.057,0.081 0.019,0.027 0.038,0.054 0.057,0.081 0.018,0.027 0.037,0.054 0.056,0.08 0.019,0.027 0.038,0.054 0.057,0.081 0.019,0.027 0.038,0.054 0.057,0.081 0.019,0.027 0.038,0.055 0.057,0.082 0.019,0.027 0.038,0.054 0.057,0.081 0.019,0.027 0.037,0.054 0.056,0.081 0.019,0.027 0.038,0.055 0.057,0.082 0.019,0.027 0.038,0.054 0.057,0.081 0.019,0.028 0.038,0.055 0.057,0.082 0.019,0.027 0.038,0.055 0.057,0.082 0.019,0.027 0.038,0.055 0.057,0.082 0.018,0.027 0.037,0.055 0.056,0.082 0.019,0.027 0.038,0.055 0.057,0.082 0.019,0.028 0.038,0.055 0.057,0.082 0.019,0.028 0.038,0.055 0.057,0.083 0.019,0.027 0.038,0.055 0.057,0.082 0.019,0.028 0.037,0.055 0.056,0.083 0.019,0.028 0.038,0.055 0.057,0.083 0.019,0.027 0.038,0.055 0.057,0.083 0.019,0.027 0.038,0.055 0.057,0.083 0.019,0.027 0.038,0.055 0.057,0.083 0.019,0.027 0.038,0.055 0.056,0.083 0.019,0.028 0.038,0.055 0.057,0.083 0.019,0.028 0.038,0.056 0.057,0.084 0.019,0.027 0.038,0.055 0.057,0.083 0.019,0.028 0.038,0.056 0.057,0.084 0.019,0.028 0.038,0.056 0.057,0.084 0.019,0.028 0.037,0.056 0.056,0.083 0.019,0.028 0.038,0.056 0.057,0.084 0.019,0.029 0.038,0.057 0.057,0.085 0.019,0.028 0.038,0.056 0.057,0.084 0.019,0.028 0.038,0.056 0.057,0.084 0.019,0.028 0.038,0.056 0.056,0.085 0.019,0.028 0.038,0.056 0.057,0.084 0.019,0.028 0.038,0.057 0.057,0.085 0.019,0.028 0.038,0.056 0.057,0.085 0.019,0.028 0.038,0.056 0.057,0.085 0.019,0.028 0.038,0.056 0.057,0.085 0.018,0.028 0.037,0.056 0.056,0.085 0.019,0.028 0.038,0.057 0.057,0.085 0.019,0.028 0.038,0.057 0.057,0.085 0.019,0.029 0.038,0.057 0.057,0.086 0.019,0.028 0.038,0.057 0.057,0.085 0.019,0.029 0.037,0.058 0.056,0.086 0.019,0.029 0.038,0.057 0.057,0.086 0.019,0.029 0.038,0.057 0.057,0.086 0.019,0.029 0.038,0.057 0.057,0.086 0.019,0.029 0.038,0.057 0.057,0.086 0.019,0.029 0.038,0.058 0.057,0.086 0.018,0.029 0.037,0.058 0.056,0.087 0.019,0.029 0.038,0.057 0.057,0.086 0.019,0.029 0.038,0.058 0.057,0.087 0.019,0.029 0.038,0.058 0.057,0.087 0.019,0.029 0.038,0.058 0.057,0.086 0.019,0.029 0.037,0.058 0.056,0.087 0.019,0.029 0.038,0.058 0.057,0.088 0.019,0.029 0.038,0.058 0.057,0.087 0.019,0.029 0.038,0.058 0.057,0.087 0.019,0.029 0.038,0.058 0.057,0.087 0.019,0.03 0.038,0.059 0.056,0.088 0.019,0.029 0.038,0.058 0.057,0.088 0.019,0.029 0.038,0.058 0.057,0.087 0.019,0.03 0.038,0.059 0.057,0.088 0.019,0.03 0.038,0.059 0.057,0.088 0.019,0.03 0.038,0.059 0.057,0.088 0.018,0.03 0.037,0.059 0.056,0.088 0.019,0.03 0.038,0.059 0.057,0.089 0.019,0.029 0.038,0.059 0.057,0.088 0.019,0.03 0.038,0.059 0.057,0.089 0.019,0.029 0.038,0.059 0.057,0.088 0.019,0.03 0.038,0.06 0.056,0.089 0.019,0.03 0.038,0.059 0.057,0.089 0.019,0.03 0.038,0.059 0.057,0.089 0.019,0.03 0.038,0.06 0.057,0.089 0.019,0.03 0.038,0.06 0.057,0.089 0.019,0.03 0.038,0.06 0.057,0.09 0.018,0.03 0.037,0.059 0.056,0.089 0.019,0.03 0.038,0.06 0.057,0.09 0.019,0.03 0.038,0.06 0.057,0.09 0.019,0.029 0.038,0.059 0.057,0.089 0.019,0.03 0.038,0.06 0.057,0.09 0.019,0.03 0.037,0.06 0.056,0.09 0.019,0.03 0.038,0.06 0.057,0.09 0.019,0.031 0.038,0.061 0.057,0.091 0.019,0.03 0.038,0.06 0.057,0.09 0.019,0.03 0.038,0.06 0.057,0.091 0.019,0.03 0.038,0.06 0.057,0.09 0.018,0.03 0.037,0.061 0.056,0.091 0.019,0.03 0.038,0.06 0.057,0.091 0.019,0.03 0.038,0.06 0.057,0.091 0.019,0.03 0.038,0.06 0.057,0.091 0.019,0.03 0.038,0.06 0.057,0.091 0.019,0.03 0.037,0.061 0.056,0.091 0.019,0.031 0.038,0.061 0.057,0.092 0.019,0.03 0.038,0.061 0.057,0.091 0.019,0.031 0.038,0.061 0.057,0.092 0.019,0.03 0.038,0.061 0.057,0.091 0.019,0.031 0.038,0.062 0.056,0.092 0.019,0.031 0.038,0.062 0.057,0.092 0.019,0.031 0.038,0.062 0.057,0.092 0.019,0.031 0.038,0.062 0.057,0.092 0.019,0.031 0.038,0.062 0.057,0.093 0.019,0.031 0.038,0.061 0.057,0.092 0.018,0.031 0.037,0.062 0.056,0.093 0.019,0.031 0.038,0.061 0.057,0.092 0.019,0.031 0.038,0.062 0.057,0.093 0.019,0.031 0.038,0.062 0.057,0.093 0.019,0.031 0.038,0.062 0.057,0.093 0.019,0.031 0.038,0.062 0.056,0.093 0.019,0.031 0.038,0.062 0.057,0.093 0.019,0.031 0.038,0.062 0.057,0.094 0.019,0.031 0.038,0.062 0.057,0.093 0.019,0.031 0.038,0.062 0.057,0.094 0.019,0.031 0.038,0.062 0.057,0.093 0.018,0.032 0.037,0.063 0.056,0.094 0.019,0.031 0.038,0.063 0.057,0.094 0.019,0.031 0.038,0.063 0.057,0.094 0.019,0.031 0.038,0.063 0.057,0.094 0.019,0.031 0.038,0.063 0.057,0.094 0.019,0.032 0.037,0.063 0.056,0.095 0.019,0.031 0.038,0.063 0.057,0.094 0.019,0.032 0.038,0.063 0.057,0.095 0.019,0.031 0.038,0.063 0.057,0.094 0.019,0.032 0.038,0.064 0.057,0.095 0.019,0.032 0.038,0.063 0.056,0.095 0.019,0.032 0.038,0.063 0.057,0.095 0.019,0.032 0.038,0.064 0.057,0.095 0.019,0.032 0.038,0.064 0.057,0.096 0.019,0.031 0.038,0.063 0.057,0.095 0.019,0.032 0.038,0.064 0.057,0.095 0.019,0.032 0.037,0.064 0.056,0.096 0.019,0.032 0.038,0.064 0.057,0.096 0.019,0.032 0.038,0.064 0.057,0.096 0.019,0.032 0.038,0.064 0.057,0.096 0.019,0.032 0.038,0.064 0.057,0.096 0.019,0.032 0.038,0.064 0.056,0.096 0.019,0.032 0.038,0.064 0.057,0.096 0.019,0.032 0.038,0.064 0.057,0.096 0.019,0.033 0.038,0.065 0.057,0.097 0.019,0.032 0.038,0.064 0.057,0.097 0.019,0.032 0.038,0.064 0.057,0.096 0.018,0.033 0.037,0.065 0.056,0.097 0.019,0.033 0.038,0.065 0.057,0.097 0.019,0.033 0.038,0.065 0.057,0.097 0.019,0.033 0.038,0.065 0.057,0.097 0.019,0.033 0.038,0.065 0.057,0.098 0.019,0.032 0.038,0.065 0.056,0.097 0.019,0.033 0.038,0.065 0.057,0.098 0.019,0.032 0.038,0.065 0.057,0.097 0.019,0.033 0.038,0.066 0.057,0.098 0.019,0.033 0.038,0.065 0.057,0.098 0.019,0.033 0.038,0.065 0.057,0.098 0.018,0.033 0.037,0.065 0.056,0.098 0.019,0.033 0.038,0.066 0.057,0.098 0.019,0.033 0.038,0.066 0.057,0.099 0.019,0.032 0.038,0.065 0.057,0.098 0.019,0.033 0.038,0.066 0.057,0.099 0.019,0.033 0.037,0.065 0.056,0.098 0.019,0.033 0.038,0.066 0.057,0.099 0.019,0.033 0.038,0.066 0.057,0.099 0.019,0.033 0.038,0.066 0.057,0.099 0.019,0.033 0.038,0.066 0.057,0.099 0.019,0.033 0.038,0.066 0.056,0.099 0.019,0.034 0.038,0.067 0.057,0.1 0.019,0.033 0.038,0.066 0.057,0.099 0.019,0.033 0.038,0.067 0.057,0.1 0.019,0.033 0.038,0.066 0.057,0.1 0.019,0.033 0.038,0.066 0.057,0.099 0.019,0.034 0.037,0.067 0.056,0.1 0.019,0.034 0.038,0.067 0.057,0.1 0.019,0.034 0.038,0.067 0.057,0.1 0.019,0.034 0.038,0.067 0.057,0.101 0.019,0.033 0.038,0.067 0.057,0.1 0.019,0.034 0.038,0.067 0.056,0.101 0.019,0.033 0.038,0.067 0.057,0.1 0.019,0.034 0.038,0.067 0.057,0.101 0.019,0.034 0.038,0.067 0.057,0.101 0.019,0.033 0.038,0.067 0.057,0.101 0.019,0.033 0.038,0.067 0.057,0.101 0.018,0.033 0.037,0.067 0.056,0.101 0.019,0.034 0.038,0.067 0.057,0.101 0.019,0.034 0.038,0.068 0.057,0.102 0.019,0.033 0.038,0.067 0.057,0.101 0.019,0.034 0.038,0.068 0.057,0.102 0.019,0.034 0.037,0.068 0.056,0.102 0.019,0.033 0.038,0.067 0.057,0.101 0.019,0.034 0.038,0.068 0.057,0.102 0.019,0.034 0.038,0.068 0.057,0.102 0.019,0.034 0.038,0.069 0.057,0.103 0.019,0.034 0.038,0.068 0.057,0.102 0.018,0.034 0.037,0.068 0.056,0.102 0.019,0.035 0.038,0.069 0.057,0.103 0.019,0.034 0.038,0.068 0.057,0.103 0.019,0.034 0.038,0.068 0.057,0.102 0.019,0.035 0.038,0.069 0.057,0.103 0.019,0.035 0.037,0.069 0.056,0.103 0.019,0.035 0.038,0.069 0.057,0.103 0.019,0.035 0.038,0.069 0.057,0.104 0.019,0.034 0.038,0.068 0.057,0.103 0.019,0.034 0.038,0.069 0.057,0.103 0.019,0.035 0.038,0.069 0.056,0.104 0.019,0.034 0.038,0.069 0.057,0.104 0.019,0.034 0.038,0.069 0.057,0.103 0.019,0.035 0.038,0.07 0.057,0.104 0.019,0.035 0.038,0.07 0.057,0.104 0.019,0.035 0.038,0.07 0.057,0.104 0.018,0.035 0.037,0.07 0.056,0.105 0.019,0.034 0.038,0.069 0.057,0.104 0.019,0.035 0.038,0.07 0.057,0.105 0.019,0.034 0.038,0.069 0.057,0.104 0.019,0.035 0.038,0.07 0.057,0.105 0.019,0.035 0.038,0.07 0.056,0.105 0.019,0.035 0.038,0.07 0.057,0.105 0.019,0.035 0.038,0.07 0.057,0.105 0.019,0.035 0.038,0.07 0.057,0.105 0.019,0.035 0.038,0.07 0.057,0.105 0.019,0.035 0.038,0.07 0.057,0.105 0.018,0.036 0.037,0.071 0.056,0.106 0.019,0.035 0.038,0.07 0.057,0.106 0.019,0.035 0.038,0.07 0.057,0.105 0.019,0.036 0.038,0.071 0.057,0.106 0.019,0.035 0.038,0.071 0.057,0.106 0.019,0.035 0.037,0.071 0.056,0.106 0.019,0.035 0.038,0.071 0.057,0.106 0.019,0.036 0.038,0.071 0.057,0.107 0.019,0.035 0.038,0.071 0.057,0.106 0.019,0.035 0.038,0.071 0.057,0.107 0.019,0.035 0.038,0.071 0.057,0.106 0.018,0.036 0.037,0.071 0.056,0.107 0.019,0.036 0.038,0.071 0.057,0.107 0.019,0.035 0.038,0.071 0.057,0.107 0.019,0.035 0.038,0.071 0.057,0.107 0.019,0.036 0.038,0.071 0.057,0.107 0.019,0.036 0.037,0.072 0.056,0.107 0.019,0.036 0.038,0.072 0.057,0.108 0.019,0.036 0.038,0.071 0.057,0.107 0.019,0.036 0.038,0.072 0.057,0.108 0.019,0.036 0.038,0.072 0.057,0.108 0.019,0.036 0.038,0.072 0.056,0.108 0.019,0.036 0.038,0.072 0.057,0.108 0.019,0.036 0.038,0.072 0.057,0.108 0.019,0.036 0.038,0.072 0.057,0.108 0.019,0.036 0.038,0.072 0.057,0.108 0.019,0.036 0.038,0.073 0.057,0.109 0.018,0.036 0.037,0.072 0.056,0.108 0.019,0.037 0.038,0.073 0.057,0.109 0.019,0.036 0.038,0.073 0.057,0.109 0.019,0.036 0.038,0.072 0.057,0.109 0.019,0.036 0.038,0.072 0.057,0.109 0.019,0.036 0.038,0.073 0.056,0.109 0.019,0.036 0.038,0.073 0.057,0.109 0.019,0.037 0.038,0.073 0.057,0.11 0.019,0.036 0.038,0.073 0.057,0.109 0.019,0.037 0.038,0.073 0.057,0.11 0.019,0.036 0.038,0.073 0.057,0.109 0.018,0.037 0.037,0.074 0.056,0.11 0.019,0.037 0.038,0.073 0.057,0.11 0.019,0.037 0.038,0.073 0.057,0.11 0.019,0.037 0.038,0.074 0.057,0.11 0.019,0.037 0.038,0.074 0.057,0.111 0.019,0.036 0.037,0.073 0.056,0.11 0.019,0.037 0.038,0.074 0.057,0.11 0.019,0.037 0.038,0.074 0.057,0.111 0.019,0.037 0.038,0.074 0.057,0.111 0.019,0.037 0.038,0.074 0.057,0.111 0.019,0.037 0.038,0.074 0.056,0.111 0.019,0.037 0.038,0.074 0.057,0.111 0.019,0.037 0.038,0.074 0.057,0.111 0.019,0.037 0.038,0.074 0.057,0.111 0.019,0.037 0.038,0.074 0.057,0.112 0.019,0.037 0.038,0.074 0.057,0.111 0.019,0.037 0.037,0.075 0.056,0.112 0.019,0.037 0.038,0.074 0.057,0.111 0.019,0.038 0.038,0.075 0.057,0.112 0.019,0.038 0.038,0.075 0.057,0.112 0.019,0.038 0.038,0.075 0.057,0.112 0.019,0.038 0.038,0.075 0.056,0.113 0.019,0.037 0.038,0.075 0.057,0.112 0.019,0.037 0.038,0.075 0.057,0.112 0.019,0.038 0.038,0.075 0.057,0.113 0.019,0.037 0.038,0.075 0.057,0.113 0.019,0.037 0.038,0.075 0.057,0.112 0.018,0.038 0.037,0.076 0.056,0.113 0.019,0.038 0.038,0.076 0.057,0.113 0.019,0.038 0.038,0.076 0.057,0.113 0.019,0.038 0.038,0.076 0.057,0.114 0.019,0.037 0.038,0.075 0.057,0.113 0.019,0.038 0.038,0.076 0.056,0.113 0.019,0.038 0.038,0.076 0.057,0.114"
       title="9 - x*x"
       id="path6" />
    <path
       style="fill:#ffff00;fill-opacity:0.623529;fill-rule:evenodd;stroke:#000000;stroke-width:0.6;stroke-linejoin:round;stroke-dasharray:none;marker-end:url(#Triangle)"
       d="M 57.650538,133.24027 H 166.36131"
       id="path8"
       sodipodi:nodetypes="cc" />
    <path
       style="fill:#ffff00;fill-opacity:0.623529;fill-rule:evenodd;stroke:#000000;stroke-width:0.6;stroke-linejoin:round;stroke-dasharray:none;marker-end:url(#Triangle)"
       d="M 96.947229,164.30624 V 63.82618"
       id="path9"
       sodipodi:nodetypes="cc" />
    <g
       transform="matrix(0.61000692,0,0,0.61000692,128.71522,82.76784)"
       ns1:version="1.10.2"
       ns1:texconverter="pdflatex"
       ns1:pdfconverter="inkscape"
       ns1:text="$y = 9 - x^2$"
       ns1:preamble="/Users/sachchidanandprasad/Library/Application Support/org.inkscape.Inkscape/config/inkscape/extensions/textext/default_packages.tex"
       ns1:scale="1.0"
       ns1:alignment="middle center"
       ns1:stroke-to-path="0"
       ns1:jacobian_sqrt="0.352778"
       id="g16"
       style="stroke-width:0.578318">
      <defs
         id="id-35dcd02d-3e40-452b-97b8-8096e224c361">
        <g
           id="id-156adc48-f9a9-40d1-b1f7-f4570f5a70e3">
          <g
             id="id-45b5e6e1-2058-4352-bf46-cbacf2e47c38">
            <path
               d="m -0.0625,1.796875 c -0.015625,0.0625 -0.015625,0.125 -0.015625,0.171875 0,0.4375 0.375,0.78125 0.8125,0.78125 1.0625,0 2.15625,-1.234375 2.75,-3.078125 L 4.890625,-4.71875 4.78125,-4.8125 c -0.296875,0.125 -0.53125,0.171875 -0.75,0.203125 l -0.34375,1.3125 c -0.125,0.46875 -0.46875,1.1875 -0.796875,1.6875 -0.34375,0.5 -0.84375,0.9375 -1.0625,0.9375 -0.109375,0 -0.203125,-0.21875 -0.1875,-0.46875 V -1.28125 l 0.15625,-1.921875 c 0.015625,-0.3125 0.03125,-0.6875 0.03125,-0.96875 0,-0.453125 -0.0625,-0.640625 -0.234375,-0.640625 -0.125,0 -0.265625,0.078125 -0.75,0.40625 l -0.8125,0.5625 0.109375,0.171875 0.5,-0.296875 L 0.671875,-4 c 0.109375,-0.0625 0.171875,-0.09375 0.21875,-0.09375 0.140625,0 0.21875,0.203125 0.21875,0.53125 0,0 0,0.0625 -0.015625,0.140625 L 0.921875,-1 v 0.40625 c 0,0.421875 0.171875,0.703125 0.421875,0.703125 0.375,0 1.203125,-0.84375 1.953125,-1.96875 L 2.8125,-0.15625 C 2.296875,1.609375 1.796875,2.328125 1.109375,2.328125 0.75,2.328125 0.484375,2.0625 0.484375,1.71875 0.484375,1.671875 0.5,1.578125 0.515625,1.5 L 0.40625,1.453125 Z m 0,0"
               id="id-605e79b5-e129-4835-ab73-69563043725b" />
          </g>
          <g
             id="id-4e01724f-7251-4ec7-8418-e80bfdc3e2b4">
            <path
               d="m 0.203125,-0.875 c 0,0.203125 -0.015625,0.328125 -0.078125,0.640625 -0.015625,0.125 -0.03125,0.15625 -0.03125,0.21875 0.140625,0.078125 0.3125,0.125 0.421875,0.125 0.328125,0 0.71875,-0.28125 1.03125,-0.75 l 0.75,-1.171875 0.109375,0.6875 c 0.140625,0.84375 0.359375,1.234375 0.71875,1.234375 0.21875,0 0.546875,-0.171875 0.859375,-0.453125 L 4.46875,-0.78125 4.390625,-0.984375 C 4.03125,-0.671875 3.78125,-0.53125 3.625,-0.53125 c -0.15625,0 -0.28125,-0.09375 -0.390625,-0.296875 -0.078125,-0.1875 -0.1875,-0.5625 -0.25,-0.84375 L 2.8125,-2.6875 3.15625,-3.171875 c 0.46875,-0.640625 0.734375,-0.875 1.046875,-0.875 0.15625,0 0.28125,0.078125 0.328125,0.234375 l 0.140625,-0.046875 0.15625,-0.84375 C 4.703125,-4.78125 4.609375,-4.8125 4.53125,-4.8125 c -0.40625,0 -0.796875,0.359375 -1.421875,1.28125 l -0.375,0.546875 -0.046875,-0.46875 c -0.125,-1 -0.390625,-1.359375 -0.984375,-1.359375 -0.25,0 -0.484375,0.09375 -0.5625,0.21875 L 0.5625,-3.765625 0.734375,-3.671875 C 1.03125,-4 1.21875,-4.140625 1.421875,-4.140625 c 0.328125,0 0.546875,0.40625 0.71875,1.375 L 2.25,-2.140625 1.84375,-1.53125 c -0.421875,0.671875 -0.765625,1 -1.046875,1 -0.15625,0 -0.265625,-0.046875 -0.28125,-0.09375 L 0.40625,-0.90625 Z m 0,0"
               id="id-90885d00-2ed8-480a-9fee-afb739900349" />
          </g>
          <g
             id="id-8e426560-02c3-4c0a-81e9-ae4e3cd2ecaa">
            <path
               d="m 7.125,-3.390625 c 0.15625,0 0.359375,0 0.359375,-0.203125 0,-0.21875 -0.203125,-0.21875 -0.34375,-0.21875 h -6.21875 c -0.140625,0 -0.34375,0 -0.34375,0.21875 0,0.203125 0.203125,0.203125 0.359375,0.203125 z M 7.140625,-1.375 c 0.140625,0 0.34375,0 0.34375,-0.21875 0,-0.203125 -0.203125,-0.203125 -0.359375,-0.203125 H 0.9375 c -0.15625,0 -0.359375,0 -0.359375,0.203125 0,0.21875 0.203125,0.21875 0.34375,0.21875 z m 0,0"
               id="id-40129c0c-9d4e-4669-a785-d8244fd0557f" />
          </g>
          <g
             id="id-942f6c49-27a1-4834-a9d5-aff11bea188b">
            <path
               d="m 0.953125,0.203125 c 1.109375,-0.359375 1.59375,-0.59375 2.125,-1.046875 0.96875,-0.828125 1.484375,-1.984375 1.484375,-3.3125 0,-1.6875 -0.8125,-2.71875 -2.125,-2.71875 -1.28125,0 -2.234375,1 -2.234375,2.34375 0,1.140625 0.75,1.984375 1.78125,1.984375 0.34375,0 0.734375,-0.109375 0.90625,-0.265625 L 3.59375,-3.390625 C 3.515625,-1.71875 2.421875,-0.484375 0.625,-0.046875 V 0.03125 Z m 1.4375,-6.75 c 0.453125,0 0.78125,0.203125 1,0.59375 C 3.5625,-5.625 3.6875,-5.140625 3.6875,-4.6875 c 0,0.90625 -0.53125,1.53125 -1.296875,1.53125 -0.796875,0 -1.328125,-0.71875 -1.328125,-1.75 0,-1 0.515625,-1.640625 1.328125,-1.640625 z m 0,0"
               id="id-8f08e79b-d93a-4950-b646-1dac3b6f5796" />
          </g>
          <g
             id="id-d6010c8f-1f1b-4b42-90e0-13ad27bd70b1">
            <path
               d="m 6.84375,-2.390625 c 0.171875,0 0.359375,0 0.359375,-0.203125 0,-0.203125 -0.1875,-0.203125 -0.359375,-0.203125 h -5.625 c -0.171875,0 -0.359375,0 -0.359375,0.203125 0,0.203125 0.1875,0.203125 0.359375,0.203125 z m 0,0"
               id="id-1c24249e-7e1b-462d-8efd-871f921ca344" />
          </g>
          <g
             id="id-d3adfb40-c742-40a6-b5d3-06c69867f0ef">
            <path
               d="m 0.125,-0.171875 v 0.1875 C 1.53125,0 1.53125,0 1.8125,0 2.078125,0 2.078125,0 3.546875,0.015625 3.53125,-0.140625 3.53125,-0.21875 3.53125,-0.3125 c 0,-0.109375 0,-0.1875 0.015625,-0.34375 -0.875,0.03125 -1.21875,0.046875 -2.625,0.078125 l 1.375,-1.46875 C 3.03125,-2.828125 3.265625,-3.25 3.265625,-3.8125 c 0,-0.875 -0.59375,-1.40625 -1.546875,-1.40625 -0.546875,0 -0.921875,0.15625 -1.296875,0.53125 l -0.125,1.03125 h 0.21875 l 0.09375,-0.359375 c 0.125,-0.4375 0.40625,-0.625 0.90625,-0.625 0.65625,0 1.0625,0.40625 1.0625,1.0625 0,0.5625 -0.3125,1.125 -1.171875,2.03125 z m 0,0"
               id="id-04be9d13-5fef-42de-af53-a5f14b0747f6" />
          </g>
        </g>
      </defs>
      <g
         fill="#000000"
         fill-opacity="1"
         id="id-9bf25f95-198e-4ac0-b983-2dc32a70c375"
         transform="translate(-148.759,-125.929)"
         style="stroke-width:0.578318">
        <g
           transform="translate(148.837,134.765)"
           id="g10"
           style="stroke-width:0.578318">
          <path
             d="m -0.0625,1.796875 c -0.015625,0.0625 -0.015625,0.125 -0.015625,0.171875 0,0.4375 0.375,0.78125 0.8125,0.78125 1.0625,0 2.15625,-1.234375 2.75,-3.078125 L 4.890625,-4.71875 4.78125,-4.8125 c -0.296875,0.125 -0.53125,0.171875 -0.75,0.203125 l -0.34375,1.3125 c -0.125,0.46875 -0.46875,1.1875 -0.796875,1.6875 -0.34375,0.5 -0.84375,0.9375 -1.0625,0.9375 -0.109375,0 -0.203125,-0.21875 -0.1875,-0.46875 V -1.28125 l 0.15625,-1.921875 c 0.015625,-0.3125 0.03125,-0.6875 0.03125,-0.96875 0,-0.453125 -0.0625,-0.640625 -0.234375,-0.640625 -0.125,0 -0.265625,0.078125 -0.75,0.40625 l -0.8125,0.5625 0.109375,0.171875 0.5,-0.296875 L 0.671875,-4 c 0.109375,-0.0625 0.171875,-0.09375 0.21875,-0.09375 0.140625,0 0.21875,0.203125 0.21875,0.53125 0,0 0,0.0625 -0.015625,0.140625 L 0.921875,-1 v 0.40625 c 0,0.421875 0.171875,0.703125 0.421875,0.703125 0.375,0 1.203125,-0.84375 1.953125,-1.96875 L 2.8125,-0.15625 C 2.296875,1.609375 1.796875,2.328125 1.109375,2.328125 0.75,2.328125 0.484375,2.0625 0.484375,1.71875 0.484375,1.671875 0.5,1.578125 0.515625,1.5 L 0.40625,1.453125 Z m 0,0"
             id="id-faea22c3-fa32-40f1-809d-07055bf66195"
             style="stroke-width:0.578318" />
        </g>
      </g>
      <g
         fill="#000000"
         fill-opacity="1"
         id="id-eac4a66b-7a84-4c89-a682-69dcae99988b"
         transform="translate(-148.759,-125.929)"
         style="stroke-width:0.578318">
        <g
           transform="translate(156.835,134.765)"
           id="g11"
           style="stroke-width:0.578318">
          <path
             d="m 7.125,-3.390625 c 0.15625,0 0.359375,0 0.359375,-0.203125 0,-0.21875 -0.203125,-0.21875 -0.34375,-0.21875 h -6.21875 c -0.140625,0 -0.34375,0 -0.34375,0.21875 0,0.203125 0.203125,0.203125 0.359375,0.203125 z M 7.140625,-1.375 c 0.140625,0 0.34375,0 0.34375,-0.21875 0,-0.203125 -0.203125,-0.203125 -0.359375,-0.203125 H 0.9375 c -0.15625,0 -0.359375,0 -0.359375,0.203125 0,0.21875 0.203125,0.21875 0.34375,0.21875 z m 0,0"
             id="id-cc6e8981-f308-469f-98db-8dbf5e5f1576"
             style="stroke-width:0.578318" />
        </g>
      </g>
      <g
         fill="#000000"
         fill-opacity="1"
         id="id-71ff6bd7-7357-4c95-8bd6-ccc7c94f6d6a"
         transform="translate(-148.759,-125.929)"
         style="stroke-width:0.578318">
        <g
           transform="translate(167.796,134.765)"
           id="g12"
           style="stroke-width:0.578318">
          <path
             d="m 0.953125,0.203125 c 1.109375,-0.359375 1.59375,-0.59375 2.125,-1.046875 0.96875,-0.828125 1.484375,-1.984375 1.484375,-3.3125 0,-1.6875 -0.8125,-2.71875 -2.125,-2.71875 -1.28125,0 -2.234375,1 -2.234375,2.34375 0,1.140625 0.75,1.984375 1.78125,1.984375 0.34375,0 0.734375,-0.109375 0.90625,-0.265625 L 3.59375,-3.390625 C 3.515625,-1.71875 2.421875,-0.484375 0.625,-0.046875 V 0.03125 Z m 1.4375,-6.75 c 0.453125,0 0.78125,0.203125 1,0.59375 C 3.5625,-5.625 3.6875,-5.140625 3.6875,-4.6875 c 0,0.90625 -0.53125,1.53125 -1.296875,1.53125 -0.796875,0 -1.328125,-0.71875 -1.328125,-1.75 0,-1 0.515625,-1.640625 1.328125,-1.640625 z m 0,0"
             id="id-d8534107-117f-46fc-8e68-2259e635ee38"
             style="stroke-width:0.578318" />
        </g>
      </g>
      <g
         fill="#000000"
         fill-opacity="1"
         id="id-8d29c03f-7e02-4dd8-9038-fb2d4f47c906"
         transform="translate(-148.759,-125.929)"
         style="stroke-width:0.578318">
        <g
           transform="translate(174.839,134.765)"
           id="g13"
           style="stroke-width:0.578318">
          <path
             d="m 6.84375,-2.390625 c 0.171875,0 0.359375,0 0.359375,-0.203125 0,-0.203125 -0.1875,-0.203125 -0.359375,-0.203125 h -5.625 c -0.171875,0 -0.359375,0 -0.359375,0.203125 0,0.203125 0.1875,0.203125 0.359375,0.203125 z m 0,0"
             id="id-b2c88fb7-ed2c-4818-9a61-43e88ebbbb28"
             style="stroke-width:0.578318" />
        </g>
      </g>
      <g
         fill="#000000"
         fill-opacity="1"
         id="id-81201bf6-97b4-4f83-9211-09c5ea5a40e5"
         transform="translate(-148.759,-125.929)"
         style="stroke-width:0.578318">
        <g
           transform="translate(185.264,134.765)"
           id="g14"
           style="stroke-width:0.578318">
          <path
             d="m 0.203125,-0.875 c 0,0.203125 -0.015625,0.328125 -0.078125,0.640625 -0.015625,0.125 -0.03125,0.15625 -0.03125,0.21875 0.140625,0.078125 0.3125,0.125 0.421875,0.125 0.328125,0 0.71875,-0.28125 1.03125,-0.75 l 0.75,-1.171875 0.109375,0.6875 c 0.140625,0.84375 0.359375,1.234375 0.71875,1.234375 0.21875,0 0.546875,-0.171875 0.859375,-0.453125 L 4.46875,-0.78125 4.390625,-0.984375 C 4.03125,-0.671875 3.78125,-0.53125 3.625,-0.53125 c -0.15625,0 -0.28125,-0.09375 -0.390625,-0.296875 -0.078125,-0.1875 -0.1875,-0.5625 -0.25,-0.84375 L 2.8125,-2.6875 3.15625,-3.171875 c 0.46875,-0.640625 0.734375,-0.875 1.046875,-0.875 0.15625,0 0.28125,0.078125 0.328125,0.234375 l 0.140625,-0.046875 0.15625,-0.84375 C 4.703125,-4.78125 4.609375,-4.8125 4.53125,-4.8125 c -0.40625,0 -0.796875,0.359375 -1.421875,1.28125 l -0.375,0.546875 -0.046875,-0.46875 c -0.125,-1 -0.390625,-1.359375 -0.984375,-1.359375 -0.25,0 -0.484375,0.09375 -0.5625,0.21875 L 0.5625,-3.765625 0.734375,-3.671875 C 1.03125,-4 1.21875,-4.140625 1.421875,-4.140625 c 0.328125,0 0.546875,0.40625 0.71875,1.375 L 2.25,-2.140625 1.84375,-1.53125 c -0.421875,0.671875 -0.765625,1 -1.046875,1 -0.15625,0 -0.265625,-0.046875 -0.28125,-0.09375 L 0.40625,-0.90625 Z m 0,0"
             id="id-0f823a72-835e-4abe-a36a-c8f9b4d82c36"
             style="stroke-width:0.578318" />
        </g>
      </g>
      <g
         fill="#000000"
         fill-opacity="1"
         id="id-3a21301e-3513-4d02-8949-403a7bf425e5"
         transform="translate(-148.759,-125.929)"
         style="stroke-width:0.578318">
        <g
           transform="translate(190.47,131.148)"
           id="g15"
           style="stroke-width:0.578318">
          <path
             d="m 0.125,-0.171875 v 0.1875 C 1.53125,0 1.53125,0 1.8125,0 2.078125,0 2.078125,0 3.546875,0.015625 3.53125,-0.140625 3.53125,-0.21875 3.53125,-0.3125 c 0,-0.109375 0,-0.1875 0.015625,-0.34375 -0.875,0.03125 -1.21875,0.046875 -2.625,0.078125 l 1.375,-1.46875 C 3.03125,-2.828125 3.265625,-3.25 3.265625,-3.8125 c 0,-0.875 -0.59375,-1.40625 -1.546875,-1.40625 -0.546875,0 -0.921875,0.15625 -1.296875,0.53125 l -0.125,1.03125 h 0.21875 l 0.09375,-0.359375 c 0.125,-0.4375 0.40625,-0.625 0.90625,-0.625 0.65625,0 1.0625,0.40625 1.0625,1.0625 0,0.5625 -0.3125,1.125 -1.171875,2.03125 z m 0,0"
             id="id-38741daa-9bb9-4601-b521-1cf1836b8d25"
             style="stroke-width:0.578318" />
        </g>
      </g>
    </g>
    <g
       transform="matrix(0.87999439,0,0,0.87999439,113.49167,105.2164)"
       ns1:version="1.10.2"
       ns1:texconverter="pdflatex"
       ns1:pdfconverter="inkscape"
       ns1:text="$R$"
       ns1:preamble="/Users/sachchidanandprasad/Library/Application Support/org.inkscape.Inkscape/config/inkscape/extensions/textext/default_packages.tex"
       ns1:scale="1.0"
       ns1:alignment="middle center"
       ns1:stroke-to-path="0"
       ns1:jacobian_sqrt="0.352778"
       id="g18"
       style="stroke-width:0.400886">
      <defs
         id="id-2875845e-844a-4365-8428-e20f5961310d">
        <g
           id="id-c8ebbb05-4527-4835-bf0f-01980eea606c">
          <g
             id="id-1f0e6dcd-bb1d-4805-bf8d-28bd219cdb18">
            <path
               d="m 1.046875,-6.625 0.5625,0.03125 c 0.234375,0 0.34375,0.078125 0.34375,0.265625 0,0.140625 -0.046875,0.453125 -0.09375,0.75 L 1.109375,-1.25 C 0.953125,-0.34375 0.9375,-0.3125 0.53125,-0.28125 L 0.125,-0.25 0.09375,0.03125 0.515625,0.015625 C 0.984375,0 1.171875,0 1.40625,0 L 2.375,0.03125 h 0.25 L 2.65625,-0.25 2.171875,-0.28125 C 1.90625,-0.296875 1.8125,-0.375 1.8125,-0.578125 c 0,-0.09375 0.015625,-0.171875 0.046875,-0.34375 L 2.703125,-5.78125 C 2.703125,-5.796875 2.75,-6 2.796875,-6.1875 c 0.015625,-0.078125 0.03125,-0.140625 0.0625,-0.265625 0.296875,-0.0625 0.484375,-0.09375 0.765625,-0.09375 0.859375,0 1.3125,0.390625 1.3125,1.140625 0,0.9375 -0.765625,1.640625 -1.8125,1.640625 H 2.6875 L 2.65625,-3.65625 C 4,-1.71875 4.3125,-1.234375 5.046875,0.03125 L 5.71875,0 h 0.1875 c 0,0 0.140625,0.015625 0.328125,0.03125 H 6.375 V -0.234375 C 5.96875,-0.296875 5.859375,-0.375 5.578125,-0.78125 l -1.84375,-2.75 C 4.28125,-3.625 4.578125,-3.75 4.9375,-4 c 0.578125,-0.421875 0.890625,-0.96875 0.890625,-1.578125 0,-0.859375 -0.640625,-1.34375 -1.75,-1.3125 l -1.5,0.015625 c -0.140625,0 -0.328125,0 -1.5,-0.015625 z m 0,0"
               id="id-aadb7027-8e18-42a8-9ea1-4acd11848a3d" />
          </g>
        </g>
      </defs>
      <g
         fill="#000000"
         fill-opacity="1"
         id="id-cb02f8c8-dc19-4bf5-ae77-f59ddda80cac"
         transform="translate(-149.13,-127.873)"
         style="stroke-width:0.400886">
        <g
           transform="translate(149.036,134.765)"
           id="g17"
           style="stroke-width:0.400886">
          <path
             d="m 1.046875,-6.625 0.5625,0.03125 c 0.234375,0 0.34375,0.078125 0.34375,0.265625 0,0.140625 -0.046875,0.453125 -0.09375,0.75 L 1.109375,-1.25 C 0.953125,-0.34375 0.9375,-0.3125 0.53125,-0.28125 L 0.125,-0.25 0.09375,0.03125 0.515625,0.015625 C 0.984375,0 1.171875,0 1.40625,0 L 2.375,0.03125 h 0.25 L 2.65625,-0.25 2.171875,-0.28125 C 1.90625,-0.296875 1.8125,-0.375 1.8125,-0.578125 c 0,-0.09375 0.015625,-0.171875 0.046875,-0.34375 L 2.703125,-5.78125 C 2.703125,-5.796875 2.75,-6 2.796875,-6.1875 c 0.015625,-0.078125 0.03125,-0.140625 0.0625,-0.265625 0.296875,-0.0625 0.484375,-0.09375 0.765625,-0.09375 0.859375,0 1.3125,0.390625 1.3125,1.140625 0,0.9375 -0.765625,1.640625 -1.8125,1.640625 H 2.6875 L 2.65625,-3.65625 C 4,-1.71875 4.3125,-1.234375 5.046875,0.03125 L 5.71875,0 h 0.1875 c 0,0 0.140625,0.015625 0.328125,0.03125 H 6.375 V -0.234375 C 5.96875,-0.296875 5.859375,-0.375 5.578125,-0.78125 l -1.84375,-2.75 C 4.28125,-3.625 4.578125,-3.75 4.9375,-4 c 0.578125,-0.421875 0.890625,-0.96875 0.890625,-1.578125 0,-0.859375 -0.640625,-1.34375 -1.75,-1.3125 l -1.5,0.015625 c -0.140625,0 -0.328125,0 -1.5,-0.015625 z m 0,0"
             id="id-cc00e90b-84b0-4227-81f7-bfdf8741607c"
             style="stroke-width:0.400886" />
        </g>
      </g>
    </g>
  </g>
</svg>
