<?xml version="1.0" encoding="UTF-8" standalone="no"?>
<!-- Created with Inkscape (http://www.inkscape.org/) -->

<svg
   width="95.900879mm"
   height="93.548317mm"
   viewBox="0 0 95.900877 93.548315"
   version="1.1"
   id="svg1"
   inkscape:version="1.4 (e7c3feb1, 2024-10-09)"
   sodipodi:docname="prob-10-04-25_01.svg"
   xmlns:inkscape="http://www.inkscape.org/namespaces/inkscape"
   xmlns:sodipodi="http://sodipodi.sourceforge.net/DTD/sodipodi-0.dtd"
   xmlns="http://www.w3.org/2000/svg"
   xmlns:svg="http://www.w3.org/2000/svg"
   xmlns:ns1="http://www.iki.fi/pav/software/textext/">
  <sodipodi:namedview
     id="namedview1"
     pagecolor="#ffffff"
     bordercolor="#000000"
     borderopacity="0.25"
     inkscape:showpageshadow="2"
     inkscape:pageopacity="0.0"
     inkscape:pagecheckerboard="0"
     inkscape:deskcolor="#d1d1d1"
     inkscape:document-units="mm"
     showguides="true"
     inkscape:zoom="0.78115109"
     inkscape:cx="140.81783"
     inkscape:cy="305.95873"
     inkscape:window-width="1512"
     inkscape:window-height="916"
     inkscape:window-x="0"
     inkscape:window-y="91"
     inkscape:window-maximized="1"
     inkscape:current-layer="layer1" />
  <defs
     id="defs1">
    <marker
       style="overflow:visible"
       id="ArrowWide"
       refX="0"
       refY="0"
       orient="auto-start-reverse"
       inkscape:stockid="Wide arrow"
       markerWidth="1"
       markerHeight="1"
       viewBox="0 0 1 1"
       inkscape:isstock="true"
       inkscape:collect="always"
       preserveAspectRatio="xMidYMid">
      <path
         style="fill:none;stroke:context-stroke;stroke-width:1;stroke-linecap:butt"
         d="M 3,-3 0,0 3,3"
         transform="rotate(180,0.125,0)"
         sodipodi:nodetypes="ccc"
         id="path1" />
    </marker>
    <symbol
       id="math_diagram_symbols.svg:coordinateAxis">
      <title
         id="title2">math_diagram_symbols.svg:coordinateAxis_inkscape_duplicate</title>
      <path
         style="fill:none;fill-rule:evenodd;stroke:#000000;stroke-width:2;stroke-dasharray:none;marker-end:url(#ArrowWide)"
         d="M 215.47855,431.91422 V 1.9142136"
         id="path4" />
      <path
         style="fill:none;fill-rule:evenodd;stroke:#000000;stroke-width:2;stroke-dasharray:none;marker-end:url(#ArrowWide)"
         d="M 0,216.43566 H 430"
         id="path5" />
    </symbol>
  </defs>
  <g
     inkscape:label="Layer 1"
     inkscape:groupmode="layer"
     id="layer1"
     transform="translate(-60.886842,-90.038796)">
    <path
       style="opacity:1;fill:#ff0000;fill-opacity:0.5;fill-rule:evenodd;stroke:#666666;stroke-width:0.295465;stroke-dasharray:0.59093, 0.59093;stroke-dashoffset:0"
       d="m 135.83062,118.0371 v 19.46157"
       id="path6" />
    <path
       style="opacity:1;fill:#ff0000;fill-opacity:0.5;fill-rule:evenodd;stroke:#666666;stroke-width:0.295465;stroke-dasharray:0.59093, 0.59093;stroke-dashoffset:0"
       d="M 135.83062,118.0371 H 107.04037"
       id="path7"
       sodipodi:nodetypes="cc" />
    <g
       id="use2"
       style="stroke-width:0.447426;stroke-dasharray:none"
       transform="matrix(0.21395884,0,0,0.21395884,60.886842,91.175245)">
      <title
         id="title48">math_diagram_symbols.svg:coordinateAxis_inkscape_duplicate</title>
      <path
         style="fill:none;fill-rule:evenodd;stroke:#000000;stroke-width:2;stroke-dasharray:none;marker-end:url(#ArrowWide)"
         d="M 215.47855,431.91422 V 1.9142136"
         id="path48" />
      <path
         style="fill:none;fill-rule:evenodd;stroke:#000000;stroke-width:2;stroke-dasharray:none;marker-end:url(#ArrowWide)"
         d="M 0,216.43566 H 430"
         id="path49" />
    </g>
    <path
       style="opacity:1;fill:#ff00ff;fill-opacity:0.5;fill-rule:evenodd;stroke:#0000ff;stroke-width:0.531837;stroke-dasharray:none"
       d="M 75.836911,168.73943 145.25646,99.319882"
       id="path2" />
    <path
       style="opacity:1;fill:#ff0000;fill-opacity:0.5;fill-rule:evenodd;stroke:#008000;stroke-width:0.886396;stroke-dasharray:none;stroke-dashoffset:0"
       d="m 123.10069,137.47752 h 6.8771"
       id="path29" />
    <path
       style="opacity:1;fill:#ff0000;fill-opacity:0.5;fill-rule:evenodd;stroke:#008000;stroke-width:0.886396;stroke-dasharray:none;stroke-dashoffset:0"
       d="m 132.24433,137.47752 h 6.87711"
       id="path30" />
    <circle
       id="circle19"
       style="fill:#ff0000;stroke:none;stroke-width:0.15635"
       cx="135.83061"
       cy="137.49866"
       r="0.79775608" />
    <circle
       id="circle21"
       style="fill:#ff0000;stroke:none;stroke-width:0.15635"
       cx="126.53925"
       cy="137.49866"
       r="0.79775608" />
    <path
       style="opacity:1;fill:#ff0000;fill-opacity:0.5;fill-rule:evenodd;stroke:#008000;stroke-width:0.886396;stroke-dasharray:none;stroke-dashoffset:0"
       d="m 107.04037,114.74628 v 6.87711"
       id="path31" />
    <path
       style="opacity:1;fill:#008000;fill-opacity:0.5;fill-rule:evenodd;stroke:#008000;stroke-width:0.236372;stroke-dasharray:0.472744, 0.472744;stroke-dashoffset:0"
       d="m 132.5398,115.04175 v 6.58164 h 6.28617 v -6.58164 z"
       id="path36" />
    <circle
       id="circle20"
       style="fill:#ff0000;stroke:none;stroke-width:0.15635"
       cx="107.04037"
       cy="118.18484"
       r="0.79775608" />
    <g
       transform="matrix(0.41693567,0,0,0.41693567,153.82352,135.99166)"
       ns1:version="1.10.2"
       ns1:texconverter="pdflatex"
       ns1:pdfconverter="inkscape"
       ns1:text="$X$"
       ns1:preamble="/Users/sachchidanandprasad/Library/Application Support/org.inkscape.Inkscape/config/inkscape/extensions/textext/default_packages.tex"
       ns1:scale="2.0"
       ns1:alignment="middle center"
       ns1:stroke-to-path="0"
       ns1:inkscapeversion="1.4"
       ns1:jacobian_sqrt="0.705558"
       id="g14">
      <defs
         id="id-2e5bed92-9c0d-49e8-a6e1-5abf7c264658">
        <g
           id="id-2b4717e3-9b97-4fcb-aa98-3a1ca2e47556">
          <g
             id="id-b0b54371-b0cb-46b0-b163-261dc12be7b1">
            <path
               d="M 4.140625,-0.25 V 0.03125 C 4.625,0.015625 5.078125,0 5.5,0 5.890625,0 6.34375,0.015625 6.8125,0.03125 V -0.25 l -0.25,-0.015625 C 6.15625,-0.296875 6.03125,-0.375 5.890625,-0.609375 L 4.1875,-3.671875 6.390625,-6.1875 C 6.6875,-6.515625 6.78125,-6.5625 7.03125,-6.59375 L 7.3125,-6.625 V -6.890625 L 6.1875,-6.875 c -0.125,0 -0.265625,0 -1.15625,-0.015625 V -6.625 l 0.328125,0.03125 c 0.328125,0.015625 0.453125,0.0625 0.453125,0.1875 0,0.109375 -0.046875,0.203125 -0.234375,0.421875 L 3.984375,-4.03125 2.9375,-6.015625 C 2.84375,-6.203125 2.796875,-6.3125 2.796875,-6.40625 c 0,-0.109375 0.140625,-0.171875 0.4375,-0.1875 L 3.59375,-6.625 V -6.890625 H 3.140625 C 2.734375,-6.875 2.4375,-6.875 2.265625,-6.875 c -0.15625,0 -0.46875,0 -0.875,-0.015625 h -0.4375 V -6.625 l 0.25,0.03125 c 0.484375,0.046875 0.609375,0.109375 0.8125,0.484375 l 1.453125,2.6875 -2.375,2.8125 c -0.140625,0.1875 -0.375,0.296875 -0.609375,0.328125 L 0.203125,-0.25 V 0.03125 C 0.6875,0.015625 1.09375,0 1.453125,0 1.796875,0 2.203125,0.015625 2.625,0.03125 V -0.25 L 2.3125,-0.28125 C 1.9375,-0.3125 1.765625,-0.375 1.765625,-0.5 c 0,-0.078125 0.03125,-0.171875 0.09375,-0.25 l 1.8125,-2.296875 1.1875,2.25 C 4.953125,-0.625 5,-0.484375 5,-0.40625 5,-0.3125 4.9375,-0.296875 4.6875,-0.296875 L 4.53125,-0.28125 Z m 0,0"
               id="id-cd8a79ce-a089-4542-83c5-a4a335a83d1f" />
          </g>
        </g>
      </defs>
      <g
         fill="#000000"
         fill-opacity="1"
         id="id-8dfae405-8481-45e4-ba60-9858d5c57821"
         transform="translate(-149.189,-127.874)">
        <g
           transform="translate(148.986,134.765)"
           id="g38">
          <path
             d="M 4.140625,-0.25 V 0.03125 C 4.625,0.015625 5.078125,0 5.5,0 5.890625,0 6.34375,0.015625 6.8125,0.03125 V -0.25 l -0.25,-0.015625 C 6.15625,-0.296875 6.03125,-0.375 5.890625,-0.609375 L 4.1875,-3.671875 6.390625,-6.1875 C 6.6875,-6.515625 6.78125,-6.5625 7.03125,-6.59375 L 7.3125,-6.625 V -6.890625 L 6.1875,-6.875 c -0.125,0 -0.265625,0 -1.15625,-0.015625 V -6.625 l 0.328125,0.03125 c 0.328125,0.015625 0.453125,0.0625 0.453125,0.1875 0,0.109375 -0.046875,0.203125 -0.234375,0.421875 L 3.984375,-4.03125 2.9375,-6.015625 C 2.84375,-6.203125 2.796875,-6.3125 2.796875,-6.40625 c 0,-0.109375 0.140625,-0.171875 0.4375,-0.1875 L 3.59375,-6.625 V -6.890625 H 3.140625 C 2.734375,-6.875 2.4375,-6.875 2.265625,-6.875 c -0.15625,0 -0.46875,0 -0.875,-0.015625 h -0.4375 V -6.625 l 0.25,0.03125 c 0.484375,0.046875 0.609375,0.109375 0.8125,0.484375 l 1.453125,2.6875 -2.375,2.8125 c -0.140625,0.1875 -0.375,0.296875 -0.609375,0.328125 L 0.203125,-0.25 V 0.03125 C 0.6875,0.015625 1.09375,0 1.453125,0 1.796875,0 2.203125,0.015625 2.625,0.03125 V -0.25 L 2.3125,-0.28125 C 1.9375,-0.3125 1.765625,-0.375 1.765625,-0.5 c 0,-0.078125 0.03125,-0.171875 0.09375,-0.25 l 1.8125,-2.296875 1.1875,2.25 C 4.953125,-0.625 5,-0.484375 5,-0.40625 5,-0.3125 4.9375,-0.296875 4.6875,-0.296875 L 4.53125,-0.28125 Z m 0,0"
             id="id-d8e0699e-5684-4543-9441-debabb0abcfc" />
        </g>
      </g>
    </g>
    <g
       transform="matrix(0.41693567,0,0,0.41693567,125.14558,138.73385)"
       ns1:version="1.10.2"
       ns1:texconverter="pdflatex"
       ns1:pdfconverter="inkscape"
       ns1:text="$y$"
       ns1:preamble="/Users/sachchidanandprasad/Library/Application Support/org.inkscape.Inkscape/config/inkscape/extensions/textext/default_packages.tex"
       ns1:scale="2.0"
       ns1:alignment="middle center"
       ns1:stroke-to-path="0"
       ns1:inkscapeversion="1.4"
       ns1:jacobian_sqrt="0.705558"
       id="g29">
      <defs
         id="id-69125530-b8f6-44be-96ae-e2bc60bbfb27">
        <g
           id="id-504fbce2-5a9c-406b-b1ca-6a9e8f976174">
          <g
             id="id-08c666fb-c740-44c0-aa3e-599610072133">
            <path
               d="m -0.0625,1.796875 c -0.015625,0.0625 -0.015625,0.125 -0.015625,0.171875 0,0.4375 0.375,0.78125 0.8125,0.78125 1.0625,0 2.15625,-1.234375 2.75,-3.078125 L 4.890625,-4.71875 4.78125,-4.8125 c -0.296875,0.125 -0.53125,0.171875 -0.75,0.203125 l -0.34375,1.3125 c -0.125,0.46875 -0.46875,1.1875 -0.796875,1.6875 -0.34375,0.5 -0.84375,0.9375 -1.0625,0.9375 -0.109375,0 -0.203125,-0.21875 -0.1875,-0.46875 V -1.28125 l 0.15625,-1.921875 c 0.015625,-0.3125 0.03125,-0.6875 0.03125,-0.96875 0,-0.453125 -0.0625,-0.640625 -0.234375,-0.640625 -0.125,0 -0.265625,0.078125 -0.75,0.40625 l -0.8125,0.5625 0.109375,0.171875 0.5,-0.296875 L 0.671875,-4 c 0.109375,-0.0625 0.171875,-0.09375 0.21875,-0.09375 0.140625,0 0.21875,0.203125 0.21875,0.53125 0,0 0,0.0625 -0.015625,0.140625 L 0.921875,-1 v 0.40625 c 0,0.421875 0.171875,0.703125 0.421875,0.703125 0.375,0 1.203125,-0.84375 1.953125,-1.96875 L 2.8125,-0.15625 C 2.296875,1.609375 1.796875,2.328125 1.109375,2.328125 0.75,2.328125 0.484375,2.0625 0.484375,1.71875 0.484375,1.671875 0.5,1.578125 0.515625,1.5 L 0.40625,1.453125 Z m 0,0"
               id="id-05d5f075-24fd-41d1-aea2-c3386191ded3" />
          </g>
        </g>
      </defs>
      <g
         fill="#000000"
         fill-opacity="1"
         id="id-acbc7b56-45a2-4517-9cd6-c3c74759388e"
         transform="translate(-148.759,-129.952)">
        <g
           transform="translate(148.837,134.765)"
           id="g39">
          <path
             d="m -0.0625,1.796875 c -0.015625,0.0625 -0.015625,0.125 -0.015625,0.171875 0,0.4375 0.375,0.78125 0.8125,0.78125 1.0625,0 2.15625,-1.234375 2.75,-3.078125 L 4.890625,-4.71875 4.78125,-4.8125 c -0.296875,0.125 -0.53125,0.171875 -0.75,0.203125 l -0.34375,1.3125 c -0.125,0.46875 -0.46875,1.1875 -0.796875,1.6875 -0.34375,0.5 -0.84375,0.9375 -1.0625,0.9375 -0.109375,0 -0.203125,-0.21875 -0.1875,-0.46875 V -1.28125 l 0.15625,-1.921875 c 0.015625,-0.3125 0.03125,-0.6875 0.03125,-0.96875 0,-0.453125 -0.0625,-0.640625 -0.234375,-0.640625 -0.125,0 -0.265625,0.078125 -0.75,0.40625 l -0.8125,0.5625 0.109375,0.171875 0.5,-0.296875 L 0.671875,-4 c 0.109375,-0.0625 0.171875,-0.09375 0.21875,-0.09375 0.140625,0 0.21875,0.203125 0.21875,0.53125 0,0 0,0.0625 -0.015625,0.140625 L 0.921875,-1 v 0.40625 c 0,0.421875 0.171875,0.703125 0.421875,0.703125 0.375,0 1.203125,-0.84375 1.953125,-1.96875 L 2.8125,-0.15625 C 2.296875,1.609375 1.796875,2.328125 1.109375,2.328125 0.75,2.328125 0.484375,2.0625 0.484375,1.71875 0.484375,1.671875 0.5,1.578125 0.515625,1.5 L 0.40625,1.453125 Z m 0,0"
             id="id-e58eadca-81c3-4d5b-9b9b-a7050b87d5f8" />
        </g>
      </g>
    </g>
    <g
       transform="matrix(0.41693567,0,0,0.41693567,134.79177,138.96428)"
       ns1:version="1.10.2"
       ns1:texconverter="pdflatex"
       ns1:pdfconverter="inkscape"
       ns1:text="$x$"
       ns1:preamble="/Users/sachchidanandprasad/Library/Application Support/org.inkscape.Inkscape/config/inkscape/extensions/textext/default_packages.tex"
       ns1:scale="2.0"
       ns1:alignment="middle center"
       ns1:stroke-to-path="0"
       ns1:inkscapeversion="1.4"
       ns1:jacobian_sqrt="0.705558"
       id="g22">
      <defs
         id="id-2ac08ecd-1665-41b0-b9a2-89c7c1ccc3ff">
        <g
           id="id-923ea059-ef7e-4001-8b64-8f2b7cb2af99">
          <g
             id="id-628d9f06-8565-46a6-a1d0-29d3215c9311">
            <path
               d="m 0.203125,-0.875 c 0,0.203125 -0.015625,0.328125 -0.078125,0.640625 -0.015625,0.125 -0.03125,0.15625 -0.03125,0.21875 0.140625,0.078125 0.3125,0.125 0.421875,0.125 0.328125,0 0.71875,-0.28125 1.03125,-0.75 l 0.75,-1.171875 0.109375,0.6875 c 0.140625,0.84375 0.359375,1.234375 0.71875,1.234375 0.21875,0 0.546875,-0.171875 0.859375,-0.453125 L 4.46875,-0.78125 4.390625,-0.984375 C 4.03125,-0.671875 3.78125,-0.53125 3.625,-0.53125 c -0.15625,0 -0.28125,-0.09375 -0.390625,-0.296875 -0.078125,-0.1875 -0.1875,-0.5625 -0.25,-0.84375 L 2.8125,-2.6875 3.15625,-3.171875 c 0.46875,-0.640625 0.734375,-0.875 1.046875,-0.875 0.15625,0 0.28125,0.078125 0.328125,0.234375 l 0.140625,-0.046875 0.15625,-0.84375 C 4.703125,-4.78125 4.609375,-4.8125 4.53125,-4.8125 c -0.40625,0 -0.796875,0.359375 -1.421875,1.28125 l -0.375,0.546875 -0.046875,-0.46875 c -0.125,-1 -0.390625,-1.359375 -0.984375,-1.359375 -0.25,0 -0.484375,0.09375 -0.5625,0.21875 L 0.5625,-3.765625 0.734375,-3.671875 C 1.03125,-4 1.21875,-4.140625 1.421875,-4.140625 c 0.328125,0 0.546875,0.40625 0.71875,1.375 L 2.25,-2.140625 1.84375,-1.53125 c -0.421875,0.671875 -0.765625,1 -1.046875,1 -0.15625,0 -0.265625,-0.046875 -0.28125,-0.09375 L 0.40625,-0.90625 Z m 0,0"
               id="id-80704128-9da3-4321-ba66-e244dbf2ee4a" />
          </g>
        </g>
      </defs>
      <g
         fill="#000000"
         fill-opacity="1"
         id="id-49c08b66-a2e5-4c3c-adb4-f320d43b78e6"
         transform="translate(-149.1,-129.952)">
        <g
           transform="translate(149.006,134.765)"
           id="g40">
          <path
             d="m 0.203125,-0.875 c 0,0.203125 -0.015625,0.328125 -0.078125,0.640625 -0.015625,0.125 -0.03125,0.15625 -0.03125,0.21875 0.140625,0.078125 0.3125,0.125 0.421875,0.125 0.328125,0 0.71875,-0.28125 1.03125,-0.75 l 0.75,-1.171875 0.109375,0.6875 c 0.140625,0.84375 0.359375,1.234375 0.71875,1.234375 0.21875,0 0.546875,-0.171875 0.859375,-0.453125 L 4.46875,-0.78125 4.390625,-0.984375 C 4.03125,-0.671875 3.78125,-0.53125 3.625,-0.53125 c -0.15625,0 -0.28125,-0.09375 -0.390625,-0.296875 -0.078125,-0.1875 -0.1875,-0.5625 -0.25,-0.84375 L 2.8125,-2.6875 3.15625,-3.171875 c 0.46875,-0.640625 0.734375,-0.875 1.046875,-0.875 0.15625,0 0.28125,0.078125 0.328125,0.234375 l 0.140625,-0.046875 0.15625,-0.84375 C 4.703125,-4.78125 4.609375,-4.8125 4.53125,-4.8125 c -0.40625,0 -0.796875,0.359375 -1.421875,1.28125 l -0.375,0.546875 -0.046875,-0.46875 c -0.125,-1 -0.390625,-1.359375 -0.984375,-1.359375 -0.25,0 -0.484375,0.09375 -0.5625,0.21875 L 0.5625,-3.765625 0.734375,-3.671875 C 1.03125,-4 1.21875,-4.140625 1.421875,-4.140625 c 0.328125,0 0.546875,0.40625 0.71875,1.375 L 2.25,-2.140625 1.84375,-1.53125 c -0.421875,0.671875 -0.765625,1 -1.046875,1 -0.15625,0 -0.265625,-0.046875 -0.28125,-0.09375 L 0.40625,-0.90625 Z m 0,0"
             id="id-5e8af50a-329c-4e13-8445-e7b6c7050a47" />
        </g>
      </g>
    </g>
    <g
       transform="matrix(0.41693567,0,0,0.41693567,140.69526,115.858)"
       ns1:version="1.10.2"
       ns1:texconverter="pdflatex"
       ns1:pdfconverter="inkscape"
       ns1:text="$(x,y)$"
       ns1:preamble="/Users/sachchidanandprasad/Library/Application Support/org.inkscape.Inkscape/config/inkscape/extensions/textext/default_packages.tex"
       ns1:scale="2.0"
       ns1:alignment="middle center"
       ns1:stroke-to-path="0"
       ns1:inkscapeversion="1.4"
       ns1:jacobian_sqrt="0.705558"
       id="g12">
      <defs
         id="id-2b44fcb5-88d3-448b-b1eb-bf35e34349e4">
        <g
           id="id-94db9ebf-f702-48f8-86b2-68d863361edc">
          <g
             id="id-929c2d56-6544-4ef4-8243-b0653f90ccad">
            <path
               d="m 3.4375,2.484375 c 0,-0.03125 0,-0.046875 -0.1875,-0.21875 C 1.953125,0.953125 1.625,-1 1.625,-2.59375 1.625,-4.40625 2.015625,-6.203125 3.296875,-7.5 3.4375,-7.625 3.4375,-7.640625 3.4375,-7.671875 3.4375,-7.75 3.390625,-7.78125 3.328125,-7.78125 c -0.09375,0 -1.03125,0.703125 -1.640625,2.015625 -0.53125,1.15625 -0.65625,2.296875 -0.65625,3.171875 0,0.8125 0.109375,2.0625 0.6875,3.234375 0.609375,1.28125 1.515625,1.953125 1.609375,1.953125 0.0625,0 0.109375,-0.03125 0.109375,-0.109375 z m 0,0"
               id="id-89cae3a7-0a7d-4db8-bb68-a1462ee4f946" />
          </g>
          <g
             id="id-d7bcd1c7-3fcc-4809-8cd8-b7abb907015c">
            <path
               d="m 3,-2.59375 c 0,-0.8125 -0.109375,-2.0625 -0.6875,-3.234375 -0.625,-1.28125 -1.515625,-1.953125 -1.625,-1.953125 -0.046875,0 -0.09375,0.046875 -0.09375,0.109375 0,0.03125 0,0.046875 0.1875,0.234375 1.03125,1.03125 1.609375,2.671875 1.609375,4.84375 0,1.78125 -0.375,3.59375 -1.671875,4.90625 -0.125,0.125 -0.125,0.140625 -0.125,0.171875 0,0.0625 0.046875,0.109375 0.09375,0.109375 0.109375,0 1.046875,-0.703125 1.65625,-2.015625 C 2.875,-0.578125 3,-1.71875 3,-2.59375 Z m 0,0"
               id="id-37c2900d-3f8a-4ef3-8737-bf3c8914a864" />
          </g>
          <g
             id="id-b35dade1-a3af-4cfa-8058-6cbe4d1f661b">
            <path
               d="m 0.203125,-0.875 c 0,0.203125 -0.015625,0.328125 -0.078125,0.640625 -0.015625,0.125 -0.03125,0.15625 -0.03125,0.21875 0.140625,0.078125 0.3125,0.125 0.421875,0.125 0.328125,0 0.71875,-0.28125 1.03125,-0.75 l 0.75,-1.171875 0.109375,0.6875 c 0.140625,0.84375 0.359375,1.234375 0.71875,1.234375 0.21875,0 0.546875,-0.171875 0.859375,-0.453125 L 4.46875,-0.78125 4.390625,-0.984375 C 4.03125,-0.671875 3.78125,-0.53125 3.625,-0.53125 c -0.15625,0 -0.28125,-0.09375 -0.390625,-0.296875 -0.078125,-0.1875 -0.1875,-0.5625 -0.25,-0.84375 L 2.8125,-2.6875 3.15625,-3.171875 c 0.46875,-0.640625 0.734375,-0.875 1.046875,-0.875 0.15625,0 0.28125,0.078125 0.328125,0.234375 l 0.140625,-0.046875 0.15625,-0.84375 C 4.703125,-4.78125 4.609375,-4.8125 4.53125,-4.8125 c -0.40625,0 -0.796875,0.359375 -1.421875,1.28125 l -0.375,0.546875 -0.046875,-0.46875 c -0.125,-1 -0.390625,-1.359375 -0.984375,-1.359375 -0.25,0 -0.484375,0.09375 -0.5625,0.21875 L 0.5625,-3.765625 0.734375,-3.671875 C 1.03125,-4 1.21875,-4.140625 1.421875,-4.140625 c 0.328125,0 0.546875,0.40625 0.71875,1.375 L 2.25,-2.140625 1.84375,-1.53125 c -0.421875,0.671875 -0.765625,1 -1.046875,1 -0.15625,0 -0.265625,-0.046875 -0.28125,-0.09375 L 0.40625,-0.90625 Z m 0,0"
               id="id-249d53ef-80dd-4be0-bcb9-0afd127d0d55" />
          </g>
          <g
             id="id-d5a1f12d-bf51-472f-8473-23200c3a17c6">
            <path
               d="m -0.0625,1.796875 c -0.015625,0.0625 -0.015625,0.125 -0.015625,0.171875 0,0.4375 0.375,0.78125 0.8125,0.78125 1.0625,0 2.15625,-1.234375 2.75,-3.078125 L 4.890625,-4.71875 4.78125,-4.8125 c -0.296875,0.125 -0.53125,0.171875 -0.75,0.203125 l -0.34375,1.3125 c -0.125,0.46875 -0.46875,1.1875 -0.796875,1.6875 -0.34375,0.5 -0.84375,0.9375 -1.0625,0.9375 -0.109375,0 -0.203125,-0.21875 -0.1875,-0.46875 V -1.28125 l 0.15625,-1.921875 c 0.015625,-0.3125 0.03125,-0.6875 0.03125,-0.96875 0,-0.453125 -0.0625,-0.640625 -0.234375,-0.640625 -0.125,0 -0.265625,0.078125 -0.75,0.40625 l -0.8125,0.5625 0.109375,0.171875 0.5,-0.296875 L 0.671875,-4 c 0.109375,-0.0625 0.171875,-0.09375 0.21875,-0.09375 0.140625,0 0.21875,0.203125 0.21875,0.53125 0,0 0,0.0625 -0.015625,0.140625 L 0.921875,-1 v 0.40625 c 0,0.421875 0.171875,0.703125 0.421875,0.703125 0.375,0 1.203125,-0.84375 1.953125,-1.96875 L 2.8125,-0.15625 C 2.296875,1.609375 1.796875,2.328125 1.109375,2.328125 0.75,2.328125 0.484375,2.0625 0.484375,1.71875 0.484375,1.671875 0.5,1.578125 0.515625,1.5 L 0.40625,1.453125 Z m 0,0"
               id="id-6f17a0aa-3a7d-4a40-8135-86d73a5dd0a3" />
          </g>
          <g
             id="id-754629aa-0e16-4e30-8ba9-9f902e053a93">
            <path
               d="m 2.03125,-1.21875 c -0.265625,0.078125 -0.453125,0.140625 -0.96875,0.296875 -0.078125,0.75 -0.328125,1.40625 -0.90625,2.359375 l 0.140625,0.109375 0.40625,-0.1875 C 1.515625,0.3125 1.890625,-0.3125 2.171875,-1.09375 Z m 0,0"
               id="id-5fd015cc-35c3-45a2-8237-85bf25ca81ed" />
          </g>
        </g>
      </defs>
      <g
         fill="#000000"
         fill-opacity="1"
         id="id-e8748473-e6dd-4f90-abb3-4ad990cbafd7"
         transform="translate(-149.868,-126.984)">
        <g
           transform="translate(148.837,134.765)"
           id="g41">
          <path
             d="m 3.4375,2.484375 c 0,-0.03125 0,-0.046875 -0.1875,-0.21875 C 1.953125,0.953125 1.625,-1 1.625,-2.59375 1.625,-4.40625 2.015625,-6.203125 3.296875,-7.5 3.4375,-7.625 3.4375,-7.640625 3.4375,-7.671875 3.4375,-7.75 3.390625,-7.78125 3.328125,-7.78125 c -0.09375,0 -1.03125,0.703125 -1.640625,2.015625 -0.53125,1.15625 -0.65625,2.296875 -0.65625,3.171875 0,0.8125 0.109375,2.0625 0.6875,3.234375 0.609375,1.28125 1.515625,1.953125 1.609375,1.953125 0.0625,0 0.109375,-0.03125 0.109375,-0.109375 z m 0,0"
             id="id-9d6f61ac-adf5-4c38-8468-551d4b16eca4" />
        </g>
      </g>
      <g
         fill="#000000"
         fill-opacity="1"
         id="id-7230e180-8716-4375-9565-e4d18bab86b5"
         transform="translate(-149.868,-126.984)">
        <g
           transform="translate(153.28,134.765)"
           id="g42">
          <path
             d="m 0.203125,-0.875 c 0,0.203125 -0.015625,0.328125 -0.078125,0.640625 -0.015625,0.125 -0.03125,0.15625 -0.03125,0.21875 0.140625,0.078125 0.3125,0.125 0.421875,0.125 0.328125,0 0.71875,-0.28125 1.03125,-0.75 l 0.75,-1.171875 0.109375,0.6875 c 0.140625,0.84375 0.359375,1.234375 0.71875,1.234375 0.21875,0 0.546875,-0.171875 0.859375,-0.453125 L 4.46875,-0.78125 4.390625,-0.984375 C 4.03125,-0.671875 3.78125,-0.53125 3.625,-0.53125 c -0.15625,0 -0.28125,-0.09375 -0.390625,-0.296875 -0.078125,-0.1875 -0.1875,-0.5625 -0.25,-0.84375 L 2.8125,-2.6875 3.15625,-3.171875 c 0.46875,-0.640625 0.734375,-0.875 1.046875,-0.875 0.15625,0 0.28125,0.078125 0.328125,0.234375 l 0.140625,-0.046875 0.15625,-0.84375 C 4.703125,-4.78125 4.609375,-4.8125 4.53125,-4.8125 c -0.40625,0 -0.796875,0.359375 -1.421875,1.28125 l -0.375,0.546875 -0.046875,-0.46875 c -0.125,-1 -0.390625,-1.359375 -0.984375,-1.359375 -0.25,0 -0.484375,0.09375 -0.5625,0.21875 L 0.5625,-3.765625 0.734375,-3.671875 C 1.03125,-4 1.21875,-4.140625 1.421875,-4.140625 c 0.328125,0 0.546875,0.40625 0.71875,1.375 L 2.25,-2.140625 1.84375,-1.53125 c -0.421875,0.671875 -0.765625,1 -1.046875,1 -0.15625,0 -0.265625,-0.046875 -0.28125,-0.09375 L 0.40625,-0.90625 Z m 0,0"
             id="id-87c699d1-b31e-48be-a530-6839f7ad2436" />
        </g>
      </g>
      <g
         fill="#000000"
         fill-opacity="1"
         id="id-7ae18fea-83a1-4b35-b38e-5cd71f64feac"
         transform="translate(-149.868,-126.984)">
        <g
           transform="translate(158.486,134.765)"
           id="g43">
          <path
             d="m 2.03125,-1.21875 c -0.265625,0.078125 -0.453125,0.140625 -0.96875,0.296875 -0.078125,0.75 -0.328125,1.40625 -0.90625,2.359375 l 0.140625,0.109375 0.40625,-0.1875 C 1.515625,0.3125 1.890625,-0.3125 2.171875,-1.09375 Z m 0,0"
             id="id-5c42195b-e555-4ed5-830e-c3d49a6daf46" />
        </g>
      </g>
      <g
         fill="#000000"
         fill-opacity="1"
         id="id-de762375-bfc6-484f-afd3-708d3d9f1956"
         transform="translate(-149.868,-126.984)">
        <g
           transform="translate(162.761,134.765)"
           id="g44">
          <path
             d="m -0.0625,1.796875 c -0.015625,0.0625 -0.015625,0.125 -0.015625,0.171875 0,0.4375 0.375,0.78125 0.8125,0.78125 1.0625,0 2.15625,-1.234375 2.75,-3.078125 L 4.890625,-4.71875 4.78125,-4.8125 c -0.296875,0.125 -0.53125,0.171875 -0.75,0.203125 l -0.34375,1.3125 c -0.125,0.46875 -0.46875,1.1875 -0.796875,1.6875 -0.34375,0.5 -0.84375,0.9375 -1.0625,0.9375 -0.109375,0 -0.203125,-0.21875 -0.1875,-0.46875 V -1.28125 l 0.15625,-1.921875 c 0.015625,-0.3125 0.03125,-0.6875 0.03125,-0.96875 0,-0.453125 -0.0625,-0.640625 -0.234375,-0.640625 -0.125,0 -0.265625,0.078125 -0.75,0.40625 l -0.8125,0.5625 0.109375,0.171875 0.5,-0.296875 L 0.671875,-4 c 0.109375,-0.0625 0.171875,-0.09375 0.21875,-0.09375 0.140625,0 0.21875,0.203125 0.21875,0.53125 0,0 0,0.0625 -0.015625,0.140625 L 0.921875,-1 v 0.40625 c 0,0.421875 0.171875,0.703125 0.421875,0.703125 0.375,0 1.203125,-0.84375 1.953125,-1.96875 L 2.8125,-0.15625 C 2.296875,1.609375 1.796875,2.328125 1.109375,2.328125 0.75,2.328125 0.484375,2.0625 0.484375,1.71875 0.484375,1.671875 0.5,1.578125 0.515625,1.5 L 0.40625,1.453125 Z m 0,0"
             id="id-5b4f1f93-2991-468a-902e-814ae7107c10" />
        </g>
      </g>
      <g
         fill="#000000"
         fill-opacity="1"
         id="id-4f3be155-bfd7-4123-98be-a4d87f779af4"
         transform="translate(-149.868,-126.984)">
        <g
           transform="translate(167.991,134.765)"
           id="g45">
          <path
             d="m 3,-2.59375 c 0,-0.8125 -0.109375,-2.0625 -0.6875,-3.234375 -0.625,-1.28125 -1.515625,-1.953125 -1.625,-1.953125 -0.046875,0 -0.09375,0.046875 -0.09375,0.109375 0,0.03125 0,0.046875 0.1875,0.234375 1.03125,1.03125 1.609375,2.671875 1.609375,4.84375 0,1.78125 -0.375,3.59375 -1.671875,4.90625 -0.125,0.125 -0.125,0.140625 -0.125,0.171875 0,0.0625 0.046875,0.109375 0.09375,0.109375 0.109375,0 1.046875,-0.703125 1.65625,-2.015625 C 2.875,-0.578125 3,-1.71875 3,-2.59375 Z m 0,0"
             id="id-6c1b9ea7-5479-4b4d-80e4-a4662a500b38" />
        </g>
      </g>
    </g>
    <circle
       id="path3"
       style="fill:#ff0000;stroke:none;stroke-width:0.15635"
       cx="135.83061"
       cy="118.0371"
       r="0.79775608" />
    <g
       transform="matrix(0.41693567,0,0,0.41693567,103.75263,116.77749)"
       ns1:version="1.10.2"
       ns1:texconverter="pdflatex"
       ns1:pdfconverter="inkscape"
       ns1:text="$y$"
       ns1:preamble="/Users/sachchidanandprasad/Library/Application Support/org.inkscape.Inkscape/config/inkscape/extensions/textext/default_packages.tex"
       ns1:scale="2.0"
       ns1:alignment="middle center"
       ns1:stroke-to-path="0"
       ns1:inkscapeversion="1.4"
       ns1:jacobian_sqrt="0.705558"
       id="g24">
      <defs
         id="id-90581e6c-54e4-44ae-872b-2abf9331eb3b">
        <g
           id="id-e0458ff9-60d4-4b24-aeb6-321e8ebbe643">
          <g
             id="id-f0f2b29a-c631-4020-8598-7870156e5dac">
            <path
               d="m -0.0625,1.796875 c -0.015625,0.0625 -0.015625,0.125 -0.015625,0.171875 0,0.4375 0.375,0.78125 0.8125,0.78125 1.0625,0 2.15625,-1.234375 2.75,-3.078125 L 4.890625,-4.71875 4.78125,-4.8125 c -0.296875,0.125 -0.53125,0.171875 -0.75,0.203125 l -0.34375,1.3125 c -0.125,0.46875 -0.46875,1.1875 -0.796875,1.6875 -0.34375,0.5 -0.84375,0.9375 -1.0625,0.9375 -0.109375,0 -0.203125,-0.21875 -0.1875,-0.46875 V -1.28125 l 0.15625,-1.921875 c 0.015625,-0.3125 0.03125,-0.6875 0.03125,-0.96875 0,-0.453125 -0.0625,-0.640625 -0.234375,-0.640625 -0.125,0 -0.265625,0.078125 -0.75,0.40625 l -0.8125,0.5625 0.109375,0.171875 0.5,-0.296875 L 0.671875,-4 c 0.109375,-0.0625 0.171875,-0.09375 0.21875,-0.09375 0.140625,0 0.21875,0.203125 0.21875,0.53125 0,0 0,0.0625 -0.015625,0.140625 L 0.921875,-1 v 0.40625 c 0,0.421875 0.171875,0.703125 0.421875,0.703125 0.375,0 1.203125,-0.84375 1.953125,-1.96875 L 2.8125,-0.15625 C 2.296875,1.609375 1.796875,2.328125 1.109375,2.328125 0.75,2.328125 0.484375,2.0625 0.484375,1.71875 0.484375,1.671875 0.5,1.578125 0.515625,1.5 L 0.40625,1.453125 Z m 0,0"
               id="id-d3cdd317-5494-4c57-bd09-aa73c7ee22ed" />
          </g>
        </g>
      </defs>
      <g
         fill="#000000"
         fill-opacity="1"
         id="id-ec40b757-626f-4013-b6d8-39d985b041c8"
         transform="translate(-148.759,-129.952)">
        <g
           transform="translate(148.837,134.765)"
           id="g46">
          <path
             d="m -0.0625,1.796875 c -0.015625,0.0625 -0.015625,0.125 -0.015625,0.171875 0,0.4375 0.375,0.78125 0.8125,0.78125 1.0625,0 2.15625,-1.234375 2.75,-3.078125 L 4.890625,-4.71875 4.78125,-4.8125 c -0.296875,0.125 -0.53125,0.171875 -0.75,0.203125 l -0.34375,1.3125 c -0.125,0.46875 -0.46875,1.1875 -0.796875,1.6875 -0.34375,0.5 -0.84375,0.9375 -1.0625,0.9375 -0.109375,0 -0.203125,-0.21875 -0.1875,-0.46875 V -1.28125 l 0.15625,-1.921875 c 0.015625,-0.3125 0.03125,-0.6875 0.03125,-0.96875 0,-0.453125 -0.0625,-0.640625 -0.234375,-0.640625 -0.125,0 -0.265625,0.078125 -0.75,0.40625 l -0.8125,0.5625 0.109375,0.171875 0.5,-0.296875 L 0.671875,-4 c 0.109375,-0.0625 0.171875,-0.09375 0.21875,-0.09375 0.140625,0 0.21875,0.203125 0.21875,0.53125 0,0 0,0.0625 -0.015625,0.140625 L 0.921875,-1 v 0.40625 c 0,0.421875 0.171875,0.703125 0.421875,0.703125 0.375,0 1.203125,-0.84375 1.953125,-1.96875 L 2.8125,-0.15625 C 2.296875,1.609375 1.796875,2.328125 1.109375,2.328125 0.75,2.328125 0.484375,2.0625 0.484375,1.71875 0.484375,1.671875 0.5,1.578125 0.515625,1.5 L 0.40625,1.453125 Z m 0,0"
             id="id-caccb3d5-01c6-4e2c-bf2e-d1681a901705" />
        </g>
      </g>
    </g>
    <g
       transform="matrix(0.41693567,0,0,0.41693567,102.30878,90.03864)"
       ns1:version="1.10.2"
       ns1:texconverter="pdflatex"
       ns1:pdfconverter="inkscape"
       ns1:text="$X$"
       ns1:preamble="/Users/sachchidanandprasad/Library/Application Support/org.inkscape.Inkscape/config/inkscape/extensions/textext/default_packages.tex"
       ns1:scale="2.0"
       ns1:alignment="middle center"
       ns1:stroke-to-path="0"
       ns1:inkscapeversion="1.4"
       ns1:jacobian_sqrt="0.705558"
       id="g19">
      <defs
         id="id-641a76cf-834e-4a84-b6e6-4a28e7b63b20">
        <g
           id="id-d10acdbd-0eb6-4865-9032-d2b1ee13c81e">
          <g
             id="id-08c4c487-bbe8-4eb9-8757-47bf817b7a0f">
            <path
               d="M 4.140625,-0.25 V 0.03125 C 4.625,0.015625 5.078125,0 5.5,0 5.890625,0 6.34375,0.015625 6.8125,0.03125 V -0.25 l -0.25,-0.015625 C 6.15625,-0.296875 6.03125,-0.375 5.890625,-0.609375 L 4.1875,-3.671875 6.390625,-6.1875 C 6.6875,-6.515625 6.78125,-6.5625 7.03125,-6.59375 L 7.3125,-6.625 V -6.890625 L 6.1875,-6.875 c -0.125,0 -0.265625,0 -1.15625,-0.015625 V -6.625 l 0.328125,0.03125 c 0.328125,0.015625 0.453125,0.0625 0.453125,0.1875 0,0.109375 -0.046875,0.203125 -0.234375,0.421875 L 3.984375,-4.03125 2.9375,-6.015625 C 2.84375,-6.203125 2.796875,-6.3125 2.796875,-6.40625 c 0,-0.109375 0.140625,-0.171875 0.4375,-0.1875 L 3.59375,-6.625 V -6.890625 H 3.140625 C 2.734375,-6.875 2.4375,-6.875 2.265625,-6.875 c -0.15625,0 -0.46875,0 -0.875,-0.015625 h -0.4375 V -6.625 l 0.25,0.03125 c 0.484375,0.046875 0.609375,0.109375 0.8125,0.484375 l 1.453125,2.6875 -2.375,2.8125 c -0.140625,0.1875 -0.375,0.296875 -0.609375,0.328125 L 0.203125,-0.25 V 0.03125 C 0.6875,0.015625 1.09375,0 1.453125,0 1.796875,0 2.203125,0.015625 2.625,0.03125 V -0.25 L 2.3125,-0.28125 C 1.9375,-0.3125 1.765625,-0.375 1.765625,-0.5 c 0,-0.078125 0.03125,-0.171875 0.09375,-0.25 l 1.8125,-2.296875 1.1875,2.25 C 4.953125,-0.625 5,-0.484375 5,-0.40625 5,-0.3125 4.9375,-0.296875 4.6875,-0.296875 L 4.53125,-0.28125 Z m 0,0"
               id="id-85f970c2-ba6f-4b37-9306-5a516cfe7b27" />
          </g>
        </g>
      </defs>
      <g
         fill="#000000"
         fill-opacity="1"
         id="id-499a0895-352f-4ba2-9bcc-83f8eef51e9c"
         transform="translate(-149.189,-127.874)">
        <g
           transform="translate(148.986,134.765)"
           id="g47">
          <path
             d="M 4.140625,-0.25 V 0.03125 C 4.625,0.015625 5.078125,0 5.5,0 5.890625,0 6.34375,0.015625 6.8125,0.03125 V -0.25 l -0.25,-0.015625 C 6.15625,-0.296875 6.03125,-0.375 5.890625,-0.609375 L 4.1875,-3.671875 6.390625,-6.1875 C 6.6875,-6.515625 6.78125,-6.5625 7.03125,-6.59375 L 7.3125,-6.625 V -6.890625 L 6.1875,-6.875 c -0.125,0 -0.265625,0 -1.15625,-0.015625 V -6.625 l 0.328125,0.03125 c 0.328125,0.015625 0.453125,0.0625 0.453125,0.1875 0,0.109375 -0.046875,0.203125 -0.234375,0.421875 L 3.984375,-4.03125 2.9375,-6.015625 C 2.84375,-6.203125 2.796875,-6.3125 2.796875,-6.40625 c 0,-0.109375 0.140625,-0.171875 0.4375,-0.1875 L 3.59375,-6.625 V -6.890625 H 3.140625 C 2.734375,-6.875 2.4375,-6.875 2.265625,-6.875 c -0.15625,0 -0.46875,0 -0.875,-0.015625 h -0.4375 V -6.625 l 0.25,0.03125 c 0.484375,0.046875 0.609375,0.109375 0.8125,0.484375 l 1.453125,2.6875 -2.375,2.8125 c -0.140625,0.1875 -0.375,0.296875 -0.609375,0.328125 L 0.203125,-0.25 V 0.03125 C 0.6875,0.015625 1.09375,0 1.453125,0 1.796875,0 2.203125,0.015625 2.625,0.03125 V -0.25 L 2.3125,-0.28125 C 1.9375,-0.3125 1.765625,-0.375 1.765625,-0.5 c 0,-0.078125 0.03125,-0.171875 0.09375,-0.25 l 1.8125,-2.296875 1.1875,2.25 C 4.953125,-0.625 5,-0.484375 5,-0.40625 5,-0.3125 4.9375,-0.296875 4.6875,-0.296875 L 4.53125,-0.28125 Z m 0,0"
             id="id-940a22b4-e0ca-4196-9b58-9eea0cc0e581" />
        </g>
      </g>
    </g>
    <g
       transform="matrix(0.41693567,0,0,0.41693567,141.35153,96.999235)"
       ns1:version="1.10.2"
       ns1:texconverter="pdflatex"
       ns1:pdfconverter="inkscape"
       ns1:text="$\\Delta$"
       ns1:preamble="/Users/sachchidanandprasad/Library/Application Support/org.inkscape.Inkscape/config/inkscape/extensions/textext/default_packages.tex"
       ns1:scale="2.0"
       ns1:alignment="middle center"
       ns1:stroke-to-path="0"
       ns1:inkscapeversion="1.4"
       ns1:jacobian_sqrt="0.705558"
       style="fill:#0000ff;stroke-width:0"
       id="g37">
      <defs
         id="id-1e4d09f4-1b2a-4c1a-a334-ef2263c54d45"
         style="fill:#0000ff;stroke-width:0">
        <g
           id="id-909bea6f-4839-410f-92b4-6d2d3f561aee"
           style="fill:#0000ff;stroke-width:0">
          <g
             id="id-b030d997-d960-40ae-9bda-78a1601b93da"
             style="fill:#0000ff;stroke-width:0">
            <path
               d="m 3.1875,-6.78125 -2.890625,6.5625 0.015625,0.25 C 1.21875,0 1.890625,0 2.84375,0 c 0.9375,0 2.125,0 2.921875,0.03125 l 0.625,-0.34375 V -0.40625 L 3.5625,-6.984375 Z m -0.03125,1.125 1.890625,4.515625 C 5.140625,-0.9375 5.25,-0.71875 5.25,-0.59375 c 0,0.109375 -0.15625,0.171875 -0.40625,0.1875 h -3.3125 c -0.328125,-0.03125 -0.4375,-0.109375 -0.4375,-0.265625 0,-0.125 0.21875,-0.640625 0.34375,-0.9375 z m 0,0"
               id="id-e59e78ea-fd16-4230-9d90-6ee93e3aa49e"
               style="fill:#0000ff;stroke-width:0" />
          </g>
        </g>
      </defs>
      <g
         fill-opacity="1"
         id="id-7c0f2c0a-a6ac-4030-95fa-e18c92682fe8"
         transform="translate(-149.134,-127.781)"
         style="fill:#0000ff;stroke-width:0">
        <g
           transform="translate(148.837,134.765)"
           style="fill:#0000ff;stroke-width:0"
           id="g48">
          <path
             d="m 3.1875,-6.78125 -2.890625,6.5625 0.015625,0.25 C 1.21875,0 1.890625,0 2.84375,0 c 0.9375,0 2.125,0 2.921875,0.03125 l 0.625,-0.34375 V -0.40625 L 3.5625,-6.984375 Z m -0.03125,1.125 1.890625,4.515625 C 5.140625,-0.9375 5.25,-0.71875 5.25,-0.59375 c 0,0.109375 -0.15625,0.171875 -0.40625,0.1875 h -3.3125 c -0.328125,-0.03125 -0.4375,-0.109375 -0.4375,-0.265625 0,-0.125 0.21875,-0.640625 0.34375,-0.9375 z m 0,0"
             id="id-097edc5f-2381-4401-bfeb-5a775c2cf088"
             style="fill:#0000ff;stroke-width:0" />
        </g>
      </g>
    </g>
  </g>
</svg>
