<?xml version="1.0" encoding="UTF-8" standalone="no"?>
<!-- Created with Inkscape (http://www.inkscape.org/) -->

<svg
   width="109.81454mm"
   height="12.653023mm"
   viewBox="0 0 109.81454 12.653023"
   version="1.1"
   id="svg5"
   sodipodi:docname="16Mar-2023-01.svg"
   inkscape:version="1.2.2 (1:1.2.2+202212051552+b0a8486541)"
   xmlns:inkscape="http://www.inkscape.org/namespaces/inkscape"
   xmlns:sodipodi="http://sodipodi.sourceforge.net/DTD/sodipodi-0.dtd"
   xmlns="http://www.w3.org/2000/svg"
   xmlns:svg="http://www.w3.org/2000/svg">
  <sodipodi:namedview
     id="namedview7"
     pagecolor="#ffffff"
     bordercolor="#999999"
     borderopacity="1"
     inkscape:showpageshadow="0"
     inkscape:pageopacity="0"
     inkscape:pagecheckerboard="0"
     inkscape:deskcolor="#d1d1d1"
     inkscape:document-units="mm"
     showgrid="false"
     inkscape:zoom="2"
     inkscape:cx="272.5"
     inkscape:cy="47.5"
     inkscape:window-width="1920"
     inkscape:window-height="1011"
     inkscape:window-x="0"
     inkscape:window-y="0"
     inkscape:window-maximized="1"
     inkscape:current-layer="layer1" />
  <defs
     id="defs2">
    <clipPath
       id="clipPath4913">
      <path
         d="M 0,0 H 7.894531 V 11.097656 H 0 Z m 0,0"
         id="path3470" />
    </clipPath>
    <clipPath
       id="clipPath5055">
      <path
         d="M 1,0 H 7 V 11.097656 H 1 Z m 0,0"
         id="path8648" />
    </clipPath>
    <clipPath
       id="clipPath5696">
      <path
         d="M 0,0 H 9 V 7.410156 H 0 Z m 0,0"
         id="path9222" />
    </clipPath>
    <clipPath
       id="clipPath5272">
      <path
         d="m 8,16 h 4 v 5.382812 H 8 Z m 0,0"
         id="path8933" />
    </clipPath>
    <clipPath
       id="clipPath1536">
      <path
         d="m 37,16 h 4 v 5.382812 h -4 z m 0,0"
         id="path7201" />
    </clipPath>
  </defs>
  <g
     inkscape:label="Layer 1"
     inkscape:groupmode="layer"
     id="layer1"
     transform="translate(-10.799378,-141.68023)">
    <path
       style="fill:#ffffff;stroke:#1a1a1a;stroke-width:0.394432"
       d="M 14.416691,143.63774 H 117.55355"
       id="path122" />
    <g
       inkscape:label=""
       transform="translate(10.799377,141.58216)"
       id="g318">
      <g
         id="surface2"
         transform="matrix(0.352778,0,0,0.352778,-0.23151,0.0980722)">
        <g
           clip-path="url(#clipPath4913)"
           clip-rule="nonzero"
           id="g19">
          <g
             style="fill:#000000;fill-opacity:1"
             id="g17">
            <g
               id="use15"
               transform="translate(0,11.097)">
              <path
                 style="stroke:none"
                 d="m 7.234375,-5.53125 c 0,-1.046875 -0.015625,-2.84375 -0.75,-4.21875 -0.625,-1.203125 -1.640625,-1.625 -2.546875,-1.625 -0.828125,0 -1.875,0.375 -2.53125,1.609375 -0.6875,1.296875 -0.75,2.890625 -0.75,4.234375 0,0.984375 0.015625,2.484375 0.546875,3.796875 0.75,1.765625 2.0625,2.015625 2.734375,2.015625 0.796875,0 2,-0.328125 2.703125,-1.96875 0.515625,-1.1875 0.59375,-2.578125 0.59375,-3.84375 z M 3.9375,0 C 2.84375,0 2.1875,-0.953125 1.953125,-2.25 1.75,-3.265625 1.75,-4.75 1.75,-5.71875 c 0,-1.328125 0,-2.421875 0.234375,-3.46875 0.328125,-1.46875 1.28125,-1.921875 1.953125,-1.921875 0.71875,0 1.625,0.46875 1.953125,1.875 C 6.109375,-8.25 6.125,-7.09375 6.125,-5.71875 c 0,1.125 0,2.5 -0.203125,3.515625 C 5.5625,-0.328125 4.546875,0 3.9375,0 Z m 0,0"
                 id="path26" />
            </g>
          </g>
        </g>
      </g>
    </g>
    <g
       inkscape:label=""
       transform="translate(118.81144,141.58254)"
       id="g374">
      <g
         id="g372"
         transform="matrix(0.352778,0,0,0.352778,-0.529167,0.0980722)">
        <g
           clip-path="url(#clipPath5055)"
           clip-rule="nonzero"
           id="g370">
          <g
             style="fill:#000000;fill-opacity:1"
             id="g368">
            <g
               id="g366"
               transform="translate(0,11.097)">
              <path
                 style="stroke:none"
                 d="m 4.578125,-11 c 0,-0.359375 -0.015625,-0.375 -0.25,-0.375 -0.671875,0.796875 -1.6875,1.0625 -2.65625,1.09375 -0.046875,0 -0.140625,0 -0.15625,0.03125 C 1.5,-10.203125 1.5,-10.171875 1.5,-9.8125 c 0.53125,0 1.421875,-0.109375 2.109375,-0.515625 V -1.25 c 0,0.59375 -0.03125,0.796875 -1.515625,0.796875 H 1.578125 V 0 c 0.828125,-0.015625 1.6875,-0.03125 2.515625,-0.03125 0.828125,0 1.6875,0.015625 2.515625,0.03125 V -0.453125 H 6.09375 c -1.484375,0 -1.515625,-0.1875 -1.515625,-0.796875 z m 0,0"
                 id="path364" />
            </g>
          </g>
        </g>
      </g>
    </g>
    <path
       style="fill:#ffffff;stroke:#1a1a1a;stroke-width:0.499999"
       d="m 65.985122,142.63774 v 2"
       id="path490" />
    <path
       style="fill:#ffffff;stroke:#1a1a1a;stroke-width:0.499999"
       d="m 14.186681,142.63819 v 2"
       id="path492" />
    <path
       style="fill:#ffffff;stroke:#1a1a1a;stroke-width:0.499999"
       d="m 117.7584,142.638 v 2"
       id="path494" />
    <circle
       id="path592"
       style="fill:#0000ff;stroke:none;stroke-width:0.352777"
       cx="44.084183"
       cy="143.63774"
       r="1" />
    <path
       style="fill:#800000;stroke:#800000;stroke-width:0.499999"
       d="m 28.760432,142.63774 v 2"
       id="path594" />
    <path
       style="fill:#ffffff;stroke:#800000;stroke-width:0.499999"
       d="m 103.20981,142.63774 v 2"
       id="path596" />
    <g
       inkscape:label=""
       transform="translate(42.453316,147.07892)"
       id="g662"
       style="fill:#0000ff">
      <g
         id="g660"
         transform="matrix(0.352778,0,0,0.352778,-0.170877,0.0641173)"
         style="fill:#0000ff">
        <g
           clip-path="url(#clipPath5696)"
           clip-rule="nonzero"
           id="g658"
           style="fill:#0000ff">
          <g
             style="fill:#0000ff;fill-opacity:1"
             id="g656">
            <g
               id="g654"
               transform="translate(0,7.4120002)"
               style="fill:#0000ff">
              <path
                 style="fill:#0000ff;stroke:none"
                 d="m 8.15625,-7.03125 c -0.546875,0.109375 -0.75,0.515625 -0.75,0.84375 0,0.421875 0.328125,0.5625 0.5625,0.5625 0.515625,0 0.875,-0.453125 0.875,-0.921875 0,-0.71875 -0.8125,-1.046875 -1.546875,-1.046875 -1.046875,0 -1.625,1.03125 -1.78125,1.359375 -0.40625,-1.296875 -1.46875,-1.359375 -1.78125,-1.359375 -1.75,0 -2.6875,2.25 -2.6875,2.640625 0,0.0625 0.078125,0.15625 0.1875,0.15625 0.140625,0 0.171875,-0.109375 0.21875,-0.171875 C 2.03125,-6.890625 3.1875,-7.25 3.6875,-7.25 c 0.765625,0 0.921875,0.71875 0.921875,1.140625 0,0.375 -0.09375,0.765625 -0.296875,1.59375 L 3.71875,-2.15625 c -0.25,1.03125 -0.75,1.984375 -1.671875,1.984375 -0.078125,0 -0.515625,0 -0.875,-0.21875 0.625,-0.125 0.75,-0.640625 0.75,-0.84375 0,-0.34375 -0.25,-0.5625 -0.578125,-0.5625 -0.40625,0 -0.859375,0.375 -0.859375,0.921875 0,0.71875 0.8125,1.046875 1.546875,1.046875 0.828125,0 1.40625,-0.65625 1.78125,-1.359375 0.265625,1.015625 1.125,1.359375 1.765625,1.359375 1.75,0 2.6875,-2.25 2.6875,-2.640625 0,-0.078125 -0.0625,-0.15625 -0.171875,-0.15625 -0.15625,0 -0.171875,0.09375 -0.21875,0.234375 -0.46875,1.515625 -1.46875,2.21875 -2.25,2.21875 -0.59375,0 -0.921875,-0.453125 -0.921875,-1.15625 0,-0.375 0.0625,-0.65625 0.34375,-1.78125 l 0.59375,-2.34375 C 5.90625,-6.484375 6.484375,-7.25 7.28125,-7.25 c 0.03125,0 0.515625,0 0.875,0.21875 z m 0,0"
                 id="path652" />
            </g>
          </g>
        </g>
      </g>
    </g>
    <g
       inkscape:label=""
       transform="translate(26.674286,150.94008)"
       id="g777"
       style="fill:#800000">
      <g
         id="g775"
         transform="matrix(0.352778,0,0,0.352778,-0.42168,0.0831232)"
         style="fill:#800000">
        <g
           style="fill:#800000;fill-opacity:1"
           id="g29"
           transform="translate(0,-11.999993)">
          <g
             id="use27"
             transform="translate(4.1079998,7.0300002)"
             style="fill:#800000">
            <path
               style="fill:#800000;stroke:none"
               d="m 3.203125,-6.984375 c 0,-0.25 0,-0.28125 -0.25,-0.28125 C 2.28125,-6.5625 1.3125,-6.5625 0.96875,-6.5625 v 0.328125 c 0.21875,0 0.859375,0 1.4375,-0.28125 v 5.65625 c 0,0.390625 -0.046875,0.515625 -1.015625,0.515625 H 1.03125 V 0 c 0.390625,-0.03125 1.328125,-0.03125 1.765625,-0.03125 0.4375,0 1.390625,0 1.765625,0.03125 V -0.34375 H 4.21875 c -0.984375,0 -1.015625,-0.109375 -1.015625,-0.515625 z m 0,0"
               id="path48" />
          </g>
        </g>
        <path
           style="fill:#800000;fill-opacity:1;stroke:#800000;stroke-width:0.638;stroke-linecap:butt;stroke-linejoin:miter;stroke-miterlimit:10;stroke-opacity:1"
           d="M 1.1953125,-2.4960864 H 12.476563"
           id="path31" />
        <g
           style="fill:#800000;fill-opacity:1"
           id="g35"
           transform="translate(0,-11.999993)">
          <g
             id="use33"
             transform="translate(1.196,19.745001)"
             style="fill:#800000">
            <path
               style="fill:#800000;stroke:none"
               d="m 0.953125,-0.640625 c -0.03125,0.15625 -0.09375,0.40625 -0.09375,0.46875 0,0.1875 0.15625,0.296875 0.3125,0.296875 C 1.3125,0.125 1.5,0.03125 1.578125,-0.1875 1.59375,-0.203125 1.71875,-0.71875 1.78125,-1 l 0.25,-0.96875 c 0.0625,-0.25 0.125,-0.484375 0.1875,-0.734375 0.03125,-0.1875 0.125,-0.5 0.140625,-0.546875 0.15625,-0.34375 0.734375,-1.328125 1.78125,-1.328125 0.484375,0 0.578125,0.40625 0.578125,0.765625 0,0.671875 -0.53125,2.0625 -0.703125,2.53125 -0.09375,0.25 -0.109375,0.390625 -0.109375,0.5 0,0.515625 0.375,0.90625 0.890625,0.90625 1.03125,0 1.4375,-1.59375 1.4375,-1.6875 0,-0.109375 -0.109375,-0.109375 -0.140625,-0.109375 -0.109375,0 -0.109375,0.03125 -0.15625,0.203125 C 5.71875,-0.734375 5.359375,-0.125 4.828125,-0.125 4.640625,-0.125 4.5625,-0.234375 4.5625,-0.484375 4.5625,-0.75 4.65625,-1.015625 4.75,-1.25 c 0.21875,-0.578125 0.671875,-1.78125 0.671875,-2.40625 0,-0.734375 -0.46875,-1.171875 -1.25,-1.171875 -0.984375,0 -1.515625,0.703125 -1.703125,0.953125 -0.0625,-0.609375 -0.5,-0.953125 -1,-0.953125 -0.515625,0 -0.71875,0.4375 -0.828125,0.625 -0.171875,0.375 -0.328125,1.015625 -0.328125,1.0625 0,0.109375 0.109375,0.109375 0.140625,0.109375 0.109375,0 0.109375,-0.015625 0.171875,-0.25 0.1875,-0.78125 0.40625,-1.296875 0.796875,-1.296875 0.21875,0 0.34375,0.140625 0.34375,0.5 0,0.234375 -0.03125,0.34375 -0.171875,0.921875 z m 0,0"
               id="path52" />
          </g>
        </g>
        <g
           clip-path="url(#clipPath5272)"
           clip-rule="nonzero"
           id="g41"
           style="fill:#800000"
           transform="translate(0,-11.999993)">
          <g
             style="fill:#800000;fill-opacity:1"
             id="g39">
            <g
               id="use37"
               transform="translate(7.744,21.381001)"
               style="fill:#800000">
              <path
                 style="fill:#800000;stroke:none"
                 d="m 3.890625,-2.546875 c 0,-0.84375 -0.078125,-1.359375 -0.34375,-1.875 -0.34375,-0.703125 -1,-0.875 -1.4375,-0.875 -1,0 -1.375,0.75 -1.484375,0.96875 -0.28125,0.578125 -0.296875,1.375 -0.296875,1.78125 0,0.53125 0.015625,1.328125 0.40625,1.96875 0.359375,0.59375 0.953125,0.75 1.375,0.75 0.390625,0 1.0625,-0.125 1.46875,-0.90625 0.296875,-0.578125 0.3125,-1.296875 0.3125,-1.8125 z M 2.109375,-0.0625 C 1.84375,-0.0625 1.296875,-0.1875 1.125,-1.015625 1.03125,-1.46875 1.03125,-2.21875 1.03125,-2.640625 1.03125,-3.1875 1.03125,-3.75 1.125,-4.1875 1.296875,-5 1.90625,-5.078125 2.109375,-5.078125 c 0.265625,0 0.828125,0.140625 0.984375,0.859375 0.09375,0.4375 0.09375,1.046875 0.09375,1.578125 0,0.46875 0,1.1875 -0.09375,1.640625 -0.171875,0.828125 -0.71875,0.9375 -0.984375,0.9375 z m 0,0"
                 id="path56" />
            </g>
          </g>
        </g>
      </g>
    </g>
    <g
       inkscape:label=""
       transform="matrix(0.7787865,0,0,0.7787865,97.023275,152.31279)"
       id="g916"
       style="fill:#800000">
      <g
         id="g914"
         transform="matrix(0.352778,0,0,0.352778,-0.529167,0.0831232)"
         style="fill:#800000">
        <g
           id="g2530"
           transform="translate(0,-19.260721)">
          <g
             style="fill:#800000;fill-opacity:1"
             id="g898">
            <g
               id="use39"
               transform="translate(0,13.808)"
               style="fill:#800000">
              <path
                 style="fill:#800000;stroke:none"
                 d="m 4.578125,-11 c 0,-0.359375 -0.015625,-0.375 -0.25,-0.375 -0.671875,0.796875 -1.6875,1.0625 -2.65625,1.09375 -0.046875,0 -0.140625,0 -0.15625,0.03125 C 1.5,-10.203125 1.5,-10.171875 1.5,-9.8125 c 0.53125,0 1.421875,-0.109375 2.109375,-0.515625 V -1.25 c 0,0.59375 -0.03125,0.796875 -1.515625,0.796875 H 1.578125 V 0 c 0.828125,-0.015625 1.6875,-0.03125 2.515625,-0.03125 0.828125,0 1.6875,0.015625 2.515625,0.03125 V -0.453125 H 6.09375 c -1.484375,0 -1.515625,-0.1875 -1.515625,-0.796875 z m 0,0"
                 id="path68" />
            </g>
          </g>
          <g
             style="fill:#800000;fill-opacity:1"
             id="g45">
            <g
               id="use43"
               transform="translate(11.721,13.808)"
               style="fill:#800000">
              <path
                 style="fill:#800000;stroke:none"
                 d="m 11.34375,-3.953125 c 0.296875,0 0.609375,0 0.609375,-0.359375 0,-0.34375 -0.3125,-0.34375 -0.609375,-0.34375 h -9.3125 c -0.296875,0 -0.609375,0 -0.609375,0.34375 0,0.359375 0.3125,0.359375 0.609375,0.359375 z m 0,0"
                 id="path72" />
            </g>
          </g>
          <g
             style="fill:#800000;fill-opacity:1"
             id="g49">
            <g
               id="use47"
               transform="translate(33.044998,7.0300002)"
               style="fill:#800000">
              <path
                 style="fill:#800000;stroke:none"
                 d="m 3.203125,-6.984375 c 0,-0.25 0,-0.28125 -0.25,-0.28125 C 2.28125,-6.5625 1.3125,-6.5625 0.96875,-6.5625 v 0.328125 c 0.21875,0 0.859375,0 1.4375,-0.28125 v 5.65625 c 0,0.390625 -0.046875,0.515625 -1.015625,0.515625 H 1.03125 V 0 c 0.390625,-0.03125 1.328125,-0.03125 1.765625,-0.03125 0.4375,0 1.390625,0 1.765625,0.03125 V -0.34375 H 4.21875 c -0.984375,0 -1.015625,-0.109375 -1.015625,-0.515625 z m 0,0"
                 id="path76" />
            </g>
          </g>
          <path
             style="fill:#800000;stroke:#800000;stroke-width:0.638;stroke-linecap:butt;stroke-linejoin:miter;stroke-miterlimit:10;stroke-opacity:1"
             d="M 8.125e-4,9.375e-5 H 11.278156"
             transform="matrix(1,0,0,-1,30.132,9.504)"
             id="path51" />
          <g
             style="fill:#800000;fill-opacity:1"
             id="g55">
            <g
               id="use53"
               transform="translate(30.132,19.745001)"
               style="fill:#800000">
              <path
                 style="fill:#800000;stroke:none"
                 d="m 0.953125,-0.640625 c -0.03125,0.15625 -0.09375,0.40625 -0.09375,0.46875 0,0.1875 0.15625,0.296875 0.3125,0.296875 C 1.3125,0.125 1.5,0.03125 1.578125,-0.1875 1.59375,-0.203125 1.71875,-0.71875 1.78125,-1 l 0.25,-0.96875 c 0.0625,-0.25 0.125,-0.484375 0.1875,-0.734375 0.03125,-0.1875 0.125,-0.5 0.140625,-0.546875 0.15625,-0.34375 0.734375,-1.328125 1.78125,-1.328125 0.484375,0 0.578125,0.40625 0.578125,0.765625 0,0.671875 -0.53125,2.0625 -0.703125,2.53125 -0.09375,0.25 -0.109375,0.390625 -0.109375,0.5 0,0.515625 0.375,0.90625 0.890625,0.90625 1.03125,0 1.4375,-1.59375 1.4375,-1.6875 0,-0.109375 -0.109375,-0.109375 -0.140625,-0.109375 -0.109375,0 -0.109375,0.03125 -0.15625,0.203125 C 5.71875,-0.734375 5.359375,-0.125 4.828125,-0.125 4.640625,-0.125 4.5625,-0.234375 4.5625,-0.484375 4.5625,-0.75 4.65625,-1.015625 4.75,-1.25 c 0.21875,-0.578125 0.671875,-1.78125 0.671875,-2.40625 0,-0.734375 -0.46875,-1.171875 -1.25,-1.171875 -0.984375,0 -1.515625,0.703125 -1.703125,0.953125 -0.0625,-0.609375 -0.5,-0.953125 -1,-0.953125 -0.515625,0 -0.71875,0.4375 -0.828125,0.625 -0.171875,0.375 -0.328125,1.015625 -0.328125,1.0625 0,0.109375 0.109375,0.109375 0.140625,0.109375 0.109375,0 0.109375,-0.015625 0.171875,-0.25 0.1875,-0.78125 0.40625,-1.296875 0.796875,-1.296875 0.21875,0 0.34375,0.140625 0.34375,0.5 0,0.234375 -0.03125,0.34375 -0.171875,0.921875 z m 0,0"
                 id="path80" />
            </g>
          </g>
          <g
             clip-path="url(#clipPath1536)"
             clip-rule="nonzero"
             id="g61"
             style="fill:#800000">
            <g
               style="fill:#800000;fill-opacity:1"
               id="g59">
              <g
                 id="use57"
                 transform="translate(36.68,21.381001)"
                 style="fill:#800000">
                <path
                   style="fill:#800000;stroke:none"
                   d="m 3.890625,-2.546875 c 0,-0.84375 -0.078125,-1.359375 -0.34375,-1.875 -0.34375,-0.703125 -1,-0.875 -1.4375,-0.875 -1,0 -1.375,0.75 -1.484375,0.96875 -0.28125,0.578125 -0.296875,1.375 -0.296875,1.78125 0,0.53125 0.015625,1.328125 0.40625,1.96875 0.359375,0.59375 0.953125,0.75 1.375,0.75 0.390625,0 1.0625,-0.125 1.46875,-0.90625 0.296875,-0.578125 0.3125,-1.296875 0.3125,-1.8125 z M 2.109375,-0.0625 C 1.84375,-0.0625 1.296875,-0.1875 1.125,-1.015625 1.03125,-1.46875 1.03125,-2.21875 1.03125,-2.640625 1.03125,-3.1875 1.03125,-3.75 1.125,-4.1875 1.296875,-5 1.90625,-5.078125 2.109375,-5.078125 c 0.265625,0 0.828125,0.140625 0.984375,0.859375 0.09375,0.4375 0.09375,1.046875 0.09375,1.578125 0,0.46875 0,1.1875 -0.09375,1.640625 -0.171875,0.828125 -0.71875,0.9375 -0.984375,0.9375 z m 0,0"
                   id="path84" />
              </g>
            </g>
          </g>
        </g>
      </g>
    </g>
    <circle
       id="circle2532"
       style="fill:#0000ff;stroke:none;stroke-width:0.352777"
       cx="87.593086"
       cy="143.63774"
       r="1" />
    <g
       inkscape:label=""
       transform="matrix(0.76013164,0,0,0.76013164,82.950595,145.68533)"
       id="g3064"
       style="fill:#0000ff;fill-opacity:1">
      <g
         id="g3062"
         transform="matrix(0.352778,0,0,0.352778,-0.529167,0.0980722)"
         style="fill:#0000ff;fill-opacity:1">
        <g
           style="fill:#0000ff;fill-opacity:1"
           id="g26">
          <g
             id="use24"
             transform="translate(0,11.097)"
             style="fill:#0000ff;fill-opacity:1">
            <path
               style="fill:#0000ff;fill-opacity:1;stroke:none"
               d="m 4.578125,-11 c 0,-0.359375 -0.015625,-0.375 -0.25,-0.375 -0.671875,0.796875 -1.6875,1.0625 -2.65625,1.09375 -0.046875,0 -0.140625,0 -0.15625,0.03125 C 1.5,-10.203125 1.5,-10.171875 1.5,-9.8125 c 0.53125,0 1.421875,-0.109375 2.109375,-0.515625 V -1.25 c 0,0.59375 -0.03125,0.796875 -1.515625,0.796875 H 1.578125 V 0 c 0.828125,-0.015625 1.6875,-0.03125 2.515625,-0.03125 0.828125,0 1.6875,0.015625 2.515625,0.03125 V -0.453125 H 6.09375 c -1.484375,0 -1.515625,-0.1875 -1.515625,-0.796875 z m 0,0"
               id="path41" />
          </g>
        </g>
        <g
           style="fill:#0000ff;fill-opacity:1"
           id="g30">
          <g
             id="use28"
             transform="translate(11.721,11.097)"
             style="fill:#0000ff;fill-opacity:1">
            <path
               style="fill:#0000ff;fill-opacity:1;stroke:none"
               d="m 11.34375,-3.953125 c 0.296875,0 0.609375,0 0.609375,-0.359375 0,-0.34375 -0.3125,-0.34375 -0.609375,-0.34375 h -9.3125 c -0.296875,0 -0.609375,0 -0.609375,0.34375 0,0.359375 0.3125,0.359375 0.609375,0.359375 z m 0,0"
               id="path45" />
          </g>
        </g>
        <g
           style="fill:#0000ff;fill-opacity:1"
           id="g34">
          <g
             id="use32"
             transform="translate(28.936001,11.097)"
             style="fill:#0000ff;fill-opacity:1">
            <path
               style="fill:#0000ff;fill-opacity:1;stroke:none"
               d="m 8.15625,-7.03125 c -0.546875,0.109375 -0.75,0.515625 -0.75,0.84375 0,0.421875 0.328125,0.5625 0.5625,0.5625 0.515625,0 0.875,-0.453125 0.875,-0.921875 0,-0.71875 -0.8125,-1.046875 -1.546875,-1.046875 -1.046875,0 -1.625,1.03125 -1.78125,1.359375 -0.40625,-1.296875 -1.46875,-1.359375 -1.78125,-1.359375 -1.75,0 -2.6875,2.25 -2.6875,2.640625 0,0.0625 0.078125,0.15625 0.1875,0.15625 0.140625,0 0.171875,-0.109375 0.21875,-0.171875 C 2.03125,-6.890625 3.1875,-7.25 3.6875,-7.25 c 0.765625,0 0.921875,0.71875 0.921875,1.140625 0,0.375 -0.09375,0.765625 -0.296875,1.59375 L 3.71875,-2.15625 c -0.25,1.03125 -0.75,1.984375 -1.671875,1.984375 -0.078125,0 -0.515625,0 -0.875,-0.21875 0.625,-0.125 0.75,-0.640625 0.75,-0.84375 0,-0.34375 -0.25,-0.5625 -0.578125,-0.5625 -0.40625,0 -0.859375,0.375 -0.859375,0.921875 0,0.71875 0.8125,1.046875 1.546875,1.046875 0.828125,0 1.40625,-0.65625 1.78125,-1.359375 0.265625,1.015625 1.125,1.359375 1.765625,1.359375 1.75,0 2.6875,-2.25 2.6875,-2.640625 0,-0.078125 -0.0625,-0.15625 -0.171875,-0.15625 -0.15625,0 -0.171875,0.09375 -0.21875,0.234375 -0.46875,1.515625 -1.46875,2.21875 -2.25,2.21875 -0.59375,0 -0.921875,-0.453125 -0.921875,-1.15625 0,-0.375 0.0625,-0.65625 0.34375,-1.78125 l 0.59375,-2.34375 C 5.90625,-6.484375 6.484375,-7.25 7.28125,-7.25 c 0.03125,0 0.515625,0 0.875,0.21875 z m 0,0"
               id="path49" />
          </g>
        </g>
      </g>
    </g>
  </g>
</svg>
