<?xml version="1.0" encoding="UTF-8" standalone="no"?>
<!-- Created with Inkscape (http://www.inkscape.org/) -->

<svg
   width="98.687347mm"
   height="66.40818mm"
   viewBox="0 0 98.687349 66.408179"
   version="1.1"
   id="svg1"
   xml:space="preserve"
   inkscape:version="1.4 (e7c3feb1, 2024-10-09)"
   sodipodi:docname="prob-01-04-25_02.svg"
   xmlns:inkscape="http://www.inkscape.org/namespaces/inkscape"
   xmlns:sodipodi="http://sodipodi.sourceforge.net/DTD/sodipodi-0.dtd"
   xmlns="http://www.w3.org/2000/svg"
   xmlns:svg="http://www.w3.org/2000/svg"
   xmlns:ns4="http://www.iki.fi/pav/software/textext/"><sodipodi:namedview
     id="namedview1"
     pagecolor="#ffffff"
     bordercolor="#000000"
     borderopacity="0.25"
     inkscape:showpageshadow="2"
     inkscape:pageopacity="0.0"
     inkscape:pagecheckerboard="0"
     inkscape:deskcolor="#d1d1d1"
     inkscape:document-units="mm"
     showgrid="false"
     inkscape:zoom="1"
     inkscape:cx="288"
     inkscape:cy="186"
     inkscape:window-width="1512"
     inkscape:window-height="916"
     inkscape:window-x="467"
     inkscape:window-y="84"
     inkscape:window-maximized="0"
     inkscape:current-layer="layer1"><inkscape:grid
       id="grid8"
       units="mm"
       originx="-56.599743"
       originy="-122.64252"
       spacingx="0.99999998"
       spacingy="1"
       empcolor="#0099e5"
       empopacity="0.30196078"
       color="#0099e5"
       opacity="0.14901961"
       empspacing="5"
       enabled="true"
       visible="false" /></sodipodi:namedview><defs
     id="defs1"><inkscape:path-effect
       effect="bspline"
       id="path-effect24"
       is_visible="true"
       lpeversion="1.3"
       weight="33.333333"
       steps="2"
       helper_size="0"
       apply_no_weight="true"
       apply_with_weight="true"
       only_selected="false"
       uniform="false" /><inkscape:path-effect
       effect="bspline"
       id="path-effect23"
       is_visible="true"
       lpeversion="1.3"
       weight="33.333333"
       steps="2"
       helper_size="0"
       apply_no_weight="true"
       apply_with_weight="true"
       only_selected="false"
       uniform="false" /><inkscape:path-effect
       effect="bspline"
       id="path-effect13"
       is_visible="true"
       lpeversion="1.3"
       weight="33.333333"
       steps="2"
       helper_size="0"
       apply_no_weight="true"
       apply_with_weight="true"
       only_selected="false"
       uniform="false" /><inkscape:path-effect
       effect="bspline"
       id="path-effect11"
       is_visible="true"
       lpeversion="1.3"
       weight="33.333333"
       steps="2"
       helper_size="0"
       apply_no_weight="true"
       apply_with_weight="true"
       only_selected="false"
       uniform="false" /><inkscape:path-effect
       effect="bspline"
       id="path-effect9"
       is_visible="true"
       lpeversion="1.3"
       weight="33.333333"
       steps="2"
       helper_size="0"
       apply_no_weight="true"
       apply_with_weight="true"
       only_selected="false"
       uniform="false" /><inkscape:path-effect
       effect="bspline"
       id="path-effect7"
       is_visible="true"
       lpeversion="1.3"
       weight="33.333333"
       steps="2"
       helper_size="0"
       apply_no_weight="true"
       apply_with_weight="true"
       only_selected="false"
       uniform="false" /><inkscape:path-effect
       effect="bspline"
       id="path-effect15"
       is_visible="true"
       lpeversion="1.3"
       weight="33.333333"
       steps="2"
       helper_size="0"
       apply_no_weight="true"
       apply_with_weight="true"
       only_selected="false"
       uniform="false" /><inkscape:path-effect
       effect="bspline"
       id="path-effect6"
       is_visible="true"
       lpeversion="1.3"
       weight="33.333333"
       steps="2"
       helper_size="0"
       apply_no_weight="true"
       apply_with_weight="true"
       only_selected="false"
       uniform="false" /><inkscape:path-effect
       effect="bspline"
       id="path-effect5"
       is_visible="true"
       lpeversion="1.3"
       weight="33.333333"
       steps="2"
       helper_size="0"
       apply_no_weight="true"
       apply_with_weight="true"
       only_selected="false"
       uniform="false" /><inkscape:path-effect
       effect="circle_with_radius"
       id="path-effect3"
       is_visible="true"
       lpeversion="1" /><inkscape:path-effect
       effect="fillet_chamfer"
       id="path-effect19"
       is_visible="true"
       lpeversion="1"
       nodesatellites_param="F,0,0,1,0,0,0,1 @ F,0,0,1,0,0,0,1 @ F,0,0,1,0,0,0,1 @ F,0,0,1,0,0,0,1"
       radius="0"
       unit="px"
       method="auto"
       mode="F"
       chamfer_steps="1"
       flexible="false"
       use_knot_distance="true"
       apply_no_radius="true"
       apply_with_radius="true"
       only_selected="false"
       hide_knots="false" /><inkscape:path-effect
       effect="fillet_chamfer"
       id="path-effect18"
       is_visible="true"
       lpeversion="1"
       nodesatellites_param="F,0,0,1,0,0,0,1 @ F,0,0,1,0,0,0,1 @ F,0,0,1,0,0,0,1 @ F,0,0,1,0,0,0,1"
       radius="0"
       unit="px"
       method="auto"
       mode="F"
       chamfer_steps="1"
       flexible="false"
       use_knot_distance="true"
       apply_no_radius="true"
       apply_with_radius="true"
       only_selected="false"
       hide_knots="false" /><inkscape:path-effect
       effect="bspline"
       id="path-effect12"
       is_visible="true"
       lpeversion="1.3"
       weight="33.333333"
       steps="2"
       helper_size="0"
       apply_no_weight="true"
       apply_with_weight="true"
       only_selected="false"
       uniform="false" /><inkscape:path-effect
       effect="bspline"
       id="path-effect10"
       is_visible="true"
       lpeversion="1.3"
       weight="33.333333"
       steps="2"
       helper_size="0"
       apply_no_weight="true"
       apply_with_weight="true"
       only_selected="false"
       uniform="false" /><inkscape:path-effect
       effect="bspline"
       id="path-effect8"
       is_visible="true"
       lpeversion="1.3"
       weight="33.333333"
       steps="2"
       helper_size="0"
       apply_no_weight="true"
       apply_with_weight="true"
       only_selected="false"
       uniform="false" /><inkscape:path-effect
       effect="bspline"
       id="path-effect4"
       is_visible="true"
       lpeversion="1.3"
       weight="33.333333"
       steps="2"
       helper_size="0"
       apply_no_weight="true"
       apply_with_weight="true"
       only_selected="false"
       uniform="false" /><marker
       style="overflow:visible"
       id="ArrowWideRounded"
       refX="0"
       refY="0"
       orient="auto-start-reverse"
       inkscape:stockid="Wide, rounded arrow"
       markerWidth="1"
       markerHeight="1"
       viewBox="0 0 1 1"
       inkscape:isstock="true"
       inkscape:collect="always"
       preserveAspectRatio="xMidYMid"><path
         style="fill:none;stroke:context-stroke;stroke-width:1;stroke-linecap:round"
         d="M 3,-3 0,0 3,3"
         transform="rotate(180,0.125,0)"
         sodipodi:nodetypes="ccc"
         id="path2" /></marker><inkscape:path-effect
       effect="bspline"
       id="path-effect1"
       is_visible="true"
       lpeversion="1.3"
       weight="33.333333"
       steps="2"
       helper_size="0"
       apply_no_weight="true"
       apply_with_weight="true"
       only_selected="false"
       uniform="false" /></defs><g
     inkscape:label="Layer 1"
     inkscape:groupmode="layer"
     id="layer1"
     transform="translate(-56.5998, -122.643)"><path
       style="font-variation-settings:normal;opacity:1;vector-effect:none;fill:none;fill-opacity:1;fill-rule:evenodd;stroke:#4d4d4d;stroke-width:0.3;stroke-linecap:butt;stroke-linejoin:miter;stroke-miterlimit:4;stroke-dasharray:none;stroke-dashoffset:0;stroke-opacity:1;-inkscape-stroke:none"
       d="m 82.681897,170.87007 c -0.182262,-0.64795 -0.364518,-1.29588 -0.81363,-1.85136 -0.449112,-0.55548 -1.16504,-1.01846 -1.880982,-1.48145"
       id="path23"
       inkscape:path-effect="#path-effect23"
       inkscape:original-d="m 82.681897,170.87007 c -0.182263,-0.64795 -0.364518,-1.29588 -0.546783,-1.94384 -0.715959,-0.463 -1.431887,-0.92598 -2.147829,-1.38897"
       sodipodi:nodetypes="ccc" /><path
       style="font-variation-settings:normal;opacity:1;vector-effect:none;fill:none;fill-opacity:1;fill-rule:evenodd;stroke:#4d4d4d;stroke-width:0.3;stroke-linecap:butt;stroke-linejoin:miter;stroke-miterlimit:4;stroke-dasharray:none;stroke-dashoffset:0;stroke-opacity:1;-inkscape-stroke:none"
       d="m 81.383867,171.37989 c 0.268942,0.66501 0.537872,1.32999 0.603498,1.96802 0.06563,0.63802 -0.07206,1.24904 -0.209752,1.86006"
       id="path24"
       inkscape:path-effect="#path-effect24"
       inkscape:original-d="m 81.383867,171.37989 c 0.268942,0.66501 0.537873,1.32999 0.806817,1.99501 -0.137693,0.61103 -0.275382,1.22205 -0.413071,1.83307"
       sodipodi:nodetypes="ccc" /><path
       style="fill:none;stroke:#000000;stroke-width:0.360975;stroke-miterlimit:10;stroke-dasharray:none;marker-end:url(#ArrowWideRounded)"
       d="m 107.7527,198.46941 c 0,-26.52009 0,-53.04017 0,-79.56025"
       id="path1"
       inkscape:path-effect="#path-effect1"
       inkscape:original-d="m 107.7527,198.46941 c 0,-26.52009 0,-53.04017 0,-79.56025"
       transform="matrix(0.83108147,0,0,0.83108147,-17.504263,24.106449)"
       sodipodi:nodetypes="cc" /><path
       style="fill:none;stroke:#000000;stroke-width:0.360975;stroke-miterlimit:10;stroke-dasharray:none;marker-end:url(#ArrowWideRounded)"
       d="m 107.7527,198.46941 c 0,-39.46674 0,-78.93347 0,-118.400208"
       id="path8"
       inkscape:path-effect="#path-effect10"
       inkscape:original-d="m 107.7527,198.46941 c 0,-39.46674 0,-78.93347 0,-118.400208"
       transform="matrix(0,0.83108147,-0.83108147,0,221.54403,85.678887)" /><path
       style="fill:#ff0000;fill-rule:evenodd;stroke:#4d4d4d;stroke-width:0.3"
       d="m 72.047009,175.23016 c 17.856949,-7.20131 35.713901,-14.40263 53.570851,-21.60394"
       id="path4"
       inkscape:path-effect="#path-effect7"
       inkscape:original-d="m 72.047009,175.23016 c 17.85695,-7.20131 35.713901,-14.40263 53.570851,-21.60394" /><path
       style="fill:#ff0000;fill-rule:evenodd;stroke:#4d4d4d;stroke-width:0.3"
       d="M 72.047009,175.23016 C 88.34656,159.42299 104.64611,143.61581 120.94567,127.80864"
       id="path7"
       inkscape:original-d="M 72.047009,175.23016 C 88.346561,159.42299 104.64611,143.61581 120.94567,127.80864"
       inkscape:path-effect="#path-effect9" /><path
       style="fill:#ff0000;fill-rule:evenodd;stroke:#4d4d4d;stroke-width:0.3"
       d="m 125.61786,153.62622 c -4.85337,-5.2087 -9.70673,-10.41741 -14.5601,-15.62611"
       id="path9"
       inkscape:path-effect="#path-effect11"
       inkscape:original-d="m 125.61786,153.62622 c -4.85337,-5.2087 -9.70673,-10.41741 -14.5601,-15.62611" /><path
       style="fill:#ff0000;fill-rule:evenodd;stroke:#4d4d4d;stroke-width:0.3"
       d="m 125.61786,153.62622 c 0,7.03239 0,14.06478 0,21.09717"
       id="path11"
       inkscape:path-effect="#path-effect13"
       inkscape:original-d="m 125.61786,153.62622 c 0,7.03239 0,14.06478 0,21.09717" /><circle
       id="path6"
       style="fill:#ff0000;stroke:none;stroke-width:0.264583"
       cx="125.61786"
       cy="153.62622"
       r="0.70477766" /><g
       transform="matrix(0.458281,0,0,0.458281,130.9259,151.32218)"
       ns4:version="1.10.2"
       ns4:texconverter="pdflatex"
       ns4:pdfconverter="inkscape"
       ns4:text="$(5,3)$"
       ns4:preamble="/Users/sachchidanandprasad/Library/Application Support/org.inkscape.Inkscape/config/inkscape/extensions/textext/default_packages.tex"
       ns4:scale="1.4999999980930703"
       ns4:alignment="middle center"
       ns4:stroke-to-path="0"
       ns4:inkscapeversion="1.4"
       ns4:jacobian_sqrt="0.529167"
       id="g15"
       style="stroke-width:1.15468"><defs
   id="id-0f0aee09-cf64-4218-8acd-65e71a58d786">
    <g
   id="id-3d534257-c7c6-45bd-9dcd-bd51559a1033">
      <g
   id="id-0e3182f2-f1c1-4803-9923-1a2d2cfaa1df">
        <path
   d="m 3.4375,2.484375 c 0,-0.03125 0,-0.046875 -0.1875,-0.21875 C 1.953125,0.953125 1.625,-1 1.625,-2.59375 1.625,-4.40625 2.015625,-6.203125 3.296875,-7.5 3.4375,-7.625 3.4375,-7.640625 3.4375,-7.671875 3.4375,-7.75 3.390625,-7.78125 3.328125,-7.78125 c -0.09375,0 -1.03125,0.703125 -1.640625,2.015625 -0.53125,1.15625 -0.65625,2.296875 -0.65625,3.171875 0,0.8125 0.109375,2.0625 0.6875,3.234375 0.609375,1.28125 1.515625,1.953125 1.609375,1.953125 0.0625,0 0.109375,-0.03125 0.109375,-0.109375 z m 0,0"
   id="id-356a562c-31c5-48c9-af40-8c2f05762788" />
      </g>
      <g
   id="id-e8fd81b6-d553-4143-94ac-84f49b5d431c">
        <path
   d="m 3,-2.59375 c 0,-0.8125 -0.109375,-2.0625 -0.6875,-3.234375 -0.625,-1.28125 -1.515625,-1.953125 -1.625,-1.953125 -0.046875,0 -0.09375,0.046875 -0.09375,0.109375 0,0.03125 0,0.046875 0.1875,0.234375 1.03125,1.03125 1.609375,2.671875 1.609375,4.84375 0,1.78125 -0.375,3.59375 -1.671875,4.90625 -0.125,0.125 -0.125,0.140625 -0.125,0.171875 0,0.0625 0.046875,0.109375 0.09375,0.109375 0.109375,0 1.046875,-0.703125 1.65625,-2.015625 C 2.875,-0.578125 3,-1.71875 3,-2.59375 Z m 0,0"
   id="id-bca7181c-3300-4de5-aca6-befe6cf5779b" />
      </g>
      <g
   id="id-f5b640c1-9634-4568-ad22-1505e9462927">
        <path
   d="m 1.265625,-6.03125 c 1.28125,0.046875 1.84375,0.046875 3.046875,0.046875 L 4.359375,-6.03125 C 4.34375,-6.203125 4.34375,-6.296875 4.34375,-6.421875 c 0,-0.140625 0,-0.21875 0.015625,-0.390625 L 4.3125,-6.875 c -0.75,0.046875 -1.203125,0.0625 -1.734375,0.0625 -0.546875,0 -1,-0.015625 -1.734375,-0.0625 l -0.0625,0.0625 c 0.015625,0.609375 0.03125,1.046875 0.03125,1.359375 0,0.84375 -0.03125,1.796875 -0.0625,2.25 l 0.203125,0.046875 c 0.46875,-0.46875 0.734375,-0.609375 1.21875,-0.609375 0.953125,0 1.5625,0.6875 1.5625,1.765625 0,1.109375 -0.640625,1.75 -1.734375,1.75 -0.53125,0 -1.03125,-0.171875 -1.171875,-0.4375 L 0.375,-1.5 0.125,-1.359375 c 0.234375,0.5625 0.359375,0.875 0.5,1.3125 0.265625,0.15625 0.671875,0.25 1.09375,0.25 0.671875,0 1.375,-0.296875 1.9375,-0.765625 0.59375,-0.546875 0.921875,-1.21875 0.921875,-1.953125 0,-1.140625 -0.8125,-1.9375 -1.953125,-1.9375 -0.46875,0 -0.828125,0.140625 -1.453125,0.5 z m 0,0"
   id="id-5829f8bc-7ddb-404b-916a-e272a363ba64" />
      </g>
      <g
   id="id-861de761-9431-4af0-af20-82965baa7fa9">
        <path
   d="m 2.03125,-1.21875 c -0.265625,0.078125 -0.453125,0.140625 -0.96875,0.296875 -0.078125,0.75 -0.328125,1.40625 -0.90625,2.359375 l 0.140625,0.109375 0.40625,-0.1875 C 1.515625,0.3125 1.890625,-0.3125 2.171875,-1.09375 Z m 0,0"
   id="id-cc2c678f-d510-465c-943b-8f33397b0b6a" />
      </g>
      <g
   id="id-d6a0f4bf-d923-4c58-a91a-baa3339bfbfa">
        <path
   d="m 0.421875,-4.96875 h 0.3125 l 0.1875,-0.546875 c 0.109375,-0.34375 0.734375,-0.6875 1.25,-0.6875 0.65625,0 1.171875,0.53125 1.171875,1.15625 0,0.75 -0.578125,1.375 -1.296875,1.375 -0.078125,0 -0.1875,0 -0.3125,-0.015625 l -0.15625,-0.015625 -0.109375,0.53125 0.0625,0.0625 c 0.375,-0.171875 0.578125,-0.21875 0.84375,-0.21875 0.828125,0 1.296875,0.53125 1.296875,1.4375 0,1.015625 -0.59375,1.6875 -1.53125,1.6875 -0.453125,0 -0.859375,-0.15625 -1.15625,-0.4375 -0.25,-0.21875 -0.375,-0.453125 -0.5625,-0.984375 L 0.15625,-1.53125 C 0.359375,-0.921875 0.4375,-0.5625 0.5,-0.0625 1.03125,0.125 1.46875,0.203125 1.828125,0.203125 c 0.796875,0 1.71875,-0.453125 2.265625,-1.125 0.34375,-0.40625 0.515625,-0.84375 0.515625,-1.3125 0,-0.484375 -0.203125,-0.890625 -0.5625,-1.140625 -0.25,-0.1875 -0.484375,-0.265625 -0.96875,-0.359375 0.796875,-0.609375 1.09375,-1.078125 1.09375,-1.65625 0,-0.890625 -0.75,-1.484375 -1.84375,-1.484375 -0.6875,0 -1.125,0.203125 -1.609375,0.671875 z m 0,0"
   id="id-73399541-2101-4598-92a8-2135f742abd7" />
      </g>
    </g>
  </defs>
  <g
   fill="#000000"
   fill-opacity="1"
   id="id-c96f12e6-3891-4bae-9a80-db563cabaa28"
   transform="translate(-149.868,-126.984)"
   style="stroke-width:1.15468">
    <g
   transform="translate(148.837,134.765)"
   id="g10"
   style="stroke-width:1.15468"><path
   d="m 3.4375,2.484375 c 0,-0.03125 0,-0.046875 -0.1875,-0.21875 C 1.953125,0.953125 1.625,-1 1.625,-2.59375 1.625,-4.40625 2.015625,-6.203125 3.296875,-7.5 3.4375,-7.625 3.4375,-7.640625 3.4375,-7.671875 3.4375,-7.75 3.390625,-7.78125 3.328125,-7.78125 c -0.09375,0 -1.03125,0.703125 -1.640625,2.015625 -0.53125,1.15625 -0.65625,2.296875 -0.65625,3.171875 0,0.8125 0.109375,2.0625 0.6875,3.234375 0.609375,1.28125 1.515625,1.953125 1.609375,1.953125 0.0625,0 0.109375,-0.03125 0.109375,-0.109375 z m 0,0"
   id="id-d52efd86-cc2b-4849-bebc-7f597de51819"
   style="stroke-width:1.15468" />
      </g></g>
  <g
   fill="#000000"
   fill-opacity="1"
   id="id-7da1c83e-4ee4-47aa-ae38-728f8cb6d180"
   transform="translate(-149.868,-126.984)"
   style="stroke-width:1.15468">
    <g
   transform="translate(152.986,134.765)"
   id="g11"
   style="stroke-width:1.15468"><path
   d="m 1.265625,-6.03125 c 1.28125,0.046875 1.84375,0.046875 3.046875,0.046875 L 4.359375,-6.03125 C 4.34375,-6.203125 4.34375,-6.296875 4.34375,-6.421875 c 0,-0.140625 0,-0.21875 0.015625,-0.390625 L 4.3125,-6.875 c -0.75,0.046875 -1.203125,0.0625 -1.734375,0.0625 -0.546875,0 -1,-0.015625 -1.734375,-0.0625 l -0.0625,0.0625 c 0.015625,0.609375 0.03125,1.046875 0.03125,1.359375 0,0.84375 -0.03125,1.796875 -0.0625,2.25 l 0.203125,0.046875 c 0.46875,-0.46875 0.734375,-0.609375 1.21875,-0.609375 0.953125,0 1.5625,0.6875 1.5625,1.765625 0,1.109375 -0.640625,1.75 -1.734375,1.75 -0.53125,0 -1.03125,-0.171875 -1.171875,-0.4375 L 0.375,-1.5 0.125,-1.359375 c 0.234375,0.5625 0.359375,0.875 0.5,1.3125 0.265625,0.15625 0.671875,0.25 1.09375,0.25 0.671875,0 1.375,-0.296875 1.9375,-0.765625 0.59375,-0.546875 0.921875,-1.21875 0.921875,-1.953125 0,-1.140625 -0.8125,-1.9375 -1.953125,-1.9375 -0.46875,0 -0.828125,0.140625 -1.453125,0.5 z m 0,0"
   id="id-77ca73bd-002c-431e-9ec2-0344b7ba717f"
   style="stroke-width:1.15468" />
      </g><g
   transform="translate(157.967,134.765)"
   id="g12"
   style="stroke-width:1.15468"><path
   d="m 2.03125,-1.21875 c -0.265625,0.078125 -0.453125,0.140625 -0.96875,0.296875 -0.078125,0.75 -0.328125,1.40625 -0.90625,2.359375 l 0.140625,0.109375 0.40625,-0.1875 C 1.515625,0.3125 1.890625,-0.3125 2.171875,-1.09375 Z m 0,0"
   id="id-9fd22841-96b2-4d59-8eee-acd12f02f2e5"
   style="stroke-width:1.15468" />
      </g></g>
  <g
   fill="#000000"
   fill-opacity="1"
   id="id-5bf9eb0f-dd55-4011-94ff-c58401f0c436"
   transform="translate(-149.868,-126.984)"
   style="stroke-width:1.15468">
    <g
   transform="translate(162.122,134.765)"
   id="g13"
   style="stroke-width:1.15468"><path
   d="m 0.421875,-4.96875 h 0.3125 l 0.1875,-0.546875 c 0.109375,-0.34375 0.734375,-0.6875 1.25,-0.6875 0.65625,0 1.171875,0.53125 1.171875,1.15625 0,0.75 -0.578125,1.375 -1.296875,1.375 -0.078125,0 -0.1875,0 -0.3125,-0.015625 l -0.15625,-0.015625 -0.109375,0.53125 0.0625,0.0625 c 0.375,-0.171875 0.578125,-0.21875 0.84375,-0.21875 0.828125,0 1.296875,0.53125 1.296875,1.4375 0,1.015625 -0.59375,1.6875 -1.53125,1.6875 -0.453125,0 -0.859375,-0.15625 -1.15625,-0.4375 -0.25,-0.21875 -0.375,-0.453125 -0.5625,-0.984375 L 0.15625,-1.53125 C 0.359375,-0.921875 0.4375,-0.5625 0.5,-0.0625 1.03125,0.125 1.46875,0.203125 1.828125,0.203125 c 0.796875,0 1.71875,-0.453125 2.265625,-1.125 0.34375,-0.40625 0.515625,-0.84375 0.515625,-1.3125 0,-0.484375 -0.203125,-0.890625 -0.5625,-1.140625 -0.25,-0.1875 -0.484375,-0.265625 -0.96875,-0.359375 0.796875,-0.609375 1.09375,-1.078125 1.09375,-1.65625 0,-0.890625 -0.75,-1.484375 -1.84375,-1.484375 -0.6875,0 -1.125,0.203125 -1.609375,0.671875 z m 0,0"
   id="id-0909c307-022c-4050-abc5-0175f0ee5bb6"
   style="stroke-width:1.15468" />
      </g></g>
  <g
   fill="#000000"
   fill-opacity="1"
   id="id-bb9cd2db-66ac-4bd6-9624-8acd5a9a211f"
   transform="translate(-149.868,-126.984)"
   style="stroke-width:1.15468">
    <g
   transform="translate(167.225,134.765)"
   id="g14"
   style="stroke-width:1.15468"><path
   d="m 3,-2.59375 c 0,-0.8125 -0.109375,-2.0625 -0.6875,-3.234375 -0.625,-1.28125 -1.515625,-1.953125 -1.625,-1.953125 -0.046875,0 -0.09375,0.046875 -0.09375,0.109375 0,0.03125 0,0.046875 0.1875,0.234375 1.03125,1.03125 1.609375,2.671875 1.609375,4.84375 0,1.78125 -0.375,3.59375 -1.671875,4.90625 -0.125,0.125 -0.125,0.140625 -0.125,0.171875 0,0.0625 0.046875,0.109375 0.09375,0.109375 0.109375,0 1.046875,-0.703125 1.65625,-2.015625 C 2.875,-0.578125 3,-1.71875 3,-2.59375 Z m 0,0"
   id="id-cfe5473b-b0e0-4e24-827c-d86d3da434b7"
   style="stroke-width:1.15468" />
      </g></g>
</g><path
       style="font-variation-settings:normal;opacity:1;vector-effect:none;fill:none;fill-opacity:1;fill-rule:evenodd;stroke:#4d4d4d;stroke-width:0.3;stroke-linecap:butt;stroke-linejoin:miter;stroke-miterlimit:4;stroke-dasharray:none;stroke-dashoffset:0;stroke-opacity:1;-inkscape-stroke:none;stop-color:#000000;stop-opacity:1"
       d="m 112.24576,139.27509 -1.32643,1.09537 -1.27555,-1.60134"
       id="path13"
       sodipodi:nodetypes="ccc" /><path
       style="font-variation-settings:normal;opacity:1;vector-effect:none;fill:none;fill-opacity:1;fill-rule:evenodd;stroke:#4d4d4d;stroke-width:0.3;stroke-linecap:butt;stroke-linejoin:miter;stroke-miterlimit:4;stroke-dasharray:none;stroke-dashoffset:0;stroke-opacity:1;-inkscape-stroke:none"
       d="m 125.61786,173.32031 h -1.70234 l 0,1.90985"
       id="path14"
       sodipodi:nodetypes="ccc" /><path
       style="fill:none;fill-opacity:1;fill-rule:nonzero;stroke:#0000ff;stroke-width:0.952722;stroke-dasharray:none"
       d="m 134.96436,139.61196 a 28.925672,28.925672 0 0 1 -57.851342,0 28.925672,28.925672 0 0 1 57.851342,0 z"
       id="path3"
       inkscape:path-effect="#path-effect3"
       inkscape:original-d="m 106.03869,139.61196 c 7.95022,-5.45528 15.90045,-10.91055 23.85067,-16.36582"
       transform="matrix(0.73473685,0,0,0.73473685,47.707335,50.898171)" /><g
       transform="matrix(0.529167,0,0,0.529167,67.46825,176.2995)"
       ns4:version="1.10.2"
       ns4:texconverter="pdflatex"
       ns4:pdfconverter="inkscape"
       ns4:text="$O$"
       ns4:preamble="/Users/sachchidanandprasad/Library/Application Support/org.inkscape.Inkscape/config/inkscape/extensions/textext/default_packages.tex"
       ns4:scale="1.4999999980930703"
       ns4:alignment="middle center"
       ns4:stroke-to-path="0"
       ns4:inkscapeversion="1.4"
       ns4:jacobian_sqrt="0.529167"
       id="g17"><defs
   id="id-f608c318-377f-4fc4-ac8b-2afdaabf34b5">
    <g
   id="id-6e481584-0f22-4464-8b2c-9dd934e0380f">
      <g
   id="id-7b07a019-bc7e-4d13-a519-ea99d4995d16">
        <path
   d="m 4.625,-7.03125 c -2.359375,0 -4.09375,1.8125 -4.09375,4.3125 0,1.890625 0.9375,2.890625 2.6875,2.890625 0.84375,0 1.5625,-0.1875 2.203125,-0.59375 1.25,-0.78125 2.03125,-2.234375 2.03125,-3.8125 0,-1.78125 -1.03125,-2.796875 -2.828125,-2.796875 z M 4.3125,-6.625 c 0.484375,0 0.96875,0.125 1.296875,0.328125 0.65625,0.375 0.96875,1.125 0.96875,2.21875 0,1.25 -0.390625,2.390625 -1.078125,3.078125 -0.484375,0.5 -1.140625,0.765625 -1.90625,0.765625 -1.4375,0 -2.1875,-0.859375 -2.1875,-2.53125 C 1.40625,-4.0625 1.796875,-5.21875 2.5,-5.90625 2.953125,-6.390625 3.5625,-6.625 4.3125,-6.625 Z m 0,0"
   id="id-ccec98aa-ef39-421e-80a0-69b822c34193" />
      </g>
    </g>
  </defs>
  <g
   fill="#000000"
   fill-opacity="1"
   id="id-8cd26efc-387b-450c-a331-e9f077ed096d"
   transform="translate(-149.119,-127.734)">
    <g
   transform="translate(148.588,134.765)"
   id="g16"><path
   d="m 4.625,-7.03125 c -2.359375,0 -4.09375,1.8125 -4.09375,4.3125 0,1.890625 0.9375,2.890625 2.6875,2.890625 0.84375,0 1.5625,-0.1875 2.203125,-0.59375 1.25,-0.78125 2.03125,-2.234375 2.03125,-3.8125 0,-1.78125 -1.03125,-2.796875 -2.828125,-2.796875 z M 4.3125,-6.625 c 0.484375,0 0.96875,0.125 1.296875,0.328125 0.65625,0.375 0.96875,1.125 0.96875,2.21875 0,1.25 -0.390625,2.390625 -1.078125,3.078125 -0.484375,0.5 -1.140625,0.765625 -1.90625,0.765625 -1.4375,0 -2.1875,-0.859375 -2.1875,-2.53125 C 1.40625,-4.0625 1.796875,-5.21875 2.5,-5.90625 2.953125,-6.390625 3.5625,-6.625 4.3125,-6.625 Z m 0,0"
   id="id-2b5bb4e1-512b-4ee3-bf0f-7bbb0b2c1484" />
      </g></g>
</g><g
       transform="matrix(0.529167,0,0,0.529167,105.72676,134.82618)"
       ns4:version="1.10.2"
       ns4:texconverter="pdflatex"
       ns4:pdfconverter="inkscape"
       ns4:text="$A$"
       ns4:preamble="/Users/sachchidanandprasad/Library/Application Support/org.inkscape.Inkscape/config/inkscape/extensions/textext/default_packages.tex"
       ns4:scale="1.4999999980930703"
       ns4:alignment="middle center"
       ns4:stroke-to-path="0"
       ns4:inkscapeversion="1.4"
       ns4:jacobian_sqrt="0.529167"
       id="g19"><defs
   id="id-8386ef6a-8d08-4abe-949c-6de5a7589532">
    <g
   id="id-87d54b6c-deb1-4ee7-bcd5-1f4e1198ee35">
      <g
   id="id-c9e6d9e9-b33f-442b-9ea7-c106777d5c66">
        <path
   d="m 4.609375,-7.03125 -3.71875,5.921875 C 0.53125,-0.5625 0.34375,-0.40625 0.015625,-0.3125 L -0.1875,-0.265625 V 0.03125 C 0.734375,0 0.734375,0 0.921875,0 1.109375,0 1.140625,0 2,0.03125 V -0.25 L 1.46875,-0.28125 C 1.3125,-0.296875 1.171875,-0.375 1.171875,-0.46875 c 0,-0.078125 0.0625,-0.21875 0.25,-0.546875 l 1.015625,-1.75 h 2.453125 l 0.25,1.875 v 0.03125 c 0,0.015625 0.015625,0.046875 0.015625,0.09375 0.015625,0.078125 0.03125,0.171875 0.03125,0.21875 0,0.15625 -0.15625,0.25 -0.4375,0.265625 L 4.3125,-0.25 V 0.03125 C 5.328125,0 5.328125,0 5.53125,0 5.734375,0 5.734375,0 6.75,0.03125 V -0.25 L 6.484375,-0.28125 C 6.015625,-0.34375 6.015625,-0.34375 5.9375,-0.796875 L 5.0625,-7.03125 Z M 4.46875,-5.984375 4.84375,-3.125 H 2.6875 Z m 0,0"
   id="id-1c42178e-a035-4abe-beb6-cef148f64e2d" />
      </g>
    </g>
  </defs>
  <g
   fill="#000000"
   fill-opacity="1"
   id="id-ab17bdc9-6a90-48f5-8e86-8a1fdd22af5d"
   transform="translate(-149.148,-127.734)">
    <g
   transform="translate(149.335,134.765)"
   id="g18"><path
   d="m 4.609375,-7.03125 -3.71875,5.921875 C 0.53125,-0.5625 0.34375,-0.40625 0.015625,-0.3125 L -0.1875,-0.265625 V 0.03125 C 0.734375,0 0.734375,0 0.921875,0 1.109375,0 1.140625,0 2,0.03125 V -0.25 L 1.46875,-0.28125 C 1.3125,-0.296875 1.171875,-0.375 1.171875,-0.46875 c 0,-0.078125 0.0625,-0.21875 0.25,-0.546875 l 1.015625,-1.75 h 2.453125 l 0.25,1.875 v 0.03125 c 0,0.015625 0.015625,0.046875 0.015625,0.09375 0.015625,0.078125 0.03125,0.171875 0.03125,0.21875 0,0.15625 -0.15625,0.25 -0.4375,0.265625 L 4.3125,-0.25 V 0.03125 C 5.328125,0 5.328125,0 5.53125,0 5.734375,0 5.734375,0 6.75,0.03125 V -0.25 L 6.484375,-0.28125 C 6.015625,-0.34375 6.015625,-0.34375 5.9375,-0.796875 L 5.0625,-7.03125 Z M 4.46875,-5.984375 4.84375,-3.125 H 2.6875 Z m 0,0"
   id="id-55a8499d-bad5-410e-80d9-ca552d184c4e" />
      </g></g>
</g><g
       transform="matrix(0.410792,0,0,0.410792,82.75179,165.71709)"
       ns4:version="1.10.2"
       ns4:texconverter="pdflatex"
       ns4:pdfconverter="inkscape"
       ns4:text="$\\theta$"
       ns4:preamble="/Users/sachchidanandprasad/Library/Application Support/org.inkscape.Inkscape/config/inkscape/extensions/textext/default_packages.tex"
       ns4:scale="1.1644503894170415"
       ns4:alignment="middle center"
       ns4:stroke-to-path="0"
       ns4:inkscapeversion="1.4"
       ns4:jacobian_sqrt="0.410792"
       style="stroke-width:0"
       id="g27"><defs
   id="id-08e471bb-a29f-46b4-b2fd-65f4a97f8262"
   style="stroke-width:0">
    <g
   id="id-41ae5143-12cb-4c10-a462-2ff2892eee88"
   style="stroke-width:0">
      <g
   id="id-ad691174-3204-4ffc-9b34-8d706ab10e85"
   style="stroke-width:0">
        <path
   d="m 3.15625,-7.09375 c -0.421875,0 -0.859375,0.21875 -1.328125,0.65625 -0.875,0.859375 -1.53125,2.359375 -1.53125,4.1875 0,1.59375 0.3125,2.359375 1.15625,2.359375 0.515625,0 1.140625,-0.375 1.609375,-0.96875 C 3.734375,-1.71875 4.359375,-3.375 4.359375,-4.875 c 0,-1.390625 -0.375,-2.21875 -1.203125,-2.21875 z m -0.859375,3.796875 c 0.6875,0 0.96875,0.03125 1.125,0.109375 -0.21875,1.015625 -0.578125,1.90625 -0.90625,2.4375 -0.1875,0.296875 -0.46875,0.484375 -0.765625,0.484375 -0.59375,0 -0.703125,-0.765625 -0.703125,-1.953125 0,-0.3125 0.015625,-0.625 0.0625,-0.953125 0.21875,-0.09375 0.484375,-0.125 1.1875,-0.125 z m 0.609375,-3.40625 c 0.625,0 0.6875,0.8125 0.6875,2.046875 0,0.28125 -0.015625,0.5625 -0.0625,0.84375 -0.1875,0.078125 -0.5,0.109375 -1.15625,0.109375 -0.6875,0 -0.96875,-0.03125 -1.15625,-0.109375 0.265625,-1.171875 0.71875,-2.25 1.078125,-2.671875 0.140625,-0.140625 0.375,-0.21875 0.609375,-0.21875 z m 0,0"
   id="id-fff7c7f8-cd45-40a6-bd7c-75d8b0d3cfd7"
   style="stroke-width:0" />
      </g>
    </g>
  </defs>
  <g
   fill="#000000"
   fill-opacity="1"
   id="id-9cefbb9c-417c-4ce8-9fe7-366725a960c4"
   transform="translate(-149.134,-127.671)"
   style="stroke-width:0">
    <g
   transform="translate(148.837,134.765)"
   style="stroke-width:0"
   id="g26"><path
   d="m 3.15625,-7.09375 c -0.421875,0 -0.859375,0.21875 -1.328125,0.65625 -0.875,0.859375 -1.53125,2.359375 -1.53125,4.1875 0,1.59375 0.3125,2.359375 1.15625,2.359375 0.515625,0 1.140625,-0.375 1.609375,-0.96875 C 3.734375,-1.71875 4.359375,-3.375 4.359375,-4.875 c 0,-1.390625 -0.375,-2.21875 -1.203125,-2.21875 z m -0.859375,3.796875 c 0.6875,0 0.96875,0.03125 1.125,0.109375 -0.21875,1.015625 -0.578125,1.90625 -0.90625,2.4375 -0.1875,0.296875 -0.46875,0.484375 -0.765625,0.484375 -0.59375,0 -0.703125,-0.765625 -0.703125,-1.953125 0,-0.3125 0.015625,-0.625 0.0625,-0.953125 0.21875,-0.09375 0.484375,-0.125 1.1875,-0.125 z m 0.609375,-3.40625 c 0.625,0 0.6875,0.8125 0.6875,2.046875 0,0.28125 -0.015625,0.5625 -0.0625,0.84375 -0.1875,0.078125 -0.5,0.109375 -1.15625,0.109375 -0.6875,0 -0.96875,-0.03125 -1.15625,-0.109375 0.265625,-1.171875 0.71875,-2.25 1.078125,-2.671875 0.140625,-0.140625 0.375,-0.21875 0.609375,-0.21875 z m 0,0"
   id="id-ac145ac6-7de6-4129-8183-b380a64f5c9f"
   style="stroke-width:0" />
      </g></g>
</g><g
       transform="matrix(0.410792,0,0,0.410792,82.826545,171.3237)"
       ns4:version="1.10.2"
       ns4:texconverter="pdflatex"
       ns4:pdfconverter="inkscape"
       ns4:text="$\\theta$"
       ns4:preamble="/Users/sachchidanandprasad/Library/Application Support/org.inkscape.Inkscape/config/inkscape/extensions/textext/default_packages.tex"
       ns4:scale="1.1644503894170415"
       ns4:alignment="middle center"
       ns4:stroke-to-path="0"
       ns4:inkscapeversion="1.4"
       ns4:jacobian_sqrt="0.410792"
       style="stroke-width:0"
       id="g32"><defs
   id="defs29"
   style="stroke-width:0">
    <g
   id="g29"
   style="stroke-width:0">
      <g
   id="g28"
   style="stroke-width:0">
        <path
   d="m 3.15625,-7.09375 c -0.421875,0 -0.859375,0.21875 -1.328125,0.65625 -0.875,0.859375 -1.53125,2.359375 -1.53125,4.1875 0,1.59375 0.3125,2.359375 1.15625,2.359375 0.515625,0 1.140625,-0.375 1.609375,-0.96875 C 3.734375,-1.71875 4.359375,-3.375 4.359375,-4.875 c 0,-1.390625 -0.375,-2.21875 -1.203125,-2.21875 z m -0.859375,3.796875 c 0.6875,0 0.96875,0.03125 1.125,0.109375 -0.21875,1.015625 -0.578125,1.90625 -0.90625,2.4375 -0.1875,0.296875 -0.46875,0.484375 -0.765625,0.484375 -0.59375,0 -0.703125,-0.765625 -0.703125,-1.953125 0,-0.3125 0.015625,-0.625 0.0625,-0.953125 0.21875,-0.09375 0.484375,-0.125 1.1875,-0.125 z m 0.609375,-3.40625 c 0.625,0 0.6875,0.8125 0.6875,2.046875 0,0.28125 -0.015625,0.5625 -0.0625,0.84375 -0.1875,0.078125 -0.5,0.109375 -1.15625,0.109375 -0.6875,0 -0.96875,-0.03125 -1.15625,-0.109375 0.265625,-1.171875 0.71875,-2.25 1.078125,-2.671875 0.140625,-0.140625 0.375,-0.21875 0.609375,-0.21875 z m 0,0"
   id="path27"
   style="stroke-width:0" />
      </g>
    </g>
  </defs>
  <g
   fill="#000000"
   fill-opacity="1"
   id="g31"
   transform="translate(-149.134,-127.671)"
   style="stroke-width:0">
    <g
   transform="translate(148.837,134.765)"
   style="stroke-width:0"
   id="g30"><path
   d="m 3.15625,-7.09375 c -0.421875,0 -0.859375,0.21875 -1.328125,0.65625 -0.875,0.859375 -1.53125,2.359375 -1.53125,4.1875 0,1.59375 0.3125,2.359375 1.15625,2.359375 0.515625,0 1.140625,-0.375 1.609375,-0.96875 C 3.734375,-1.71875 4.359375,-3.375 4.359375,-4.875 c 0,-1.390625 -0.375,-2.21875 -1.203125,-2.21875 z m -0.859375,3.796875 c 0.6875,0 0.96875,0.03125 1.125,0.109375 -0.21875,1.015625 -0.578125,1.90625 -0.90625,2.4375 -0.1875,0.296875 -0.46875,0.484375 -0.765625,0.484375 -0.59375,0 -0.703125,-0.765625 -0.703125,-1.953125 0,-0.3125 0.015625,-0.625 0.0625,-0.953125 0.21875,-0.09375 0.484375,-0.125 1.1875,-0.125 z m 0.609375,-3.40625 c 0.625,0 0.6875,0.8125 0.6875,2.046875 0,0.28125 -0.015625,0.5625 -0.0625,0.84375 -0.1875,0.078125 -0.5,0.109375 -1.15625,0.109375 -0.6875,0 -0.96875,-0.03125 -1.15625,-0.109375 0.265625,-1.171875 0.71875,-2.25 1.078125,-2.671875 0.140625,-0.140625 0.375,-0.21875 0.609375,-0.21875 z m 0,0"
   id="path29"
   style="stroke-width:0" />
      </g></g>
</g></g><g
     transform="matrix(0.529167,0,0,0.529167,67.497306,53.128052)"
     ns4:version="1.10.2"
     ns4:texconverter="pdflatex"
     ns4:pdfconverter="inkscape"
     ns4:text="$B$"
     ns4:preamble="/Users/sachchidanandprasad/Library/Application Support/org.inkscape.Inkscape/config/inkscape/extensions/textext/default_packages.tex"
     ns4:scale="1.4999999980930703"
     ns4:alignment="middle center"
     ns4:stroke-to-path="0"
     ns4:inkscapeversion="1.4"
     ns4:jacobian_sqrt="0.529167"
     id="g21"><defs
   id="id-64509569-088a-417c-9bac-554338f861f8">
    <g
   id="id-b3a64f97-bf75-4fa6-9052-fad4c2dcf691">
      <g
   id="id-1c64cc45-c6cb-4ac4-a5b8-f506ab2b4b0f">
        <path
   d="M 0.96875,-6.625 1.5,-6.59375 c 0.234375,0 0.34375,0.078125 0.34375,0.265625 0,0.140625 -0.046875,0.453125 -0.09375,0.75 l -0.859375,5.03125 c -0.046875,0.171875 -0.15625,0.25 -0.578125,0.3125 L 0.265625,0.03125 0.625,0.015625 C 0.890625,0 1.046875,0 1.171875,0 1.28125,0 1.53125,0.015625 1.796875,0.015625 L 2.15625,0.03125 2.359375,0.046875 c 0.1875,0 0.328125,0.015625 0.40625,0.015625 0.46875,0 0.953125,-0.140625 1.421875,-0.421875 0.78125,-0.46875 1.21875,-1.140625 1.21875,-1.90625 0,-0.421875 -0.125,-0.75 -0.40625,-0.96875 -0.25,-0.21875 -0.546875,-0.296875 -1.234375,-0.40625 0.5625,-0.203125 0.8125,-0.3125 1.125,-0.59375 0.453125,-0.390625 0.6875,-0.859375 0.6875,-1.375 C 5.578125,-6.421875 5,-6.890625 4,-6.890625 c -0.015625,0 -0.125,0 -0.265625,0 L 3.09375,-6.875 c -0.109375,0 -0.46875,0 -0.59375,0 -0.1875,0 -0.5,0 -0.984375,-0.015625 H 1 Z m 1.1875,3.234375 h 0.859375 c 1.015625,0 1.515625,0.421875 1.515625,1.28125 0,1.03125 -0.71875,1.765625 -1.71875,1.765625 -0.203125,0 -0.484375,0 -0.8125,-0.03125 C 1.9375,-0.390625 1.8125,-0.40625 1.65625,-0.40625 Z m 0.5625,-3.09375 c 0.109375,0 0.125,0 0.328125,-0.015625 0.21875,-0.015625 0.34375,-0.03125 0.46875,-0.03125 0.796875,0 1.203125,0.359375 1.203125,1.109375 C 4.71875,-4.375 3.984375,-3.75 2.734375,-3.75 H 2.21875 Z m 0,0"
   id="id-daabe311-090b-4258-a575-d5a947b74d40" />
      </g>
    </g>
  </defs>
  <g
   fill="#000000"
   fill-opacity="1"
   id="id-b214ba9c-3b33-4326-a971-0d05bf4d4269"
   transform="translate(-149.302,-127.874)">
    <g
   transform="translate(149.036,134.765)"
   id="g20"><path
   d="M 0.96875,-6.625 1.5,-6.59375 c 0.234375,0 0.34375,0.078125 0.34375,0.265625 0,0.140625 -0.046875,0.453125 -0.09375,0.75 l -0.859375,5.03125 c -0.046875,0.171875 -0.15625,0.25 -0.578125,0.3125 L 0.265625,0.03125 0.625,0.015625 C 0.890625,0 1.046875,0 1.171875,0 1.28125,0 1.53125,0.015625 1.796875,0.015625 L 2.15625,0.03125 2.359375,0.046875 c 0.1875,0 0.328125,0.015625 0.40625,0.015625 0.46875,0 0.953125,-0.140625 1.421875,-0.421875 0.78125,-0.46875 1.21875,-1.140625 1.21875,-1.90625 0,-0.421875 -0.125,-0.75 -0.40625,-0.96875 -0.25,-0.21875 -0.546875,-0.296875 -1.234375,-0.40625 0.5625,-0.203125 0.8125,-0.3125 1.125,-0.59375 0.453125,-0.390625 0.6875,-0.859375 0.6875,-1.375 C 5.578125,-6.421875 5,-6.890625 4,-6.890625 c -0.015625,0 -0.125,0 -0.265625,0 L 3.09375,-6.875 c -0.109375,0 -0.46875,0 -0.59375,0 -0.1875,0 -0.5,0 -0.984375,-0.015625 H 1 Z m 1.1875,3.234375 h 0.859375 c 1.015625,0 1.515625,0.421875 1.515625,1.28125 0,1.03125 -0.71875,1.765625 -1.71875,1.765625 -0.203125,0 -0.484375,0 -0.8125,-0.03125 C 1.9375,-0.390625 1.8125,-0.40625 1.65625,-0.40625 Z m 0.5625,-3.09375 c 0.109375,0 0.125,0 0.328125,-0.015625 0.21875,-0.015625 0.34375,-0.03125 0.46875,-0.03125 0.796875,0 1.203125,0.359375 1.203125,1.109375 C 4.71875,-4.375 3.984375,-3.75 2.734375,-3.75 H 2.21875 Z m 0,0"
   id="id-4e0e0988-05ac-4b65-b5ee-864d4544953a" />
      </g></g>
</g><g
     transform="matrix(0.529167,0,0,0.529167,70.365587,29.399674)"
     ns4:version="1.10.2"
     ns4:texconverter="pdflatex"
     ns4:pdfconverter="inkscape"
     ns4:text="$C$"
     ns4:preamble="/Users/sachchidanandprasad/Library/Application Support/org.inkscape.Inkscape/config/inkscape/extensions/textext/default_packages.tex"
     ns4:scale="1.4999999980930703"
     ns4:alignment="middle center"
     ns4:stroke-to-path="0"
     ns4:inkscapeversion="1.4"
     ns4:jacobian_sqrt="0.529167"
     id="g23"><defs
   id="id-a86b3a80-f3d1-43e7-8b2a-cf721239f959">
    <g
   id="id-c16aff45-44dd-481d-a6a1-f5b78d0ef1ba">
      <g
   id="id-c5235aa5-d6ed-402b-aab8-e0ae2bcd06de">
        <path
   d="M 5.953125,-5.171875 H 6.21875 c 0.046875,-0.5625 0.125,-1 0.265625,-1.453125 -0.75,-0.296875 -1.328125,-0.40625 -1.9375,-0.40625 -0.8125,0 -1.640625,0.25 -2.328125,0.71875 -1.171875,0.78125 -1.765625,1.953125 -1.765625,3.484375 0,1.9375 1.0625,3 2.96875,3 0.953125,0 1.65625,-0.21875 2.5625,-0.84375 l 0.09375,-0.359375 -0.09375,-0.0625 c -0.9375,0.5625 -1.453125,0.75 -2.234375,0.75 -1.5625,0 -2.421875,-0.96875 -2.421875,-2.734375 0,-1.109375 0.34375,-2.09375 0.9375,-2.71875 0.46875,-0.46875 1.109375,-0.71875 1.90625,-0.71875 0.703125,0 1.21875,0.140625 1.78125,0.5 z m 0,0"
   id="id-b0bdfac1-ad2b-4234-9c62-7f700449cee0" />
      </g>
    </g>
  </defs>
  <g
   fill="#000000"
   fill-opacity="1"
   id="id-62548e87-2dc2-4109-ac15-ac5f8cef1710"
   transform="translate(-149.25,-127.734)">
    <g
   transform="translate(148.797,134.765)"
   id="g22"><path
   d="M 5.953125,-5.171875 H 6.21875 c 0.046875,-0.5625 0.125,-1 0.265625,-1.453125 -0.75,-0.296875 -1.328125,-0.40625 -1.9375,-0.40625 -0.8125,0 -1.640625,0.25 -2.328125,0.71875 -1.171875,0.78125 -1.765625,1.953125 -1.765625,3.484375 0,1.9375 1.0625,3 2.96875,3 0.953125,0 1.65625,-0.21875 2.5625,-0.84375 l 0.09375,-0.359375 -0.09375,-0.0625 c -0.9375,0.5625 -1.453125,0.75 -2.234375,0.75 -1.5625,0 -2.421875,-0.96875 -2.421875,-2.734375 0,-1.109375 0.34375,-2.09375 0.9375,-2.71875 0.46875,-0.46875 1.109375,-0.71875 1.90625,-0.71875 0.703125,0 1.21875,0.140625 1.78125,0.5 z m 0,0"
   id="id-5b0f06e9-fc8b-4566-9ca7-edaf826219ec" />
      </g></g>
</g></svg>
