<?xml version="1.0" encoding="UTF-8" standalone="no"?>
<!-- Created with Inkscape (http://www.inkscape.org/) -->

<svg
   width="651.06726"
   height="76.918839"
   viewBox="0 0 651.06726 76.918839"
   version="1.1"
   id="svg1"
   inkscape:version="1.3 (1:1.3+202307231459+0e150ed6c4)"
   sodipodi:docname="prob-21-09-23_01.svg"
   xmlns:inkscape="http://www.inkscape.org/namespaces/inkscape"
   xmlns:sodipodi="http://sodipodi.sourceforge.net/DTD/sodipodi-0.dtd"
   xmlns="http://www.w3.org/2000/svg"
   xmlns:svg="http://www.w3.org/2000/svg">
  <sodipodi:namedview
     id="namedview1"
     pagecolor="#ffffff"
     bordercolor="#999999"
     borderopacity="1"
     inkscape:showpageshadow="true"
     inkscape:pageopacity="0"
     inkscape:pagecheckerboard="false"
     inkscape:deskcolor="#d1d1d1"
     inkscape:document-units="px"
     showborder="false"
     labelstyle="default"
     inkscape:clip-to-page="false"
     inkscape:zoom="2.8284271"
     inkscape:cx="381.48411"
     inkscape:cy="24.218407"
     inkscape:window-width="1920"
     inkscape:window-height="1012"
     inkscape:window-x="0"
     inkscape:window-y="32"
     inkscape:window-maximized="1"
     inkscape:current-layer="layer1" />
  <defs
     id="defs1">
    <inkscape:path-effect
       effect="bspline"
       id="path-effect41"
       is_visible="true"
       lpeversion="1.3"
       weight="33.333333"
       steps="2"
       helper_size="0"
       apply_no_weight="true"
       apply_with_weight="true"
       only_selected="false"
       uniform="false" />
    <inkscape:path-effect
       effect="bspline"
       id="path-effect30"
       is_visible="true"
       lpeversion="1.3"
       weight="33.333333"
       steps="2"
       helper_size="0"
       apply_no_weight="true"
       apply_with_weight="true"
       only_selected="false"
       uniform="false" />
    <inkscape:path-effect
       effect="bspline"
       id="path-effect28"
       is_visible="true"
       lpeversion="1.3"
       weight="33.333333"
       steps="2"
       helper_size="0"
       apply_no_weight="true"
       apply_with_weight="true"
       only_selected="false"
       uniform="false" />
    <inkscape:path-effect
       effect="bspline"
       id="path-effect26"
       is_visible="true"
       lpeversion="1.3"
       weight="33.333333"
       steps="2"
       helper_size="0"
       apply_no_weight="true"
       apply_with_weight="true"
       only_selected="false"
       uniform="false" />
    <inkscape:path-effect
       effect="bspline"
       id="path-effect7"
       is_visible="true"
       lpeversion="1.3"
       weight="33.333333"
       steps="2"
       helper_size="0"
       apply_no_weight="true"
       apply_with_weight="true"
       only_selected="false"
       uniform="false" />
    <inkscape:path-effect
       effect="bspline"
       id="path-effect5"
       is_visible="true"
       lpeversion="1.3"
       weight="33.333333"
       steps="2"
       helper_size="0"
       apply_no_weight="true"
       apply_with_weight="true"
       only_selected="false"
       uniform="false" />
    <inkscape:path-effect
       effect="bspline"
       id="path-effect3"
       is_visible="true"
       lpeversion="1.3"
       weight="33.333333"
       steps="2"
       helper_size="0"
       apply_no_weight="true"
       apply_with_weight="true"
       only_selected="false"
       uniform="false" />
    <marker
       style="overflow:visible"
       id="marker2"
       refX="0"
       refY="0"
       orient="auto-start-reverse"
       inkscape:stockid="Concave triangle arrow"
       markerWidth="1"
       markerHeight="1"
       viewBox="0 0 1 1"
       inkscape:isstock="true"
       inkscape:collect="always"
       preserveAspectRatio="xMidYMid">
      <path
         transform="scale(0.7)"
         d="M -2,-4 9,0 -2,4 c 2,-2.33 2,-5.66 0,-8 z"
         style="fill:context-stroke;fill-rule:evenodd;stroke:none"
         id="path2" />
    </marker>
    <marker
       style="overflow:visible"
       id="ConcaveTriangle"
       refX="0"
       refY="0"
       orient="auto-start-reverse"
       inkscape:stockid="Concave triangle arrow"
       markerWidth="1"
       markerHeight="1"
       viewBox="0 0 1 1"
       inkscape:isstock="true"
       inkscape:collect="always"
       preserveAspectRatio="xMidYMid">
      <path
         transform="scale(0.7)"
         d="M -2,-4 9,0 -2,4 c 2,-2.33 2,-5.66 0,-8 z"
         style="fill:context-stroke;fill-rule:evenodd;stroke:none"
         id="path7" />
    </marker>
    <inkscape:path-effect
       effect="bspline"
       id="path-effect1"
       is_visible="true"
       lpeversion="1.3"
       weight="33.333333"
       steps="2"
       helper_size="0"
       apply_no_weight="true"
       apply_with_weight="true"
       only_selected="false"
       uniform="false" />
  </defs>
  <g
     inkscape:label="Layer 1"
     inkscape:groupmode="layer"
     id="layer1"
     transform="translate(-308.58284,-328.8885)">
    <path
       style="fill:none;stroke:#000000;stroke-width:3.42032;stroke-linecap:butt;stroke-linejoin:miter;stroke-dasharray:none;stroke-opacity:1;marker-start:url(#ConcaveTriangle);marker-end:url(#marker2)"
       d="m 164.67284,360 c 312.96242,0 625.92484,0 938.88726,0"
       id="path1"
       inkscape:path-effect="#path-effect1"
       inkscape:original-d="m 164.67284,360 c 312.96242,0 625.92484,0 938.88726,0"
       transform="matrix(0.66301254,0,0,0.66301254,213.6893,121.31549)" />
    <path
       style="fill:none;stroke:#000000;stroke-width:8.45478;stroke-linecap:butt;stroke-linejoin:miter;stroke-dasharray:none;stroke-opacity:1"
       d="m 634.11647,325.7266 c 0,22.85915 0,45.7183 0,68.57744"
       id="path4"
       inkscape:path-effect="#path-effect5"
       inkscape:original-d="m 634.11647,325.7266 c 0,22.85915 0,45.7183 0,68.57744"
       transform="matrix(0.2972743,0,0,0.2972743,349.00029,252.9767)" />
    <path
       style="fill:none;stroke:#000000;stroke-width:8.45478;stroke-linecap:butt;stroke-linejoin:miter;stroke-dasharray:none;stroke-opacity:1"
       d="m 634.11647,325.7266 c 0,22.85915 0,45.7183 0,68.57744"
       id="path5"
       inkscape:path-effect="#path-effect7"
       inkscape:original-d="m 634.11647,325.7266 c 0,22.85915 0,45.7183 0,68.57744"
       transform="matrix(0.2972743,0,0,0.2972743,554.72475,252.99202)" />
    <g
       inkscape:label=""
       transform="translate(634.6408,377.82208)"
       id="g9">
      <g
         id="surface1"
         transform="matrix(1.33333,0,0,1.33333,-4.25,-2.72367)">
        <g
           style="fill:#000000;fill-opacity:1"
           id="g5">
          <g
             id="use4"
             transform="translate(3.6789999,10.449)">
            <path
               style="stroke:none"
               d="m 0.8125,-6.71875 h 0.125 L 2.5,-7.421875 C 2.5,-7.4375 2.515625,-7.4375 2.53125,-7.4375 c 0.078125,0 0.09375,0.109375 0.09375,0.40625 v 5.875 c 0,0.625 -0.125,0.75 -0.78125,0.796875 l -0.6875,0.03125 V 0.03125 C 3.03125,0 3.03125,0 3.15625,0 3.3125,0 3.578125,0 4,0.015625 4.140625,0.03125 4.5625,0.03125 5.0625,0.03125 v -0.359375 l -0.625,-0.03125 C 3.765625,-0.40625 3.640625,-0.53125 3.640625,-1.15625 v -7.1875 L 3.46875,-8.40625 c -0.78125,0.421875 -1.640625,0.78125 -2.75,1.171875 z m 0,0"
               id="path6" />
          </g>
        </g>
        <path
           style="fill:none;stroke:#000000;stroke-width:0.638;stroke-linecap:butt;stroke-linejoin:miter;stroke-miterlimit:10;stroke-opacity:1"
           d="M -5e-4,0.0018125 H 7.038562"
           transform="matrix(1,0,0,-1,3.188,12.744)"
           id="path8" />
        <g
           style="fill:#000000;fill-opacity:1"
           id="g6">
          <g
             id="use5"
             transform="translate(3.339,22.228001)">
            <path
               style="stroke:none"
               d="m 0.296875,-4.703125 0.078125,0.25 0.390625,-0.25 c 0.4375,-0.28125 0.484375,-0.3125 0.5625,-0.3125 0.140625,0 0.21875,0.125 0.21875,0.3125 0,0.609375 -0.5,2.953125 -0.984375,4.671875 L 0.640625,0.109375 C 0.9375,0.03125 1.21875,-0.046875 1.484375,-0.09375 1.71875,-1.625 1.96875,-2.40625 2.53125,-3.25 c 0.65625,-1.015625 1.5625,-1.765625 2.109375,-1.765625 0.125,0 0.203125,0.109375 0.203125,0.296875 0,0.21875 -0.03125,0.46875 -0.140625,0.859375 l -0.625,2.5625 C 3.96875,-0.84375 3.921875,-0.5625 3.921875,-0.375 c 0,0.296875 0.140625,0.484375 0.359375,0.484375 0.3125,0 0.75,-0.25 1.9375,-1.140625 L 6.109375,-1.25 5.78125,-1.046875 c -0.34375,0.234375 -0.609375,0.375 -0.734375,0.375 -0.078125,0 -0.15625,-0.109375 -0.15625,-0.25 0,-0.0625 0.015625,-0.1875 0.03125,-0.234375 L 5.71875,-4.5 c 0.078125,-0.359375 0.125,-0.6875 0.125,-0.90625 0,-0.265625 -0.125,-0.4375 -0.375,-0.4375 -0.5,0 -1.34375,0.46875 -2.046875,1.140625 -0.46875,0.421875 -0.8125,0.828125 -1.4375,1.71875 L 2.453125,-4.9375 c 0.046875,-0.21875 0.0625,-0.359375 0.0625,-0.5 0,-0.25 -0.09375,-0.40625 -0.28125,-0.40625 -0.25,0 -0.71875,0.28125 -1.609375,0.90625 z m 0,0"
               id="path9" />
          </g>
        </g>
      </g>
    </g>
    <g
       inkscape:label=""
       transform="translate(523.2896,377.49659)"
       id="g15">
      <g
         id="g14"
         transform="matrix(1.33333,0,0,1.33333,-4.25,-2.72367)">
        <g
           style="fill:#000000;fill-opacity:1"
           id="g7">
          <g
             id="use6"
             transform="translate(11.765,10.449)">
            <path
               style="stroke:none"
               d="m 0.8125,-6.71875 h 0.125 L 2.5,-7.421875 C 2.5,-7.4375 2.515625,-7.4375 2.53125,-7.4375 c 0.078125,0 0.09375,0.109375 0.09375,0.40625 v 5.875 c 0,0.625 -0.125,0.75 -0.78125,0.796875 l -0.6875,0.03125 V 0.03125 C 3.03125,0 3.03125,0 3.15625,0 3.3125,0 3.578125,0 4,0.015625 4.140625,0.03125 4.5625,0.03125 5.0625,0.03125 v -0.359375 l -0.625,-0.03125 C 3.765625,-0.40625 3.640625,-0.53125 3.640625,-1.15625 v -7.1875 L 3.46875,-8.40625 c -0.78125,0.421875 -1.640625,0.78125 -2.75,1.171875 z m 0,0"
               id="path10" />
          </g>
        </g>
        <path
           style="fill:none;stroke:#000000;stroke-width:0.638;stroke-linecap:butt;stroke-linejoin:miter;stroke-miterlimit:10;stroke-opacity:1"
           d="M -5e-4,0.0018125 H 23.210438"
           transform="matrix(1,0,0,-1,3.188,12.744)"
           id="path11" />
        <g
           style="fill:#000000;fill-opacity:1"
           id="g8">
          <g
             id="use7"
             transform="translate(3.339,22.229)">
            <path
               style="stroke:none"
               d="m 0.296875,-4.703125 0.078125,0.25 0.390625,-0.25 c 0.4375,-0.28125 0.484375,-0.3125 0.5625,-0.3125 0.140625,0 0.21875,0.125 0.21875,0.3125 0,0.609375 -0.5,2.953125 -0.984375,4.671875 L 0.640625,0.109375 C 0.9375,0.03125 1.21875,-0.046875 1.484375,-0.09375 1.71875,-1.625 1.96875,-2.40625 2.53125,-3.25 c 0.65625,-1.015625 1.5625,-1.765625 2.109375,-1.765625 0.125,0 0.203125,0.109375 0.203125,0.296875 0,0.21875 -0.03125,0.46875 -0.140625,0.859375 l -0.625,2.5625 C 3.96875,-0.84375 3.921875,-0.5625 3.921875,-0.375 c 0,0.296875 0.140625,0.484375 0.359375,0.484375 0.3125,0 0.75,-0.25 1.9375,-1.140625 L 6.109375,-1.25 5.78125,-1.046875 c -0.34375,0.234375 -0.609375,0.375 -0.734375,0.375 -0.078125,0 -0.15625,-0.109375 -0.15625,-0.25 0,-0.0625 0.015625,-0.1875 0.03125,-0.234375 L 5.71875,-4.5 c 0.078125,-0.359375 0.125,-0.6875 0.125,-0.90625 0,-0.265625 -0.125,-0.4375 -0.375,-0.4375 -0.5,0 -1.34375,0.46875 -2.046875,1.140625 -0.46875,0.421875 -0.8125,0.828125 -1.4375,1.71875 L 2.453125,-4.9375 c 0.046875,-0.21875 0.0625,-0.359375 0.0625,-0.5 0,-0.25 -0.09375,-0.40625 -0.28125,-0.40625 -0.25,0 -0.71875,0.28125 -1.609375,0.90625 z m 0,0"
               id="path12" />
          </g>
        </g>
        <g
           style="fill:#000000;fill-opacity:1"
           id="g13">
          <g
             id="use8"
             transform="translate(10.378,22.229)">
            <path
               style="stroke:none"
               d="M 5.15625,-2.90625 H 8.6875 c 0.171875,0 0.421875,0 0.421875,-0.25 0,-0.25 -0.25,-0.25 -0.421875,-0.25 H 5.15625 V -6.9375 c 0,-0.1875 0,-0.421875 -0.25,-0.421875 -0.25,0 -0.25,0.234375 -0.25,0.421875 v 3.53125 H 1.125 c -0.171875,0 -0.421875,0 -0.421875,0.25 0,0.25 0.25,0.25 0.421875,0.25 H 4.65625 V 0.625 c 0,0.1875 0,0.421875 0.25,0.421875 0.25,0 0.25,-0.234375 0.25,-0.421875 z m 0,0"
               id="path13" />
          </g>
        </g>
        <g
           style="fill:#000000;fill-opacity:1"
           id="g10">
          <g
             id="use9"
             transform="translate(20.341999,22.229)">
            <path
               style="stroke:none"
               d="m 0.8125,-6.71875 h 0.125 L 2.5,-7.421875 C 2.5,-7.4375 2.515625,-7.4375 2.53125,-7.4375 c 0.078125,0 0.09375,0.109375 0.09375,0.40625 v 5.875 c 0,0.625 -0.125,0.75 -0.78125,0.796875 l -0.6875,0.03125 V 0.03125 C 3.03125,0 3.03125,0 3.15625,0 3.3125,0 3.578125,0 4,0.015625 4.140625,0.03125 4.5625,0.03125 5.0625,0.03125 v -0.359375 l -0.625,-0.03125 C 3.765625,-0.40625 3.640625,-0.53125 3.640625,-1.15625 v -7.1875 L 3.46875,-8.40625 c -0.78125,0.421875 -1.640625,0.78125 -2.75,1.171875 z m 0,0"
               id="path14" />
          </g>
        </g>
      </g>
    </g>
    <g
       inkscape:label=""
       transform="translate(729.01406,377.82208)"
       id="g25">
      <g
         id="g24"
         transform="matrix(1.33333,0,0,1.33333,-4.25,-2.72367)">
        <g
           style="fill:#000000;fill-opacity:1"
           id="g17">
          <g
             id="g16"
             transform="translate(11.765,10.449)">
            <path
               style="stroke:none"
               d="m 0.8125,-6.71875 h 0.125 L 2.5,-7.421875 C 2.5,-7.4375 2.515625,-7.4375 2.53125,-7.4375 c 0.078125,0 0.09375,0.109375 0.09375,0.40625 v 5.875 c 0,0.625 -0.125,0.75 -0.78125,0.796875 l -0.6875,0.03125 V 0.03125 C 3.03125,0 3.03125,0 3.15625,0 3.3125,0 3.578125,0 4,0.015625 4.140625,0.03125 4.5625,0.03125 5.0625,0.03125 v -0.359375 l -0.625,-0.03125 C 3.765625,-0.40625 3.640625,-0.53125 3.640625,-1.15625 v -7.1875 L 3.46875,-8.40625 c -0.78125,0.421875 -1.640625,0.78125 -2.75,1.171875 z m 0,0"
               id="path15" />
          </g>
        </g>
        <path
           style="fill:none;stroke:#000000;stroke-width:0.638;stroke-linecap:butt;stroke-linejoin:miter;stroke-miterlimit:10;stroke-opacity:1"
           d="M -5e-4,0.0018125 H 23.210438"
           transform="matrix(1,0,0,-1,3.188,12.744)"
           id="path17" />
        <g
           style="fill:#000000;fill-opacity:1"
           id="g19">
          <g
             id="g18"
             transform="translate(3.339,22.229)">
            <path
               style="stroke:none"
               d="m 0.296875,-4.703125 0.078125,0.25 0.390625,-0.25 c 0.4375,-0.28125 0.484375,-0.3125 0.5625,-0.3125 0.140625,0 0.21875,0.125 0.21875,0.3125 0,0.609375 -0.5,2.953125 -0.984375,4.671875 L 0.640625,0.109375 C 0.9375,0.03125 1.21875,-0.046875 1.484375,-0.09375 1.71875,-1.625 1.96875,-2.40625 2.53125,-3.25 c 0.65625,-1.015625 1.5625,-1.765625 2.109375,-1.765625 0.125,0 0.203125,0.109375 0.203125,0.296875 0,0.21875 -0.03125,0.46875 -0.140625,0.859375 l -0.625,2.5625 C 3.96875,-0.84375 3.921875,-0.5625 3.921875,-0.375 c 0,0.296875 0.140625,0.484375 0.359375,0.484375 0.3125,0 0.75,-0.25 1.9375,-1.140625 L 6.109375,-1.25 5.78125,-1.046875 c -0.34375,0.234375 -0.609375,0.375 -0.734375,0.375 -0.078125,0 -0.15625,-0.109375 -0.15625,-0.25 0,-0.0625 0.015625,-0.1875 0.03125,-0.234375 L 5.71875,-4.5 c 0.078125,-0.359375 0.125,-0.6875 0.125,-0.90625 0,-0.265625 -0.125,-0.4375 -0.375,-0.4375 -0.5,0 -1.34375,0.46875 -2.046875,1.140625 -0.46875,0.421875 -0.8125,0.828125 -1.4375,1.71875 L 2.453125,-4.9375 c 0.046875,-0.21875 0.0625,-0.359375 0.0625,-0.5 0,-0.25 -0.09375,-0.40625 -0.28125,-0.40625 -0.25,0 -0.71875,0.28125 -1.609375,0.90625 z m 0,0"
               id="path18" />
          </g>
        </g>
        <g
           style="fill:#000000;fill-opacity:1"
           id="g21">
          <g
             id="g20"
             transform="translate(10.378,22.229)">
            <path
               style="stroke:none"
               d="m 8.3125,-2.90625 c 0.21875,0 0.453125,0 0.453125,-0.25 0,-0.25 -0.234375,-0.25 -0.453125,-0.25 H 1.484375 c -0.203125,0 -0.4375,0 -0.4375,0.25 0,0.25 0.234375,0.25 0.4375,0.25 z m 0,0"
               id="path19" />
          </g>
        </g>
        <g
           style="fill:#000000;fill-opacity:1"
           id="g23">
          <g
             id="g22"
             transform="translate(20.341999,22.229)">
            <path
               style="stroke:none"
               d="m 0.8125,-6.71875 h 0.125 L 2.5,-7.421875 C 2.5,-7.4375 2.515625,-7.4375 2.53125,-7.4375 c 0.078125,0 0.09375,0.109375 0.09375,0.40625 v 5.875 c 0,0.625 -0.125,0.75 -0.78125,0.796875 l -0.6875,0.03125 V 0.03125 C 3.03125,0 3.03125,0 3.15625,0 3.3125,0 3.578125,0 4,0.015625 4.140625,0.03125 4.5625,0.03125 5.0625,0.03125 v -0.359375 l -0.625,-0.03125 C 3.765625,-0.40625 3.640625,-0.53125 3.640625,-1.15625 v -7.1875 L 3.46875,-8.40625 c -0.78125,0.421875 -1.640625,0.78125 -2.75,1.171875 z m 0,0"
               id="path21" />
          </g>
        </g>
      </g>
    </g>
    <g
       inkscape:label=""
       transform="translate(581.34132,334.22183)"
       id="g35">
      <g
         id="g34"
         transform="matrix(1.33333,0,0,1.33333,-3.32467,-2.682)">
        <g
           style="fill:#000000;fill-opacity:1"
           id="g31">
          <g
             id="g30"
             transform="translate(2.431,9.6990004)">
            <path
               style="stroke:none"
               d="M 6.40625,-7.515625 6.25,-7.671875 5.71875,-7.375 C 5.0625,-7.625 4.796875,-7.6875 4.359375,-7.6875 c -0.4375,0 -0.75,0.078125 -1.1875,0.296875 -0.984375,0.484375 -1.515625,0.96875 -1.90625,1.75 C 0.5625,-4.21875 0.0625,-2.3125 0.0625,-1.0625 c 0,0.703125 0.234375,1.234375 0.546875,1.234375 0.34375,0 0.953125,-0.34375 1.5625,-0.890625 C 2.84375,-1.328125 3.453125,-2.046875 4.3125,-3.25 l -0.453125,2.015625 c -0.0625,0.28125 -0.09375,0.5625 -0.09375,0.8125 0,0.359375 0.140625,0.5625 0.375,0.5625 0.375,0 1.015625,-0.40625 2.328125,-1.5 L 6.359375,-1.6875 c -0.09375,0.078125 -0.140625,0.109375 -0.203125,0.171875 -0.515625,0.4375 -0.75,0.578125 -1,0.578125 -0.140625,0 -0.234375,-0.140625 -0.234375,-0.375 0,-0.078125 0,-0.125 0.015625,-0.171875 z M 5.078125,-6.59375 c -0.34375,1.734375 -0.640625,2.5625 -1.1875,3.390625 -0.90625,1.34375 -1.875,2.265625 -2.390625,2.265625 -0.1875,0 -0.28125,-0.203125 -0.28125,-0.640625 0,-1.015625 0.4375,-2.890625 1,-4.15625 0.375,-0.875 0.75,-1.171875 1.515625,-1.171875 0.359375,0 0.65625,0.0625 1.34375,0.3125 z m 0,0"
               id="path30" />
          </g>
        </g>
        <g
           style="fill:#000000;fill-opacity:1"
           id="g33">
          <g
             id="g32"
             transform="translate(9.8590002,12.09)">
            <path
               style="stroke:none"
               d="m 0.296875,-4.703125 0.078125,0.25 0.390625,-0.25 c 0.4375,-0.28125 0.484375,-0.3125 0.5625,-0.3125 0.140625,0 0.21875,0.125 0.21875,0.3125 0,0.609375 -0.5,2.953125 -0.984375,4.671875 L 0.640625,0.109375 C 0.9375,0.03125 1.21875,-0.046875 1.484375,-0.09375 1.71875,-1.625 1.96875,-2.40625 2.53125,-3.25 c 0.65625,-1.015625 1.5625,-1.765625 2.109375,-1.765625 0.125,0 0.203125,0.109375 0.203125,0.296875 0,0.21875 -0.03125,0.46875 -0.140625,0.859375 l -0.625,2.5625 C 3.96875,-0.84375 3.921875,-0.5625 3.921875,-0.375 c 0,0.296875 0.140625,0.484375 0.359375,0.484375 0.3125,0 0.75,-0.25 1.9375,-1.140625 L 6.109375,-1.25 5.78125,-1.046875 c -0.34375,0.234375 -0.609375,0.375 -0.734375,0.375 -0.078125,0 -0.15625,-0.109375 -0.15625,-0.25 0,-0.0625 0.015625,-0.1875 0.03125,-0.234375 L 5.71875,-4.5 c 0.078125,-0.359375 0.125,-0.6875 0.125,-0.90625 0,-0.265625 -0.125,-0.4375 -0.375,-0.4375 -0.5,0 -1.34375,0.46875 -2.046875,1.140625 -0.46875,0.421875 -0.8125,0.828125 -1.4375,1.71875 L 2.453125,-4.9375 c 0.046875,-0.21875 0.0625,-0.359375 0.0625,-0.5 0,-0.25 -0.09375,-0.40625 -0.28125,-0.40625 -0.25,0 -0.71875,0.28125 -1.609375,0.90625 z m 0,0"
               id="path31" />
          </g>
        </g>
      </g>
    </g>
    <g
       inkscape:label=""
       transform="translate(684.31223,328.88851)"
       id="g41">
      <g
         id="g40"
         transform="matrix(1.33333,0,0,1.33333,-3.71433,-2.546)">
        <g
           style="fill:#000000;fill-opacity:1"
           id="g37">
          <g
             id="g36"
             transform="translate(2.1919999,13.597)">
            <path
               style="stroke:none"
               d="M 3.75,-11.5 3.546875,-11.6875 C 2.71875,-11.265625 2.15625,-11.125 1,-11.015625 l -0.0625,0.34375 h 0.765625 c 0.390625,0 0.546875,0.109375 0.546875,0.375 0,0.109375 -0.015625,0.28125 -0.03125,0.390625 L 0.609375,-1.125 C 0.59375,-1.078125 0.59375,-1.015625 0.59375,-0.96875 c 0,0.625 0.765625,1.140625 1.640625,1.140625 0.59375,0 1.40625,-0.296875 2.078125,-0.796875 C 5.84375,-1.703125 6.90625,-3.890625 6.90625,-6 6.90625,-6.59375 6.75,-7.21875 6.5625,-7.453125 6.453125,-7.609375 6.25,-7.6875 6.015625,-7.6875 c -0.390625,0 -0.875,0.140625 -1.3125,0.359375 -0.8125,0.421875 -1.34375,0.90625 -2.328125,2.171875 z m 1.375,4.75 c 0.421875,0 0.625,0.359375 0.625,1.140625 0,1.015625 -0.328125,2.390625 -0.8125,3.421875 -0.515625,1.109375 -1.15625,1.609375 -2.015625,1.609375 -0.734375,0 -1.140625,-0.359375 -1.140625,-1.03125 0,-0.40625 0.0625,-0.84375 0.21875,-1.4375 C 2.296875,-4.3125 2.671875,-5.078125 3.3125,-5.75 c 0.53125,-0.546875 1.359375,-1 1.8125,-1 z m 0,0"
               id="path35" />
          </g>
        </g>
        <g
           style="fill:#000000;fill-opacity:1"
           id="g39">
          <g
             id="g38"
             transform="translate(9.684,15.988)">
            <path
               style="stroke:none"
               d="m 0.296875,-4.703125 0.078125,0.25 0.390625,-0.25 c 0.4375,-0.28125 0.484375,-0.3125 0.5625,-0.3125 0.140625,0 0.21875,0.125 0.21875,0.3125 0,0.609375 -0.5,2.953125 -0.984375,4.671875 L 0.640625,0.109375 C 0.9375,0.03125 1.21875,-0.046875 1.484375,-0.09375 1.71875,-1.625 1.96875,-2.40625 2.53125,-3.25 c 0.65625,-1.015625 1.5625,-1.765625 2.109375,-1.765625 0.125,0 0.203125,0.109375 0.203125,0.296875 0,0.21875 -0.03125,0.46875 -0.140625,0.859375 l -0.625,2.5625 C 3.96875,-0.84375 3.921875,-0.5625 3.921875,-0.375 c 0,0.296875 0.140625,0.484375 0.359375,0.484375 0.3125,0 0.75,-0.25 1.9375,-1.140625 L 6.109375,-1.25 5.78125,-1.046875 c -0.34375,0.234375 -0.609375,0.375 -0.734375,0.375 -0.078125,0 -0.15625,-0.109375 -0.15625,-0.25 0,-0.0625 0.015625,-0.1875 0.03125,-0.234375 L 5.71875,-4.5 c 0.078125,-0.359375 0.125,-0.6875 0.125,-0.90625 0,-0.265625 -0.125,-0.4375 -0.375,-0.4375 -0.5,0 -1.34375,0.46875 -2.046875,1.140625 -0.46875,0.421875 -0.8125,0.828125 -1.4375,1.71875 L 2.453125,-4.9375 c 0.046875,-0.21875 0.0625,-0.359375 0.0625,-0.5 0,-0.25 -0.09375,-0.40625 -0.28125,-0.40625 -0.25,0 -0.71875,0.28125 -1.609375,0.90625 z m 0,0"
               id="path37" />
          </g>
        </g>
      </g>
    </g>
    <path
       style="font-variation-settings:normal;opacity:1;fill:none;fill-opacity:1;stroke:#00ffff;stroke-width:2.89133858;stroke-linecap:butt;stroke-linejoin:miter;stroke-miterlimit:4;stroke-dasharray:none;stroke-dashoffset:0;stroke-opacity:1;stop-color:#000000;stop-opacity:1"
       d="m 588.93793,360 c 34.28741,0 68.57483,0 102.86224,0"
       id="path41"
       inkscape:path-effect="#path-effect41"
       inkscape:original-d="m 588.93793,360 c 34.28741,0 68.57483,0 102.86224,0" />
    <path
       style="fill:none;stroke:#000000;stroke-width:8.45478;stroke-linecap:butt;stroke-linejoin:miter;stroke-dasharray:none;stroke-opacity:1"
       d="m 634.11647,325.7266 c 0,22.85915 0,45.7183 0,68.57744"
       id="path3"
       inkscape:path-effect="#path-effect3"
       inkscape:original-d="m 634.11647,325.7266 c 0,22.85915 0,45.7183 0,68.57744"
       transform="matrix(0.2972743,0,0,0.2972743,451.86252,252.99202)" />
    <path
       style="fill:none;stroke:#0000ff;stroke-width:8.45478;stroke-linecap:butt;stroke-linejoin:miter;stroke-dasharray:none;stroke-opacity:1"
       d="m 634.11647,325.7266 c 0,22.85915 0,45.7183 0,68.57744"
       id="path26"
       inkscape:path-effect="#path-effect28"
       inkscape:original-d="m 634.11647,325.7266 c 0,22.85915 0,45.7183 0,68.57744"
       transform="matrix(0.2972743,0,0,0.2972743,400.4314,252.9767)" />
    <path
       style="fill:none;stroke:#0000ff;stroke-width:8.45478;stroke-linecap:butt;stroke-linejoin:miter;stroke-dasharray:none;stroke-opacity:1"
       d="m 634.11647,325.7266 c 0,22.85915 0,45.7183 0,68.57744"
       id="path28"
       inkscape:path-effect="#path-effect30"
       inkscape:original-d="m 634.11647,325.7266 c 0,22.85915 0,45.7183 0,68.57744"
       transform="matrix(0.2972743,0,0,0.2972743,503.29364,252.9767)" />
  </g>
</svg>
