<?xml version="1.0" encoding="UTF-8" standalone="no"?>
<!-- Created with Inkscape (http://www.inkscape.org/) -->

<svg
   width="100.00001mm"
   height="100.00001mm"
   viewBox="0 0 100.00001 100.00001"
   version="1.1"
   id="svg1"
   xml:space="preserve"
   inkscape:version="1.4 (e7c3feb1, 2024-10-09)"
   sodipodi:docname="prob-18-02-25_01.svg"
   xmlns:inkscape="http://www.inkscape.org/namespaces/inkscape"
   xmlns:sodipodi="http://sodipodi.sourceforge.net/DTD/sodipodi-0.dtd"
   xmlns="http://www.w3.org/2000/svg"
   xmlns:svg="http://www.w3.org/2000/svg"
   xmlns:ns1="http://www.iki.fi/pav/software/textext/"><sodipodi:namedview
     id="namedview1"
     pagecolor="#ffffff"
     bordercolor="#000000"
     borderopacity="0.25"
     inkscape:showpageshadow="2"
     inkscape:pageopacity="0.0"
     inkscape:pagecheckerboard="0"
     inkscape:deskcolor="#d1d1d1"
     inkscape:document-units="mm"
     showgrid="false"
     inkscape:zoom="0.99079046"
     inkscape:cx="254.34238"
     inkscape:cy="170.57088"
     inkscape:window-width="1512"
     inkscape:window-height="916"
     inkscape:window-x="0"
     inkscape:window-y="38"
     inkscape:window-maximized="0"
     inkscape:current-layer="svg1"><inkscape:grid
       id="grid8"
       units="mm"
       originx="-55.125001"
       originy="-90"
       spacingx="0.99999998"
       spacingy="1"
       empcolor="#0099e5"
       empopacity="0.30196078"
       color="#0099e5"
       opacity="0.14901961"
       empspacing="5"
       enabled="true"
       visible="false" /></sodipodi:namedview><defs
     id="defs1"><inkscape:path-effect
       effect="bspline"
       id="path-effect120"
       is_visible="true"
       lpeversion="1.3"
       weight="33.333333"
       steps="2"
       helper_size="0"
       apply_no_weight="true"
       apply_with_weight="true"
       only_selected="false"
       uniform="false" /><inkscape:path-effect
       effect="bspline"
       id="path-effect118"
       is_visible="true"
       lpeversion="1.3"
       weight="33.333333"
       steps="2"
       helper_size="0"
       apply_no_weight="true"
       apply_with_weight="true"
       only_selected="false"
       uniform="false" /><inkscape:path-effect
       effect="bspline"
       id="path-effect116"
       is_visible="true"
       lpeversion="1.3"
       weight="33.333333"
       steps="2"
       helper_size="0"
       apply_no_weight="true"
       apply_with_weight="true"
       only_selected="false"
       uniform="false" /><inkscape:path-effect
       effect="bspline"
       id="path-effect114"
       is_visible="true"
       lpeversion="1.3"
       weight="33.333333"
       steps="2"
       helper_size="0"
       apply_no_weight="true"
       apply_with_weight="true"
       only_selected="false"
       uniform="false" /><inkscape:path-effect
       effect="bspline"
       id="path-effect112"
       is_visible="true"
       lpeversion="1.3"
       weight="33.333333"
       steps="2"
       helper_size="0"
       apply_no_weight="true"
       apply_with_weight="true"
       only_selected="false"
       uniform="false" /><inkscape:path-effect
       effect="bspline"
       id="path-effect110"
       is_visible="true"
       lpeversion="1.3"
       weight="33.333333"
       steps="2"
       helper_size="0"
       apply_no_weight="true"
       apply_with_weight="true"
       only_selected="false"
       uniform="false" /><inkscape:path-effect
       effect="bspline"
       id="path-effect108"
       is_visible="true"
       lpeversion="1.3"
       weight="33.333333"
       steps="2"
       helper_size="0"
       apply_no_weight="true"
       apply_with_weight="true"
       only_selected="false"
       uniform="false" /><inkscape:path-effect
       effect="bspline"
       id="path-effect106"
       is_visible="true"
       lpeversion="1.3"
       weight="33.333333"
       steps="2"
       helper_size="0"
       apply_no_weight="true"
       apply_with_weight="true"
       only_selected="false"
       uniform="false" /><inkscape:path-effect
       effect="bspline"
       id="path-effect104"
       is_visible="true"
       lpeversion="1.3"
       weight="33.333333"
       steps="2"
       helper_size="0"
       apply_no_weight="true"
       apply_with_weight="true"
       only_selected="false"
       uniform="false" /><inkscape:path-effect
       effect="bspline"
       id="path-effect102"
       is_visible="true"
       lpeversion="1.3"
       weight="33.333333"
       steps="2"
       helper_size="0"
       apply_no_weight="true"
       apply_with_weight="true"
       only_selected="false"
       uniform="false" /><inkscape:path-effect
       effect="bspline"
       id="path-effect100"
       is_visible="true"
       lpeversion="1.3"
       weight="33.333333"
       steps="2"
       helper_size="0"
       apply_no_weight="true"
       apply_with_weight="true"
       only_selected="false"
       uniform="false" /><inkscape:path-effect
       effect="bspline"
       id="path-effect98"
       is_visible="true"
       lpeversion="1.3"
       weight="33.333333"
       steps="2"
       helper_size="0"
       apply_no_weight="true"
       apply_with_weight="true"
       only_selected="false"
       uniform="false" /><inkscape:path-effect
       effect="bspline"
       id="path-effect96"
       is_visible="true"
       lpeversion="1.3"
       weight="33.333333"
       steps="2"
       helper_size="0"
       apply_no_weight="true"
       apply_with_weight="true"
       only_selected="false"
       uniform="false" /><inkscape:path-effect
       effect="bspline"
       id="path-effect94"
       is_visible="true"
       lpeversion="1.3"
       weight="33.333333"
       steps="2"
       helper_size="0"
       apply_no_weight="true"
       apply_with_weight="true"
       only_selected="false"
       uniform="false" /><inkscape:path-effect
       effect="bspline"
       id="path-effect92"
       is_visible="true"
       lpeversion="1.3"
       weight="33.333333"
       steps="2"
       helper_size="0"
       apply_no_weight="true"
       apply_with_weight="true"
       only_selected="false"
       uniform="false" /><inkscape:path-effect
       effect="bspline"
       id="path-effect90"
       is_visible="true"
       lpeversion="1.3"
       weight="33.333333"
       steps="2"
       helper_size="0"
       apply_no_weight="true"
       apply_with_weight="true"
       only_selected="false"
       uniform="false" /><inkscape:path-effect
       effect="bspline"
       id="path-effect88"
       is_visible="true"
       lpeversion="1.3"
       weight="33.333333"
       steps="2"
       helper_size="0"
       apply_no_weight="true"
       apply_with_weight="true"
       only_selected="false"
       uniform="false" /><inkscape:path-effect
       effect="bspline"
       id="path-effect86"
       is_visible="true"
       lpeversion="1.3"
       weight="33.333333"
       steps="2"
       helper_size="0"
       apply_no_weight="true"
       apply_with_weight="true"
       only_selected="false"
       uniform="false" /><inkscape:path-effect
       effect="bspline"
       id="path-effect47"
       is_visible="true"
       lpeversion="1.3"
       weight="33.333333"
       steps="2"
       helper_size="0"
       apply_no_weight="true"
       apply_with_weight="true"
       only_selected="false"
       uniform="false" /><inkscape:path-effect
       effect="bspline"
       id="path-effect45"
       is_visible="true"
       lpeversion="1.3"
       weight="33.333333"
       steps="2"
       helper_size="0"
       apply_no_weight="true"
       apply_with_weight="true"
       only_selected="false"
       uniform="false" /><inkscape:path-effect
       effect="bspline"
       id="path-effect43"
       is_visible="true"
       lpeversion="1.3"
       weight="33.333333"
       steps="2"
       helper_size="0"
       apply_no_weight="true"
       apply_with_weight="true"
       only_selected="false"
       uniform="false" /><inkscape:path-effect
       effect="bspline"
       id="path-effect41"
       is_visible="true"
       lpeversion="1.3"
       weight="33.333333"
       steps="2"
       helper_size="0"
       apply_no_weight="true"
       apply_with_weight="true"
       only_selected="false"
       uniform="false" /><inkscape:path-effect
       effect="bspline"
       id="path-effect39"
       is_visible="true"
       lpeversion="1.3"
       weight="33.333333"
       steps="2"
       helper_size="0"
       apply_no_weight="true"
       apply_with_weight="true"
       only_selected="false"
       uniform="false" /><inkscape:path-effect
       effect="bspline"
       id="path-effect37"
       is_visible="true"
       lpeversion="1.3"
       weight="33.333333"
       steps="2"
       helper_size="0"
       apply_no_weight="true"
       apply_with_weight="true"
       only_selected="false"
       uniform="false" /><inkscape:path-effect
       effect="bspline"
       id="path-effect35"
       is_visible="true"
       lpeversion="1.3"
       weight="33.333333"
       steps="2"
       helper_size="0"
       apply_no_weight="true"
       apply_with_weight="true"
       only_selected="false"
       uniform="false" /><inkscape:path-effect
       effect="bspline"
       id="path-effect33"
       is_visible="true"
       lpeversion="1.3"
       weight="33.333333"
       steps="2"
       helper_size="0"
       apply_no_weight="true"
       apply_with_weight="true"
       only_selected="false"
       uniform="false" /><inkscape:path-effect
       effect="bspline"
       id="path-effect25"
       is_visible="true"
       lpeversion="1.3"
       weight="33.333333"
       steps="2"
       helper_size="0"
       apply_no_weight="true"
       apply_with_weight="true"
       only_selected="false"
       uniform="false" /><inkscape:path-effect
       effect="bspline"
       id="path-effect23"
       is_visible="true"
       lpeversion="1.3"
       weight="33.333333"
       steps="2"
       helper_size="0"
       apply_no_weight="true"
       apply_with_weight="true"
       only_selected="false"
       uniform="false" /><inkscape:path-effect
       effect="bspline"
       id="path-effect21"
       is_visible="true"
       lpeversion="1.3"
       weight="33.333333"
       steps="2"
       helper_size="0"
       apply_no_weight="true"
       apply_with_weight="true"
       only_selected="false"
       uniform="false" /><inkscape:path-effect
       effect="bspline"
       id="path-effect17"
       is_visible="true"
       lpeversion="1.3"
       weight="33.333333"
       steps="2"
       helper_size="0"
       apply_no_weight="true"
       apply_with_weight="true"
       only_selected="false"
       uniform="false" /><inkscape:path-effect
       effect="bspline"
       id="path-effect13"
       is_visible="true"
       lpeversion="1.3"
       weight="33.333333"
       steps="2"
       helper_size="0"
       apply_no_weight="true"
       apply_with_weight="true"
       only_selected="false"
       uniform="false" /><inkscape:path-effect
       effect="bspline"
       id="path-effect9"
       is_visible="true"
       lpeversion="1.3"
       weight="33.333333"
       steps="2"
       helper_size="0"
       apply_no_weight="true"
       apply_with_weight="true"
       only_selected="false"
       uniform="false" /><inkscape:path-effect
       effect="bspline"
       id="path-effect6"
       is_visible="true"
       lpeversion="1.3"
       weight="33.333333"
       steps="2"
       helper_size="0"
       apply_no_weight="true"
       apply_with_weight="true"
       only_selected="false"
       uniform="false" /><inkscape:path-effect
       effect="bspline"
       id="path-effect3"
       is_visible="true"
       lpeversion="1.3"
       weight="33.333333"
       steps="2"
       helper_size="0"
       apply_no_weight="true"
       apply_with_weight="true"
       only_selected="false"
       uniform="false" /><inkscape:path-effect
       effect="fillet_chamfer"
       id="path-effect19"
       is_visible="true"
       lpeversion="1"
       nodesatellites_param="F,0,0,1,0,0,0,1 @ F,0,0,1,0,0,0,1 @ F,0,0,1,0,0,0,1 @ F,0,0,1,0,0,0,1"
       radius="0"
       unit="px"
       method="auto"
       mode="F"
       chamfer_steps="1"
       flexible="false"
       use_knot_distance="true"
       apply_no_radius="true"
       apply_with_radius="true"
       only_selected="false"
       hide_knots="false" /><inkscape:path-effect
       effect="fillet_chamfer"
       id="path-effect18"
       is_visible="true"
       lpeversion="1"
       nodesatellites_param="F,0,0,1,0,0,0,1 @ F,0,0,1,0,0,0,1 @ F,0,0,1,0,0,0,1 @ F,0,0,1,0,0,0,1"
       radius="0"
       unit="px"
       method="auto"
       mode="F"
       chamfer_steps="1"
       flexible="false"
       use_knot_distance="true"
       apply_no_radius="true"
       apply_with_radius="true"
       only_selected="false"
       hide_knots="false" /><inkscape:path-effect
       effect="bspline"
       id="path-effect12"
       is_visible="true"
       lpeversion="1.3"
       weight="33.333333"
       steps="2"
       helper_size="0"
       apply_no_weight="true"
       apply_with_weight="true"
       only_selected="false"
       uniform="false" /><inkscape:path-effect
       effect="bspline"
       id="path-effect10"
       is_visible="true"
       lpeversion="1.3"
       weight="33.333333"
       steps="2"
       helper_size="0"
       apply_no_weight="true"
       apply_with_weight="true"
       only_selected="false"
       uniform="false" /><inkscape:path-effect
       effect="bspline"
       id="path-effect8"
       is_visible="true"
       lpeversion="1.3"
       weight="33.333333"
       steps="2"
       helper_size="0"
       apply_no_weight="true"
       apply_with_weight="true"
       only_selected="false"
       uniform="false" /><marker
       style="overflow:visible"
       id="marker5"
       refX="0"
       refY="0"
       orient="auto-start-reverse"
       inkscape:stockid="Wide, rounded arrow"
       markerWidth="1"
       markerHeight="1"
       viewBox="0 0 1 1"
       inkscape:isstock="true"
       inkscape:collect="always"
       preserveAspectRatio="xMidYMid"><path
         style="fill:none;stroke:context-stroke;stroke-width:1;stroke-linecap:round"
         d="M 3,-3 0,0 3,3"
         transform="rotate(180,0.125,0)"
         sodipodi:nodetypes="ccc"
         id="path5" /></marker><inkscape:path-effect
       effect="bspline"
       id="path-effect4"
       is_visible="true"
       lpeversion="1.3"
       weight="33.333333"
       steps="2"
       helper_size="0"
       apply_no_weight="true"
       apply_with_weight="true"
       only_selected="false"
       uniform="false" /><marker
       style="overflow:visible"
       id="ArrowWideRounded"
       refX="0"
       refY="0"
       orient="auto-start-reverse"
       inkscape:stockid="Wide, rounded arrow"
       markerWidth="1"
       markerHeight="1"
       viewBox="0 0 1 1"
       inkscape:isstock="true"
       inkscape:collect="always"
       preserveAspectRatio="xMidYMid"><path
         style="fill:none;stroke:context-stroke;stroke-width:1;stroke-linecap:round"
         d="M 3,-3 0,0 3,3"
         transform="rotate(180,0.125,0)"
         sodipodi:nodetypes="ccc"
         id="path2" /></marker><inkscape:path-effect
       effect="bspline"
       id="path-effect1"
       is_visible="true"
       lpeversion="1.3"
       weight="33.333333"
       steps="2"
       helper_size="0"
       apply_no_weight="true"
       apply_with_weight="true"
       only_selected="false"
       uniform="false" /></defs><g
     inkscape:label="Layer 1"
     inkscape:groupmode="layer"
     id="layer1"
     transform="translate(-55.125, -90)"><g
       id="g47"
       style="stroke-width:0.3;stroke-dasharray:none"><g
         id="g25"
         style="stroke-width:0.3;stroke-dasharray:none"><path
           style="fill:#0000ff;fill-rule:evenodd;stroke:#cccccc;stroke-width:0.3;stroke-miterlimit:10;stroke-dasharray:none"
           d="m 115.00004,90.000003 c 0,33.333337 0,66.666667 0,100.000007"
           id="path3"
           inkscape:path-effect="#path-effect3"
           inkscape:original-d="m 115.00004,90.000003 c 0,33.333337 0,66.666667 0,100.000007" /><path
           style="fill:#0000ff;fill-rule:evenodd;stroke:#cccccc;stroke-width:0.3;stroke-miterlimit:10;stroke-dasharray:none"
           d="m 115.00004,90.000003 c 0,33.333337 0,66.666667 0,100.000007"
           id="path4"
           inkscape:path-effect="#path-effect6"
           inkscape:original-d="m 115.00004,90.000003 c 0,33.333337 0,66.666667 0,100.000007"
           transform="translate(9.9999999)" /><path
           style="fill:#0000ff;fill-rule:evenodd;stroke:#cccccc;stroke-width:0.3;stroke-miterlimit:10;stroke-dasharray:none"
           d="m 115.00004,90.000003 c 0,33.333337 0,66.666667 0,100.000007"
           id="path6"
           inkscape:path-effect="#path-effect9"
           inkscape:original-d="m 115.00004,90.000003 c 0,33.333337 0,66.666667 0,100.000007"
           transform="translate(20)" /><path
           style="fill:#0000ff;fill-rule:evenodd;stroke:#cccccc;stroke-width:0.3;stroke-miterlimit:10;stroke-dasharray:none"
           d="m 115.00004,90.000003 c 0,33.333337 0,66.666667 0,100.000007"
           id="path9"
           inkscape:path-effect="#path-effect13"
           inkscape:original-d="m 115.00004,90.000003 c 0,33.333337 0,66.666667 0,100.000007"
           transform="translate(30)" /><path
           style="fill:#0000ff;fill-rule:evenodd;stroke:#cccccc;stroke-width:0.3;stroke-miterlimit:10;stroke-dasharray:none"
           d="m 115.00004,90.000003 c 0,33.333337 0,66.666667 0,100.000007"
           id="path13"
           inkscape:path-effect="#path-effect17"
           inkscape:original-d="m 115.00004,90.000003 c 0,33.333337 0,66.666667 0,100.000007"
           transform="translate(-49.750001)" /><path
           style="fill:#0000ff;fill-rule:evenodd;stroke:#cccccc;stroke-width:0.3;stroke-miterlimit:10;stroke-dasharray:none"
           d="m 115.00004,90.000003 c 0,33.333337 0,66.666667 0,100.000007"
           id="path14"
           inkscape:path-effect="#path-effect21"
           inkscape:original-d="m 115.00004,90.000003 c 0,33.333337 0,66.666667 0,100.000007"
           transform="translate(-39.750001)" /><path
           style="fill:#0000ff;fill-rule:evenodd;stroke:#cccccc;stroke-width:0.3;stroke-miterlimit:10;stroke-dasharray:none"
           d="m 115.00004,90.000003 c 0,33.333337 0,66.666667 0,100.000007"
           id="path15"
           inkscape:path-effect="#path-effect23"
           inkscape:original-d="m 115.00004,90.000003 c 0,33.333337 0,66.666667 0,100.000007"
           transform="translate(-29.750001)" /><path
           style="fill:#0000ff;fill-rule:evenodd;stroke:#cccccc;stroke-width:0.3;stroke-miterlimit:10;stroke-dasharray:none"
           d="m 115.00004,90.000003 c 0,33.333337 0,66.666667 0,100.000007"
           id="path16"
           inkscape:path-effect="#path-effect25"
           inkscape:original-d="m 115.00004,90.000003 c 0,33.333337 0,66.666667 0,100.000007"
           transform="translate(-19.750001)" /></g><g
         id="g32"
         transform="rotate(90,105.12504,140.00001)"
         style="stroke-width:0.3;stroke-dasharray:none"><path
           style="fill:#0000ff;fill-rule:evenodd;stroke:#cccccc;stroke-width:0.3;stroke-miterlimit:10;stroke-dasharray:none"
           d="m 115.00004,90.000003 c 0,33.333337 0,66.666667 0,100.000007"
           id="path25"
           inkscape:path-effect="#path-effect33"
           inkscape:original-d="m 115.00004,90.000003 c 0,33.333337 0,66.666667 0,100.000007" /><path
           style="fill:#0000ff;fill-rule:evenodd;stroke:#cccccc;stroke-width:0.3;stroke-miterlimit:10;stroke-dasharray:none"
           d="m 115.00004,90.000003 c 0,33.333337 0,66.666667 0,100.000007"
           id="path26"
           inkscape:path-effect="#path-effect35"
           inkscape:original-d="m 115.00004,90.000003 c 0,33.333337 0,66.666667 0,100.000007"
           transform="translate(9.9999999)" /><path
           style="fill:#0000ff;fill-rule:evenodd;stroke:#cccccc;stroke-width:0.3;stroke-miterlimit:10;stroke-dasharray:none"
           d="m 115.00004,90.000003 c 0,33.333337 0,66.666667 0,100.000007"
           id="path27"
           inkscape:path-effect="#path-effect37"
           inkscape:original-d="m 115.00004,90.000003 c 0,33.333337 0,66.666667 0,100.000007"
           transform="translate(20)" /><path
           style="fill:#0000ff;fill-rule:evenodd;stroke:#cccccc;stroke-width:0.3;stroke-miterlimit:10;stroke-dasharray:none"
           d="m 115.00004,90.000003 c 0,33.333337 0,66.666667 0,100.000007"
           id="path28"
           inkscape:path-effect="#path-effect39"
           inkscape:original-d="m 115.00004,90.000003 c 0,33.333337 0,66.666667 0,100.000007"
           transform="translate(30)" /><path
           style="fill:#0000ff;fill-rule:evenodd;stroke:#cccccc;stroke-width:0.3;stroke-miterlimit:10;stroke-dasharray:none"
           d="m 115.00004,90.000003 c 0,33.333337 0,66.666667 0,100.000007"
           id="path29"
           inkscape:path-effect="#path-effect41"
           inkscape:original-d="m 115.00004,90.000003 c 0,33.333337 0,66.666667 0,100.000007"
           transform="translate(-49.750001)" /><path
           style="fill:#0000ff;fill-rule:evenodd;stroke:#cccccc;stroke-width:0.3;stroke-miterlimit:10;stroke-dasharray:none"
           d="m 115.00004,90.000003 c 0,33.333337 0,66.666667 0,100.000007"
           id="path30"
           inkscape:path-effect="#path-effect43"
           inkscape:original-d="m 115.00004,90.000003 c 0,33.333337 0,66.666667 0,100.000007"
           transform="translate(-39.750001)" /><path
           style="fill:#0000ff;fill-rule:evenodd;stroke:#cccccc;stroke-width:0.3;stroke-miterlimit:10;stroke-dasharray:none"
           d="m 115.00004,90.000003 c 0,33.333337 0,66.666667 0,100.000007"
           id="path31"
           inkscape:path-effect="#path-effect45"
           inkscape:original-d="m 115.00004,90.000003 c 0,33.333337 0,66.666667 0,100.000007"
           transform="translate(-29.750001)" /><path
           style="fill:#0000ff;fill-rule:evenodd;stroke:#cccccc;stroke-width:0.3;stroke-miterlimit:10;stroke-dasharray:none"
           d="m 115.00004,90.000003 c 0,33.333337 0,66.666667 0,100.000007"
           id="path32"
           inkscape:path-effect="#path-effect47"
           inkscape:original-d="m 115.00004,90.000003 c 0,33.333337 0,66.666667 0,100.000007"
           transform="translate(-19.750001)" /></g></g><path
       style="fill:none;stroke:#000000;stroke-width:0.6;stroke-miterlimit:10;stroke-dasharray:none;marker-start:url(#marker5);marker-end:url(#ArrowWideRounded)"
       d="m 107.7527,198.46941 c 0,-39.46674 0,-78.93347 0,-118.400208"
       id="path1"
       inkscape:path-effect="#path-effect1"
       inkscape:original-d="m 107.7527,198.46941 c 0,-39.46674 0,-78.93347 0,-118.400208"
       transform="matrix(0.83108147,0,0,0.83647899,15.57045,23.504157)" /><path
       style="fill:none;stroke:#000000;stroke-width:0.60282801;stroke-miterlimit:10;stroke-dasharray:none;marker-start:url(#marker5);marker-end:url(#ArrowWideRounded)"
       d="m 107.7704,199.66287 c -0.006,-39.86456 -0.0118,-79.72911 -0.0177,-119.593668"
       id="path8"
       inkscape:path-effect="#path-effect10"
       inkscape:original-d="m 107.7704,199.66287 c -0.006,-39.86456 -0.0118,-79.72911 -0.0177,-119.593668"
       transform="matrix(0,0.83071208,-0.82813785,0,220.95859,50.488539)"
       sodipodi:nodetypes="cc" /><rect
       style="fill:#0000ff;fill-rule:evenodd;stroke:#0000ff;stroke-width:0.5;stroke-miterlimit:10;stroke-dasharray:none;fill-opacity:0.47593582"
       id="rect47"
       width="19.878317"
       height="19.8794"
       x="105.12172"
       y="120.12501" /><g
       transform="matrix(0.529167,0,0,0.529167,126.00823,141.29294)"
       ns1:version="1.10.2"
       ns1:texconverter="pdflatex"
       ns1:pdfconverter="inkscape"
       ns1:text="$1$"
       ns1:preamble="/Users/sachchidanandprasad/Library/Application Support/org.inkscape.Inkscape/config/inkscape/extensions/textext/default_packages.tex"
       ns1:scale="1.4999999980930703"
       ns1:alignment="middle center"
       ns1:stroke-to-path="0"
       ns1:inkscapeversion="1.4"
       ns1:jacobian_sqrt="0.529167"
       id="g49"><defs
   id="id-3565d3a2-e4c0-4e12-a006-b07d87d20520">
    <g
   id="id-b8c6eb00-abd2-49eb-96d8-44cc139cb501">
      <g
   id="id-d6a332b9-871e-4c98-9903-b0c20d9d5184">
        <path
   d="m 0.671875,-5.53125 h 0.09375 l 1.28125,-0.578125 C 2.0625,-6.125 2.078125,-6.125 2.078125,-6.125 c 0.0625,0 0.078125,0.09375 0.078125,0.328125 v 4.84375 c 0,0.515625 -0.109375,0.625 -0.640625,0.65625 l -0.5625,0.03125 V 0.03125 C 2.5,0 2.5,0 2.609375,0 c 0.125,0 0.34375,0 0.6875,0.015625 0.109375,0 0.46875,0 0.875,0.015625 V -0.265625 L 3.65625,-0.296875 C 3.09375,-0.328125 3,-0.4375 3,-0.953125 V -6.875 L 2.859375,-6.921875 C 2.21875,-6.578125 1.5,-6.28125 0.59375,-5.96875 Z m 0,0"
   id="id-34531269-43f9-4619-be1b-67d2aa15d7fc" />
      </g>
    </g>
  </defs>
  <g
   fill="#000000"
   fill-opacity="1"
   id="id-d186edda-c4cc-4534-a0c1-88bcf1425377"
   transform="translate(-149.306,-127.843)">
    <g
   transform="translate(148.712,134.765)"
   id="g48"><path
   d="m 0.671875,-5.53125 h 0.09375 l 1.28125,-0.578125 C 2.0625,-6.125 2.078125,-6.125 2.078125,-6.125 c 0.0625,0 0.078125,0.09375 0.078125,0.328125 v 4.84375 c 0,0.515625 -0.109375,0.625 -0.640625,0.65625 l -0.5625,0.03125 V 0.03125 C 2.5,0 2.5,0 2.609375,0 c 0.125,0 0.34375,0 0.6875,0.015625 0.109375,0 0.46875,0 0.875,0.015625 V -0.265625 L 3.65625,-0.296875 C 3.09375,-0.328125 3,-0.4375 3,-0.953125 V -6.875 L 2.859375,-6.921875 C 2.21875,-6.578125 1.5,-6.28125 0.59375,-5.96875 Z m 0,0"
   id="id-7880668a-a086-4176-bf69-c879a7974151" />
      </g></g>
</g><g
       transform="matrix(0.529167,0,0,0.529167,102.3831,118.87784)"
       ns1:version="1.10.2"
       ns1:texconverter="pdflatex"
       ns1:pdfconverter="inkscape"
       ns1:text="$\\iota$"
       ns1:preamble="/Users/sachchidanandprasad/Library/Application Support/org.inkscape.Inkscape/config/inkscape/extensions/textext/default_packages.tex"
       ns1:scale="1.4999999980930703"
       ns1:alignment="middle center"
       ns1:stroke-to-path="0"
       ns1:inkscapeversion="1.4"
       ns1:jacobian_sqrt="0.529167"
       id="g51"><defs
   id="id-29ac731c-d403-4a39-82a3-16e2f70c472e">
    <g
   id="id-5eb1f613-2289-4fd6-85aa-331558dca0ab">
      <g
   id="id-943f797e-826d-4430-8a97-a3154d52bd30">
        <path
   d="M 2.03125,-4.8125 1.328125,-4.609375 C 1.28125,-3.9375 1.1875,-3.640625 1.140625,-3.453125 L 0.484375,-1.0625 C 0.484375,-1 0.46875,-0.96875 0.4375,-0.859375 0.375,-0.5625 0.359375,-0.4375 0.359375,-0.3125 c 0,0.25 0.109375,0.40625 0.296875,0.40625 0.34375,0 0.703125,-0.1875 1.484375,-0.828125 l 0.296875,-0.25 -0.09375,-0.1875 -0.453125,0.3125 C 1.59375,-0.640625 1.40625,-0.5625 1.28125,-0.5625 c -0.078125,0 -0.125,-0.078125 -0.125,-0.1875 0,-0.109375 0.015625,-0.1875 0.0625,-0.40625 L 2,-4.1875 C 2.03125,-4.34375 2.078125,-4.5 2.140625,-4.671875 Z m 0,0"
   id="id-b417fdc1-1447-459a-b321-5ee7cca94703" />
      </g>
    </g>
  </defs>
  <g
   fill="#000000"
   fill-opacity="1"
   id="id-a621e234-657a-4f3e-86ac-cfbbb802f05c"
   transform="translate(-149.196,-129.952)">
    <g
   transform="translate(148.837,134.765)"
   id="g50"><path
   d="M 2.03125,-4.8125 1.328125,-4.609375 C 1.28125,-3.9375 1.1875,-3.640625 1.140625,-3.453125 L 0.484375,-1.0625 C 0.484375,-1 0.46875,-0.96875 0.4375,-0.859375 0.375,-0.5625 0.359375,-0.4375 0.359375,-0.3125 c 0,0.25 0.109375,0.40625 0.296875,0.40625 0.34375,0 0.703125,-0.1875 1.484375,-0.828125 l 0.296875,-0.25 -0.09375,-0.1875 -0.453125,0.3125 C 1.59375,-0.640625 1.40625,-0.5625 1.28125,-0.5625 c -0.078125,0 -0.125,-0.078125 -0.125,-0.1875 0,-0.109375 0.015625,-0.1875 0.0625,-0.40625 L 2,-4.1875 C 2.03125,-4.34375 2.078125,-4.5 2.140625,-4.671875 Z m 0,0"
   id="id-ca2a04b9-7d29-4090-8640-a9f13e9d9868" />
      </g></g>
</g><circle
       id="path51"
       style="fill:#ff0000;stroke:none;stroke-width:0.264583"
       cx="135.00005"
       cy="110.12501"
       r="0.75" /><g
       transform="matrix(0.529167,0,0,0.529167,136.01685,111.32536)"
       ns1:version="1.10.2"
       ns1:texconverter="pdflatex"
       ns1:pdfconverter="inkscape"
       ns1:text="$z$"
       ns1:preamble="/Users/sachchidanandprasad/Library/Application Support/org.inkscape.Inkscape/config/inkscape/extensions/textext/default_packages.tex"
       ns1:scale="1.4999999980930703"
       ns1:alignment="middle center"
       ns1:stroke-to-path="0"
       ns1:inkscapeversion="1.4"
       ns1:jacobian_sqrt="0.529167"
       id="g53"><defs
   id="id-8f54c2c2-491b-4a1f-bc57-e0fc394ed4a0">
    <g
   id="id-9d84852d-6d9b-4f1c-9461-50238fded280">
      <g
   id="id-b1a9a771-43dd-40b1-bc62-d9479ffeb15d">
        <path
   d="M -0.015625,-0.203125 0.078125,0.0625 c 0.296875,-0.234375 0.5625,-0.328125 0.90625,-0.328125 0.25,0 0.53125,0.0625 1.046875,0.171875 0.59375,0.15625 0.90625,0.203125 1.171875,0.203125 0.125,0 0.21875,-0.015625 0.5,-0.09375 0.109375,-0.625 0.1875,-0.96875 0.296875,-1.4375 H 3.78125 L 3.5625,-0.8125 c -0.046875,0.171875 -0.171875,0.25 -0.375,0.25 -0.125,0 -0.28125,-0.03125 -0.5,-0.078125 L 2.515625,-0.671875 C 2.1875,-0.75 1.84375,-0.796875 1.65625,-0.796875 c -0.328125,0 -0.59375,0.0625 -0.953125,0.203125 L 4.09375,-4.390625 4.140625,-4.71875 4.0625,-4.8125 3.828125,-4.578125 C 3.734375,-4.46875 3.625,-4.4375 3.484375,-4.4375 3.15625,-4.4375 2.625,-4.515625 2.15625,-4.640625 L 1.96875,-4.6875 C 1.6875,-4.765625 1.5,-4.8125 1.359375,-4.8125 c -0.171875,0 -0.375,0.03125 -0.609375,0.109375 l -0.328125,1.21875 h 0.21875 L 0.9375,-4.0625 c 0.171875,-0.046875 0.265625,-0.046875 0.390625,-0.046875 0.140625,0 0.25,0 0.453125,0.046875 0.328125,0.0625 0.59375,0.09375 0.796875,0.09375 0.359375,0 0.609375,-0.0625 0.9375,-0.234375 z m 0,0"
   id="id-06d00940-55cd-4381-97a3-ab224020134f" />
      </g>
    </g>
  </defs>
  <g
   fill="#000000"
   fill-opacity="1"
   id="id-ea592e33-0ce6-4081-ab79-22428ce7b4b0"
   transform="translate(-148.821,-129.952)">
    <g
   transform="translate(148.837,134.765)"
   id="g52"><path
   d="M -0.015625,-0.203125 0.078125,0.0625 c 0.296875,-0.234375 0.5625,-0.328125 0.90625,-0.328125 0.25,0 0.53125,0.0625 1.046875,0.171875 0.59375,0.15625 0.90625,0.203125 1.171875,0.203125 0.125,0 0.21875,-0.015625 0.5,-0.09375 0.109375,-0.625 0.1875,-0.96875 0.296875,-1.4375 H 3.78125 L 3.5625,-0.8125 c -0.046875,0.171875 -0.171875,0.25 -0.375,0.25 -0.125,0 -0.28125,-0.03125 -0.5,-0.078125 L 2.515625,-0.671875 C 2.1875,-0.75 1.84375,-0.796875 1.65625,-0.796875 c -0.328125,0 -0.59375,0.0625 -0.953125,0.203125 L 4.09375,-4.390625 4.140625,-4.71875 4.0625,-4.8125 3.828125,-4.578125 C 3.734375,-4.46875 3.625,-4.4375 3.484375,-4.4375 3.15625,-4.4375 2.625,-4.515625 2.15625,-4.640625 L 1.96875,-4.6875 C 1.6875,-4.765625 1.5,-4.8125 1.359375,-4.8125 c -0.171875,0 -0.375,0.03125 -0.609375,0.109375 l -0.328125,1.21875 h 0.21875 L 0.9375,-4.0625 c 0.171875,-0.046875 0.265625,-0.046875 0.390625,-0.046875 0.140625,0 0.25,0 0.453125,0.046875 0.328125,0.0625 0.59375,0.09375 0.796875,0.09375 0.359375,0 0.609375,-0.0625 0.9375,-0.234375 z m 0,0"
   id="id-664c7ff8-26b4-4fc1-8b1b-81b0078114dc" />
      </g></g>
</g><g
       id="g69"
       style="stroke-width:0.3;stroke-dasharray:none"><g
         id="g60"
         style="stroke-width:0.3;stroke-dasharray:none"><path
           style="fill:#0000ff;fill-rule:evenodd;stroke:#cccccc;stroke-width:0.3;stroke-miterlimit:10;stroke-dasharray:none"
           d="m 115.00004,90.000003 c 0,33.333337 0,66.666667 0,100.000007"
           id="path53"
           inkscape:path-effect="#path-effect86"
           inkscape:original-d="m 115.00004,90.000003 c 0,33.333337 0,66.666667 0,100.000007" /><path
           style="fill:#0000ff;fill-rule:evenodd;stroke:#cccccc;stroke-width:0.3;stroke-miterlimit:10;stroke-dasharray:none"
           d="m 115.00004,90.000003 c 0,33.333337 0,66.666667 0,100.000007"
           id="path54"
           inkscape:path-effect="#path-effect88"
           inkscape:original-d="m 115.00004,90.000003 c 0,33.333337 0,66.666667 0,100.000007"
           transform="translate(9.9999999)" /><path
           style="fill:#0000ff;fill-rule:evenodd;stroke:#cccccc;stroke-width:0.3;stroke-miterlimit:10;stroke-dasharray:none"
           d="m 115.00004,90.000003 c 0,33.333337 0,66.666667 0,100.000007"
           id="path55"
           inkscape:path-effect="#path-effect90"
           inkscape:original-d="m 115.00004,90.000003 c 0,33.333337 0,66.666667 0,100.000007"
           transform="translate(20)" /><path
           style="fill:#0000ff;fill-rule:evenodd;stroke:#cccccc;stroke-width:0.3;stroke-miterlimit:10;stroke-dasharray:none"
           d="m 115.00004,90.000003 c 0,33.333337 0,66.666667 0,100.000007"
           id="path56"
           inkscape:path-effect="#path-effect92"
           inkscape:original-d="m 115.00004,90.000003 c 0,33.333337 0,66.666667 0,100.000007"
           transform="translate(30)" /><path
           style="fill:#0000ff;fill-rule:evenodd;stroke:#cccccc;stroke-width:0.3;stroke-miterlimit:10;stroke-dasharray:none"
           d="m 115.00004,90.000003 c 0,33.333337 0,66.666667 0,100.000007"
           id="path57"
           inkscape:path-effect="#path-effect94"
           inkscape:original-d="m 115.00004,90.000003 c 0,33.333337 0,66.666667 0,100.000007"
           transform="translate(-49.750001)" /><path
           style="fill:#0000ff;fill-rule:evenodd;stroke:#cccccc;stroke-width:0.3;stroke-miterlimit:10;stroke-dasharray:none"
           d="m 115.00004,90.000003 c 0,33.333337 0,66.666667 0,100.000007"
           id="path58"
           inkscape:path-effect="#path-effect96"
           inkscape:original-d="m 115.00004,90.000003 c 0,33.333337 0,66.666667 0,100.000007"
           transform="translate(-39.750001)" /><path
           style="fill:#0000ff;fill-rule:evenodd;stroke:#cccccc;stroke-width:0.3;stroke-miterlimit:10;stroke-dasharray:none"
           d="m 115.00004,90.000003 c 0,33.333337 0,66.666667 0,100.000007"
           id="path59"
           inkscape:path-effect="#path-effect98"
           inkscape:original-d="m 115.00004,90.000003 c 0,33.333337 0,66.666667 0,100.000007"
           transform="translate(-29.750001)" /><path
           style="fill:#0000ff;fill-rule:evenodd;stroke:#cccccc;stroke-width:0.3;stroke-miterlimit:10;stroke-dasharray:none"
           d="m 115.00004,90.000003 c 0,33.333337 0,66.666667 0,100.000007"
           id="path60"
           inkscape:path-effect="#path-effect100"
           inkscape:original-d="m 115.00004,90.000003 c 0,33.333337 0,66.666667 0,100.000007"
           transform="translate(-19.750001)" /></g><g
         id="g68"
         transform="rotate(90,105.12504,140.00001)"
         style="stroke-width:0.3;stroke-dasharray:none"><path
           style="fill:#0000ff;fill-rule:evenodd;stroke:#cccccc;stroke-width:0.3;stroke-miterlimit:10;stroke-dasharray:none"
           d="m 115.00004,90.000003 c 0,33.333337 0,66.666667 0,100.000007"
           id="path61"
           inkscape:path-effect="#path-effect102"
           inkscape:original-d="m 115.00004,90.000003 c 0,33.333337 0,66.666667 0,100.000007" /><path
           style="fill:#0000ff;fill-rule:evenodd;stroke:#cccccc;stroke-width:0.3;stroke-miterlimit:10;stroke-dasharray:none"
           d="m 115.00004,90.000003 c 0,33.333337 0,66.666667 0,100.000007"
           id="path62"
           inkscape:path-effect="#path-effect104"
           inkscape:original-d="m 115.00004,90.000003 c 0,33.333337 0,66.666667 0,100.000007"
           transform="translate(9.9999999)" /><path
           style="fill:#0000ff;fill-rule:evenodd;stroke:#cccccc;stroke-width:0.3;stroke-miterlimit:10;stroke-dasharray:none"
           d="m 115.00004,90.000003 c 0,33.333337 0,66.666667 0,100.000007"
           id="path63"
           inkscape:path-effect="#path-effect106"
           inkscape:original-d="m 115.00004,90.000003 c 0,33.333337 0,66.666667 0,100.000007"
           transform="translate(20)" /><path
           style="fill:#0000ff;fill-rule:evenodd;stroke:#cccccc;stroke-width:0.3;stroke-miterlimit:10;stroke-dasharray:none"
           d="m 115.00004,90.000003 c 0,33.333337 0,66.666667 0,100.000007"
           id="path64"
           inkscape:path-effect="#path-effect108"
           inkscape:original-d="m 115.00004,90.000003 c 0,33.333337 0,66.666667 0,100.000007"
           transform="translate(30)" /><path
           style="fill:#0000ff;fill-rule:evenodd;stroke:#cccccc;stroke-width:0.3;stroke-miterlimit:10;stroke-dasharray:none"
           d="m 115.00004,90.000003 c 0,33.333337 0,66.666667 0,100.000007"
           id="path65"
           inkscape:path-effect="#path-effect110"
           inkscape:original-d="m 115.00004,90.000003 c 0,33.333337 0,66.666667 0,100.000007"
           transform="translate(-49.750001)" /><path
           style="fill:#0000ff;fill-rule:evenodd;stroke:#cccccc;stroke-width:0.3;stroke-miterlimit:10;stroke-dasharray:none"
           d="m 115.00004,90.000003 c 0,33.333337 0,66.666667 0,100.000007"
           id="path66"
           inkscape:path-effect="#path-effect112"
           inkscape:original-d="m 115.00004,90.000003 c 0,33.333337 0,66.666667 0,100.000007"
           transform="translate(-39.750001)" /><path
           style="fill:#0000ff;fill-rule:evenodd;stroke:#cccccc;stroke-width:0.3;stroke-miterlimit:10;stroke-dasharray:none"
           d="m 115.00004,90.000003 c 0,33.333337 0,66.666667 0,100.000007"
           id="path67"
           inkscape:path-effect="#path-effect114"
           inkscape:original-d="m 115.00004,90.000003 c 0,33.333337 0,66.666667 0,100.000007"
           transform="translate(-29.750001)" /><path
           style="fill:#0000ff;fill-rule:evenodd;stroke:#cccccc;stroke-width:0.3;stroke-miterlimit:10;stroke-dasharray:none"
           d="m 115.00004,90.000003 c 0,33.333337 0,66.666667 0,100.000007"
           id="path68"
           inkscape:path-effect="#path-effect116"
           inkscape:original-d="m 115.00004,90.000003 c 0,33.333337 0,66.666667 0,100.000007"
           transform="translate(-19.750001)" /></g></g><path
       style="fill:none;stroke:#000000;stroke-width:0.6;stroke-miterlimit:10;stroke-dasharray:none;marker-start:url(#marker5);marker-end:url(#ArrowWideRounded)"
       d="m 107.7527,198.46941 c 0,-39.46674 0,-78.93347 0,-118.400208"
       id="path69"
       inkscape:path-effect="#path-effect118"
       inkscape:original-d="m 107.7527,198.46941 c 0,-39.46674 0,-78.93347 0,-118.400208"
       transform="matrix(0.83108147,0,0,0.83647899,15.57045,23.504157)" /><path
       style="fill:none;stroke:#000000;stroke-width:0.60282801;stroke-miterlimit:10;stroke-dasharray:none;marker-start:url(#marker5);marker-end:url(#ArrowWideRounded)"
       d="m 107.7704,199.66287 c -0.006,-39.86456 -0.0118,-79.72911 -0.0177,-119.593668"
       id="path70"
       inkscape:path-effect="#path-effect120"
       inkscape:original-d="m 107.7704,199.66287 c -0.006,-39.86456 -0.0118,-79.72911 -0.0177,-119.593668"
       transform="matrix(0,0.83071208,-0.82813785,0,220.95859,50.488539)"
       sodipodi:nodetypes="cc" /><rect
       style="fill:#0000ff;fill-rule:evenodd;stroke:#0000ff;stroke-width:0.5;stroke-miterlimit:10;stroke-dasharray:none;fill-opacity:0.47593582"
       id="rect70"
       width="19.878317"
       height="19.8794"
       x="105.12172"
       y="120.12501" /><g
       transform="matrix(0.529167,0,0,0.529167,126.00823,141.29294)"
       ns1:version="1.10.2"
       ns1:texconverter="pdflatex"
       ns1:pdfconverter="inkscape"
       ns1:text="$1$"
       ns1:preamble="/Users/sachchidanandprasad/Library/Application Support/org.inkscape.Inkscape/config/inkscape/extensions/textext/default_packages.tex"
       ns1:scale="1.4999999980930703"
       ns1:alignment="middle center"
       ns1:stroke-to-path="0"
       ns1:inkscapeversion="1.4"
       ns1:jacobian_sqrt="0.529167"
       id="g75"><defs
   id="defs72">
    <g
   id="g72">
      <g
   id="g71">
        <path
   d="m 0.671875,-5.53125 h 0.09375 l 1.28125,-0.578125 C 2.0625,-6.125 2.078125,-6.125 2.078125,-6.125 c 0.0625,0 0.078125,0.09375 0.078125,0.328125 v 4.84375 c 0,0.515625 -0.109375,0.625 -0.640625,0.65625 l -0.5625,0.03125 V 0.03125 C 2.5,0 2.5,0 2.609375,0 c 0.125,0 0.34375,0 0.6875,0.015625 0.109375,0 0.46875,0 0.875,0.015625 V -0.265625 L 3.65625,-0.296875 C 3.09375,-0.328125 3,-0.4375 3,-0.953125 V -6.875 L 2.859375,-6.921875 C 2.21875,-6.578125 1.5,-6.28125 0.59375,-5.96875 Z m 0,0"
   id="path71" />
      </g>
    </g>
  </defs>
  <g
   fill="#000000"
   fill-opacity="1"
   id="g74"
   transform="translate(-149.306,-127.843)">
    <g
   transform="translate(148.712,134.765)"
   id="g73"><path
   d="m 0.671875,-5.53125 h 0.09375 l 1.28125,-0.578125 C 2.0625,-6.125 2.078125,-6.125 2.078125,-6.125 c 0.0625,0 0.078125,0.09375 0.078125,0.328125 v 4.84375 c 0,0.515625 -0.109375,0.625 -0.640625,0.65625 l -0.5625,0.03125 V 0.03125 C 2.5,0 2.5,0 2.609375,0 c 0.125,0 0.34375,0 0.6875,0.015625 0.109375,0 0.46875,0 0.875,0.015625 V -0.265625 L 3.65625,-0.296875 C 3.09375,-0.328125 3,-0.4375 3,-0.953125 V -6.875 L 2.859375,-6.921875 C 2.21875,-6.578125 1.5,-6.28125 0.59375,-5.96875 Z m 0,0"
   id="path72" />
      </g></g>
</g><g
       transform="matrix(0.529167,0,0,0.529167,102.3831,118.87784)"
       ns1:version="1.10.2"
       ns1:texconverter="pdflatex"
       ns1:pdfconverter="inkscape"
       ns1:text="$\\iota$"
       ns1:preamble="/Users/sachchidanandprasad/Library/Application Support/org.inkscape.Inkscape/config/inkscape/extensions/textext/default_packages.tex"
       ns1:scale="1.4999999980930703"
       ns1:alignment="middle center"
       ns1:stroke-to-path="0"
       ns1:inkscapeversion="1.4"
       ns1:jacobian_sqrt="0.529167"
       id="g80"><defs
   id="defs77">
    <g
   id="g77">
      <g
   id="g76">
        <path
   d="M 2.03125,-4.8125 1.328125,-4.609375 C 1.28125,-3.9375 1.1875,-3.640625 1.140625,-3.453125 L 0.484375,-1.0625 C 0.484375,-1 0.46875,-0.96875 0.4375,-0.859375 0.375,-0.5625 0.359375,-0.4375 0.359375,-0.3125 c 0,0.25 0.109375,0.40625 0.296875,0.40625 0.34375,0 0.703125,-0.1875 1.484375,-0.828125 l 0.296875,-0.25 -0.09375,-0.1875 -0.453125,0.3125 C 1.59375,-0.640625 1.40625,-0.5625 1.28125,-0.5625 c -0.078125,0 -0.125,-0.078125 -0.125,-0.1875 0,-0.109375 0.015625,-0.1875 0.0625,-0.40625 L 2,-4.1875 C 2.03125,-4.34375 2.078125,-4.5 2.140625,-4.671875 Z m 0,0"
   id="path75" />
      </g>
    </g>
  </defs>
  <g
   fill="#000000"
   fill-opacity="1"
   id="g79"
   transform="translate(-149.196,-129.952)">
    <g
   transform="translate(148.837,134.765)"
   id="g78"><path
   d="M 2.03125,-4.8125 1.328125,-4.609375 C 1.28125,-3.9375 1.1875,-3.640625 1.140625,-3.453125 L 0.484375,-1.0625 C 0.484375,-1 0.46875,-0.96875 0.4375,-0.859375 0.375,-0.5625 0.359375,-0.4375 0.359375,-0.3125 c 0,0.25 0.109375,0.40625 0.296875,0.40625 0.34375,0 0.703125,-0.1875 1.484375,-0.828125 l 0.296875,-0.25 -0.09375,-0.1875 -0.453125,0.3125 C 1.59375,-0.640625 1.40625,-0.5625 1.28125,-0.5625 c -0.078125,0 -0.125,-0.078125 -0.125,-0.1875 0,-0.109375 0.015625,-0.1875 0.0625,-0.40625 L 2,-4.1875 C 2.03125,-4.34375 2.078125,-4.5 2.140625,-4.671875 Z m 0,0"
   id="path77" />
      </g></g>
</g><circle
       id="circle80"
       style="fill:#ff0000;stroke:none;stroke-width:0.264583"
       cx="135.00005"
       cy="110.12501"
       r="0.75" /><g
       transform="matrix(0.529167,0,0,0.529167,136.01685,111.32536)"
       ns1:version="1.10.2"
       ns1:texconverter="pdflatex"
       ns1:pdfconverter="inkscape"
       ns1:text="$z$"
       ns1:preamble="/Users/sachchidanandprasad/Library/Application Support/org.inkscape.Inkscape/config/inkscape/extensions/textext/default_packages.tex"
       ns1:scale="1.4999999980930703"
       ns1:alignment="middle center"
       ns1:stroke-to-path="0"
       ns1:inkscapeversion="1.4"
       ns1:jacobian_sqrt="0.529167"
       id="g85"><defs
   id="defs82">
    <g
   id="g82">
      <g
   id="g81">
        <path
   d="M -0.015625,-0.203125 0.078125,0.0625 c 0.296875,-0.234375 0.5625,-0.328125 0.90625,-0.328125 0.25,0 0.53125,0.0625 1.046875,0.171875 0.59375,0.15625 0.90625,0.203125 1.171875,0.203125 0.125,0 0.21875,-0.015625 0.5,-0.09375 0.109375,-0.625 0.1875,-0.96875 0.296875,-1.4375 H 3.78125 L 3.5625,-0.8125 c -0.046875,0.171875 -0.171875,0.25 -0.375,0.25 -0.125,0 -0.28125,-0.03125 -0.5,-0.078125 L 2.515625,-0.671875 C 2.1875,-0.75 1.84375,-0.796875 1.65625,-0.796875 c -0.328125,0 -0.59375,0.0625 -0.953125,0.203125 L 4.09375,-4.390625 4.140625,-4.71875 4.0625,-4.8125 3.828125,-4.578125 C 3.734375,-4.46875 3.625,-4.4375 3.484375,-4.4375 3.15625,-4.4375 2.625,-4.515625 2.15625,-4.640625 L 1.96875,-4.6875 C 1.6875,-4.765625 1.5,-4.8125 1.359375,-4.8125 c -0.171875,0 -0.375,0.03125 -0.609375,0.109375 l -0.328125,1.21875 h 0.21875 L 0.9375,-4.0625 c 0.171875,-0.046875 0.265625,-0.046875 0.390625,-0.046875 0.140625,0 0.25,0 0.453125,0.046875 0.328125,0.0625 0.59375,0.09375 0.796875,0.09375 0.359375,0 0.609375,-0.0625 0.9375,-0.234375 z m 0,0"
   id="path80" />
      </g>
    </g>
  </defs>
  <g
   fill="#000000"
   fill-opacity="1"
   id="g84"
   transform="translate(-148.821,-129.952)">
    <g
   transform="translate(148.837,134.765)"
   id="g83"><path
   d="M -0.015625,-0.203125 0.078125,0.0625 c 0.296875,-0.234375 0.5625,-0.328125 0.90625,-0.328125 0.25,0 0.53125,0.0625 1.046875,0.171875 0.59375,0.15625 0.90625,0.203125 1.171875,0.203125 0.125,0 0.21875,-0.015625 0.5,-0.09375 0.109375,-0.625 0.1875,-0.96875 0.296875,-1.4375 H 3.78125 L 3.5625,-0.8125 c -0.046875,0.171875 -0.171875,0.25 -0.375,0.25 -0.125,0 -0.28125,-0.03125 -0.5,-0.078125 L 2.515625,-0.671875 C 2.1875,-0.75 1.84375,-0.796875 1.65625,-0.796875 c -0.328125,0 -0.59375,0.0625 -0.953125,0.203125 L 4.09375,-4.390625 4.140625,-4.71875 4.0625,-4.8125 3.828125,-4.578125 C 3.734375,-4.46875 3.625,-4.4375 3.484375,-4.4375 3.15625,-4.4375 2.625,-4.515625 2.15625,-4.640625 L 1.96875,-4.6875 C 1.6875,-4.765625 1.5,-4.8125 1.359375,-4.8125 c -0.171875,0 -0.375,0.03125 -0.609375,0.109375 l -0.328125,1.21875 h 0.21875 L 0.9375,-4.0625 c 0.171875,-0.046875 0.265625,-0.046875 0.390625,-0.046875 0.140625,0 0.25,0 0.453125,0.046875 0.328125,0.0625 0.59375,0.09375 0.796875,0.09375 0.359375,0 0.609375,-0.0625 0.9375,-0.234375 z m 0,0"
   id="path82" />
      </g></g>
</g></g></svg>
