<?xml version="1.0" encoding="UTF-8" standalone="no"?>
<!-- Created with Inkscape (http://www.inkscape.org/) -->

<svg
   width="100.09818mm"
   height="99.8433mm"
   viewBox="0 0 100.09819 99.843301"
   version="1.1"
   id="svg1"
   xml:space="preserve"
   inkscape:version="1.4 (e7c3feb1, 2024-10-09)"
   sodipodi:docname="prob-28-01-25_05.svg"
   xmlns:inkscape="http://www.inkscape.org/namespaces/inkscape"
   xmlns:sodipodi="http://sodipodi.sourceforge.net/DTD/sodipodi-0.dtd"
   xmlns="http://www.w3.org/2000/svg"
   xmlns:svg="http://www.w3.org/2000/svg"
   xmlns:ns1="http://www.iki.fi/pav/software/textext/"><sodipodi:namedview
     id="namedview1"
     pagecolor="#ffffff"
     bordercolor="#000000"
     borderopacity="0.25"
     inkscape:showpageshadow="2"
     inkscape:pageopacity="0.0"
     inkscape:pagecheckerboard="0"
     inkscape:deskcolor="#d1d1d1"
     inkscape:document-units="mm"
     showgrid="false"
     inkscape:zoom="1"
     inkscape:cx="198"
     inkscape:cy="77"
     inkscape:window-width="1512"
     inkscape:window-height="916"
     inkscape:window-x="0"
     inkscape:window-y="38"
     inkscape:window-maximized="1"
     inkscape:current-layer="layer1"><inkscape:grid
       id="grid8"
       units="mm"
       originx="-55.444312"
       originy="-89.193828"
       spacingx="0.99999998"
       spacingy="1"
       empcolor="#0099e5"
       empopacity="0.30196078"
       color="#0099e5"
       opacity="0.14901961"
       empspacing="5"
       enabled="true"
       visible="false" /></sodipodi:namedview><defs
     id="defs1"><inkscape:path-effect
       effect="bspline"
       id="path-effect47"
       is_visible="true"
       lpeversion="1.3"
       weight="33.333333"
       steps="2"
       helper_size="0"
       apply_no_weight="true"
       apply_with_weight="true"
       only_selected="false"
       uniform="false" /><inkscape:path-effect
       effect="bspline"
       id="path-effect45"
       is_visible="true"
       lpeversion="1.3"
       weight="33.333333"
       steps="2"
       helper_size="0"
       apply_no_weight="true"
       apply_with_weight="true"
       only_selected="false"
       uniform="false" /><inkscape:path-effect
       effect="bspline"
       id="path-effect36"
       is_visible="true"
       lpeversion="1.3"
       weight="33.333333"
       steps="2"
       helper_size="0"
       apply_no_weight="true"
       apply_with_weight="true"
       only_selected="false"
       uniform="false" /><inkscape:path-effect
       effect="mirror_symmetry"
       start_point="99.302601,111.39852"
       end_point="99.302601,210.75326"
       center_point="99.302601,161.07589"
       id="path-effect21"
       is_visible="true"
       lpeversion="1.2"
       lpesatellites=""
       mode="free"
       discard_orig_path="false"
       fuse_paths="false"
       oposite_fuse="false"
       split_items="false"
       split_open="false"
       link_styles="false" /><inkscape:path-effect
       effect="fillet_chamfer"
       id="path-effect19"
       is_visible="true"
       lpeversion="1"
       nodesatellites_param="F,0,0,1,0,0,0,1 @ F,0,0,1,0,0,0,1 @ F,0,0,1,0,0,0,1 @ F,0,0,1,0,0,0,1"
       radius="0"
       unit="px"
       method="auto"
       mode="F"
       chamfer_steps="1"
       flexible="false"
       use_knot_distance="true"
       apply_no_radius="true"
       apply_with_radius="true"
       only_selected="false"
       hide_knots="false" /><inkscape:path-effect
       effect="fillet_chamfer"
       id="path-effect18"
       is_visible="true"
       lpeversion="1"
       nodesatellites_param="F,0,0,1,0,0,0,1 @ F,0,0,1,0,0,0,1 @ F,0,0,1,0,0,0,1 @ F,0,0,1,0,0,0,1"
       radius="0"
       unit="px"
       method="auto"
       mode="F"
       chamfer_steps="1"
       flexible="false"
       use_knot_distance="true"
       apply_no_radius="true"
       apply_with_radius="true"
       only_selected="false"
       hide_knots="false" /><inkscape:path-effect
       effect="bspline"
       id="path-effect12"
       is_visible="true"
       lpeversion="1.3"
       weight="33.333333"
       steps="2"
       helper_size="0"
       apply_no_weight="true"
       apply_with_weight="true"
       only_selected="false"
       uniform="false" /><inkscape:path-effect
       effect="bspline"
       id="path-effect10"
       is_visible="true"
       lpeversion="1.3"
       weight="33.333333"
       steps="2"
       helper_size="0"
       apply_no_weight="true"
       apply_with_weight="true"
       only_selected="false"
       uniform="false" /><inkscape:path-effect
       effect="bspline"
       id="path-effect8"
       is_visible="true"
       lpeversion="1.3"
       weight="33.333333"
       steps="2"
       helper_size="0"
       apply_no_weight="true"
       apply_with_weight="true"
       only_selected="false"
       uniform="false" /><marker
       style="overflow:visible"
       id="marker5"
       refX="0"
       refY="0"
       orient="auto-start-reverse"
       inkscape:stockid="Wide, rounded arrow"
       markerWidth="1"
       markerHeight="1"
       viewBox="0 0 1 1"
       inkscape:isstock="true"
       inkscape:collect="always"
       preserveAspectRatio="xMidYMid"><path
         style="fill:none;stroke:context-stroke;stroke-width:1;stroke-linecap:round"
         d="M 3,-3 0,0 3,3"
         transform="rotate(180,0.125,0)"
         sodipodi:nodetypes="ccc"
         id="path5" /></marker><inkscape:path-effect
       effect="bspline"
       id="path-effect4"
       is_visible="true"
       lpeversion="1.3"
       weight="33.333333"
       steps="2"
       helper_size="0"
       apply_no_weight="true"
       apply_with_weight="true"
       only_selected="false"
       uniform="false" /><marker
       style="overflow:visible"
       id="ArrowWideRounded"
       refX="0"
       refY="0"
       orient="auto-start-reverse"
       inkscape:stockid="Wide, rounded arrow"
       markerWidth="1"
       markerHeight="1"
       viewBox="0 0 1 1"
       inkscape:isstock="true"
       inkscape:collect="always"
       preserveAspectRatio="xMidYMid"><path
         style="fill:none;stroke:context-stroke;stroke-width:1;stroke-linecap:round"
         d="M 3,-3 0,0 3,3"
         transform="rotate(180,0.125,0)"
         sodipodi:nodetypes="ccc"
         id="path2" /></marker><inkscape:path-effect
       effect="bspline"
       id="path-effect1"
       is_visible="true"
       lpeversion="1.3"
       weight="33.333333"
       steps="2"
       helper_size="0"
       apply_no_weight="true"
       apply_with_weight="true"
       only_selected="false"
       uniform="false" /></defs><g
     inkscape:label="Layer 1"
     inkscape:groupmode="layer"
     id="layer1"
     transform="translate(-55.444351,-89.193831)"><path
       style="fill:none;stroke:#000000;stroke-width:0.6;stroke-miterlimit:10;stroke-dasharray:none;marker-start:url(#marker5);marker-end:url(#ArrowWideRounded)"
       d="m 107.7527,198.46941 c 0,-39.46674 0,-78.93347 0,-118.400208"
       id="path1"
       inkscape:path-effect="#path-effect1"
       inkscape:original-d="m 107.7527,198.46941 c 0,-39.46674 0,-78.93347 0,-118.400208"
       transform="matrix(0.83108147,0,0,0.83108147,15.57045,23.371343)" /><path
       style="fill:none;stroke:#000000;stroke-width:0.6;stroke-miterlimit:10;stroke-dasharray:none;marker-start:url(#marker5);marker-end:url(#ArrowWideRounded)"
       d="m 107.7527,198.46941 c 0,-39.46674 0,-78.93347 0,-118.400208"
       id="path8"
       inkscape:path-effect="#path-effect10"
       inkscape:original-d="m 107.7527,198.46941 c 0,-39.46674 0,-78.93347 0,-118.400208"
       transform="matrix(0,0.83108147,-0.83108147,0,220.86586,49.56421)" /><circle
       style="opacity:1;fill:none;fill-opacity:1;stroke:#68ab6b;stroke-width:0.499999;stroke-miterlimit:10;stroke-dasharray:none;stroke-opacity:1"
       id="path59"
       cx="105.12172"
       cy="139.11548"
       r="26.902903" /><g
       transform="matrix(0.529167,0,0,0.529167,102.48096,108.80377)"
       ns1:version="1.10.2"
       ns1:texconverter="pdflatex"
       ns1:pdfconverter="inkscape"
       ns1:text="$\\iota$"
       ns1:preamble="/Users/sachchidanandprasad/Library/Application Support/org.inkscape.Inkscape/config/inkscape/extensions/textext/default_packages.tex"
       ns1:scale="1.5"
       ns1:alignment="middle center"
       ns1:stroke-to-path="0"
       ns1:inkscapeversion="1.4"
       ns1:jacobian_sqrt="0.529167"
       id="g34"><defs
   id="id-f695f379-7eb1-4f3c-b77b-458c31d88f38">
    <g
   id="id-177264f1-8e05-44c5-95fc-46e1670bff1f">
      <g
   id="id-65c42b3c-1578-4800-9bad-aa4f3ba5abce">
        <path
   d="M 2.03125,-4.8125 1.328125,-4.609375 C 1.28125,-3.9375 1.1875,-3.640625 1.140625,-3.453125 L 0.484375,-1.0625 C 0.484375,-1 0.46875,-0.96875 0.4375,-0.859375 0.375,-0.5625 0.359375,-0.4375 0.359375,-0.3125 c 0,0.25 0.109375,0.40625 0.296875,0.40625 0.34375,0 0.703125,-0.1875 1.484375,-0.828125 l 0.296875,-0.25 -0.09375,-0.1875 -0.453125,0.3125 C 1.59375,-0.640625 1.40625,-0.5625 1.28125,-0.5625 c -0.078125,0 -0.125,-0.078125 -0.125,-0.1875 0,-0.109375 0.015625,-0.1875 0.0625,-0.40625 L 2,-4.1875 C 2.03125,-4.34375 2.078125,-4.5 2.140625,-4.671875 Z m 0,0"
   id="id-641c3fdf-822c-4c79-8483-2819d9ed5ef4" />
      </g>
    </g>
  </defs>
  <g
   fill="#000000"
   fill-opacity="1"
   id="id-70b20c1a-ecc3-486d-9833-94afe967457f"
   transform="translate(-149.196,-129.952)">
    <g
   transform="translate(148.837,134.765)"
   id="g39"><path
   d="M 2.03125,-4.8125 1.328125,-4.609375 C 1.28125,-3.9375 1.1875,-3.640625 1.140625,-3.453125 L 0.484375,-1.0625 C 0.484375,-1 0.46875,-0.96875 0.4375,-0.859375 0.375,-0.5625 0.359375,-0.4375 0.359375,-0.3125 c 0,0.25 0.109375,0.40625 0.296875,0.40625 0.34375,0 0.703125,-0.1875 1.484375,-0.828125 l 0.296875,-0.25 -0.09375,-0.1875 -0.453125,0.3125 C 1.59375,-0.640625 1.40625,-0.5625 1.28125,-0.5625 c -0.078125,0 -0.125,-0.078125 -0.125,-0.1875 0,-0.109375 0.015625,-0.1875 0.0625,-0.40625 L 2,-4.1875 C 2.03125,-4.34375 2.078125,-4.5 2.140625,-4.671875 Z m 0,0"
   id="id-db0bc681-815a-4188-adf2-1504cd84e470" />
      </g></g>
</g><path
       style="opacity:1;fill:#000000;fill-opacity:1;stroke:#000000;stroke-width:0.5;stroke-miterlimit:10;stroke-dasharray:none;stroke-opacity:1"
       d="m 104.22172,139.85058 c 0.6,0 1.2,0 1.8,0"
       id="path45"
       inkscape:path-effect="#path-effect47"
       inkscape:original-d="m 104.22172,139.85058 c 0.6,0 1.2,0 1.8,0"
       transform="matrix(-1,0,0,1,210.24344,-27.638004)" /><path
       style="opacity:1;fill:#000000;fill-opacity:1;stroke:#000000;stroke-width:0.5;stroke-miterlimit:10;stroke-dasharray:none;stroke-opacity:1"
       d="m 104.22172,139.85058 c 0.6,0 1.2,0 1.8,0"
       id="path36"
       inkscape:path-effect="#path-effect36"
       inkscape:original-d="m 104.22172,139.85058 c 0.6,0 1.2,0 1.8,0"
       transform="matrix(0,1,1,0,-7.8259581,33.993762)" /><g
       transform="matrix(0.529167,0,0,0.529167,133.33933,140.62983)"
       ns1:version="1.10.2"
       ns1:texconverter="pdflatex"
       ns1:pdfconverter="inkscape"
       ns1:text="$1$"
       ns1:preamble="/Users/sachchidanandprasad/Library/Application Support/org.inkscape.Inkscape/config/inkscape/extensions/textext/default_packages.tex"
       ns1:scale="1.5"
       ns1:alignment="middle center"
       ns1:stroke-to-path="0"
       ns1:inkscapeversion="1.4"
       ns1:jacobian_sqrt="0.529167"
       id="g65"><defs
   id="id-9b14745a-bc8e-4854-bcbb-8724821c7717">
    <g
   id="id-81f5d511-70a6-4f6b-b9fc-3a1af807ce30">
      <g
   id="id-4848a231-9fe5-4596-bfc7-d2e4d6129a3a">
        <path
   d="m 0.671875,-5.53125 h 0.09375 l 1.28125,-0.578125 C 2.0625,-6.125 2.078125,-6.125 2.078125,-6.125 c 0.0625,0 0.078125,0.09375 0.078125,0.328125 v 4.84375 c 0,0.515625 -0.109375,0.625 -0.640625,0.65625 l -0.5625,0.03125 V 0.03125 C 2.5,0 2.5,0 2.609375,0 c 0.125,0 0.34375,0 0.6875,0.015625 0.109375,0 0.46875,0 0.875,0.015625 V -0.265625 L 3.65625,-0.296875 C 3.09375,-0.328125 3,-0.4375 3,-0.953125 V -6.875 L 2.859375,-6.921875 C 2.21875,-6.578125 1.5,-6.28125 0.59375,-5.96875 Z m 0,0"
   id="id-1a7b8f0b-23bd-4558-a2b4-5ea8dd567d8c" />
      </g>
    </g>
  </defs>
  <g
   fill="#000000"
   fill-opacity="1"
   id="id-0fd27356-b36f-4b85-8204-bcd9c85487e5"
   transform="translate(-149.306,-127.843)">
    <g
   transform="translate(148.712,134.765)"
   id="g64"><path
   d="m 0.671875,-5.53125 h 0.09375 l 1.28125,-0.578125 C 2.0625,-6.125 2.078125,-6.125 2.078125,-6.125 c 0.0625,0 0.078125,0.09375 0.078125,0.328125 v 4.84375 c 0,0.515625 -0.109375,0.625 -0.640625,0.65625 l -0.5625,0.03125 V 0.03125 C 2.5,0 2.5,0 2.609375,0 c 0.125,0 0.34375,0 0.6875,0.015625 0.109375,0 0.46875,0 0.875,0.015625 V -0.265625 L 3.65625,-0.296875 C 3.09375,-0.328125 3,-0.4375 3,-0.953125 V -6.875 L 2.859375,-6.921875 C 2.21875,-6.578125 1.5,-6.28125 0.59375,-5.96875 Z m 0,0"
   id="id-f88ba110-9ed7-4e8b-af6b-796e742db1ae" />
      </g></g>
</g></g></svg>
