<?xml version="1.0" encoding="UTF-8" standalone="no"?>
<!-- Created with Inkscape (http://www.inkscape.org/) -->

<svg
   width="98.687347mm"
   height="66.40818mm"
   viewBox="0 0 98.687349 66.408179"
   version="1.1"
   id="svg1"
   xml:space="preserve"
   inkscape:version="1.4 (e7c3feb1, 2024-10-09)"
   sodipodi:docname="prob-01-04-25_01.svg"
   xmlns:inkscape="http://www.inkscape.org/namespaces/inkscape"
   xmlns:sodipodi="http://sodipodi.sourceforge.net/DTD/sodipodi-0.dtd"
   xmlns="http://www.w3.org/2000/svg"
   xmlns:svg="http://www.w3.org/2000/svg"
   xmlns:ns4="http://www.iki.fi/pav/software/textext/"><sodipodi:namedview
     id="namedview1"
     pagecolor="#ffffff"
     bordercolor="#000000"
     borderopacity="0.25"
     inkscape:showpageshadow="2"
     inkscape:pageopacity="0.0"
     inkscape:pagecheckerboard="0"
     inkscape:deskcolor="#d1d1d1"
     inkscape:document-units="mm"
     showgrid="false"
     inkscape:zoom="1"
     inkscape:cx="337"
     inkscape:cy="83"
     inkscape:window-width="1512"
     inkscape:window-height="916"
     inkscape:window-x="0"
     inkscape:window-y="38"
     inkscape:window-maximized="0"
     inkscape:current-layer="layer1"><inkscape:grid
       id="grid8"
       units="mm"
       originx="-56.599743"
       originy="-122.64252"
       spacingx="0.99999998"
       spacingy="1"
       empcolor="#0099e5"
       empopacity="0.30196078"
       color="#0099e5"
       opacity="0.14901961"
       empspacing="5"
       enabled="true"
       visible="false" /></sodipodi:namedview><defs
     id="defs1"><marker
       style="overflow:visible"
       id="ArrowWide"
       refX="0"
       refY="0"
       orient="auto-start-reverse"
       inkscape:stockid="Wide arrow"
       markerWidth="1"
       markerHeight="1"
       viewBox="0 0 1 1"
       inkscape:isstock="true"
       inkscape:collect="always"
       preserveAspectRatio="xMidYMid"><path
         style="fill:none;stroke:context-stroke;stroke-width:1;stroke-linecap:butt"
         d="M 3,-3 0,0 3,3"
         transform="rotate(180,0.125,0)"
         sodipodi:nodetypes="ccc"
         id="path16" /></marker><inkscape:path-effect
       effect="bspline"
       id="path-effect15"
       is_visible="true"
       lpeversion="1.3"
       weight="33.333333"
       steps="2"
       helper_size="0"
       apply_no_weight="true"
       apply_with_weight="true"
       only_selected="false"
       uniform="false" /><inkscape:path-effect
       effect="bspline"
       id="path-effect6"
       is_visible="true"
       lpeversion="1.3"
       weight="33.333333"
       steps="2"
       helper_size="0"
       apply_no_weight="true"
       apply_with_weight="true"
       only_selected="false"
       uniform="false" /><inkscape:path-effect
       effect="bspline"
       id="path-effect5"
       is_visible="true"
       lpeversion="1.3"
       weight="33.333333"
       steps="2"
       helper_size="0"
       apply_no_weight="true"
       apply_with_weight="true"
       only_selected="false"
       uniform="false" /><inkscape:path-effect
       effect="circle_with_radius"
       id="path-effect3"
       is_visible="true"
       lpeversion="1" /><inkscape:path-effect
       effect="fillet_chamfer"
       id="path-effect19"
       is_visible="true"
       lpeversion="1"
       nodesatellites_param="F,0,0,1,0,0,0,1 @ F,0,0,1,0,0,0,1 @ F,0,0,1,0,0,0,1 @ F,0,0,1,0,0,0,1"
       radius="0"
       unit="px"
       method="auto"
       mode="F"
       chamfer_steps="1"
       flexible="false"
       use_knot_distance="true"
       apply_no_radius="true"
       apply_with_radius="true"
       only_selected="false"
       hide_knots="false" /><inkscape:path-effect
       effect="fillet_chamfer"
       id="path-effect18"
       is_visible="true"
       lpeversion="1"
       nodesatellites_param="F,0,0,1,0,0,0,1 @ F,0,0,1,0,0,0,1 @ F,0,0,1,0,0,0,1 @ F,0,0,1,0,0,0,1"
       radius="0"
       unit="px"
       method="auto"
       mode="F"
       chamfer_steps="1"
       flexible="false"
       use_knot_distance="true"
       apply_no_radius="true"
       apply_with_radius="true"
       only_selected="false"
       hide_knots="false" /><inkscape:path-effect
       effect="bspline"
       id="path-effect12"
       is_visible="true"
       lpeversion="1.3"
       weight="33.333333"
       steps="2"
       helper_size="0"
       apply_no_weight="true"
       apply_with_weight="true"
       only_selected="false"
       uniform="false" /><inkscape:path-effect
       effect="bspline"
       id="path-effect10"
       is_visible="true"
       lpeversion="1.3"
       weight="33.333333"
       steps="2"
       helper_size="0"
       apply_no_weight="true"
       apply_with_weight="true"
       only_selected="false"
       uniform="false" /><inkscape:path-effect
       effect="bspline"
       id="path-effect8"
       is_visible="true"
       lpeversion="1.3"
       weight="33.333333"
       steps="2"
       helper_size="0"
       apply_no_weight="true"
       apply_with_weight="true"
       only_selected="false"
       uniform="false" /><inkscape:path-effect
       effect="bspline"
       id="path-effect4"
       is_visible="true"
       lpeversion="1.3"
       weight="33.333333"
       steps="2"
       helper_size="0"
       apply_no_weight="true"
       apply_with_weight="true"
       only_selected="false"
       uniform="false" /><marker
       style="overflow:visible"
       id="ArrowWideRounded"
       refX="0"
       refY="0"
       orient="auto-start-reverse"
       inkscape:stockid="Wide, rounded arrow"
       markerWidth="1"
       markerHeight="1"
       viewBox="0 0 1 1"
       inkscape:isstock="true"
       inkscape:collect="always"
       preserveAspectRatio="xMidYMid"><path
         style="fill:none;stroke:context-stroke;stroke-width:1;stroke-linecap:round"
         d="M 3,-3 0,0 3,3"
         transform="rotate(180,0.125,0)"
         sodipodi:nodetypes="ccc"
         id="path2" /></marker><inkscape:path-effect
       effect="bspline"
       id="path-effect1"
       is_visible="true"
       lpeversion="1.3"
       weight="33.333333"
       steps="2"
       helper_size="0"
       apply_no_weight="true"
       apply_with_weight="true"
       only_selected="false"
       uniform="false" /></defs><g
     inkscape:label="Layer 1"
     inkscape:groupmode="layer"
     id="layer1"
     transform="translate(-56.5998, -122.643)"><path
       style="fill:#ff0000;fill-rule:evenodd;stroke:#0000ff;stroke-width:0.3;stroke-dasharray:none;stroke-dashoffset:0;marker-end:url(#ArrowWide)"
       d="m 125.61787,153.47622 c 5.67375,-3.8932 11.34749,-7.7864 17.02124,-11.67961"
       id="path15"
       inkscape:path-effect="#path-effect15"
       inkscape:original-d="m 125.61787,153.47622 c 5.67375,-3.8932 11.34749,-7.7864 17.02124,-11.67961"
       sodipodi:nodetypes="cc" /><path
       style="fill:none;stroke:#000000;stroke-width:0.360975;stroke-miterlimit:10;stroke-dasharray:none;marker-end:url(#ArrowWideRounded)"
       d="m 107.7527,198.46941 c 0,-26.52009 0,-53.04017 0,-79.56025"
       id="path1"
       inkscape:path-effect="#path-effect1"
       inkscape:original-d="m 107.7527,198.46941 c 0,-26.52009 0,-53.04017 0,-79.56025"
       transform="matrix(0.83108147,0,0,0.83108147,-17.504263,24.106449)"
       sodipodi:nodetypes="cc" /><path
       style="fill:none;stroke:#000000;stroke-width:0.360975;stroke-miterlimit:10;stroke-dasharray:none;marker-end:url(#ArrowWideRounded)"
       d="m 107.7527,198.46941 c 0,-39.46674 0,-78.93347 0,-118.400208"
       id="path8"
       inkscape:path-effect="#path-effect10"
       inkscape:original-d="m 107.7527,198.46941 c 0,-39.46674 0,-78.93347 0,-118.400208"
       transform="matrix(0,0.83108147,-0.83108147,0,221.54403,85.678887)" /><path
       style="fill:none;fill-opacity:1;fill-rule:nonzero;stroke:#0000ff;stroke-width:0.952722;stroke-dasharray:none"
       d="m 134.96436,139.61196 a 28.925672,28.925672 0 0 1 -57.851342,0 28.925672,28.925672 0 0 1 57.851342,0 z"
       id="path3"
       inkscape:path-effect="#path-effect3"
       inkscape:original-d="m 106.03869,139.61196 c 7.95022,-5.45528 15.90045,-10.91055 23.85067,-16.36582"
       transform="matrix(0.73473685,0,0,0.73473685,47.707335,50.898171)" /><path
       style="fill:none;fill-rule:evenodd;stroke:#000000;stroke-width:0.3;stroke-dasharray:0.9, 0.9;stroke-dashoffset:0"
       d="m 125.61787,139.61196 c -17.85695,0 -35.713908,0 -53.570861,0"
       id="path4"
       inkscape:path-effect="#path-effect5"
       inkscape:original-d="m 125.61787,139.61196 c -17.85695,0 -35.713908,0 -53.570861,0"
       transform="translate(-1.9312735e-6,14.014263)" /><path
       style="fill:none;fill-rule:evenodd;stroke:#000000;stroke-width:0.3;stroke-dasharray:0.9, 0.9;stroke-dashoffset:0"
       d="m 125.61787,153.47622 c 0,7.25131 0,14.50263 0,21.75394"
       id="path5"
       inkscape:path-effect="#path-effect6"
       inkscape:original-d="m 125.61787,153.47622 c 0,7.25131 0,14.50263 0,21.75394"
       sodipodi:nodetypes="cc" /><circle
       id="path6"
       style="fill:#ff0000;stroke:none;stroke-width:0.264583"
       cx="125.61786"
       cy="153.62622"
       r="0.70477766" /><g
       transform="matrix(0.37467921,0,0,0.37467921,127.02582,153.24497)"
       ns4:version="1.10.2"
       ns4:texconverter="pdflatex"
       ns4:pdfconverter="inkscape"
       ns4:text="$(5,3)$"
       ns4:preamble="/Users/sachchidanandprasad/Library/Application Support/org.inkscape.Inkscape/config/inkscape/extensions/textext/default_packages.tex"
       ns4:scale="1.4999999980930703"
       ns4:alignment="middle center"
       ns4:stroke-to-path="0"
       ns4:inkscapeversion="1.4"
       ns4:jacobian_sqrt="0.529167"
       id="g15"
       style="stroke-width:1.41232"><defs
   id="id-0f0aee09-cf64-4218-8acd-65e71a58d786">
    <g
   id="id-3d534257-c7c6-45bd-9dcd-bd51559a1033">
      <g
   id="id-0e3182f2-f1c1-4803-9923-1a2d2cfaa1df">
        <path
   d="m 3.4375,2.484375 c 0,-0.03125 0,-0.046875 -0.1875,-0.21875 C 1.953125,0.953125 1.625,-1 1.625,-2.59375 1.625,-4.40625 2.015625,-6.203125 3.296875,-7.5 3.4375,-7.625 3.4375,-7.640625 3.4375,-7.671875 3.4375,-7.75 3.390625,-7.78125 3.328125,-7.78125 c -0.09375,0 -1.03125,0.703125 -1.640625,2.015625 -0.53125,1.15625 -0.65625,2.296875 -0.65625,3.171875 0,0.8125 0.109375,2.0625 0.6875,3.234375 0.609375,1.28125 1.515625,1.953125 1.609375,1.953125 0.0625,0 0.109375,-0.03125 0.109375,-0.109375 z m 0,0"
   id="id-356a562c-31c5-48c9-af40-8c2f05762788" />
      </g>
      <g
   id="id-e8fd81b6-d553-4143-94ac-84f49b5d431c">
        <path
   d="m 3,-2.59375 c 0,-0.8125 -0.109375,-2.0625 -0.6875,-3.234375 -0.625,-1.28125 -1.515625,-1.953125 -1.625,-1.953125 -0.046875,0 -0.09375,0.046875 -0.09375,0.109375 0,0.03125 0,0.046875 0.1875,0.234375 1.03125,1.03125 1.609375,2.671875 1.609375,4.84375 0,1.78125 -0.375,3.59375 -1.671875,4.90625 -0.125,0.125 -0.125,0.140625 -0.125,0.171875 0,0.0625 0.046875,0.109375 0.09375,0.109375 0.109375,0 1.046875,-0.703125 1.65625,-2.015625 C 2.875,-0.578125 3,-1.71875 3,-2.59375 Z m 0,0"
   id="id-bca7181c-3300-4de5-aca6-befe6cf5779b" />
      </g>
      <g
   id="id-f5b640c1-9634-4568-ad22-1505e9462927">
        <path
   d="m 1.265625,-6.03125 c 1.28125,0.046875 1.84375,0.046875 3.046875,0.046875 L 4.359375,-6.03125 C 4.34375,-6.203125 4.34375,-6.296875 4.34375,-6.421875 c 0,-0.140625 0,-0.21875 0.015625,-0.390625 L 4.3125,-6.875 c -0.75,0.046875 -1.203125,0.0625 -1.734375,0.0625 -0.546875,0 -1,-0.015625 -1.734375,-0.0625 l -0.0625,0.0625 c 0.015625,0.609375 0.03125,1.046875 0.03125,1.359375 0,0.84375 -0.03125,1.796875 -0.0625,2.25 l 0.203125,0.046875 c 0.46875,-0.46875 0.734375,-0.609375 1.21875,-0.609375 0.953125,0 1.5625,0.6875 1.5625,1.765625 0,1.109375 -0.640625,1.75 -1.734375,1.75 -0.53125,0 -1.03125,-0.171875 -1.171875,-0.4375 L 0.375,-1.5 0.125,-1.359375 c 0.234375,0.5625 0.359375,0.875 0.5,1.3125 0.265625,0.15625 0.671875,0.25 1.09375,0.25 0.671875,0 1.375,-0.296875 1.9375,-0.765625 0.59375,-0.546875 0.921875,-1.21875 0.921875,-1.953125 0,-1.140625 -0.8125,-1.9375 -1.953125,-1.9375 -0.46875,0 -0.828125,0.140625 -1.453125,0.5 z m 0,0"
   id="id-5829f8bc-7ddb-404b-916a-e272a363ba64" />
      </g>
      <g
   id="id-861de761-9431-4af0-af20-82965baa7fa9">
        <path
   d="m 2.03125,-1.21875 c -0.265625,0.078125 -0.453125,0.140625 -0.96875,0.296875 -0.078125,0.75 -0.328125,1.40625 -0.90625,2.359375 l 0.140625,0.109375 0.40625,-0.1875 C 1.515625,0.3125 1.890625,-0.3125 2.171875,-1.09375 Z m 0,0"
   id="id-cc2c678f-d510-465c-943b-8f33397b0b6a" />
      </g>
      <g
   id="id-d6a0f4bf-d923-4c58-a91a-baa3339bfbfa">
        <path
   d="m 0.421875,-4.96875 h 0.3125 l 0.1875,-0.546875 c 0.109375,-0.34375 0.734375,-0.6875 1.25,-0.6875 0.65625,0 1.171875,0.53125 1.171875,1.15625 0,0.75 -0.578125,1.375 -1.296875,1.375 -0.078125,0 -0.1875,0 -0.3125,-0.015625 l -0.15625,-0.015625 -0.109375,0.53125 0.0625,0.0625 c 0.375,-0.171875 0.578125,-0.21875 0.84375,-0.21875 0.828125,0 1.296875,0.53125 1.296875,1.4375 0,1.015625 -0.59375,1.6875 -1.53125,1.6875 -0.453125,0 -0.859375,-0.15625 -1.15625,-0.4375 -0.25,-0.21875 -0.375,-0.453125 -0.5625,-0.984375 L 0.15625,-1.53125 C 0.359375,-0.921875 0.4375,-0.5625 0.5,-0.0625 1.03125,0.125 1.46875,0.203125 1.828125,0.203125 c 0.796875,0 1.71875,-0.453125 2.265625,-1.125 0.34375,-0.40625 0.515625,-0.84375 0.515625,-1.3125 0,-0.484375 -0.203125,-0.890625 -0.5625,-1.140625 -0.25,-0.1875 -0.484375,-0.265625 -0.96875,-0.359375 0.796875,-0.609375 1.09375,-1.078125 1.09375,-1.65625 0,-0.890625 -0.75,-1.484375 -1.84375,-1.484375 -0.6875,0 -1.125,0.203125 -1.609375,0.671875 z m 0,0"
   id="id-73399541-2101-4598-92a8-2135f742abd7" />
      </g>
    </g>
  </defs>
  <g
   fill="#000000"
   fill-opacity="1"
   id="id-c96f12e6-3891-4bae-9a80-db563cabaa28"
   transform="translate(-149.868,-126.984)"
   style="stroke-width:1.41232">
    <g
   transform="translate(148.837,134.765)"
   id="g10"
   style="stroke-width:1.41232"><path
   d="m 3.4375,2.484375 c 0,-0.03125 0,-0.046875 -0.1875,-0.21875 C 1.953125,0.953125 1.625,-1 1.625,-2.59375 1.625,-4.40625 2.015625,-6.203125 3.296875,-7.5 3.4375,-7.625 3.4375,-7.640625 3.4375,-7.671875 3.4375,-7.75 3.390625,-7.78125 3.328125,-7.78125 c -0.09375,0 -1.03125,0.703125 -1.640625,2.015625 -0.53125,1.15625 -0.65625,2.296875 -0.65625,3.171875 0,0.8125 0.109375,2.0625 0.6875,3.234375 0.609375,1.28125 1.515625,1.953125 1.609375,1.953125 0.0625,0 0.109375,-0.03125 0.109375,-0.109375 z m 0,0"
   id="id-d52efd86-cc2b-4849-bebc-7f597de51819"
   style="stroke-width:1.41232" />
      </g></g>
  <g
   fill="#000000"
   fill-opacity="1"
   id="id-7da1c83e-4ee4-47aa-ae38-728f8cb6d180"
   transform="translate(-149.868,-126.984)"
   style="stroke-width:1.41232">
    <g
   transform="translate(152.986,134.765)"
   id="g11"
   style="stroke-width:1.41232"><path
   d="m 1.265625,-6.03125 c 1.28125,0.046875 1.84375,0.046875 3.046875,0.046875 L 4.359375,-6.03125 C 4.34375,-6.203125 4.34375,-6.296875 4.34375,-6.421875 c 0,-0.140625 0,-0.21875 0.015625,-0.390625 L 4.3125,-6.875 c -0.75,0.046875 -1.203125,0.0625 -1.734375,0.0625 -0.546875,0 -1,-0.015625 -1.734375,-0.0625 l -0.0625,0.0625 c 0.015625,0.609375 0.03125,1.046875 0.03125,1.359375 0,0.84375 -0.03125,1.796875 -0.0625,2.25 l 0.203125,0.046875 c 0.46875,-0.46875 0.734375,-0.609375 1.21875,-0.609375 0.953125,0 1.5625,0.6875 1.5625,1.765625 0,1.109375 -0.640625,1.75 -1.734375,1.75 -0.53125,0 -1.03125,-0.171875 -1.171875,-0.4375 L 0.375,-1.5 0.125,-1.359375 c 0.234375,0.5625 0.359375,0.875 0.5,1.3125 0.265625,0.15625 0.671875,0.25 1.09375,0.25 0.671875,0 1.375,-0.296875 1.9375,-0.765625 0.59375,-0.546875 0.921875,-1.21875 0.921875,-1.953125 0,-1.140625 -0.8125,-1.9375 -1.953125,-1.9375 -0.46875,0 -0.828125,0.140625 -1.453125,0.5 z m 0,0"
   id="id-77ca73bd-002c-431e-9ec2-0344b7ba717f"
   style="stroke-width:1.41232" />
      </g><g
   transform="translate(157.967,134.765)"
   id="g12"
   style="stroke-width:1.41232"><path
   d="m 2.03125,-1.21875 c -0.265625,0.078125 -0.453125,0.140625 -0.96875,0.296875 -0.078125,0.75 -0.328125,1.40625 -0.90625,2.359375 l 0.140625,0.109375 0.40625,-0.1875 C 1.515625,0.3125 1.890625,-0.3125 2.171875,-1.09375 Z m 0,0"
   id="id-9fd22841-96b2-4d59-8eee-acd12f02f2e5"
   style="stroke-width:1.41232" />
      </g></g>
  <g
   fill="#000000"
   fill-opacity="1"
   id="id-5bf9eb0f-dd55-4011-94ff-c58401f0c436"
   transform="translate(-149.868,-126.984)"
   style="stroke-width:1.41232">
    <g
   transform="translate(162.122,134.765)"
   id="g13"
   style="stroke-width:1.41232"><path
   d="m 0.421875,-4.96875 h 0.3125 l 0.1875,-0.546875 c 0.109375,-0.34375 0.734375,-0.6875 1.25,-0.6875 0.65625,0 1.171875,0.53125 1.171875,1.15625 0,0.75 -0.578125,1.375 -1.296875,1.375 -0.078125,0 -0.1875,0 -0.3125,-0.015625 l -0.15625,-0.015625 -0.109375,0.53125 0.0625,0.0625 c 0.375,-0.171875 0.578125,-0.21875 0.84375,-0.21875 0.828125,0 1.296875,0.53125 1.296875,1.4375 0,1.015625 -0.59375,1.6875 -1.53125,1.6875 -0.453125,0 -0.859375,-0.15625 -1.15625,-0.4375 -0.25,-0.21875 -0.375,-0.453125 -0.5625,-0.984375 L 0.15625,-1.53125 C 0.359375,-0.921875 0.4375,-0.5625 0.5,-0.0625 1.03125,0.125 1.46875,0.203125 1.828125,0.203125 c 0.796875,0 1.71875,-0.453125 2.265625,-1.125 0.34375,-0.40625 0.515625,-0.84375 0.515625,-1.3125 0,-0.484375 -0.203125,-0.890625 -0.5625,-1.140625 -0.25,-0.1875 -0.484375,-0.265625 -0.96875,-0.359375 0.796875,-0.609375 1.09375,-1.078125 1.09375,-1.65625 0,-0.890625 -0.75,-1.484375 -1.84375,-1.484375 -0.6875,0 -1.125,0.203125 -1.609375,0.671875 z m 0,0"
   id="id-0909c307-022c-4050-abc5-0175f0ee5bb6"
   style="stroke-width:1.41232" />
      </g></g>
  <g
   fill="#000000"
   fill-opacity="1"
   id="id-bb9cd2db-66ac-4bd6-9624-8acd5a9a211f"
   transform="translate(-149.868,-126.984)"
   style="stroke-width:1.41232">
    <g
   transform="translate(167.225,134.765)"
   id="g14"
   style="stroke-width:1.41232"><path
   d="m 3,-2.59375 c 0,-0.8125 -0.109375,-2.0625 -0.6875,-3.234375 -0.625,-1.28125 -1.515625,-1.953125 -1.625,-1.953125 -0.046875,0 -0.09375,0.046875 -0.09375,0.109375 0,0.03125 0,0.046875 0.1875,0.234375 1.03125,1.03125 1.609375,2.671875 1.609375,4.84375 0,1.78125 -0.375,3.59375 -1.671875,4.90625 -0.125,0.125 -0.125,0.140625 -0.125,0.171875 0,0.0625 0.046875,0.109375 0.09375,0.109375 0.109375,0 1.046875,-0.703125 1.65625,-2.015625 C 2.875,-0.578125 3,-1.71875 3,-2.59375 Z m 0,0"
   id="id-cfe5473b-b0e0-4e24-827c-d86d3da434b7"
   style="stroke-width:1.41232" />
      </g></g>
</g><circle
       id="circle16"
       style="fill:#ff0000;stroke:none;stroke-width:0.264583"
       cx="143.14183"
       cy="141.45164"
       r="0.70477766" /><g
       transform="matrix(0.40237818,0,0,0.40237818,144.7052,139.69049)"
       ns4:version="1.10.2"
       ns4:texconverter="pdflatex"
       ns4:pdfconverter="inkscape"
       ns4:text="$P$"
       ns4:preamble="/Users/sachchidanandprasad/Library/Application Support/org.inkscape.Inkscape/config/inkscape/extensions/textext/default_packages.tex"
       ns4:scale="1.4999999980930703"
       ns4:alignment="middle center"
       ns4:stroke-to-path="0"
       ns4:inkscapeversion="1.4"
       ns4:jacobian_sqrt="0.529167"
       id="g17"
       style="stroke-width:1.3151;fill:#ff0000"><defs
   id="id-bb000a4e-8928-4fb3-90bb-5dd6b21a6e87">
    <g
   id="id-ed68c728-5397-4f55-860e-437d3de7633f">
      <g
   id="id-0059c8b3-57c6-4791-a44a-64556dcd7cba">
        <path
   d="m 1.046875,-6.625 0.546875,0.03125 c 0.234375,0 0.34375,0.078125 0.34375,0.265625 0,0.140625 -0.03125,0.453125 -0.078125,0.75 L 1.109375,-1.25 C 0.953125,-0.34375 0.9375,-0.3125 0.53125,-0.28125 L 0.125,-0.25 0.09375,0.03125 0.515625,0.015625 C 0.921875,0.015625 1.21875,0 1.40625,0 1.578125,0 1.859375,0.015625 2.265625,0.015625 L 2.796875,0.03125 2.828125,-0.25 2.171875,-0.28125 C 1.90625,-0.296875 1.8125,-0.375 1.8125,-0.578125 c 0,-0.09375 0.015625,-0.15625 0.046875,-0.34375 l 0.8125,-4.859375 c 0,-0.015625 0.046875,-0.203125 0.09375,-0.40625 0,-0.046875 0.03125,-0.140625 0.0625,-0.265625 0.359375,-0.0625 0.515625,-0.09375 0.703125,-0.09375 1.03125,0 1.515625,0.453125 1.515625,1.375 0,1.078125 -0.71875,1.953125 -1.59375,1.953125 -0.21875,0 -0.421875,-0.046875 -0.796875,-0.1875 l 0.03125,0.3125 C 3.046875,-2.921875 3.25,-2.875 3.53125,-2.875 c 1.296875,0 2.390625,-1.15625 2.390625,-2.515625 0,-1.015625 -0.625,-1.53125 -1.8125,-1.5 l -1.375,0.015625 -1.125,-0.015625 h -0.53125 z m 0,0"
   id="id-fa082468-9d82-44f9-bd26-6dc152245320" />
      </g>
    </g>
  </defs>
  <g
   fill="#000000"
   fill-opacity="1"
   id="id-6909681d-aa46-4bbb-8b92-45bc48308f9d"
   transform="translate(-149.13,-127.873)"
   style="stroke-width:1.3151;fill:#ff0000">
    <g
   transform="translate(149.036,134.765)"
   id="g16"
   style="stroke-width:1.3151;fill:#ff0000"><path
   d="m 1.046875,-6.625 0.546875,0.03125 c 0.234375,0 0.34375,0.078125 0.34375,0.265625 0,0.140625 -0.03125,0.453125 -0.078125,0.75 L 1.109375,-1.25 C 0.953125,-0.34375 0.9375,-0.3125 0.53125,-0.28125 L 0.125,-0.25 0.09375,0.03125 0.515625,0.015625 C 0.921875,0.015625 1.21875,0 1.40625,0 1.578125,0 1.859375,0.015625 2.265625,0.015625 L 2.796875,0.03125 2.828125,-0.25 2.171875,-0.28125 C 1.90625,-0.296875 1.8125,-0.375 1.8125,-0.578125 c 0,-0.09375 0.015625,-0.15625 0.046875,-0.34375 l 0.8125,-4.859375 c 0,-0.015625 0.046875,-0.203125 0.09375,-0.40625 0,-0.046875 0.03125,-0.140625 0.0625,-0.265625 0.359375,-0.0625 0.515625,-0.09375 0.703125,-0.09375 1.03125,0 1.515625,0.453125 1.515625,1.375 0,1.078125 -0.71875,1.953125 -1.59375,1.953125 -0.21875,0 -0.421875,-0.046875 -0.796875,-0.1875 l 0.03125,0.3125 C 3.046875,-2.921875 3.25,-2.875 3.53125,-2.875 c 1.296875,0 2.390625,-1.15625 2.390625,-2.515625 0,-1.015625 -0.625,-1.53125 -1.8125,-1.5 l -1.375,0.015625 -1.125,-0.015625 h -0.53125 z m 0,0"
   id="id-4a297f2e-f29a-45be-b46b-91dadc88d6ca"
   style="stroke-width:1.3151;fill:#ff0000" />
      </g></g>
</g></g></svg>
