<?xml version="1.0" encoding="UTF-8" standalone="no"?>
<!-- Created with Inkscape (http://www.inkscape.org/) -->

<svg
   width="162.67212mm"
   height="149.5029mm"
   viewBox="0 0 162.67212 149.50289"
   version="1.1"
   id="svg1"
   inkscape:version="1.3 (0e150ed, 2023-07-21)"
   sodipodi:docname="prob-17-09-24_01.svg"
   xmlns:inkscape="http://www.inkscape.org/namespaces/inkscape"
   xmlns:sodipodi="http://sodipodi.sourceforge.net/DTD/sodipodi-0.dtd"
   xmlns="http://www.w3.org/2000/svg"
   xmlns:svg="http://www.w3.org/2000/svg"
   xmlns:ns1="http://www.iki.fi/pav/software/textext/">
  <sodipodi:namedview
     id="namedview1"
     pagecolor="#ffffff"
     bordercolor="#000000"
     borderopacity="0.25"
     inkscape:showpageshadow="2"
     inkscape:pageopacity="0.0"
     inkscape:pagecheckerboard="0"
     inkscape:deskcolor="#d1d1d1"
     inkscape:document-units="mm"
     inkscape:zoom="1"
     inkscape:cx="361.5"
     inkscape:cy="369"
     inkscape:window-width="1496"
     inkscape:window-height="896"
     inkscape:window-x="0"
     inkscape:window-y="38"
     inkscape:window-maximized="0"
     inkscape:current-layer="layer1"
     showgrid="false" />
  <defs
     id="defs1">
    <marker
       style="overflow:visible"
       id="ArrowWide"
       refX="0"
       refY="0"
       orient="auto-start-reverse"
       inkscape:stockid="Wide arrow"
       markerWidth="1"
       markerHeight="1"
       viewBox="0 0 1 1"
       inkscape:isstock="true"
       inkscape:collect="always"
       preserveAspectRatio="xMidYMid">
      <path
         style="fill:none;stroke:context-stroke;stroke-width:1;stroke-linecap:butt"
         d="M 3,-3 0,0 3,3"
         transform="rotate(180,0.125,0)"
         sodipodi:nodetypes="ccc"
         id="path3" />
    </marker>
  </defs>
  <g
     inkscape:label="Layer 1"
     inkscape:groupmode="layer"
     id="layer1"
     transform="translate(-17.6736, -59.8565)">
    <path
       style="fill:#0000ff;fill-opacity:0;stroke:#666666;stroke-width:0.5;stroke-linecap:round;stroke-miterlimit:10;stroke-dasharray:none;marker-end:url(#ArrowWide)"
       d="M 98.892512,209.10943 V 60.335086"
       id="path1" />
    <path
       style="fill:#0000ff;fill-opacity:0;stroke:#666666;stroke-width:0.499999;stroke-linecap:round;stroke-miterlimit:10;stroke-dasharray:none;marker-end:url(#ArrowWide)"
       d="M 17.923639,134.73458 H 179.8672"
       id="path2" />
    <path
       style="fill:#0000ff;fill-opacity:0;stroke:#b3b3b3;stroke-width:0.4;stroke-linecap:round;stroke-miterlimit:10;stroke-dasharray:0.4, 1.2;stroke-dashoffset:0"
       d="M 120.85293,205.39153 V 64.005746"
       id="path4" />
    <path
       style="fill:#0000ff;fill-opacity:0;stroke:#b3b3b3;stroke-width:0.4;stroke-linecap:round;stroke-miterlimit:10;stroke-dasharray:0.4, 1.2;stroke-dashoffset:0"
       d="M 120.85293,205.39153 V 64.005746"
       id="path5" />
    <path
       style="fill:#0000ff;fill-opacity:0;stroke:#b3b3b3;stroke-width:0.4;stroke-linecap:round;stroke-miterlimit:10;stroke-dasharray:0.4, 1.2;stroke-dashoffset:0"
       d="M 141.33658,205.39153 V 64.005746"
       id="path13" />
    <path
       style="fill:#0000ff;fill-opacity:0;stroke:#b3b3b3;stroke-width:0.4;stroke-linecap:round;stroke-miterlimit:10;stroke-dasharray:0.4, 1.2;stroke-dashoffset:0"
       d="M 161.82023,205.39153 V 64.005746"
       id="path14" />
    <path
       style="fill:#0000ff;fill-opacity:0;stroke:#b3b3b3;stroke-width:0.4;stroke-linecap:round;stroke-miterlimit:10;stroke-dasharray:0.4, 1.2;stroke-dashoffset:0"
       d="M 35.964792,205.39153 V 64.005746"
       id="path18" />
    <path
       style="fill:#0000ff;fill-opacity:0;stroke:#b3b3b3;stroke-width:0.4;stroke-linecap:round;stroke-miterlimit:10;stroke-dasharray:0.4, 1.2;stroke-dashoffset:0"
       d="M 56.448442,205.39153 V 64.005746"
       id="path19" />
    <path
       style="fill:#0000ff;fill-opacity:0;stroke:#b3b3b3;stroke-width:0.4;stroke-linecap:round;stroke-miterlimit:10;stroke-dasharray:0.4, 1.2;stroke-dashoffset:0"
       d="M 76.932092,205.39153 V 64.005746"
       id="path20" />
    <path
       style="font-variation-settings:normal;opacity:1;vector-effect:none;fill:#0000ff;fill-opacity:0;stroke:#b3b3b3;stroke-width:0.4;stroke-linecap:round;stroke-linejoin:miter;stroke-miterlimit:10;stroke-dasharray:0.4, 1.2;stroke-dashoffset:0;stroke-opacity:1;-inkscape-stroke:none;stop-color:#000000;stop-opacity:1"
       d="M 26.419715,113.30332 H 171.27468"
       id="path21" />
    <path
       style="font-variation-settings:normal;opacity:1;vector-effect:none;fill:#0000ff;fill-opacity:0;stroke:#b3b3b3;stroke-width:0.4;stroke-linecap:round;stroke-linejoin:miter;stroke-miterlimit:10;stroke-dasharray:0.4, 1.2;stroke-dashoffset:0;stroke-opacity:1;-inkscape-stroke:none;stop-color:#000000;stop-opacity:1"
       d="M 26.419715,92.207412 H 171.27468"
       id="path22" />
    <path
       style="font-variation-settings:normal;opacity:1;vector-effect:none;fill:#0000ff;fill-opacity:0;stroke:#b3b3b3;stroke-width:0.4;stroke-linecap:round;stroke-linejoin:miter;stroke-miterlimit:10;stroke-dasharray:0.4, 1.2;stroke-dashoffset:0;stroke-opacity:1;-inkscape-stroke:none;stop-color:#000000;stop-opacity:1"
       d="M 26.419715,177.26175 H 171.27468"
       id="path23" />
    <path
       style="font-variation-settings:normal;opacity:1;vector-effect:none;fill:#0000ff;fill-opacity:0;stroke:#b3b3b3;stroke-width:0.4;stroke-linecap:round;stroke-linejoin:miter;stroke-miterlimit:10;stroke-dasharray:0.4, 1.2;stroke-dashoffset:0;stroke-opacity:1;-inkscape-stroke:none;stop-color:#000000;stop-opacity:1"
       d="M 26.419715,156.16584 H 171.27468"
       id="path24" />
    <circle
       style="fill:none;stroke:#0066ff;stroke-width:1;stroke-miterlimit:10;stroke-dasharray:none;-inkscape-stroke:none"
       id="path6"
       cx="98.892517"
       cy="134.73457"
       r="21.431259" />
    <path
       style="font-variation-settings:normal;opacity:1;vector-effect:none;fill:#0000ff;fill-opacity:0;stroke:#b3b3b3;stroke-width:0.4;stroke-linecap:round;stroke-linejoin:miter;stroke-miterlimit:10;stroke-dasharray:0.4, 1.2;stroke-dashoffset:0;stroke-opacity:1;-inkscape-stroke:none;stop-color:#000000;stop-opacity:1"
       d="M 26.419715,70.0987 H 171.27468"
       id="path7" />
    <path
       style="font-variation-settings:normal;opacity:1;vector-effect:none;fill:#0000ff;fill-opacity:0;stroke:#b3b3b3;stroke-width:0.4;stroke-linecap:round;stroke-linejoin:miter;stroke-miterlimit:10;stroke-dasharray:0.4, 1.2;stroke-dashoffset:0;stroke-opacity:1;-inkscape-stroke:none;stop-color:#000000;stop-opacity:1"
       d="M 26.419715,198.88066 H 171.27468"
       id="path8" />
    <circle
       id="path10"
       style="fill:#ff0000;stroke:none;stroke-width:0.264583"
       cx="141.13658"
       cy="134.79153"
       r="1.5" />
    <circle
       id="circle10"
       style="fill:#ff0000;stroke:none;stroke-width:0.264583"
       cx="56.648441"
       cy="134.79153"
       r="1.5" />
    <circle
       id="circle11"
       style="fill:#ff0000;stroke:none;stroke-width:0.264583"
       cx="98.7472"
       cy="70.098701"
       r="1.5" />
    <circle
       id="circle12"
       style="fill:#ff0000;stroke:none;stroke-width:0.264583"
       cx="98.892509"
       cy="198.88066"
       r="1.5" />
    <g
       transform="matrix(0.881945,0,0,0.881945,100.8875,71.913333)"
       ns1:version="1.9.0"
       ns1:texconverter="pdflatex"
       ns1:pdfconverter="inkscape"
       ns1:text="$3\\iota$"
       ns1:preamble="/Users/sachchidanandprasad/Library/Application Support/org.inkscape.Inkscape/config/inkscape/extensions/inkscapeMadeEasy/basicLatexPackages.tex"
       ns1:scale="2.5"
       ns1:alignment="middle center"
       ns1:stroke-to-path="0"
       ns1:inkscapeversion="1.3"
       id="g3568"
       ns1:jacobian_sqrt="0.881945">
      <defs
         id="id-bd2a3b43-9560-4ae9-bf17-22d02db2dbee">
        <g
           id="id-13594848-8b96-4b38-852d-3d14ab2da073">
          <g
             id="id-4ff6ab4e-5fd8-42b1-abb8-8467a67c5502">
            <path
               d="m 2.890625,-3.515625 c 0.8125,-0.265625 1.390625,-0.953125 1.390625,-1.75 0,-0.8125 -0.875,-1.375 -1.828125,-1.375 -1,0 -1.765625,0.59375 -1.765625,1.359375 0,0.328125 0.21875,0.515625 0.515625,0.515625 0.296875,0 0.5,-0.21875 0.5,-0.515625 0,-0.484375 -0.46875,-0.484375 -0.609375,-0.484375 0.296875,-0.5 0.953125,-0.625 1.3125,-0.625 0.421875,0 0.96875,0.21875 0.96875,1.109375 0,0.125 -0.03125,0.703125 -0.28125,1.140625 C 2.796875,-3.65625 2.453125,-3.625 2.203125,-3.625 2.125,-3.609375 1.890625,-3.59375 1.8125,-3.59375 c -0.078125,0.015625 -0.140625,0.03125 -0.140625,0.125 0,0.109375 0.0625,0.109375 0.234375,0.109375 h 0.4375 c 0.8125,0 1.1875,0.671875 1.1875,1.65625 0,1.359375 -0.6875,1.640625 -1.125,1.640625 -0.4375,0 -1.1875,-0.171875 -1.53125,-0.75 0.34375,0.046875 0.65625,-0.171875 0.65625,-0.546875 0,-0.359375 -0.265625,-0.5625 -0.546875,-0.5625 -0.25,0 -0.5625,0.140625 -0.5625,0.578125 0,0.90625 0.921875,1.5625 2.015625,1.5625 1.21875,0 2.125,-0.90625 2.125,-1.921875 0,-0.8125 -0.640625,-1.59375 -1.671875,-1.8125 z m 0,0"
               id="id-65f62b1d-daa8-4765-9354-aae019c39c8b" />
          </g>
          <g
             id="id-cac2d768-df5f-4727-80c5-a95c7b905387">
            <path
               d="m 3.234375,-1.421875 c 0,-0.109375 -0.09375,-0.109375 -0.125,-0.109375 -0.09375,0 -0.109375,0.046875 -0.125,0.109375 -0.3125,0.984375 -1.140625,1.3125 -1.5625,1.3125 -0.140625,0 -0.265625,-0.03125 -0.265625,-0.328125 0,-0.234375 0.078125,-0.46875 0.171875,-0.734375 C 1.78125,-2.375 2.1875,-4.0625 2.1875,-4.140625 2.1875,-4.3125 2.078125,-4.40625 1.90625,-4.40625 c -0.109375,0 -0.296875,0.0625 -0.375,0.265625 -0.0625,0.1875 -0.15625,0.671875 -0.21875,0.859375 -0.015625,0.046875 -0.265625,0.921875 -0.296875,1.0625 -0.03125,0.09375 -0.125,0.34375 -0.140625,0.4375 -0.078125,0.28125 -0.3125,0.75 -0.3125,1.078125 0,0.40625 0.28125,0.8125 0.828125,0.8125 1.140625,0 1.84375,-1.203125 1.84375,-1.53125 z m 0,0"
               id="id-57683141-89ce-491c-b8bc-120dfcd6a364" />
          </g>
        </g>
      </defs>
      <g
         fill="#000000"
         fill-opacity="1"
         id="id-01195f11-deff-46d3-af00-6029dea756d8"
         transform="translate(-149.134,-128.124)">
        <g
           transform="translate(148.712,134.765)"
           id="g875">
          <path
             d="m 2.890625,-3.515625 c 0.8125,-0.265625 1.390625,-0.953125 1.390625,-1.75 0,-0.8125 -0.875,-1.375 -1.828125,-1.375 -1,0 -1.765625,0.59375 -1.765625,1.359375 0,0.328125 0.21875,0.515625 0.515625,0.515625 0.296875,0 0.5,-0.21875 0.5,-0.515625 0,-0.484375 -0.46875,-0.484375 -0.609375,-0.484375 0.296875,-0.5 0.953125,-0.625 1.3125,-0.625 0.421875,0 0.96875,0.21875 0.96875,1.109375 0,0.125 -0.03125,0.703125 -0.28125,1.140625 C 2.796875,-3.65625 2.453125,-3.625 2.203125,-3.625 2.125,-3.609375 1.890625,-3.59375 1.8125,-3.59375 c -0.078125,0.015625 -0.140625,0.03125 -0.140625,0.125 0,0.109375 0.0625,0.109375 0.234375,0.109375 h 0.4375 c 0.8125,0 1.1875,0.671875 1.1875,1.65625 0,1.359375 -0.6875,1.640625 -1.125,1.640625 -0.4375,0 -1.1875,-0.171875 -1.53125,-0.75 0.34375,0.046875 0.65625,-0.171875 0.65625,-0.546875 0,-0.359375 -0.265625,-0.5625 -0.546875,-0.5625 -0.25,0 -0.5625,0.140625 -0.5625,0.578125 0,0.90625 0.921875,1.5625 2.015625,1.5625 1.21875,0 2.125,-0.90625 2.125,-1.921875 0,-0.8125 -0.640625,-1.59375 -1.671875,-1.8125 z m 0,0"
             id="id-de7778ba-41f2-4bde-89c2-dacae433c91b" />
        </g>
      </g>
      <g
         fill="#000000"
         fill-opacity="1"
         id="id-60ef8357-e4d9-4af9-af2f-a0b59d2291a1"
         transform="translate(-149.134,-128.124)">
        <g
           transform="translate(153.694,134.765)"
           id="g3148">
          <path
             d="m 3.234375,-1.421875 c 0,-0.109375 -0.09375,-0.109375 -0.125,-0.109375 -0.09375,0 -0.109375,0.046875 -0.125,0.109375 -0.3125,0.984375 -1.140625,1.3125 -1.5625,1.3125 -0.140625,0 -0.265625,-0.03125 -0.265625,-0.328125 0,-0.234375 0.078125,-0.46875 0.171875,-0.734375 C 1.78125,-2.375 2.1875,-4.0625 2.1875,-4.140625 2.1875,-4.3125 2.078125,-4.40625 1.90625,-4.40625 c -0.109375,0 -0.296875,0.0625 -0.375,0.265625 -0.0625,0.1875 -0.15625,0.671875 -0.21875,0.859375 -0.015625,0.046875 -0.265625,0.921875 -0.296875,1.0625 -0.03125,0.09375 -0.125,0.34375 -0.140625,0.4375 -0.078125,0.28125 -0.3125,0.75 -0.3125,1.078125 0,0.40625 0.28125,0.8125 0.828125,0.8125 1.140625,0 1.84375,-1.203125 1.84375,-1.53125 z m 0,0"
             id="id-e65e2ccb-b744-4e62-890c-ef28806371d7" />
        </g>
      </g>
    </g>
    <g
       transform="matrix(0.881945 0 0 0.881945 100.031 191.24)"
       ns1:version="1.9.0"
       ns1:texconverter="pdflatex"
       ns1:pdfconverter="inkscape"
       ns1:text="$-3\\iota$"
       ns1:preamble="/Users/sachchidanandprasad/Library/Application Support/org.inkscape.Inkscape/config/inkscape/extensions/inkscapeMadeEasy/basicLatexPackages.tex"
       ns1:scale="2.5"
       ns1:alignment="middle center"
       ns1:stroke-to-path="0"
       ns1:inkscapeversion="1.3"
       id="g27"
       ns1:jacobian_sqrt="0.881945">
      <defs
         id="id-f34c6a98-c238-4516-956b-024012303221">
        <g
           id="id-0cce8e1f-cad9-452c-974b-fd31bb395913">
          <g
             id="id-037df29c-87a6-4ae5-8cde-303b1adbf29e">
            <path
               d="m 6.5625,-2.296875 c 0.171875,0 0.359375,0 0.359375,-0.203125 0,-0.1875 -0.1875,-0.1875 -0.359375,-0.1875 H 1.171875 c -0.171875,0 -0.34375,0 -0.34375,0.1875 0,0.203125 0.171875,0.203125 0.34375,0.203125 z m 0,0"
               id="id-1c3c2d5e-1e2b-4c5d-808a-b6595dbd9c1d" />
          </g>
          <g
             id="id-58343696-5211-4681-a471-2433f94fdf15">
            <path
               d="m 2.890625,-3.515625 c 0.8125,-0.265625 1.390625,-0.953125 1.390625,-1.75 0,-0.8125 -0.875,-1.375 -1.828125,-1.375 -1,0 -1.765625,0.59375 -1.765625,1.359375 0,0.328125 0.21875,0.515625 0.515625,0.515625 0.296875,0 0.5,-0.21875 0.5,-0.515625 0,-0.484375 -0.46875,-0.484375 -0.609375,-0.484375 0.296875,-0.5 0.953125,-0.625 1.3125,-0.625 0.421875,0 0.96875,0.21875 0.96875,1.109375 0,0.125 -0.03125,0.703125 -0.28125,1.140625 C 2.796875,-3.65625 2.453125,-3.625 2.203125,-3.625 2.125,-3.609375 1.890625,-3.59375 1.8125,-3.59375 c -0.078125,0.015625 -0.140625,0.03125 -0.140625,0.125 0,0.109375 0.0625,0.109375 0.234375,0.109375 h 0.4375 c 0.8125,0 1.1875,0.671875 1.1875,1.65625 0,1.359375 -0.6875,1.640625 -1.125,1.640625 -0.4375,0 -1.1875,-0.171875 -1.53125,-0.75 0.34375,0.046875 0.65625,-0.171875 0.65625,-0.546875 0,-0.359375 -0.265625,-0.5625 -0.546875,-0.5625 -0.25,0 -0.5625,0.140625 -0.5625,0.578125 0,0.90625 0.921875,1.5625 2.015625,1.5625 1.21875,0 2.125,-0.90625 2.125,-1.921875 0,-0.8125 -0.640625,-1.59375 -1.671875,-1.8125 z m 0,0"
               id="id-0b488ff1-cc40-4c08-8e94-59716d9c4c78" />
          </g>
          <g
             id="id-2f168414-79ba-460a-b866-44dee6515dec">
            <path
               d="m 3.234375,-1.421875 c 0,-0.109375 -0.09375,-0.109375 -0.125,-0.109375 -0.09375,0 -0.109375,0.046875 -0.125,0.109375 -0.3125,0.984375 -1.140625,1.3125 -1.5625,1.3125 -0.140625,0 -0.265625,-0.03125 -0.265625,-0.328125 0,-0.234375 0.078125,-0.46875 0.171875,-0.734375 C 1.78125,-2.375 2.1875,-4.0625 2.1875,-4.140625 2.1875,-4.3125 2.078125,-4.40625 1.90625,-4.40625 c -0.109375,0 -0.296875,0.0625 -0.375,0.265625 -0.0625,0.1875 -0.15625,0.671875 -0.21875,0.859375 -0.015625,0.046875 -0.265625,0.921875 -0.296875,1.0625 -0.03125,0.09375 -0.125,0.34375 -0.140625,0.4375 -0.078125,0.28125 -0.3125,0.75 -0.3125,1.078125 0,0.40625 0.28125,0.8125 0.828125,0.8125 1.140625,0 1.84375,-1.203125 1.84375,-1.53125 z m 0,0"
               id="id-dcd86992-a4bb-473f-b7aa-d933505a5710" />
          </g>
        </g>
      </defs>
      <g
         fill="#000000"
         fill-opacity="1"
         id="id-c5754e4d-5476-4b51-924f-22533f418d1a"
         transform="translate(-149.54, -128.124)">
        <g
           transform="translate(148.712, 134.765)"
           id="g664">
          <path
             d="m 6.5625,-2.296875 c 0.171875,0 0.359375,0 0.359375,-0.203125 0,-0.1875 -0.1875,-0.1875 -0.359375,-0.1875 H 1.171875 c -0.171875,0 -0.34375,0 -0.34375,0.1875 0,0.203125 0.171875,0.203125 0.34375,0.203125 z m 0,0"
             id="id-9aec351c-ab73-4c23-bbdf-aaada9f8de32" />
        </g>
      </g>
      <g
         fill="#000000"
         fill-opacity="1"
         id="id-58276523-b89b-495e-9602-61537a03ee39"
         transform="translate(-149.54, -128.124)">
        <g
           transform="translate(156.461, 134.765)"
           id="g699">
          <path
             d="m 2.890625,-3.515625 c 0.8125,-0.265625 1.390625,-0.953125 1.390625,-1.75 0,-0.8125 -0.875,-1.375 -1.828125,-1.375 -1,0 -1.765625,0.59375 -1.765625,1.359375 0,0.328125 0.21875,0.515625 0.515625,0.515625 0.296875,0 0.5,-0.21875 0.5,-0.515625 0,-0.484375 -0.46875,-0.484375 -0.609375,-0.484375 0.296875,-0.5 0.953125,-0.625 1.3125,-0.625 0.421875,0 0.96875,0.21875 0.96875,1.109375 0,0.125 -0.03125,0.703125 -0.28125,1.140625 C 2.796875,-3.65625 2.453125,-3.625 2.203125,-3.625 2.125,-3.609375 1.890625,-3.59375 1.8125,-3.59375 c -0.078125,0.015625 -0.140625,0.03125 -0.140625,0.125 0,0.109375 0.0625,0.109375 0.234375,0.109375 h 0.4375 c 0.8125,0 1.1875,0.671875 1.1875,1.65625 0,1.359375 -0.6875,1.640625 -1.125,1.640625 -0.4375,0 -1.1875,-0.171875 -1.53125,-0.75 0.34375,0.046875 0.65625,-0.171875 0.65625,-0.546875 0,-0.359375 -0.265625,-0.5625 -0.546875,-0.5625 -0.25,0 -0.5625,0.140625 -0.5625,0.578125 0,0.90625 0.921875,1.5625 2.015625,1.5625 1.21875,0 2.125,-0.90625 2.125,-1.921875 0,-0.8125 -0.640625,-1.59375 -1.671875,-1.8125 z m 0,0"
             id="id-decdfc91-b0ff-45e7-a774-5602ed684352" />
        </g>
      </g>
      <g
         fill="#000000"
         fill-opacity="1"
         id="id-89e9ae4f-62e1-48fc-b768-1457832a1076"
         transform="translate(-149.54, -128.124)">
        <g
           transform="translate(161.442, 134.765)"
           id="g5386">
          <path
             d="m 3.234375,-1.421875 c 0,-0.109375 -0.09375,-0.109375 -0.125,-0.109375 -0.09375,0 -0.109375,0.046875 -0.125,0.109375 -0.3125,0.984375 -1.140625,1.3125 -1.5625,1.3125 -0.140625,0 -0.265625,-0.03125 -0.265625,-0.328125 0,-0.234375 0.078125,-0.46875 0.171875,-0.734375 C 1.78125,-2.375 2.1875,-4.0625 2.1875,-4.140625 2.1875,-4.3125 2.078125,-4.40625 1.90625,-4.40625 c -0.109375,0 -0.296875,0.0625 -0.375,0.265625 -0.0625,0.1875 -0.15625,0.671875 -0.21875,0.859375 -0.015625,0.046875 -0.265625,0.921875 -0.296875,1.0625 -0.03125,0.09375 -0.125,0.34375 -0.140625,0.4375 -0.078125,0.28125 -0.3125,0.75 -0.3125,1.078125 0,0.40625 0.28125,0.8125 0.828125,0.8125 1.140625,0 1.84375,-1.203125 1.84375,-1.53125 z m 0,0"
             id="id-f030dd13-8483-4c75-9fe8-01942ccbee41" />
        </g>
      </g>
    </g>
    <g
       transform="matrix(0.881945,0,0,0.881945,143.58492,136.83258)"
       ns1:version="1.9.0"
       ns1:texconverter="pdflatex"
       ns1:pdfconverter="inkscape"
       ns1:text="$2$"
       ns1:preamble="/Users/sachchidanandprasad/Library/Application Support/org.inkscape.Inkscape/config/inkscape/extensions/inkscapeMadeEasy/basicLatexPackages.tex"
       ns1:scale="2.5"
       ns1:alignment="middle center"
       ns1:stroke-to-path="0"
       ns1:inkscapeversion="1.3"
       id="g7699"
       ns1:jacobian_sqrt="0.881945">
      <defs
         id="id-e9bd5fc7-f2a3-4983-b673-d212a4a1e08a">
        <g
           id="id-1ad2d0d5-e422-40a8-8f01-0f39cec586ed">
          <g
             id="id-9bff2545-0b01-4870-8a5b-ad6761113714">
            <path
               d="m 1.265625,-0.765625 1.0625,-1.03125 c 1.546875,-1.375 2.140625,-1.90625 2.140625,-2.90625 0,-1.140625 -0.890625,-1.9375 -2.109375,-1.9375 -1.125,0 -1.859375,0.921875 -1.859375,1.8125 0,0.546875 0.5,0.546875 0.53125,0.546875 0.171875,0 0.515625,-0.109375 0.515625,-0.53125 0,-0.25 -0.1875,-0.515625 -0.53125,-0.515625 -0.078125,0 -0.09375,0 -0.125,0.015625 0.21875,-0.65625 0.765625,-1.015625 1.34375,-1.015625 0.90625,0 1.328125,0.8125 1.328125,1.625 C 3.5625,-3.90625 3.078125,-3.125 2.515625,-2.5 l -1.90625,2.125 C 0.5,-0.265625 0.5,-0.234375 0.5,0 H 4.203125 L 4.46875,-1.734375 H 4.234375 C 4.171875,-1.4375 4.109375,-1 4,-0.84375 3.9375,-0.765625 3.28125,-0.765625 3.0625,-0.765625 Z m 0,0"
               id="id-41cb35db-5083-4b90-a5a9-7a7d9c627e7c" />
          </g>
        </g>
      </defs>
      <g
         fill="#000000"
         fill-opacity="1"
         id="id-f6785bbf-8d78-4f0b-bd51-b73a05d56db0"
         transform="translate(-149.212,-128.124)">
        <g
           transform="translate(148.712,134.765)"
           id="g1613">
          <path
             d="m 1.265625,-0.765625 1.0625,-1.03125 c 1.546875,-1.375 2.140625,-1.90625 2.140625,-2.90625 0,-1.140625 -0.890625,-1.9375 -2.109375,-1.9375 -1.125,0 -1.859375,0.921875 -1.859375,1.8125 0,0.546875 0.5,0.546875 0.53125,0.546875 0.171875,0 0.515625,-0.109375 0.515625,-0.53125 0,-0.25 -0.1875,-0.515625 -0.53125,-0.515625 -0.078125,0 -0.09375,0 -0.125,0.015625 0.21875,-0.65625 0.765625,-1.015625 1.34375,-1.015625 0.90625,0 1.328125,0.8125 1.328125,1.625 C 3.5625,-3.90625 3.078125,-3.125 2.515625,-2.5 l -1.90625,2.125 C 0.5,-0.265625 0.5,-0.234375 0.5,0 H 4.203125 L 4.46875,-1.734375 H 4.234375 C 4.171875,-1.4375 4.109375,-1 4,-0.84375 3.9375,-0.765625 3.28125,-0.765625 3.0625,-0.765625 Z m 0,0"
             id="id-d7ccc81c-5edd-48eb-af05-f9d7d6c9f0bf" />
        </g>
      </g>
    </g>
    <g
       transform="matrix(0.881945,0,0,0.881945,43.474998,137.097)"
       ns1:version="1.9.0"
       ns1:texconverter="pdflatex"
       ns1:pdfconverter="inkscape"
       ns1:text="$-2$"
       ns1:preamble="/Users/sachchidanandprasad/Library/Application Support/org.inkscape.Inkscape/config/inkscape/extensions/inkscapeMadeEasy/basicLatexPackages.tex"
       ns1:scale="2.5"
       ns1:alignment="middle center"
       ns1:stroke-to-path="0"
       ns1:inkscapeversion="1.3"
       id="g32"
       ns1:jacobian_sqrt="0.881945">
      <defs
         id="id-f1969089-6562-4270-8edb-482ea7a15669">
        <g
           id="id-86cb179a-1511-4a41-b6b6-fbc5ed8d1749">
          <g
             id="id-2dae6933-6020-425a-b343-288c5fef40a3">
            <path
               d="m 6.5625,-2.296875 c 0.171875,0 0.359375,0 0.359375,-0.203125 0,-0.1875 -0.1875,-0.1875 -0.359375,-0.1875 H 1.171875 c -0.171875,0 -0.34375,0 -0.34375,0.1875 0,0.203125 0.171875,0.203125 0.34375,0.203125 z m 0,0"
               id="id-147b8a87-688b-4e5e-9c6b-0079de565960" />
          </g>
          <g
             id="id-bd080228-a819-4531-8a9a-d33f2d18b33f">
            <path
               d="m 1.265625,-0.765625 1.0625,-1.03125 c 1.546875,-1.375 2.140625,-1.90625 2.140625,-2.90625 0,-1.140625 -0.890625,-1.9375 -2.109375,-1.9375 -1.125,0 -1.859375,0.921875 -1.859375,1.8125 0,0.546875 0.5,0.546875 0.53125,0.546875 0.171875,0 0.515625,-0.109375 0.515625,-0.53125 0,-0.25 -0.1875,-0.515625 -0.53125,-0.515625 -0.078125,0 -0.09375,0 -0.125,0.015625 0.21875,-0.65625 0.765625,-1.015625 1.34375,-1.015625 0.90625,0 1.328125,0.8125 1.328125,1.625 C 3.5625,-3.90625 3.078125,-3.125 2.515625,-2.5 l -1.90625,2.125 C 0.5,-0.265625 0.5,-0.234375 0.5,0 H 4.203125 L 4.46875,-1.734375 H 4.234375 C 4.171875,-1.4375 4.109375,-1 4,-0.84375 3.9375,-0.765625 3.28125,-0.765625 3.0625,-0.765625 Z m 0,0"
               id="id-032e8341-d42a-4174-93d6-47003e60752f" />
          </g>
        </g>
      </defs>
      <g
         fill="#000000"
         fill-opacity="1"
         id="id-a9a1e8af-e03f-4d69-8331-6e828993a3b6"
         transform="translate(-149.54,-128.124)">
        <g
           transform="translate(148.712,134.765)"
           id="g5545">
          <path
             d="m 6.5625,-2.296875 c 0.171875,0 0.359375,0 0.359375,-0.203125 0,-0.1875 -0.1875,-0.1875 -0.359375,-0.1875 H 1.171875 c -0.171875,0 -0.34375,0 -0.34375,0.1875 0,0.203125 0.171875,0.203125 0.34375,0.203125 z m 0,0"
             id="id-44320399-6fed-4656-a333-c709b29f78f5" />
        </g>
      </g>
      <g
         fill="#000000"
         fill-opacity="1"
         id="id-31de5466-2321-460d-87e1-a352ea692dfd"
         transform="translate(-149.54,-128.124)">
        <g
           transform="translate(156.461,134.765)"
           id="g7469">
          <path
             d="m 1.265625,-0.765625 1.0625,-1.03125 c 1.546875,-1.375 2.140625,-1.90625 2.140625,-2.90625 0,-1.140625 -0.890625,-1.9375 -2.109375,-1.9375 -1.125,0 -1.859375,0.921875 -1.859375,1.8125 0,0.546875 0.5,0.546875 0.53125,0.546875 0.171875,0 0.515625,-0.109375 0.515625,-0.53125 0,-0.25 -0.1875,-0.515625 -0.53125,-0.515625 -0.078125,0 -0.09375,0 -0.125,0.015625 0.21875,-0.65625 0.765625,-1.015625 1.34375,-1.015625 0.90625,0 1.328125,0.8125 1.328125,1.625 C 3.5625,-3.90625 3.078125,-3.125 2.515625,-2.5 l -1.90625,2.125 C 0.5,-0.265625 0.5,-0.234375 0.5,0 H 4.203125 L 4.46875,-1.734375 H 4.234375 C 4.171875,-1.4375 4.109375,-1 4,-0.84375 3.9375,-0.765625 3.28125,-0.765625 3.0625,-0.765625 Z m 0,0"
             id="id-cc57bfc7-7ffb-4145-aa8d-b38f22cf7ebf" />
        </g>
      </g>
    </g>
    <g
       transform="matrix(0.881945,0,0,0.881945,107.81708,102.02025)"
       ns1:version="1.9.0"
       ns1:texconverter="pdflatex"
       ns1:pdfconverter="inkscape"
       ns1:text="$\\vert z \\vert = 1$"
       ns1:preamble="/Users/sachchidanandprasad/Library/Application Support/org.inkscape.Inkscape/config/inkscape/extensions/inkscapeMadeEasy/basicLatexPackages.tex"
       ns1:scale="2.5"
       ns1:alignment="middle center"
       ns1:stroke-to-path="0"
       ns1:inkscapeversion="1.3"
       id="g1526"
       ns1:jacobian_sqrt="0.881945">
      <defs
         id="id-ec3c04bc-de4f-4285-872a-1688e92bc0d0">
        <g
           id="id-de083f96-0a57-4305-8059-3df6c49c7d03">
          <g
             id="id-cc26faf0-451b-4ec6-9513-a530e0827c5e">
            <path
               d="m 1.578125,-7.125 c 0,-0.171875 0,-0.359375 -0.1875,-0.359375 -0.203125,0 -0.203125,0.1875 -0.203125,0.359375 v 9.265625 c 0,0.171875 0,0.359375 0.203125,0.359375 0.1875,0 0.1875,-0.1875 0.1875,-0.359375 z m 0,0"
               id="id-c020df24-7a32-44ea-a276-cb3de31ffb90" />
          </g>
          <g
             id="id-7cd12a22-5ae5-4a65-9b75-610f7ebb9aa6">
            <path
               d="m 1.328125,-0.828125 c 0.53125,-0.578125 0.828125,-0.828125 1.1875,-1.140625 0,0 0.609375,-0.53125 0.96875,-0.890625 C 4.4375,-3.78125 4.65625,-4.265625 4.65625,-4.3125 c 0,-0.09375 -0.09375,-0.09375 -0.109375,-0.09375 -0.078125,0 -0.09375,0.015625 -0.15625,0.109375 -0.296875,0.484375 -0.5,0.640625 -0.734375,0.640625 -0.25,0 -0.359375,-0.15625 -0.515625,-0.328125 -0.1875,-0.21875 -0.359375,-0.421875 -0.6875,-0.421875 -0.75,0 -1.203125,0.921875 -1.203125,1.140625 0,0.046875 0.03125,0.109375 0.109375,0.109375 0.09375,0 0.109375,-0.046875 0.140625,-0.109375 0.1875,-0.46875 0.765625,-0.46875 0.84375,-0.46875 0.203125,0 0.390625,0.0625 0.625,0.140625 0.40625,0.15625 0.515625,0.15625 0.765625,0.15625 -0.359375,0.421875 -1.1875,1.140625 -1.375,1.296875 l -0.90625,0.84375 C 0.78125,-0.625 0.421875,-0.0625 0.421875,0.015625 c 0,0.09375 0.109375,0.09375 0.125,0.09375 0.078125,0 0.09375,-0.015625 0.15625,-0.125 0.234375,-0.359375 0.53125,-0.625 0.859375,-0.625 0.21875,0 0.328125,0.09375 0.578125,0.375 0.15625,0.21875 0.34375,0.375 0.625,0.375 1,0 1.578125,-1.265625 1.578125,-1.53125 0,-0.046875 -0.046875,-0.109375 -0.125,-0.109375 -0.09375,0 -0.109375,0.0625 -0.140625,0.140625 C 3.84375,-0.75 3.203125,-0.5625 2.875,-0.5625 c -0.1875,0 -0.375,-0.0625 -0.578125,-0.125 -0.34375,-0.125 -0.5,-0.171875 -0.703125,-0.171875 -0.015625,0 -0.171875,0 -0.265625,0.03125 z m 0,0"
               id="id-f6f72053-0876-43af-bd96-cec5c45912cf" />
          </g>
          <g
             id="id-41299af3-0042-48ee-812b-fac018c114d8">
            <path
               d="m 6.84375,-3.265625 c 0.15625,0 0.34375,0 0.34375,-0.1875 C 7.1875,-3.65625 7,-3.65625 6.859375,-3.65625 h -5.96875 c -0.140625,0 -0.328125,0 -0.328125,0.203125 0,0.1875 0.1875,0.1875 0.328125,0.1875 z m 0.015625,1.9375 c 0.140625,0 0.328125,0 0.328125,-0.203125 0,-0.1875 -0.1875,-0.1875 -0.34375,-0.1875 H 0.890625 c -0.140625,0 -0.328125,0 -0.328125,0.1875 0,0.203125 0.1875,0.203125 0.328125,0.203125 z m 0,0"
               id="id-6b9c1c72-eff0-4bf9-83c8-6048b82ae9fd" />
          </g>
          <g
             id="id-39f22c1d-b303-47f3-ab7e-718c33248760">
            <path
               d="m 2.9375,-6.375 c 0,-0.25 0,-0.265625 -0.234375,-0.265625 C 2.078125,-6 1.203125,-6 0.890625,-6 v 0.3125 c 0.203125,0 0.78125,0 1.296875,-0.265625 v 5.171875 c 0,0.359375 -0.03125,0.46875 -0.921875,0.46875 h -0.3125 V 0 c 0.34375,-0.03125 1.203125,-0.03125 1.609375,-0.03125 0.390625,0 1.265625,0 1.609375,0.03125 v -0.3125 h -0.3125 c -0.90625,0 -0.921875,-0.109375 -0.921875,-0.46875 z m 0,0"
               id="id-37caff38-0645-4d9a-bf0c-88e802ff6900" />
          </g>
        </g>
      </defs>
      <g
         fill="#000000"
         fill-opacity="1"
         id="id-bdbe6fe1-e485-4c32-aee4-78815aeebcc4"
         transform="translate(-149.9,-127.281)">
        <g
           transform="translate(148.712,134.765)"
           id="g7791">
          <path
             d="m 1.578125,-7.125 c 0,-0.171875 0,-0.359375 -0.1875,-0.359375 -0.203125,0 -0.203125,0.1875 -0.203125,0.359375 v 9.265625 c 0,0.171875 0,0.359375 0.203125,0.359375 0.1875,0 0.1875,-0.1875 0.1875,-0.359375 z m 0,0"
             id="id-9d95cf17-2af2-4406-83bf-0d70898e9c59" />
        </g>
      </g>
      <g
         fill="#000000"
         fill-opacity="1"
         id="id-2bdc0824-fb4d-4795-850a-b81feb0acf16"
         transform="translate(-149.9,-127.281)">
        <g
           transform="translate(151.48,134.765)"
           id="g6285">
          <path
             d="m 1.328125,-0.828125 c 0.53125,-0.578125 0.828125,-0.828125 1.1875,-1.140625 0,0 0.609375,-0.53125 0.96875,-0.890625 C 4.4375,-3.78125 4.65625,-4.265625 4.65625,-4.3125 c 0,-0.09375 -0.09375,-0.09375 -0.109375,-0.09375 -0.078125,0 -0.09375,0.015625 -0.15625,0.109375 -0.296875,0.484375 -0.5,0.640625 -0.734375,0.640625 -0.25,0 -0.359375,-0.15625 -0.515625,-0.328125 -0.1875,-0.21875 -0.359375,-0.421875 -0.6875,-0.421875 -0.75,0 -1.203125,0.921875 -1.203125,1.140625 0,0.046875 0.03125,0.109375 0.109375,0.109375 0.09375,0 0.109375,-0.046875 0.140625,-0.109375 0.1875,-0.46875 0.765625,-0.46875 0.84375,-0.46875 0.203125,0 0.390625,0.0625 0.625,0.140625 0.40625,0.15625 0.515625,0.15625 0.765625,0.15625 -0.359375,0.421875 -1.1875,1.140625 -1.375,1.296875 l -0.90625,0.84375 C 0.78125,-0.625 0.421875,-0.0625 0.421875,0.015625 c 0,0.09375 0.109375,0.09375 0.125,0.09375 0.078125,0 0.09375,-0.015625 0.15625,-0.125 0.234375,-0.359375 0.53125,-0.625 0.859375,-0.625 0.21875,0 0.328125,0.09375 0.578125,0.375 0.15625,0.21875 0.34375,0.375 0.625,0.375 1,0 1.578125,-1.265625 1.578125,-1.53125 0,-0.046875 -0.046875,-0.109375 -0.125,-0.109375 -0.09375,0 -0.109375,0.0625 -0.140625,0.140625 C 3.84375,-0.75 3.203125,-0.5625 2.875,-0.5625 c -0.1875,0 -0.375,-0.0625 -0.578125,-0.125 -0.34375,-0.125 -0.5,-0.171875 -0.703125,-0.171875 -0.015625,0 -0.171875,0 -0.265625,0.03125 z m 0,0"
             id="id-1c3f1e84-1737-4311-a5ea-f6c206d13eac" />
        </g>
      </g>
      <g
         fill="#000000"
         fill-opacity="1"
         id="id-1e6d00bd-cd7f-4b57-b897-5986c558cf78"
         transform="translate(-149.9,-127.281)">
        <g
           transform="translate(156.551,134.765)"
           id="g4518">
          <path
             d="m 1.578125,-7.125 c 0,-0.171875 0,-0.359375 -0.1875,-0.359375 -0.203125,0 -0.203125,0.1875 -0.203125,0.359375 v 9.265625 c 0,0.171875 0,0.359375 0.203125,0.359375 0.1875,0 0.1875,-0.1875 0.1875,-0.359375 z m 0,0"
             id="id-dd41a433-b09b-4731-b6e9-c7408c481903" />
        </g>
      </g>
      <g
         fill="#000000"
         fill-opacity="1"
         id="id-8127e232-4323-4cd2-8427-d2a403718831"
         transform="translate(-149.9,-127.281)">
        <g
           transform="translate(162.086,134.765)"
           id="g2427">
          <path
             d="m 6.84375,-3.265625 c 0.15625,0 0.34375,0 0.34375,-0.1875 C 7.1875,-3.65625 7,-3.65625 6.859375,-3.65625 h -5.96875 c -0.140625,0 -0.328125,0 -0.328125,0.203125 0,0.1875 0.1875,0.1875 0.328125,0.1875 z m 0.015625,1.9375 c 0.140625,0 0.328125,0 0.328125,-0.203125 0,-0.1875 -0.1875,-0.1875 -0.34375,-0.1875 H 0.890625 c -0.140625,0 -0.328125,0 -0.328125,0.1875 0,0.203125 0.1875,0.203125 0.328125,0.203125 z m 0,0"
             id="id-a3d6e99f-c525-4509-adaa-c86a723ddb43" />
        </g>
      </g>
      <g
         fill="#000000"
         fill-opacity="1"
         id="id-b33a7b76-cf63-4fd8-8ff3-a4df6fb79bcf"
         transform="translate(-149.9,-127.281)">
        <g
           transform="translate(172.605,134.765)"
           id="g5414">
          <path
             d="m 2.9375,-6.375 c 0,-0.25 0,-0.265625 -0.234375,-0.265625 C 2.078125,-6 1.203125,-6 0.890625,-6 v 0.3125 c 0.203125,0 0.78125,0 1.296875,-0.265625 v 5.171875 c 0,0.359375 -0.03125,0.46875 -0.921875,0.46875 h -0.3125 V 0 c 0.34375,-0.03125 1.203125,-0.03125 1.609375,-0.03125 0.390625,0 1.265625,0 1.609375,0.03125 v -0.3125 h -0.3125 c -0.90625,0 -0.921875,-0.109375 -0.921875,-0.46875 z m 0,0"
             id="id-063aee7c-9d70-494d-b668-114c0726927b" />
        </g>
      </g>
    </g>
  </g>
</svg>
