<?xml version="1.0" encoding="UTF-8" standalone="no"?>
<!-- Created with Inkscape (http://www.inkscape.org/) -->

<svg
   width="168.39865mm"
   height="162.22499mm"
   viewBox="0 0 168.39865 162.22499"
   version="1.1"
   id="svg5"
   sodipodi:docname="prob-15-04-23_01.svg"
   inkscape:version="1.2.2 (1:1.2.2+202212051552+b0a8486541)"
   xmlns:inkscape="http://www.inkscape.org/namespaces/inkscape"
   xmlns:sodipodi="http://sodipodi.sourceforge.net/DTD/sodipodi-0.dtd"
   xmlns="http://www.w3.org/2000/svg"
   xmlns:svg="http://www.w3.org/2000/svg">
  <sodipodi:namedview
     id="namedview7"
     pagecolor="#ffffff"
     bordercolor="#999999"
     borderopacity="1"
     inkscape:showpageshadow="0"
     inkscape:pageopacity="0"
     inkscape:pagecheckerboard="0"
     inkscape:deskcolor="#d1d1d1"
     inkscape:document-units="mm"
     showgrid="false"
     inkscape:zoom="1"
     inkscape:cx="162.5"
     inkscape:cy="254"
     inkscape:window-width="1920"
     inkscape:window-height="1011"
     inkscape:window-x="0"
     inkscape:window-y="0"
     inkscape:window-maximized="1"
     inkscape:current-layer="layer1">
    <inkscape:grid
       type="axonomgrid"
       id="grid132"
       originx="-13.228532"
       originy="-57.775004" />
  </sodipodi:namedview>
  <defs
     id="defs2">
    <clipPath
       id="clipPath7793">
      <path
         d="M 0,0 H 13 V 11.765625 H 0 Z m 0,0"
         id="path795" />
    </clipPath>
    <clipPath
       id="clipPath3359">
      <path
         d="M 0,0 H 13 V 11.765625 H 0 Z m 0,0"
         id="path7727" />
    </clipPath>
  </defs>
  <g
     inkscape:label="Layer 1"
     inkscape:groupmode="layer"
     id="layer1"
     transform="translate(-13.228532,-57.775009)">
    <path
       style="font-variation-settings:normal;opacity:0.25;vector-effect:none;fill:#c8beb7;fill-opacity:1;stroke:none;stroke-width:0.750001;stroke-linecap:butt;stroke-linejoin:miter;stroke-miterlimit:4;stroke-dasharray:none;stroke-dashoffset:0;stroke-opacity:1;-inkscape-stroke:none;stop-color:#000000;stop-opacity:1"
       d="m 56.291651,172.5 43.30127,-95 43.301269,45 -38.97114,97.5 z"
       id="path1295"
       sodipodi:nodetypes="ccccc" />
    <path
       style="font-variation-settings:normal;opacity:1;vector-effect:none;fill:#0000ff;fill-opacity:1;stroke:#b3b3b3;stroke-width:0.750001;stroke-linecap:butt;stroke-linejoin:miter;stroke-miterlimit:4;stroke-dasharray:1.5, 1.5;stroke-dashoffset:0;stroke-opacity:1;-inkscape-stroke:none;stop-color:#000000;stop-opacity:1"
       d="M 173.20508,105 99.723642,147.42453"
       id="path247" />
    <g
       id="path528"
       style="fill:#000000">
      <path
         style="color:#000000;fill:#000000;stroke-width:0.750001;-inkscape-stroke:none"
         d="M 99.723642,147.42453 17.320508,195"
         id="path2333" />
      <path
         style="color:#000000;fill:#000000;-inkscape-stroke:none"
         d="m 99.537109,147.09961 -82.404297,47.57617 0.375,0.64844 L 99.912109,147.75 Z"
         id="path2335" />
      <g
         id="g2327"
         style="fill:#000000">
        <path
           d="m 19.279837,196.29366 -6.051305,1.06884 3.951303,-4.70616 c -0.297703,1.58437 0.576424,3.0984 2.100002,3.63732 z"
           style="fill:#000000;fill-rule:evenodd;stroke-width:0.525001"
           id="path2329" />
      </g>
    </g>
    <path
       style="font-variation-settings:normal;opacity:1;vector-effect:none;fill:#0000ff;fill-opacity:1;stroke:#b3b3b3;stroke-width:0.750001;stroke-linecap:butt;stroke-linejoin:miter;stroke-miterlimit:4;stroke-dasharray:1.5, 1.5;stroke-dashoffset:0;stroke-opacity:1;-inkscape-stroke:none;stop-color:#000000;stop-opacity:1"
       d="M 99.592921,217.5 99.438452,147.77214"
       id="path366" />
    <path
       style="fill:#0000ff;stroke:#b3b3b3;stroke-width:0.750001;stroke-dasharray:1.5, 1.5;stroke-dashoffset:0;stop-color:#000000"
       d="m 30.310889,107.5 69.124998,39.90934"
       id="path368" />
    <path
       style="font-variation-settings:normal;opacity:1;vector-effect:none;fill:none;fill-opacity:1;stroke:#0000ff;stroke-width:0.750001;stroke-linecap:butt;stroke-linejoin:miter;stroke-miterlimit:4;stroke-dasharray:none;stroke-dashoffset:0;stroke-opacity:1;-inkscape-stroke:none;stop-color:#000000;stop-opacity:1"
       d="M 56.291651,172.5 99.224565,77.5 126.43971,163 Z"
       id="path1494"
       sodipodi:nodetypes="cccc" />
    <g
       inkscape:label=""
       transform="translate(49.921999,167.53619)"
       id="g1824">
      <g
         id="surface2"
         transform="matrix(0.352778,0,0,0.352778,-0.20395,0.187986)">
        <g
           style="fill:#000000;fill-opacity:1"
           id="g14">
          <g
             id="use12"
             transform="translate(0,11.764)">
            <path
               style="stroke:none"
               d="M 2.921875,-1.90625 C 2.328125,-0.890625 1.734375,-0.546875 0.90625,-0.5 0.71875,-0.484375 0.578125,-0.484375 0.578125,-0.171875 0.578125,-0.0625 0.671875,0 0.796875,0 1.109375,0 1.875,-0.03125 2.1875,-0.03125 2.6875,-0.03125 3.234375,0 3.71875,0 3.828125,0 4.03125,0 4.03125,-0.328125 4.03125,-0.484375 3.890625,-0.5 3.78125,-0.5 3.390625,-0.53125 3.0625,-0.671875 3.0625,-1.078125 c 0,-0.25 0.109375,-0.4375 0.328125,-0.8125 L 4.703125,-4.0625 H 9.09375 c 0.015625,0.15625 0.015625,0.296875 0.03125,0.453125 0.046875,0.4375 0.265625,2.234375 0.265625,2.5625 C 9.390625,-0.53125 8.5,-0.5 8.234375,-0.5 c -0.1875,0 -0.375,0 -0.375,0.3125 C 7.859375,0 8,0 8.109375,0 8.40625,0 8.75,-0.03125 9.046875,-0.03125 h 0.96875 c 1.0625,0 1.8125,0.03125 1.828125,0.03125 0.125,0 0.3125,0 0.3125,-0.328125 C 12.15625,-0.5 12,-0.5 11.75,-0.5 c -0.953125,0 -0.96875,-0.15625 -1.015625,-0.671875 l -1.0625,-10.75 c -0.03125,-0.34375 -0.09375,-0.375 -0.28125,-0.375 -0.171875,0 -0.28125,0.03125 -0.4375,0.296875 z M 5,-4.5625 l 3.453125,-5.78125 0.59375,5.78125 z m 0,0"
               id="path21" />
          </g>
        </g>
      </g>
    </g>
    <g
       inkscape:label=""
       transform="translate(128.70109,158.65855)"
       id="g1882">
      <g
         id="g1880"
         transform="matrix(0.352778,0,0,0.352778,-0.292144,5.73285e-4)">
        <g
           clip-path="url(#clipPath7793)"
           clip-rule="nonzero"
           id="g19">
          <g
             style="fill:#000000;fill-opacity:1"
             id="g17">
            <g
               id="use15"
               transform="translate(0,11.764)">
              <path
                 style="stroke:none"
                 d="m 6.296875,-10.59375 c 0.15625,-0.640625 0.234375,-0.671875 0.90625,-0.671875 H 9.4375 c 1.9375,0 1.9375,1.65625 1.9375,1.8125 0,1.390625 -1.390625,3.171875 -3.65625,3.171875 H 5.234375 Z m 2.921875,4.453125 c 1.875,-0.34375 3.578125,-1.65625 3.578125,-3.25 0,-1.34375 -1.1875,-2.375 -3.140625,-2.375 H 4.125 c -0.3125,0 -0.46875,0 -0.46875,0.328125 0,0.171875 0.15625,0.171875 0.40625,0.171875 1.046875,0 1.046875,0.140625 1.046875,0.328125 0,0.03125 0,0.140625 -0.0625,0.40625 l -2.328125,9.25 C 2.5625,-0.671875 2.53125,-0.5 1.328125,-0.5 c -0.328125,0 -0.5,0 -0.5,0.3125 C 0.828125,0 0.9375,0 1.28125,0 H 7.1875 c 2.625,0 4.65625,-2 4.65625,-3.734375 0,-1.40625 -1.234375,-2.28125 -2.625,-2.40625 z M 6.765625,-0.5 H 4.4375 c -0.234375,0 -0.265625,0 -0.375,-0.015625 C 3.875,-0.53125 3.859375,-0.5625 3.859375,-0.703125 c 0,-0.125 0.03125,-0.234375 0.0625,-0.375 L 5.125,-5.9375 h 3.25 c 2.03125,0 2.03125,1.890625 2.03125,2.03125 0,1.65625 -1.5,3.40625 -3.640625,3.40625 z m 0,0"
                 id="path26" />
            </g>
          </g>
        </g>
      </g>
    </g>
    <g
       inkscape:label=""
       transform="translate(102.06375,73.21696)"
       id="g1963">
      <g
         id="g1961"
         transform="matrix(0.352778,0,0,0.352778,-0.303168,0.127353)">
        <g
           clip-path="url(#clipPath3359)"
           clip-rule="nonzero"
           id="g1959">
          <g
             style="fill:#000000;fill-opacity:1"
             id="g1957">
            <g
               id="g1955"
               transform="translate(0,11.764)">
              <path
                 style="stroke:none"
                 d="m 12.859375,-11.96875 c 0,-0.15625 -0.125,-0.15625 -0.15625,-0.15625 -0.03125,0 -0.09375,0 -0.234375,0.171875 L 11.28125,-10.5 c -0.609375,-1.03125 -1.546875,-1.625 -2.84375,-1.625 -3.71875,0 -7.578125,3.78125 -7.578125,7.8125 0,2.890625 2.015625,4.671875 4.53125,4.671875 1.375,0 2.578125,-0.578125 3.578125,-1.421875 1.5,-1.265625 1.953125,-2.9375 1.953125,-3.0625 0,-0.15625 -0.140625,-0.15625 -0.1875,-0.15625 -0.15625,0 -0.171875,0.09375 -0.21875,0.171875 -0.78125,2.6875 -3.109375,3.96875 -4.828125,3.96875 -1.828125,0 -3.421875,-1.171875 -3.421875,-3.609375 0,-0.5625 0.171875,-3.546875 2.125,-5.8125 0.953125,-1.09375 2.5625,-2.0625 4.203125,-2.0625 1.890625,0 2.734375,1.5625 2.734375,3.328125 0,0.4375 -0.04687,0.828125 -0.04687,0.890625 0,0.15625 0.171875,0.15625 0.21875,0.15625 0.1875,0 0.203125,-0.015625 0.28125,-0.328125 z m 0,0"
                 id="path1953" />
            </g>
          </g>
        </g>
      </g>
    </g>
    <g
       id="path532"
       style="fill:#000000">
      <path
         style="color:#000000;fill:#000000;stroke-width:0.750001;-inkscape-stroke:none"
         d="M 99.438452,147.77214 99.217921,62.5"
         id="path2349" />
      <path
         style="color:#000000;fill:#000000;-inkscape-stroke:none"
         d="m 98.84375,62.5 0.21875,85.27344 0.75,-0.002 L 99.59375,62.5 Z"
         id="path2351" />
      <g
         id="g2343"
         style="fill:#000000">
        <path
           d="m 97.120641,63.555429 2.08506,-5.78042 2.114929,5.769558 c -1.22596,-1.046834 -2.974207,-1.042313 -4.199989,0.01086 z"
           style="fill:#000000;fill-rule:evenodd;stroke-width:0.525001"
           id="path2345" />
      </g>
    </g>
    <path
       style="color:#000000;fill:#000000;stroke-width:0.750001;-inkscape-stroke:none"
       d="M 99.435887,147.40934 177.53521,192.5"
       id="path2313" />
    <path
       style="color:#000000;fill:#000000;-inkscape-stroke:none"
       d="m 99.623047,147.08398 -0.375,0.65039 78.099613,45.08985 0.375,-0.64844 z"
       id="path2315" />
    <g
       id="g2307"
       style="fill:#000000">
      <path
         d="m 177.67588,190.15634 3.95131,4.70616 -6.05131,-1.06884 c 1.52095,-0.53437 2.39508,-2.0484 2.1,-3.63732 z"
         style="fill:#000000;fill-rule:evenodd;stroke-width:0.525001"
         id="path2309" />
    </g>
    <circle
       id="circle1427"
       style="fill:#ff0000;stroke:none;stroke-width:0.352777"
       cx="99.224564"
       cy="77.5"
       r="1.5" />
    <circle
       id="circle1429"
       style="fill:#ff0000;stroke:none;stroke-width:0.352777"
       cx="126.65621"
       cy="163.125"
       r="1.5" />
    <circle
       id="path1425"
       style="fill:#ff0000;stroke:none;stroke-width:0.352777"
       cx="56.291653"
       cy="172.5"
       r="1.5" />
  </g>
</svg>
