<?xml version="1.0" encoding="UTF-8" standalone="no"?>
<!-- Created with Inkscape (http://www.inkscape.org/) -->

<svg
   width="298.99377mm"
   height="189.94377mm"
   viewBox="0 0 298.99378 189.94377"
   version="1.1"
   id="svg5"
   sodipodi:docname="05Feb-2023-03.svg"
   inkscape:version="1.2.2 (1:1.2.2+202212051550+b0a8486541)"
   xmlns:inkscape="http://www.inkscape.org/namespaces/inkscape"
   xmlns:sodipodi="http://sodipodi.sourceforge.net/DTD/sodipodi-0.dtd"
   xmlns="http://www.w3.org/2000/svg"
   xmlns:svg="http://www.w3.org/2000/svg">
  <sodipodi:namedview
     id="namedview7"
     pagecolor="#ffffff"
     bordercolor="#999999"
     borderopacity="1"
     inkscape:showpageshadow="0"
     inkscape:pageopacity="0"
     inkscape:pagecheckerboard="0"
     inkscape:deskcolor="#d1d1d1"
     inkscape:document-units="mm"
     showgrid="false"
     inkscape:zoom="0.5"
     inkscape:cx="566"
     inkscape:cy="331"
     inkscape:window-width="1600"
     inkscape:window-height="832"
     inkscape:window-x="0"
     inkscape:window-y="32"
     inkscape:window-maximized="1"
     inkscape:current-layer="g507" />
  <defs
     id="defs2">
    <clipPath
       id="clipPath3254">
      <path
         d="M 0,0 H 8.847656 V 7.410156 H 0 Z m 0,0"
         id="path7589" />
    </clipPath>
    <clipPath
       id="clipPath3453">
      <path
         d="M 0,0 H 7 V 11.953125 H 0 Z m 0,0"
         id="path5356" />
    </clipPath>
    <clipPath
       id="clipPath6748">
      <path
         d="M 0,0 H 7.253906 V 7.410156 H 0 Z m 0,0"
         id="path6755" />
    </clipPath>
    <clipPath
       id="clipPath4903">
      <path
         d="M 1,0 H 6 V 17.1875 H 1 Z m 0,0"
         id="path4251" />
    </clipPath>
    <clipPath
       id="clipPath7910">
      <path
         d="m 28,0 h 4 v 17.1875 h -4 z m 0,0"
         id="path9358" />
    </clipPath>
    <clipPath
       id="clipPath6103">
      <path
         d="m 39,0 h 6.859375 V 14 H 39 Z m 0,0"
         id="path1463" />
    </clipPath>
    <clipPath
       id="clipPath5562">
      <path
         d="M 0,0 H 7.894531 V 11.097656 H 0 Z m 0,0"
         id="path9427" />
    </clipPath>
    <clipPath
       id="clipPath3897">
      <path
         d="M 1,0 H 7 V 11.097656 H 1 Z m 0,0"
         id="path4628" />
    </clipPath>
    <clipPath
       id="clipPath9828">
      <path
         d="M 0,0 H 10 V 15.304688 H 0 Z m 0,0"
         id="path1386" />
    </clipPath>
    <clipPath
       id="clipPath5618">
      <path
         d="M 0,0 H 13 V 11.765625 H 0 Z m 0,0"
         id="path9396" />
    </clipPath>
  </defs>
  <g
     inkscape:label="Layer 1"
     inkscape:groupmode="layer"
     id="layer1"
     transform="translate(85.840606,58.259034)">
    <g
       id="g507"
       transform="matrix(3.14276,0,0,3.14618,-454.052,180.285)"
       style="stroke-width:0.318019">
      <ellipse
         style="font-variation-settings:normal;opacity:1;vector-effect:none;fill:#f0f00e;fill-opacity:1;fill-rule:evenodd;stroke:#4d4d4d;stroke-width:0.159009;stroke-linecap:butt;stroke-linejoin:miter;stroke-miterlimit:4;stroke-dasharray:none;stroke-dashoffset:0;stroke-opacity:1;-inkscape-stroke:none;paint-order:fill stroke markers;stop-color:#000000;stop-opacity:1"
         id="ellipse10832"
         cx="132.38281"
         cy="-48.798496"
         rx="15.141516"
         ry="26.942211" />
      <ellipse
         style="font-variation-settings:normal;opacity:1;vector-effect:none;fill:#ffb380;fill-opacity:1;fill-rule:evenodd;stroke:#4d4d4d;stroke-width:0.159009;stroke-linecap:butt;stroke-linejoin:miter;stroke-miterlimit:4;stroke-dasharray:none;stroke-dashoffset:0;stroke-opacity:1;-inkscape-stroke:none;paint-order:fill stroke markers;stop-color:#000000;stop-opacity:1"
         id="ellipse10834"
         cx="197.07809"
         cy="-48.798496"
         rx="15.141516"
         ry="26.942211" />
      <ellipse
         id="path546"
         style="fill:#2b1100;stroke:none;stroke-width:0.0267588"
         cx="196.05579"
         cy="-66.852585"
         rx="0.6363833"
         ry="0.63569152" />
      <ellipse
         id="path548"
         style="font-variation-settings:normal;opacity:1;vector-effect:none;fill:#ff00ff;fill-opacity:1;stroke:none;stroke-width:0.0267588;stroke-linecap:butt;stroke-linejoin:miter;stroke-miterlimit:4;stroke-dasharray:none;stroke-dashoffset:0;stroke-opacity:1;-inkscape-stroke:none;stop-color:#000000;stop-opacity:1"
         cx="201.40401"
         cy="-60.768848"
         rx="0.6363833"
         ry="0.63569152" />
      <ellipse
         id="path550"
         style="font-variation-settings:normal;opacity:1;vector-effect:none;fill:#008080;fill-opacity:1;stroke:none;stroke-width:0.0267588;stroke-linecap:butt;stroke-linejoin:miter;stroke-miterlimit:4;stroke-dasharray:none;stroke-dashoffset:0;stroke-opacity:1;-inkscape-stroke:none;stop-color:#000000;stop-opacity:1"
         cx="192.9357"
         cy="-53.585869"
         rx="0.6363833"
         ry="0.63569152" />
      <ellipse
         id="path552"
         style="font-variation-settings:normal;opacity:1;vector-effect:none;fill:#0000ff;fill-opacity:1;stroke:none;stroke-width:0.0267588;stroke-linecap:butt;stroke-linejoin:miter;stroke-miterlimit:4;stroke-dasharray:none;stroke-dashoffset:0;stroke-opacity:1;-inkscape-stroke:none;stop-color:#000000;stop-opacity:1"
         cx="204.02187"
         cy="-45.478294"
         rx="0.6363833"
         ry="0.63569152" />
      <ellipse
         id="path554"
         style="font-variation-settings:normal;opacity:1;vector-effect:none;fill:#502d16;fill-opacity:1;stroke:none;stroke-width:0.0267588;stroke-linecap:butt;stroke-linejoin:miter;stroke-miterlimit:4;stroke-dasharray:none;stroke-dashoffset:0;stroke-opacity:1;-inkscape-stroke:none;stop-color:#000000;stop-opacity:1"
         cx="197.58818"
         cy="-29.663078"
         rx="0.6363833"
         ry="0.63569152" />
      <path
         style="font-variation-settings:normal;opacity:1;vector-effect:none;fill:#333333;fill-opacity:1;stroke:none;stroke-width:0.0267588;stroke-linecap:butt;stroke-linejoin:miter;stroke-miterlimit:4;stroke-dasharray:none;stroke-dashoffset:0;stroke-opacity:1;-inkscape-stroke:none;paint-order:fill stroke markers;stop-color:#000000;stop-opacity:1"
         id="path1095"
         d="m 124.0498,-71.303334 c 0.0271,0.456994 0.16713,0.884742 0.35391,1.298551 0.2572,0.529007 0.68104,0.92316 1.14279,1.270905 0.49387,0.344792 1.03919,0.596189 1.60831,0.78557 0.79277,0.20766 1.61272,0.281217 2.42011,0.414051 0.90165,0.143407 1.77173,0.414233 2.60805,0.776364 0.70471,0.337528 1.35413,0.778979 2.00323,1.211554 0.6241,0.416828 1.20303,0.894384 1.76697,1.388433 0.42979,0.409863 0.89306,0.773493 1.39994,1.081485 0.43943,0.271342 0.91903,0.452216 1.41338,0.591937 0.46127,0.109014 0.93609,0.136898 1.4071,0.174096 0.363,0.03567 0.726,0.0582 1.09073,0.05539 0.3444,0.0036 0.68464,-0.04262 1.02093,-0.112895 0.24432,-0.05065 0.48363,-0.1211 0.7241,-0.186845 0.21542,-0.0566 0.42507,-0.132016 0.63627,-0.202173 0.16743,-0.05408 0.3365,-0.10247 0.50866,-0.138703 0.16452,-0.02633 0.32488,-0.07027 0.48205,-0.12494 0.088,-0.03345 0.17804,-0.05987 0.27044,-0.07759 0.0422,-0.0041 0.0842,-0.01055 0.12601,-0.01818 0.20498,-0.03764 0.15191,-0.328318 -0.053,-0.290685 v 0 c -0.0427,0.0079 -0.0859,0.01326 -0.12907,0.01875 -0.10606,0.02086 -0.20995,0.05013 -0.31109,0.08857 -0.14534,0.05078 -0.29376,0.09078 -0.44601,0.114895 -0.1829,0.03874 -0.36273,0.08963 -0.54059,0.147353 -0.2062,0.06851 -0.41083,0.142283 -0.62114,0.197591 -0.23475,0.06421 -0.46833,0.133118 -0.70682,0.182677 -0.31719,0.06661 -0.63806,0.110305 -0.96302,0.106661 -0.35623,0.003 -0.7107,-0.01977 -1.06525,-0.05448 -0.45188,-0.03569 -0.90743,-0.06189 -1.35044,-0.163971 -0.46897,-0.131976 -0.92384,-0.302857 -1.34061,-0.560292 -0.4927,-0.29849 -0.9411,-0.653333 -1.35861,-1.051208 -0.57371,-0.502516 -1.16285,-0.988048 -1.79775,-1.412005 -0.66381,-0.44229 -1.32812,-0.893354 -2.04964,-1.236788 -0.85874,-0.370844 -1.7515,-0.649708 -2.67705,-0.796622 -0.7923,-0.130282 -1.59651,-0.203654 -2.37536,-0.403025 -0.53934,-0.177898 -1.05529,-0.416924 -1.52403,-0.74146 -0.42276,-0.316926 -0.81392,-0.674144 -1.05127,-1.156779 -0.17428,-0.382067 -0.30347,-0.777194 -0.32841,-1.199917 -0.0167,-0.208288 -0.31048,-0.184563 -0.29375,0.02372 z" />
      <path
         style="font-variation-settings:normal;opacity:1;vector-effect:none;fill:#333333;fill-opacity:1;stroke:none;stroke-width:0.0267588;stroke-linecap:butt;stroke-linejoin:miter;stroke-miterlimit:4;stroke-dasharray:none;stroke-dashoffset:0;stroke-opacity:1;-inkscape-stroke:none;paint-order:fill stroke markers;stop-color:#000000;stop-opacity:1"
         id="path1097"
         d="m 117.72733,-55.395773 c 0.39784,0.237909 0.83505,0.376319 1.28427,0.477194 0.54059,0.11144 1.09124,0.154025 1.64199,0.168714 0.5114,0.01598 1.01589,-0.06844 1.51463,-0.171059 0.53858,-0.121253 1.04155,-0.349636 1.53682,-0.586851 0.59908,-0.297168 1.16828,-0.64936 1.7333,-1.005695 0.49688,-0.313546 0.96585,-0.667476 1.42808,-1.029214 0.39951,-0.306188 0.75849,-0.658887 1.11898,-1.0087 0.33423,-0.324748 0.66739,-0.650246 1.01684,-0.958727 0.34409,-0.300162 0.70403,-0.581093 1.07568,-0.846215 0.28651,-0.197882 0.57741,-0.389383 0.87265,-0.573996 0.2677,-0.165384 0.53963,-0.323674 0.81799,-0.470429 0.32994,-0.161683 0.66507,-0.312934 1.00131,-0.461091 0.30062,-0.135695 0.59935,-0.275802 0.8966,-0.418764 0.26459,-0.128905 0.5249,-0.266281 0.78892,-0.39631 0.21649,-0.107947 0.43727,-0.206895 0.656,-0.310123 0.15627,-0.07735 0.3072,-0.165337 0.44941,-0.266169 0.10479,-0.07583 0.20122,-0.161857 0.29109,-0.25466 0.0709,-0.07559 0.14258,-0.150538 0.20481,-0.23354 0.0306,-0.03596 0.0552,-0.07747 0.0877,-0.111665 0.0263,-0.0239 0.0494,-0.05091 0.0727,-0.07768 0.13944,-0.160051 -0.0871,-0.357021 -0.22659,-0.19697 v 0 c -0.0226,0.02592 -0.0452,0.05152 -0.0704,0.07499 -0.037,0.04243 -0.0703,0.08793 -0.10472,0.132476 -0.0538,0.07333 -0.11887,0.13723 -0.18003,0.204286 -0.0765,0.07986 -0.15953,0.153021 -0.24892,0.218343 -0.12745,0.09096 -0.26351,0.169266 -0.40352,0.23931 -0.22022,0.103975 -0.44255,0.203562 -0.66052,0.3123 -0.26316,0.129652 -0.5227,0.26646 -0.78639,0.395081 -0.29423,0.141548 -0.58997,0.280197 -0.88752,0.41458 -0.34268,0.151024 -0.68427,0.305099 -1.02034,0.470291 -0.28479,0.150326 -0.56323,0.312046 -0.8371,0.481425 -0.30041,0.187868 -0.59642,0.382707 -0.88787,0.584169 -0.38003,0.271255 -0.74821,0.558479 -1.10003,0.865568 -0.35287,0.311714 -0.68971,0.640149 -1.0272,0.968309 -0.35284,0.342402 -0.70385,0.688035 -1.09494,0.98773 -0.4542,0.355505 -0.91491,0.703522 -1.40317,1.01169 -0.5552,0.350171 -1.11437,0.6965 -1.70286,0.988871 -0.47316,0.226801 -0.95324,0.446447 -1.46758,0.563524 -0.47615,0.09824 -0.95769,0.180066 -1.44602,0.164978 -0.53136,-0.01388 -1.06263,-0.05472 -1.58432,-0.161574 -0.41463,-0.09228 -0.81804,-0.218423 -1.18625,-0.436018 -0.17813,-0.115569 -0.34174,0.13606 -0.16362,0.251629 z" />
      <path
         style="font-variation-settings:normal;opacity:1;vector-effect:none;fill:#333333;fill-opacity:1;stroke:none;stroke-width:0.0267587;stroke-linecap:butt;stroke-linejoin:miter;stroke-miterlimit:4;stroke-dasharray:none;stroke-dashoffset:0;stroke-opacity:1;-inkscape-stroke:none;paint-order:fill stroke markers;stop-color:#000000;stop-opacity:1"
         id="path1099"
         d="m 127.99157,-58.599163 c 0.31469,0.663197 0.69669,1.300399 1.13081,1.892897 0.13209,0.180275 0.27395,0.353201 0.41092,0.529803 0.92298,1.126271 1.95306,2.156786 3.04569,3.117438 0.74605,0.632134 1.52919,1.221271 2.36033,1.737639 0.50292,0.312465 0.74987,0.439276 1.27093,0.726058 1.41132,0.74345 2.88028,1.368944 4.32728,2.038337 0.97003,0.452764 1.92321,0.941328 2.8612,1.456901 0.45958,0.252376 0.90099,0.535402 1.34103,0.819859 0.21328,0.132234 0.41781,0.27663 0.59785,0.451703 0.11493,0.119758 0.22093,0.247436 0.33547,0.367555 0.0981,0.10295 0.21191,0.188633 0.32474,0.274475 0.0743,0.05544 0.15387,0.102964 0.22455,0.163051 0.0685,0.06056 0.13515,0.123507 0.19789,0.190099 0.0768,0.07636 0.1458,0.159841 0.21734,0.240947 0.0682,0.07311 0.14506,0.137235 0.22094,0.202075 0.05,0.04552 0.10749,0.08232 0.15121,0.134391 0.0255,0.03225 0.0492,0.0659 0.072,0.100113 0.002,0.003 0.004,0.0062 0.006,0.0092 0.11435,0.178881 0.36759,0.01734 0.25324,-0.161536 v 0 c -0.0134,-0.02067 0.008,0.0127 -0.009,-0.01412 -0.0301,-0.04496 -0.0612,-0.0892 -0.0956,-0.130979 -0.055,-0.06175 -0.11873,-0.112636 -0.18233,-0.165167 -0.0653,-0.05569 -0.13138,-0.110575 -0.19089,-0.172506 -0.0739,-0.08352 -0.14497,-0.169636 -0.2241,-0.248351 -0.0707,-0.07471 -0.14531,-0.14575 -0.22268,-0.213533 -0.075,-0.06281 -0.1567,-0.115688 -0.23628,-0.172447 -0.10019,-0.07624 -0.20193,-0.151667 -0.28934,-0.242831 -0.1174,-0.122825 -0.22507,-0.254347 -0.3438,-0.375943 -0.19483,-0.187921 -0.4133,-0.346156 -0.64373,-0.488161 -0.44604,-0.288328 -0.89357,-0.575066 -1.35943,-0.830847 -0.94411,-0.518834 -1.90342,-1.010665 -2.87978,-1.466286 -1.44067,-0.666444 -2.90315,-1.289261 -4.30857,-2.028879 -0.51235,-0.28185 -0.75784,-0.407955 -1.25211,-0.71478 -0.81897,-0.508411 -1.5905,-1.088783 -2.32563,-1.71135 -1.07865,-0.947812 -2.0951,-1.965046 -3.00673,-3.076022 -0.13351,-0.171872 -0.27182,-0.340135 -0.40055,-0.515617 -0.42068,-0.573473 -0.79054,-1.190177 -1.09817,-1.830892 -0.0763,-0.198098 -0.35672,-0.09037 -0.28047,0.10773 z" />
      <path
         style="font-variation-settings:normal;opacity:1;vector-effect:none;fill:#333333;fill-opacity:1;stroke:none;stroke-width:0.0267588;stroke-linecap:butt;stroke-linejoin:miter;stroke-miterlimit:4;stroke-dasharray:none;stroke-dashoffset:0;stroke-opacity:1;-inkscape-stroke:none;paint-order:fill stroke markers;stop-color:#000000;stop-opacity:1"
         id="path1103"
         d="m 117.98598,-41.092409 c 0.48741,0.07859 0.97731,0.04836 1.46544,-0.0014 0.69065,-0.07261 1.35393,-0.279246 2.01013,-0.496078 0.88746,-0.294607 1.72147,-0.720498 2.55554,-1.137526 0.90724,-0.460062 1.80319,-0.942275 2.6823,-1.453918 0.6596,-0.386086 1.27705,-0.83652 1.85558,-1.3346 0.38071,-0.339977 0.73092,-0.711537 1.06949,-1.092782 0.25979,-0.299888 0.53061,-0.589663 0.80423,-0.876879 0.31486,-0.344552 0.65022,-0.668506 0.99627,-0.981398 0.33809,-0.290479 0.6843,-0.571374 1.02654,-0.856955 0.28443,-0.239327 0.57831,-0.466879 0.87743,-0.687447 0.23868,-0.183051 0.48829,-0.349155 0.75388,-0.490358 0.20034,-0.104276 0.41221,-0.184014 0.62754,-0.25112 0.12101,-0.03453 0.24103,-0.07184 0.35885,-0.116004 0.0677,-0.0214 0.12848,-0.05872 0.19297,-0.08737 0.0365,-0.01526 0.0748,-0.02544 0.11167,-0.03951 0.0171,-0.0086 0.0348,-0.01657 0.0522,-0.02435 0.19726,-0.06286 0.10826,-0.341529 -0.0889,-0.278669 v 0 c -0.0248,0.0092 -0.0495,0.01712 -0.0719,0.0314 -0.0415,0.01449 -0.0841,0.02666 -0.12432,0.0449 -0.0581,0.02679 -0.1137,0.05936 -0.17464,0.07977 -0.11267,0.04232 -0.2276,0.07749 -0.34329,0.11066 -0.23265,0.07283 -0.46159,0.15914 -0.67795,0.272211 -0.27788,0.148355 -0.54009,0.321211 -0.78998,0.513109 -0.30382,0.224063 -0.60232,0.455207 -0.89123,0.698289 -0.34524,0.28807 -0.69454,0.571318 -1.03535,0.864602 -0.35137,0.317831 -0.69206,0.646736 -1.01186,0.996588 -0.276,0.289695 -0.54914,0.581988 -0.81119,0.884429 -0.3299,0.371542 -0.67095,0.733787 -1.04168,1.06538 -0.56457,0.486732 -1.16786,0.926125 -1.81174,1.303372 -0.87372,0.508613 -1.76429,0.987729 -2.66596,1.445082 -0.82144,0.410731 -1.64253,0.830879 -2.51645,1.1214 -0.63598,0.2103 -1.27859,0.411891 -1.94798,0.48279 -0.46571,0.04785 -0.9329,0.07792 -1.39794,0.0024 -0.20535,-0.0266 -0.243,0.263483 -0.0376,0.290075 z" />
      <path
         style="font-variation-settings:normal;opacity:1;vector-effect:none;fill:#333333;fill-opacity:1;stroke:none;stroke-width:0.0267588;stroke-linecap:butt;stroke-linejoin:miter;stroke-miterlimit:4;stroke-dasharray:none;stroke-dashoffset:0;stroke-opacity:1;-inkscape-stroke:none;paint-order:fill stroke markers;stop-color:#000000;stop-opacity:1"
         id="path1309"
         d="m 126.32687,-43.932426 c 0.34079,0.414363 0.69178,0.820193 1.03206,1.235136 0.34411,0.411897 0.69078,0.829307 1.10904,1.169815 0.2641,0.215011 0.37328,0.270352 0.66202,0.450261 0.67505,0.380408 1.38509,0.693499 2.06828,1.058483 0.16029,0.08564 0.318,0.176003 0.477,0.264005 0.47321,0.270688 0.92094,0.579013 1.32424,0.946551 0.40723,0.371112 0.76282,0.788995 1.11827,1.208141 0.63098,0.759109 1.15242,1.59638 1.63169,2.456427 0.27505,0.502467 0.53385,1.014542 0.84133,1.498541 0.17407,0.274014 0.21373,0.320551 0.3996,0.576204 0.27233,0.377225 0.59991,0.699748 0.97935,0.966816 0.26673,0.173515 0.54087,0.335283 0.80441,0.513678 0.24066,0.166121 0.39788,0.407461 0.5441,0.654395 0.14686,0.248769 0.25789,0.515677 0.37778,0.777804 0.0806,0.192335 0.1938,0.366916 0.31913,0.532628 0.0985,0.122208 0.19346,0.247379 0.28341,0.376055 0.0631,0.08777 0.11249,0.184065 0.15686,0.282282 0.0382,0.0996 0.078,0.198403 0.12123,0.295932 0.0584,0.142775 0.11122,0.28807 0.15901,0.434768 0.036,0.110849 0.0651,0.223767 0.0944,0.336535 0.0121,0.05832 0.0362,0.112073 0.0601,0.166144 0.0208,0.05438 0.0422,0.108103 0.0693,0.159693 0.0178,0.02906 0.0308,0.05947 0.0372,0.0928 0.009,0.06027 0.0224,0.119694 0.0317,0.179868 0.007,0.04815 0.0103,0.09674 0.0132,0.145291 0.004,0.05178 -2.5e-4,0.01224 0.0435,-0.11121 -0.17315,0.11616 -0.009,0.360763 0.16446,0.244604 v 0 c 0.0289,-0.05001 0.0578,-0.10002 0.0867,-0.15003 -4e-5,-1.67e-4 -8e-5,-3.34e-4 -8e-5,-5.83e-4 -0.003,-0.05815 -0.008,-0.116319 -0.0162,-0.173962 -0.0106,-0.06588 -0.0246,-0.131122 -0.0349,-0.197041 -0.0136,-0.05896 -0.0335,-0.115583 -0.0648,-0.167713 -0.0244,-0.04531 -0.0406,-0.09391 -0.0604,-0.141316 -0.0175,-0.03933 -0.0363,-0.07769 -0.0442,-0.120571 -0.0308,-0.118586 -0.0614,-0.237311 -0.0994,-0.353863 -0.051,-0.156147 -0.107,-0.310932 -0.16974,-0.462768 -0.0436,-0.09829 -0.083,-0.198135 -0.12226,-0.298212 -0.0521,-0.114595 -0.11015,-0.226879 -0.18375,-0.329449 -0.0922,-0.131705 -0.18902,-0.260115 -0.29006,-0.385188 -0.11269,-0.148239 -0.21419,-0.30456 -0.28598,-0.47718 -0.12425,-0.27164 -0.2397,-0.548055 -0.39233,-0.805616 -0.16896,-0.284114 -0.35476,-0.55814 -0.63246,-0.748117 -0.26225,-0.177246 -0.53432,-0.339059 -0.80018,-0.510765 -0.35355,-0.247512 -0.65692,-0.548301 -0.91036,-0.898983 -0.17954,-0.246542 -0.21787,-0.291413 -0.38627,-0.5562 -0.30565,-0.480627 -0.56202,-0.98972 -0.83555,-1.488649 -0.48879,-0.876674 -1.02081,-1.729964 -1.66437,-2.503584 -0.3663,-0.431624 -0.733,-0.861536 -1.15328,-1.243005 -0.41816,-0.379554 -0.88149,-0.69893 -1.37133,-0.978942 -0.1616,-0.08939 -0.3219,-0.181159 -0.48481,-0.268166 -0.67623,-0.361196 -1.37861,-0.671789 -2.04758,-1.046756 -0.2669,-0.165403 -0.37755,-0.222183 -0.62124,-0.419728 -0.40714,-0.330057 -0.74282,-0.736973 -1.07746,-1.136886 -0.33815,-0.412313 -0.68661,-0.815841 -1.02575,-1.227165 -0.12653,-0.165628 -0.36102,0.01312 -0.23449,0.178751 z" />
      <ellipse
         id="ellipse1313"
         style="fill:#241c1c;stroke:none;stroke-width:0.0267588"
         cx="130.56535"
         cy="-71.594681"
         rx="0.47728747"
         ry="0.47676864" />
      <ellipse
         id="ellipse1315"
         style="fill:#241c1c;stroke:none;stroke-width:0.0267588"
         cx="135.57787"
         cy="-71.594681"
         rx="0.47728747"
         ry="0.47676864" />
      <ellipse
         id="ellipse1317"
         style="fill:#241c1c;stroke:none;stroke-width:0.0267588"
         cx="138.15353"
         cy="-67.272667"
         rx="0.47728747"
         ry="0.47676864" />
      <ellipse
         id="ellipse1319"
         style="fill:#ff00ff;stroke:none;stroke-width:0.0267588"
         cx="122.50539"
         cy="-59.91663"
         rx="0.47728747"
         ry="0.47676864" />
      <ellipse
         id="ellipse1321"
         style="fill:#ff00ff;stroke:none;stroke-width:0.0267588"
         cx="123.69569"
         cy="-64.101768"
         rx="0.47728747"
         ry="0.47676864" />
      <ellipse
         id="ellipse1323"
         style="fill:#ff00ff;stroke:none;stroke-width:0.0267588"
         cx="123.69569"
         cy="-64.101768"
         rx="0.47728747"
         ry="0.47676864" />
      <ellipse
         id="ellipse1341"
         style="fill:#ff00ff;stroke:none;stroke-width:0.0267588"
         cx="127.62601"
         cy="-64.023453"
         rx="0.47728747"
         ry="0.47676864" />
      <ellipse
         id="ellipse1343"
         style="fill:#ff00ff;stroke:none;stroke-width:0.0267588"
         cx="126.31619"
         cy="-60.05859"
         rx="0.47728747"
         ry="0.47676864" />
      <ellipse
         id="ellipse1345"
         style="fill:#008000;stroke:none;stroke-width:0.0267588"
         cx="132.2674"
         cy="-57.558521"
         rx="0.47728747"
         ry="0.47676864" />
      <ellipse
         id="ellipse1347"
         style="fill:#008000;stroke:none;stroke-width:0.0267588"
         cx="134.03105"
         cy="-60.451759"
         rx="0.47728747"
         ry="0.47676864" />
      <ellipse
         id="ellipse1349"
         style="fill:#008000;stroke:none;stroke-width:0.0267588"
         cx="135.52617"
         cy="-55.833538"
         rx="0.47728747"
         ry="0.47676864" />
      <ellipse
         id="ellipse1351"
         style="fill:#008000;stroke:none;stroke-width:0.0267588"
         cx="139.61185"
         cy="-59.818615"
         rx="0.47728747"
         ry="0.47676864" />
      <ellipse
         id="ellipse1353"
         style="fill:#008000;stroke:none;stroke-width:0.0267588"
         cx="141.01135"
         cy="-55.080109"
         rx="0.47728747"
         ry="0.47676864" />
      <ellipse
         id="ellipse1355"
         style="fill:#008000;stroke:none;stroke-width:0.0267588"
         cx="142.804"
         cy="-59.076267"
         rx="0.47728747"
         ry="0.47676864" />
      <ellipse
         id="ellipse1357"
         style="fill:#008000;stroke:none;stroke-width:0.0267588"
         cx="144.6674"
         cy="-50.763584"
         rx="0.47728747"
         ry="0.47676864" />
      <ellipse
         id="ellipse1359"
         style="fill:#008000;stroke:none;stroke-width:0.0267588"
         cx="139.41484"
         cy="-52.076897"
         rx="0.47728747"
         ry="0.47676864" />
      <ellipse
         id="ellipse1361"
         style="fill:#008000;stroke:none;stroke-width:0.0267588"
         cx="144.50717"
         cy="-55.325932"
         rx="0.47728747"
         ry="0.47676864" />
      <ellipse
         id="ellipse1363"
         style="fill:#00d4aa;fill-opacity:1;stroke:none;stroke-width:0.0267588"
         cx="137.30806"
         cy="-43.188774"
         rx="0.47728747"
         ry="0.47676864" />
      <ellipse
         id="ellipse1365"
         style="fill:#00d4aa;fill-opacity:1;stroke:none;stroke-width:0.0267588"
         cx="140.96411"
         cy="-38.87225"
         rx="0.47728747"
         ry="0.47676864" />
      <ellipse
         id="ellipse1367"
         style="fill:#00d4aa;fill-opacity:1;stroke:none;stroke-width:0.0267588"
         cx="135.71155"
         cy="-40.185562"
         rx="0.47728747"
         ry="0.47676864" />
      <ellipse
         id="ellipse1369"
         style="fill:#00d4aa;fill-opacity:1;stroke:none;stroke-width:0.0267588"
         cx="140.80388"
         cy="-43.434597"
         rx="0.47728747"
         ry="0.47676864" />
      <ellipse
         id="ellipse1371"
         style="fill:#00d4aa;fill-opacity:1;stroke:none;stroke-width:0.0267588"
         cx="141.61064"
         cy="-34.659245"
         rx="0.47728747"
         ry="0.47676864" />
      <ellipse
         id="ellipse1373"
         style="fill:#00d4aa;fill-opacity:1;stroke:none;stroke-width:0.0267588"
         cx="133.85457"
         cy="-45.40004"
         rx="0.47728747"
         ry="0.47676864" />
      <ellipse
         id="ellipse1375"
         style="fill:#00d4aa;fill-opacity:1;stroke:none;stroke-width:0.0267588"
         cx="137.74295"
         cy="-46.887554"
         rx="0.47728747"
         ry="0.47676864" />
      <ellipse
         id="ellipse1377"
         style="fill:#00d4aa;fill-opacity:1;stroke:none;stroke-width:0.0267588"
         cx="132.19452"
         cy="-41.947636"
         rx="0.47728747"
         ry="0.47676864" />
      <ellipse
         id="ellipse1379"
         style="fill:#00d4aa;fill-opacity:1;stroke:none;stroke-width:0.0267588"
         cx="138.528"
         cy="-40.852398"
         rx="0.47728747"
         ry="0.47676864" />
      <ellipse
         id="ellipse1381"
         style="fill:#00d4aa;fill-opacity:1;stroke:none;stroke-width:0.0267588"
         cx="144.5468"
         cy="-42.459217"
         rx="0.47728747"
         ry="0.47676864" />
      <ellipse
         id="ellipse1383"
         style="fill:#00d4aa;fill-opacity:1;stroke:none;stroke-width:0.0267588"
         cx="138.02831"
         cy="-36.343739"
         rx="0.47728747"
         ry="0.47676864" />
      <ellipse
         id="ellipse1385"
         style="fill:#554400;stroke:none;stroke-width:0.0267588"
         cx="127.65786"
         cy="-32.96701"
         rx="0.47728747"
         ry="0.47676864" />
      <ellipse
         id="ellipse1387"
         style="fill:#554400;stroke:none;stroke-width:0.0267588"
         cx="131.3139"
         cy="-28.650488"
         rx="0.47728747"
         ry="0.47676864" />
      <ellipse
         id="ellipse1389"
         style="fill:#554400;stroke:none;stroke-width:0.0267588"
         cx="126.06135"
         cy="-29.9638"
         rx="0.47728747"
         ry="0.47676864" />
      <ellipse
         id="ellipse1391"
         style="fill:#554400;stroke:none;stroke-width:0.0267588"
         cx="131.15367"
         cy="-33.212833"
         rx="0.47728747"
         ry="0.47676864" />
      <ellipse
         id="ellipse1393"
         style="fill:#554400;stroke:none;stroke-width:0.0267588"
         cx="131.96043"
         cy="-24.437483"
         rx="0.47728747"
         ry="0.47676864" />
      <ellipse
         id="ellipse1395"
         style="fill:#554400;stroke:none;stroke-width:0.0267588"
         cx="124.20437"
         cy="-35.178276"
         rx="0.47728747"
         ry="0.47676864" />
      <ellipse
         id="ellipse1397"
         style="fill:#554400;stroke:none;stroke-width:0.0267588"
         cx="128.09274"
         cy="-36.665791"
         rx="0.47728747"
         ry="0.47676864" />
      <ellipse
         id="ellipse1399"
         style="fill:#554400;stroke:none;stroke-width:0.0267588"
         cx="122.54432"
         cy="-31.725874"
         rx="0.47728747"
         ry="0.47676864" />
      <ellipse
         id="ellipse1401"
         style="fill:#554400;stroke:none;stroke-width:0.0267588"
         cx="128.87779"
         cy="-30.630636"
         rx="0.47728747"
         ry="0.47676864" />
      <ellipse
         id="ellipse1403"
         style="fill:#554400;stroke:none;stroke-width:0.0267588"
         cx="134.89659"
         cy="-32.237453"
         rx="0.47728747"
         ry="0.47676864" />
      <ellipse
         id="ellipse1405"
         style="fill:#554400;stroke:none;stroke-width:0.0267588"
         cx="128.3781"
         cy="-26.121977"
         rx="0.47728747"
         ry="0.47676864" />
      <ellipse
         id="ellipse1407"
         style="fill:#0000ff;stroke:none;stroke-width:0.0267588"
         cx="119.38839"
         cy="-50.921349"
         rx="0.47728747"
         ry="0.47676864" />
      <ellipse
         id="ellipse1409"
         style="fill:#0000ff;stroke:none;stroke-width:0.0267588"
         cx="122.39205"
         cy="-52.670078"
         rx="0.47728747"
         ry="0.47676864" />
      <ellipse
         id="ellipse1411"
         style="fill:#0000ff;stroke:none;stroke-width:0.0267588"
         cx="126.74908"
         cy="-52.061623"
         rx="0.47728747"
         ry="0.47676864" />
      <ellipse
         id="ellipse1413"
         style="fill:#0000ff;stroke:none;stroke-width:0.0267588"
         cx="121.51862"
         cy="-46.567909"
         rx="0.47728747"
         ry="0.47676864" />
      <ellipse
         id="ellipse1415"
         style="fill:#0000ff;stroke:none;stroke-width:0.0267588"
         cx="122.8142"
         cy="-49.81144"
         rx="0.47728747"
         ry="0.47676864" />
      <ellipse
         id="ellipse1417"
         style="fill:#0000ff;stroke:none;stroke-width:0.0267588"
         cx="127.75659"
         cy="-48.669556"
         rx="0.47728747"
         ry="0.47676864" />
      <ellipse
         id="ellipse1419"
         style="fill:#0000ff;stroke:none;stroke-width:0.0267588"
         cx="130.58606"
         cy="-51.126011"
         rx="0.47728747"
         ry="0.47676864" />
      <ellipse
         style="font-variation-settings:normal;opacity:1;vector-effect:none;fill:none;fill-opacity:1;fill-rule:evenodd;stroke:#4d4d4d;stroke-width:0.159009;stroke-linecap:butt;stroke-linejoin:miter;stroke-miterlimit:4;stroke-dasharray:none;stroke-dashoffset:0;stroke-opacity:1;-inkscape-stroke:none;paint-order:fill stroke markers;stop-color:#000000;stop-opacity:1"
         id="ellipse1311"
         cx="132.38281"
         cy="-48.798496"
         rx="15.141516"
         ry="26.942211" />
      <ellipse
         id="ellipse1624"
         style="font-variation-settings:normal;opacity:1;vector-effect:none;fill:#00d4aa;fill-opacity:1;stroke:none;stroke-width:0.0267588;stroke-linecap:butt;stroke-linejoin:miter;stroke-miterlimit:4;stroke-dasharray:none;stroke-dashoffset:0;stroke-opacity:1;-inkscape-stroke:none;stop-color:#000000;stop-opacity:1"
         cx="197.10455"
         cy="-39.067829"
         rx="0.6363833"
         ry="0.63569152" />
      <g
         id="g2707">
        <path
           style="color:#000000;fill:#000000;-inkscape-stroke:none"
           d="m 164.23242,-55.873047 c -9.38617,0 -14.56836,4.855469 -14.56836,4.855469 l 0.16406,0.173828 c 0,0 5.10019,-4.791016 14.4043,-4.791016 9.29977,0 15.375,5.304688 15.375,5.304688 l 0.15625,-0.179688 c 0,0 -6.14072,-5.363281 -15.53125,-5.363281 z"
           id="path2695" />
        <g
           id="g2685">
          <g
             id="path2687">
            <path
               style="color:#000000;fill:#000000;fill-rule:evenodd;stroke-width:0.119257pt;-inkscape-stroke:none"
               d="m 180.22419,-49.948445 c -0.34791,-0.145537 -0.8641,-0.279706 -1.20064,-0.256971 0,0 0.31381,-0.359277 0.5719,-0.292193 -0.10119,-0.246723 0.21262,-0.606001 0.21262,-0.606001 0.0227,0.336543 0.22511,0.829989 0.41612,1.155165 z"
               id="path2691" />
            <path
               style="color:#000000;fill:#000000;fill-rule:evenodd;-inkscape-stroke:none"
               d="m 179.875,-51.300781 -0.12695,0.144531 c 0,0 -0.0837,0.09519 -0.1543,0.224609 -0.0578,0.106011 -0.0768,0.246343 -0.0586,0.38086 -0.13627,-4.4e-4 -0.27155,0.03759 -0.36914,0.109375 -0.11876,0.08734 -0.20313,0.183593 -0.20313,0.183594 l -0.125,0.144531 0.19141,-0.01367 c 0.31009,-0.02095 0.82593,0.110507 1.16406,0.251953 l 0.2207,0.0918 -0.12109,-0.205078 c -0.18564,-0.316039 -0.38534,-0.811007 -0.40625,-1.121094 z m -0.0879,0.367187 c 0.0525,0.29122 0.17135,0.607913 0.31641,0.88086 -0.28953,-0.106873 -0.61866,-0.182201 -0.91407,-0.195313 0.029,-0.02705 0.0291,-0.03416 0.0703,-0.06445 0.10267,-0.07552 0.2284,-0.130297 0.3164,-0.107422 l 0.15235,0.03906 -0.0586,-0.146485 c -0.0345,-0.08413 0.003,-0.216224 0.0645,-0.328125 0.0244,-0.04466 0.0299,-0.04586 0.0527,-0.07813 z"
               id="path2693" />
          </g>
        </g>
      </g>
      <g
         inkscape:label=""
         transform="matrix(1.0664947,0,0,1.065335,163.85816,-62.196144)"
         id="g3250"
         style="stroke-width:0.094882">
        <g
           id="surface1"
           transform="matrix(0.352778,0,0,0.352778,-0.308681,0.0596193)"
           style="stroke-width:0.094882">
          <g
             clip-path="url(#clipPath9828)"
             clip-rule="nonzero"
             id="g19"
             style="stroke-width:0.0283083">
            <g
               style="fill:#000000;fill-opacity:1;stroke-width:0.094882"
               id="g17">
              <g
                 id="use15"
                 transform="translate(0,11.956)"
                 style="stroke-width:0.094882">
                <path
                   style="stroke:none;stroke-width:0.094882"
                   d="m 7.671875,-6.921875 c 0.359375,0 0.484375,0 0.484375,-0.328125 0,-0.171875 -0.125,-0.171875 -0.4375,-0.171875 H 6.3125 c 0.328125,-1.765625 0.578125,-3 0.71875,-3.546875 0.09375,-0.40625 0.453125,-0.8125 0.90625,-0.8125 0.359375,0 0.71875,0.15625 0.890625,0.3125 -0.671875,0.0625 -0.875,0.5625 -0.875,0.859375 0,0.34375 0.265625,0.546875 0.59375,0.546875 0.34375,0 0.859375,-0.28125 0.859375,-0.9375 0,-0.71875 -0.734375,-1.125 -1.484375,-1.125 -0.734375,0 -1.46875,0.546875 -1.8125,1.21875 -0.3125,0.609375 -0.484375,1.234375 -0.875,3.484375 h -1.15625 c -0.328125,0 -0.5,0 -0.5,0.3125 0,0.1875 0.109375,0.1875 0.453125,0.1875 H 5.125 c -0.296875,1.59375 -1.015625,5.5 -1.40625,7.328125 -0.296875,1.5 -0.546875,2.765625 -1.40625,2.765625 -0.0625,0 -0.5625,0 -0.859375,-0.328125 0.875,-0.078125 0.875,-0.828125 0.875,-0.84375 0,-0.34375 -0.265625,-0.546875 -0.59375,-0.546875 -0.34375,0 -0.859375,0.28125 -0.859375,0.9375 0,0.75 0.765625,1.125 1.4375,1.125 1.75,0 2.46875,-3.15625 2.65625,-4.015625 0.3125,-1.328125 1.15625,-5.90625 1.25,-6.421875 z m 0,0"
                   id="path26" />
              </g>
            </g>
          </g>
        </g>
      </g>
      <g
         inkscape:label=""
         transform="matrix(1.1965867,0,0,1.1952856,127.74944,-20.632615)"
         id="g3523"
         style="stroke-width:0.0845665">
        <g
           id="g3521"
           transform="matrix(0.352778,0,0,0.352778,-0.20395,0.187986)"
           style="stroke-width:0.0845665">
          <g
             style="fill:#000000;fill-opacity:1;stroke-width:0.0845665"
             id="g14">
            <g
               id="use12"
               transform="translate(0,11.764)"
               style="stroke-width:0.0845665">
              <path
                 style="stroke:none;stroke-width:0.0845665"
                 d="M 2.921875,-1.90625 C 2.328125,-0.890625 1.734375,-0.546875 0.90625,-0.5 0.71875,-0.484375 0.578125,-0.484375 0.578125,-0.171875 0.578125,-0.0625 0.671875,0 0.796875,0 1.109375,0 1.875,-0.03125 2.1875,-0.03125 2.6875,-0.03125 3.234375,0 3.71875,0 3.828125,0 4.03125,0 4.03125,-0.328125 4.03125,-0.484375 3.890625,-0.5 3.78125,-0.5 3.390625,-0.53125 3.0625,-0.671875 3.0625,-1.078125 c 0,-0.25 0.109375,-0.4375 0.328125,-0.8125 L 4.703125,-4.0625 H 9.09375 c 0.015625,0.15625 0.015625,0.296875 0.03125,0.453125 0.046875,0.4375 0.265625,2.234375 0.265625,2.5625 C 9.390625,-0.53125 8.5,-0.5 8.234375,-0.5 c -0.1875,0 -0.375,0 -0.375,0.3125 C 7.859375,0 8,0 8.109375,0 8.40625,0 8.75,-0.03125 9.046875,-0.03125 h 0.96875 c 1.0625,0 1.8125,0.03125 1.828125,0.03125 0.125,0 0.3125,0 0.3125,-0.328125 C 12.15625,-0.5 12,-0.5 11.75,-0.5 c -0.953125,0 -0.96875,-0.15625 -1.015625,-0.671875 l -1.0625,-10.75 c -0.03125,-0.34375 -0.09375,-0.375 -0.28125,-0.375 -0.171875,0 -0.28125,0.03125 -0.4375,0.296875 z M 5,-4.5625 l 3.453125,-5.78125 0.59375,5.78125 z m 0,0"
                 id="path21" />
            </g>
          </g>
        </g>
      </g>
      <g
         inkscape:label=""
         transform="matrix(1.1003076,0,0,1.0991111,194.54882,-20.687483)"
         id="g3742"
         style="stroke-width:0.0919662">
        <g
           id="g3740"
           transform="matrix(0.352778,0,0,0.352778,-0.292144,5.73285e-4)"
           style="stroke-width:0.0919662">
          <g
             clip-path="url(#clipPath5618)"
             clip-rule="nonzero"
             id="g3738"
             style="stroke-width:0.0265952">
            <g
               style="fill:#000000;fill-opacity:1;stroke-width:0.0919662"
               id="g3736">
              <g
                 id="g3734"
                 transform="translate(0,11.764)"
                 style="stroke-width:0.0919662">
                <path
                   style="stroke:none;stroke-width:0.0919662"
                   d="m 6.296875,-10.59375 c 0.15625,-0.640625 0.234375,-0.671875 0.90625,-0.671875 H 9.4375 c 1.9375,0 1.9375,1.65625 1.9375,1.8125 0,1.390625 -1.390625,3.171875 -3.65625,3.171875 H 5.234375 Z m 2.921875,4.453125 c 1.875,-0.34375 3.578125,-1.65625 3.578125,-3.25 0,-1.34375 -1.1875,-2.375 -3.140625,-2.375 H 4.125 c -0.3125,0 -0.46875,0 -0.46875,0.328125 0,0.171875 0.15625,0.171875 0.40625,0.171875 1.046875,0 1.046875,0.140625 1.046875,0.328125 0,0.03125 0,0.140625 -0.0625,0.40625 l -2.328125,9.25 C 2.5625,-0.671875 2.53125,-0.5 1.328125,-0.5 c -0.328125,0 -0.5,0 -0.5,0.3125 C 0.828125,0 0.9375,0 1.28125,0 H 7.1875 c 2.625,0 4.65625,-2 4.65625,-3.734375 0,-1.40625 -1.234375,-2.28125 -2.625,-2.40625 z M 6.765625,-0.5 H 4.4375 c -0.234375,0 -0.265625,0 -0.375,-0.015625 C 3.875,-0.53125 3.859375,-0.5625 3.859375,-0.703125 c 0,-0.125 0.03125,-0.234375 0.0625,-0.375 L 5.125,-5.9375 h 3.25 c 2.03125,0 2.03125,1.890625 2.03125,2.03125 0,1.65625 -1.5,3.40625 -3.640625,3.40625 z m 0,0"
                   id="path3732" />
              </g>
            </g>
          </g>
        </g>
      </g>
    </g>
  </g>
</svg>
