<?xml version="1.0" encoding="UTF-8" standalone="no"?>
<!-- Created with Inkscape (http://www.inkscape.org/) -->

<svg
   width="90.032295mm"
   height="65.639694mm"
   viewBox="0 0 90.032296 65.639694"
   version="1.1"
   id="svg2778"
   inkscape:version="1.2.2 (1:1.2.2+202305151914+b0a8486541)"
   sodipodi:docname="prob-17-07-23_01.svg"
   xmlns:inkscape="http://www.inkscape.org/namespaces/inkscape"
   xmlns:sodipodi="http://sodipodi.sourceforge.net/DTD/sodipodi-0.dtd"
   xmlns="http://www.w3.org/2000/svg"
   xmlns:svg="http://www.w3.org/2000/svg">
  <sodipodi:namedview
     id="namedview2780"
     pagecolor="#ffffff"
     bordercolor="#999999"
     borderopacity="1"
     inkscape:showpageshadow="0"
     inkscape:pageopacity="0"
     inkscape:pagecheckerboard="0"
     inkscape:deskcolor="#d1d1d1"
     inkscape:document-units="mm"
     showgrid="false"
     inkscape:zoom="1"
     inkscape:cx="249.5"
     inkscape:cy="189.5"
     inkscape:window-width="1920"
     inkscape:window-height="1012"
     inkscape:window-x="0"
     inkscape:window-y="32"
     inkscape:window-maximized="1"
     inkscape:current-layer="layer1">
    <inkscape:grid
       type="xygrid"
       id="grid630"
       originx="-10.241323"
       originy="3.5981325e-05" />
  </sodipodi:namedview>
  <defs
     id="defs2775">
    <clipPath
       id="clipPath7480">
      <path
         d="M 0,3 H 9 V 14.445312 H 0 Z m 0,0"
         id="path5921" />
    </clipPath>
    <clipPath
       id="clipPath5743">
      <path
         d="M 0,3 H 9 V 14.445312 H 0 Z m 0,0"
         id="path4818" />
    </clipPath>
    <clipPath
       id="clipPath7190">
      <path
         d="M 0,0 H 7.894531 V 11.097656 H 0 Z m 0,0"
         id="path5760" />
    </clipPath>
  </defs>
  <g
     inkscape:label="Layer 1"
     inkscape:groupmode="layer"
     id="layer1"
     transform="translate(-72.370023,-82.482164)">
    <g
       id="path3625"
       style="fill:#808080;stroke-width:1.17636"
       transform="matrix(1,0,0,0.72263155,0,22.87795)">
      <path
         style="color:#000000;fill:#808080;stroke-width:1.17636;-inkscape-stroke:none"
         d="m 106.58008,84.148437 v 89.167973 h 0.26367 V 84.148437 Z"
         id="path4122" />
      <g
         id="g4116"
         style="fill:#808080;stroke-width:1.17636">
        <path
           d="m 105.97155,84.519453 0.74083,-2.037289 0.74083,2.037289 c -0.43153,-0.370416 -1.04828,-0.370416 -1.48166,0 z"
           style="fill:#808080;fill-rule:evenodd;stroke-width:0.217872"
           id="path4118" />
      </g>
    </g>
    <g
       id="path3627"
       style="fill:#808080;stroke-width:1.09823"
       transform="matrix(0.73699204,0,0,1.1249985,40.230468,-16.091403)">
      <path
         style="color:#000000;fill:#808080;stroke-width:1.09823;-inkscape-stroke:none"
         d="m 62.128906,128.59961 v 0.26562 h 89.167964 v -0.26562 z"
         id="path4106" />
      <g
         id="g4100"
         style="fill:#808080;stroke-width:1.09823">
        <path
           d="m 150.92566,127.9919 2.03729,0.74083 -2.03729,0.74083 c 0.37042,-0.43153 0.37042,-1.04828 0,-1.48166 z"
           style="fill:#808080;fill-rule:evenodd;stroke-width:0.203401"
           id="path4102" />
      </g>
    </g>
    <g
       id="path628"
       style="fill:#0000ff;stroke-width:1.04663"
       transform="matrix(0.95544368,0,0,0.95544368,6.8233817,4.2419875)">
      <path
         style="color:#000000;fill:#0000ff;stroke-width:0.523317;-inkscape-stroke:none"
         d="m 133.30707,115.03793 13.29709,-13.29708 6.35879,-6.358791"
         id="path1706" />
      <path
         style="color:#000000;fill:#0000ff;stroke-width:1.04663;-inkscape-stroke:none"
         d="m 152.78711,95.205078 -6.35938,6.359372 -13.29687,13.29688 0.35351,0.35351 13.29688,-13.29687 6.35937,-6.359376 z"
         id="path1708" />
      <g
         id="g1700"
         style="fill:#0000ff;stroke-width:1.04663">
        <path
           d="m 145.11924,101.24588 3.71231,-1.732416 -1.73242,3.712306 c -0.0817,-1.07162 -0.9058,-1.89575 -1.97989,-1.97989 z"
           style="fill:#0000ff;fill-rule:evenodd;stroke-width:0.366322"
           id="path1702" />
      </g>
    </g>
    <g
       id="path626"
       style="fill:#0000ff">
      <path
         style="color:#000000;fill:#0000ff;stroke-width:0.5;-inkscape-stroke:none"
         d="m 86.905067,95.494697 26.594183,26.594183 19.80782,19.80782"
         id="path1684" />
      <path
         style="color:#000000;fill:#0000ff;-inkscape-stroke:none"
         d="m 87.082031,95.318359 -0.353515,0.353516 26.593754,26.593755 19.80859,19.80859 0.35351,-0.35352 -19.80859,-19.80859 z"
         id="path1686" />
      <g
         id="g1678"
         style="fill:#0000ff">
        <path
           d="m 113.99422,120.60396 1.73242,3.71231 -3.71231,-1.73242 c 1.07162,-0.0817 1.89575,-0.9058 1.97989,-1.97989 z"
           style="fill:#0000ff;fill-rule:evenodd;stroke-width:0.35"
           id="path1680" />
      </g>
    </g>
    <circle
       id="circle697"
       style="fill:none;stroke:#ff0000;stroke-width:0.264583"
       cx="133.30707"
       cy="115.03793"
       r="1.25" />
    <path
       style="fill:none;stroke:#000000;stroke-width:0.264583px;stroke-linecap:butt;stroke-linejoin:miter;stroke-dasharray:0.529166, 1.5875;stroke-dashoffset:0;stroke-opacity:1"
       d="M 133.30707,96.301429 V 141.8967"
       id="path699"
       sodipodi:nodetypes="cc" />
    <circle
       id="path695"
       style="fill:#ff0000;stroke:none;stroke-width:0.264583"
       cx="133.30707"
       cy="141.8967"
       r="1.25" />
    <g
       inkscape:label=""
       transform="translate(138.57089,109.53578)"
       id="g2142">
      <g
         id="surface1"
         transform="matrix(0.352778,0,0,0.352778,-0.165365,0.0977196)">
        <g
           clip-path="url(#clipPath7480)"
           clip-rule="nonzero"
           id="g37">
          <g
             style="fill:#000000;fill-opacity:1"
             id="g35">
            <g
               id="use33"
               transform="translate(0,11.098)">
              <path
                 style="stroke:none"
                 d="m 4.53125,1.921875 c -0.46875,0.65625 -1.140625,1.25 -1.984375,1.25 -0.203125,0 -1.03125,-0.03125 -1.296875,-0.828125 0.0625,0.015625 0.140625,0.015625 0.171875,0.015625 0.53125,0 0.875,-0.453125 0.875,-0.84375 0,-0.390625 -0.328125,-0.53125 -0.59375,-0.53125 -0.28125,0 -0.875,0.203125 -0.875,1.046875 0,0.875 0.734375,1.484375 1.71875,1.484375 1.71875,0 3.46875,-1.59375 3.9375,-3.5 l 1.6875,-6.71875 c 0.03125,-0.078125 0.0625,-0.1875 0.0625,-0.28125 0,-0.265625 -0.203125,-0.4375 -0.46875,-0.4375 -0.15625,0 -0.515625,0.0625 -0.65625,0.59375 L 5.84375,-1.78125 C 5.75,-1.46875 5.75,-1.421875 5.609375,-1.234375 5.265625,-0.75 4.703125,-0.171875 3.875,-0.171875 c -0.96875,0 -1.046875,-0.953125 -1.046875,-1.40625 0,-0.984375 0.453125,-2.3125 0.921875,-3.546875 0.1875,-0.5 0.296875,-0.75 0.296875,-1.09375 0,-0.71875 -0.515625,-1.375 -1.359375,-1.375 -1.578125,0 -2.21875,2.5 -2.21875,2.640625 0,0.0625 0.0625,0.15625 0.1875,0.15625 0.15625,0 0.171875,-0.078125 0.234375,-0.3125 C 1.3125,-6.5625 1.96875,-7.25 2.640625,-7.25 c 0.15625,0 0.4375,0 0.4375,0.5625 0,0.453125 -0.1875,0.953125 -0.4375,1.609375 -0.84375,2.25 -0.84375,2.828125 -0.84375,3.234375 0,1.640625 1.171875,2.015625 2.03125,2.015625 0.5,0 1.109375,-0.15625 1.71875,-0.796875 L 5.5625,-0.609375 C 5.296875,0.40625 5.125,1.078125 4.53125,1.921875 Z m 0,0"
                 id="path60" />
            </g>
          </g>
        </g>
        <g
           style="fill:#000000;fill-opacity:1"
           id="g41">
          <g
             id="use39"
             transform="translate(13.619,11.098)">
            <path
               style="stroke:none"
               d="m 11.078125,-5.53125 c 0.25,0 0.515625,0 0.515625,-0.28125 C 11.59375,-6.125 11.296875,-6.125 11,-6.125 H 1.375 c -0.296875,0 -0.578125,0 -0.578125,0.3125 0,0.28125 0.25,0.28125 0.515625,0.28125 z M 11,-2.46875 c 0.296875,0 0.59375,0 0.59375,-0.296875 0,-0.296875 -0.265625,-0.296875 -0.515625,-0.296875 H 1.3125 c -0.265625,0 -0.515625,0 -0.515625,0.296875 0,0.296875 0.28125,0.296875 0.578125,0.296875 z m 0,0"
               id="path64" />
          </g>
        </g>
        <g
           style="fill:#000000;fill-opacity:1"
           id="g45">
          <g
             id="use43"
             transform="translate(30.792999,11.098)">
            <path
               style="stroke:none"
               d="m 8.15625,-7.03125 c -0.546875,0.109375 -0.75,0.515625 -0.75,0.84375 0,0.421875 0.328125,0.5625 0.5625,0.5625 0.515625,0 0.875,-0.453125 0.875,-0.921875 0,-0.71875 -0.8125,-1.046875 -1.546875,-1.046875 -1.046875,0 -1.625,1.03125 -1.78125,1.359375 -0.40625,-1.296875 -1.46875,-1.359375 -1.78125,-1.359375 -1.75,0 -2.6875,2.25 -2.6875,2.640625 0,0.0625 0.078125,0.15625 0.1875,0.15625 0.140625,0 0.171875,-0.109375 0.21875,-0.171875 C 2.03125,-6.890625 3.1875,-7.25 3.6875,-7.25 c 0.765625,0 0.921875,0.71875 0.921875,1.140625 0,0.375 -0.09375,0.765625 -0.296875,1.59375 L 3.71875,-2.15625 c -0.25,1.03125 -0.75,1.984375 -1.671875,1.984375 -0.078125,0 -0.515625,0 -0.875,-0.21875 0.625,-0.125 0.75,-0.640625 0.75,-0.84375 0,-0.34375 -0.25,-0.5625 -0.578125,-0.5625 -0.40625,0 -0.859375,0.375 -0.859375,0.921875 0,0.71875 0.8125,1.046875 1.546875,1.046875 0.828125,0 1.40625,-0.65625 1.78125,-1.359375 0.265625,1.015625 1.125,1.359375 1.765625,1.359375 1.75,0 2.6875,-2.25 2.6875,-2.640625 0,-0.078125 -0.0625,-0.15625 -0.171875,-0.15625 -0.15625,0 -0.171875,0.09375 -0.21875,0.234375 -0.46875,1.515625 -1.46875,2.21875 -2.25,2.21875 -0.59375,0 -0.921875,-0.453125 -0.921875,-1.15625 0,-0.375 0.0625,-0.65625 0.34375,-1.78125 l 0.59375,-2.34375 C 5.90625,-6.484375 6.484375,-7.25 7.28125,-7.25 c 0.03125,0 0.515625,0 0.875,0.21875 z m 0,0"
               id="path68" />
          </g>
        </g>
        <g
           style="fill:#000000;fill-opacity:1"
           id="g49">
          <g
             id="use47"
             transform="translate(44.198002,11.098)">
            <path
               style="stroke:none"
               d="m 11.34375,-3.953125 c 0.296875,0 0.609375,0 0.609375,-0.359375 0,-0.34375 -0.3125,-0.34375 -0.609375,-0.34375 h -9.3125 c -0.296875,0 -0.609375,0 -0.609375,0.34375 0,0.359375 0.3125,0.359375 0.609375,0.359375 z m 0,0"
               id="path72" />
          </g>
        </g>
        <g
           style="fill:#000000;fill-opacity:1"
           id="g53">
          <g
             id="use51"
             transform="translate(61.412998,11.098)">
            <path
               style="stroke:none"
               d="m 4.578125,-11 c 0,-0.359375 -0.015625,-0.375 -0.25,-0.375 -0.671875,0.796875 -1.6875,1.0625 -2.65625,1.09375 -0.046875,0 -0.140625,0 -0.15625,0.03125 C 1.5,-10.203125 1.5,-10.171875 1.5,-9.8125 c 0.53125,0 1.421875,-0.109375 2.109375,-0.515625 V -1.25 c 0,0.59375 -0.03125,0.796875 -1.515625,0.796875 H 1.578125 V 0 c 0.828125,-0.015625 1.6875,-0.03125 2.515625,-0.03125 0.828125,0 1.6875,0.015625 2.515625,0.03125 V -0.453125 H 6.09375 c -1.484375,0 -1.515625,-0.1875 -1.515625,-0.796875 z m 0,0"
               id="path76" />
          </g>
        </g>
      </g>
    </g>
    <g
       inkscape:label=""
       transform="translate(72.370023,105.96183)"
       id="g2315">
      <g
         id="g2313"
         transform="matrix(0.352778,0,0,0.352778,-0.165365,0.0977196)">
        <g
           clip-path="url(#clipPath5743)"
           clip-rule="nonzero"
           id="g2287">
          <g
             style="fill:#000000;fill-opacity:1"
             id="g2285">
            <g
               id="g2283"
               transform="translate(0,11.098)">
              <path
                 style="stroke:none"
                 d="m 4.53125,1.921875 c -0.46875,0.65625 -1.140625,1.25 -1.984375,1.25 -0.203125,0 -1.03125,-0.03125 -1.296875,-0.828125 0.0625,0.015625 0.140625,0.015625 0.171875,0.015625 0.53125,0 0.875,-0.453125 0.875,-0.84375 0,-0.390625 -0.328125,-0.53125 -0.59375,-0.53125 -0.28125,0 -0.875,0.203125 -0.875,1.046875 0,0.875 0.734375,1.484375 1.71875,1.484375 1.71875,0 3.46875,-1.59375 3.9375,-3.5 l 1.6875,-6.71875 c 0.03125,-0.078125 0.0625,-0.1875 0.0625,-0.28125 0,-0.265625 -0.203125,-0.4375 -0.46875,-0.4375 -0.15625,0 -0.515625,0.0625 -0.65625,0.59375 L 5.84375,-1.78125 C 5.75,-1.46875 5.75,-1.421875 5.609375,-1.234375 5.265625,-0.75 4.703125,-0.171875 3.875,-0.171875 c -0.96875,0 -1.046875,-0.953125 -1.046875,-1.40625 0,-0.984375 0.453125,-2.3125 0.921875,-3.546875 0.1875,-0.5 0.296875,-0.75 0.296875,-1.09375 0,-0.71875 -0.515625,-1.375 -1.359375,-1.375 -1.578125,0 -2.21875,2.5 -2.21875,2.640625 0,0.0625 0.0625,0.15625 0.1875,0.15625 0.15625,0 0.171875,-0.078125 0.234375,-0.3125 C 1.3125,-6.5625 1.96875,-7.25 2.640625,-7.25 c 0.15625,0 0.4375,0 0.4375,0.5625 0,0.453125 -0.1875,0.953125 -0.4375,1.609375 -0.84375,2.25 -0.84375,2.828125 -0.84375,3.234375 0,1.640625 1.171875,2.015625 2.03125,2.015625 0.5,0 1.109375,-0.15625 1.71875,-0.796875 L 5.5625,-0.609375 C 5.296875,0.40625 5.125,1.078125 4.53125,1.921875 Z m 0,0"
                 id="path2281" />
            </g>
          </g>
        </g>
        <g
           style="fill:#000000;fill-opacity:1"
           id="g2293">
          <g
             id="g2291"
             transform="translate(13.619,11.098)">
            <path
               style="stroke:none"
               d="m 11.078125,-5.53125 c 0.25,0 0.515625,0 0.515625,-0.28125 C 11.59375,-6.125 11.296875,-6.125 11,-6.125 H 1.375 c -0.296875,0 -0.578125,0 -0.578125,0.3125 0,0.28125 0.25,0.28125 0.515625,0.28125 z M 11,-2.46875 c 0.296875,0 0.59375,0 0.59375,-0.296875 0,-0.296875 -0.265625,-0.296875 -0.515625,-0.296875 H 1.3125 c -0.265625,0 -0.515625,0 -0.515625,0.296875 0,0.296875 0.28125,0.296875 0.578125,0.296875 z m 0,0"
               id="path2289" />
          </g>
        </g>
        <g
           style="fill:#000000;fill-opacity:1"
           id="g2299">
          <g
             id="g2297"
             transform="translate(30.796526,11.098)">
            <path
               style="stroke:none"
               d="m 4.578125,-11 c 0,-0.359375 -0.015625,-0.375 -0.25,-0.375 -0.671875,0.796875 -1.6875,1.0625 -2.65625,1.09375 -0.046875,0 -0.140625,0 -0.15625,0.03125 C 1.5,-10.203125 1.5,-10.171875 1.5,-9.8125 c 0.53125,0 1.421875,-0.109375 2.109375,-0.515625 V -1.25 c 0,0.59375 -0.03125,0.796875 -1.515625,0.796875 H 1.578125 V 0 c 0.828125,-0.015625 1.6875,-0.03125 2.515625,-0.03125 0.828125,0 1.6875,0.015625 2.515625,0.03125 V -0.453125 H 6.09375 c -1.484375,0 -1.515625,-0.1875 -1.515625,-0.796875 z m 0,0"
               id="path2295" />
          </g>
        </g>
        <g
           style="fill:#000000;fill-opacity:1"
           id="g2305">
          <g
             id="g2303"
             transform="translate(42.514,11.098)">
            <path
               style="stroke:none"
               d="m 11.34375,-3.953125 c 0.296875,0 0.609375,0 0.609375,-0.359375 0,-0.34375 -0.3125,-0.34375 -0.609375,-0.34375 h -9.3125 c -0.296875,0 -0.609375,0 -0.609375,0.34375 0,0.359375 0.3125,0.359375 0.609375,0.359375 z m 0,0"
               id="path2301" />
          </g>
        </g>
        <g
           style="fill:#000000;fill-opacity:1"
           id="g2311">
          <g
             id="g2309"
             transform="translate(59.73,11.098)">
            <path
               style="stroke:none"
               d="m 8.15625,-7.03125 c -0.546875,0.109375 -0.75,0.515625 -0.75,0.84375 0,0.421875 0.328125,0.5625 0.5625,0.5625 0.515625,0 0.875,-0.453125 0.875,-0.921875 0,-0.71875 -0.8125,-1.046875 -1.546875,-1.046875 -1.046875,0 -1.625,1.03125 -1.78125,1.359375 -0.40625,-1.296875 -1.46875,-1.359375 -1.78125,-1.359375 -1.75,0 -2.6875,2.25 -2.6875,2.640625 0,0.0625 0.078125,0.15625 0.1875,0.15625 0.140625,0 0.171875,-0.109375 0.21875,-0.171875 C 2.03125,-6.890625 3.1875,-7.25 3.6875,-7.25 c 0.765625,0 0.921875,0.71875 0.921875,1.140625 0,0.375 -0.09375,0.765625 -0.296875,1.59375 L 3.71875,-2.15625 c -0.25,1.03125 -0.75,1.984375 -1.671875,1.984375 -0.078125,0 -0.515625,0 -0.875,-0.21875 0.625,-0.125 0.75,-0.640625 0.75,-0.84375 0,-0.34375 -0.25,-0.5625 -0.578125,-0.5625 -0.40625,0 -0.859375,0.375 -0.859375,0.921875 0,0.71875 0.8125,1.046875 1.546875,1.046875 0.828125,0 1.40625,-0.65625 1.78125,-1.359375 0.265625,1.015625 1.125,1.359375 1.765625,1.359375 1.75,0 2.6875,-2.25 2.6875,-2.640625 0,-0.078125 -0.0625,-0.15625 -0.171875,-0.15625 -0.15625,0 -0.171875,0.09375 -0.21875,0.234375 -0.46875,1.515625 -1.46875,2.21875 -2.25,2.21875 -0.59375,0 -0.921875,-0.453125 -0.921875,-1.15625 0,-0.375 0.0625,-0.65625 0.34375,-1.78125 l 0.59375,-2.34375 C 5.90625,-6.484375 6.484375,-7.25 7.28125,-7.25 c 0.03125,0 0.515625,0 0.875,0.21875 z m 0,0"
               id="path2307" />
          </g>
        </g>
      </g>
    </g>
    <g
       inkscape:label=""
       transform="matrix(0.65728738,0,0,0.65728738,134.4313,129.5017)"
       id="g2478"
       style="stroke-width:1.5214">
      <g
         id="g2476"
         transform="matrix(0.352778,0,0,0.352778,-0.248047,0.0980722)"
         style="stroke-width:1.5214">
        <g
           clip-path="url(#clipPath7190)"
           clip-rule="nonzero"
           id="g19"
           style="stroke-width:2.31467">
          <g
             style="fill:#000000;fill-opacity:1;stroke-width:1.5214"
             id="g17">
            <g
               id="use15"
               transform="translate(0,11.097)"
               style="stroke-width:1.5214">
              <path
                 style="stroke:none;stroke-width:1.5214"
                 d="M 7.1875,-2.671875 H 6.875 c -0.171875,1.21875 -0.3125,1.4375 -0.390625,1.53125 C 6.40625,-1 5.171875,-1 4.921875,-1 H 1.625 c 0.609375,-0.671875 1.8125,-1.890625 3.28125,-3.3125 1.046875,-0.984375 2.28125,-2.15625 2.28125,-3.859375 0,-2.03125 -1.625,-3.203125 -3.4375,-3.203125 -1.890625,0 -3.046875,1.65625 -3.046875,3.21875 0,0.671875 0.5,0.75 0.703125,0.75 0.171875,0 0.6875,-0.09375 0.6875,-0.703125 0,-0.53125 -0.4375,-0.6875 -0.6875,-0.6875 -0.09375,0 -0.203125,0.015625 -0.265625,0.046875 0.328125,-1.453125 1.328125,-2.1875 2.375,-2.1875 1.5,0 2.46875,1.1875 2.46875,2.765625 0,1.484375 -0.875,2.78125 -1.859375,3.90625 l -3.421875,3.875 V 0 h 6.0625 z m 0,0"
                 id="path26" />
            </g>
          </g>
        </g>
      </g>
    </g>
    <circle
       id="circle2854"
       style="fill:#000000;stroke:none;stroke-width:0.264583"
       cx="133.30707"
       cy="128.58296"
       r="1.25" />
  </g>
</svg>
