<?xml version="1.0" encoding="UTF-8" standalone="no"?>
<!-- Created with Inkscape (http://www.inkscape.org/) -->

<svg
   id="svg5"
   version="1.1"
   viewBox="0 0 163.27361 119.15054"
   height="119.15054mm"
   width="163.27361mm"
   sodipodi:docname="prob-06-02-23_01.svg"
   inkscape:version="1.2.2 (1:1.2.2+202212051550+b0a8486541)"
   xmlns:inkscape="http://www.inkscape.org/namespaces/inkscape"
   xmlns:sodipodi="http://sodipodi.sourceforge.net/DTD/sodipodi-0.dtd"
   xmlns="http://www.w3.org/2000/svg"
   xmlns:svg="http://www.w3.org/2000/svg">
  <sodipodi:namedview
     id="namedview7"
     pagecolor="#ffffff"
     bordercolor="#999999"
     borderopacity="1"
     inkscape:showpageshadow="0"
     inkscape:pageopacity="0"
     inkscape:pagecheckerboard="0"
     inkscape:deskcolor="#d1d1d1"
     inkscape:document-units="mm"
     showgrid="false"
     inkscape:zoom="1.4142136"
     inkscape:cx="303.34881"
     inkscape:cy="271.88256"
     inkscape:window-width="1600"
     inkscape:window-height="832"
     inkscape:window-x="0"
     inkscape:window-y="32"
     inkscape:window-maximized="1"
     inkscape:current-layer="g2297" />
  <defs
     id="defs2">
    <marker
       style="overflow:visible"
       id="marker1499"
       refX="0"
       refY="0"
       orient="auto-start-reverse"
       inkscape:stockid="Arrow2"
       markerWidth="7.6999998"
       markerHeight="5.5999999"
       viewBox="0 0 7.7 5.6"
       inkscape:isstock="true"
       inkscape:collect="always"
       preserveAspectRatio="xMidYMid">
      <path
         transform="scale(0.7)"
         d="M -2,-4 9,0 -2,4 c 2,-2.33 2,-5.66 0,-8 z"
         style="fill:context-stroke;fill-rule:evenodd;stroke:none"
         id="path1497" />
    </marker>
    <clipPath
       id="clipPath1137">
      <path
         d="m 12,27 h 10 v 7.746094 H 12 Z m 0,0"
         id="path8964" />
    </clipPath>
    <clipPath
       id="clipPath5243">
      <path
         d="m 9,15 h 7 v 5.648438 H 9 Z m 0,0"
         id="path1536" />
    </clipPath>
  </defs>
  <g
     inkscape:label="Layer 1"
     inkscape:groupmode="layer"
     id="layer1"
     transform="translate(-0.87424707,-77.138965)">
    <path
       style="fill:#999999;stroke:#666666;stroke-width:0.465;-inkscape-stroke:none;marker-end:url(#marker1499);paint-order:fill stroke markers;stop-color:#000000"
       d="M 81.046296,194.43136 V 80.068465"
       id="path456" />
    <path
       style="color:#000000;fill:#4d4d4d;stroke-width:0.465;-inkscape-stroke:none;paint-order:fill stroke markers"
       d="M 0.87424707,177.21931 H 161.21836"
       id="path2307" />
    <path
       style="color:#000000;fill:#4d4d4d;-inkscape-stroke:none;paint-order:fill stroke markers"
       d="m 0.875,176.98633 v 0.46484 h 160.34375 v -0.46484 z"
       id="path2309" />
    <g
       id="g2297"
       style="fill:#4d4d4d">
      <path
         d="m 160.56736,175.91731 3.5805,1.302 -3.5805,1.302 c 0.651,-0.75841 0.651,-1.84233 0,-2.604 z"
         style="fill:#4d4d4d;fill-rule:evenodd;stroke-width:0.3255"
         id="path2303" />
    </g>
    <path
       style="fill:none;stroke:#0000ff;stroke-width:0.75;-inkscape-stroke:none;paint-order:fill stroke markers;stop-color:#000000"
       d="m 20.805702,166.36449 c 0.04015,0.0103 0.08046,0.022 0.120609,0.0337 0.04015,0.0103 0.08045,0.022 0.120609,0.0352 0.04015,0.0117 0.08045,0.0249 0.120609,0.0381 0.04015,0.0132 0.08045,0.0264 0.120609,0.0396 0.04015,0.0146 0.08045,0.0293 0.120609,0.044 0.04015,0.0147 0.08031,0.0293 0.120609,0.0454 0.04015,0.0161 0.08031,0.0322 0.120609,0.0484 0.04015,0.0176 0.08031,0.0337 0.120609,0.0513 0.04015,0.0176 0.08031,0.0352 0.120608,0.0542 0.04015,0.0176 0.08031,0.0366 0.120609,0.0557 0.04016,0.019 0.08031,0.0396 0.120609,0.0586 0.04015,0.0205 0.08031,0.041 0.120463,0.0616 0.0403,0.022 0.08045,0.0425 0.120609,0.0645 0.0403,0.022 0.08046,0.044 0.120609,0.0674 0.0403,0.022 0.08045,0.0454 0.120609,0.0689 0.0403,0.0234 0.08046,0.0469 0.120609,0.0718 0.0403,0.0249 0.08045,0.0484 0.120609,0.0747 0.0403,0.0249 0.08046,0.0498 0.120609,0.0762 0.0403,0.0264 0.08045,0.0528 0.120609,0.0806 0.04015,0.0264 0.08046,0.0542 0.120609,0.0821 0.04015,0.0278 0.08046,0.0557 0.120609,0.0835 0.04015,0.0293 0.08046,0.0586 0.120609,0.0879 0.04015,0.0293 0.08046,0.0601 0.120609,0.0894 0.04015,0.0308 0.08045,0.0616 0.120609,0.0923 0.04015,0.0322 0.08045,0.063 0.120609,0.0953 0.04015,0.0322 0.08031,0.0645 0.120609,0.0982 0.04015,0.0322 0.08031,0.0659 0.120609,0.0997 0.04015,0.0337 0.08031,0.0674 0.120609,0.10258 0.04015,0.0337 0.08031,0.0689 0.120609,0.10405 0.04015,0.0352 0.08031,0.0718 0.120609,0.10844 0.04015,0.0352 0.08031,0.0718 0.120608,0.10845 0.04015,0.0381 0.08031,0.0747 0.120463,0.11284 0.0403,0.0381 0.08046,0.0762 0.120609,0.11431 0.0403,0.0396 0.08046,0.0777 0.120609,0.11724 0.0403,0.0396 0.08046,0.0791 0.120609,0.12017 0.0403,0.0396 0.08046,0.0806 0.120609,0.12163 0.0403,0.041 0.08046,0.0821 0.120609,0.12457 0.0403,0.041 0.08046,0.0835 0.120609,0.12603 0.0403,0.0425 0.08046,0.085 0.120609,0.12896 0.04015,0.044 0.08046,0.0865 0.120609,0.13189 0.04015,0.044 0.08046,0.0879 0.120609,0.13336 0.04015,0.044 0.08046,0.0894 0.120609,0.13483 0.04015,0.0454 0.08046,0.0923 0.120609,0.13775 0.04015,0.0469 0.08046,0.0938 0.120609,0.14069 0.04015,0.0469 0.08045,0.0952 0.120609,0.14215 0.04015,0.0484 0.08031,0.0967 0.120609,0.14508 0.04015,0.0484 0.08031,0.0982 0.120609,0.14655 0.04015,0.0498 0.08031,0.0996 0.120609,0.14948 0.04015,0.0498 0.08031,0.10112 0.120609,0.15094 0.04015,0.0513 0.08031,0.10259 0.120609,0.15388 0.04015,0.0513 0.08031,0.10258 0.120609,0.15534 0.04015,0.0513 0.08031,0.10405 0.120608,0.15681 0.04015,0.0528 0.08031,0.10551 0.120463,0.15973 0.0403,0.0528 0.08045,0.10698 0.120609,0.16121 0.0403,0.0542 0.08046,0.10844 0.120609,0.16266 0.0403,0.0557 0.08045,0.10991 0.120609,0.1656 0.0403,0.0557 0.08046,0.11138 0.120609,0.16707 0.0403,0.0572 0.08045,0.11284 0.120609,0.16999 0.0403,0.0557 0.08046,0.11284 0.120609,0.17 0.04015,0.0572 0.08045,0.11577 0.120609,0.17293 0.04015,0.0586 0.08046,0.11723 0.120609,0.17439 0.04015,0.0586 0.08045,0.1187 0.120609,0.17732 0.04015,0.0586 0.08046,0.1187 0.120609,0.17732 0.04015,0.0601 0.08045,0.12017 0.120609,0.18026 0.04015,0.0601 0.08046,0.12163 0.120609,0.18172 0.04015,0.0601 0.08046,0.12163 0.120609,0.18318 0.04015,0.0616 0.08031,0.1231 0.120609,0.18465 0.04015,0.0616 0.08031,0.12457 0.120609,0.18612 0.04015,0.063 0.08031,0.12603 0.120609,0.18904 0.04015,0.063 0.08031,0.12604 0.120609,0.18905 0.04015,0.063 0.08031,0.1275 0.120609,0.19051 0.04015,0.0645 0.08031,0.12897 0.120609,0.19345 0.04015,0.063 0.08031,0.12896 0.120462,0.19344 0.0403,0.0645 0.08046,0.12896 0.120609,0.19491 0.0403,0.0659 0.08046,0.13043 0.120609,0.19637 0.0403,0.0659 0.08046,0.1319 0.120609,0.19784 0.0403,0.066 0.08046,0.13336 0.120609,0.19931 0.0403,0.0659 0.08046,0.13336 0.120609,0.20077 0.0403,0.0674 0.08046,0.13336 0.120609,0.20077 0.0403,0.0674 0.08046,0.13482 0.120609,0.2037 0.04015,0.0674 0.08046,0.13483 0.120609,0.2037 0.04015,0.0674 0.08046,0.13629 0.120609,0.20517 0.04015,0.0674 0.08046,0.13629 0.120609,0.20517 0.04015,0.0689 0.08046,0.13775 0.120609,0.20663 0.04015,0.0703 0.08046,0.13922 0.120609,0.2081 0.04015,0.0703 0.08046,0.13922 0.120609,0.20956 0.04015,0.0689 0.08031,0.13922 0.120609,0.20957 0.04015,0.0703 0.08031,0.14068 0.120609,0.21103 0.04015,0.0703 0.08031,0.14068 0.120609,0.21102 0.04015,0.0703 0.08031,0.14069 0.120609,0.2125 0.04015,0.0703 0.08031,0.14215 0.120609,0.21249 0.04015,0.0718 0.08031,0.14215 0.120609,0.21396 0.04015,0.0703 0.08031,0.14215 0.120609,0.21396 0.04015,0.0718 0.08031,0.14362 0.120462,0.21396 0.0403,0.0718 0.08046,0.14362 0.120609,0.21543 0.0403,0.0718 0.08046,0.14362 0.120609,0.21689 0.0403,0.0718 0.08046,0.14362 0.120609,0.21543 0.0403,0.0718 0.08045,0.14508 0.120609,0.21689 0.0403,0.0718 0.08046,0.14508 0.120609,0.21689 0.0403,0.0733 0.08046,0.14508 0.120609,0.21689 0.04015,0.0733 0.08046,0.14508 0.120609,0.21835 0.04015,0.0718 0.08045,0.14509 0.120609,0.21836 0.04015,0.0718 0.08046,0.14508 0.120609,0.21689 0.04015,0.0733 0.08046,0.14655 0.120609,0.21836 0.04015,0.0733 0.08046,0.14655 0.120609,0.21836 0.04015,0.0733 0.08045,0.14654 0.120609,0.21835 0.04015,0.0733 0.08031,0.14508 0.120609,0.21836 0.04015,0.0733 0.08031,0.14508 0.120609,0.21835 0.04015,0.0733 0.08031,0.14509 0.120609,0.21836 0.04015,0.0733 0.08031,0.14508 0.120609,0.21836 0.04015,0.0718 0.08031,0.14508 0.120609,0.21689 0.04015,0.0733 0.08031,0.14508 0.120609,0.21836 0.04015,0.0718 0.08031,0.14508 0.120609,0.21689 0.04015,0.0733 0.08031,0.14508 0.120462,0.21689 0.0403,0.0733 0.08046,0.14508 0.120609,0.21689 0.0403,0.0718 0.08046,0.14362 0.120609,0.21689 0.0403,0.0718 0.08046,0.14362 0.120609,0.21542 0.0403,0.0718 0.08046,0.14362 0.120609,0.21543 0.0403,0.0703 0.08046,0.14215 0.120609,0.21396 0.0403,0.0718 0.08046,0.14215 0.120609,0.21396 0.04015,0.0703 0.08046,0.14215 0.120609,0.21249 0.04015,0.0718 0.08046,0.14216 0.120609,0.2125 0.04015,0.0718 0.08046,0.14215 0.120609,0.21249 0.04015,0.0703 0.08046,0.14069 0.120609,0.21103 0.04015,0.0703 0.08046,0.14069 0.120609,0.20957 0.04015,0.0703 0.08046,0.13922 0.120609,0.20956 0.04015,0.0689 0.08046,0.13922 0.120609,0.2081 0.04015,0.0689 0.08031,0.13775 0.120609,0.20663 0.04015,0.0689 0.08031,0.13776 0.120609,0.20663 0.04015,0.0689 0.08031,0.13629 0.120609,0.20517 0.04015,0.0674 0.08031,0.13629 0.120609,0.2037 0.04015,0.0674 0.08031,0.13483 0.120609,0.20224 0.04015,0.0674 0.08031,0.13482 0.120609,0.20077 0.04015,0.0674 0.08031,0.13336 0.120462,0.20077 0.0403,0.066 0.08046,0.13189 0.120609,0.19784 0.0403,0.0659 0.08046,0.13189 0.120609,0.19784 0.0403,0.066 0.08046,0.13043 0.120609,0.19491 0.0403,0.0659 0.08046,0.13043 0.120609,0.19491 0.0403,0.0645 0.08046,0.12896 0.120609,0.19197 0.0403,0.0645 0.08046,0.1275 0.120609,0.19198 0.0403,0.063 0.08045,0.12603 0.120609,0.18905 0.04015,0.063 0.08046,0.12457 0.120609,0.18758 0.04015,0.0615 0.08046,0.1231 0.120609,0.18465 0.04015,0.063 0.08046,0.1231 0.120609,0.18465 0.04015,0.0616 0.08045,0.12164 0.120609,0.18172 0.04015,0.0601 0.08046,0.12017 0.120609,0.18026 0.04015,0.0601 0.08046,0.12016 0.120609,0.17878 0.04015,0.0586 0.08031,0.11724 0.120609,0.17586 0.04015,0.0586 0.08031,0.11724 0.120609,0.17439 0.04015,0.0572 0.08031,0.11431 0.120609,0.17146 0.04015,0.0572 0.08031,0.11431 0.120609,0.17 0.04015,0.0572 0.08031,0.11284 0.120609,0.16853 0.04015,0.0542 0.08031,0.10991 0.120609,0.16413 0.04015,0.0557 0.08031,0.10992 0.120609,0.16414 0.04015,0.0528 0.08031,0.10698 0.120462,0.15974 0.0403,0.0542 0.08046,0.10698 0.120609,0.15827 0.0403,0.0528 0.08046,0.10405 0.120609,0.1568 0.0403,0.0513 0.08046,0.10259 0.120609,0.15241 0.0403,0.0513 0.08046,0.10112 0.120609,0.15095 0.0403,0.0498 0.08046,0.0996 0.120609,0.14801 0.0403,0.0498 0.08046,0.0982 0.120609,0.14655 0.04015,0.0469 0.08046,0.0953 0.120609,0.14215 0.04015,0.0469 0.08046,0.0938 0.120609,0.14069 0.04015,0.0454 0.08046,0.0923 0.120609,0.13629 0.04015,0.0454 0.08046,0.0909 0.120609,0.13482 0.04015,0.0454 0.08046,0.0894 0.120609,0.13189 0.04015,0.044 0.08046,0.0865 0.120609,0.12897 0.04015,0.0425 0.08031,0.085 0.120609,0.12603 0.04015,0.041 0.08031,0.0821 0.120609,0.1231 0.04015,0.0396 0.08031,0.0791 0.120609,0.1187 0.04015,0.0396 0.08031,0.0791 0.120609,0.11724 0.04015,0.0381 0.08031,0.0762 0.120609,0.11284 0.04015,0.0381 0.08031,0.0747 0.120609,0.11138 0.04015,0.0352 0.08031,0.0718 0.120609,0.10698 0.04015,0.0352 0.08031,0.0689 0.120462,0.10405 0.0403,0.0337 0.08046,0.0674 0.120609,0.0996 0.0403,0.0337 0.08046,0.0659 0.120609,0.0982 0.0403,0.0308 0.08046,0.063 0.120609,0.0938 0.0403,0.0308 0.08046,0.0601 0.120609,0.0894 0.0403,0.0293 0.08046,0.0586 0.120609,0.0879 0.0403,0.0278 0.08046,0.0557 0.120609,0.0835 0.04015,0.0264 0.08046,0.0528 0.120609,0.0791 0.04015,0.0264 0.08046,0.0513 0.120609,0.0762 0.04015,0.0249 0.08045,0.0498 0.120609,0.0733 0.04015,0.0234 0.08046,0.0469 0.120609,0.0689 0.04015,0.022 0.08046,0.044 0.120609,0.0645 0.04015,0.022 0.08046,0.0425 0.120609,0.0616 0.04015,0.0205 0.08045,0.0396 0.120609,0.0586 0.04015,0.0176 0.08031,0.0366 0.120609,0.0542 0.04015,0.0161 0.08031,0.0337 0.120609,0.0498 0.04015,0.0161 0.08031,0.0308 0.120609,0.0454 0.04015,0.0147 0.08031,0.0293 0.120609,0.0425 0.04015,0.0132 0.08031,0.0264 0.120609,0.0381 0.04015,0.0132 0.08031,0.0249 0.120609,0.0352 0.04015,0.0103 0.08031,0.0205 0.120462,0.0308 0.0403,0.009 0.08046,0.0176 0.120609,0.0264 0.0403,0.007 0.08046,0.0147 0.120609,0.022 0.0403,0.006 0.08046,0.0117 0.120609,0.0176 0.0403,0.006 0.08046,0.0103 0.120609,0.0147 0.0403,0.003 0.08046,0.007 0.120609,0.009 0.0403,0.003 0.08046,0.004 0.120609,0.006 0.0403,0.001 0.08046,0.001 0.120609,0.001 0.04015,0 0.08046,-0.001 0.120609,-0.003 0.04015,-10e-4 0.08046,-0.004 0.120609,-0.007 0.04015,-0.003 0.08046,-0.007 0.120609,-0.0117 0.04015,-0.004 0.08046,-0.009 0.120609,-0.0146 0.04015,-0.007 0.08046,-0.0132 0.120609,-0.0205 0.04015,-0.007 0.08046,-0.0161 0.120609,-0.0249 0.04015,-0.009 0.08031,-0.019 0.120609,-0.0293 0.04015,-0.0103 0.08031,-0.022 0.120609,-0.0337 0.04015,-0.0117 0.08031,-0.0249 0.120609,-0.0381 0.04015,-0.0132 0.08031,-0.0278 0.120609,-0.0425 0.04015,-0.0146 0.08031,-0.0308 0.120609,-0.0469 0.04015,-0.0161 0.08031,-0.0337 0.120609,-0.0513 0.04015,-0.0176 0.08031,-0.0366 0.120609,-0.0557 0.04015,-0.0205 0.08031,-0.0396 0.120462,-0.0616 0.0403,-0.0205 0.08046,-0.0425 0.120609,-0.0645 0.0403,-0.0234 0.08046,-0.0469 0.120609,-0.0703 0.0403,-0.0234 0.08046,-0.0484 0.120609,-0.0747 0.0403,-0.0249 0.08046,-0.0513 0.120609,-0.0791 0.0403,-0.0264 0.08046,-0.0557 0.120609,-0.0835 0.0403,-0.0293 0.08046,-0.0586 0.120609,-0.0894 0.04015,-0.0293 0.08046,-0.0601 0.120609,-0.0923 0.04015,-0.0322 0.08046,-0.0645 0.120609,-0.0982 0.04015,-0.0337 0.08046,-0.0674 0.120609,-0.10259 0.04015,-0.0352 0.08046,-0.0718 0.120609,-0.10844 0.04015,-0.0366 0.08046,-0.0733 0.120609,-0.11138 0.04015,-0.0381 0.08046,-0.0777 0.120609,-0.11724 0.04015,-0.0396 0.08046,-0.0806 0.120609,-0.12163 0.04015,-0.0425 0.08031,-0.0835 0.120609,-0.1275 0.04015,-0.0425 0.08031,-0.0865 0.120609,-0.13043 0.04015,-0.0454 0.08031,-0.0909 0.120609,-0.13629 0.04015,-0.0469 0.08031,-0.0938 0.120609,-0.14215 0.04015,-0.0469 0.08031,-0.0967 0.120609,-0.14508 0.04015,-0.0498 0.08031,-0.0996 0.120609,-0.15094 0.04015,-0.0513 0.08031,-0.10259 0.120462,-0.15535 0.0403,-0.0528 0.08046,-0.10698 0.120609,-0.1612 0.0403,-0.0542 0.08045,-0.10991 0.120609,-0.1656 0.0403,-0.0557 0.08046,-0.11284 0.120609,-0.16999 0.0403,-0.0572 0.08046,-0.11578 0.120609,-0.1744 0.0403,-0.0601 0.08046,-0.12016 0.120609,-0.18025 0.0403,-0.0615 0.08045,-0.1231 0.120609,-0.18465 0.04015,-0.063 0.08046,-0.12603 0.120609,-0.19051 0.04015,-0.0645 0.08046,-0.12896 0.120609,-0.19491 0.04015,-0.0645 0.08046,-0.13189 0.120609,-0.19931 0.04015,-0.0674 0.08046,-0.13482 0.120609,-0.2037 0.04015,-0.0689 0.08046,-0.13922 0.120609,-0.20956 0.04015,-0.0703 0.08046,-0.14215 0.120609,-0.21396 0.04015,-0.0718 0.08046,-0.14508 0.120609,-0.21836 0.04015,-0.0747 0.08031,-0.14948 0.120609,-0.22422 0.04015,-0.0762 0.08031,-0.15241 0.120609,-0.22861 0.04015,-0.0777 0.08031,-0.15534 0.120609,-0.23448 0.04015,-0.0777 0.08031,-0.1568 0.120609,-0.23741 0.04015,-0.0806 0.08031,-0.1612 0.120609,-0.24327 0.04015,-0.0821 0.08031,-0.16559 0.120609,-0.24766 0.04015,-0.0835 0.08031,-0.16853 0.120462,-0.25353 0.0403,-0.085 0.08046,-0.17146 0.120609,-0.25792 0.0403,-0.0865 0.08046,-0.1744 0.120609,-0.26232 0.0403,-0.0879 0.08046,-0.17733 0.120609,-0.26672 0.0403,-0.0909 0.08046,-0.18172 0.120609,-0.27258 0.0403,-0.0909 0.08046,-0.18319 0.120609,-0.27698 0.0403,-0.0923 0.08046,-0.18611 0.120609,-0.28137 0.0403,-0.0952 0.08046,-0.19051 0.120609,-0.28577 0.04015,-0.0967 0.08046,-0.19344 0.120609,-0.29163 0.04015,-0.0982 0.08046,-0.19637 0.120609,-0.29602 0.04015,-0.0997 0.08046,-0.19931 0.120609,-0.30043 0.04015,-0.10112 0.08046,-0.20223 0.120609,-0.30482 0.04015,-0.10258 0.08046,-0.20516 0.120609,-0.30921 0.04015,-0.10405 0.08046,-0.20957 0.120609,-0.31508 0.04015,-0.10552 0.08031,-0.2125 0.120609,-0.31948 0.04015,-0.10698 0.08031,-0.21396 0.120609,-0.3224 0.04015,-0.10991 0.08031,-0.21836 0.120609,-0.32827 0.04015,-0.11138 0.08031,-0.22129 0.120609,-0.33266 0.04015,-0.11285 0.08031,-0.22422 0.120609,-0.33853 0.04015,-0.11284 0.08031,-0.22715 0.120609,-0.34146 0.04015,-0.1143 0.08031,-0.23008 0.120609,-0.34585 0.04015,-0.11577 0.08031,-0.23301 0.120462,-0.35025 0.0403,-0.1187 0.08046,-0.23594 0.120609,-0.35611 0.0403,-0.1187 0.08046,-0.23887 0.120609,-0.35904 0.0403,-0.12017 0.08046,-0.24181 0.120609,-0.36344 0.0403,-0.1231 0.08045,-0.24474 0.120609,-0.3693 0.0403,-0.1231 0.08046,-0.24767 0.120609,-0.37223 0.0403,-0.12457 0.08046,-0.2506 0.120609,-0.37663 0.04015,-0.12603 0.08046,-0.25353 0.120609,-0.38103 0.04015,-0.12749 0.08045,-0.25646 0.120609,-0.38542 0.04015,-0.12896 0.08046,-0.25939 0.120609,-0.38982 0.04015,-0.13042 0.08046,-0.26085 0.120609,-0.39275 0.04015,-0.13189 0.08046,-0.26525 0.120609,-0.39861 0.04015,-0.13335 0.08045,-0.26671 0.120609,-0.40154 0.04015,-0.13482 0.08046,-0.26965 0.120609,-0.40593 0.04015,-0.13629 0.08031,-0.27258 0.120609,-0.41034 0.04015,-0.13775 0.08031,-0.27551 0.120609,-0.41326 0.04015,-0.13923 0.08031,-0.27845 0.120609,-0.41913 0.04015,-0.13922 0.08031,-0.27991 0.120609,-0.42059 0.04015,-0.14216 0.08031,-0.28431 0.120609,-0.42646 0.04015,-0.14215 0.08031,-0.28577 0.120609,-0.42938 0.04015,-0.14362 0.08031,-0.2887 0.120462,-0.43379 0.0403,-0.14508 0.08046,-0.29016 0.120609,-0.43671 0.0403,-0.14655 0.08046,-0.2931 0.120609,-0.44111 0.0403,-0.14801 0.08046,-0.29603 0.120609,-0.44404 0.0403,-0.14948 0.08046,-0.29896 0.120609,-0.44844 0.0403,-0.14947 0.08046,-0.30042 0.120609,-0.45136 0.0403,-0.15095 0.08046,-0.30336 0.120609,-0.45577 0.04015,-0.15241 0.08046,-0.30482 0.120609,-0.45869 0.04015,-0.15388 0.08046,-0.30775 0.120609,-0.46163 0.04015,-0.15534 0.08046,-0.31068 0.120609,-0.46602 0.04015,-0.15534 0.08046,-0.31215 0.120609,-0.46896 0.04015,-0.1568 0.08046,-0.31361 0.120609,-0.47188 0.04015,-0.15827 0.08046,-0.31654 0.120609,-0.47628 0.04015,-0.15827 0.08046,-0.31801 0.120609,-0.47775 0.04015,-0.1612 0.08031,-0.32094 0.120609,-0.48214 0.04015,-0.1612 0.08031,-0.32387 0.120609,-0.48507 0.04015,-0.16267 0.08031,-0.32534 0.120609,-0.48801 0.04015,-0.16413 0.08031,-0.3268 0.120609,-0.49093 0.04015,-0.1656 0.08031,-0.32974 0.120609,-0.49534 0.04015,-0.16413 0.08031,-0.32973 0.120609,-0.49679 0.04015,-0.1656 0.08031,-0.33267 0.120462,-0.49973 0.0403,-0.16707 0.08046,-0.33413 0.120609,-0.50266 0.0403,-0.16853 0.08046,-0.33706 0.120609,-0.50559 0.0403,-0.16853 0.08045,-0.33853 0.120609,-0.50852 0.0403,-0.16853 0.08046,-0.34 0.120609,-0.50999 0.0403,-0.17146 0.08046,-0.34146 0.120609,-0.51292 0.0403,-0.17146 0.08046,-0.34439 0.120609,-0.51585 0.0403,-0.17292 0.08045,-0.34585 0.120609,-0.51878 0.04015,-0.17292 0.08046,-0.34732 0.120609,-0.52171 0.04015,-0.17292 0.08046,-0.34732 0.120609,-0.52317 0.04015,-0.1744 0.08046,-0.34879 0.120609,-0.52465 0.04015,-0.17585 0.08045,-0.35171 0.120609,-0.52757 0.04015,-0.17586 0.08046,-0.35318 0.120609,-0.5305 0.04015,-0.17733 0.08046,-0.35465 0.120609,-0.53197 0.04015,-0.17732 0.08031,-0.35611 0.120609,-0.53344 0.04015,-0.17878 0.08031,-0.35757 0.120609,-0.53636 0.04015,-0.17879 0.08031,-0.35904 0.120609,-0.53783 0.04015,-0.18026 0.08031,-0.36051 0.120609,-0.54076 0.04015,-0.18026 0.08031,-0.36051 0.120609,-0.54077 0.04015,-0.18172 0.08031,-0.36344 0.120609,-0.54369 0.04015,-0.18172 0.08031,-0.36344 0.120609,-0.54516 0.04015,-0.18318 0.08031,-0.3649 0.120462,-0.54809 0.0403,-0.18172 0.08046,-0.3649 0.120609,-0.54809 0.0403,-0.18318 0.08046,-0.36637 0.120609,-0.54955 0.0403,-0.18465 0.08046,-0.36784 0.120609,-0.55249 0.0403,-0.18318 0.08046,-0.36783 0.120609,-0.55248 0.0403,-0.18465 0.08046,-0.3693 0.120609,-0.55396 0.0403,-0.18465 0.08046,-0.3693 0.120609,-0.55541 0.04015,-0.18465 0.08046,-0.37077 0.120609,-0.55688 0.04015,-0.18465 0.08046,-0.37077 0.120609,-0.55689 0.04015,-0.18611 0.08046,-0.37223 0.120609,-0.55981 0.04015,-0.18612 0.08046,-0.37223 0.120609,-0.55981 0.04015,-0.18612 0.08046,-0.3737 0.120609,-0.55982 0.04015,-0.18758 0.08046,-0.37516 0.120609,-0.56127 0.04015,-0.18759 0.08046,-0.37517 0.120609,-0.56275 0.04015,-0.18758 0.08031,-0.37516 0.120609,-0.56274 0.04015,-0.18905 0.08031,-0.37663 0.120609,-0.56421 0.04015,-0.18758 0.08031,-0.37663 0.120609,-0.56421 0.04015,-0.18905 0.08031,-0.37663 0.120609,-0.56568 0.04015,-0.18758 0.08031,-0.37663 0.120609,-0.56421 0.04015,-0.18904 0.08031,-0.37809 0.120609,-0.56567 0.04015,-0.18905 0.08031,-0.3781 0.120462,-0.56714 0.0403,-0.18758 0.08046,-0.37663 0.120609,-0.56568 0.0403,-0.18905 0.08046,-0.37809 0.120609,-0.56714 0.0403,-0.18758 0.08046,-0.37663 0.120609,-0.56567 0.0403,-0.18905 0.08046,-0.3781 0.120609,-0.56714 0.0403,-0.18905 0.08046,-0.3781 0.120609,-0.56568 0.0403,-0.18905 0.08046,-0.37809 0.120609,-0.56714 0.0403,-0.18905 0.08045,-0.37809 0.120609,-0.56568 0.04015,-0.18904 0.08046,-0.37809 0.120609,-0.56714 0.04015,-0.18758 0.08046,-0.37662 0.120609,-0.56567 0.04015,-0.18758 0.08046,-0.37663 0.120609,-0.56568 0.04015,-0.18758 0.08046,-0.37663 0.120609,-0.56421 0.04015,-0.18758 0.08046,-0.37662 0.120609,-0.56421 0.04015,-0.18758 0.08046,-0.37662 0.120609,-0.56421 0.04015,-0.18758 0.08031,-0.37516 0.120609,-0.56274 0.04015,-0.18758 0.08031,-0.37516 0.120609,-0.56274 0.04015,-0.18759 0.08031,-0.37517 0.120609,-0.56128 0.04015,-0.18758 0.08031,-0.3737 0.120609,-0.56128 0.04015,-0.18612 0.08031,-0.3737 0.120609,-0.55982 0.04015,-0.18611 0.08031,-0.37223 0.120609,-0.55834 0.04015,-0.18612 0.08031,-0.37223 0.120462,-0.55835 0.0403,-0.18612 0.08046,-0.37077 0.120609,-0.55688 0.0403,-0.18465 0.08046,-0.3693 0.120609,-0.55542 0.0403,-0.18465 0.08046,-0.3693 0.120609,-0.55395 0.0403,-0.18465 0.08046,-0.36784 0.120609,-0.55249 0.0403,-0.18318 0.08046,-0.36783 0.120609,-0.55102 0.0403,-0.18318 0.08046,-0.36637 0.120609,-0.54955 0.0403,-0.18319 0.08046,-0.36637 0.120609,-0.54809 0.04015,-0.18319 0.08046,-0.36491 0.120609,-0.54663 0.04015,-0.18171 0.08046,-0.36343 0.120609,-0.54515 0.04015,-0.18172 0.08046,-0.36198 0.120609,-0.5437 0.04015,-0.18025 0.08046,-0.3605 0.120609,-0.54076 0.04015,-0.18025 0.08046,-0.36051 0.120609,-0.5393 0.04015,-0.17878 0.08046,-0.35904 0.120609,-0.53783 0.04015,-0.17878 0.08031,-0.35611 0.120609,-0.5349 0.04015,-0.17732 0.08031,-0.35611 0.120609,-0.53343 0.04015,-0.17732 0.08031,-0.35318 0.120609,-0.5305 0.04015,-0.17586 0.08031,-0.35319 0.120609,-0.52904 0.04015,-0.17586 0.08031,-0.35025 0.120609,-0.52611 0.04015,-0.17439 0.08031,-0.34878 0.120609,-0.52318 0.04015,-0.17439 0.08031,-0.34878 0.120609,-0.52171 0.04015,-0.17439 0.08031,-0.34732 0.120462,-0.51878 0.0403,-0.17292 0.08046,-0.34438 0.120609,-0.51731 0.0403,-0.17146 0.08046,-0.34292 0.120609,-0.51292 0.0403,-0.17146 0.08046,-0.34146 0.120609,-0.51145 0.0403,-0.17 0.08046,-0.33853 0.120609,-0.50706 0.0403,-0.16999 0.08046,-0.33852 0.120609,-0.50559 0.0403,-0.16853 0.08046,-0.33559 0.120609,-0.50266 0.04015,-0.16706 0.08046,-0.33266 0.120609,-0.49973 0.04015,-0.1656 0.08046,-0.33119 0.120609,-0.49533 0.04015,-0.1656 0.08046,-0.32973 0.120609,-0.49387 0.04015,-0.16266 0.08046,-0.3268 0.120609,-0.48947 0.04015,-0.16266 0.08046,-0.32533 0.120609,-0.48653 0.04015,-0.16121 0.08046,-0.32241 0.120609,-0.48361 0.04015,-0.15974 0.08045,-0.31948 0.120609,-0.47921 0.04015,-0.15974 0.08031,-0.31801 0.120609,-0.47629 0.04015,-0.15827 0.08031,-0.31654 0.120609,-0.47335 0.04015,-0.1568 0.08031,-0.31361 0.120609,-0.46895 0.04015,-0.15681 0.08031,-0.31068 0.120609,-0.46602 0.04015,-0.15388 0.08031,-0.30922 0.120609,-0.46163 0.04015,-0.15387 0.08031,-0.30628 0.120609,-0.45869 0.04015,-0.15241 0.08031,-0.30336 0.120462,-0.4543 0.0403,-0.15095 0.08046,-0.30042 0.120609,-0.4499 0.0403,-0.14948 0.08046,-0.29896 0.120609,-0.44698 0.0403,-0.14801 0.08046,-0.29602 0.120609,-0.44257 0.0403,-0.14655 0.08046,-0.2931 0.120609,-0.43818 0.0403,-0.14655 0.08046,-0.29016 0.120609,-0.43525 0.0403,-0.14361 0.08046,-0.28723 0.120609,-0.42938 0.0403,-0.14362 0.08046,-0.2843 0.120609,-0.42646 0.04015,-0.14068 0.08046,-0.28137 0.120609,-0.42205 0.04015,-0.13922 0.08046,-0.27845 0.120609,-0.4162 0.04015,-0.13922 0.08046,-0.27698 0.120609,-0.41327 0.04015,-0.13775 0.08046,-0.27257 0.120609,-0.40886 0.04015,-0.13483 0.08046,-0.26965 0.120609,-0.40301 0.04015,-0.13483 0.08046,-0.26818 0.120609,-0.40008 0.04015,-0.13189 0.08031,-0.26378 0.120609,-0.39421 0.04015,-0.13189 0.08031,-0.26086 0.120609,-0.38982 0.04015,-0.13043 0.08031,-0.25792 0.120609,-0.38542 0.04015,-0.1275 0.08031,-0.25499 0.120609,-0.38102 0.04015,-0.12604 0.08031,-0.25207 0.120609,-0.37517 0.04015,-0.12456 0.08031,-0.24913 0.120609,-0.37076 0.04015,-0.1231 0.08031,-0.2462 0.120463,-0.36637 0.0403,-0.12164 0.08045,-0.24181 0.120609,-0.36051 0.0403,-0.12017 0.08045,-0.23888 0.120608,-0.35611 0.0403,-0.11871 0.08046,-0.23448 0.120609,-0.35172 0.0403,-0.11577 0.08046,-0.23154 0.120609,-0.34585 0.0403,-0.11431 0.08046,-0.22715 0.120609,-0.33999 0.0403,-0.11285 0.08046,-0.22422 0.120609,-0.3356 0.0403,-0.10991 0.08046,-0.22129 0.120609,-0.32973 0.04015,-0.10845 0.08046,-0.216892 0.120609,-0.325337 0.04015,-0.10698 0.08046,-0.212495 0.120609,-0.319475 0.04015,-0.105515 0.08046,-0.209564 0.120609,-0.313613 0.04015,-0.104049 0.08046,-0.206632 0.120609,-0.30775 0.04015,-0.102584 0.08046,-0.203702 0.120609,-0.303355 0.04015,-0.09965 0.08046,-0.199305 0.120609,-0.297492 0.04015,-0.09819 0.08031,-0.196374 0.120609,-0.291631 0.04015,-0.09672 0.08031,-0.191977 0.120609,-0.287234 0.04015,-0.09379 0.08031,-0.187581 0.120609,-0.281372 0.04015,-0.09233 0.08031,-0.183185 0.120609,-0.274044 0.04015,-0.09086 0.08031,-0.180254 0.120609,-0.269649 0.04015,-0.08939 0.08031,-0.177323 0.120609,-0.263786 0.04015,-0.08646 0.08031,-0.172927 0.120609,-0.257924 0.04015,-0.085 0.08031,-0.168531 0.120463,-0.252063 0.0403,-0.08353 0.08045,-0.165599 0.120609,-0.246201 0.0403,-0.0806 0.08045,-0.161202 0.120609,-0.240338 0.0403,-0.07914 0.08045,-0.156807 0.120608,-0.234477 0.0403,-0.07621 0.08046,-0.15241 0.120609,-0.228615 0.0403,-0.07474 0.08046,-0.149479 0.120609,-0.221287 0.0403,-0.07327 0.08045,-0.146548 0.120609,-0.216891 0.04016,-0.07181 0.08046,-0.142152 0.120609,-0.211029 0.04015,-0.06888 0.08046,-0.13629 0.120609,-0.203702 0.04015,-0.06741 0.08046,-0.133359 0.120609,-0.19784 0.04015,-0.06595 0.08046,-0.128962 0.120609,-0.191978 0.04015,-0.06302 0.08046,-0.126031 0.120609,-0.186116 0.04015,-0.06155 0.08046,-0.121634 0.120609,-0.180254 0.04015,-0.05862 0.08046,-0.117238 0.120609,-0.172926 0.04015,-0.05715 0.08031,-0.112842 0.120609,-0.16853 0.04015,-0.05422 0.08031,-0.108446 0.120609,-0.161203 0.04015,-0.05129 0.08031,-0.104049 0.120609,-0.153875 0.04015,-0.05129 0.08031,-0.09965 0.120609,-0.149479 0.04015,-0.04836 0.08031,-0.09526 0.120609,-0.142152 0.04015,-0.04543 0.08031,-0.09086 0.120609,-0.134824 0.04015,-0.04396 0.08031,-0.08793 0.120463,-0.130428 0.0403,-0.04103 0.08045,-0.08207 0.120609,-0.1231 0.0403,-0.03957 0.08045,-0.07914 0.120609,-0.115773 0.0403,-0.0381 0.08045,-0.07474 0.120609,-0.111376 0.0403,-0.03517 0.08045,-0.07034 0.120609,-0.104049 0.0403,-0.03371 0.08045,-0.06595 0.120608,-0.09672 0.0403,-0.03224 0.08046,-0.06155 0.120609,-0.09086 0.0403,-0.02931 0.08046,-0.05862 0.120609,-0.085 0.04015,-0.02784 0.08046,-0.05276 0.120609,-0.07767 0.04015,-0.02638 0.08046,-0.04983 0.120609,-0.07181 0.04016,-0.02345 0.08046,-0.04543 0.120609,-0.06595 0.04015,-0.02052 0.08046,-0.03957 0.120609,-0.05862 0.04015,-0.01905 0.08046,-0.03517 0.120609,-0.05276 0.04015,-0.01612 0.08046,-0.03077 0.120609,-0.04543 0.04015,-0.01319 0.08031,-0.02638 0.120609,-0.03957 0.04015,-0.01172 0.08031,-0.02198 0.120609,-0.03224 0.04015,-0.01026 0.08031,-0.01759 0.120609,-0.02638 0.04015,-0.0073 0.08031,-0.01319 0.120609,-0.01905 0.04015,-0.0059 0.08031,-0.01026 0.120609,-0.01319 0.04015,-0.0029 0.08031,-0.0059 0.120609,-0.0059 0.04015,-0.0015 0.08031,-0.0015 0.120609,0 0.04015,0 0.08031,0.0029 0.120463,0.0059 0.0403,0.0029 0.08045,0.0073 0.120609,0.01319 0.0403,0.0059 0.08045,0.01172 0.120609,0.01905 0.0403,0.0088 0.08045,0.01612 0.120609,0.02638 0.0403,0.01026 0.08045,0.02052 0.120609,0.03224 0.0403,0.01319 0.08045,0.02638 0.120609,0.03957 0.0403,0.01465 0.08045,0.02931 0.120608,0.04543 0.04015,0.01759 0.08046,0.03371 0.120609,0.05276 0.04015,0.01905 0.08046,0.0381 0.120609,0.05862 0.04015,0.02052 0.08046,0.0425 0.120609,0.06595 0.04015,0.02198 0.08046,0.04543 0.120609,0.07181 0.04015,0.02491 0.08046,0.04983 0.120609,0.07767 0.04015,0.02638 0.08045,0.05569 0.120609,0.085 0.04016,0.02931 0.08031,0.05862 0.120609,0.09086 0.04015,0.03078 0.08031,0.06302 0.120609,0.09672 0.04015,0.03371 0.08031,0.06888 0.120609,0.104049 0.04015,0.03664 0.08031,0.07327 0.120609,0.111376 0.04015,0.03664 0.08031,0.07621 0.120609,0.115773 0.04015,0.04103 0.08031,0.08207 0.120609,0.1231 0.04015,0.0425 0.08031,0.08646 0.120609,0.130428 0.04015,0.04396 0.08031,0.08939 0.120463,0.134824 0.0403,0.0469 0.08045,0.09379 0.120609,0.142152 0.0403,0.04983 0.08045,0.09819 0.120609,0.149479 0.0403,0.04983 0.08045,0.102583 0.120609,0.153875 0.0403,0.05276 0.08045,0.10698 0.120609,0.161203 0.0403,0.05569 0.08045,0.111376 0.120609,0.16853 0.0403,0.05569 0.08045,0.114307 0.120609,0.172926 0.04015,0.05862 0.08045,0.118704 0.120608,0.180254 0.04016,0.06009 0.08046,0.123101 0.120609,0.186116 0.04015,0.06302 0.08046,0.126032 0.120609,0.191978 0.04015,0.06448 0.08046,0.130428 0.120609,0.19784 0.04015,0.06741 0.08046,0.134824 0.120609,0.203702 0.04015,0.06888 0.08046,0.13922 0.120609,0.211029 0.04015,0.07034 0.08046,0.143617 0.120609,0.216891 0.04015,0.07181 0.08031,0.146548 0.120609,0.221287 0.04015,0.0762 0.08031,0.15241 0.120609,0.228615 0.04015,0.07767 0.08031,0.155341 0.120609,0.234477 0.04015,0.07914 0.08031,0.159737 0.120609,0.240338 0.04015,0.0806 0.08031,0.162669 0.120609,0.246201 0.04015,0.08353 0.08031,0.167065 0.120609,0.252063 0.04015,0.085 0.08031,0.171461 0.120463,0.257924 0.0403,0.08646 0.08046,0.174392 0.120609,0.263786 0.0403,0.0894 0.08045,0.178789 0.120609,0.269649 0.0403,0.09086 0.08045,0.181719 0.120609,0.274044 0.0403,0.09379 0.08045,0.187582 0.120609,0.281372 0.0403,0.09526 0.08045,0.190513 0.120609,0.287234 0.0403,0.09526 0.08045,0.193444 0.120609,0.291631 0.0403,0.09819 0.08045,0.19784 0.120609,0.297492 0.04015,0.09965 0.08045,0.200771 0.120609,0.303355 0.04015,0.101118 0.08045,0.203701 0.120608,0.30775 0.04015,0.104049 0.08046,0.208098 0.120609,0.313613 0.04015,0.10698 0.08045,0.212495 0.120609,0.319475 0.04016,0.108445 0.08046,0.216887 0.120609,0.325337 0.04015,0.10844 0.08046,0.21982 0.120609,0.32973 0.04015,0.11138 0.08031,0.22275 0.120609,0.3356 0.04015,0.11284 0.08031,0.22568 0.120609,0.33999 0.04015,0.11431 0.08031,0.23008 0.120609,0.34585 0.04015,0.11724 0.08031,0.23301 0.120609,0.35172 0.04015,0.11723 0.08031,0.23594 0.120609,0.35611 0.04015,0.1187 0.08031,0.23887 0.120609,0.36051 0.04015,0.12017 0.08031,0.24327 0.120609,0.36637 0.04015,0.12163 0.08031,0.2462 0.120463,0.37076 0.0403,0.1231 0.08046,0.24913 0.120609,0.37517 0.0403,0.12603 0.08046,0.25352 0.120609,0.38102 0.0403,0.1275 0.08045,0.25499 0.120609,0.38542 0.0403,0.12896 0.08045,0.25793 0.120609,0.38982 0.0403,0.13043 0.08045,0.26232 0.120609,0.39421 0.0403,0.1319 0.08045,0.26525 0.120609,0.40008 0.04015,0.13336 0.08045,0.26818 0.120609,0.40301 0.04015,0.13629 0.08045,0.27111 0.120609,0.40886 0.04015,0.13629 0.08045,0.27405 0.120609,0.41327 0.04015,0.13775 0.08045,0.27698 0.120608,0.4162 0.04015,0.14068 0.08046,0.28137 0.120609,0.42205 0.04015,0.14216 0.08046,0.28284 0.120609,0.42646 0.04015,0.14215 0.08031,0.28577 0.120609,0.42938 0.04016,0.14509 0.08031,0.2887 0.120609,0.43525 0.04015,0.14508 0.08031,0.29163 0.120609,0.43818 0.04015,0.14655 0.08031,0.29456 0.120609,0.44257 0.04015,0.14802 0.08031,0.2975 0.120609,0.44698 0.04015,0.14948 0.08031,0.29895 0.120609,0.4499 0.04015,0.15094 0.08031,0.30189 0.120609,0.4543 0.04015,0.15241 0.08031,0.30482 0.120463,0.45869 0.0403,0.15241 0.08046,0.30775 0.120609,0.46163 0.0403,0.15534 0.08046,0.30921 0.120609,0.46602 0.0403,0.15534 0.08046,0.31215 0.120609,0.46895 0.0403,0.15681 0.08046,0.31508 0.120609,0.47335 0.0403,0.15828 0.08045,0.31655 0.120609,0.47629 0.0403,0.15973 0.08045,0.31947 0.120609,0.47921 0.04015,0.1612 0.08045,0.3224 0.120609,0.48361 0.04015,0.1612 0.08045,0.32387 0.120609,0.48653 0.04015,0.16267 0.08045,0.32681 0.120609,0.48947 0.04015,0.16414 0.08045,0.32827 0.120609,0.49387 0.04015,0.16414 0.08045,0.32973 0.120609,0.49533 0.04015,0.16707 0.08045,0.33267 0.120608,0.49973 0.04015,0.16707 0.08046,0.33413 0.120609,0.50266 0.04015,0.16707 0.08031,0.3356 0.120609,0.50559 0.04015,0.16853 0.08031,0.33706 0.120609,0.50706 0.04015,0.16999 0.08031,0.33999 0.120609,0.51145 0.04015,0.17 0.08031,0.34146 0.120609,0.51292 0.04016,0.17293 0.08031,0.34439 0.120609,0.51731 0.04015,0.17146 0.08031,0.34439 0.120609,0.51878 0.04015,0.17293 0.08031,0.34732 0.120463,0.52171 0.0403,0.1744 0.08046,0.34879 0.120609,0.52318 0.0403,0.17586 0.08046,0.35025 0.120609,0.52611 0.0403,0.17585 0.08046,0.35318 0.120609,0.52904 0.0403,0.17732 0.08046,0.35318 0.120609,0.5305 0.0403,0.17732 0.08046,0.35611 0.120609,0.53343 0.0403,0.17879 0.08046,0.35612 0.120609,0.5349 0.0403,0.17879 0.08045,0.35905 0.120609,0.53783 0.04015,0.17879 0.08045,0.35905 0.120609,0.5393 0.04015,0.18026 0.08045,0.36051 0.120609,0.54076 0.04015,0.18172 0.08045,0.36198 0.120609,0.5437 0.04015,0.18172 0.08045,0.36344 0.120609,0.54515 0.04015,0.18172 0.08045,0.36344 0.120609,0.54663 0.04015,0.18172 0.08045,0.3649 0.120609,0.54809 0.04015,0.18318 0.08031,0.36637 0.120608,0.54955 0.04015,0.18319 0.08031,0.36784 0.120609,0.55102 0.04015,0.18465 0.08031,0.36784 0.120609,0.55249 0.04015,0.18465 0.08031,0.3693 0.120609,0.55395 0.04015,0.18612 0.08031,0.37077 0.120609,0.55542 0.04015,0.18611 0.08031,0.37076 0.120609,0.55688 0.04015,0.18612 0.08031,0.37223 0.120609,0.55835 0.04016,0.18611 0.08031,0.37223 0.120463,0.55834 0.0403,0.18612 0.08046,0.3737 0.120609,0.55982 0.0403,0.18758 0.08046,0.3737 0.120609,0.56128 0.0403,0.18611 0.08046,0.37369 0.120609,0.56128 0.0403,0.18758 0.08046,0.37516 0.120609,0.56274 0.0403,0.18758 0.08046,0.37516 0.120609,0.56274 0.0403,0.18759 0.08046,0.37663 0.120609,0.56421 0.04015,0.18759 0.08046,0.37663 0.120609,0.56421 0.04015,0.18758 0.08045,0.37663 0.120609,0.56421 0.04015,0.18905 0.08045,0.3781 0.120609,0.56568 0.04015,0.18905 0.08045,0.37809 0.120609,0.56567 0.04015,0.18905 0.08045,0.3781 0.120609,0.56714 0.04015,0.18759 0.08045,0.37663 0.120609,0.56568 0.04015,0.18905 0.08045,0.37809 0.120609,0.56714 0.04015,0.18758 0.08031,0.37663 0.120609,0.56568 0.04015,0.18904 0.08031,0.37809 0.120608,0.56714 0.04015,0.18904 0.08031,0.37809 0.120609,0.56567 0.04015,0.18905 0.08031,0.37809 0.120609,0.56714 0.04015,0.18905 0.08031,0.3781 0.120609,0.56568 0.04015,0.18904 0.08031,0.37809 0.120609,0.56714 0.04015,0.18758 0.08031,0.37663 0.120463,0.56567 0.0403,0.18758 0.08046,0.37663 0.120609,0.56421 0.0403,0.18905 0.08046,0.37663 0.120609,0.56568 0.0403,0.18758 0.08046,0.37663 0.120609,0.56421 0.0403,0.18758 0.08046,0.37516 0.120609,0.56421 0.0403,0.18758 0.08046,0.37516 0.120609,0.56274 0.0403,0.18758 0.08046,0.37516 0.120609,0.56275 0.04015,0.18611 0.08046,0.37369 0.120609,0.56127 0.04015,0.18612 0.08046,0.3737 0.120609,0.55982 0.04015,0.18758 0.08046,0.37369 0.120609,0.55981 0.04015,0.18758 0.08045,0.3737 0.120609,0.55981 0.04015,0.18612 0.08045,0.37224 0.120609,0.55689 0.04015,0.18611 0.08045,0.37223 0.120609,0.55688 0.04015,0.18611 0.08045,0.37076 0.120609,0.55541 0.04015,0.18466 0.08031,0.36931 0.120607,0.55396 0.0402,0.18465 0.0803,0.3693 0.12061,0.55248 0.0401,0.18465 0.0803,0.36784 0.12061,0.55249 0.0401,0.18318 0.0803,0.36637 0.12061,0.54955 0.0401,0.18319 0.0803,0.36637 0.12061,0.54809 0.0401,0.18319 0.0803,0.36491 0.12061,0.54809 0.0401,0.18172 0.0803,0.36344 0.12046,0.54516 0.0403,0.18025 0.0805,0.36197 0.12061,0.54369 0.0403,0.18026 0.0804,0.36051 0.12061,0.54077 0.0403,0.18025 0.0804,0.3605 0.12061,0.54076 0.0403,0.17879 0.0804,0.35904 0.1206,0.53783 0.0403,0.17879 0.0805,0.35758 0.12061,0.53636 0.0403,0.17733 0.0805,0.35612 0.12061,0.53344 0.0403,0.17732 0.0805,0.35464 0.12061,0.53197 0.0402,0.17732 0.0805,0.35464 0.12061,0.5305 0.0401,0.17586 0.0805,0.35172 0.12061,0.52757 0.0401,0.17586 0.0804,0.35025 0.12061,0.52465 0.0401,0.17585 0.0804,0.35025 0.12061,0.52317 0.0401,0.17439 0.0804,0.34879 0.12061,0.52171 0.0402,0.17293 0.0804,0.34586 0.12061,0.51878 0.0402,0.17146 0.0803,0.34439 0.1206,0.51585 0.0402,0.17146 0.0803,0.34146 0.12061,0.51292 0.0402,0.16999 0.0803,0.34146 0.12061,0.50999 0.0402,0.16999 0.0803,0.33999 0.12061,0.50852 0.0402,0.16853 0.0803,0.33706 0.12061,0.50559 0.0401,0.16853 0.0803,0.33559 0.12061,0.50266 0.0401,0.16706 0.0803,0.33413 0.12061,0.49973 0.0401,0.16706 0.0803,0.33266 0.12046,0.49679 0.0403,0.1656 0.0805,0.32974 0.12061,0.49534 0.0403,0.16413 0.0805,0.3268 0.12061,0.49093 0.0403,0.16267 0.0804,0.32534 0.12061,0.48801 0.0403,0.1612 0.0804,0.32387 0.12061,0.48507 0.0403,0.1612 0.0804,0.32094 0.12061,0.48214 0.0403,0.15974 0.0804,0.31948 0.1206,0.47775 0.0402,0.15974 0.0805,0.31801 0.12061,0.47628 0.0402,0.15827 0.0805,0.31508 0.12061,0.47188 0.0402,0.15681 0.0805,0.31362 0.12061,0.46896 0.0402,0.15534 0.0805,0.31068 0.12061,0.46602 0.0401,0.15388 0.0805,0.30775 0.12061,0.46163 0.0401,0.15387 0.0804,0.30628 0.12061,0.45869 0.0401,0.15241 0.0804,0.30482 0.12061,0.45577 0.0402,0.15094 0.0803,0.30189 0.12061,0.45136 0.0402,0.14948 0.0803,0.29896 0.12061,0.44844 0.0402,0.14801 0.0803,0.29603 0.1206,0.44404 0.0402,0.14801 0.0803,0.29456 0.12061,0.44111 0.0402,0.14655 0.0803,0.29163 0.12061,0.43671 0.0402,0.14509 0.0803,0.29017 0.12061,0.43379 0.0402,0.14361 0.0803,0.28723 0.12046,0.42938 0.0403,0.14215 0.0805,0.2843 0.12061,0.42646 0.0403,0.14068 0.0805,0.28137 0.12061,0.42059 0.0403,0.14068 0.0805,0.2799 0.12061,0.41913 0.0403,0.13775 0.0805,0.27551 0.12061,0.41326 0.0403,0.13776 0.0804,0.27405 0.12061,0.41034 0.0403,0.13628 0.0804,0.27111 0.12061,0.40593 0.0401,0.13483 0.0804,0.26819 0.12061,0.40154 0.0401,0.13336 0.0804,0.26672 0.12061,0.39861 0.0401,0.1319 0.0804,0.26233 0.1206,0.39275 0.0402,0.13043 0.0805,0.26086 0.12061,0.38982 0.0402,0.12896 0.0805,0.25793 0.12061,0.38542 0.0402,0.1275 0.0805,0.255 0.12061,0.38103 0.0402,0.12603 0.0805,0.25206 0.12061,0.37663 0.0401,0.12456 0.0803,0.24913 0.12061,0.37223 0.0402,0.12456 0.0803,0.2462 0.12061,0.3693 0.0402,0.12163 0.0803,0.24327 0.12061,0.36344 0.0402,0.12017 0.0803,0.24034 0.12061,0.35904 0.0402,0.12017 0.0803,0.23741 0.12061,0.35611 0.0401,0.11724 0.0803,0.23448 0.1206,0.35025 0.0402,0.11577 0.0803,0.23155 0.12047,0.34585 0.0403,0.11431 0.0804,0.22862 0.12061,0.34146 0.0403,0.11431 0.0804,0.22568 0.1206,0.33853 0.0403,0.11137 0.0805,0.22128 0.12061,0.33266 0.0403,0.10991 0.0805,0.21836 0.12061,0.32827 0.0403,0.10844 0.0805,0.21542 0.12061,0.3224 0.0403,0.10698 0.0805,0.21396 0.12017,0.31948 0.041,0.10551 0.0806,0.21103 0.12164,0.31508 0.0396,0.10405 0.0791,0.20663 0.12017,0.30921 0.0396,0.10259 0.0806,0.2037 0.12016,0.30482 0.041,0.10112 0.0806,0.20077 0.12164,0.30043 0.0396,0.0996 0.0791,0.19784 0.12017,0.29602 0.0396,0.0982 0.0806,0.19491 0.12017,0.29163 0.041,0.0953 0.0806,0.19052 0.12017,0.28577 0.041,0.0953 0.0806,0.18905 0.12163,0.28137 0.0396,0.0938 0.0806,0.18612 0.12017,0.27698 0.0396,0.0909 0.0806,0.18172 0.12017,0.27258 0.041,0.0894 0.0806,0.17879 0.12164,0.26672 0.0396,0.0879 0.0791,0.17585 0.12017,0.26232 0.0396,0.0865 0.0806,0.17292 0.12016,0.25792 0.041,0.085 0.0806,0.17 0.12017,0.25353 0.041,0.0821 0.0806,0.1656 0.12164,0.24766 0.0396,0.0821 0.0806,0.16267 0.12017,0.24327 0.0396,0.0806 0.0806,0.15974 0.12017,0.23741 0.041,0.0791 0.0806,0.15681 0.12163,0.23448 0.0396,0.0762 0.0791,0.15241 0.12017,0.22861 0.0396,0.0747 0.0806,0.14948 0.12017,0.22422 0.041,0.0733 0.0806,0.14655 0.12164,0.21836 0.0396,0.0718 0.0791,0.14362 0.12016,0.21396 0.0396,0.0703 0.0806,0.14068 0.12017,0.20956 0.041,0.0689 0.0806,0.13629 0.12017,0.2037 0.041,0.0674 0.0806,0.13483 0.12164,0.19931 0.0396,0.0659 0.0806,0.13043 0.12017,0.19491 0.0396,0.0645 0.0806,0.12749 0.12017,0.19051 0.041,0.0615 0.0806,0.1231 0.12163,0.18465 0.0396,0.0601 0.0791,0.12017 0.12017,0.18025 0.0396,0.0586 0.0806,0.11724 0.12017,0.1744 0.041,0.0571 0.0806,0.1143 0.12017,0.16999 0.041,0.0557 0.0806,0.11138 0.12163,0.1656 0.0396,0.0542 0.0806,0.10845 0.12017,0.1612 0.0396,0.0528 0.0806,0.10405 0.12017,0.15535 0.041,0.0513 0.0806,0.10111 0.12164,0.15094 0.0396,0.0484 0.0806,0.0982 0.12017,0.14508 0.0396,0.0484 0.0806,0.0953 0.12017,0.14215 0.041,0.0454 0.0806,0.0909 0.12163,0.13629 0.0396,0.044 0.0791,0.0879 0.12017,0.13043 0.0396,0.044 0.0806,0.085 0.12017,0.1275 0.041,0.041 0.0806,0.0821 0.12017,0.12163 0.041,0.0396 0.0806,0.0791 0.12163,0.11724 0.0396,0.0381 0.0806,0.0747 0.12017,0.11138 0.0396,0.0366 0.0806,0.0733 0.12017,0.10844 0.041,0.0352 0.0806,0.0689 0.12164,0.10259 0.0396,0.0337 0.0791,0.0659 0.12017,0.0982 0.0396,0.0322 0.0806,0.063 0.12017,0.0923 0.041,0.0308 0.0806,0.0601 0.12017,0.0894 0.041,0.0279 0.0806,0.0572 0.12163,0.0835 0.0396,0.0278 0.0806,0.0542 0.12017,0.0791 0.041,0.0264 0.0806,0.0513 0.12017,0.0747 0.041,0.0234 0.0806,0.0469 0.12163,0.0703 0.0396,0.022 0.0806,0.044 0.12017,0.0645 0.0396,0.022 0.0806,0.041 0.12017,0.0616 0.041,0.019 0.0806,0.0381 0.12164,0.0557 0.0396,0.0176 0.0791,0.0352 0.12017,0.0513 0.0396,0.0161 0.0806,0.0322 0.12017,0.0469 0.041,0.0147 0.0806,0.0293 0.12017,0.0425 0.041,0.0132 0.0806,0.0264 0.12163,0.0381 0.0396,0.0117 0.0806,0.0234 0.12017,0.0337 0.0396,0.0103 0.0806,0.0205 0.12017,0.0293 0.041,0.009 0.0806,0.0176 0.12163,0.0249 0.0396,0.007 0.0791,0.0132 0.12017,0.0205 0.0396,0.006 0.0806,0.0103 0.12017,0.0146 0.041,0.004 0.0806,0.009 0.12164,0.0117 0.0396,0.003 0.0791,0.006 0.12017,0.007 0.0396,0.001 0.0806,0.003 0.12017,0.003 0.041,0 0.0806,0 0.12017,-0.001 0.041,-0.001 0.0806,-0.003 0.12163,-0.006 0.0396,-0.001 0.0806,-0.006 0.12017,-0.009 0.0396,-0.004 0.0806,-0.009 0.12017,-0.0147 0.041,-0.006 0.0806,-0.0117 0.12163,-0.0176 0.0396,-0.007 0.0791,-0.0147 0.12017,-0.022 0.0396,-0.009 0.0806,-0.0176 0.12017,-0.0264 0.041,-0.0103 0.0806,-0.0205 0.12017,-0.0308 0.041,-0.0103 0.0806,-0.022 0.12164,-0.0352 0.0396,-0.0117 0.0806,-0.0249 0.12017,-0.0381 0.0396,-0.0132 0.0806,-0.0278 0.12017,-0.0425 0.041,-0.0147 0.0806,-0.0293 0.12163,-0.0454 0.0396,-0.0161 0.0791,-0.0337 0.12017,-0.0498 0.0396,-0.0176 0.0806,-0.0366 0.12017,-0.0542 0.041,-0.0191 0.0806,-0.0381 0.12163,-0.0586 0.0396,-0.0191 0.0791,-0.0396 0.12017,-0.0616 0.0396,-0.0205 0.0806,-0.0425 0.12017,-0.0645 0.041,-0.022 0.0806,-0.0454 0.12017,-0.0689 0.041,-0.0234 0.0806,-0.0484 0.12164,-0.0733 0.0396,-0.0249 0.0806,-0.0498 0.12017,-0.0762 0.0396,-0.0264 0.0806,-0.0528 0.12017,-0.0791 0.041,-0.0278 0.0806,-0.0557 0.12163,-0.0835 0.0396,-0.0293 0.0791,-0.0586 0.12017,-0.0879 0.0396,-0.0293 0.0806,-0.0586 0.12017,-0.0894 0.041,-0.0308 0.0806,-0.063 0.12017,-0.0938 0.041,-0.0322 0.0806,-0.0645 0.12163,-0.0982 0.0396,-0.0322 0.0806,-0.066 0.12017,-0.0996 0.0396,-0.0352 0.0806,-0.0689 0.12017,-0.10405 0.041,-0.0352 0.0806,-0.0718 0.12164,-0.10698 0.0396,-0.0366 0.0806,-0.0733 0.12017,-0.11138 0.0396,-0.0366 0.0806,-0.0747 0.12016,-0.11284 0.041,-0.0381 0.0806,-0.0777 0.12164,-0.11724 0.0396,-0.0396 0.0791,-0.0791 0.12017,-0.1187 0.0396,-0.041 0.0806,-0.0821 0.12017,-0.1231 0.041,-0.041 0.0806,-0.0835 0.12017,-0.12603 0.041,-0.0425 0.0806,-0.085 0.12163,-0.12897 0.0396,-0.0425 0.0806,-0.0865 0.12017,-0.13189 0.0396,-0.044 0.0806,-0.0894 0.12017,-0.13482 0.041,-0.044 0.0806,-0.0909 0.12164,-0.13629 0.0396,-0.0469 0.0791,-0.0938 0.12017,-0.14069 0.0396,-0.0469 0.0806,-0.0953 0.12016,-0.14215 0.041,-0.0484 0.0806,-0.0967 0.12017,-0.14655 0.041,-0.0484 0.0806,-0.0982 0.12164,-0.14801 0.0396,-0.0498 0.0806,-0.0996 0.12017,-0.15095 0.041,-0.0498 0.0806,-0.10111 0.12017,-0.15241 0.041,-0.0528 0.0806,-0.10405 0.12163,-0.1568 0.0396,-0.0513 0.0806,-0.10405 0.12017,-0.15827 0.0396,-0.0528 0.0806,-0.10698 0.12017,-0.15974 0.041,-0.0542 0.0806,-0.10845 0.12164,-0.16414 0.0396,-0.0542 0.0791,-0.10991 0.12017,-0.16413 0.0396,-0.0557 0.0806,-0.11138 0.12016,-0.16853 0.041,-0.0557 0.0806,-0.11284 0.12017,-0.17 0.041,-0.0572 0.0806,-0.1143 0.12164,-0.17146 0.0396,-0.0571 0.0806,-0.11577 0.12017,-0.17439 0.0396,-0.0586 0.0806,-0.11724 0.12017,-0.17586 0.041,-0.0586 0.0806,-0.1187 0.12163,-0.17878 0.0396,-0.0601 0.0791,-0.12017 0.12017,-0.18026 0.0396,-0.0601 0.0806,-0.12017 0.12017,-0.18172 0.041,-0.0615 0.0806,-0.12163 0.12164,-0.18465 0.0396,-0.0615 0.0791,-0.1231 0.12017,-0.18465 0.0396,-0.063 0.0806,-0.12456 0.12016,-0.18758 0.041,-0.063 0.0806,-0.12603 0.12017,-0.18905 0.041,-0.0645 0.0806,-0.12749 0.12164,-0.19198 0.0396,-0.063 0.0806,-0.12749 0.12017,-0.19197 0.0396,-0.0645 0.0806,-0.12897 0.12017,-0.19491 0.041,-0.0645 0.0806,-0.12896 0.12163,-0.19491 0.0396,-0.0659 0.0791,-0.13189 0.12017,-0.19784 0.0396,-0.066 0.0806,-0.13189 0.12017,-0.19784 0.041,-0.0659 0.0806,-0.13336 0.12017,-0.20077 0.041,-0.0659 0.0806,-0.13336 0.12163,-0.20077 0.0396,-0.0674 0.0806,-0.13483 0.12017,-0.20224 0.0396,-0.0674 0.0806,-0.13629 0.12017,-0.2037 0.041,-0.0689 0.0806,-0.13629 0.12164,-0.20517 0.0396,-0.0689 0.0791,-0.13775 0.12017,-0.20663 0.0396,-0.0689 0.0806,-0.13775 0.12017,-0.20663 0.041,-0.0689 0.0806,-0.13922 0.12163,-0.2081 0.0396,-0.0703 0.0791,-0.13922 0.12017,-0.20956 0.0396,-0.0689 0.0806,-0.13922 0.12017,-0.20957 0.041,-0.0703 0.0806,-0.14068 0.12017,-0.21103 0.041,-0.0703 0.0806,-0.14068 0.12163,-0.21249 0.0396,-0.0703 0.0806,-0.14069 0.12017,-0.2125 0.0396,-0.0703 0.0806,-0.14215 0.12017,-0.21249 0.041,-0.0718 0.0806,-0.14215 0.12164,-0.21396 0.0396,-0.0718 0.0791,-0.14362 0.12017,-0.21396 0.0396,-0.0718 0.0806,-0.14362 0.12017,-0.21543 0.041,-0.0718 0.0806,-0.14361 0.12017,-0.21542 0.041,-0.0733 0.0806,-0.14508 0.12163,-0.21689 0.0396,-0.0718 0.0806,-0.14362 0.12017,-0.21689 0.0396,-0.0718 0.0806,-0.14362 0.12017,-0.21689 0.041,-0.0718 0.0806,-0.14509 0.12163,-0.21689 0.0396,-0.0733 0.0806,-0.14509 0.12017,-0.21836 0.0396,-0.0718 0.0806,-0.14508 0.12017,-0.21689 0.041,-0.0733 0.0806,-0.14508 0.12164,-0.21836 0.0396,-0.0733 0.0791,-0.14508 0.12017,-0.21836 0.0396,-0.0733 0.0806,-0.14508 0.12017,-0.21835 0.041,-0.0733 0.0806,-0.14508 0.12017,-0.21836 0.041,-0.0718 0.0806,-0.14508 0.12163,-0.21835 0.0396,-0.0718 0.0806,-0.14509 0.12017,-0.21836 0.0396,-0.0718 0.0806,-0.14508 0.12017,-0.21836 0.041,-0.0718 0.0806,-0.14508 0.12163,-0.21689 0.0396,-0.0733 0.0791,-0.14655 0.12017,-0.21836 0.0396,-0.0733 0.0806,-0.14508 0.12017,-0.21835 0.041,-0.0718 0.0806,-0.14362 0.12017,-0.21689 0.041,-0.0718 0.0806,-0.14509 0.12164,-0.21689 0.0396,-0.0718 0.0806,-0.14509 0.12017,-0.21689 0.041,-0.0718 0.0806,-0.14362 0.12017,-0.21543 0.041,-0.0733 0.0806,-0.14508 0.12163,-0.21689 0.0396,-0.0718 0.0806,-0.14362 0.12017,-0.21543 0.0396,-0.0703 0.0806,-0.14215 0.12017,-0.21396 0.041,-0.0718 0.0806,-0.14361 0.12163,-0.21396 0.0396,-0.0718 0.0791,-0.14215 0.12017,-0.21396 0.0396,-0.0703 0.0806,-0.14215 0.12017,-0.21249 0.041,-0.0718 0.0806,-0.14215 0.12017,-0.2125 0.041,-0.0703 0.0806,-0.14068 0.12164,-0.21102 0.0396,-0.0703 0.0806,-0.14069 0.12017,-0.21103 0.0396,-0.0703 0.0806,-0.14069 0.12017,-0.20957 0.041,-0.0703 0.0806,-0.13922 0.12163,-0.20956 0.0396,-0.0689 0.0791,-0.13776 0.12017,-0.2081 0.0396,-0.0689 0.0806,-0.13775 0.12017,-0.20663 0.041,-0.0689 0.0806,-0.13776 0.12163,-0.20517 0.0396,-0.0689 0.0791,-0.13775 0.12017,-0.20517 0.0396,-0.0689 0.0806,-0.13629 0.12017,-0.2037 0.041,-0.0689 0.0806,-0.13629 0.12017,-0.2037 0.041,-0.0674 0.0806,-0.13336 0.12164,-0.20077 0.0396,-0.0674 0.0806,-0.13482 0.12017,-0.20077 0.0396,-0.066 0.0806,-0.13336 0.12017,-0.19931 0.041,-0.0659 0.0806,-0.13189 0.12163,-0.19784 0.0396,-0.0659 0.0791,-0.13042 0.12017,-0.19637 0.0396,-0.0659 0.0806,-0.13043 0.12017,-0.19491 0.041,-0.0645 0.0806,-0.13043 0.12017,-0.19344 0.041,-0.0645 0.0806,-0.12896 0.12163,-0.19345 0.0396,-0.063 0.0806,-0.12749 0.12017,-0.19051 0.0396,-0.063 0.0806,-0.12603 0.12017,-0.18905 0.041,-0.063 0.0806,-0.12603 0.12164,-0.18904 0.0396,-0.0616 0.0791,-0.12457 0.12017,-0.18612 0.0396,-0.0615 0.0806,-0.1231 0.12017,-0.18465 0.041,-0.0615 0.0806,-0.1231 0.12163,-0.18318 0.0396,-0.0601 0.0791,-0.12164 0.12017,-0.18172 0.0396,-0.0601 0.0806,-0.12017 0.12017,-0.18026 0.041,-0.0586 0.0806,-0.1187 0.12017,-0.17732 0.041,-0.0586 0.0806,-0.1187 0.12163,-0.17732 0.0396,-0.0572 0.0806,-0.11578 0.12017,-0.17439 0.0396,-0.0572 0.0806,-0.11578 0.12017,-0.17293 0.041,-0.0572 0.0806,-0.11431 0.12164,-0.17 0.0396,-0.0572 0.0791,-0.11284 0.12017,-0.16999 0.0396,-0.0557 0.0806,-0.11138 0.12016,-0.16707 0.041,-0.0557 0.0806,-0.10991 0.12017,-0.1656 0.041,-0.0542 0.0806,-0.10844 0.12164,-0.16266 0.0396,-0.0542 0.0806,-0.10845 0.12017,-0.16121 0.0396,-0.0542 0.0806,-0.10698 0.12017,-0.15973 0.041,-0.0528 0.0806,-0.10552 0.12163,-0.15681 0.0396,-0.0528 0.0806,-0.10405 0.12017,-0.15534 0.0396,-0.0513 0.0806,-0.10259 0.12017,-0.15388 0.041,-0.0498 0.0806,-0.10112 0.12164,-0.15094 0.0396,-0.0498 0.0791,-0.0996 0.12017,-0.14948 0.0396,-0.0484 0.0806,-0.0982 0.12016,-0.14655 0.041,-0.0484 0.0806,-0.0967 0.12017,-0.14508 0.041,-0.0469 0.0806,-0.0953 0.12164,-0.14215 0.0396,-0.0469 0.0806,-0.0938 0.12017,-0.14069 0.0396,-0.0454 0.0806,-0.0923 0.12017,-0.13775 0.041,-0.0454 0.0806,-0.0909 0.12163,-0.13483 0.0396,-0.0454 0.0791,-0.0894 0.12017,-0.13336 0.0396,-0.0454 0.0806,-0.0879 0.12017,-0.13189 0.041,-0.044 0.0806,-0.0865 0.12017,-0.12896 0.041,-0.0425 0.0806,-0.085 0.12164,-0.12603 0.0396,-0.0425 0.0806,-0.0835 0.12016,-0.12457 0.041,-0.041 0.0806,-0.0821 0.12017,-0.12163 0.041,-0.041 0.0806,-0.0806 0.12164,-0.12017 0.0396,-0.0396 0.0806,-0.0777 0.12017,-0.11724 0.0396,-0.0381 0.0806,-0.0762 0.12017,-0.11431 0.041,-0.0381 0.0806,-0.0747 0.12163,-0.11284 0.0396,-0.0366 0.0791,-0.0733 0.12017,-0.10845 0.0396,-0.0366 0.0806,-0.0733 0.12017,-0.10844 0.041,-0.0352 0.0806,-0.0703 0.12017,-0.10405 0.041,-0.0352 0.0806,-0.0689 0.12163,-0.10258 0.0396,-0.0337 0.0806,-0.0674 0.12017,-0.0997 0.0396,-0.0337 0.0806,-0.0659 0.12017,-0.0982 0.041,-0.0323 0.0806,-0.063 0.12164,-0.0953 0.0396,-0.0308 0.0791,-0.0616 0.12017,-0.0923 0.0396,-0.0293 0.0806,-0.0601 0.12017,-0.0894 0.041,-0.0293 0.0806,-0.0586 0.12163,-0.0879 0.0396,-0.0278 0.0791,-0.0557 0.12017,-0.0835 0.0396,-0.0279 0.0806,-0.0557 0.12017,-0.0821 0.041,-0.0278 0.0806,-0.0542 0.12017,-0.0806 0.041,-0.0264 0.0806,-0.0513 0.12163,-0.0762 0.0396,-0.0264 0.0806,-0.0498 0.12017,-0.0747 0.0396,-0.0249 0.0806,-0.0484 0.12017,-0.0718 0.041,-0.0234 0.0806,-0.0469 0.12164,-0.0689 0.0396,-0.0234 0.0791,-0.0454 0.12017,-0.0674 0.0396,-0.022 0.0806,-0.0425 0.12017,-0.0645 0.041,-0.0205 0.0806,-0.041 0.12017,-0.0616 0.041,-0.019 0.0806,-0.0396 0.12163,-0.0586 0.0396,-0.019 0.0806,-0.0381 0.12017,-0.0557 0.0396,-0.019 0.0806,-0.0366 0.12017,-0.0542 0.041,-0.0176 0.0806,-0.0337 0.12163,-0.0513 0.0396,-0.0161 0.0791,-0.0322 0.12017,-0.0484 0.0396,-0.0161 0.0806,-0.0308 0.12017,-0.0454 0.041,-0.0147 0.0806,-0.0293 0.12164,-0.044 0.0396,-0.0132 0.0791,-0.0264 0.12017,-0.0396 0.0396,-0.0132 0.0806,-0.0264 0.12017,-0.0381 0.041,-0.0132 0.0806,-0.0249 0.12017,-0.0352 0.041,-0.0117 0.0806,-0.0234 0.12163,-0.0337"
       id="path458" />
    <g
       inkscape:label=""
       transform="matrix(2.0910694,0,0,2.0910694,106.86762,128.29251)"
       id="g3133"
       style="fill:#0000ff;fill-opacity:1;stroke-width:0.478224">
      <g
         id="surface1"
         transform="matrix(0.352778,0,0,0.352778,-0.42168,0.00674687)"
         style="fill:#0000ff;fill-opacity:1;stroke-width:0.478224">
        <g
           style="fill:#0000ff;fill-opacity:1;stroke-width:0.478224"
           id="g33">
          <g
             id="use27"
             transform="translate(1.196,7.934)"
             style="fill:#0000ff;fill-opacity:1;stroke-width:0.478224">
            <path
               style="fill:#0000ff;fill-opacity:1;stroke:none;stroke-width:0.478224"
               d="m 3.921875,-5.0625 c 0,-0.203125 0,-0.265625 -0.125,-0.265625 -0.09375,0 -0.3125,0.265625 -0.40625,0.375 -0.359375,-0.3125 -0.734375,-0.375 -1.125,-0.375 -1.4375,0 -1.875,0.78125 -1.875,1.4375 0,0.140625 0,0.5625 0.453125,0.96875 0.390625,0.34375 0.796875,0.421875 1.34375,0.53125 0.65625,0.125 0.8125,0.171875 1.109375,0.40625 0.21875,0.171875 0.375,0.4375 0.375,0.78125 C 3.671875,-0.6875 3.375,-0.125 2.3125,-0.125 1.53125,-0.125 0.953125,-0.578125 0.6875,-1.765625 0.640625,-1.984375 0.640625,-2 0.640625,-2.015625 0.609375,-2.0625 0.5625,-2.0625 0.53125,-2.0625 0.390625,-2.0625 0.390625,-2 0.390625,-1.78125 v 1.625 c 0,0.21875 0,0.28125 0.125,0.28125 0.0625,0 0.0625,-0.015625 0.265625,-0.265625 C 0.84375,-0.234375 0.84375,-0.25 1.03125,-0.4375 1.484375,0.125 2.125,0.125 2.328125,0.125 c 1.25,0 1.875,-0.703125 1.875,-1.640625 0,-0.640625 -0.390625,-1.03125 -0.5,-1.140625 -0.421875,-0.375 -0.75,-0.4375 -1.546875,-0.578125 -0.34375,-0.078125 -1.21875,-0.25 -1.21875,-0.96875 0,-0.359375 0.25,-0.90625 1.328125,-0.90625 1.296875,0 1.375,1.109375 1.390625,1.46875 0.015625,0.109375 0.09375,0.109375 0.140625,0.109375 0.125,0 0.125,-0.0625 0.125,-0.28125 z m 0,0"
               id="path52" />
          </g>
          <g
             id="use29"
             transform="translate(5.813098,7.934)"
             style="fill:#0000ff;fill-opacity:1;stroke-width:0.478224">
            <path
               style="fill:#0000ff;fill-opacity:1;stroke:none;stroke-width:0.478224"
               d="m 2.078125,-7.359375 c 0,-0.3125 -0.25,-0.59375 -0.578125,-0.59375 -0.3125,0 -0.578125,0.25 -0.578125,0.578125 0,0.359375 0.28125,0.578125 0.578125,0.578125 0.359375,0 0.578125,-0.296875 0.578125,-0.5625 z M 0.4375,-5.140625 v 0.34375 c 0.75,0 0.859375,0.078125 0.859375,0.65625 v 3.25 c 0,0.546875 -0.125,0.546875 -0.90625,0.546875 V 0 c 0.34375,-0.03125 0.90625,-0.03125 1.265625,-0.03125 0.125,0 0.8125,0 1.21875,0.03125 v -0.34375 c -0.765625,0 -0.8125,-0.0625 -0.8125,-0.53125 v -4.390625 z m 0,0"
               id="path56" />
          </g>
          <g
             id="use31"
             transform="translate(9.0649128,7.934)"
             style="fill:#0000ff;fill-opacity:1;stroke-width:0.478224">
            <path
               style="fill:#0000ff;fill-opacity:1;stroke:none;stroke-width:0.478224"
               d="m 5.3125,-2.90625 c 0,-1.109375 0,-1.4375 -0.265625,-1.828125 -0.34375,-0.46875 -0.90625,-0.53125 -1.3125,-0.53125 -1.171875,0 -1.625,0.984375 -1.71875,1.21875 v -1.21875 l -1.640625,0.125 v 0.34375 c 0.8125,0 0.921875,0.09375 0.921875,0.671875 v 3.234375 c 0,0.546875 -0.140625,0.546875 -0.921875,0.546875 V 0 c 0.3125,-0.03125 0.96875,-0.03125 1.296875,-0.03125 0.34375,0 1,0 1.296875,0.03125 v -0.34375 c -0.75,0 -0.90625,0 -0.90625,-0.546875 v -2.21875 c 0,-1.25 0.828125,-1.921875 1.578125,-1.921875 0.734375,0 0.90625,0.609375 0.90625,1.34375 v 2.796875 c 0,0.546875 -0.140625,0.546875 -0.90625,0.546875 V 0 c 0.296875,-0.03125 0.953125,-0.03125 1.28125,-0.03125 0.34375,0 1,0 1.3125,0.03125 v -0.34375 c -0.609375,0 -0.90625,0 -0.921875,-0.359375 z m 0,0"
               id="path60" />
          </g>
        </g>
        <g
           style="fill:#0000ff;fill-opacity:1;stroke-width:0.478224"
           id="g37">
          <g
             id="use35"
             transform="translate(17.559999,7.934)"
             style="fill:#0000ff;fill-opacity:1;stroke-width:0.478224">
            <path
               style="fill:#0000ff;fill-opacity:1;stroke:none;stroke-width:0.478224"
               d="m 5.671875,-4.875 c -0.390625,0.0625 -0.53125,0.359375 -0.53125,0.578125 0,0.296875 0.21875,0.390625 0.390625,0.390625 0.359375,0 0.609375,-0.3125 0.609375,-0.640625 0,-0.5 -0.578125,-0.71875 -1.078125,-0.71875 -0.71875,0 -1.125,0.71875 -1.234375,0.9375 -0.28125,-0.890625 -1.015625,-0.9375 -1.234375,-0.9375 -1.21875,0 -1.859375,1.5625 -1.859375,1.828125 0,0.046875 0.046875,0.109375 0.125,0.109375 0.09375,0 0.125,-0.078125 0.140625,-0.125 0.40625,-1.328125 1.21875,-1.578125 1.5625,-1.578125 0.53125,0 0.640625,0.5 0.640625,0.78125 0,0.265625 -0.078125,0.546875 -0.21875,1.125 L 2.578125,-1.5 c -0.171875,0.71875 -0.515625,1.375 -1.15625,1.375 -0.0625,0 -0.359375,0 -0.609375,-0.15625 C 1.25,-0.359375 1.34375,-0.71875 1.34375,-0.859375 1.34375,-1.09375 1.15625,-1.25 0.9375,-1.25 c -0.296875,0 -0.609375,0.265625 -0.609375,0.640625 0,0.5 0.5625,0.734375 1.078125,0.734375 0.578125,0 0.984375,-0.453125 1.234375,-0.953125 C 2.828125,-0.125 3.4375,0.125 3.875,0.125 5.09375,0.125 5.734375,-1.453125 5.734375,-1.703125 5.734375,-1.765625 5.6875,-1.8125 5.625,-1.8125 5.515625,-1.8125 5.5,-1.75 5.46875,-1.65625 5.140625,-0.609375 4.453125,-0.125 3.90625,-0.125 3.484375,-0.125 3.265625,-0.4375 3.265625,-0.921875 3.265625,-1.1875 3.3125,-1.375 3.5,-2.15625 L 3.921875,-3.796875 C 4.09375,-4.5 4.5,-5.03125 5.0625,-5.03125 c 0.015625,0 0.359375,0 0.609375,0.15625 z m 0,0"
               id="path64" />
          </g>
        </g>
        <path
           style="fill:#0000ff;fill-opacity:1;stroke:#000000;stroke-width:0.342887;stroke-linecap:butt;stroke-linejoin:miter;stroke-miterlimit:10;stroke-opacity:1"
           d="M -6.875e-4,-0.00115625 H 23.018844"
           transform="matrix(1,0,0,-1,1.196,10.409)"
           id="path39" />
        <g
           clip-path="url(#clipPath5243)"
           clip-rule="nonzero"
           id="g45"
           style="fill:#0000ff;fill-opacity:1;stroke-width:0.228698">
          <g
             style="fill:#0000ff;fill-opacity:1;stroke-width:0.478224"
             id="g43">
            <g
               id="use41"
               transform="translate(9.3780003,20.649)"
               style="fill:#0000ff;fill-opacity:1;stroke-width:0.478224">
              <path
                 style="fill:#0000ff;fill-opacity:1;stroke:none;stroke-width:0.478224"
                 d="m 5.671875,-4.875 c -0.390625,0.0625 -0.53125,0.359375 -0.53125,0.578125 0,0.296875 0.21875,0.390625 0.390625,0.390625 0.359375,0 0.609375,-0.3125 0.609375,-0.640625 0,-0.5 -0.578125,-0.71875 -1.078125,-0.71875 -0.71875,0 -1.125,0.71875 -1.234375,0.9375 -0.28125,-0.890625 -1.015625,-0.9375 -1.234375,-0.9375 -1.21875,0 -1.859375,1.5625 -1.859375,1.828125 0,0.046875 0.046875,0.109375 0.125,0.109375 0.09375,0 0.125,-0.078125 0.140625,-0.125 0.40625,-1.328125 1.21875,-1.578125 1.5625,-1.578125 0.53125,0 0.640625,0.5 0.640625,0.78125 0,0.265625 -0.078125,0.546875 -0.21875,1.125 L 2.578125,-1.5 c -0.171875,0.71875 -0.515625,1.375 -1.15625,1.375 -0.0625,0 -0.359375,0 -0.609375,-0.15625 C 1.25,-0.359375 1.34375,-0.71875 1.34375,-0.859375 1.34375,-1.09375 1.15625,-1.25 0.9375,-1.25 c -0.296875,0 -0.609375,0.265625 -0.609375,0.640625 0,0.5 0.5625,0.734375 1.078125,0.734375 0.578125,0 0.984375,-0.453125 1.234375,-0.953125 C 2.828125,-0.125 3.4375,0.125 3.875,0.125 5.09375,0.125 5.734375,-1.453125 5.734375,-1.703125 5.734375,-1.765625 5.6875,-1.8125 5.625,-1.8125 5.515625,-1.8125 5.5,-1.75 5.46875,-1.65625 5.140625,-0.609375 4.453125,-0.125 3.90625,-0.125 3.484375,-0.125 3.265625,-0.4375 3.265625,-0.921875 3.265625,-1.1875 3.3125,-1.375 3.5,-2.15625 L 3.921875,-3.796875 C 4.09375,-4.5 4.5,-5.03125 5.0625,-5.03125 c 0.015625,0 0.359375,0 0.609375,0.15625 z m 0,0"
                 id="path68" />
            </g>
          </g>
        </g>
      </g>
    </g>
  </g>
</svg>
