<?xml version="1.0" encoding="UTF-8" standalone="no"?>
<!-- Created with Inkscape (http://www.inkscape.org/) -->

<svg
   width="308.65186mm"
   height="55.743607mm"
   viewBox="0 0 308.65186 55.743607"
   version="1.1"
   id="svg5"
   sodipodi:docname="prob-05-02-23_01.svg"
   inkscape:version="1.2.2 (1:1.2.2+202212051550+b0a8486541)"
   xmlns:inkscape="http://www.inkscape.org/namespaces/inkscape"
   xmlns:sodipodi="http://sodipodi.sourceforge.net/DTD/sodipodi-0.dtd"
   xmlns="http://www.w3.org/2000/svg"
   xmlns:svg="http://www.w3.org/2000/svg">
  <sodipodi:namedview
     id="namedview7"
     pagecolor="#ffffff"
     bordercolor="#999999"
     borderopacity="1"
     inkscape:showpageshadow="0"
     inkscape:pageopacity="0"
     inkscape:pagecheckerboard="0"
     inkscape:deskcolor="#d1d1d1"
     inkscape:document-units="mm"
     showgrid="false"
     inkscape:zoom="1.4142136"
     inkscape:cx="711.34942"
     inkscape:cy="95.105862"
     inkscape:window-width="1600"
     inkscape:window-height="832"
     inkscape:window-x="0"
     inkscape:window-y="32"
     inkscape:window-maximized="1"
     inkscape:current-layer="layer1" />
  <defs
     id="defs2">
    <clipPath
       id="clipPath3254">
      <path
         d="M 0,0 H 8.847656 V 7.410156 H 0 Z m 0,0"
         id="path7589" />
    </clipPath>
    <clipPath
       id="clipPath3453">
      <path
         d="M 0,0 H 7 V 11.953125 H 0 Z m 0,0"
         id="path5356" />
    </clipPath>
    <clipPath
       id="clipPath6748">
      <path
         d="M 0,0 H 7.253906 V 7.410156 H 0 Z m 0,0"
         id="path6755" />
    </clipPath>
    <clipPath
       id="clipPath5562">
      <path
         d="M 0,0 H 7.894531 V 11.097656 H 0 Z m 0,0"
         id="path9427" />
    </clipPath>
    <clipPath
       id="clipPath3897">
      <path
         d="M 1,0 H 7 V 11.097656 H 1 Z m 0,0"
         id="path4628" />
    </clipPath>
    <clipPath
       id="clipPath7652">
      <path
         d="M 1,0 H 6 V 17.1875 H 1 Z m 0,0"
         id="path6507" />
    </clipPath>
    <clipPath
       id="clipPath4030">
      <path
         d="m 28,0 h 4 v 17.1875 h -4 z m 0,0"
         id="path2316" />
    </clipPath>
    <clipPath
       id="clipPath6591">
      <path
         d="m 39,5 h 6.859375 v 9 H 39 Z m 0,0"
         id="path7001" />
    </clipPath>
    <clipPath
       id="clipPath4903">
      <path
         d="M 1,0 H 6 V 17.1875 H 1 Z m 0,0"
         id="path4251" />
    </clipPath>
    <clipPath
       id="clipPath7910">
      <path
         d="m 28,0 h 4 v 17.1875 h -4 z m 0,0"
         id="path9358" />
    </clipPath>
    <clipPath
       id="clipPath6103">
      <path
         d="m 39,0 h 6.859375 V 14 H 39 Z m 0,0"
         id="path1463" />
    </clipPath>
    <clipPath
       id="clipPath361">
      <path
         d="M 1,0 H 6 V 17.1875 H 1 Z m 0,0"
         id="path3677" />
    </clipPath>
    <clipPath
       id="clipPath1037">
      <path
         d="m 26,0 h 5 v 17.1875 h -5 z m 0,0"
         id="path9283" />
    </clipPath>
    <clipPath
       id="clipPath1801">
      <path
         d="m 37,5 h 8.859375 v 9 H 37 Z m 0,0"
         id="path8202" />
    </clipPath>
    <clipPath
       id="clipPath7652-0">
      <path
         d="M 1,0 H 6 V 17.1875 H 1 Z m 0,0"
         id="path6507-6" />
    </clipPath>
    <clipPath
       id="clipPath4030-1">
      <path
         d="m 28,0 h 4 v 17.1875 h -4 z m 0,0"
         id="path2316-5" />
    </clipPath>
    <clipPath
       id="clipPath6591-5">
      <path
         d="m 39,5 h 6.859375 v 9 H 39 Z m 0,0"
         id="path7001-4" />
    </clipPath>
    <clipPath
       id="clipPath7652-8">
      <path
         d="M 1,0 H 6 V 17.1875 H 1 Z m 0,0"
         id="path6507-8" />
    </clipPath>
    <clipPath
       id="clipPath4030-4">
      <path
         d="m 28,0 h 4 v 17.1875 h -4 z m 0,0"
         id="path2316-3" />
    </clipPath>
    <clipPath
       id="clipPath6591-1">
      <path
         d="m 39,5 h 6.859375 v 9 H 39 Z m 0,0"
         id="path7001-49" />
    </clipPath>
  </defs>
  <g
     inkscape:label="Layer 1"
     inkscape:groupmode="layer"
     id="layer1"
     transform="translate(-48.45702,43.719231)">
    <ellipse
       style="font-variation-settings:normal;opacity:1;vector-effect:none;fill:#f0f00e;fill-opacity:1;fill-rule:evenodd;stroke:#4d4d4d;stroke-width:0.5;stroke-linecap:butt;stroke-linejoin:miter;stroke-miterlimit:4;stroke-dasharray:none;stroke-dashoffset:0;stroke-opacity:1;-inkscape-stroke:none;paint-order:fill stroke markers;stop-color:#000000;stop-opacity:1"
       id="ellipse1003"
       cx="63.385326"
       cy="-16.276917"
       rx="14.678307"
       ry="27.192314" />
    <ellipse
       style="font-variation-settings:normal;opacity:1;vector-effect:none;fill:#ffb380;fill-opacity:1;fill-rule:evenodd;stroke:#4d4d4d;stroke-width:0.5;stroke-linecap:butt;stroke-linejoin:miter;stroke-miterlimit:4;stroke-dasharray:none;stroke-dashoffset:0;stroke-opacity:1;-inkscape-stroke:none;paint-order:fill stroke markers;stop-color:#000000;stop-opacity:1"
       id="ellipse1005"
       cx="126.10146"
       cy="-16.276917"
       rx="14.678307"
       ry="27.192314" />
    <g
       id="path3578"
       transform="matrix(0.49782302,0,0,0.51726573,101.83293,-4.7930814)"
       style="stroke-width:1.97063" />
    <ellipse
       style="font-variation-settings:normal;opacity:1;vector-effect:none;fill:#f0f00e;fill-opacity:1;fill-rule:evenodd;stroke:#4d4d4d;stroke-width:0.5;stroke-linecap:butt;stroke-linejoin:miter;stroke-miterlimit:4;stroke-dasharray:none;stroke-dashoffset:0;stroke-opacity:1;-inkscape-stroke:none;paint-order:fill stroke markers;stop-color:#000000;stop-opacity:1"
       id="ellipse10832"
       cx="165.9697"
       cy="-16.276917"
       rx="14.678307"
       ry="27.192314" />
    <ellipse
       style="font-variation-settings:normal;opacity:1;vector-effect:none;fill:#ffb380;fill-opacity:1;fill-rule:evenodd;stroke:#4d4d4d;stroke-width:0.5;stroke-linecap:butt;stroke-linejoin:miter;stroke-miterlimit:4;stroke-dasharray:none;stroke-dashoffset:0;stroke-opacity:1;-inkscape-stroke:none;paint-order:fill stroke markers;stop-color:#000000;stop-opacity:1"
       id="ellipse10834"
       cx="228.68581"
       cy="-16.276917"
       rx="14.678307"
       ry="27.192314" />
    <g
       id="path10836"
       transform="matrix(0.49782302,0,0,0.51726573,101.83293,-4.7930814)"
       style="stroke-width:1.97063">
      <g
         id="g498"
         style="stroke-width:1.97063">
        <g
           id="path500"
           style="stroke-width:1.97063" />
      </g>
    </g>
    <g
       inkscape:label=""
       transform="matrix(1.1930309,0,0,1.2421043,185.11063,13.841597)"
       id="g10950"
       style="stroke-width:0.821476" />
    <ellipse
       style="font-variation-settings:normal;opacity:1;vector-effect:none;fill:#f0f00e;fill-opacity:1;fill-rule:evenodd;stroke:#4d4d4d;stroke-width:0.5;stroke-linecap:butt;stroke-linejoin:miter;stroke-miterlimit:4;stroke-dasharray:none;stroke-dashoffset:0;stroke-opacity:1;-inkscape-stroke:none;paint-order:fill stroke markers;stop-color:#000000;stop-opacity:1"
       id="ellipse12402"
       cx="279.46448"
       cy="-15.417938"
       rx="14.678307"
       ry="27.192314" />
    <ellipse
       style="font-variation-settings:normal;opacity:1;vector-effect:none;fill:#ffb380;fill-opacity:1;fill-rule:evenodd;stroke:#4d4d4d;stroke-width:0.5;stroke-linecap:butt;stroke-linejoin:miter;stroke-miterlimit:4;stroke-dasharray:none;stroke-dashoffset:0;stroke-opacity:1;-inkscape-stroke:none;paint-order:fill stroke markers;stop-color:#000000;stop-opacity:1"
       id="ellipse12404"
       cx="342.18057"
       cy="-15.417938"
       rx="14.678307"
       ry="27.192314" />
    <ellipse
       id="circle12414"
       style="fill:#0000ff;stroke:none;stroke-width:0.264582"
       cx="342.18057"
       cy="-28.955462"
       rx="0.96940798"
       ry="1.0092829" />
    <ellipse
       id="circle12420"
       style="fill:#0000ff;stroke:none;stroke-width:0.264582"
       cx="342.18057"
       cy="-1.8804158"
       rx="0.96940798"
       ry="1.0092829" />
    <g
       inkscape:label=""
       transform="matrix(0.96940798,0,0,1.009283,343.71634,-4.0622562)"
       id="g12468"
       style="stroke-width:1.01098">
      <g
         id="g12466"
         transform="matrix(0.352778,0,0,0.352778,-0.248047,0.0980722)"
         style="stroke-width:1.01098">
        <g
           clip-path="url(#clipPath5562)"
           clip-rule="nonzero"
           id="g12464"
           style="stroke-width:0.587252">
          <g
             style="fill:#000000;fill-opacity:1;stroke-width:1.01098"
             id="g12462">
            <g
               id="g12460"
               transform="translate(0,11.097)"
               style="stroke-width:1.01098">
              <path
                 style="stroke:none;stroke-width:1.01098"
                 d="M 7.1875,-2.671875 H 6.875 c -0.171875,1.21875 -0.3125,1.4375 -0.390625,1.53125 C 6.40625,-1 5.171875,-1 4.921875,-1 H 1.625 c 0.609375,-0.671875 1.8125,-1.890625 3.28125,-3.3125 1.046875,-0.984375 2.28125,-2.15625 2.28125,-3.859375 0,-2.03125 -1.625,-3.203125 -3.4375,-3.203125 -1.890625,0 -3.046875,1.65625 -3.046875,3.21875 0,0.671875 0.5,0.75 0.703125,0.75 0.171875,0 0.6875,-0.09375 0.6875,-0.703125 0,-0.53125 -0.4375,-0.6875 -0.6875,-0.6875 -0.09375,0 -0.203125,0.015625 -0.265625,0.046875 0.328125,-1.453125 1.328125,-2.1875 2.375,-2.1875 1.5,0 2.46875,1.1875 2.46875,2.765625 0,1.484375 -0.875,2.78125 -1.859375,3.90625 l -3.421875,3.875 V 0 h 6.0625 z m 0,0"
                 id="path12458" />
            </g>
          </g>
        </g>
      </g>
    </g>
    <g
       inkscape:label=""
       transform="matrix(0.96940798,0,0,1.009283,343.50034,-31.037037)"
       id="g12480"
       style="stroke-width:1.01098">
      <g
         id="g12478"
         transform="matrix(0.352778,0,0,0.352778,-0.529167,0.0980722)"
         style="stroke-width:1.01098">
        <g
           clip-path="url(#clipPath3897)"
           clip-rule="nonzero"
           id="g12476"
           style="stroke-width:0.587252">
          <g
             style="fill:#000000;fill-opacity:1;stroke-width:1.01098"
             id="g12474">
            <g
               id="g12472"
               transform="translate(0,11.097)"
               style="stroke-width:1.01098">
              <path
                 style="stroke:none;stroke-width:1.01098"
                 d="m 4.578125,-11 c 0,-0.359375 -0.015625,-0.375 -0.25,-0.375 -0.671875,0.796875 -1.6875,1.0625 -2.65625,1.09375 -0.046875,0 -0.140625,0 -0.15625,0.03125 C 1.5,-10.203125 1.5,-10.171875 1.5,-9.8125 c 0.53125,0 1.421875,-0.109375 2.109375,-0.515625 V -1.25 c 0,0.59375 -0.03125,0.796875 -1.515625,0.796875 H 1.578125 V 0 c 0.828125,-0.015625 1.6875,-0.03125 2.515625,-0.03125 0.828125,0 1.6875,0.015625 2.515625,0.03125 V -0.453125 H 6.09375 c -1.484375,0 -1.515625,-0.1875 -1.515625,-0.796875 z m 0,0"
                 id="path12470" />
            </g>
          </g>
        </g>
      </g>
    </g>
    <ellipse
       id="circle12410"
       style="fill:#0000ff;stroke:none;stroke-width:0.264582"
       cx="279.46448"
       cy="-16.427221"
       rx="0.96940798"
       ry="1.0092829" />
    <ellipse
       id="circle12412"
       style="fill:#0000ff;stroke:none;stroke-width:0.264582"
       cx="279.46448"
       cy="-30.97403"
       rx="0.96940798"
       ry="1.0092829" />
    <ellipse
       id="circle12418"
       style="fill:#0000ff;stroke:none;stroke-width:0.264582"
       cx="279.46448"
       cy="-1.8804158"
       rx="0.96940798"
       ry="1.0092829" />
    <g
       inkscape:label=""
       transform="matrix(0.96940798,0,0,1.009283,275.73097,-32.795546)"
       id="g12432"
       style="stroke-width:1.01098">
      <g
         id="g12430"
         transform="matrix(0.352778,0,0,0.352778,-0.242535,0.0641173)"
         style="stroke-width:1.01098">
        <g
           clip-path="url(#clipPath3254)"
           clip-rule="nonzero"
           id="g12428"
           style="stroke-width:0.587252">
          <g
             style="fill:#000000;fill-opacity:1;stroke-width:1.01098"
             id="g12426">
            <g
               id="g12424"
               transform="translate(0,7.4120002)"
               style="stroke-width:1.01098">
              <path
                 style="stroke:none;stroke-width:1.01098"
                 d="M 5.1875,-2.046875 C 5.09375,-1.75 5.09375,-1.71875 4.859375,-1.390625 c -0.375,0.484375 -1.140625,1.21875 -1.953125,1.21875 -0.703125,0 -1.09375,-0.640625 -1.09375,-1.65625 0,-0.9375 0.53125,-2.875 0.859375,-3.59375 C 3.25,-6.625 4.0625,-7.25 4.734375,-7.25 c 1.140625,0 1.359375,1.40625 1.359375,1.546875 0,0.015625 -0.046875,0.25 -0.0625,0.28125 z m 1.09375,-4.40625 C 6.09375,-6.90625 5.625,-7.59375 4.734375,-7.59375 c -1.9375,0 -4.046875,2.515625 -4.046875,5.0625 0,1.703125 1,2.703125 2.171875,2.703125 0.953125,0 1.75,-0.734375 2.234375,-1.3125 0.171875,1.015625 0.984375,1.3125 1.5,1.3125 0.515625,0 0.9375,-0.3125 1.234375,-0.921875 C 8.109375,-1.34375 8.34375,-2.390625 8.34375,-2.46875 8.34375,-2.546875 8.28125,-2.625 8.171875,-2.625 8.03125,-2.625 8,-2.53125 7.9375,-2.265625 7.671875,-1.25 7.359375,-0.171875 6.640625,-0.171875 c -0.5,0 -0.53125,-0.453125 -0.53125,-0.796875 0,-0.390625 0.0625,-0.578125 0.203125,-1.25 0.125,-0.4375 0.21875,-0.8125 0.34375,-1.3125 0.640625,-2.578125 0.796875,-3.203125 0.796875,-3.296875 0,-0.25 -0.1875,-0.4375 -0.4375,-0.4375 -0.5625,0 -0.703125,0.609375 -0.734375,0.8125 z m 0,0"
                 id="path12422" />
            </g>
          </g>
        </g>
      </g>
    </g>
    <g
       inkscape:label=""
       transform="matrix(0.96940798,0,0,1.009283,275.66272,-19.148637)"
       id="g12444"
       style="stroke-width:1.01098">
      <g
         id="g12442"
         transform="matrix(0.352778,0,0,0.352778,-0.275608,-6.6143e-4)"
         style="stroke-width:1.01098">
        <g
           clip-path="url(#clipPath3453)"
           clip-rule="nonzero"
           id="g12440"
           style="stroke-width:0.587252">
          <g
             style="fill:#000000;fill-opacity:1;stroke-width:1.01098"
             id="g12438">
            <g
               id="g12436"
               transform="translate(0,11.955)"
               style="stroke-width:1.01098">
              <path
                 style="stroke:none;stroke-width:1.01098"
                 d="M 3.984375,-11.515625 C 4,-11.59375 4.03125,-11.6875 4.03125,-11.78125 c 0,-0.171875 -0.171875,-0.171875 -0.203125,-0.171875 -0.015625,0 -0.640625,0.0625 -0.953125,0.09375 -0.296875,0.01563 -0.546875,0.04687 -0.859375,0.0625 -0.421875,0.03125 -0.53125,0.04687 -0.53125,0.359375 0,0.171875 0.171875,0.171875 0.34375,0.171875 0.875,0 0.875,0.15625 0.875,0.328125 0,0.125 -0.140625,0.625 -0.203125,0.9375 L 2.078125,-8.34375 C 1.90625,-7.65625 0.9375,-3.75 0.859375,-3.4375 0.78125,-3.015625 0.78125,-2.71875 0.78125,-2.5 c 0,1.765625 0.96875,2.671875 2.09375,2.671875 2,0 4.0625,-2.5625 4.0625,-5.0625 0,-1.578125 -0.890625,-2.703125 -2.1875,-2.703125 -0.890625,0 -1.703125,0.734375 -2.03125,1.078125 z m -1.09375,11.34375 c -0.546875,0 -1.15625,-0.40625 -1.15625,-1.75 0,-0.578125 0.0625,-0.90625 0.359375,-2.109375 C 2.15625,-4.25 2.421875,-5.359375 2.5,-5.578125 2.53125,-5.71875 3.546875,-7.25 4.71875,-7.25 c 0.75,0 1.09375,0.765625 1.09375,1.65625 0,0.828125 -0.46875,2.765625 -0.90625,3.671875 -0.421875,0.921875 -1.21875,1.75 -2.015625,1.75 z m 0,0"
                 id="path12434" />
            </g>
          </g>
        </g>
      </g>
    </g>
    <g
       inkscape:label=""
       transform="matrix(0.96940798,0,0,1.009283,275.61645,-3.0256856)"
       id="g12456"
       style="stroke-width:1.01098">
      <g
         id="g12454"
         transform="matrix(0.352778,0,0,0.352778,-0.242535,0.0641173)"
         style="stroke-width:1.01098">
        <g
           clip-path="url(#clipPath6748)"
           clip-rule="nonzero"
           id="g12452"
           style="stroke-width:0.587252">
          <g
             style="fill:#000000;fill-opacity:1;stroke-width:1.01098"
             id="g12450">
            <g
               id="g12448"
               transform="translate(0,7.4120002)"
               style="stroke-width:1.01098">
              <path
                 style="stroke:none;stroke-width:1.01098"
                 d="m 6.734375,-6.46875 c -0.328125,0 -0.484375,0 -0.71875,0.203125 -0.109375,0.078125 -0.296875,0.34375 -0.296875,0.625 0,0.34375 0.25,0.546875 0.578125,0.546875 0.421875,0 0.890625,-0.34375 0.890625,-1.03125 0,-0.828125 -0.796875,-1.46875 -1.984375,-1.46875 -2.265625,0 -4.515625,2.46875 -4.515625,4.90625 0,1.5 0.9375,2.859375 2.6875,2.859375 2.34375,0 3.828125,-1.828125 3.828125,-2.046875 0,-0.109375 -0.109375,-0.1875 -0.171875,-0.1875 -0.0625,0 -0.078125,0.015625 -0.234375,0.171875 -1.09375,1.453125 -2.734375,1.71875 -3.390625,1.71875 -1.1875,0 -1.5625,-1.03125 -1.5625,-1.890625 0,-0.609375 0.296875,-2.28125 0.90625,-3.453125 C 3.203125,-6.3125 4.125,-7.25 5.21875,-7.25 c 0.21875,0 1.171875,0.03125 1.515625,0.78125 z m 0,0"
                 id="path12446" />
            </g>
          </g>
        </g>
      </g>
    </g>
    <path
       style="color:#000000;fill:#000000;-inkscape-stroke:none"
       d="m 63.392578,-32.064453 -0.01563,0.462891 30.955078,0.998046 31.761724,1.021485 0.0156,-0.464844 -31.763682,-1.021484 z"
       id="path452" />
    <g
       id="g442">
      <g
         id="path444">
        <path
           style="color:#000000;fill:#000000;fill-rule:evenodd;stroke-width:0.2325pt;-inkscape-stroke:none"
           d="m 95.733168,-30.791867 c -0.704618,0.209942 -1.649096,0.644784 -2.128814,1.094584 0,0 0.02992,-0.929518 0.502156,-1.146939 -0.45728,-0.247339 -0.427362,-1.176857 -0.427362,-1.176857 0.4498,0.479718 1.36436,0.974394 2.05402,1.229212 z"
           id="path448" />
        <path
           style="color:#000000;fill:#000000;fill-rule:evenodd;-inkscape-stroke:none"
           d="m 93.537109,-32.400391 -0.01367,0.375 c 0,0 -0.0084,0.246887 0.04492,0.529297 0.04366,0.231382 0.187233,0.46599 0.38086,0.646485 -0.205988,0.167584 -0.363266,0.392368 -0.421875,0.621093 -0.07134,0.278399 -0.07813,0.525391 -0.07813,0.525391 l -0.01172,0.375 0.273437,-0.255859 c 0.442028,-0.41446 1.381596,-0.854554 2.066407,-1.058594 l 0.445312,-0.132813 -0.435547,-0.162109 c -0.670273,-0.247655 -1.57968,-0.747426 -1.99414,-1.189453 z m 0.320313,0.658204 c 0.438689,0.374672 1.008467,0.708547 1.564453,0.941406 -0.569057,0.196446 -1.159541,0.488883 -1.621094,0.833984 0.01033,-0.07647 0.0027,-0.08731 0.02734,-0.183594 0.06168,-0.240714 0.182723,-0.478596 0.34375,-0.552734 l 0.28125,-0.130859 -0.273438,-0.146485 c -0.155928,-0.08434 -0.260566,-0.330036 -0.30664,-0.574218 -0.01874,-0.09932 -0.0103,-0.109799 -0.01563,-0.1875 z"
           id="path450" />
      </g>
    </g>
    <path
       style="color:#000000;fill:#000000;-inkscape-stroke:none"
       d="m 126.05664,-30.042969 -32.507812,6.494141 -30.208984,6.035156 0.0918,0.455078 30.207031,-6.033203 32.507805,-6.49414 z"
       id="path438" />
    <g
       id="g428">
      <g
         id="path430">
        <path
           style="color:#000000;fill:#000000;fill-rule:evenodd;stroke-width:0.2325pt;-inkscape-stroke:none"
           d="m 94.961971,-23.593984 c -0.638442,0.36463 -1.459335,1.002799 -1.824236,1.549879 0,0 -0.182179,-0.911982 0.228268,-1.231066 -0.501536,-0.136907 -0.683715,-1.048889 -0.683715,-1.048889 0.547081,0.364902 1.550152,0.638715 2.279683,0.730076 z"
           id="path434" />
        <path
           style="color:#000000;fill:#000000;fill-rule:evenodd;-inkscape-stroke:none"
           d="m 92.457031,-24.660156 0.07422,0.367187 c 0,0 0.04601,0.241005 0.162109,0.503907 0.09543,0.216101 0.288612,0.413495 0.519532,0.544921 -0.161632,0.20989 -0.264465,0.465603 -0.269532,0.701172 -0.0062,0.287327 0.04297,0.529297 0.04297,0.529297 l 0.07227,0.367188 0.208984,-0.3125 c 0.336231,-0.504097 1.150989,-1.14562 1.771484,-1.5 l 0.404297,-0.230469 -0.46289,-0.05859 c -0.709024,-0.08879 -1.708793,-0.368846 -2.212891,-0.705078 z m 0.462891,0.570312 c 0.511296,0.264246 1.141332,0.456225 1.734375,0.556641 -0.50927,0.320599 -1.015857,0.740883 -1.386719,1.181641 -0.0074,-0.07692 -0.01777,-0.08593 -0.01563,-0.185547 0.0053,-0.248435 0.06903,-0.50643 0.208984,-0.615235 l 0.244141,-0.191406 -0.298828,-0.08008 c -0.171019,-0.04668 -0.327355,-0.262919 -0.427734,-0.490234 -0.04021,-0.09105 -0.03584,-0.101991 -0.05859,-0.175782 z"
           id="path436" />
      </g>
    </g>
    <path
       style="color:#000000;fill:#000000;-inkscape-stroke:none"
       d="m 63.384766,-2.9726563 v 0.4648438 H 94.707031 126.10156 V -2.9726563 H 94.707031 Z"
       id="path424" />
    <g
       id="g414">
      <g
         id="path416">
        <path
           style="color:#000000;fill:#000000;fill-rule:evenodd;stroke-width:0.2325pt;-inkscape-stroke:none"
           d="m 96.101289,-2.7393954 c -0.6975,0.2325 -1.6275,0.6975 -2.0925,1.1625 0,0 0,-0.93 0.465,-1.1625 -0.465,-0.2325 -0.465,-1.1625 -0.465,-1.1625 0.465,0.465 1.395,0.93 2.0925,1.1625 z"
           id="path420" />
        <path
           style="color:#000000;fill:#000000;fill-rule:evenodd;-inkscape-stroke:none"
           d="m 93.853516,-4.2753906 v 0.3730468 c 0,0 1.55e-4,0.2467938 0.0625,0.5273438 0.05115,0.2301929 0.200447,0.4606182 0.40039,0.6347656 -0.199943,0.1741474 -0.349236,0.4045728 -0.40039,0.6347656 -0.06234,0.2805501 -0.0625,0.5292969 -0.0625,0.5292969 v 0.3730469 l 0.265625,-0.2636719 c 0.428465,-0.4284657 1.353356,-0.8990356 2.03125,-1.125 l 0.441406,-0.1484375 -0.441406,-0.1464844 c -0.677894,-0.2259644 -1.602785,-0.6965342 -2.03125,-1.1249999 z m 0.34375,0.6484375 c 0.450153,0.3595253 1.02967,0.6741351 1.591796,0.8886718 -0.561911,0.2145379 -1.141878,0.5273811 -1.591796,0.8867188 0.0078,-0.077025 -2.08e-4,-0.087933 0.02148,-0.1855469 0.05391,-0.2425744 0.165658,-0.4851728 0.324219,-0.5644531 l 0.277343,-0.1386719 -0.277343,-0.1386719 c -0.158561,-0.07928 -0.270314,-0.3199255 -0.324219,-0.5625 -0.02169,-0.097614 -0.01364,-0.1085223 -0.02148,-0.1855468 z"
           id="path422" />
      </g>
    </g>
    <ellipse
       id="circle1013"
       style="fill:#0000ff;stroke:none;stroke-width:0.264582"
       cx="126.10146"
       cy="-29.81444"
       rx="0.96940798"
       ry="1.0092829" />
    <ellipse
       id="circle1015"
       style="fill:#0000ff;stroke:none;stroke-width:0.264582"
       cx="126.10146"
       cy="-2.7393942"
       rx="0.96940798"
       ry="1.0092829" />
    <g
       inkscape:label=""
       transform="matrix(0.96940798,0,0,1.009283,127.6372,-4.921234)"
       id="g9329"
       style="stroke-width:1.01098">
      <g
         id="g9327"
         transform="matrix(0.352778,0,0,0.352778,-0.248047,0.0980722)"
         style="stroke-width:1.01098">
        <g
           clip-path="url(#clipPath5562)"
           clip-rule="nonzero"
           id="g9325"
           style="stroke-width:0.587252">
          <g
             style="fill:#000000;fill-opacity:1;stroke-width:1.01098"
             id="g9323">
            <g
               id="g9321"
               transform="translate(0,11.097)"
               style="stroke-width:1.01098">
              <path
                 style="stroke:none;stroke-width:1.01098"
                 d="M 7.1875,-2.671875 H 6.875 c -0.171875,1.21875 -0.3125,1.4375 -0.390625,1.53125 C 6.40625,-1 5.171875,-1 4.921875,-1 H 1.625 c 0.609375,-0.671875 1.8125,-1.890625 3.28125,-3.3125 1.046875,-0.984375 2.28125,-2.15625 2.28125,-3.859375 0,-2.03125 -1.625,-3.203125 -3.4375,-3.203125 -1.890625,0 -3.046875,1.65625 -3.046875,3.21875 0,0.671875 0.5,0.75 0.703125,0.75 0.171875,0 0.6875,-0.09375 0.6875,-0.703125 0,-0.53125 -0.4375,-0.6875 -0.6875,-0.6875 -0.09375,0 -0.203125,0.015625 -0.265625,0.046875 0.328125,-1.453125 1.328125,-2.1875 2.375,-2.1875 1.5,0 2.46875,1.1875 2.46875,2.765625 0,1.484375 -0.875,2.78125 -1.859375,3.90625 l -3.421875,3.875 V 0 h 6.0625 z m 0,0"
                 id="path9319" />
            </g>
          </g>
        </g>
      </g>
    </g>
    <g
       inkscape:label=""
       transform="matrix(0.96940798,0,0,1.009283,127.42121,-31.896014)"
       id="g9455"
       style="stroke-width:1.01098">
      <g
         id="g9453"
         transform="matrix(0.352778,0,0,0.352778,-0.529167,0.0980722)"
         style="stroke-width:1.01098">
        <g
           clip-path="url(#clipPath3897)"
           clip-rule="nonzero"
           id="g9451"
           style="stroke-width:0.587252">
          <g
             style="fill:#000000;fill-opacity:1;stroke-width:1.01098"
             id="g9449">
            <g
               id="g9447"
               transform="translate(0,11.097)"
               style="stroke-width:1.01098">
              <path
                 style="stroke:none;stroke-width:1.01098"
                 d="m 4.578125,-11 c 0,-0.359375 -0.015625,-0.375 -0.25,-0.375 -0.671875,0.796875 -1.6875,1.0625 -2.65625,1.09375 -0.046875,0 -0.140625,0 -0.15625,0.03125 C 1.5,-10.203125 1.5,-10.171875 1.5,-9.8125 c 0.53125,0 1.421875,-0.109375 2.109375,-0.515625 V -1.25 c 0,0.59375 -0.03125,0.796875 -1.515625,0.796875 H 1.578125 V 0 c 0.828125,-0.015625 1.6875,-0.03125 2.515625,-0.03125 0.828125,0 1.6875,0.015625 2.515625,0.03125 V -0.453125 H 6.09375 c -1.484375,0 -1.515625,-0.1875 -1.515625,-0.796875 z m 0,0"
                 id="path9445" />
            </g>
          </g>
        </g>
      </g>
    </g>
    <ellipse
       id="circle1011"
       style="fill:#0000ff;stroke:none;stroke-width:0.264582"
       cx="63.385326"
       cy="-17.2862"
       rx="0.96940798"
       ry="1.0092829" />
    <ellipse
       id="circle1007"
       style="fill:#0000ff;stroke:none;stroke-width:0.264582"
       cx="63.385326"
       cy="-31.833008"
       rx="0.96940798"
       ry="1.0092829" />
    <ellipse
       id="circle1009"
       style="fill:#0000ff;stroke:none;stroke-width:0.264582"
       cx="63.385326"
       cy="-2.7393942"
       rx="0.96940798"
       ry="1.0092829" />
    <g
       inkscape:label=""
       transform="matrix(0.96940798,0,0,1.009283,59.651838,-33.654524)"
       id="g9036"
       style="stroke-width:1.01098">
      <g
         id="surface1"
         transform="matrix(0.352778,0,0,0.352778,-0.242535,0.0641173)"
         style="stroke-width:1.01098">
        <g
           clip-path="url(#clipPath3254)"
           clip-rule="nonzero"
           id="g19"
           style="stroke-width:0.587252">
          <g
             style="fill:#000000;fill-opacity:1;stroke-width:1.01098"
             id="g17">
            <g
               id="use15"
               transform="translate(0,7.4120002)"
               style="stroke-width:1.01098">
              <path
                 style="stroke:none;stroke-width:1.01098"
                 d="M 5.1875,-2.046875 C 5.09375,-1.75 5.09375,-1.71875 4.859375,-1.390625 c -0.375,0.484375 -1.140625,1.21875 -1.953125,1.21875 -0.703125,0 -1.09375,-0.640625 -1.09375,-1.65625 0,-0.9375 0.53125,-2.875 0.859375,-3.59375 C 3.25,-6.625 4.0625,-7.25 4.734375,-7.25 c 1.140625,0 1.359375,1.40625 1.359375,1.546875 0,0.015625 -0.046875,0.25 -0.0625,0.28125 z m 1.09375,-4.40625 C 6.09375,-6.90625 5.625,-7.59375 4.734375,-7.59375 c -1.9375,0 -4.046875,2.515625 -4.046875,5.0625 0,1.703125 1,2.703125 2.171875,2.703125 0.953125,0 1.75,-0.734375 2.234375,-1.3125 0.171875,1.015625 0.984375,1.3125 1.5,1.3125 0.515625,0 0.9375,-0.3125 1.234375,-0.921875 C 8.109375,-1.34375 8.34375,-2.390625 8.34375,-2.46875 8.34375,-2.546875 8.28125,-2.625 8.171875,-2.625 8.03125,-2.625 8,-2.53125 7.9375,-2.265625 7.671875,-1.25 7.359375,-0.171875 6.640625,-0.171875 c -0.5,0 -0.53125,-0.453125 -0.53125,-0.796875 0,-0.390625 0.0625,-0.578125 0.203125,-1.25 0.125,-0.4375 0.21875,-0.8125 0.34375,-1.3125 0.640625,-2.578125 0.796875,-3.203125 0.796875,-3.296875 0,-0.25 -0.1875,-0.4375 -0.4375,-0.4375 -0.5625,0 -0.703125,0.609375 -0.734375,0.8125 z m 0,0"
                 id="path26" />
            </g>
          </g>
        </g>
      </g>
    </g>
    <g
       inkscape:label=""
       transform="matrix(0.96940798,0,0,1.009283,59.583586,-20.007614)"
       id="g9125"
       style="stroke-width:1.01098">
      <g
         id="g9123"
         transform="matrix(0.352778,0,0,0.352778,-0.275608,-6.6143e-4)"
         style="stroke-width:1.01098">
        <g
           clip-path="url(#clipPath3453)"
           clip-rule="nonzero"
           id="g9121"
           style="stroke-width:0.587252">
          <g
             style="fill:#000000;fill-opacity:1;stroke-width:1.01098"
             id="g9119">
            <g
               id="g9117"
               transform="translate(0,11.955)"
               style="stroke-width:1.01098">
              <path
                 style="stroke:none;stroke-width:1.01098"
                 d="M 3.984375,-11.515625 C 4,-11.59375 4.03125,-11.6875 4.03125,-11.78125 c 0,-0.171875 -0.171875,-0.171875 -0.203125,-0.171875 -0.015625,0 -0.640625,0.0625 -0.953125,0.09375 -0.296875,0.01563 -0.546875,0.04687 -0.859375,0.0625 -0.421875,0.03125 -0.53125,0.04687 -0.53125,0.359375 0,0.171875 0.171875,0.171875 0.34375,0.171875 0.875,0 0.875,0.15625 0.875,0.328125 0,0.125 -0.140625,0.625 -0.203125,0.9375 L 2.078125,-8.34375 C 1.90625,-7.65625 0.9375,-3.75 0.859375,-3.4375 0.78125,-3.015625 0.78125,-2.71875 0.78125,-2.5 c 0,1.765625 0.96875,2.671875 2.09375,2.671875 2,0 4.0625,-2.5625 4.0625,-5.0625 0,-1.578125 -0.890625,-2.703125 -2.1875,-2.703125 -0.890625,0 -1.703125,0.734375 -2.03125,1.078125 z m -1.09375,11.34375 c -0.546875,0 -1.15625,-0.40625 -1.15625,-1.75 0,-0.578125 0.0625,-0.90625 0.359375,-2.109375 C 2.15625,-4.25 2.421875,-5.359375 2.5,-5.578125 2.53125,-5.71875 3.546875,-7.25 4.71875,-7.25 c 0.75,0 1.09375,0.765625 1.09375,1.65625 0,0.828125 -0.46875,2.765625 -0.90625,3.671875 -0.421875,0.921875 -1.21875,1.75 -2.015625,1.75 z m 0,0"
                 id="path9115" />
            </g>
          </g>
        </g>
      </g>
    </g>
    <g
       inkscape:label=""
       transform="matrix(0.96940798,0,0,1.009283,59.537318,-3.8846633)"
       id="g9219"
       style="stroke-width:1.01098">
      <g
         id="g9217"
         transform="matrix(0.352778,0,0,0.352778,-0.242535,0.0641173)"
         style="stroke-width:1.01098">
        <g
           clip-path="url(#clipPath6748)"
           clip-rule="nonzero"
           id="g9215"
           style="stroke-width:0.587252">
          <g
             style="fill:#000000;fill-opacity:1;stroke-width:1.01098"
             id="g9213">
            <g
               id="g9211"
               transform="translate(0,7.4120002)"
               style="stroke-width:1.01098">
              <path
                 style="stroke:none;stroke-width:1.01098"
                 d="m 6.734375,-6.46875 c -0.328125,0 -0.484375,0 -0.71875,0.203125 -0.109375,0.078125 -0.296875,0.34375 -0.296875,0.625 0,0.34375 0.25,0.546875 0.578125,0.546875 0.421875,0 0.890625,-0.34375 0.890625,-1.03125 0,-0.828125 -0.796875,-1.46875 -1.984375,-1.46875 -2.265625,0 -4.515625,2.46875 -4.515625,4.90625 0,1.5 0.9375,2.859375 2.6875,2.859375 2.34375,0 3.828125,-1.828125 3.828125,-2.046875 0,-0.109375 -0.109375,-0.1875 -0.171875,-0.1875 -0.0625,0 -0.078125,0.015625 -0.234375,0.171875 -1.09375,1.453125 -2.734375,1.71875 -3.390625,1.71875 -1.1875,0 -1.5625,-1.03125 -1.5625,-1.890625 0,-0.609375 0.296875,-2.28125 0.90625,-3.453125 C 3.203125,-6.3125 4.125,-7.25 5.21875,-7.25 c 0.21875,0 1.171875,0.03125 1.515625,0.78125 z m 0,0"
                 id="path9209" />
            </g>
          </g>
        </g>
      </g>
    </g>
    <g
       id="path4277">
      <path
         style="color:#000000;fill:#000000;-inkscape-stroke:none"
         d="m 165.97656,-32.064453 -0.0137,0.462891 31.85742,1.02539 30.85742,0.994141 0.0156,-0.464844 -30.85938,-0.992187 z"
         id="path932" />
      <g
         id="g922">
        <g
           id="path924">
          <path
             style="color:#000000;fill:#000000;fill-rule:evenodd;stroke-width:0.2325pt;-inkscape-stroke:none"
             d="m 199.2217,-30.762766 c -0.70462,0.209942 -1.6491,0.644784 -2.12882,1.094584 0,0 0.0299,-0.929518 0.50216,-1.146939 -0.45728,-0.247339 -0.42736,-1.176857 -0.42736,-1.176857 0.4498,0.479718 1.36436,0.974394 2.05402,1.229212 z"
             id="path928" />
          <path
             style="color:#000000;fill:#000000;fill-rule:evenodd;-inkscape-stroke:none"
             d="m 197.02539,-32.371094 -0.0117,0.375 c 0,0 -0.0103,0.246887 0.043,0.529297 0.0437,0.231808 0.18646,0.465997 0.38086,0.646485 -0.20589,0.167592 -0.36133,0.392426 -0.41992,0.621093 -0.0713,0.2784 -0.0801,0.525391 -0.0801,0.525391 l -0.0117,0.375 0.27344,-0.255859 c 0.44203,-0.414461 1.38159,-0.854554 2.0664,-1.058594 l 0.44532,-0.132813 -0.43555,-0.162109 c -0.67027,-0.247655 -1.57968,-0.747426 -1.99414,-1.189453 z m 0.32031,0.658203 c 0.43805,0.374123 1.00712,0.70661 1.5625,0.939454 -0.56873,0.196473 -1.15799,0.491115 -1.61914,0.835937 0.0103,-0.07665 0.003,-0.08691 0.0273,-0.183594 0.0617,-0.240713 0.18271,-0.478594 0.34375,-0.552734 l 0.28125,-0.130859 -0.27344,-0.146485 c -0.15593,-0.08434 -0.26057,-0.330036 -0.30664,-0.574219 -0.0187,-0.09932 -0.0103,-0.109798 -0.0156,-0.1875 z"
             id="path930" />
        </g>
      </g>
    </g>
    <g
       id="path4303">
      <path
         style="color:#000000;fill:#000000;-inkscape-stroke:none"
         d="m 228.59375,-30.027344 -31.40625,13.558594 -31.31055,13.515625 0.18555,0.4277344 31.30859,-13.5175784 31.40625,-13.558593 z"
         id="path918" />
      <g
         id="g908">
        <g
           id="path910">
          <path
             style="color:#000000;fill:#000000;fill-rule:evenodd;stroke-width:0.2325pt;-inkscape-stroke:none"
             d="m 198.56027,-16.809006 c -0.54822,0.489912 -1.21775,1.285435 -1.46037,1.896654 0,0 -0.3686,-0.853832 -0.0338,-1.251593 -0.51907,-0.02916 -0.88767,-0.882988 -0.88767,-0.882988 0.61122,0.242613 1.64935,0.300923 2.38188,0.237927 z"
             id="path914" />
          <path
             style="color:#000000;fill:#000000;fill-rule:evenodd;-inkscape-stroke:none"
             d="m 195.88867,-17.328125 0.14649,0.341797 c 0,0 0.0991,0.228075 0.26757,0.460937 0.13837,0.191291 0.36611,0.343406 0.61914,0.423829 -0.11468,0.239178 -0.16146,0.510498 -0.11718,0.742187 0.054,0.282284 0.15234,0.507813 0.15234,0.507812 l 0.14844,0.34375 0.13867,-0.347656 c 0.22356,-0.563198 0.88711,-1.36175 1.41992,-1.83789 l -0.0898,0.0332 -0.0137,-0.304688 h -0.0332 c -0.7113,0.05859 -1.73258,-0.0049 -2.29101,-0.226562 z m 0.57031,0.460938 c 0.55578,0.151992 1.21286,0.207422 1.81446,0.18164 -0.43126,0.419889 -0.84045,0.93656 -1.11133,1.445313 -0.0232,-0.07365 -0.0341,-0.07997 -0.0527,-0.177735 -0.0466,-0.244071 -0.038,-0.510847 0.0762,-0.646484 l 0.19922,-0.236328 -0.31055,-0.01758 c -0.177,-0.0099 -0.37585,-0.187331 -0.52149,-0.388672 -0.0584,-0.08071 -0.0561,-0.09271 -0.0937,-0.160156 z m 2.10157,0.210937 c 5.9e-4,-5e-5 0.001,5e-5 0.002,0 l -0.002,0.002 z"
             id="path916" />
        </g>
      </g>
    </g>
    <g
       id="path4329">
      <path
         style="color:#000000;fill:#000000;-inkscape-stroke:none"
         d="m 166.02148,-17.511719 -0.10351,0.451172 36.44922,8.4550782 26.26562,6.0917969 0.10547,-0.453125 -26.26562,-6.0917969 z"
         id="path904" />
      <g
         id="g894">
        <g
           id="path896">
          <path
             style="color:#000000;fill:#000000;fill-rule:evenodd;stroke-width:0.2325pt;-inkscape-stroke:none"
             d="m 203.7788,-8.5164959 c -0.73199,0.068888 -1.74301,0.3117308 -2.30105,0.6596394 0,0 0.21013,-0.9059495 0.71564,-1.0273707 -0.40044,-0.3315535 -0.19031,-1.2375028 -0.19031,-1.2375028 0.34791,0.5580406 1.1488,1.2211476 1.77572,1.6052341 z"
             id="path900" />
          <path
             style="color:#000000;fill:#000000;fill-rule:evenodd;-inkscape-stroke:none"
             d="m 201.9375,-10.521484 -0.0859,0.365234 c 0,0 -0.0559,0.2399625 -0.0586,0.5273437 -0.002,0.2359208 0.0905,0.4941234 0.24609,0.7089844 -0.23399,0.1245032 -0.43139,0.314731 -0.5332,0.5273438 -0.12412,0.2592082 -0.17969,0.5 -0.17969,0.5 l -0.084,0.3652344 0.31836,-0.1972657 c 0.51419,-0.3205737 1.52101,-0.5697672 2.23242,-0.6367187 l 0.46289,-0.044922 -0.39649,-0.2421875 c -0.60929,-0.3732903 -1.40403,-1.0404916 -1.7246,-1.5546875 z m 0.18555,0.7109371 c 0.3575,0.452576 0.8518,0.8882971 1.35156,1.2246094 -0.59678,0.082056 -1.23195,0.2549077 -1.75195,0.5039062 0.0251,-0.073342 0.0192,-0.08542 0.0625,-0.1757812 0.10732,-0.2241213 0.27293,-0.4351589 0.44531,-0.4765625 l 0.30078,-0.072266 -0.23828,-0.1972657 c -0.13655,-0.1130564 -0.19175,-0.3726125 -0.18945,-0.6210937 9.2e-4,-0.099971 0.01,-0.1087493 0.0195,-0.1855469 z"
             id="path902" />
        </g>
      </g>
    </g>
    <ellipse
       id="circle10842"
       style="fill:#0000ff;stroke:none;stroke-width:0.264582"
       cx="165.9697"
       cy="-31.833008"
       rx="0.96940798"
       ry="1.0092829" />
    <g
       inkscape:label=""
       transform="matrix(0.96940798,0,0,1.009283,162.23619,-33.654524)"
       id="g10862"
       style="stroke-width:1.01098">
      <g
         id="g10860"
         transform="matrix(0.352778,0,0,0.352778,-0.242535,0.0641173)"
         style="stroke-width:1.01098">
        <g
           clip-path="url(#clipPath3254)"
           clip-rule="nonzero"
           id="g10858"
           style="stroke-width:0.587252">
          <g
             style="fill:#000000;fill-opacity:1;stroke-width:1.01098"
             id="g10856">
            <g
               id="g10854"
               transform="translate(0,7.4120002)"
               style="stroke-width:1.01098">
              <path
                 style="stroke:none;stroke-width:1.01098"
                 d="M 5.1875,-2.046875 C 5.09375,-1.75 5.09375,-1.71875 4.859375,-1.390625 c -0.375,0.484375 -1.140625,1.21875 -1.953125,1.21875 -0.703125,0 -1.09375,-0.640625 -1.09375,-1.65625 0,-0.9375 0.53125,-2.875 0.859375,-3.59375 C 3.25,-6.625 4.0625,-7.25 4.734375,-7.25 c 1.140625,0 1.359375,1.40625 1.359375,1.546875 0,0.015625 -0.046875,0.25 -0.0625,0.28125 z m 1.09375,-4.40625 C 6.09375,-6.90625 5.625,-7.59375 4.734375,-7.59375 c -1.9375,0 -4.046875,2.515625 -4.046875,5.0625 0,1.703125 1,2.703125 2.171875,2.703125 0.953125,0 1.75,-0.734375 2.234375,-1.3125 0.171875,1.015625 0.984375,1.3125 1.5,1.3125 0.515625,0 0.9375,-0.3125 1.234375,-0.921875 C 8.109375,-1.34375 8.34375,-2.390625 8.34375,-2.46875 8.34375,-2.546875 8.28125,-2.625 8.171875,-2.625 8.03125,-2.625 8,-2.53125 7.9375,-2.265625 7.671875,-1.25 7.359375,-0.171875 6.640625,-0.171875 c -0.5,0 -0.53125,-0.453125 -0.53125,-0.796875 0,-0.390625 0.0625,-0.578125 0.203125,-1.25 0.125,-0.4375 0.21875,-0.8125 0.34375,-1.3125 0.640625,-2.578125 0.796875,-3.203125 0.796875,-3.296875 0,-0.25 -0.1875,-0.4375 -0.4375,-0.4375 -0.5625,0 -0.703125,0.609375 -0.734375,0.8125 z m 0,0"
                 id="path10852" />
            </g>
          </g>
        </g>
      </g>
    </g>
    <g
       inkscape:label=""
       transform="matrix(0.96940798,0,0,1.009283,162.16794,-20.007614)"
       id="g10874"
       style="stroke-width:1.01098">
      <g
         id="g10872"
         transform="matrix(0.352778,0,0,0.352778,-0.275608,-6.6143e-4)"
         style="stroke-width:1.01098">
        <g
           clip-path="url(#clipPath3453)"
           clip-rule="nonzero"
           id="g10870"
           style="stroke-width:0.587252">
          <g
             style="fill:#000000;fill-opacity:1;stroke-width:1.01098"
             id="g10868">
            <g
               id="g10866"
               transform="translate(0,11.955)"
               style="stroke-width:1.01098">
              <path
                 style="stroke:none;stroke-width:1.01098"
                 d="M 3.984375,-11.515625 C 4,-11.59375 4.03125,-11.6875 4.03125,-11.78125 c 0,-0.171875 -0.171875,-0.171875 -0.203125,-0.171875 -0.015625,0 -0.640625,0.0625 -0.953125,0.09375 -0.296875,0.01563 -0.546875,0.04687 -0.859375,0.0625 -0.421875,0.03125 -0.53125,0.04687 -0.53125,0.359375 0,0.171875 0.171875,0.171875 0.34375,0.171875 0.875,0 0.875,0.15625 0.875,0.328125 0,0.125 -0.140625,0.625 -0.203125,0.9375 L 2.078125,-8.34375 C 1.90625,-7.65625 0.9375,-3.75 0.859375,-3.4375 0.78125,-3.015625 0.78125,-2.71875 0.78125,-2.5 c 0,1.765625 0.96875,2.671875 2.09375,2.671875 2,0 4.0625,-2.5625 4.0625,-5.0625 0,-1.578125 -0.890625,-2.703125 -2.1875,-2.703125 -0.890625,0 -1.703125,0.734375 -2.03125,1.078125 z m -1.09375,11.34375 c -0.546875,0 -1.15625,-0.40625 -1.15625,-1.75 0,-0.578125 0.0625,-0.90625 0.359375,-2.109375 C 2.15625,-4.25 2.421875,-5.359375 2.5,-5.578125 2.53125,-5.71875 3.546875,-7.25 4.71875,-7.25 c 0.75,0 1.09375,0.765625 1.09375,1.65625 0,0.828125 -0.46875,2.765625 -0.90625,3.671875 -0.421875,0.921875 -1.21875,1.75 -2.015625,1.75 z m 0,0"
                 id="path10864" />
            </g>
          </g>
        </g>
      </g>
    </g>
    <g
       inkscape:label=""
       transform="matrix(0.96940798,0,0,1.009283,162.12167,-3.8846633)"
       id="g10886"
       style="stroke-width:1.01098">
      <g
         id="g10884"
         transform="matrix(0.352778,0,0,0.352778,-0.242535,0.0641173)"
         style="stroke-width:1.01098">
        <g
           clip-path="url(#clipPath6748)"
           clip-rule="nonzero"
           id="g10882"
           style="stroke-width:0.587252">
          <g
             style="fill:#000000;fill-opacity:1;stroke-width:1.01098"
             id="g10880">
            <g
               id="g10878"
               transform="translate(0,7.4120002)"
               style="stroke-width:1.01098">
              <path
                 style="stroke:none;stroke-width:1.01098"
                 d="m 6.734375,-6.46875 c -0.328125,0 -0.484375,0 -0.71875,0.203125 -0.109375,0.078125 -0.296875,0.34375 -0.296875,0.625 0,0.34375 0.25,0.546875 0.578125,0.546875 0.421875,0 0.890625,-0.34375 0.890625,-1.03125 0,-0.828125 -0.796875,-1.46875 -1.984375,-1.46875 -2.265625,0 -4.515625,2.46875 -4.515625,4.90625 0,1.5 0.9375,2.859375 2.6875,2.859375 2.34375,0 3.828125,-1.828125 3.828125,-2.046875 0,-0.109375 -0.109375,-0.1875 -0.171875,-0.1875 -0.0625,0 -0.078125,0.015625 -0.234375,0.171875 -1.09375,1.453125 -2.734375,1.71875 -3.390625,1.71875 -1.1875,0 -1.5625,-1.03125 -1.5625,-1.890625 0,-0.609375 0.296875,-2.28125 0.90625,-3.453125 C 3.203125,-6.3125 4.125,-7.25 5.21875,-7.25 c 0.21875,0 1.171875,0.03125 1.515625,0.78125 z m 0,0"
                 id="path10876" />
            </g>
          </g>
        </g>
      </g>
    </g>
    <ellipse
       id="circle10840"
       style="fill:#0000ff;stroke:none;stroke-width:0.264582"
       cx="165.9697"
       cy="-17.2862"
       rx="0.96940798"
       ry="1.0092829" />
    <ellipse
       id="circle10848"
       style="fill:#0000ff;stroke:none;stroke-width:0.264582"
       cx="165.9697"
       cy="-2.7393942"
       rx="0.96940798"
       ry="1.0092829" />
    <ellipse
       id="circle10844"
       style="fill:#0000ff;stroke:none;stroke-width:0.264582"
       cx="228.68581"
       cy="-29.81444"
       rx="0.96940798"
       ry="1.0092829" />
    <ellipse
       id="circle10850"
       style="fill:#0000ff;stroke:none;stroke-width:0.264582"
       cx="228.68581"
       cy="-2.7393942"
       rx="0.96940798"
       ry="1.0092829" />
    <g
       inkscape:label=""
       transform="matrix(0.96940798,0,0,1.009283,230.22156,-4.921234)"
       id="g10898"
       style="stroke-width:1.01098">
      <g
         id="g10896"
         transform="matrix(0.352778,0,0,0.352778,-0.248047,0.0980722)"
         style="stroke-width:1.01098">
        <g
           clip-path="url(#clipPath5562)"
           clip-rule="nonzero"
           id="g10894"
           style="stroke-width:0.587252">
          <g
             style="fill:#000000;fill-opacity:1;stroke-width:1.01098"
             id="g10892">
            <g
               id="g10890"
               transform="translate(0,11.097)"
               style="stroke-width:1.01098">
              <path
                 style="stroke:none;stroke-width:1.01098"
                 d="M 7.1875,-2.671875 H 6.875 c -0.171875,1.21875 -0.3125,1.4375 -0.390625,1.53125 C 6.40625,-1 5.171875,-1 4.921875,-1 H 1.625 c 0.609375,-0.671875 1.8125,-1.890625 3.28125,-3.3125 1.046875,-0.984375 2.28125,-2.15625 2.28125,-3.859375 0,-2.03125 -1.625,-3.203125 -3.4375,-3.203125 -1.890625,0 -3.046875,1.65625 -3.046875,3.21875 0,0.671875 0.5,0.75 0.703125,0.75 0.171875,0 0.6875,-0.09375 0.6875,-0.703125 0,-0.53125 -0.4375,-0.6875 -0.6875,-0.6875 -0.09375,0 -0.203125,0.015625 -0.265625,0.046875 0.328125,-1.453125 1.328125,-2.1875 2.375,-2.1875 1.5,0 2.46875,1.1875 2.46875,2.765625 0,1.484375 -0.875,2.78125 -1.859375,3.90625 l -3.421875,3.875 V 0 h 6.0625 z m 0,0"
                 id="path10888" />
            </g>
          </g>
        </g>
      </g>
    </g>
    <g
       inkscape:label=""
       transform="matrix(0.96940798,0,0,1.009283,230.00556,-31.896014)"
       id="g10910"
       style="stroke-width:1.01098">
      <g
         id="g10908"
         transform="matrix(0.352778,0,0,0.352778,-0.529167,0.0980722)"
         style="stroke-width:1.01098">
        <g
           clip-path="url(#clipPath3897)"
           clip-rule="nonzero"
           id="g10906"
           style="stroke-width:0.587252">
          <g
             style="fill:#000000;fill-opacity:1;stroke-width:1.01098"
             id="g10904">
            <g
               id="g10902"
               transform="translate(0,11.097)"
               style="stroke-width:1.01098">
              <path
                 style="stroke:none;stroke-width:1.01098"
                 d="m 4.578125,-11 c 0,-0.359375 -0.015625,-0.375 -0.25,-0.375 -0.671875,0.796875 -1.6875,1.0625 -2.65625,1.09375 -0.046875,0 -0.140625,0 -0.15625,0.03125 C 1.5,-10.203125 1.5,-10.171875 1.5,-9.8125 c 0.53125,0 1.421875,-0.109375 2.109375,-0.515625 V -1.25 c 0,0.59375 -0.03125,0.796875 -1.515625,0.796875 H 1.578125 V 0 c 0.828125,-0.015625 1.6875,-0.03125 2.515625,-0.03125 0.828125,0 1.6875,0.015625 2.515625,0.03125 V -0.453125 H 6.09375 c -1.484375,0 -1.515625,-0.1875 -1.515625,-0.796875 z m 0,0"
                 id="path10900" />
            </g>
          </g>
        </g>
      </g>
    </g>
    <g
       id="path4827">
      <path
         style="color:#000000;fill:#000000;-inkscape-stroke:none"
         d="m 279.5625,-31.185547 -0.19531,0.421875 42.02539,19.496094 20.68945,9.5976561 0.19727,-0.421875 -20.69141,-9.5976561 z"
         id="path974" />
      <g
         id="g964">
        <g
           id="path966">
          <path
             style="color:#000000;fill:#000000;fill-rule:evenodd;stroke-width:0.2325pt;-inkscape-stroke:none"
             d="m 322.75564,-10.891525 c -0.73058,-0.08261 -1.7699,-0.05215 -2.38741,0.173993 0,0 0.39137,-0.843645 0.91103,-0.858875 -0.32398,-0.406592 0.0674,-1.250237 0.0674,-1.250237 0.22614,0.617503 0.8741,1.430687 1.409,1.935119 z"
             id="path970" />
          <path
             style="color:#000000;fill:#000000;fill-rule:evenodd;-inkscape-stroke:none"
             d="m 321.36328,-13.230469 -0.1582,0.337891 c 0,0 -0.10255,0.225124 -0.16406,0.505859 -0.0505,0.230497 -0.0127,0.501917 0.0957,0.744141 -0.25465,0.07384 -0.48759,0.218964 -0.63086,0.40625 -0.17462,0.228263 -0.27734,0.453125 -0.27734,0.453125 l -0.15821,0.339844 0.35156,-0.128907 c 0.569,-0.208375 1.60637,-0.246303 2.31641,-0.166015 l 0.008,0.002 h 0.01 0.39062 l -0.28515,-0.267578 c -0.51986,-0.490252 -1.16077,-1.307966 -1.36914,-1.876953 z m 0.0371,0.732422 c 0.25703,0.516082 0.65215,1.043017 1.07227,1.474609 -0.60052,-0.04196 -1.25859,-0.0021 -1.81836,0.134766 0.0395,-0.06649 0.037,-0.07894 0.0977,-0.158203 0.15098,-0.197366 0.35405,-0.369807 0.53125,-0.375 l 0.31055,-0.0078 -0.19336,-0.24414 c -0.11047,-0.138643 -0.10982,-0.40375 -0.0566,-0.646485 0.0214,-0.09761 0.0314,-0.104584 0.0566,-0.177734 z m 1.35547,1.451172 0.0176,0.002 c -0.006,-6.76e-4 -0.0135,0.0026 -0.0195,0.002 z"
             id="path972" />
        </g>
      </g>
    </g>
    <g
       id="path4853">
      <path
         style="color:#000000;fill:#000000;-inkscape-stroke:none"
         d="m 342.13477,-29.183594 -28.23633,5.640625 -34.48047,6.888672 0.0918,0.455078 34.48046,-6.888672 28.23633,-5.638671 z"
         id="path960" />
      <g
         id="g950">
        <g
           id="path952">
          <path
             style="color:#000000;fill:#000000;fill-rule:evenodd;stroke-width:0.2325pt;-inkscape-stroke:none"
             d="m 315.31266,-23.588297 c -0.63844,0.36463 -1.45933,1.002799 -1.82423,1.549879 0,0 -0.18218,-0.911982 0.22826,-1.231066 -0.50153,-0.136907 -0.68371,-1.048888 -0.68371,-1.048888 0.54708,0.364901 1.55015,0.638714 2.27968,0.730075 z"
             id="path956" />
          <path
             style="color:#000000;fill:#000000;fill-rule:evenodd;-inkscape-stroke:none"
             d="m 312.80859,-24.654297 0.0723,0.367188 c 0,0 0.048,0.241004 0.16406,0.503906 0.0953,0.215714 0.28739,0.413316 0.51758,0.544922 -0.16163,0.209889 -0.26447,0.465602 -0.26953,0.701172 -0.006,0.287327 0.043,0.529297 0.043,0.529297 l 0.0742,0.367187 0.20703,-0.3125 c 0.33623,-0.504097 1.15099,-1.14562 1.77148,-1.5 l 0.4043,-0.230469 -0.46094,-0.05859 c -0.70902,-0.08879 -1.70879,-0.368847 -2.21289,-0.705079 z m 0.46289,0.56836 c 0.51196,0.264645 1.14073,0.460213 1.73438,0.560546 -0.50899,0.320544 -1.01612,0.739236 -1.38672,1.179688 -0.007,-0.07692 -0.0178,-0.08593 -0.0156,-0.185547 0.005,-0.248434 0.069,-0.506431 0.20898,-0.615234 l 0.24414,-0.191407 -0.29883,-0.08203 c -0.17101,-0.04668 -0.32931,-0.260966 -0.42969,-0.488281 -0.0404,-0.09141 -0.0339,-0.103768 -0.0566,-0.177734 z"
             id="path958" />
        </g>
      </g>
    </g>
    <g
       id="path4879">
      <path
         style="color:#000000;fill:#000000;-inkscape-stroke:none"
         d="m 342.08789,-29.167969 -18.48828,7.980469 -44.22656,19.09375 0.18359,0.4277344 44.22656,-19.0937504 18.49024,-7.982421 z"
         id="path946" />
      <g
         id="g936">
        <g
           id="path938">
          <path
             style="color:#000000;fill:#000000;fill-rule:evenodd;stroke-width:0.2325pt;-inkscape-stroke:none"
             d="m 324.97209,-21.526419 c -0.54822,0.489912 -1.21775,1.285435 -1.46037,1.896654 0,0 -0.3686,-0.853832 -0.0338,-1.251593 -0.51907,-0.02916 -0.88767,-0.882988 -0.88767,-0.882988 0.61122,0.242613 1.64935,0.300923 2.38188,0.237927 z"
             id="path942" />
          <path
             style="color:#000000;fill:#000000;fill-rule:evenodd;-inkscape-stroke:none"
             d="m 322.29883,-22.046875 0.14844,0.34375 c 0,0 0.0972,0.228075 0.26562,0.460938 0.13842,0.191363 0.36791,0.343475 0.62109,0.423828 -0.1145,0.239109 -0.16144,0.508652 -0.11718,0.740234 0.054,0.282284 0.15234,0.509766 0.15234,0.509766 l 0.14844,0.34375 0.13867,-0.347657 c 0.22356,-0.563198 0.88711,-1.36175 1.41992,-1.83789 l -0.0898,0.0332 -0.0137,-0.304688 h -0.0137 c -0.71193,0.06123 -1.7493,-0.003 -2.3125,-0.226562 z m 0.57226,0.460938 c 0.5552,0.151838 1.21129,0.209201 1.8125,0.183593 -0.43105,0.420003 -0.83899,0.936962 -1.10937,1.445313 -0.0232,-0.07365 -0.0341,-0.07997 -0.0527,-0.177735 -0.0466,-0.244071 -0.0399,-0.510847 0.0742,-0.646484 l 0.20117,-0.238281 -0.31054,-0.01563 c -0.177,-0.0099 -0.37585,-0.187331 -0.52149,-0.388672 -0.0587,-0.08115 -0.056,-0.09444 -0.0937,-0.162109 z m 2.10157,0.21289 c 5.9e-4,-5e-5 0.001,5e-5 0.002,0 l -0.002,0.002 z"
             id="path944" />
        </g>
      </g>
    </g>
  </g>
</svg>
