<?xml version="1.0" encoding="UTF-8" standalone="no"?>
<!-- Created with Inkscape (http://www.inkscape.org/) -->

<svg
   width="126.42146mm"
   height="111.53307mm"
   viewBox="0 0 126.42146 111.53307"
   version="1.1"
   id="svg5"
   sodipodi:docname="prob-20-07-23_01.svg"
   inkscape:version="1.2.2 (b0a84865, 2022-12-01)"
   xmlns:inkscape="http://www.inkscape.org/namespaces/inkscape"
   xmlns:sodipodi="http://sodipodi.sourceforge.net/DTD/sodipodi-0.dtd"
   xmlns="http://www.w3.org/2000/svg"
   xmlns:svg="http://www.w3.org/2000/svg"
   xmlns:ns1="http://www.iki.fi/pav/software/textext/">
  <sodipodi:namedview
     id="namedview7"
     pagecolor="#ffffff"
     bordercolor="#000000"
     borderopacity="0.25"
     inkscape:showpageshadow="2"
     inkscape:pageopacity="0.0"
     inkscape:pagecheckerboard="0"
     inkscape:deskcolor="#d1d1d1"
     inkscape:document-units="mm"
     showgrid="false"
     inkscape:zoom="1"
     inkscape:cx="298"
     inkscape:cy="238"
     inkscape:window-width="1512"
     inkscape:window-height="916"
     inkscape:window-x="0"
     inkscape:window-y="38"
     inkscape:window-maximized="1"
     inkscape:current-layer="layer1"
     showguides="true">
    <inkscape:grid
       type="xygrid"
       id="grid1344"
       originx="-32.161457"
       originy="-82.935673" />
  </sodipodi:namedview>
  <defs
     id="defs2">
    <marker
       style="overflow:visible"
       id="Arrow2"
       refX="0"
       refY="0"
       orient="auto-start-reverse"
       inkscape:stockid="Arrow2"
       markerWidth="7.6999998"
       markerHeight="5.5999999"
       viewBox="0 0 7.7 5.6"
       inkscape:isstock="true"
       inkscape:collect="always"
       preserveAspectRatio="xMidYMid">
      <path
         transform="scale(0.7)"
         d="M -2,-4 9,0 -2,4 c 2,-2.33 2,-5.66 0,-8 z"
         style="fill:context-stroke;fill-rule:evenodd;stroke:none"
         id="arrow2L" />
    </marker>
  </defs>
  <g
     inkscape:label="Layer 1"
     inkscape:groupmode="layer"
     id="layer1"
     transform="translate(-32.1615, -82.9357)">
    <rect
       style="font-variation-settings:normal;opacity:1;vector-effect:none;fill:#aaaaff;fill-opacity:0.46988;stroke:none;stroke-width:2.14835;stroke-linecap:butt;stroke-linejoin:miter;stroke-miterlimit:4;stroke-dasharray:none;stroke-dashoffset:0;stroke-opacity:1;-inkscape-stroke:none;paint-order:stroke fill markers;stop-color:#000000;stop-opacity:1"
       id="rect2357"
       width="27.781246"
       height="79.375"
       x="69.056244"
       y="115.09375" />
    <path
       style="fill:none;stroke:#000000;stroke-width:0.464267;stroke-linecap:round;marker-end:url(#Arrow2);paint-order:stroke fill markers;stop-color:#000000"
       d="M 53.445833,193.44487 V 93.757521"
       id="path245" />
    <path
       style="fill:none;stroke:#000000;stroke-width:0.5;stroke-linecap:round;marker-end:url(#Arrow2);paint-order:stroke fill markers;stop-color:#000000"
       d="M 32.411461,174.75728 H 148.03437"
       id="path1126" />
    <g
       transform="matrix(0.619018,0,0,0.619018,152.56692,172.10042)"
       ns1:version="1.8.2"
       ns1:texconverter="pdflatex"
       ns1:pdfconverter="inkscape"
       ns1:text="$X$"
       ns1:preamble="/Users/sachchidanandprasad/Library/Application Support/org.inkscape.Inkscape/config/inkscape/extensions/textext/default_packages.tex"
       ns1:scale="1.7546955875933306"
       ns1:alignment="middle center"
       ns1:stroke-to-path="0"
       ns1:jacobian_sqrt="0.619018"
       id="g1155">
      <defs
         id="id-1538eb8c-94f3-482c-9ddb-bcb352d5d112">
        <g
           id="id-3bc8ebe0-e8bc-46cc-abb7-588de9932393">
          <g
             id="id-090c803c-a053-4764-ac7e-51d32edc449d" />
          <g
             id="id-01bb83a3-89b9-43e4-a005-ef8011e31ea5">
            <path
               d="m 5.671875,-4.859375 -1.125,-2.609375 C 4.703125,-7.75 5.0625,-7.8125 5.21875,-7.8125 c 0.0625,0 0.203125,-0.015625 0.203125,-0.21875 0,-0.125 -0.109375,-0.125 -0.1875,-0.125 -0.203125,0 -0.4375,0.015625 -0.640625,0.015625 H 3.890625 c -0.71875,0 -1.25,-0.015625 -1.265625,-0.015625 -0.09375,0 -0.203125,0 -0.203125,0.21875 0,0.125 0.09375,0.125 0.25,0.125 0.703125,0 0.75,0.109375 0.859375,0.40625 l 1.421875,3.3125 -2.59375,2.78125 C 1.9375,-0.84375 1.421875,-0.390625 0.53125,-0.34375 0.390625,-0.328125 0.296875,-0.328125 0.296875,-0.125 0.296875,-0.078125 0.3125,0 0.4375,0 0.609375,0 0.78125,-0.03125 0.953125,-0.03125 h 0.5625 C 1.90625,-0.03125 2.3125,0 2.6875,0 c 0.078125,0 0.234375,0 0.234375,-0.21875 0,-0.109375 -0.09375,-0.125 -0.15625,-0.125 -0.25,-0.03125 -0.40625,-0.15625 -0.40625,-0.34375 0,-0.203125 0.15625,-0.359375 0.5,-0.71875 l 1.0625,-1.15625 C 4.1875,-2.828125 4.8125,-3.53125 5.078125,-3.796875 l 1.25,2.953125 c 0.015625,0.015625 0.0625,0.140625 0.0625,0.15625 0,0.109375 -0.265625,0.3125 -0.640625,0.34375 -0.078125,0 -0.203125,0.015625 -0.203125,0.21875 C 5.546875,0 5.671875,0 5.71875,0 5.921875,0 6.171875,-0.03125 6.375,-0.03125 H 7.6875 C 7.90625,-0.03125 8.125,0 8.328125,0 c 0.09375,0 0.21875,0 0.21875,-0.234375 0,-0.109375 -0.125,-0.109375 -0.234375,-0.109375 C 7.609375,-0.359375 7.578125,-0.421875 7.375,-0.859375 L 5.796875,-4.5625 7.3125,-6.1875 c 0.125,-0.125 0.390625,-0.421875 0.5,-0.546875 0.515625,-0.53125 1,-1.015625 1.96875,-1.078125 0.109375,-0.015625 0.234375,-0.015625 0.234375,-0.21875 0,-0.125 -0.109375,-0.125 -0.15625,-0.125 -0.171875,0 -0.34375,0.015625 -0.515625,0.015625 H 8.796875 C 8.421875,-8.140625 8,-8.15625 7.625,-8.15625 c -0.078125,0 -0.21875,0 -0.21875,0.203125 0,0.125 0.078125,0.140625 0.140625,0.140625 0.203125,0.015625 0.40625,0.109375 0.40625,0.34375 L 7.9375,-7.453125 C 7.921875,-7.359375 7.90625,-7.25 7.765625,-7.09375 Z m 0,0"
               id="id-3c142272-b726-486b-a011-cfd41eb10dcd" />
          </g>
        </g>
      </defs>
      <g
         fill="#000000"
         fill-opacity="1"
         id="id-04c8478d-5fc1-4512-9b72-b69d27dc668c"
         transform="translate(-128.71,-129.597)">
        <g
           transform="translate(128.413,137.753)"
           id="g1152">
          <path
             d="m 5.671875,-4.859375 -1.125,-2.609375 C 4.703125,-7.75 5.0625,-7.8125 5.21875,-7.8125 c 0.0625,0 0.203125,-0.015625 0.203125,-0.21875 0,-0.125 -0.109375,-0.125 -0.1875,-0.125 -0.203125,0 -0.4375,0.015625 -0.640625,0.015625 H 3.890625 c -0.71875,0 -1.25,-0.015625 -1.265625,-0.015625 -0.09375,0 -0.203125,0 -0.203125,0.21875 0,0.125 0.09375,0.125 0.25,0.125 0.703125,0 0.75,0.109375 0.859375,0.40625 l 1.421875,3.3125 -2.59375,2.78125 C 1.9375,-0.84375 1.421875,-0.390625 0.53125,-0.34375 0.390625,-0.328125 0.296875,-0.328125 0.296875,-0.125 0.296875,-0.078125 0.3125,0 0.4375,0 0.609375,0 0.78125,-0.03125 0.953125,-0.03125 h 0.5625 C 1.90625,-0.03125 2.3125,0 2.6875,0 c 0.078125,0 0.234375,0 0.234375,-0.21875 0,-0.109375 -0.09375,-0.125 -0.15625,-0.125 -0.25,-0.03125 -0.40625,-0.15625 -0.40625,-0.34375 0,-0.203125 0.15625,-0.359375 0.5,-0.71875 l 1.0625,-1.15625 C 4.1875,-2.828125 4.8125,-3.53125 5.078125,-3.796875 l 1.25,2.953125 c 0.015625,0.015625 0.0625,0.140625 0.0625,0.15625 0,0.109375 -0.265625,0.3125 -0.640625,0.34375 -0.078125,0 -0.203125,0.015625 -0.203125,0.21875 C 5.546875,0 5.671875,0 5.71875,0 5.921875,0 6.171875,-0.03125 6.375,-0.03125 H 7.6875 C 7.90625,-0.03125 8.125,0 8.328125,0 c 0.09375,0 0.21875,0 0.21875,-0.234375 0,-0.109375 -0.125,-0.109375 -0.234375,-0.109375 C 7.609375,-0.359375 7.578125,-0.421875 7.375,-0.859375 L 5.796875,-4.5625 7.3125,-6.1875 c 0.125,-0.125 0.390625,-0.421875 0.5,-0.546875 0.515625,-0.53125 1,-1.015625 1.96875,-1.078125 0.109375,-0.015625 0.234375,-0.015625 0.234375,-0.21875 0,-0.125 -0.109375,-0.125 -0.15625,-0.125 -0.171875,0 -0.34375,0.015625 -0.515625,0.015625 H 8.796875 C 8.421875,-8.140625 8,-8.15625 7.625,-8.15625 c -0.078125,0 -0.21875,0 -0.21875,0.203125 0,0.125 0.078125,0.140625 0.140625,0.140625 0.203125,0.015625 0.40625,0.109375 0.40625,0.34375 L 7.9375,-7.453125 C 7.921875,-7.359375 7.90625,-7.25 7.765625,-7.09375 Z m 0,0"
             id="id-88d92069-465e-4bf1-89c2-bdda5b2c2ce6" />
        </g>
      </g>
    </g>
    <g
       transform="matrix(0.619018,0,0,0.619018,52.105514,82.935833)"
       ns1:version="1.8.2"
       ns1:texconverter="pdflatex"
       ns1:pdfconverter="inkscape"
       ns1:text="$Y$"
       ns1:preamble="/Users/sachchidanandprasad/Library/Application Support/org.inkscape.Inkscape/config/inkscape/extensions/textext/default_packages.tex"
       ns1:scale="1.7546955875933306"
       ns1:alignment="middle center"
       ns1:stroke-to-path="0"
       ns1:jacobian_sqrt="0.619018"
       id="g1217">
      <defs
         id="id-b342607d-1f6c-4f01-a829-7a78318ee122">
        <g
           id="id-7430de8a-e0cb-4fd3-8b86-157b876b2191">
          <g
             id="id-0007c452-67f8-489f-94f2-82cc6aab34bc" />
          <g
             id="id-68888339-ead3-4694-a09d-90ee8c182c92">
            <path
               d="M 7.03125,-6.84375 7.296875,-7.109375 C 7.828125,-7.65625 8.265625,-7.78125 8.6875,-7.8125 8.828125,-7.828125 8.921875,-7.84375 8.921875,-8.046875 8.921875,-8.15625 8.8125,-8.15625 8.78125,-8.15625 c -0.140625,0 -0.296875,0.015625 -0.4375,0.015625 H 7.859375 c -0.359375,0 -0.71875,-0.015625 -1.0625,-0.015625 -0.078125,0 -0.203125,0 -0.203125,0.21875 0,0.109375 0.109375,0.125 0.140625,0.125 0.359375,0.015625 0.359375,0.203125 0.359375,0.265625 0,0.140625 -0.09375,0.3125 -0.328125,0.59375 L 3.921875,-3.6875 2.5625,-7.328125 C 2.5,-7.5 2.5,-7.515625 2.5,-7.546875 c 0,-0.25 0.484375,-0.265625 0.625,-0.265625 0.15625,0 0.28125,0 0.28125,-0.21875 0,-0.125 -0.109375,-0.125 -0.171875,-0.125 -0.203125,0 -0.453125,0.015625 -0.65625,0.015625 H 1.25 c -0.203125,0 -0.4375,-0.015625 -0.640625,-0.015625 -0.078125,0 -0.21875,0 -0.21875,0.21875 0,0.125 0.109375,0.125 0.296875,0.125 0.578125,0 0.6875,0.109375 0.796875,0.375 l 1.484375,3.984375 c 0,0.03125 0.046875,0.171875 0.046875,0.203125 0,0.03125 -0.59375,2.390625 -0.625,2.515625 -0.09375,0.3125 -0.21875,0.375 -0.984375,0.390625 -0.203125,0 -0.296875,0 -0.296875,0.21875 C 1.109375,0 1.25,0 1.28125,0 1.5,0 1.75,-0.03125 1.96875,-0.03125 H 3.375 C 3.59375,-0.03125 3.84375,0 4.0625,0 c 0.078125,0 0.234375,0 0.234375,-0.21875 0,-0.125 -0.09375,-0.125 -0.296875,-0.125 -0.734375,0 -0.734375,-0.09375 -0.734375,-0.21875 0,-0.078125 0.09375,-0.46875 0.15625,-0.703125 l 0.421875,-1.71875 c 0.078125,-0.25 0.078125,-0.28125 0.1875,-0.390625 z m 0,0"
               id="id-b9e3662c-db55-4451-9119-57ee808f45b9" />
          </g>
        </g>
      </defs>
      <g
         fill="#000000"
         fill-opacity="1"
         id="id-efe85e60-d610-437c-bb23-10713f44b4f5"
         transform="translate(-128.804,-129.597)">
        <g
           transform="translate(128.413,137.753)"
           id="g1214">
          <path
             d="M 7.03125,-6.84375 7.296875,-7.109375 C 7.828125,-7.65625 8.265625,-7.78125 8.6875,-7.8125 8.828125,-7.828125 8.921875,-7.84375 8.921875,-8.046875 8.921875,-8.15625 8.8125,-8.15625 8.78125,-8.15625 c -0.140625,0 -0.296875,0.015625 -0.4375,0.015625 H 7.859375 c -0.359375,0 -0.71875,-0.015625 -1.0625,-0.015625 -0.078125,0 -0.203125,0 -0.203125,0.21875 0,0.109375 0.109375,0.125 0.140625,0.125 0.359375,0.015625 0.359375,0.203125 0.359375,0.265625 0,0.140625 -0.09375,0.3125 -0.328125,0.59375 L 3.921875,-3.6875 2.5625,-7.328125 C 2.5,-7.5 2.5,-7.515625 2.5,-7.546875 c 0,-0.25 0.484375,-0.265625 0.625,-0.265625 0.15625,0 0.28125,0 0.28125,-0.21875 0,-0.125 -0.109375,-0.125 -0.171875,-0.125 -0.203125,0 -0.453125,0.015625 -0.65625,0.015625 H 1.25 c -0.203125,0 -0.4375,-0.015625 -0.640625,-0.015625 -0.078125,0 -0.21875,0 -0.21875,0.21875 0,0.125 0.109375,0.125 0.296875,0.125 0.578125,0 0.6875,0.109375 0.796875,0.375 l 1.484375,3.984375 c 0,0.03125 0.046875,0.171875 0.046875,0.203125 0,0.03125 -0.59375,2.390625 -0.625,2.515625 -0.09375,0.3125 -0.21875,0.375 -0.984375,0.390625 -0.203125,0 -0.296875,0 -0.296875,0.21875 C 1.109375,0 1.25,0 1.28125,0 1.5,0 1.75,-0.03125 1.96875,-0.03125 H 3.375 C 3.59375,-0.03125 3.84375,0 4.0625,0 c 0.078125,0 0.234375,0 0.234375,-0.21875 0,-0.125 -0.09375,-0.125 -0.296875,-0.125 -0.734375,0 -0.734375,-0.09375 -0.734375,-0.21875 0,-0.078125 0.09375,-0.46875 0.15625,-0.703125 l 0.421875,-1.71875 c 0.078125,-0.25 0.078125,-0.28125 0.1875,-0.390625 z m 0,0"
             id="id-8ecc455b-4a56-4c09-bfdd-b1f2d5354182" />
        </g>
      </g>
    </g>
    <path
       style="font-variation-settings:normal;opacity:1;vector-effect:none;fill:#ff0000;fill-opacity:1;stroke:#000000;stroke-width:0.529167;stroke-linecap:butt;stroke-linejoin:miter;stroke-miterlimit:4;stroke-dasharray:1.5875, 1.5875;stroke-dashoffset:0;stroke-opacity:1;-inkscape-stroke:none;paint-order:stroke fill markers;stop-color:#000000;stop-opacity:1"
       d="m 82.28541,134.9375 c 0,39.6875 0,39.6875 0,39.6875"
       id="path1413" />
    <circle
       id="path1323"
       style="fill:#ff0000;stroke:none;stroke-width:0.529166"
       cx="82.285408"
       cy="134.9375"
       r="1.5" />
    <path
       style="font-variation-settings:normal;opacity:1;vector-effect:none;fill:#ff0000;fill-opacity:1;stroke:#000000;stroke-width:0.529167;stroke-linecap:butt;stroke-linejoin:miter;stroke-miterlimit:4;stroke-dasharray:1.5875, 1.5875;stroke-dashoffset:0;stroke-opacity:1;-inkscape-stroke:none;paint-order:stroke fill markers;stop-color:#000000;stop-opacity:1"
       d="m 112.44792,121.70833 c 0,52.91667 0,52.91667 0,52.91667"
       id="path1417" />
    <circle
       id="path1321"
       style="font-variation-settings:normal;opacity:1;vector-effect:none;fill:#ff0000;fill-opacity:1;stroke:none;stroke-width:0.529166;stroke-linecap:butt;stroke-linejoin:miter;stroke-miterlimit:4;stroke-dasharray:none;stroke-dashoffset:0;stroke-opacity:1;-inkscape-stroke:none;stop-color:#000000;stop-opacity:1"
       cx="112.44791"
       cy="121.70834"
       r="1.5" />
    <path
       style="font-variation-settings:normal;opacity:1;vector-effect:none;fill:#ff0000;fill-opacity:1;stroke:#0000ff;stroke-width:1.27098;stroke-linecap:butt;stroke-linejoin:miter;stroke-miterlimit:4;stroke-dasharray:none;stroke-dashoffset:0;stroke-opacity:1;-inkscape-stroke:none;paint-order:stroke fill markers;stop-color:#000000;stop-opacity:1"
       d="M 69.056246,174.625 H 96.837495"
       id="path1438" />
    <path
       style="font-variation-settings:normal;opacity:1;vector-effect:none;fill:#ff00ff;fill-opacity:1;stroke:#ff00ff;stroke-width:1;stroke-linecap:butt;stroke-linejoin:miter;stroke-miterlimit:4;stroke-dasharray:none;stroke-dashoffset:0;stroke-opacity:1;-inkscape-stroke:none;paint-order:stroke fill markers;stop-color:#000000;stop-opacity:1"
       d="m 103.84896,174.625 h 17.19792"
       id="path1440" />
    <g
       transform="matrix(0.39265702,0,0,0.39265702,80.095951,176.41551)"
       ns1:version="1.8.2"
       ns1:texconverter="pdflatex"
       ns1:pdfconverter="inkscape"
       ns1:text="$U_X$"
       ns1:preamble="/Users/sachchidanandprasad/Library/Application Support/org.inkscape.Inkscape/config/inkscape/extensions/textext/default_packages.tex"
       ns1:scale="1.7546955875933306"
       ns1:alignment="middle center"
       ns1:stroke-to-path="0"
       ns1:jacobian_sqrt="0.619018"
       id="g1522"
       style="fill:#0000ff;fill-opacity:1">
      <defs
         id="id-550f13cd-7827-44a0-8e74-d0df53eccdc0">
        <g
           id="id-794d1c9f-d73b-4086-9e86-28d1348ecd96">
          <g
             id="id-e9a7e310-1ff9-4e53-954a-3fc65eb960bc" />
          <g
             id="id-969e60bc-30ec-4996-82c2-ee40e787a01b">
            <path
               d="M 6.046875,-2.75 C 5.625,-1.078125 4.25,-0.09375 3.125,-0.09375 c -0.859375,0 -1.453125,-0.578125 -1.453125,-1.5625 0,-0.046875 0,-0.40625 0.140625,-0.9375 L 2.96875,-7.296875 C 3.078125,-7.703125 3.109375,-7.8125 3.953125,-7.8125 c 0.21875,0 0.34375,0 0.34375,-0.21875 0,-0.125 -0.109375,-0.125 -0.1875,-0.125 -0.21875,0 -0.46875,0.015625 -0.6875,0.015625 h -1.40625 c -0.234375,0 -0.484375,-0.015625 -0.71875,-0.015625 -0.078125,0 -0.21875,0 -0.21875,0.21875 0,0.125 0.078125,0.125 0.3125,0.125 0.71875,0 0.71875,0.09375 0.71875,0.21875 0,0.078125 -0.09375,0.421875 -0.15625,0.625 l -1.03125,4.1875 C 0.890625,-2.65625 0.8125,-2.328125 0.8125,-2.015625 0.8125,-0.6875 1.75,0.25 3.0625,0.25 c 1.203125,0 2.546875,-0.953125 3.15625,-2.46875 0.078125,-0.203125 0.1875,-0.625 0.265625,-0.953125 C 6.59375,-3.59375 6.84375,-4.65625 6.9375,-4.953125 L 7.390625,-6.75 c 0.15625,-0.625 0.25,-1.015625 1.296875,-1.0625 0.09375,-0.015625 0.140625,-0.109375 0.140625,-0.21875 0,-0.125 -0.109375,-0.125 -0.15625,-0.125 -0.15625,0 -0.375,0.015625 -0.546875,0.015625 H 7.5625 c -0.734375,0 -1.125,-0.015625 -1.125,-0.015625 -0.078125,0 -0.21875,0 -0.21875,0.21875 0,0.125 0.09375,0.125 0.171875,0.125 0.71875,0.015625 0.765625,0.296875 0.765625,0.515625 0,0.09375 0,0.140625 -0.046875,0.296875 z m 0,0"
               id="id-09cbb272-50d3-45d2-93d2-3091f0e47232" />
          </g>
          <g
             id="id-a30947a9-9692-42c8-aed4-00cfac7a3ed8" />
          <g
             id="id-1f9c9485-5ae5-4811-be5a-affbbfe3f3a1">
            <path
               d="M 4.15625,-3.046875 C 4.546875,-3.4375 5.671875,-4.59375 5.859375,-4.75 6.203125,-5 6.40625,-5.140625 6.96875,-5.171875 c 0.046875,-0.015625 0.109375,-0.0625 0.109375,-0.15625 0,-0.078125 -0.0625,-0.109375 -0.109375,-0.109375 -0.078125,0 -0.125,0.015625 -0.75,0.015625 -0.59375,0 -0.8125,-0.015625 -0.84375,-0.015625 -0.03125,0 -0.15625,0 -0.15625,0.140625 0,0.015625 0,0.109375 0.109375,0.125 0.0625,0 0.28125,0.015625 0.28125,0.203125 0,0.046875 -0.046875,0.140625 -0.109375,0.203125 L 5.484375,-4.71875 C 5.453125,-4.703125 5.453125,-4.6875 5.375,-4.609375 l -1.328125,1.34375 -0.8125,-1.6875 c 0.109375,-0.1875 0.34375,-0.21875 0.453125,-0.21875 0.03125,0 0.140625,-0.015625 0.140625,-0.15625 0,-0.0625 -0.046875,-0.109375 -0.125,-0.109375 -0.078125,0 -0.375,0.015625 -0.453125,0.015625 -0.046875,0 -0.34375,0 -0.515625,0 -0.75,0 -0.84375,-0.015625 -0.90625,-0.015625 -0.03125,0 -0.15625,0 -0.15625,0.140625 0,0.125 0.09375,0.125 0.21875,0.125 0.40625,0 0.46875,0.078125 0.546875,0.21875 L 3.5,-2.71875 1.859375,-1.046875 c -0.46875,0.46875 -0.84375,0.75 -1.40625,0.78125 C 0.34375,-0.25 0.25,-0.25 0.25,-0.109375 0.25,-0.0625 0.296875,0 0.375,0 0.4375,0 0.515625,-0.03125 1.125,-0.03125 1.703125,-0.03125 1.9375,0 1.96875,0 c 0.046875,0 0.171875,0 0.171875,-0.15625 0,-0.015625 -0.015625,-0.09375 -0.125,-0.109375 -0.15625,0 -0.265625,-0.0625 -0.265625,-0.203125 0,-0.125 0.09375,-0.234375 0.203125,-0.359375 0.140625,-0.140625 0.5625,-0.5625 0.84375,-0.84375 0.1875,-0.171875 0.625,-0.640625 0.8125,-0.8125 l 0.921875,1.90625 C 4.5625,-0.5 4.5625,-0.5 4.5625,-0.484375 c 0,0.0625 -0.15625,0.203125 -0.421875,0.21875 -0.0625,0 -0.171875,0.015625 -0.171875,0.15625 0,0 0.015625,0.109375 0.140625,0.109375 0.078125,0 0.375,-0.015625 0.453125,-0.03125 H 5.078125 C 5.8125,-0.03125 5.921875,0 6,0 c 0.03125,0 0.140625,0 0.140625,-0.15625 0,-0.109375 -0.09375,-0.109375 -0.21875,-0.109375 -0.4375,0 -0.484375,-0.09375 -0.53125,-0.21875 z m 0,0"
               id="id-0c987327-4052-4d34-a077-4df34a030bb8" />
          </g>
        </g>
      </defs>
      <g
         fill="#000000"
         fill-opacity="1"
         id="id-1556649a-7bb1-4692-854b-af5f217d0206"
         transform="translate(-129.225,-129.597)"
         style="fill:#0000ff;fill-opacity:1">
        <g
           transform="translate(128.413,137.753)"
           id="g1515"
           style="fill:#0000ff;fill-opacity:1">
          <path
             d="M 6.046875,-2.75 C 5.625,-1.078125 4.25,-0.09375 3.125,-0.09375 c -0.859375,0 -1.453125,-0.578125 -1.453125,-1.5625 0,-0.046875 0,-0.40625 0.140625,-0.9375 L 2.96875,-7.296875 C 3.078125,-7.703125 3.109375,-7.8125 3.953125,-7.8125 c 0.21875,0 0.34375,0 0.34375,-0.21875 0,-0.125 -0.109375,-0.125 -0.1875,-0.125 -0.21875,0 -0.46875,0.015625 -0.6875,0.015625 h -1.40625 c -0.234375,0 -0.484375,-0.015625 -0.71875,-0.015625 -0.078125,0 -0.21875,0 -0.21875,0.21875 0,0.125 0.078125,0.125 0.3125,0.125 0.71875,0 0.71875,0.09375 0.71875,0.21875 0,0.078125 -0.09375,0.421875 -0.15625,0.625 l -1.03125,4.1875 C 0.890625,-2.65625 0.8125,-2.328125 0.8125,-2.015625 0.8125,-0.6875 1.75,0.25 3.0625,0.25 c 1.203125,0 2.546875,-0.953125 3.15625,-2.46875 0.078125,-0.203125 0.1875,-0.625 0.265625,-0.953125 C 6.59375,-3.59375 6.84375,-4.65625 6.9375,-4.953125 L 7.390625,-6.75 c 0.15625,-0.625 0.25,-1.015625 1.296875,-1.0625 0.09375,-0.015625 0.140625,-0.109375 0.140625,-0.21875 0,-0.125 -0.109375,-0.125 -0.15625,-0.125 -0.15625,0 -0.375,0.015625 -0.546875,0.015625 H 7.5625 c -0.734375,0 -1.125,-0.015625 -1.125,-0.015625 -0.078125,0 -0.21875,0 -0.21875,0.21875 0,0.125 0.09375,0.125 0.171875,0.125 0.71875,0.015625 0.765625,0.296875 0.765625,0.515625 0,0.09375 0,0.140625 -0.046875,0.296875 z m 0,0"
             id="id-360d9210-abe3-4766-806a-15b07eb3f96b"
             style="fill:#0000ff;fill-opacity:1" />
        </g>
      </g>
      <g
         fill="#000000"
         fill-opacity="1"
         id="id-f189cc80-92e1-4962-9df5-0ef5fc289d0e"
         transform="translate(-129.225,-129.597)"
         style="fill:#0000ff;fill-opacity:1">
        <g
           transform="translate(136.363,139.547)"
           id="g1519"
           style="fill:#0000ff;fill-opacity:1">
          <path
             d="M 4.15625,-3.046875 C 4.546875,-3.4375 5.671875,-4.59375 5.859375,-4.75 6.203125,-5 6.40625,-5.140625 6.96875,-5.171875 c 0.046875,-0.015625 0.109375,-0.0625 0.109375,-0.15625 0,-0.078125 -0.0625,-0.109375 -0.109375,-0.109375 -0.078125,0 -0.125,0.015625 -0.75,0.015625 -0.59375,0 -0.8125,-0.015625 -0.84375,-0.015625 -0.03125,0 -0.15625,0 -0.15625,0.140625 0,0.015625 0,0.109375 0.109375,0.125 0.0625,0 0.28125,0.015625 0.28125,0.203125 0,0.046875 -0.046875,0.140625 -0.109375,0.203125 L 5.484375,-4.71875 C 5.453125,-4.703125 5.453125,-4.6875 5.375,-4.609375 l -1.328125,1.34375 -0.8125,-1.6875 c 0.109375,-0.1875 0.34375,-0.21875 0.453125,-0.21875 0.03125,0 0.140625,-0.015625 0.140625,-0.15625 0,-0.0625 -0.046875,-0.109375 -0.125,-0.109375 -0.078125,0 -0.375,0.015625 -0.453125,0.015625 -0.046875,0 -0.34375,0 -0.515625,0 -0.75,0 -0.84375,-0.015625 -0.90625,-0.015625 -0.03125,0 -0.15625,0 -0.15625,0.140625 0,0.125 0.09375,0.125 0.21875,0.125 0.40625,0 0.46875,0.078125 0.546875,0.21875 L 3.5,-2.71875 1.859375,-1.046875 c -0.46875,0.46875 -0.84375,0.75 -1.40625,0.78125 C 0.34375,-0.25 0.25,-0.25 0.25,-0.109375 0.25,-0.0625 0.296875,0 0.375,0 0.4375,0 0.515625,-0.03125 1.125,-0.03125 1.703125,-0.03125 1.9375,0 1.96875,0 c 0.046875,0 0.171875,0 0.171875,-0.15625 0,-0.015625 -0.015625,-0.09375 -0.125,-0.109375 -0.15625,0 -0.265625,-0.0625 -0.265625,-0.203125 0,-0.125 0.09375,-0.234375 0.203125,-0.359375 0.140625,-0.140625 0.5625,-0.5625 0.84375,-0.84375 0.1875,-0.171875 0.625,-0.640625 0.8125,-0.8125 l 0.921875,1.90625 C 4.5625,-0.5 4.5625,-0.5 4.5625,-0.484375 c 0,0.0625 -0.15625,0.203125 -0.421875,0.21875 -0.0625,0 -0.171875,0.015625 -0.171875,0.15625 0,0 0.015625,0.109375 0.140625,0.109375 0.078125,0 0.375,-0.015625 0.453125,-0.03125 H 5.078125 C 5.8125,-0.03125 5.921875,0 6,0 c 0.03125,0 0.140625,0 0.140625,-0.15625 0,-0.109375 -0.09375,-0.109375 -0.21875,-0.109375 -0.4375,0 -0.484375,-0.09375 -0.53125,-0.21875 z m 0,0"
             id="id-0c773ea4-1894-4390-ad99-6638b614dd76"
             style="fill:#0000ff;fill-opacity:1" />
        </g>
      </g>
    </g>
    <g
       transform="matrix(0.37638932,0,0,0.37638932,110.56485,176.92143)"
       ns1:version="1.8.2"
       ns1:texconverter="pdflatex"
       ns1:pdfconverter="inkscape"
       ns1:text="$V_X$"
       ns1:preamble="/Users/sachchidanandprasad/Library/Application Support/org.inkscape.Inkscape/config/inkscape/extensions/textext/default_packages.tex"
       ns1:scale="1.7546955875933306"
       ns1:alignment="middle center"
       ns1:stroke-to-path="0"
       ns1:jacobian_sqrt="0.619018"
       id="g1658"
       style="fill:#ff00ff;fill-opacity:1">
      <defs
         id="id-bb57cdee-155b-46d6-ab45-33f59e552fa1">
        <g
           id="id-54478e25-abb8-41c5-98e1-0c3e8a68dc96">
          <g
             id="id-9eca8ebd-183d-4061-9498-0e52311416e9" />
          <g
             id="id-83695c0b-ea15-42e1-a3be-299a421df1e5">
            <path
               d="M 7.40625,-6.84375 C 7.8125,-7.484375 8.171875,-7.765625 8.78125,-7.8125 8.90625,-7.828125 9,-7.828125 9,-8.046875 9,-8.09375 8.984375,-8.15625 8.875,-8.15625 c -0.21875,0 -0.734375,0.015625 -0.953125,0.015625 -0.34375,0 -0.703125,-0.015625 -1.03125,-0.015625 -0.09375,0 -0.21875,0 -0.21875,0.21875 0,0.109375 0.109375,0.125 0.15625,0.125 0.4375,0.03125 0.484375,0.25 0.484375,0.390625 0,0.171875 -0.171875,0.453125 -0.171875,0.46875 L 3.375,-1 2.546875,-7.453125 c 0,-0.34375 0.625,-0.359375 0.75,-0.359375 0.1875,0 0.28125,0 0.28125,-0.234375 0,-0.109375 -0.125,-0.109375 -0.15625,-0.109375 -0.203125,0 -0.453125,0.015625 -0.65625,0.015625 h -0.65625 c -0.875,0 -1.234375,-0.015625 -1.25,-0.015625 -0.078125,0 -0.21875,0 -0.21875,0.203125 0,0.140625 0.09375,0.140625 0.28125,0.140625 0.609375,0 0.640625,0.109375 0.6875,0.40625 l 0.953125,7.375 C 2.59375,0.21875 2.59375,0.25 2.765625,0.25 2.90625,0.25 2.96875,0.21875 3.078125,0.03125 Z m 0,0"
               id="id-7dd746df-fe7e-4e64-8448-ead914462eca" />
          </g>
          <g
             id="id-976850f9-7e3e-4eb6-bc73-665438f43eb2" />
          <g
             id="id-daeb8afc-d640-450a-9ca0-e4bbbb96c1a6">
            <path
               d="M 4.15625,-3.046875 C 4.546875,-3.4375 5.671875,-4.59375 5.859375,-4.75 6.203125,-5 6.40625,-5.140625 6.96875,-5.171875 c 0.046875,-0.015625 0.109375,-0.0625 0.109375,-0.15625 0,-0.078125 -0.0625,-0.109375 -0.109375,-0.109375 -0.078125,0 -0.125,0.015625 -0.75,0.015625 -0.59375,0 -0.8125,-0.015625 -0.84375,-0.015625 -0.03125,0 -0.15625,0 -0.15625,0.140625 0,0.015625 0,0.109375 0.109375,0.125 0.0625,0 0.28125,0.015625 0.28125,0.203125 0,0.046875 -0.046875,0.140625 -0.109375,0.203125 L 5.484375,-4.71875 C 5.453125,-4.703125 5.453125,-4.6875 5.375,-4.609375 l -1.328125,1.34375 -0.8125,-1.6875 c 0.109375,-0.1875 0.34375,-0.21875 0.453125,-0.21875 0.03125,0 0.140625,-0.015625 0.140625,-0.15625 0,-0.0625 -0.046875,-0.109375 -0.125,-0.109375 -0.078125,0 -0.375,0.015625 -0.453125,0.015625 -0.046875,0 -0.34375,0 -0.515625,0 -0.75,0 -0.84375,-0.015625 -0.90625,-0.015625 -0.03125,0 -0.15625,0 -0.15625,0.140625 0,0.125 0.09375,0.125 0.21875,0.125 0.40625,0 0.46875,0.078125 0.546875,0.21875 L 3.5,-2.71875 1.859375,-1.046875 c -0.46875,0.46875 -0.84375,0.75 -1.40625,0.78125 C 0.34375,-0.25 0.25,-0.25 0.25,-0.109375 0.25,-0.0625 0.296875,0 0.375,0 0.4375,0 0.515625,-0.03125 1.125,-0.03125 1.703125,-0.03125 1.9375,0 1.96875,0 c 0.046875,0 0.171875,0 0.171875,-0.15625 0,-0.015625 -0.015625,-0.09375 -0.125,-0.109375 -0.15625,0 -0.265625,-0.0625 -0.265625,-0.203125 0,-0.125 0.09375,-0.234375 0.203125,-0.359375 0.140625,-0.140625 0.5625,-0.5625 0.84375,-0.84375 0.1875,-0.171875 0.625,-0.640625 0.8125,-0.8125 l 0.921875,1.90625 C 4.5625,-0.5 4.5625,-0.5 4.5625,-0.484375 c 0,0.0625 -0.15625,0.203125 -0.421875,0.21875 -0.0625,0 -0.171875,0.015625 -0.171875,0.15625 0,0 0.015625,0.109375 0.140625,0.109375 0.078125,0 0.375,-0.015625 0.453125,-0.03125 H 5.078125 C 5.8125,-0.03125 5.921875,0 6,0 c 0.03125,0 0.140625,0 0.140625,-0.15625 0,-0.109375 -0.09375,-0.109375 -0.21875,-0.109375 -0.4375,0 -0.484375,-0.09375 -0.53125,-0.21875 z m 0,0"
               id="id-1a1136e5-a618-4631-97cd-81082cc6e7e7" />
          </g>
        </g>
      </defs>
      <g
         fill="#000000"
         fill-opacity="1"
         id="id-0008fb1b-ca20-41fe-90ea-83fd5cc7409d"
         transform="translate(-129.054,-129.597)"
         style="fill:#ff00ff;fill-opacity:1">
        <g
           transform="translate(128.413,137.753)"
           id="g1651"
           style="fill:#ff00ff;fill-opacity:1">
          <path
             d="M 7.40625,-6.84375 C 7.8125,-7.484375 8.171875,-7.765625 8.78125,-7.8125 8.90625,-7.828125 9,-7.828125 9,-8.046875 9,-8.09375 8.984375,-8.15625 8.875,-8.15625 c -0.21875,0 -0.734375,0.015625 -0.953125,0.015625 -0.34375,0 -0.703125,-0.015625 -1.03125,-0.015625 -0.09375,0 -0.21875,0 -0.21875,0.21875 0,0.109375 0.109375,0.125 0.15625,0.125 0.4375,0.03125 0.484375,0.25 0.484375,0.390625 0,0.171875 -0.171875,0.453125 -0.171875,0.46875 L 3.375,-1 2.546875,-7.453125 c 0,-0.34375 0.625,-0.359375 0.75,-0.359375 0.1875,0 0.28125,0 0.28125,-0.234375 0,-0.109375 -0.125,-0.109375 -0.15625,-0.109375 -0.203125,0 -0.453125,0.015625 -0.65625,0.015625 h -0.65625 c -0.875,0 -1.234375,-0.015625 -1.25,-0.015625 -0.078125,0 -0.21875,0 -0.21875,0.203125 0,0.140625 0.09375,0.140625 0.28125,0.140625 0.609375,0 0.640625,0.109375 0.6875,0.40625 l 0.953125,7.375 C 2.59375,0.21875 2.59375,0.25 2.765625,0.25 2.90625,0.25 2.96875,0.21875 3.078125,0.03125 Z m 0,0"
             id="id-e66c6b24-96da-4ac3-bd15-8a4d7f232d80"
             style="fill:#ff00ff;fill-opacity:1" />
        </g>
      </g>
      <g
         fill="#000000"
         fill-opacity="1"
         id="id-fe1526bd-f60f-4476-ba7f-19d1d5ba65b2"
         transform="translate(-129.054,-129.597)"
         style="fill:#ff00ff;fill-opacity:1">
        <g
           transform="translate(135.238,139.547)"
           id="g1655"
           style="fill:#ff00ff;fill-opacity:1">
          <path
             d="M 4.15625,-3.046875 C 4.546875,-3.4375 5.671875,-4.59375 5.859375,-4.75 6.203125,-5 6.40625,-5.140625 6.96875,-5.171875 c 0.046875,-0.015625 0.109375,-0.0625 0.109375,-0.15625 0,-0.078125 -0.0625,-0.109375 -0.109375,-0.109375 -0.078125,0 -0.125,0.015625 -0.75,0.015625 -0.59375,0 -0.8125,-0.015625 -0.84375,-0.015625 -0.03125,0 -0.15625,0 -0.15625,0.140625 0,0.015625 0,0.109375 0.109375,0.125 0.0625,0 0.28125,0.015625 0.28125,0.203125 0,0.046875 -0.046875,0.140625 -0.109375,0.203125 L 5.484375,-4.71875 C 5.453125,-4.703125 5.453125,-4.6875 5.375,-4.609375 l -1.328125,1.34375 -0.8125,-1.6875 c 0.109375,-0.1875 0.34375,-0.21875 0.453125,-0.21875 0.03125,0 0.140625,-0.015625 0.140625,-0.15625 0,-0.0625 -0.046875,-0.109375 -0.125,-0.109375 -0.078125,0 -0.375,0.015625 -0.453125,0.015625 -0.046875,0 -0.34375,0 -0.515625,0 -0.75,0 -0.84375,-0.015625 -0.90625,-0.015625 -0.03125,0 -0.15625,0 -0.15625,0.140625 0,0.125 0.09375,0.125 0.21875,0.125 0.40625,0 0.46875,0.078125 0.546875,0.21875 L 3.5,-2.71875 1.859375,-1.046875 c -0.46875,0.46875 -0.84375,0.75 -1.40625,0.78125 C 0.34375,-0.25 0.25,-0.25 0.25,-0.109375 0.25,-0.0625 0.296875,0 0.375,0 0.4375,0 0.515625,-0.03125 1.125,-0.03125 1.703125,-0.03125 1.9375,0 1.96875,0 c 0.046875,0 0.171875,0 0.171875,-0.15625 0,-0.015625 -0.015625,-0.09375 -0.125,-0.109375 -0.15625,0 -0.265625,-0.0625 -0.265625,-0.203125 0,-0.125 0.09375,-0.234375 0.203125,-0.359375 0.140625,-0.140625 0.5625,-0.5625 0.84375,-0.84375 0.1875,-0.171875 0.625,-0.640625 0.8125,-0.8125 l 0.921875,1.90625 C 4.5625,-0.5 4.5625,-0.5 4.5625,-0.484375 c 0,0.0625 -0.15625,0.203125 -0.421875,0.21875 -0.0625,0 -0.171875,0.015625 -0.171875,0.15625 0,0 0.015625,0.109375 0.140625,0.109375 0.078125,0 0.375,-0.015625 0.453125,-0.03125 H 5.078125 C 5.8125,-0.03125 5.921875,0 6,0 c 0.03125,0 0.140625,0 0.140625,-0.15625 0,-0.109375 -0.09375,-0.109375 -0.21875,-0.109375 -0.4375,0 -0.484375,-0.09375 -0.53125,-0.21875 z m 0,0"
             id="id-b87050fb-c2eb-4429-8a05-654b215f38f7"
             style="fill:#ff00ff;fill-opacity:1" />
        </g>
      </g>
    </g>
    <rect
       style="font-variation-settings:normal;opacity:1;vector-effect:none;fill:#ffd5f6;fill-opacity:0.46988;stroke:none;stroke-width:1.69031;stroke-linecap:butt;stroke-linejoin:miter;stroke-miterlimit:4;stroke-dasharray:none;stroke-dashoffset:0;stroke-opacity:1;-inkscape-stroke:none;paint-order:stroke fill markers;stop-color:#000000;stop-opacity:1"
       id="rect2359"
       width="17.197916"
       height="79.375"
       x="103.84896"
       y="115.09375" />
    <g
       transform="matrix(0.49613499,0,0,0.49613499,73.876443,108.51333)"
       ns1:version="1.8.2"
       ns1:texconverter="pdflatex"
       ns1:pdfconverter="inkscape"
       ns1:text="$U_X \\times Y$"
       ns1:preamble="/Users/sachchidanandprasad/Library/Application Support/org.inkscape.Inkscape/config/inkscape/extensions/textext/default_packages.tex"
       ns1:scale="1.7546955875933306"
       ns1:alignment="middle center"
       ns1:stroke-to-path="0"
       ns1:jacobian_sqrt="0.619018"
       id="g2534">
      <defs
         id="id-5829a514-4414-4210-b532-6eaaf265da9b">
        <g
           id="id-9b7fcfd7-bc8c-4282-99b1-89a446b12975">
          <g
             id="id-bd505b68-19a6-4c96-a89d-d8c73a123385" />
          <g
             id="id-ba3a29ff-0d03-4ca4-a181-fd403597bfdd">
            <path
               d="M 6.046875,-2.75 C 5.625,-1.078125 4.25,-0.09375 3.125,-0.09375 c -0.859375,0 -1.453125,-0.578125 -1.453125,-1.5625 0,-0.046875 0,-0.40625 0.140625,-0.9375 L 2.96875,-7.296875 C 3.078125,-7.703125 3.109375,-7.8125 3.953125,-7.8125 c 0.21875,0 0.34375,0 0.34375,-0.21875 0,-0.125 -0.109375,-0.125 -0.1875,-0.125 -0.21875,0 -0.46875,0.015625 -0.6875,0.015625 h -1.40625 c -0.234375,0 -0.484375,-0.015625 -0.71875,-0.015625 -0.078125,0 -0.21875,0 -0.21875,0.21875 0,0.125 0.078125,0.125 0.3125,0.125 0.71875,0 0.71875,0.09375 0.71875,0.21875 0,0.078125 -0.09375,0.421875 -0.15625,0.625 l -1.03125,4.1875 C 0.890625,-2.65625 0.8125,-2.328125 0.8125,-2.015625 0.8125,-0.6875 1.75,0.25 3.0625,0.25 c 1.203125,0 2.546875,-0.953125 3.15625,-2.46875 0.078125,-0.203125 0.1875,-0.625 0.265625,-0.953125 C 6.59375,-3.59375 6.84375,-4.65625 6.9375,-4.953125 L 7.390625,-6.75 c 0.15625,-0.625 0.25,-1.015625 1.296875,-1.0625 0.09375,-0.015625 0.140625,-0.109375 0.140625,-0.21875 0,-0.125 -0.109375,-0.125 -0.15625,-0.125 -0.15625,0 -0.375,0.015625 -0.546875,0.015625 H 7.5625 c -0.734375,0 -1.125,-0.015625 -1.125,-0.015625 -0.078125,0 -0.21875,0 -0.21875,0.21875 0,0.125 0.09375,0.125 0.171875,0.125 0.71875,0.015625 0.765625,0.296875 0.765625,0.515625 0,0.09375 0,0.140625 -0.046875,0.296875 z m 0,0"
               id="id-5035ff64-2f9d-42dc-ae6f-39eac539e050" />
          </g>
          <g
             id="id-055b5180-f0a5-4401-874f-8d1b26d1cf07">
            <path
               d="M 7.03125,-6.84375 7.296875,-7.109375 C 7.828125,-7.65625 8.265625,-7.78125 8.6875,-7.8125 8.828125,-7.828125 8.921875,-7.84375 8.921875,-8.046875 8.921875,-8.15625 8.8125,-8.15625 8.78125,-8.15625 c -0.140625,0 -0.296875,0.015625 -0.4375,0.015625 H 7.859375 c -0.359375,0 -0.71875,-0.015625 -1.0625,-0.015625 -0.078125,0 -0.203125,0 -0.203125,0.21875 0,0.109375 0.109375,0.125 0.140625,0.125 0.359375,0.015625 0.359375,0.203125 0.359375,0.265625 0,0.140625 -0.09375,0.3125 -0.328125,0.59375 L 3.921875,-3.6875 2.5625,-7.328125 C 2.5,-7.5 2.5,-7.515625 2.5,-7.546875 c 0,-0.25 0.484375,-0.265625 0.625,-0.265625 0.15625,0 0.28125,0 0.28125,-0.21875 0,-0.125 -0.109375,-0.125 -0.171875,-0.125 -0.203125,0 -0.453125,0.015625 -0.65625,0.015625 H 1.25 c -0.203125,0 -0.4375,-0.015625 -0.640625,-0.015625 -0.078125,0 -0.21875,0 -0.21875,0.21875 0,0.125 0.109375,0.125 0.296875,0.125 0.578125,0 0.6875,0.109375 0.796875,0.375 l 1.484375,3.984375 c 0,0.03125 0.046875,0.171875 0.046875,0.203125 0,0.03125 -0.59375,2.390625 -0.625,2.515625 -0.09375,0.3125 -0.21875,0.375 -0.984375,0.390625 -0.203125,0 -0.296875,0 -0.296875,0.21875 C 1.109375,0 1.25,0 1.28125,0 1.5,0 1.75,-0.03125 1.96875,-0.03125 H 3.375 C 3.59375,-0.03125 3.84375,0 4.0625,0 c 0.078125,0 0.234375,0 0.234375,-0.21875 0,-0.125 -0.09375,-0.125 -0.296875,-0.125 -0.734375,0 -0.734375,-0.09375 -0.734375,-0.21875 0,-0.078125 0.09375,-0.46875 0.15625,-0.703125 l 0.421875,-1.71875 c 0.078125,-0.25 0.078125,-0.28125 0.1875,-0.390625 z m 0,0"
               id="id-4027face-8989-4c18-be73-9920dfeaa2af" />
          </g>
          <g
             id="id-bf84162c-2b3f-4440-82cf-4bf98783b267" />
          <g
             id="id-afd42c8d-c7af-4737-a92d-db42b478be72">
            <path
               d="M 4.15625,-3.046875 C 4.546875,-3.4375 5.671875,-4.59375 5.859375,-4.75 6.203125,-5 6.40625,-5.140625 6.96875,-5.171875 c 0.046875,-0.015625 0.109375,-0.0625 0.109375,-0.15625 0,-0.078125 -0.0625,-0.109375 -0.109375,-0.109375 -0.078125,0 -0.125,0.015625 -0.75,0.015625 -0.59375,0 -0.8125,-0.015625 -0.84375,-0.015625 -0.03125,0 -0.15625,0 -0.15625,0.140625 0,0.015625 0,0.109375 0.109375,0.125 0.0625,0 0.28125,0.015625 0.28125,0.203125 0,0.046875 -0.046875,0.140625 -0.109375,0.203125 L 5.484375,-4.71875 C 5.453125,-4.703125 5.453125,-4.6875 5.375,-4.609375 l -1.328125,1.34375 -0.8125,-1.6875 c 0.109375,-0.1875 0.34375,-0.21875 0.453125,-0.21875 0.03125,0 0.140625,-0.015625 0.140625,-0.15625 0,-0.0625 -0.046875,-0.109375 -0.125,-0.109375 -0.078125,0 -0.375,0.015625 -0.453125,0.015625 -0.046875,0 -0.34375,0 -0.515625,0 -0.75,0 -0.84375,-0.015625 -0.90625,-0.015625 -0.03125,0 -0.15625,0 -0.15625,0.140625 0,0.125 0.09375,0.125 0.21875,0.125 0.40625,0 0.46875,0.078125 0.546875,0.21875 L 3.5,-2.71875 1.859375,-1.046875 c -0.46875,0.46875 -0.84375,0.75 -1.40625,0.78125 C 0.34375,-0.25 0.25,-0.25 0.25,-0.109375 0.25,-0.0625 0.296875,0 0.375,0 0.4375,0 0.515625,-0.03125 1.125,-0.03125 1.703125,-0.03125 1.9375,0 1.96875,0 c 0.046875,0 0.171875,0 0.171875,-0.15625 0,-0.015625 -0.015625,-0.09375 -0.125,-0.109375 -0.15625,0 -0.265625,-0.0625 -0.265625,-0.203125 0,-0.125 0.09375,-0.234375 0.203125,-0.359375 0.140625,-0.140625 0.5625,-0.5625 0.84375,-0.84375 0.1875,-0.171875 0.625,-0.640625 0.8125,-0.8125 l 0.921875,1.90625 C 4.5625,-0.5 4.5625,-0.5 4.5625,-0.484375 c 0,0.0625 -0.15625,0.203125 -0.421875,0.21875 -0.0625,0 -0.171875,0.015625 -0.171875,0.15625 0,0 0.015625,0.109375 0.140625,0.109375 0.078125,0 0.375,-0.015625 0.453125,-0.03125 H 5.078125 C 5.8125,-0.03125 5.921875,0 6,0 c 0.03125,0 0.140625,0 0.140625,-0.15625 0,-0.109375 -0.09375,-0.109375 -0.21875,-0.109375 -0.4375,0 -0.484375,-0.09375 -0.53125,-0.21875 z m 0,0"
               id="id-dc5fdc9a-3b10-4060-995f-d7f700f7b725" />
          </g>
          <g
             id="id-e4f5dcae-535a-4103-a758-a686cf99cf30" />
          <g
             id="id-0502c2cd-1452-465b-8afe-d98ce62afc8d">
            <path
               d="m 4.65625,-3.328125 -2.390625,-2.375 C 2.109375,-5.84375 2.09375,-5.875 2,-5.875 c -0.125,0 -0.25,0.109375 -0.25,0.25 0,0.078125 0.03125,0.109375 0.15625,0.234375 l 2.390625,2.40625 -2.390625,2.40625 C 1.78125,-0.453125 1.75,-0.4375 1.75,-0.34375 c 0,0.125 0.125,0.234375 0.25,0.234375 0.09375,0 0.109375,-0.015625 0.265625,-0.171875 l 2.375,-2.375 2.46875,2.484375 c 0.03125,0 0.109375,0.0625 0.1875,0.0625 0.140625,0 0.234375,-0.109375 0.234375,-0.234375 0,-0.03125 0,-0.078125 -0.03125,-0.140625 C 7.484375,-0.5 5.578125,-2.375 4.984375,-2.984375 l 2.1875,-2.1875 C 7.234375,-5.25 7.40625,-5.40625 7.46875,-5.46875 7.484375,-5.5 7.53125,-5.546875 7.53125,-5.625 c 0,-0.140625 -0.09375,-0.25 -0.234375,-0.25 -0.09375,0 -0.15625,0.046875 -0.28125,0.1875 z m 0,0"
               id="id-a7a5e32f-2906-4911-b85b-1fcac2768dba" />
          </g>
        </g>
      </defs>
      <g
         fill="#000000"
         fill-opacity="1"
         id="id-c9539128-7be9-4cae-b346-9fbceacabed1"
         transform="translate(-129.225,-129.597)">
        <g
           transform="translate(128.413,137.753)"
           id="g2519">
          <path
             d="M 6.046875,-2.75 C 5.625,-1.078125 4.25,-0.09375 3.125,-0.09375 c -0.859375,0 -1.453125,-0.578125 -1.453125,-1.5625 0,-0.046875 0,-0.40625 0.140625,-0.9375 L 2.96875,-7.296875 C 3.078125,-7.703125 3.109375,-7.8125 3.953125,-7.8125 c 0.21875,0 0.34375,0 0.34375,-0.21875 0,-0.125 -0.109375,-0.125 -0.1875,-0.125 -0.21875,0 -0.46875,0.015625 -0.6875,0.015625 h -1.40625 c -0.234375,0 -0.484375,-0.015625 -0.71875,-0.015625 -0.078125,0 -0.21875,0 -0.21875,0.21875 0,0.125 0.078125,0.125 0.3125,0.125 0.71875,0 0.71875,0.09375 0.71875,0.21875 0,0.078125 -0.09375,0.421875 -0.15625,0.625 l -1.03125,4.1875 C 0.890625,-2.65625 0.8125,-2.328125 0.8125,-2.015625 0.8125,-0.6875 1.75,0.25 3.0625,0.25 c 1.203125,0 2.546875,-0.953125 3.15625,-2.46875 0.078125,-0.203125 0.1875,-0.625 0.265625,-0.953125 C 6.59375,-3.59375 6.84375,-4.65625 6.9375,-4.953125 L 7.390625,-6.75 c 0.15625,-0.625 0.25,-1.015625 1.296875,-1.0625 0.09375,-0.015625 0.140625,-0.109375 0.140625,-0.21875 0,-0.125 -0.109375,-0.125 -0.15625,-0.125 -0.15625,0 -0.375,0.015625 -0.546875,0.015625 H 7.5625 c -0.734375,0 -1.125,-0.015625 -1.125,-0.015625 -0.078125,0 -0.21875,0 -0.21875,0.21875 0,0.125 0.09375,0.125 0.171875,0.125 0.71875,0.015625 0.765625,0.296875 0.765625,0.515625 0,0.09375 0,0.140625 -0.046875,0.296875 z m 0,0"
             id="id-18768e99-c025-40e1-a58e-a128c8090180" />
        </g>
      </g>
      <g
         fill="#000000"
         fill-opacity="1"
         id="id-e97c6927-7ef4-4b65-8cbd-0ec1a04d7c0a"
         transform="translate(-129.225,-129.597)">
        <g
           transform="translate(136.363,139.547)"
           id="g2523">
          <path
             d="M 4.15625,-3.046875 C 4.546875,-3.4375 5.671875,-4.59375 5.859375,-4.75 6.203125,-5 6.40625,-5.140625 6.96875,-5.171875 c 0.046875,-0.015625 0.109375,-0.0625 0.109375,-0.15625 0,-0.078125 -0.0625,-0.109375 -0.109375,-0.109375 -0.078125,0 -0.125,0.015625 -0.75,0.015625 -0.59375,0 -0.8125,-0.015625 -0.84375,-0.015625 -0.03125,0 -0.15625,0 -0.15625,0.140625 0,0.015625 0,0.109375 0.109375,0.125 0.0625,0 0.28125,0.015625 0.28125,0.203125 0,0.046875 -0.046875,0.140625 -0.109375,0.203125 L 5.484375,-4.71875 C 5.453125,-4.703125 5.453125,-4.6875 5.375,-4.609375 l -1.328125,1.34375 -0.8125,-1.6875 c 0.109375,-0.1875 0.34375,-0.21875 0.453125,-0.21875 0.03125,0 0.140625,-0.015625 0.140625,-0.15625 0,-0.0625 -0.046875,-0.109375 -0.125,-0.109375 -0.078125,0 -0.375,0.015625 -0.453125,0.015625 -0.046875,0 -0.34375,0 -0.515625,0 -0.75,0 -0.84375,-0.015625 -0.90625,-0.015625 -0.03125,0 -0.15625,0 -0.15625,0.140625 0,0.125 0.09375,0.125 0.21875,0.125 0.40625,0 0.46875,0.078125 0.546875,0.21875 L 3.5,-2.71875 1.859375,-1.046875 c -0.46875,0.46875 -0.84375,0.75 -1.40625,0.78125 C 0.34375,-0.25 0.25,-0.25 0.25,-0.109375 0.25,-0.0625 0.296875,0 0.375,0 0.4375,0 0.515625,-0.03125 1.125,-0.03125 1.703125,-0.03125 1.9375,0 1.96875,0 c 0.046875,0 0.171875,0 0.171875,-0.15625 0,-0.015625 -0.015625,-0.09375 -0.125,-0.109375 -0.15625,0 -0.265625,-0.0625 -0.265625,-0.203125 0,-0.125 0.09375,-0.234375 0.203125,-0.359375 0.140625,-0.140625 0.5625,-0.5625 0.84375,-0.84375 0.1875,-0.171875 0.625,-0.640625 0.8125,-0.8125 l 0.921875,1.90625 C 4.5625,-0.5 4.5625,-0.5 4.5625,-0.484375 c 0,0.0625 -0.15625,0.203125 -0.421875,0.21875 -0.0625,0 -0.171875,0.015625 -0.171875,0.15625 0,0 0.015625,0.109375 0.140625,0.109375 0.078125,0 0.375,-0.015625 0.453125,-0.03125 H 5.078125 C 5.8125,-0.03125 5.921875,0 6,0 c 0.03125,0 0.140625,0 0.140625,-0.15625 0,-0.109375 -0.09375,-0.109375 -0.21875,-0.109375 -0.4375,0 -0.484375,-0.09375 -0.53125,-0.21875 z m 0,0"
             id="id-562eb4b2-fafa-4279-b3bd-8b1b7e47d01b" />
        </g>
      </g>
      <g
         fill="#000000"
         fill-opacity="1"
         id="id-16fd0d34-6c93-4f7c-a458-66a8b431a280"
         transform="translate(-129.225,-129.597)">
        <g
           transform="translate(147.105,137.753)"
           id="g2527">
          <path
             d="m 4.65625,-3.328125 -2.390625,-2.375 C 2.109375,-5.84375 2.09375,-5.875 2,-5.875 c -0.125,0 -0.25,0.109375 -0.25,0.25 0,0.078125 0.03125,0.109375 0.15625,0.234375 l 2.390625,2.40625 -2.390625,2.40625 C 1.78125,-0.453125 1.75,-0.4375 1.75,-0.34375 c 0,0.125 0.125,0.234375 0.25,0.234375 0.09375,0 0.109375,-0.015625 0.265625,-0.171875 l 2.375,-2.375 2.46875,2.484375 c 0.03125,0 0.109375,0.0625 0.1875,0.0625 0.140625,0 0.234375,-0.109375 0.234375,-0.234375 0,-0.03125 0,-0.078125 -0.03125,-0.140625 C 7.484375,-0.5 5.578125,-2.375 4.984375,-2.984375 l 2.1875,-2.1875 C 7.234375,-5.25 7.40625,-5.40625 7.46875,-5.46875 7.484375,-5.5 7.53125,-5.546875 7.53125,-5.625 c 0,-0.140625 -0.09375,-0.25 -0.234375,-0.25 -0.09375,0 -0.15625,0.046875 -0.28125,0.1875 z m 0,0"
             id="id-75d0ab1f-5ddc-4df8-92f9-c449ec4a59c1" />
        </g>
      </g>
      <g
         fill="#000000"
         fill-opacity="1"
         id="id-1c411403-62da-46e5-b25f-3b216a694f9e"
         transform="translate(-129.225,-129.597)">
        <g
           transform="translate(159.06,137.753)"
           id="g2531">
          <path
             d="M 7.03125,-6.84375 7.296875,-7.109375 C 7.828125,-7.65625 8.265625,-7.78125 8.6875,-7.8125 8.828125,-7.828125 8.921875,-7.84375 8.921875,-8.046875 8.921875,-8.15625 8.8125,-8.15625 8.78125,-8.15625 c -0.140625,0 -0.296875,0.015625 -0.4375,0.015625 H 7.859375 c -0.359375,0 -0.71875,-0.015625 -1.0625,-0.015625 -0.078125,0 -0.203125,0 -0.203125,0.21875 0,0.109375 0.109375,0.125 0.140625,0.125 0.359375,0.015625 0.359375,0.203125 0.359375,0.265625 0,0.140625 -0.09375,0.3125 -0.328125,0.59375 L 3.921875,-3.6875 2.5625,-7.328125 C 2.5,-7.5 2.5,-7.515625 2.5,-7.546875 c 0,-0.25 0.484375,-0.265625 0.625,-0.265625 0.15625,0 0.28125,0 0.28125,-0.21875 0,-0.125 -0.109375,-0.125 -0.171875,-0.125 -0.203125,0 -0.453125,0.015625 -0.65625,0.015625 H 1.25 c -0.203125,0 -0.4375,-0.015625 -0.640625,-0.015625 -0.078125,0 -0.21875,0 -0.21875,0.21875 0,0.125 0.109375,0.125 0.296875,0.125 0.578125,0 0.6875,0.109375 0.796875,0.375 l 1.484375,3.984375 c 0,0.03125 0.046875,0.171875 0.046875,0.203125 0,0.03125 -0.59375,2.390625 -0.625,2.515625 -0.09375,0.3125 -0.21875,0.375 -0.984375,0.390625 -0.203125,0 -0.296875,0 -0.296875,0.21875 C 1.109375,0 1.25,0 1.28125,0 1.5,0 1.75,-0.03125 1.96875,-0.03125 H 3.375 C 3.59375,-0.03125 3.84375,0 4.0625,0 c 0.078125,0 0.234375,0 0.234375,-0.21875 0,-0.125 -0.09375,-0.125 -0.296875,-0.125 -0.734375,0 -0.734375,-0.09375 -0.734375,-0.21875 0,-0.078125 0.09375,-0.46875 0.15625,-0.703125 l 0.421875,-1.71875 c 0.078125,-0.25 0.078125,-0.28125 0.1875,-0.390625 z m 0,0"
             id="id-dbc19d12-12ec-4ddc-a5b4-18bdc69f6212" />
        </g>
      </g>
    </g>
    <g
       transform="matrix(0.49248738,0,0,0.49248738,104.65065,108.79605)"
       ns1:version="1.8.2"
       ns1:texconverter="pdflatex"
       ns1:pdfconverter="inkscape"
       ns1:text="$V_X \\times Y$"
       ns1:preamble="/Users/sachchidanandprasad/Library/Application Support/org.inkscape.Inkscape/config/inkscape/extensions/textext/default_packages.tex"
       ns1:scale="1.7546955875933306"
       ns1:alignment="middle center"
       ns1:stroke-to-path="0"
       ns1:jacobian_sqrt="0.619018"
       id="g2839">
      <defs
         id="id-465250ea-c1ff-4337-a6c2-c767df4e12f0">
        <g
           id="id-1428185d-456b-4468-ba64-7a35d341adbf">
          <g
             id="id-a1cdb696-9083-47f7-acc3-ea9508f0cf29" />
          <g
             id="id-a03df779-5353-47f3-883d-8b617cf5a58f">
            <path
               d="M 7.40625,-6.84375 C 7.8125,-7.484375 8.171875,-7.765625 8.78125,-7.8125 8.90625,-7.828125 9,-7.828125 9,-8.046875 9,-8.09375 8.984375,-8.15625 8.875,-8.15625 c -0.21875,0 -0.734375,0.015625 -0.953125,0.015625 -0.34375,0 -0.703125,-0.015625 -1.03125,-0.015625 -0.09375,0 -0.21875,0 -0.21875,0.21875 0,0.109375 0.109375,0.125 0.15625,0.125 0.4375,0.03125 0.484375,0.25 0.484375,0.390625 0,0.171875 -0.171875,0.453125 -0.171875,0.46875 L 3.375,-1 2.546875,-7.453125 c 0,-0.34375 0.625,-0.359375 0.75,-0.359375 0.1875,0 0.28125,0 0.28125,-0.234375 0,-0.109375 -0.125,-0.109375 -0.15625,-0.109375 -0.203125,0 -0.453125,0.015625 -0.65625,0.015625 h -0.65625 c -0.875,0 -1.234375,-0.015625 -1.25,-0.015625 -0.078125,0 -0.21875,0 -0.21875,0.203125 0,0.140625 0.09375,0.140625 0.28125,0.140625 0.609375,0 0.640625,0.109375 0.6875,0.40625 l 0.953125,7.375 C 2.59375,0.21875 2.59375,0.25 2.765625,0.25 2.90625,0.25 2.96875,0.21875 3.078125,0.03125 Z m 0,0"
               id="id-1d279333-bd6d-4418-8f8f-a4318249226c" />
          </g>
          <g
             id="id-6e354786-7882-4d1f-a806-62c347e8417f">
            <path
               d="M 7.03125,-6.84375 7.296875,-7.109375 C 7.828125,-7.65625 8.265625,-7.78125 8.6875,-7.8125 8.828125,-7.828125 8.921875,-7.84375 8.921875,-8.046875 8.921875,-8.15625 8.8125,-8.15625 8.78125,-8.15625 c -0.140625,0 -0.296875,0.015625 -0.4375,0.015625 H 7.859375 c -0.359375,0 -0.71875,-0.015625 -1.0625,-0.015625 -0.078125,0 -0.203125,0 -0.203125,0.21875 0,0.109375 0.109375,0.125 0.140625,0.125 0.359375,0.015625 0.359375,0.203125 0.359375,0.265625 0,0.140625 -0.09375,0.3125 -0.328125,0.59375 L 3.921875,-3.6875 2.5625,-7.328125 C 2.5,-7.5 2.5,-7.515625 2.5,-7.546875 c 0,-0.25 0.484375,-0.265625 0.625,-0.265625 0.15625,0 0.28125,0 0.28125,-0.21875 0,-0.125 -0.109375,-0.125 -0.171875,-0.125 -0.203125,0 -0.453125,0.015625 -0.65625,0.015625 H 1.25 c -0.203125,0 -0.4375,-0.015625 -0.640625,-0.015625 -0.078125,0 -0.21875,0 -0.21875,0.21875 0,0.125 0.109375,0.125 0.296875,0.125 0.578125,0 0.6875,0.109375 0.796875,0.375 l 1.484375,3.984375 c 0,0.03125 0.046875,0.171875 0.046875,0.203125 0,0.03125 -0.59375,2.390625 -0.625,2.515625 -0.09375,0.3125 -0.21875,0.375 -0.984375,0.390625 -0.203125,0 -0.296875,0 -0.296875,0.21875 C 1.109375,0 1.25,0 1.28125,0 1.5,0 1.75,-0.03125 1.96875,-0.03125 H 3.375 C 3.59375,-0.03125 3.84375,0 4.0625,0 c 0.078125,0 0.234375,0 0.234375,-0.21875 0,-0.125 -0.09375,-0.125 -0.296875,-0.125 -0.734375,0 -0.734375,-0.09375 -0.734375,-0.21875 0,-0.078125 0.09375,-0.46875 0.15625,-0.703125 l 0.421875,-1.71875 c 0.078125,-0.25 0.078125,-0.28125 0.1875,-0.390625 z m 0,0"
               id="id-3e2c4a22-1133-421e-8115-76951c56e701" />
          </g>
          <g
             id="id-5a5d9a93-a687-46e3-92a9-12c4f9526e5a" />
          <g
             id="id-088f96b9-ed64-4a1a-92cf-8c42d37b8d59">
            <path
               d="M 4.15625,-3.046875 C 4.546875,-3.4375 5.671875,-4.59375 5.859375,-4.75 6.203125,-5 6.40625,-5.140625 6.96875,-5.171875 c 0.046875,-0.015625 0.109375,-0.0625 0.109375,-0.15625 0,-0.078125 -0.0625,-0.109375 -0.109375,-0.109375 -0.078125,0 -0.125,0.015625 -0.75,0.015625 -0.59375,0 -0.8125,-0.015625 -0.84375,-0.015625 -0.03125,0 -0.15625,0 -0.15625,0.140625 0,0.015625 0,0.109375 0.109375,0.125 0.0625,0 0.28125,0.015625 0.28125,0.203125 0,0.046875 -0.046875,0.140625 -0.109375,0.203125 L 5.484375,-4.71875 C 5.453125,-4.703125 5.453125,-4.6875 5.375,-4.609375 l -1.328125,1.34375 -0.8125,-1.6875 c 0.109375,-0.1875 0.34375,-0.21875 0.453125,-0.21875 0.03125,0 0.140625,-0.015625 0.140625,-0.15625 0,-0.0625 -0.046875,-0.109375 -0.125,-0.109375 -0.078125,0 -0.375,0.015625 -0.453125,0.015625 -0.046875,0 -0.34375,0 -0.515625,0 -0.75,0 -0.84375,-0.015625 -0.90625,-0.015625 -0.03125,0 -0.15625,0 -0.15625,0.140625 0,0.125 0.09375,0.125 0.21875,0.125 0.40625,0 0.46875,0.078125 0.546875,0.21875 L 3.5,-2.71875 1.859375,-1.046875 c -0.46875,0.46875 -0.84375,0.75 -1.40625,0.78125 C 0.34375,-0.25 0.25,-0.25 0.25,-0.109375 0.25,-0.0625 0.296875,0 0.375,0 0.4375,0 0.515625,-0.03125 1.125,-0.03125 1.703125,-0.03125 1.9375,0 1.96875,0 c 0.046875,0 0.171875,0 0.171875,-0.15625 0,-0.015625 -0.015625,-0.09375 -0.125,-0.109375 -0.15625,0 -0.265625,-0.0625 -0.265625,-0.203125 0,-0.125 0.09375,-0.234375 0.203125,-0.359375 0.140625,-0.140625 0.5625,-0.5625 0.84375,-0.84375 0.1875,-0.171875 0.625,-0.640625 0.8125,-0.8125 l 0.921875,1.90625 C 4.5625,-0.5 4.5625,-0.5 4.5625,-0.484375 c 0,0.0625 -0.15625,0.203125 -0.421875,0.21875 -0.0625,0 -0.171875,0.015625 -0.171875,0.15625 0,0 0.015625,0.109375 0.140625,0.109375 0.078125,0 0.375,-0.015625 0.453125,-0.03125 H 5.078125 C 5.8125,-0.03125 5.921875,0 6,0 c 0.03125,0 0.140625,0 0.140625,-0.15625 0,-0.109375 -0.09375,-0.109375 -0.21875,-0.109375 -0.4375,0 -0.484375,-0.09375 -0.53125,-0.21875 z m 0,0"
               id="id-2ad97c39-142a-4a3a-960e-aa40a98177fe" />
          </g>
          <g
             id="id-156e3cd6-23ab-4d33-af4f-a3293b6941b7" />
          <g
             id="id-2f77655b-d302-4f20-b27f-0e66e9d28828">
            <path
               d="m 4.65625,-3.328125 -2.390625,-2.375 C 2.109375,-5.84375 2.09375,-5.875 2,-5.875 c -0.125,0 -0.25,0.109375 -0.25,0.25 0,0.078125 0.03125,0.109375 0.15625,0.234375 l 2.390625,2.40625 -2.390625,2.40625 C 1.78125,-0.453125 1.75,-0.4375 1.75,-0.34375 c 0,0.125 0.125,0.234375 0.25,0.234375 0.09375,0 0.109375,-0.015625 0.265625,-0.171875 l 2.375,-2.375 2.46875,2.484375 c 0.03125,0 0.109375,0.0625 0.1875,0.0625 0.140625,0 0.234375,-0.109375 0.234375,-0.234375 0,-0.03125 0,-0.078125 -0.03125,-0.140625 C 7.484375,-0.5 5.578125,-2.375 4.984375,-2.984375 l 2.1875,-2.1875 C 7.234375,-5.25 7.40625,-5.40625 7.46875,-5.46875 7.484375,-5.5 7.53125,-5.546875 7.53125,-5.625 c 0,-0.140625 -0.09375,-0.25 -0.234375,-0.25 -0.09375,0 -0.15625,0.046875 -0.28125,0.1875 z m 0,0"
               id="id-aa72837c-1859-420c-aace-18594d7f9038" />
          </g>
        </g>
      </defs>
      <g
         fill="#000000"
         fill-opacity="1"
         id="id-1728d502-5b04-486e-9395-96951ecf9639"
         transform="translate(-129.054,-129.597)">
        <g
           transform="translate(128.413,137.753)"
           id="g2824">
          <path
             d="M 7.40625,-6.84375 C 7.8125,-7.484375 8.171875,-7.765625 8.78125,-7.8125 8.90625,-7.828125 9,-7.828125 9,-8.046875 9,-8.09375 8.984375,-8.15625 8.875,-8.15625 c -0.21875,0 -0.734375,0.015625 -0.953125,0.015625 -0.34375,0 -0.703125,-0.015625 -1.03125,-0.015625 -0.09375,0 -0.21875,0 -0.21875,0.21875 0,0.109375 0.109375,0.125 0.15625,0.125 0.4375,0.03125 0.484375,0.25 0.484375,0.390625 0,0.171875 -0.171875,0.453125 -0.171875,0.46875 L 3.375,-1 2.546875,-7.453125 c 0,-0.34375 0.625,-0.359375 0.75,-0.359375 0.1875,0 0.28125,0 0.28125,-0.234375 0,-0.109375 -0.125,-0.109375 -0.15625,-0.109375 -0.203125,0 -0.453125,0.015625 -0.65625,0.015625 h -0.65625 c -0.875,0 -1.234375,-0.015625 -1.25,-0.015625 -0.078125,0 -0.21875,0 -0.21875,0.203125 0,0.140625 0.09375,0.140625 0.28125,0.140625 0.609375,0 0.640625,0.109375 0.6875,0.40625 l 0.953125,7.375 C 2.59375,0.21875 2.59375,0.25 2.765625,0.25 2.90625,0.25 2.96875,0.21875 3.078125,0.03125 Z m 0,0"
             id="id-c6dbf6c6-efef-4956-8cb7-0caa50427d4a" />
        </g>
      </g>
      <g
         fill="#000000"
         fill-opacity="1"
         id="id-1ce290c5-d50e-4157-9688-cdb3c6a383ef"
         transform="translate(-129.054,-129.597)">
        <g
           transform="translate(135.238,139.547)"
           id="g2828">
          <path
             d="M 4.15625,-3.046875 C 4.546875,-3.4375 5.671875,-4.59375 5.859375,-4.75 6.203125,-5 6.40625,-5.140625 6.96875,-5.171875 c 0.046875,-0.015625 0.109375,-0.0625 0.109375,-0.15625 0,-0.078125 -0.0625,-0.109375 -0.109375,-0.109375 -0.078125,0 -0.125,0.015625 -0.75,0.015625 -0.59375,0 -0.8125,-0.015625 -0.84375,-0.015625 -0.03125,0 -0.15625,0 -0.15625,0.140625 0,0.015625 0,0.109375 0.109375,0.125 0.0625,0 0.28125,0.015625 0.28125,0.203125 0,0.046875 -0.046875,0.140625 -0.109375,0.203125 L 5.484375,-4.71875 C 5.453125,-4.703125 5.453125,-4.6875 5.375,-4.609375 l -1.328125,1.34375 -0.8125,-1.6875 c 0.109375,-0.1875 0.34375,-0.21875 0.453125,-0.21875 0.03125,0 0.140625,-0.015625 0.140625,-0.15625 0,-0.0625 -0.046875,-0.109375 -0.125,-0.109375 -0.078125,0 -0.375,0.015625 -0.453125,0.015625 -0.046875,0 -0.34375,0 -0.515625,0 -0.75,0 -0.84375,-0.015625 -0.90625,-0.015625 -0.03125,0 -0.15625,0 -0.15625,0.140625 0,0.125 0.09375,0.125 0.21875,0.125 0.40625,0 0.46875,0.078125 0.546875,0.21875 L 3.5,-2.71875 1.859375,-1.046875 c -0.46875,0.46875 -0.84375,0.75 -1.40625,0.78125 C 0.34375,-0.25 0.25,-0.25 0.25,-0.109375 0.25,-0.0625 0.296875,0 0.375,0 0.4375,0 0.515625,-0.03125 1.125,-0.03125 1.703125,-0.03125 1.9375,0 1.96875,0 c 0.046875,0 0.171875,0 0.171875,-0.15625 0,-0.015625 -0.015625,-0.09375 -0.125,-0.109375 -0.15625,0 -0.265625,-0.0625 -0.265625,-0.203125 0,-0.125 0.09375,-0.234375 0.203125,-0.359375 0.140625,-0.140625 0.5625,-0.5625 0.84375,-0.84375 0.1875,-0.171875 0.625,-0.640625 0.8125,-0.8125 l 0.921875,1.90625 C 4.5625,-0.5 4.5625,-0.5 4.5625,-0.484375 c 0,0.0625 -0.15625,0.203125 -0.421875,0.21875 -0.0625,0 -0.171875,0.015625 -0.171875,0.15625 0,0 0.015625,0.109375 0.140625,0.109375 0.078125,0 0.375,-0.015625 0.453125,-0.03125 H 5.078125 C 5.8125,-0.03125 5.921875,0 6,0 c 0.03125,0 0.140625,0 0.140625,-0.15625 0,-0.109375 -0.09375,-0.109375 -0.21875,-0.109375 -0.4375,0 -0.484375,-0.09375 -0.53125,-0.21875 z m 0,0"
             id="id-26a10691-242b-415d-8a3e-b0d606398494" />
        </g>
      </g>
      <g
         fill="#000000"
         fill-opacity="1"
         id="id-345640c4-16ad-4d89-ae04-da236a1f08df"
         transform="translate(-129.054,-129.597)">
        <g
           transform="translate(145.979,137.753)"
           id="g2832">
          <path
             d="m 4.65625,-3.328125 -2.390625,-2.375 C 2.109375,-5.84375 2.09375,-5.875 2,-5.875 c -0.125,0 -0.25,0.109375 -0.25,0.25 0,0.078125 0.03125,0.109375 0.15625,0.234375 l 2.390625,2.40625 -2.390625,2.40625 C 1.78125,-0.453125 1.75,-0.4375 1.75,-0.34375 c 0,0.125 0.125,0.234375 0.25,0.234375 0.09375,0 0.109375,-0.015625 0.265625,-0.171875 l 2.375,-2.375 2.46875,2.484375 c 0.03125,0 0.109375,0.0625 0.1875,0.0625 0.140625,0 0.234375,-0.109375 0.234375,-0.234375 0,-0.03125 0,-0.078125 -0.03125,-0.140625 C 7.484375,-0.5 5.578125,-2.375 4.984375,-2.984375 l 2.1875,-2.1875 C 7.234375,-5.25 7.40625,-5.40625 7.46875,-5.46875 7.484375,-5.5 7.53125,-5.546875 7.53125,-5.625 c 0,-0.140625 -0.09375,-0.25 -0.234375,-0.25 -0.09375,0 -0.15625,0.046875 -0.28125,0.1875 z m 0,0"
             id="id-e51fc9b2-ff55-4551-b8b8-2524e5d85079" />
        </g>
      </g>
      <g
         fill="#000000"
         fill-opacity="1"
         id="id-197c8638-6856-4557-aaa4-1c9b55c8759c"
         transform="translate(-129.054,-129.597)">
        <g
           transform="translate(157.934,137.753)"
           id="g2836">
          <path
             d="M 7.03125,-6.84375 7.296875,-7.109375 C 7.828125,-7.65625 8.265625,-7.78125 8.6875,-7.8125 8.828125,-7.828125 8.921875,-7.84375 8.921875,-8.046875 8.921875,-8.15625 8.8125,-8.15625 8.78125,-8.15625 c -0.140625,0 -0.296875,0.015625 -0.4375,0.015625 H 7.859375 c -0.359375,0 -0.71875,-0.015625 -1.0625,-0.015625 -0.078125,0 -0.203125,0 -0.203125,0.21875 0,0.109375 0.109375,0.125 0.140625,0.125 0.359375,0.015625 0.359375,0.203125 0.359375,0.265625 0,0.140625 -0.09375,0.3125 -0.328125,0.59375 L 3.921875,-3.6875 2.5625,-7.328125 C 2.5,-7.5 2.5,-7.515625 2.5,-7.546875 c 0,-0.25 0.484375,-0.265625 0.625,-0.265625 0.15625,0 0.28125,0 0.28125,-0.21875 0,-0.125 -0.109375,-0.125 -0.171875,-0.125 -0.203125,0 -0.453125,0.015625 -0.65625,0.015625 H 1.25 c -0.203125,0 -0.4375,-0.015625 -0.640625,-0.015625 -0.078125,0 -0.21875,0 -0.21875,0.21875 0,0.125 0.109375,0.125 0.296875,0.125 0.578125,0 0.6875,0.109375 0.796875,0.375 l 1.484375,3.984375 c 0,0.03125 0.046875,0.171875 0.046875,0.203125 0,0.03125 -0.59375,2.390625 -0.625,2.515625 -0.09375,0.3125 -0.21875,0.375 -0.984375,0.390625 -0.203125,0 -0.296875,0 -0.296875,0.21875 C 1.109375,0 1.25,0 1.28125,0 1.5,0 1.75,-0.03125 1.96875,-0.03125 H 3.375 C 3.59375,-0.03125 3.84375,0 4.0625,0 c 0.078125,0 0.234375,0 0.234375,-0.21875 0,-0.125 -0.09375,-0.125 -0.296875,-0.125 -0.734375,0 -0.734375,-0.09375 -0.734375,-0.21875 0,-0.078125 0.09375,-0.46875 0.15625,-0.703125 l 0.421875,-1.71875 c 0.078125,-0.25 0.078125,-0.28125 0.1875,-0.390625 z m 0,0"
             id="id-ca80a47c-956e-45ff-9a7c-302530469c7c" />
        </g>
      </g>
    </g>
  </g>
</svg>
