<?xml version="1.0" encoding="UTF-8" standalone="no"?>
<!-- Created with Inkscape (http://www.inkscape.org/) -->

<svg
   width="236.00951mm"
   height="24.431337mm"
   viewBox="0 0 236.00951 24.431337"
   version="1.1"
   id="svg1"
   inkscape:version="1.4 (e7c3feb1, 2024-10-09)"
   sodipodi:docname="prob-24-04-25_01.svg"
   xmlns:inkscape="http://www.inkscape.org/namespaces/inkscape"
   xmlns:sodipodi="http://sodipodi.sourceforge.net/DTD/sodipodi-0.dtd"
   xmlns="http://www.w3.org/2000/svg"
   xmlns:svg="http://www.w3.org/2000/svg"
   xmlns:ns1="http://www.iki.fi/pav/software/textext/">
  <sodipodi:namedview
     id="namedview1"
     pagecolor="#ffffff"
     bordercolor="#000000"
     borderopacity="0.25"
     inkscape:showpageshadow="2"
     inkscape:pageopacity="0.0"
     inkscape:pagecheckerboard="0"
     inkscape:deskcolor="#d1d1d1"
     inkscape:document-units="mm"
     inkscape:zoom="1"
     inkscape:cx="293"
     inkscape:cy="196"
     inkscape:window-width="1512"
     inkscape:window-height="916"
     inkscape:window-x="0"
     inkscape:window-y="38"
     inkscape:window-maximized="1"
     inkscape:current-layer="svg1" />
  <defs
     id="defs1" />
  <g
     inkscape:label="Layer 1"
     inkscape:groupmode="layer"
     id="layer1"
     transform="translate(1.7970049,-134.0334)">
    <path
       style="fill:none;fill-rule:evenodd;stroke:#1a1a1a;stroke-width:0.799999;stroke-opacity:0.967546"
       d="M 0,144.72708 H 233.8125"
       id="path1"
       sodipodi:nodetypes="cc" />
    <path
       style="fill:none;fill-rule:evenodd;stroke:#1a1a1a;stroke-width:0.799999;stroke-opacity:0.967546"
       d="m 0,142.93433 v 3.58549"
       id="path2" />
    <path
       style="fill:none;fill-rule:evenodd;stroke:#1a1a1a;stroke-width:0.799999;stroke-opacity:0.967546"
       d="m 53.845832,142.93433 v 3.58549"
       id="path4" />
    <path
       style="fill:none;fill-rule:evenodd;stroke:#1a1a1a;stroke-width:0.799999;stroke-opacity:0.967546"
       d="m 167.97083,142.93433 v 3.58549"
       id="path5" />
    <path
       style="fill:none;fill-rule:evenodd;stroke:#1a1a1a;stroke-width:0.799999;stroke-opacity:0.967546"
       d="m 233.8125,142.93433 v 3.58549"
       id="path6" />
    <g
       transform="matrix(0.705556,0,0,0.705556,-1.7969167,148.3155)"
       ns1:version="1.10.2"
       ns1:texconverter="pdflatex"
       ns1:pdfconverter="inkscape"
       ns1:text="$0$"
       ns1:preamble="/Users/sachchidanandprasad/Library/Application Support/org.inkscape.Inkscape/config/inkscape/extensions/textext/default_packages.tex"
       ns1:scale="2.0"
       ns1:alignment="middle center"
       ns1:stroke-to-path="0"
       ns1:jacobian_sqrt="0.705556"
       id="g7">
      <defs
         id="id-1aa33205-621b-41b1-9108-b99559a6626f">
        <g
           id="id-4f7c364e-3091-4371-b901-d06a6afc8c0d">
          <g
             id="id-73be9af7-a1ca-4051-9369-4eeb0c96fa2b">
            <path
               d="m 2.625,-6.875 c -1.546875,0 -2.328125,1.234375 -2.328125,3.640625 C 0.296875,-2.0625 0.5,-1.0625 0.84375,-0.5625 1.203125,-0.078125 1.75,0.203125 2.375,0.203125 c 1.5,0 2.265625,-1.296875 2.265625,-3.859375 0,-2.171875 -0.65625,-3.21875 -2.015625,-3.21875 z m -0.1875,0.359375 c 0.96875,0 1.359375,0.96875 1.359375,3.359375 0,2.125 -0.375,3 -1.296875,3 -0.96875,0 -1.375,-1 -1.375,-3.4375 0,-2.09375 0.375,-2.921875 1.3125,-2.921875 z m 0,0"
               id="id-216cc851-cd5e-439d-bf17-7703fe85e844" />
          </g>
        </g>
      </defs>
      <g
         fill="#000000"
         fill-opacity="1"
         id="id-0273c9cf-0d68-483f-90cf-cf47758c9aae"
         transform="translate(-149.009,-127.89)">
        <g
           transform="translate(148.712,134.765)"
           id="g6">
          <path
             d="m 2.625,-6.875 c -1.546875,0 -2.328125,1.234375 -2.328125,3.640625 C 0.296875,-2.0625 0.5,-1.0625 0.84375,-0.5625 1.203125,-0.078125 1.75,0.203125 2.375,0.203125 c 1.5,0 2.265625,-1.296875 2.265625,-3.859375 0,-2.171875 -0.65625,-3.21875 -2.015625,-3.21875 z m -0.1875,0.359375 c 0.96875,0 1.359375,0.96875 1.359375,3.359375 0,2.125 -0.375,3 -1.296875,3 -0.96875,0 -1.375,-1 -1.375,-3.4375 0,-2.09375 0.375,-2.921875 1.3125,-2.921875 z m 0,0"
             id="id-9da8e150-791c-4f9c-ac8b-3db0ac769667" />
        </g>
      </g>
    </g>
    <path
       style="fill:none;fill-rule:evenodd;stroke:#1a1a1a;stroke-width:0.799999;stroke-opacity:0.967546"
       d="m 114.43542,142.93433 v 3.58549"
       id="path7" />
    <g
       transform="matrix(0.705556,0,0,0.705556,45.94236,149.51017)"
       ns1:version="1.10.2"
       ns1:texconverter="pdflatex"
       ns1:pdfconverter="inkscape"
       ns1:text="$\\frac{1}{2} - \\frac{1}{n}$"
       ns1:preamble="/Users/sachchidanandprasad/Library/Application Support/org.inkscape.Inkscape/config/inkscape/extensions/textext/default_packages.tex"
       ns1:scale="2.0"
       ns1:alignment="middle center"
       ns1:stroke-to-path="0"
       ns1:jacobian_sqrt="0.705556"
       id="g13">
      <defs
         id="id-a70046d5-bd63-456b-b463-6109ba77e139">
        <g
           id="id-e602a41e-8694-4e22-a0c3-9cb51cbd72b2">
          <g
             id="id-8e1c2d4b-2f43-49ec-929e-8353b33a75b1">
            <path
               d="m 0.5,-4.203125 h 0.078125 l 0.984375,-0.4375 c 0,-0.015625 0.015625,-0.015625 0.015625,-0.015625 0.046875,0 0.0625,0.078125 0.0625,0.25 v 3.671875 c 0,0.40625 -0.078125,0.484375 -0.484375,0.5 l -0.421875,0.03125 v 0.21875 C 1.890625,0 1.890625,0 1.984375,0 2.078125,0 2.25,0 2.5,0 2.59375,0.015625 2.859375,0.015625 3.171875,0.015625 v -0.21875 L 2.78125,-0.234375 c -0.421875,-0.015625 -0.5,-0.09375 -0.5,-0.5 V -5.21875 L 2.171875,-5.265625 C 1.6875,-5 1.140625,-4.78125 0.453125,-4.53125 Z m 0,0"
               id="id-35880bd7-8316-4353-932a-6861897edd6d" />
          </g>
          <g
             id="id-ace953e7-3c0f-4af1-aa93-9b8053d3201a">
            <path
               d="m 0.125,-0.171875 v 0.1875 C 1.53125,0 1.53125,0 1.8125,0 2.078125,0 2.078125,0 3.546875,0.015625 3.53125,-0.140625 3.53125,-0.21875 3.53125,-0.3125 c 0,-0.109375 0,-0.1875 0.015625,-0.34375 -0.875,0.03125 -1.21875,0.046875 -2.625,0.078125 l 1.375,-1.46875 C 3.03125,-2.828125 3.265625,-3.25 3.265625,-3.8125 c 0,-0.875 -0.59375,-1.40625 -1.546875,-1.40625 -0.546875,0 -0.921875,0.15625 -1.296875,0.53125 l -0.125,1.03125 h 0.21875 l 0.09375,-0.359375 c 0.125,-0.4375 0.40625,-0.625 0.90625,-0.625 0.65625,0 1.0625,0.40625 1.0625,1.0625 0,0.5625 -0.3125,1.125 -1.171875,2.03125 z m 0,0"
               id="id-a9659b4f-348c-438f-8433-818c02c5e241" />
          </g>
          <g
             id="id-dd78da76-ae43-474e-9b4b-0674ea64035b">
            <path
               d="m 6.84375,-2.390625 c 0.171875,0 0.359375,0 0.359375,-0.203125 0,-0.203125 -0.1875,-0.203125 -0.359375,-0.203125 h -5.625 c -0.171875,0 -0.359375,0 -0.359375,0.203125 0,0.203125 0.1875,0.203125 0.359375,0.203125 z m 0,0"
               id="id-6924f438-a520-47e7-8fec-442753bd082b" />
          </g>
          <g
             id="id-8a20bd4e-122b-4556-a062-13df87cfc4d7">
            <path
               d="m 0.1875,-2.9375 0.046875,0.15625 0.25,-0.171875 c 0.28125,-0.171875 0.296875,-0.1875 0.34375,-0.1875 0.09375,0 0.140625,0.078125 0.140625,0.1875 0,0.390625 -0.3125,1.859375 -0.625,2.9375 L 0.40625,0.0625 C 0.59375,0.015625 0.765625,-0.03125 0.9375,-0.0625 1.078125,-1.015625 1.234375,-1.515625 1.578125,-2.03125 2,-2.671875 2.5625,-3.140625 2.90625,-3.140625 c 0.078125,0 0.125,0.078125 0.125,0.1875 0,0.140625 -0.015625,0.296875 -0.078125,0.53125 L 2.546875,-0.8125 c -0.0625,0.28125 -0.09375,0.453125 -0.09375,0.578125 0,0.1875 0.078125,0.296875 0.234375,0.296875 0.1875,0 0.46875,-0.15625 1.203125,-0.703125 L 3.8125,-0.78125 3.625,-0.65625 C 3.40625,-0.5 3.234375,-0.421875 3.15625,-0.421875 3.109375,-0.421875 3.0625,-0.5 3.0625,-0.578125 c 0,-0.03125 0,-0.125 0.015625,-0.15625 l 0.5,-2.078125 C 3.625,-3.03125 3.65625,-3.25 3.65625,-3.375 c 0,-0.171875 -0.078125,-0.28125 -0.234375,-0.28125 -0.3125,0 -0.84375,0.296875 -1.28125,0.703125 C 1.84375,-2.6875 1.640625,-2.421875 1.25,-1.875 l 0.28125,-1.21875 c 0.03125,-0.140625 0.046875,-0.21875 0.046875,-0.3125 0,-0.15625 -0.0625,-0.25 -0.171875,-0.25 -0.15625,0 -0.453125,0.171875 -1.015625,0.5625 z m 0,0"
               id="id-4b1b6c40-d9bf-444e-a436-2e886800bbf0" />
          </g>
        </g>
      </defs>
      <g
         fill="#000000"
         fill-opacity="1"
         id="id-6ad402e7-55dd-4eb7-aeb2-2fc6d4d65bc3"
         transform="translate(-149.906,-125.573)">
        <g
           transform="translate(149.908,130.839)"
           id="g8">
          <path
             d="m 0.5,-4.203125 h 0.078125 l 0.984375,-0.4375 c 0,-0.015625 0.015625,-0.015625 0.015625,-0.015625 0.046875,0 0.0625,0.078125 0.0625,0.25 v 3.671875 c 0,0.40625 -0.078125,0.484375 -0.484375,0.5 l -0.421875,0.03125 v 0.21875 C 1.890625,0 1.890625,0 1.984375,0 2.078125,0 2.25,0 2.5,0 2.59375,0.015625 2.859375,0.015625 3.171875,0.015625 v -0.21875 L 2.78125,-0.234375 c -0.421875,-0.015625 -0.5,-0.09375 -0.5,-0.5 V -5.21875 L 2.171875,-5.265625 C 1.6875,-5 1.140625,-4.78125 0.453125,-4.53125 Z m 0,0"
             id="id-b76e15c5-42d1-4454-9414-4a1aaef700e3" />
        </g>
      </g>
      <path
         fill="none"
         stroke-width="0.398"
         stroke-linecap="butt"
         stroke-linejoin="miter"
         stroke="#000000"
         stroke-opacity="1"
         stroke-miterlimit="10"
         d="M 0,6.700058 H 3.789062"
         id="id-951e0126-fb59-4cdd-b145-66c4b98b396b" />
      <g
         fill="#000000"
         fill-opacity="1"
         id="id-a66187d4-c100-4ee9-bc9a-f227997c405f"
         transform="translate(-149.906,-125.573)">
        <g
           transform="translate(149.908,138.202)"
           id="g9">
          <path
             d="m 0.125,-0.171875 v 0.1875 C 1.53125,0 1.53125,0 1.8125,0 2.078125,0 2.078125,0 3.546875,0.015625 3.53125,-0.140625 3.53125,-0.21875 3.53125,-0.3125 c 0,-0.109375 0,-0.1875 0.015625,-0.34375 -0.875,0.03125 -1.21875,0.046875 -2.625,0.078125 l 1.375,-1.46875 C 3.03125,-2.828125 3.265625,-3.25 3.265625,-3.8125 c 0,-0.875 -0.59375,-1.40625 -1.546875,-1.40625 -0.546875,0 -0.921875,0.15625 -1.296875,0.53125 l -0.125,1.03125 h 0.21875 l 0.09375,-0.359375 c 0.125,-0.4375 0.40625,-0.625 0.90625,-0.625 0.65625,0 1.0625,0.40625 1.0625,1.0625 0,0.5625 -0.3125,1.125 -1.171875,2.03125 z m 0,0"
             id="id-ba91ebe5-af42-4126-b00e-5363805e789a" />
        </g>
      </g>
      <g
         fill="#000000"
         fill-opacity="1"
         id="id-2ad8234b-8341-4dec-a0c5-2876c95ebeb9"
         transform="translate(-149.906,-125.573)">
        <g
           transform="translate(156.951,134.765)"
           id="g10">
          <path
             d="m 6.84375,-2.390625 c 0.171875,0 0.359375,0 0.359375,-0.203125 0,-0.203125 -0.1875,-0.203125 -0.359375,-0.203125 h -5.625 c -0.171875,0 -0.359375,0 -0.359375,0.203125 0,0.203125 0.1875,0.203125 0.359375,0.203125 z m 0,0"
             id="id-099812de-8f26-4306-97a6-d53611a12b72" />
        </g>
      </g>
      <g
         fill="#000000"
         fill-opacity="1"
         id="id-d1b39c82-ca66-4518-8185-0adc3d76d7a0"
         transform="translate(-149.906,-125.573)">
        <g
           transform="translate(168.584,130.839)"
           id="g11">
          <path
             d="m 0.5,-4.203125 h 0.078125 l 0.984375,-0.4375 c 0,-0.015625 0.015625,-0.015625 0.015625,-0.015625 0.046875,0 0.0625,0.078125 0.0625,0.25 v 3.671875 c 0,0.40625 -0.078125,0.484375 -0.484375,0.5 l -0.421875,0.03125 v 0.21875 C 1.890625,0 1.890625,0 1.984375,0 2.078125,0 2.25,0 2.5,0 2.59375,0.015625 2.859375,0.015625 3.171875,0.015625 v -0.21875 L 2.78125,-0.234375 c -0.421875,-0.015625 -0.5,-0.09375 -0.5,-0.5 V -5.21875 L 2.171875,-5.265625 C 1.6875,-5 1.140625,-4.78125 0.453125,-4.53125 Z m 0,0"
             id="id-01510895-f134-4acc-8cfb-7ba39828dc64" />
        </g>
      </g>
      <path
         fill="none"
         stroke-width="0.398"
         stroke-linecap="butt"
         stroke-linejoin="miter"
         stroke="#000000"
         stroke-opacity="1"
         stroke-miterlimit="10"
         d="m 18.371094,6.700058 h 4.398437"
         id="id-5775dbf5-3d8c-4328-b42c-8279274309a2" />
      <g
         fill="#000000"
         fill-opacity="1"
         id="id-94678471-d564-4568-846b-0a07b1d5092c"
         transform="translate(-149.906,-125.573)">
        <g
           transform="translate(168.372,138.202)"
           id="g12">
          <path
             d="m 0.1875,-2.9375 0.046875,0.15625 0.25,-0.171875 c 0.28125,-0.171875 0.296875,-0.1875 0.34375,-0.1875 0.09375,0 0.140625,0.078125 0.140625,0.1875 0,0.390625 -0.3125,1.859375 -0.625,2.9375 L 0.40625,0.0625 C 0.59375,0.015625 0.765625,-0.03125 0.9375,-0.0625 1.078125,-1.015625 1.234375,-1.515625 1.578125,-2.03125 2,-2.671875 2.5625,-3.140625 2.90625,-3.140625 c 0.078125,0 0.125,0.078125 0.125,0.1875 0,0.140625 -0.015625,0.296875 -0.078125,0.53125 L 2.546875,-0.8125 c -0.0625,0.28125 -0.09375,0.453125 -0.09375,0.578125 0,0.1875 0.078125,0.296875 0.234375,0.296875 0.1875,0 0.46875,-0.15625 1.203125,-0.703125 L 3.8125,-0.78125 3.625,-0.65625 C 3.40625,-0.5 3.234375,-0.421875 3.15625,-0.421875 3.109375,-0.421875 3.0625,-0.5 3.0625,-0.578125 c 0,-0.03125 0,-0.125 0.015625,-0.15625 l 0.5,-2.078125 C 3.625,-3.03125 3.65625,-3.25 3.65625,-3.375 c 0,-0.171875 -0.078125,-0.28125 -0.234375,-0.28125 -0.3125,0 -0.84375,0.296875 -1.28125,0.703125 C 1.84375,-2.6875 1.640625,-2.421875 1.25,-1.875 l 0.28125,-1.21875 c 0.03125,-0.140625 0.046875,-0.21875 0.046875,-0.3125 0,-0.15625 -0.0625,-0.25 -0.171875,-0.25 -0.15625,0 -0.453125,0.171875 -1.015625,0.5625 z m 0,0"
             id="id-2e8e1cf1-ce18-4a28-892e-c830e50414e7" />
        </g>
      </g>
    </g>
    <g
       transform="matrix(0.705556,0,0,0.705556,105.67346,149.24559)"
       ns1:version="1.10.2"
       ns1:texconverter="pdflatex"
       ns1:pdfconverter="inkscape"
       ns1:text="$\\frac{1}{2} - \\frac{1}{m}$"
       ns1:preamble="/Users/sachchidanandprasad/Library/Application Support/org.inkscape.Inkscape/config/inkscape/extensions/textext/default_packages.tex"
       ns1:scale="2.0"
       ns1:alignment="middle center"
       ns1:stroke-to-path="0"
       ns1:jacobian_sqrt="0.705556"
       id="g19">
      <defs
         id="id-70fd6ba2-6ac7-4b0d-a507-868f6a8e7209">
        <g
           id="id-8b8acd6f-41e0-40cd-afa0-41d913ee0273">
          <g
             id="id-a6bd53dd-8b7f-4f8f-bd76-51605cf721b4">
            <path
               d="m 0.5,-4.203125 h 0.078125 l 0.984375,-0.4375 c 0,-0.015625 0.015625,-0.015625 0.015625,-0.015625 0.046875,0 0.0625,0.078125 0.0625,0.25 v 3.671875 c 0,0.40625 -0.078125,0.484375 -0.484375,0.5 l -0.421875,0.03125 v 0.21875 C 1.890625,0 1.890625,0 1.984375,0 2.078125,0 2.25,0 2.5,0 2.59375,0.015625 2.859375,0.015625 3.171875,0.015625 v -0.21875 L 2.78125,-0.234375 c -0.421875,-0.015625 -0.5,-0.09375 -0.5,-0.5 V -5.21875 L 2.171875,-5.265625 C 1.6875,-5 1.140625,-4.78125 0.453125,-4.53125 Z m 0,0"
               id="id-cedd4dea-4ff6-4c22-a45f-6749ae6b6352" />
          </g>
          <g
             id="id-b9b7c5a4-0247-4f07-a5f8-b69fb23f891d">
            <path
               d="m 0.125,-0.171875 v 0.1875 C 1.53125,0 1.53125,0 1.8125,0 2.078125,0 2.078125,0 3.546875,0.015625 3.53125,-0.140625 3.53125,-0.21875 3.53125,-0.3125 c 0,-0.109375 0,-0.1875 0.015625,-0.34375 -0.875,0.03125 -1.21875,0.046875 -2.625,0.078125 l 1.375,-1.46875 C 3.03125,-2.828125 3.265625,-3.25 3.265625,-3.8125 c 0,-0.875 -0.59375,-1.40625 -1.546875,-1.40625 -0.546875,0 -0.921875,0.15625 -1.296875,0.53125 l -0.125,1.03125 h 0.21875 l 0.09375,-0.359375 c 0.125,-0.4375 0.40625,-0.625 0.90625,-0.625 0.65625,0 1.0625,0.40625 1.0625,1.0625 0,0.5625 -0.3125,1.125 -1.171875,2.03125 z m 0,0"
               id="id-4c0bd2ed-6461-4188-97fe-0d3357d22847" />
          </g>
          <g
             id="id-8e974ded-c3ad-4cef-9ead-139e61244b33">
            <path
               d="m 6.84375,-2.390625 c 0.171875,0 0.359375,0 0.359375,-0.203125 0,-0.203125 -0.1875,-0.203125 -0.359375,-0.203125 h -5.625 c -0.171875,0 -0.359375,0 -0.359375,0.203125 0,0.203125 0.1875,0.203125 0.359375,0.203125 z m 0,0"
               id="id-3bef1d3a-8d4e-44b0-858b-eb42bc3d64a3" />
          </g>
          <g
             id="id-0cac8f44-57cf-4665-b712-98f523147c3f">
            <path
               d="m 5.53125,-0.78125 -0.203125,0.125 C 5.109375,-0.5 4.953125,-0.421875 4.875,-0.421875 c -0.0625,0 -0.09375,-0.078125 -0.09375,-0.15625 0,-0.078125 0.015625,-0.140625 0.046875,-0.296875 l 0.5625,-2.25 c 0.03125,-0.140625 0.0625,-0.25 0.0625,-0.3125 0,-0.125 -0.078125,-0.21875 -0.203125,-0.21875 -0.21875,0 -0.5,0.140625 -0.96875,0.46875 -0.484375,0.34375 -0.75,0.609375 -1.109375,1.125 l 0.21875,-1.03125 C 3.421875,-3.25 3.453125,-3.359375 3.453125,-3.421875 3.453125,-3.5625 3.375,-3.65625 3.25,-3.65625 c -0.21875,0 -0.578125,0.171875 -0.984375,0.484375 -0.34375,0.265625 -0.5,0.421875 -0.984375,1.09375 l 0.25,-1.015625 c 0.03125,-0.125 0.046875,-0.234375 0.046875,-0.328125 0,-0.140625 -0.0625,-0.234375 -0.171875,-0.234375 -0.15625,0 -0.453125,0.15625 -1.015625,0.5625 L 0.1875,-2.9375 l 0.046875,0.15625 0.25,-0.171875 c 0.28125,-0.171875 0.296875,-0.1875 0.34375,-0.1875 0.09375,0 0.140625,0.078125 0.140625,0.1875 0,0.390625 -0.3125,1.859375 -0.625,2.9375 L 0.375,0.0625 0.890625,-0.046875 1.046875,-0.8125 c 0.1875,-0.84375 0.390625,-1.296875 0.8125,-1.75 0.3125,-0.34375 0.65625,-0.578125 0.875,-0.578125 0.046875,0 0.078125,0.0625 0.078125,0.15625 0,0.265625 -0.171875,1.140625 -0.484375,2.46875 l -0.109375,0.5 L 2.25,0.0625 2.78125,-0.046875 2.9375,-0.859375 C 3.046875,-1.46875 3.3125,-2.03125 3.640625,-2.40625 4.0625,-2.875 4.4375,-3.140625 4.6875,-3.140625 c 0.0625,0 0.09375,0.078125 0.09375,0.1875 0,0.1875 -0.015625,0.296875 -0.1875,0.953125 -0.125,0.484375 -0.25,0.9375 -0.328125,1.1875 -0.0625,0.21875 -0.09375,0.40625 -0.09375,0.578125 0,0.1875 0.078125,0.296875 0.21875,0.296875 0.203125,0 0.46875,-0.15625 1.21875,-0.703125 z m 0,0"
               id="id-5fe53942-bf06-4c7d-aa4e-723a0b7f14e4" />
          </g>
        </g>
      </defs>
      <g
         fill="#000000"
         fill-opacity="1"
         id="id-18d17431-0922-4bc4-9d42-da36cbfec02f"
         transform="translate(-149.906,-125.573)">
        <g
           transform="translate(149.908,130.839)"
           id="g14">
          <path
             d="m 0.5,-4.203125 h 0.078125 l 0.984375,-0.4375 c 0,-0.015625 0.015625,-0.015625 0.015625,-0.015625 0.046875,0 0.0625,0.078125 0.0625,0.25 v 3.671875 c 0,0.40625 -0.078125,0.484375 -0.484375,0.5 l -0.421875,0.03125 v 0.21875 C 1.890625,0 1.890625,0 1.984375,0 2.078125,0 2.25,0 2.5,0 2.59375,0.015625 2.859375,0.015625 3.171875,0.015625 v -0.21875 L 2.78125,-0.234375 c -0.421875,-0.015625 -0.5,-0.09375 -0.5,-0.5 V -5.21875 L 2.171875,-5.265625 C 1.6875,-5 1.140625,-4.78125 0.453125,-4.53125 Z m 0,0"
             id="id-4f338856-f2e3-4069-9ac9-496748eae9c4" />
        </g>
      </g>
      <path
         fill="none"
         stroke-width="0.398"
         stroke-linecap="butt"
         stroke-linejoin="miter"
         stroke="#000000"
         stroke-opacity="1"
         stroke-miterlimit="10"
         d="M 0,6.700058 H 3.789062"
         id="id-1c9a7f4b-3770-49aa-81ae-3e5c43cfd7a1" />
      <g
         fill="#000000"
         fill-opacity="1"
         id="id-b7ec94b3-ea38-47be-bf58-b2e267a3ac48"
         transform="translate(-149.906,-125.573)">
        <g
           transform="translate(149.908,138.202)"
           id="g15">
          <path
             d="m 0.125,-0.171875 v 0.1875 C 1.53125,0 1.53125,0 1.8125,0 2.078125,0 2.078125,0 3.546875,0.015625 3.53125,-0.140625 3.53125,-0.21875 3.53125,-0.3125 c 0,-0.109375 0,-0.1875 0.015625,-0.34375 -0.875,0.03125 -1.21875,0.046875 -2.625,0.078125 l 1.375,-1.46875 C 3.03125,-2.828125 3.265625,-3.25 3.265625,-3.8125 c 0,-0.875 -0.59375,-1.40625 -1.546875,-1.40625 -0.546875,0 -0.921875,0.15625 -1.296875,0.53125 l -0.125,1.03125 h 0.21875 l 0.09375,-0.359375 c 0.125,-0.4375 0.40625,-0.625 0.90625,-0.625 0.65625,0 1.0625,0.40625 1.0625,1.0625 0,0.5625 -0.3125,1.125 -1.171875,2.03125 z m 0,0"
             id="id-d7c30997-7b83-44aa-b636-1d67c31e8479" />
        </g>
      </g>
      <g
         fill="#000000"
         fill-opacity="1"
         id="id-2badfa0d-971c-4442-9e0a-3f1bebfd1c77"
         transform="translate(-149.906,-125.573)">
        <g
           transform="translate(156.951,134.765)"
           id="g16">
          <path
             d="m 6.84375,-2.390625 c 0.171875,0 0.359375,0 0.359375,-0.203125 0,-0.203125 -0.1875,-0.203125 -0.359375,-0.203125 h -5.625 c -0.171875,0 -0.359375,0 -0.359375,0.203125 0,0.203125 0.1875,0.203125 0.359375,0.203125 z m 0,0"
             id="id-dd46d903-3e77-495b-9d49-85e98a6ab80d" />
        </g>
      </g>
      <g
         fill="#000000"
         fill-opacity="1"
         id="id-b0ca1a15-2db9-4eee-9a67-d557c122311c"
         transform="translate(-149.906,-125.573)">
        <g
           transform="translate(169.425,130.839)"
           id="g17">
          <path
             d="m 0.5,-4.203125 h 0.078125 l 0.984375,-0.4375 c 0,-0.015625 0.015625,-0.015625 0.015625,-0.015625 0.046875,0 0.0625,0.078125 0.0625,0.25 v 3.671875 c 0,0.40625 -0.078125,0.484375 -0.484375,0.5 l -0.421875,0.03125 v 0.21875 C 1.890625,0 1.890625,0 1.984375,0 2.078125,0 2.25,0 2.5,0 2.59375,0.015625 2.859375,0.015625 3.171875,0.015625 v -0.21875 L 2.78125,-0.234375 c -0.421875,-0.015625 -0.5,-0.09375 -0.5,-0.5 V -5.21875 L 2.171875,-5.265625 C 1.6875,-5 1.140625,-4.78125 0.453125,-4.53125 Z m 0,0"
             id="id-abaf1ae0-d9b5-46c6-bd5f-63fc5d0d1f7f" />
        </g>
      </g>
      <path
         fill="none"
         stroke-width="0.398"
         stroke-linecap="butt"
         stroke-linejoin="miter"
         stroke="#000000"
         stroke-opacity="1"
         stroke-miterlimit="10"
         d="m 18.371094,6.700058 h 6.082031"
         id="id-d67b6519-a25c-4962-a255-da42c99eba0f" />
      <g
         fill="#000000"
         fill-opacity="1"
         id="id-b2922993-0949-409c-a493-4013b95a788d"
         transform="translate(-149.906,-125.573)">
        <g
           transform="translate(168.372,138.202)"
           id="g18">
          <path
             d="m 5.53125,-0.78125 -0.203125,0.125 C 5.109375,-0.5 4.953125,-0.421875 4.875,-0.421875 c -0.0625,0 -0.09375,-0.078125 -0.09375,-0.15625 0,-0.078125 0.015625,-0.140625 0.046875,-0.296875 l 0.5625,-2.25 c 0.03125,-0.140625 0.0625,-0.25 0.0625,-0.3125 0,-0.125 -0.078125,-0.21875 -0.203125,-0.21875 -0.21875,0 -0.5,0.140625 -0.96875,0.46875 -0.484375,0.34375 -0.75,0.609375 -1.109375,1.125 l 0.21875,-1.03125 C 3.421875,-3.25 3.453125,-3.359375 3.453125,-3.421875 3.453125,-3.5625 3.375,-3.65625 3.25,-3.65625 c -0.21875,0 -0.578125,0.171875 -0.984375,0.484375 -0.34375,0.265625 -0.5,0.421875 -0.984375,1.09375 l 0.25,-1.015625 c 0.03125,-0.125 0.046875,-0.234375 0.046875,-0.328125 0,-0.140625 -0.0625,-0.234375 -0.171875,-0.234375 -0.15625,0 -0.453125,0.15625 -1.015625,0.5625 L 0.1875,-2.9375 l 0.046875,0.15625 0.25,-0.171875 c 0.28125,-0.171875 0.296875,-0.1875 0.34375,-0.1875 0.09375,0 0.140625,0.078125 0.140625,0.1875 0,0.390625 -0.3125,1.859375 -0.625,2.9375 L 0.375,0.0625 0.890625,-0.046875 1.046875,-0.8125 c 0.1875,-0.84375 0.390625,-1.296875 0.8125,-1.75 0.3125,-0.34375 0.65625,-0.578125 0.875,-0.578125 0.046875,0 0.078125,0.0625 0.078125,0.15625 0,0.265625 -0.171875,1.140625 -0.484375,2.46875 l -0.109375,0.5 L 2.25,0.0625 2.78125,-0.046875 2.9375,-0.859375 C 3.046875,-1.46875 3.3125,-2.03125 3.640625,-2.40625 4.0625,-2.875 4.4375,-3.140625 4.6875,-3.140625 c 0.0625,0 0.09375,0.078125 0.09375,0.1875 0,0.1875 -0.015625,0.296875 -0.1875,0.953125 -0.125,0.484375 -0.25,0.9375 -0.328125,1.1875 -0.0625,0.21875 -0.09375,0.40625 -0.09375,0.578125 0,0.1875 0.078125,0.296875 0.21875,0.296875 0.203125,0 0.46875,-0.15625 1.21875,-0.703125 z m 0,0"
             id="id-9110bf53-f4c6-41c4-84b5-ef898f120b69" />
        </g>
      </g>
    </g>
    <g
       transform="matrix(0.705556,0,0,0.705556,166.35987,149.00134)"
       ns1:version="1.10.2"
       ns1:texconverter="pdflatex"
       ns1:pdfconverter="inkscape"
       ns1:text="$\\frac{1}{2}$"
       ns1:preamble="/Users/sachchidanandprasad/Library/Application Support/org.inkscape.Inkscape/config/inkscape/extensions/textext/default_packages.tex"
       ns1:scale="2.0"
       ns1:alignment="middle center"
       ns1:stroke-to-path="0"
       ns1:jacobian_sqrt="0.705556"
       id="g22">
      <defs
         id="id-400cd412-df25-4df1-a314-f3addeebde0c">
        <g
           id="id-fe38049c-10ee-47a7-aed6-ff776f09e31e">
          <g
             id="id-a306a404-e2c0-4009-b6f9-9887984b9230">
            <path
               d="m 0.5,-4.203125 h 0.078125 l 0.984375,-0.4375 c 0,-0.015625 0.015625,-0.015625 0.015625,-0.015625 0.046875,0 0.0625,0.078125 0.0625,0.25 v 3.671875 c 0,0.40625 -0.078125,0.484375 -0.484375,0.5 l -0.421875,0.03125 v 0.21875 C 1.890625,0 1.890625,0 1.984375,0 2.078125,0 2.25,0 2.5,0 2.59375,0.015625 2.859375,0.015625 3.171875,0.015625 v -0.21875 L 2.78125,-0.234375 c -0.421875,-0.015625 -0.5,-0.09375 -0.5,-0.5 V -5.21875 L 2.171875,-5.265625 C 1.6875,-5 1.140625,-4.78125 0.453125,-4.53125 Z m 0,0"
               id="id-9f1bf746-4cf4-4b7b-96e7-a0f58fef4a5b" />
          </g>
          <g
             id="id-04ecfc78-7c18-40b8-812a-9aab53dc41af">
            <path
               d="m 0.125,-0.171875 v 0.1875 C 1.53125,0 1.53125,0 1.8125,0 2.078125,0 2.078125,0 3.546875,0.015625 3.53125,-0.140625 3.53125,-0.21875 3.53125,-0.3125 c 0,-0.109375 0,-0.1875 0.015625,-0.34375 -0.875,0.03125 -1.21875,0.046875 -2.625,0.078125 l 1.375,-1.46875 C 3.03125,-2.828125 3.265625,-3.25 3.265625,-3.8125 c 0,-0.875 -0.59375,-1.40625 -1.546875,-1.40625 -0.546875,0 -0.921875,0.15625 -1.296875,0.53125 l -0.125,1.03125 h 0.21875 l 0.09375,-0.359375 c 0.125,-0.4375 0.40625,-0.625 0.90625,-0.625 0.65625,0 1.0625,0.40625 1.0625,1.0625 0,0.5625 -0.3125,1.125 -1.171875,2.03125 z m 0,0"
               id="id-eede2906-06cc-48d3-a610-681fa207517e" />
          </g>
        </g>
      </defs>
      <g
         fill="#000000"
         fill-opacity="1"
         id="id-b9cca788-e815-4935-8c12-aaff087206e5"
         transform="translate(-149.906,-125.573)">
        <g
           transform="translate(149.908,130.839)"
           id="g20">
          <path
             d="m 0.5,-4.203125 h 0.078125 l 0.984375,-0.4375 c 0,-0.015625 0.015625,-0.015625 0.015625,-0.015625 0.046875,0 0.0625,0.078125 0.0625,0.25 v 3.671875 c 0,0.40625 -0.078125,0.484375 -0.484375,0.5 l -0.421875,0.03125 v 0.21875 C 1.890625,0 1.890625,0 1.984375,0 2.078125,0 2.25,0 2.5,0 2.59375,0.015625 2.859375,0.015625 3.171875,0.015625 v -0.21875 L 2.78125,-0.234375 c -0.421875,-0.015625 -0.5,-0.09375 -0.5,-0.5 V -5.21875 L 2.171875,-5.265625 C 1.6875,-5 1.140625,-4.78125 0.453125,-4.53125 Z m 0,0"
             id="id-63601024-ff1c-46e5-b0df-b801626ffbf1" />
        </g>
      </g>
      <path
         fill="none"
         stroke-width="0.398"
         stroke-linecap="butt"
         stroke-linejoin="miter"
         stroke="#000000"
         stroke-opacity="1"
         stroke-miterlimit="10"
         d="M 0,6.700058 H 3.789062"
         id="id-bf5fb932-315a-4b25-ae7e-bb8822b94efd" />
      <g
         fill="#000000"
         fill-opacity="1"
         id="id-c972a5f2-1385-4ac9-ab2c-d1dec280ff7b"
         transform="translate(-149.906,-125.573)">
        <g
           transform="translate(149.908,138.202)"
           id="g21">
          <path
             d="m 0.125,-0.171875 v 0.1875 C 1.53125,0 1.53125,0 1.8125,0 2.078125,0 2.078125,0 3.546875,0.015625 3.53125,-0.140625 3.53125,-0.21875 3.53125,-0.3125 c 0,-0.109375 0,-0.1875 0.015625,-0.34375 -0.875,0.03125 -1.21875,0.046875 -2.625,0.078125 l 1.375,-1.46875 C 3.03125,-2.828125 3.265625,-3.25 3.265625,-3.8125 c 0,-0.875 -0.59375,-1.40625 -1.546875,-1.40625 -0.546875,0 -0.921875,0.15625 -1.296875,0.53125 l -0.125,1.03125 h 0.21875 l 0.09375,-0.359375 c 0.125,-0.4375 0.40625,-0.625 0.90625,-0.625 0.65625,0 1.0625,0.40625 1.0625,1.0625 0,0.5625 -0.3125,1.125 -1.171875,2.03125 z m 0,0"
             id="id-cfc56efe-2943-4126-a761-d57af6c93a66" />
        </g>
      </g>
    </g>
    <g
       transform="matrix(0.705556,0,0,0.705556,231.5711,149.15292)"
       ns1:version="1.10.2"
       ns1:texconverter="pdflatex"
       ns1:pdfconverter="inkscape"
       ns1:text="$1$"
       ns1:preamble="/Users/sachchidanandprasad/Library/Application Support/org.inkscape.Inkscape/config/inkscape/extensions/textext/default_packages.tex"
       ns1:scale="2.0"
       ns1:alignment="middle center"
       ns1:stroke-to-path="0"
       ns1:jacobian_sqrt="0.705556"
       id="g24">
      <defs
         id="id-94fc365e-6c8c-4350-9513-aa23630a614f">
        <g
           id="id-23f012fe-c9a1-4b59-91b9-a165e550ea22">
          <g
             id="id-343cf7ac-8fce-4532-b3c0-3497e09eaf27">
            <path
               d="m 0.671875,-5.53125 h 0.09375 l 1.28125,-0.578125 C 2.0625,-6.125 2.078125,-6.125 2.078125,-6.125 c 0.0625,0 0.078125,0.09375 0.078125,0.328125 v 4.84375 c 0,0.515625 -0.109375,0.625 -0.640625,0.65625 l -0.5625,0.03125 V 0.03125 C 2.5,0 2.5,0 2.609375,0 c 0.125,0 0.34375,0 0.6875,0.015625 0.109375,0 0.46875,0 0.875,0.015625 V -0.265625 L 3.65625,-0.296875 C 3.09375,-0.328125 3,-0.4375 3,-0.953125 V -6.875 L 2.859375,-6.921875 C 2.21875,-6.578125 1.5,-6.28125 0.59375,-5.96875 Z m 0,0"
               id="id-2c30fddd-d492-4973-8131-81c2b53dc9d5" />
          </g>
        </g>
      </defs>
      <g
         fill="#000000"
         fill-opacity="1"
         id="id-16c1fc07-97d5-4c0a-aa72-a0c3fd5bd9ed"
         transform="translate(-149.306,-127.843)">
        <g
           transform="translate(148.712,134.765)"
           id="g23">
          <path
             d="m 0.671875,-5.53125 h 0.09375 l 1.28125,-0.578125 C 2.0625,-6.125 2.078125,-6.125 2.078125,-6.125 c 0.0625,0 0.078125,0.09375 0.078125,0.328125 v 4.84375 c 0,0.515625 -0.109375,0.625 -0.640625,0.65625 l -0.5625,0.03125 V 0.03125 C 2.5,0 2.5,0 2.609375,0 c 0.125,0 0.34375,0 0.6875,0.015625 0.109375,0 0.46875,0 0.875,0.015625 V -0.265625 L 3.65625,-0.296875 C 3.09375,-0.328125 3,-0.4375 3,-0.953125 V -6.875 L 2.859375,-6.921875 C 2.21875,-6.578125 1.5,-6.28125 0.59375,-5.96875 Z m 0,0"
             id="id-f3ff6b1e-e5af-442f-b0c6-dcfdbaac6c54" />
        </g>
      </g>
    </g>
    <g
       transform="matrix(0.705556,0,0,0.705556,7.4478167,135.09208)"
       ns1:version="1.10.2"
       ns1:texconverter="pdflatex"
       ns1:pdfconverter="inkscape"
       ns1:text="$f_n = f_m = 0$"
       ns1:preamble="/Users/sachchidanandprasad/Library/Application Support/org.inkscape.Inkscape/config/inkscape/extensions/textext/default_packages.tex"
       ns1:scale="2.0"
       ns1:alignment="middle center"
       ns1:stroke-to-path="0"
       ns1:jacobian_sqrt="0.705556"
       id="g32">
      <defs
         id="id-55c3f699-aa36-47bf-8145-ecb57055eedc">
        <g
           id="id-b50c0bc3-0431-4628-9911-f9f54f5e104c">
          <g
             id="id-230c8398-98a1-4caa-8f06-95f6550ed9c3">
            <path
               d="M 2.84375,-3.8125 C 2.890625,-4 2.953125,-4.234375 3.015625,-4.375 l -0.03125,-0.078125 -0.078125,0.03125 c -0.234375,0.0625 -0.34375,0.0625 -0.828125,0.0625 H 1.90625 L 2.125,-5.46875 c 0.15625,-0.859375 0.4375,-1.234375 0.890625,-1.234375 0.296875,0 0.578125,0.140625 0.71875,0.390625 L 3.84375,-6.359375 C 3.890625,-6.515625 3.984375,-6.828125 4.0625,-7.03125 L 4.109375,-7.171875 C 3.953125,-7.25 3.65625,-7.3125 3.421875,-7.3125 c -0.109375,0 -0.265625,0.03125 -0.34375,0.078125 -0.25,0.109375 -1.0625,0.71875 -1.296875,0.953125 C 1.5625,-6.0625 1.453125,-5.765625 1.328125,-5.1875 L 1.1875,-4.40625 C 0.78125,-4.203125 0.578125,-4.125 0.328125,-4.03125 L 0.28125,-3.8125 h 0.8125 L 1,-3.265625 C 0.703125,-1.3125 0.328125,0.53125 0.109375,1.21875 -0.0625,1.8125 -0.375,2.125 -0.734375,2.125 -0.953125,2.125 -1.0625,2.046875 -1.25,1.828125 L -1.390625,1.875 C -1.421875,2.109375 -1.5625,2.578125 -1.609375,2.671875 -1.53125,2.71875 -1.375,2.75 -1.265625,2.75 -0.859375,2.75 -0.3125,2.4375 0.0625,1.96875 0.671875,1.25 0.890625,0.5625 1.625,-2.9375 c 0.03125,-0.125 0.109375,-0.5 0.1875,-0.875 z m 0,0"
               id="id-543db4aa-163c-42fd-b734-a9eff54c05df" />
          </g>
          <g
             id="id-3729225c-ee91-4f27-81e4-889b2e58c87e">
            <path
               d="m 0.1875,-2.9375 0.046875,0.15625 0.25,-0.171875 c 0.28125,-0.171875 0.296875,-0.1875 0.34375,-0.1875 0.09375,0 0.140625,0.078125 0.140625,0.1875 0,0.390625 -0.3125,1.859375 -0.625,2.9375 L 0.40625,0.0625 C 0.59375,0.015625 0.765625,-0.03125 0.9375,-0.0625 1.078125,-1.015625 1.234375,-1.515625 1.578125,-2.03125 2,-2.671875 2.5625,-3.140625 2.90625,-3.140625 c 0.078125,0 0.125,0.078125 0.125,0.1875 0,0.140625 -0.015625,0.296875 -0.078125,0.53125 L 2.546875,-0.8125 c -0.0625,0.28125 -0.09375,0.453125 -0.09375,0.578125 0,0.1875 0.078125,0.296875 0.234375,0.296875 0.1875,0 0.46875,-0.15625 1.203125,-0.703125 L 3.8125,-0.78125 3.625,-0.65625 C 3.40625,-0.5 3.234375,-0.421875 3.15625,-0.421875 3.109375,-0.421875 3.0625,-0.5 3.0625,-0.578125 c 0,-0.03125 0,-0.125 0.015625,-0.15625 l 0.5,-2.078125 C 3.625,-3.03125 3.65625,-3.25 3.65625,-3.375 c 0,-0.171875 -0.078125,-0.28125 -0.234375,-0.28125 -0.3125,0 -0.84375,0.296875 -1.28125,0.703125 C 1.84375,-2.6875 1.640625,-2.421875 1.25,-1.875 l 0.28125,-1.21875 c 0.03125,-0.140625 0.046875,-0.21875 0.046875,-0.3125 0,-0.15625 -0.0625,-0.25 -0.171875,-0.25 -0.15625,0 -0.453125,0.171875 -1.015625,0.5625 z m 0,0"
               id="id-79d517e7-ae23-4952-9886-b5a4beadd781" />
          </g>
          <g
             id="id-e1da260b-27a5-4268-b63f-638d76179d39">
            <path
               d="m 5.53125,-0.78125 -0.203125,0.125 C 5.109375,-0.5 4.953125,-0.421875 4.875,-0.421875 c -0.0625,0 -0.09375,-0.078125 -0.09375,-0.15625 0,-0.078125 0.015625,-0.140625 0.046875,-0.296875 l 0.5625,-2.25 c 0.03125,-0.140625 0.0625,-0.25 0.0625,-0.3125 0,-0.125 -0.078125,-0.21875 -0.203125,-0.21875 -0.21875,0 -0.5,0.140625 -0.96875,0.46875 -0.484375,0.34375 -0.75,0.609375 -1.109375,1.125 l 0.21875,-1.03125 C 3.421875,-3.25 3.453125,-3.359375 3.453125,-3.421875 3.453125,-3.5625 3.375,-3.65625 3.25,-3.65625 c -0.21875,0 -0.578125,0.171875 -0.984375,0.484375 -0.34375,0.265625 -0.5,0.421875 -0.984375,1.09375 l 0.25,-1.015625 c 0.03125,-0.125 0.046875,-0.234375 0.046875,-0.328125 0,-0.140625 -0.0625,-0.234375 -0.171875,-0.234375 -0.15625,0 -0.453125,0.15625 -1.015625,0.5625 L 0.1875,-2.9375 l 0.046875,0.15625 0.25,-0.171875 c 0.28125,-0.171875 0.296875,-0.1875 0.34375,-0.1875 0.09375,0 0.140625,0.078125 0.140625,0.1875 0,0.390625 -0.3125,1.859375 -0.625,2.9375 L 0.375,0.0625 0.890625,-0.046875 1.046875,-0.8125 c 0.1875,-0.84375 0.390625,-1.296875 0.8125,-1.75 0.3125,-0.34375 0.65625,-0.578125 0.875,-0.578125 0.046875,0 0.078125,0.0625 0.078125,0.15625 0,0.265625 -0.171875,1.140625 -0.484375,2.46875 l -0.109375,0.5 L 2.25,0.0625 2.78125,-0.046875 2.9375,-0.859375 C 3.046875,-1.46875 3.3125,-2.03125 3.640625,-2.40625 4.0625,-2.875 4.4375,-3.140625 4.6875,-3.140625 c 0.0625,0 0.09375,0.078125 0.09375,0.1875 0,0.1875 -0.015625,0.296875 -0.1875,0.953125 -0.125,0.484375 -0.25,0.9375 -0.328125,1.1875 -0.0625,0.21875 -0.09375,0.40625 -0.09375,0.578125 0,0.1875 0.078125,0.296875 0.21875,0.296875 0.203125,0 0.46875,-0.15625 1.21875,-0.703125 z m 0,0"
               id="id-875ce917-4a25-41c0-b902-27b270ddcf49" />
          </g>
          <g
             id="id-bbe12de3-afbf-47cd-a4de-2af0d3e754d6">
            <path
               d="m 7.125,-3.390625 c 0.15625,0 0.359375,0 0.359375,-0.203125 0,-0.21875 -0.203125,-0.21875 -0.34375,-0.21875 h -6.21875 c -0.140625,0 -0.34375,0 -0.34375,0.21875 0,0.203125 0.203125,0.203125 0.359375,0.203125 z M 7.140625,-1.375 c 0.140625,0 0.34375,0 0.34375,-0.21875 0,-0.203125 -0.203125,-0.203125 -0.359375,-0.203125 H 0.9375 c -0.15625,0 -0.359375,0 -0.359375,0.203125 0,0.21875 0.203125,0.21875 0.34375,0.21875 z m 0,0"
               id="id-f20a0602-0906-403d-af47-22c9e09ddf28" />
          </g>
          <g
             id="id-354871ac-943b-434a-9ead-237d9dce048e">
            <path
               d="m 2.625,-6.875 c -1.546875,0 -2.328125,1.234375 -2.328125,3.640625 C 0.296875,-2.0625 0.5,-1.0625 0.84375,-0.5625 1.203125,-0.078125 1.75,0.203125 2.375,0.203125 c 1.5,0 2.265625,-1.296875 2.265625,-3.859375 0,-2.171875 -0.65625,-3.21875 -2.015625,-3.21875 z m -0.1875,0.359375 c 0.96875,0 1.359375,0.96875 1.359375,3.359375 0,2.125 -0.375,3 -1.296875,3 -0.96875,0 -1.375,-1 -1.375,-3.4375 0,-2.09375 0.375,-2.921875 1.3125,-2.921875 z m 0,0"
               id="id-5da4c522-9dd6-46c8-b741-ba3d1ad4c27f" />
          </g>
        </g>
      </defs>
      <g
         fill="#000000"
         fill-opacity="1"
         id="id-9cfbb85b-8f97-4538-ac7f-29bd11dc78aa"
         transform="translate(-148.523,-127.453)">
        <g
           transform="translate(150.132,134.765)"
           id="g25">
          <path
             d="M 2.84375,-3.8125 C 2.890625,-4 2.953125,-4.234375 3.015625,-4.375 l -0.03125,-0.078125 -0.078125,0.03125 c -0.234375,0.0625 -0.34375,0.0625 -0.828125,0.0625 H 1.90625 L 2.125,-5.46875 c 0.15625,-0.859375 0.4375,-1.234375 0.890625,-1.234375 0.296875,0 0.578125,0.140625 0.71875,0.390625 L 3.84375,-6.359375 C 3.890625,-6.515625 3.984375,-6.828125 4.0625,-7.03125 L 4.109375,-7.171875 C 3.953125,-7.25 3.65625,-7.3125 3.421875,-7.3125 c -0.109375,0 -0.265625,0.03125 -0.34375,0.078125 -0.25,0.109375 -1.0625,0.71875 -1.296875,0.953125 C 1.5625,-6.0625 1.453125,-5.765625 1.328125,-5.1875 L 1.1875,-4.40625 C 0.78125,-4.203125 0.578125,-4.125 0.328125,-4.03125 L 0.28125,-3.8125 h 0.8125 L 1,-3.265625 C 0.703125,-1.3125 0.328125,0.53125 0.109375,1.21875 -0.0625,1.8125 -0.375,2.125 -0.734375,2.125 -0.953125,2.125 -1.0625,2.046875 -1.25,1.828125 L -1.390625,1.875 C -1.421875,2.109375 -1.5625,2.578125 -1.609375,2.671875 -1.53125,2.71875 -1.375,2.75 -1.265625,2.75 -0.859375,2.75 -0.3125,2.4375 0.0625,1.96875 0.671875,1.25 0.890625,0.5625 1.625,-2.9375 c 0.03125,-0.125 0.109375,-0.5 0.1875,-0.875 z m 0,0"
             id="id-32d73b0b-45b1-410e-b4c7-497fd5dfbc17" />
        </g>
      </g>
      <g
         fill="#000000"
         fill-opacity="1"
         id="id-5c7e84c4-b78e-435b-a0fb-1e9c0639c7dd"
         transform="translate(-148.523,-127.453)">
        <g
           transform="translate(153.37,136.259)"
           id="g26">
          <path
             d="m 0.1875,-2.9375 0.046875,0.15625 0.25,-0.171875 c 0.28125,-0.171875 0.296875,-0.1875 0.34375,-0.1875 0.09375,0 0.140625,0.078125 0.140625,0.1875 0,0.390625 -0.3125,1.859375 -0.625,2.9375 L 0.40625,0.0625 C 0.59375,0.015625 0.765625,-0.03125 0.9375,-0.0625 1.078125,-1.015625 1.234375,-1.515625 1.578125,-2.03125 2,-2.671875 2.5625,-3.140625 2.90625,-3.140625 c 0.078125,0 0.125,0.078125 0.125,0.1875 0,0.140625 -0.015625,0.296875 -0.078125,0.53125 L 2.546875,-0.8125 c -0.0625,0.28125 -0.09375,0.453125 -0.09375,0.578125 0,0.1875 0.078125,0.296875 0.234375,0.296875 0.1875,0 0.46875,-0.15625 1.203125,-0.703125 L 3.8125,-0.78125 3.625,-0.65625 C 3.40625,-0.5 3.234375,-0.421875 3.15625,-0.421875 3.109375,-0.421875 3.0625,-0.5 3.0625,-0.578125 c 0,-0.03125 0,-0.125 0.015625,-0.15625 l 0.5,-2.078125 C 3.625,-3.03125 3.65625,-3.25 3.65625,-3.375 c 0,-0.171875 -0.078125,-0.28125 -0.234375,-0.28125 -0.3125,0 -0.84375,0.296875 -1.28125,0.703125 C 1.84375,-2.6875 1.640625,-2.421875 1.25,-1.875 l 0.28125,-1.21875 c 0.03125,-0.140625 0.046875,-0.21875 0.046875,-0.3125 0,-0.15625 -0.0625,-0.25 -0.171875,-0.25 -0.15625,0 -0.453125,0.171875 -1.015625,0.5625 z m 0,0"
             id="id-7ad57fc7-59e7-4f1c-ab75-d49b22e5d621" />
        </g>
      </g>
      <g
         fill="#000000"
         fill-opacity="1"
         id="id-bc7850d4-9376-4fc0-b45d-5d969839084f"
         transform="translate(-148.523,-127.453)">
        <g
           transform="translate(161.064,134.765)"
           id="g27">
          <path
             d="m 7.125,-3.390625 c 0.15625,0 0.359375,0 0.359375,-0.203125 0,-0.21875 -0.203125,-0.21875 -0.34375,-0.21875 h -6.21875 c -0.140625,0 -0.34375,0 -0.34375,0.21875 0,0.203125 0.203125,0.203125 0.359375,0.203125 z M 7.140625,-1.375 c 0.140625,0 0.34375,0 0.34375,-0.21875 0,-0.203125 -0.203125,-0.203125 -0.359375,-0.203125 H 0.9375 c -0.15625,0 -0.359375,0 -0.359375,0.203125 0,0.21875 0.203125,0.21875 0.34375,0.21875 z m 0,0"
             id="id-413848a1-9f20-4262-8e51-5615d6e7413f" />
        </g>
      </g>
      <g
         fill="#000000"
         fill-opacity="1"
         id="id-d6e69692-531f-4e00-8b94-70570795d0d5"
         transform="translate(-148.523,-127.453)">
        <g
           transform="translate(173.445,134.765)"
           id="g28">
          <path
             d="M 2.84375,-3.8125 C 2.890625,-4 2.953125,-4.234375 3.015625,-4.375 l -0.03125,-0.078125 -0.078125,0.03125 c -0.234375,0.0625 -0.34375,0.0625 -0.828125,0.0625 H 1.90625 L 2.125,-5.46875 c 0.15625,-0.859375 0.4375,-1.234375 0.890625,-1.234375 0.296875,0 0.578125,0.140625 0.71875,0.390625 L 3.84375,-6.359375 C 3.890625,-6.515625 3.984375,-6.828125 4.0625,-7.03125 L 4.109375,-7.171875 C 3.953125,-7.25 3.65625,-7.3125 3.421875,-7.3125 c -0.109375,0 -0.265625,0.03125 -0.34375,0.078125 -0.25,0.109375 -1.0625,0.71875 -1.296875,0.953125 C 1.5625,-6.0625 1.453125,-5.765625 1.328125,-5.1875 L 1.1875,-4.40625 C 0.78125,-4.203125 0.578125,-4.125 0.328125,-4.03125 L 0.28125,-3.8125 h 0.8125 L 1,-3.265625 C 0.703125,-1.3125 0.328125,0.53125 0.109375,1.21875 -0.0625,1.8125 -0.375,2.125 -0.734375,2.125 -0.953125,2.125 -1.0625,2.046875 -1.25,1.828125 L -1.390625,1.875 C -1.421875,2.109375 -1.5625,2.578125 -1.609375,2.671875 -1.53125,2.71875 -1.375,2.75 -1.265625,2.75 -0.859375,2.75 -0.3125,2.4375 0.0625,1.96875 0.671875,1.25 0.890625,0.5625 1.625,-2.9375 c 0.03125,-0.125 0.109375,-0.5 0.1875,-0.875 z m 0,0"
             id="id-5e27e8db-7a13-48e9-a5c7-a19e8d528959" />
        </g>
      </g>
      <g
         fill="#000000"
         fill-opacity="1"
         id="id-6d3a8c66-12fb-4625-8b62-51c1e13e02cb"
         transform="translate(-148.523,-127.453)">
        <g
           transform="translate(176.683,136.259)"
           id="g29">
          <path
             d="m 5.53125,-0.78125 -0.203125,0.125 C 5.109375,-0.5 4.953125,-0.421875 4.875,-0.421875 c -0.0625,0 -0.09375,-0.078125 -0.09375,-0.15625 0,-0.078125 0.015625,-0.140625 0.046875,-0.296875 l 0.5625,-2.25 c 0.03125,-0.140625 0.0625,-0.25 0.0625,-0.3125 0,-0.125 -0.078125,-0.21875 -0.203125,-0.21875 -0.21875,0 -0.5,0.140625 -0.96875,0.46875 -0.484375,0.34375 -0.75,0.609375 -1.109375,1.125 l 0.21875,-1.03125 C 3.421875,-3.25 3.453125,-3.359375 3.453125,-3.421875 3.453125,-3.5625 3.375,-3.65625 3.25,-3.65625 c -0.21875,0 -0.578125,0.171875 -0.984375,0.484375 -0.34375,0.265625 -0.5,0.421875 -0.984375,1.09375 l 0.25,-1.015625 c 0.03125,-0.125 0.046875,-0.234375 0.046875,-0.328125 0,-0.140625 -0.0625,-0.234375 -0.171875,-0.234375 -0.15625,0 -0.453125,0.15625 -1.015625,0.5625 L 0.1875,-2.9375 l 0.046875,0.15625 0.25,-0.171875 c 0.28125,-0.171875 0.296875,-0.1875 0.34375,-0.1875 0.09375,0 0.140625,0.078125 0.140625,0.1875 0,0.390625 -0.3125,1.859375 -0.625,2.9375 L 0.375,0.0625 0.890625,-0.046875 1.046875,-0.8125 c 0.1875,-0.84375 0.390625,-1.296875 0.8125,-1.75 0.3125,-0.34375 0.65625,-0.578125 0.875,-0.578125 0.046875,0 0.078125,0.0625 0.078125,0.15625 0,0.265625 -0.171875,1.140625 -0.484375,2.46875 l -0.109375,0.5 L 2.25,0.0625 2.78125,-0.046875 2.9375,-0.859375 C 3.046875,-1.46875 3.3125,-2.03125 3.640625,-2.40625 4.0625,-2.875 4.4375,-3.140625 4.6875,-3.140625 c 0.0625,0 0.09375,0.078125 0.09375,0.1875 0,0.1875 -0.015625,0.296875 -0.1875,0.953125 -0.125,0.484375 -0.25,0.9375 -0.328125,1.1875 -0.0625,0.21875 -0.09375,0.40625 -0.09375,0.578125 0,0.1875 0.078125,0.296875 0.21875,0.296875 0.203125,0 0.46875,-0.15625 1.21875,-0.703125 z m 0,0"
             id="id-0c845c48-ea69-455c-9f34-ca8f32be36b3" />
        </g>
      </g>
      <g
         fill="#000000"
         fill-opacity="1"
         id="id-57412c30-cc32-4fae-bb1d-efbcfb2a1ff0"
         transform="translate(-148.523,-127.453)">
        <g
           transform="translate(186.059,134.765)"
           id="g30">
          <path
             d="m 7.125,-3.390625 c 0.15625,0 0.359375,0 0.359375,-0.203125 0,-0.21875 -0.203125,-0.21875 -0.34375,-0.21875 h -6.21875 c -0.140625,0 -0.34375,0 -0.34375,0.21875 0,0.203125 0.203125,0.203125 0.359375,0.203125 z M 7.140625,-1.375 c 0.140625,0 0.34375,0 0.34375,-0.21875 0,-0.203125 -0.203125,-0.203125 -0.359375,-0.203125 H 0.9375 c -0.15625,0 -0.359375,0 -0.359375,0.203125 0,0.21875 0.203125,0.21875 0.34375,0.21875 z m 0,0"
             id="id-bde2be6f-bee5-40f7-8637-88c32009e279" />
        </g>
      </g>
      <g
         fill="#000000"
         fill-opacity="1"
         id="id-c0839d9f-d1fb-42a2-bb40-8a96a053259f"
         transform="translate(-148.523,-127.453)">
        <g
           transform="translate(197.02,134.765)"
           id="g31">
          <path
             d="m 2.625,-6.875 c -1.546875,0 -2.328125,1.234375 -2.328125,3.640625 C 0.296875,-2.0625 0.5,-1.0625 0.84375,-0.5625 1.203125,-0.078125 1.75,0.203125 2.375,0.203125 c 1.5,0 2.265625,-1.296875 2.265625,-3.859375 0,-2.171875 -0.65625,-3.21875 -2.015625,-3.21875 z m -0.1875,0.359375 c 0.96875,0 1.359375,0.96875 1.359375,3.359375 0,2.125 -0.375,3 -1.296875,3 -0.96875,0 -1.375,-1 -1.375,-3.4375 0,-2.09375 0.375,-2.921875 1.3125,-2.921875 z m 0,0"
             id="id-6b181cf3-b56d-4067-b665-7bd6e68899b3" />
        </g>
      </g>
    </g>
    <g
       transform="matrix(0.705556,0,0,0.705556,71.4992,134.8275)"
       ns1:version="1.10.2"
       ns1:texconverter="pdflatex"
       ns1:pdfconverter="inkscape"
       ns1:text="$f_m= 0$"
       ns1:preamble="/Users/sachchidanandprasad/Library/Application Support/org.inkscape.Inkscape/config/inkscape/extensions/textext/default_packages.tex"
       ns1:scale="2.0"
       ns1:alignment="middle center"
       ns1:stroke-to-path="0"
       ns1:jacobian_sqrt="0.705556"
       id="g37">
      <defs
         id="id-bf12020f-1a39-4aeb-84bf-37bcf40a2fab">
        <g
           id="id-a6d2e68b-a086-4efd-ad92-be4fe3ba4287">
          <g
             id="id-d647dbe9-7503-46c5-9524-c53e83daa4cf">
            <path
               d="M 2.84375,-3.8125 C 2.890625,-4 2.953125,-4.234375 3.015625,-4.375 l -0.03125,-0.078125 -0.078125,0.03125 c -0.234375,0.0625 -0.34375,0.0625 -0.828125,0.0625 H 1.90625 L 2.125,-5.46875 c 0.15625,-0.859375 0.4375,-1.234375 0.890625,-1.234375 0.296875,0 0.578125,0.140625 0.71875,0.390625 L 3.84375,-6.359375 C 3.890625,-6.515625 3.984375,-6.828125 4.0625,-7.03125 L 4.109375,-7.171875 C 3.953125,-7.25 3.65625,-7.3125 3.421875,-7.3125 c -0.109375,0 -0.265625,0.03125 -0.34375,0.078125 -0.25,0.109375 -1.0625,0.71875 -1.296875,0.953125 C 1.5625,-6.0625 1.453125,-5.765625 1.328125,-5.1875 L 1.1875,-4.40625 C 0.78125,-4.203125 0.578125,-4.125 0.328125,-4.03125 L 0.28125,-3.8125 h 0.8125 L 1,-3.265625 C 0.703125,-1.3125 0.328125,0.53125 0.109375,1.21875 -0.0625,1.8125 -0.375,2.125 -0.734375,2.125 -0.953125,2.125 -1.0625,2.046875 -1.25,1.828125 L -1.390625,1.875 C -1.421875,2.109375 -1.5625,2.578125 -1.609375,2.671875 -1.53125,2.71875 -1.375,2.75 -1.265625,2.75 -0.859375,2.75 -0.3125,2.4375 0.0625,1.96875 0.671875,1.25 0.890625,0.5625 1.625,-2.9375 c 0.03125,-0.125 0.109375,-0.5 0.1875,-0.875 z m 0,0"
               id="id-6625c51c-46e7-4fe0-ba85-bb982bf2177b" />
          </g>
          <g
             id="id-1cfa743e-8545-40f4-8df2-9d5e9b8a910f">
            <path
               d="m 5.53125,-0.78125 -0.203125,0.125 C 5.109375,-0.5 4.953125,-0.421875 4.875,-0.421875 c -0.0625,0 -0.09375,-0.078125 -0.09375,-0.15625 0,-0.078125 0.015625,-0.140625 0.046875,-0.296875 l 0.5625,-2.25 c 0.03125,-0.140625 0.0625,-0.25 0.0625,-0.3125 0,-0.125 -0.078125,-0.21875 -0.203125,-0.21875 -0.21875,0 -0.5,0.140625 -0.96875,0.46875 -0.484375,0.34375 -0.75,0.609375 -1.109375,1.125 l 0.21875,-1.03125 C 3.421875,-3.25 3.453125,-3.359375 3.453125,-3.421875 3.453125,-3.5625 3.375,-3.65625 3.25,-3.65625 c -0.21875,0 -0.578125,0.171875 -0.984375,0.484375 -0.34375,0.265625 -0.5,0.421875 -0.984375,1.09375 l 0.25,-1.015625 c 0.03125,-0.125 0.046875,-0.234375 0.046875,-0.328125 0,-0.140625 -0.0625,-0.234375 -0.171875,-0.234375 -0.15625,0 -0.453125,0.15625 -1.015625,0.5625 L 0.1875,-2.9375 l 0.046875,0.15625 0.25,-0.171875 c 0.28125,-0.171875 0.296875,-0.1875 0.34375,-0.1875 0.09375,0 0.140625,0.078125 0.140625,0.1875 0,0.390625 -0.3125,1.859375 -0.625,2.9375 L 0.375,0.0625 0.890625,-0.046875 1.046875,-0.8125 c 0.1875,-0.84375 0.390625,-1.296875 0.8125,-1.75 0.3125,-0.34375 0.65625,-0.578125 0.875,-0.578125 0.046875,0 0.078125,0.0625 0.078125,0.15625 0,0.265625 -0.171875,1.140625 -0.484375,2.46875 l -0.109375,0.5 L 2.25,0.0625 2.78125,-0.046875 2.9375,-0.859375 C 3.046875,-1.46875 3.3125,-2.03125 3.640625,-2.40625 4.0625,-2.875 4.4375,-3.140625 4.6875,-3.140625 c 0.0625,0 0.09375,0.078125 0.09375,0.1875 0,0.1875 -0.015625,0.296875 -0.1875,0.953125 -0.125,0.484375 -0.25,0.9375 -0.328125,1.1875 -0.0625,0.21875 -0.09375,0.40625 -0.09375,0.578125 0,0.1875 0.078125,0.296875 0.21875,0.296875 0.203125,0 0.46875,-0.15625 1.21875,-0.703125 z m 0,0"
               id="id-7d778115-4b15-4d01-a184-6cb4f0562e34" />
          </g>
          <g
             id="id-a1fa65eb-0abe-4319-a43b-8e25b03df7d6">
            <path
               d="m 7.125,-3.390625 c 0.15625,0 0.359375,0 0.359375,-0.203125 0,-0.21875 -0.203125,-0.21875 -0.34375,-0.21875 h -6.21875 c -0.140625,0 -0.34375,0 -0.34375,0.21875 0,0.203125 0.203125,0.203125 0.359375,0.203125 z M 7.140625,-1.375 c 0.140625,0 0.34375,0 0.34375,-0.21875 0,-0.203125 -0.203125,-0.203125 -0.359375,-0.203125 H 0.9375 c -0.15625,0 -0.359375,0 -0.359375,0.203125 0,0.21875 0.203125,0.21875 0.34375,0.21875 z m 0,0"
               id="id-2a0cd4a8-6df3-4e26-949a-b1998166b002" />
          </g>
          <g
             id="id-f9386481-ea68-4f38-a256-bea8e94052dc">
            <path
               d="m 2.625,-6.875 c -1.546875,0 -2.328125,1.234375 -2.328125,3.640625 C 0.296875,-2.0625 0.5,-1.0625 0.84375,-0.5625 1.203125,-0.078125 1.75,0.203125 2.375,0.203125 c 1.5,0 2.265625,-1.296875 2.265625,-3.859375 0,-2.171875 -0.65625,-3.21875 -2.015625,-3.21875 z m -0.1875,0.359375 c 0.96875,0 1.359375,0.96875 1.359375,3.359375 0,2.125 -0.375,3 -1.296875,3 -0.96875,0 -1.375,-1 -1.375,-3.4375 0,-2.09375 0.375,-2.921875 1.3125,-2.921875 z m 0,0"
               id="id-08aabc8c-58ef-4724-8c60-84dfe55336b6" />
          </g>
        </g>
      </defs>
      <g
         fill="#000000"
         fill-opacity="1"
         id="id-e839b355-baa0-4899-8a02-18e592c18462"
         transform="translate(-148.523,-127.453)">
        <g
           transform="translate(150.132,134.765)"
           id="g33">
          <path
             d="M 2.84375,-3.8125 C 2.890625,-4 2.953125,-4.234375 3.015625,-4.375 l -0.03125,-0.078125 -0.078125,0.03125 c -0.234375,0.0625 -0.34375,0.0625 -0.828125,0.0625 H 1.90625 L 2.125,-5.46875 c 0.15625,-0.859375 0.4375,-1.234375 0.890625,-1.234375 0.296875,0 0.578125,0.140625 0.71875,0.390625 L 3.84375,-6.359375 C 3.890625,-6.515625 3.984375,-6.828125 4.0625,-7.03125 L 4.109375,-7.171875 C 3.953125,-7.25 3.65625,-7.3125 3.421875,-7.3125 c -0.109375,0 -0.265625,0.03125 -0.34375,0.078125 -0.25,0.109375 -1.0625,0.71875 -1.296875,0.953125 C 1.5625,-6.0625 1.453125,-5.765625 1.328125,-5.1875 L 1.1875,-4.40625 C 0.78125,-4.203125 0.578125,-4.125 0.328125,-4.03125 L 0.28125,-3.8125 h 0.8125 L 1,-3.265625 C 0.703125,-1.3125 0.328125,0.53125 0.109375,1.21875 -0.0625,1.8125 -0.375,2.125 -0.734375,2.125 -0.953125,2.125 -1.0625,2.046875 -1.25,1.828125 L -1.390625,1.875 C -1.421875,2.109375 -1.5625,2.578125 -1.609375,2.671875 -1.53125,2.71875 -1.375,2.75 -1.265625,2.75 -0.859375,2.75 -0.3125,2.4375 0.0625,1.96875 0.671875,1.25 0.890625,0.5625 1.625,-2.9375 c 0.03125,-0.125 0.109375,-0.5 0.1875,-0.875 z m 0,0"
             id="id-41aca46d-6a73-4f08-b6df-f2877efdfa91" />
        </g>
      </g>
      <g
         fill="#000000"
         fill-opacity="1"
         id="id-4f7a487d-e494-43b8-9fbd-dda6698830de"
         transform="translate(-148.523,-127.453)">
        <g
           transform="translate(153.37,136.259)"
           id="g34">
          <path
             d="m 5.53125,-0.78125 -0.203125,0.125 C 5.109375,-0.5 4.953125,-0.421875 4.875,-0.421875 c -0.0625,0 -0.09375,-0.078125 -0.09375,-0.15625 0,-0.078125 0.015625,-0.140625 0.046875,-0.296875 l 0.5625,-2.25 c 0.03125,-0.140625 0.0625,-0.25 0.0625,-0.3125 0,-0.125 -0.078125,-0.21875 -0.203125,-0.21875 -0.21875,0 -0.5,0.140625 -0.96875,0.46875 -0.484375,0.34375 -0.75,0.609375 -1.109375,1.125 l 0.21875,-1.03125 C 3.421875,-3.25 3.453125,-3.359375 3.453125,-3.421875 3.453125,-3.5625 3.375,-3.65625 3.25,-3.65625 c -0.21875,0 -0.578125,0.171875 -0.984375,0.484375 -0.34375,0.265625 -0.5,0.421875 -0.984375,1.09375 l 0.25,-1.015625 c 0.03125,-0.125 0.046875,-0.234375 0.046875,-0.328125 0,-0.140625 -0.0625,-0.234375 -0.171875,-0.234375 -0.15625,0 -0.453125,0.15625 -1.015625,0.5625 L 0.1875,-2.9375 l 0.046875,0.15625 0.25,-0.171875 c 0.28125,-0.171875 0.296875,-0.1875 0.34375,-0.1875 0.09375,0 0.140625,0.078125 0.140625,0.1875 0,0.390625 -0.3125,1.859375 -0.625,2.9375 L 0.375,0.0625 0.890625,-0.046875 1.046875,-0.8125 c 0.1875,-0.84375 0.390625,-1.296875 0.8125,-1.75 0.3125,-0.34375 0.65625,-0.578125 0.875,-0.578125 0.046875,0 0.078125,0.0625 0.078125,0.15625 0,0.265625 -0.171875,1.140625 -0.484375,2.46875 l -0.109375,0.5 L 2.25,0.0625 2.78125,-0.046875 2.9375,-0.859375 C 3.046875,-1.46875 3.3125,-2.03125 3.640625,-2.40625 4.0625,-2.875 4.4375,-3.140625 4.6875,-3.140625 c 0.0625,0 0.09375,0.078125 0.09375,0.1875 0,0.1875 -0.015625,0.296875 -0.1875,0.953125 -0.125,0.484375 -0.25,0.9375 -0.328125,1.1875 -0.0625,0.21875 -0.09375,0.40625 -0.09375,0.578125 0,0.1875 0.078125,0.296875 0.21875,0.296875 0.203125,0 0.46875,-0.15625 1.21875,-0.703125 z m 0,0"
             id="id-86e4383b-9e11-4db6-8f80-86a1fdbda4d9" />
        </g>
      </g>
      <g
         fill="#000000"
         fill-opacity="1"
         id="id-104377cf-72d7-4369-b059-40613d62f977"
         transform="translate(-148.523,-127.453)">
        <g
           transform="translate(162.745,134.765)"
           id="g35">
          <path
             d="m 7.125,-3.390625 c 0.15625,0 0.359375,0 0.359375,-0.203125 0,-0.21875 -0.203125,-0.21875 -0.34375,-0.21875 h -6.21875 c -0.140625,0 -0.34375,0 -0.34375,0.21875 0,0.203125 0.203125,0.203125 0.359375,0.203125 z M 7.140625,-1.375 c 0.140625,0 0.34375,0 0.34375,-0.21875 0,-0.203125 -0.203125,-0.203125 -0.359375,-0.203125 H 0.9375 c -0.15625,0 -0.359375,0 -0.359375,0.203125 0,0.21875 0.203125,0.21875 0.34375,0.21875 z m 0,0"
             id="id-6e4a6c71-83fa-42c6-9442-64ca731cdda6" />
        </g>
      </g>
      <g
         fill="#000000"
         fill-opacity="1"
         id="id-c49d021c-4ae0-45d0-9626-efc697bce9c3"
         transform="translate(-148.523,-127.453)">
        <g
           transform="translate(173.707,134.765)"
           id="g36">
          <path
             d="m 2.625,-6.875 c -1.546875,0 -2.328125,1.234375 -2.328125,3.640625 C 0.296875,-2.0625 0.5,-1.0625 0.84375,-0.5625 1.203125,-0.078125 1.75,0.203125 2.375,0.203125 c 1.5,0 2.265625,-1.296875 2.265625,-3.859375 0,-2.171875 -0.65625,-3.21875 -2.015625,-3.21875 z m -0.1875,0.359375 c 0.96875,0 1.359375,0.96875 1.359375,3.359375 0,2.125 -0.375,3 -1.296875,3 -0.96875,0 -1.375,-1 -1.375,-3.4375 0,-2.09375 0.375,-2.921875 1.3125,-2.921875 z m 0,0"
             id="id-f4145607-bb94-48a7-9ae2-ca02373b102d" />
        </g>
      </g>
    </g>
  </g>
  <g
     transform="matrix(0.705556,0,0,0.705556,184.2998,3.52778e-4)"
     ns1:version="1.10.2"
     ns1:texconverter="pdflatex"
     ns1:pdfconverter="inkscape"
     ns1:text="$f_n = f_m = 1$"
     ns1:preamble="/Users/sachchidanandprasad/Library/Application Support/org.inkscape.Inkscape/config/inkscape/extensions/textext/default_packages.tex"
     ns1:scale="2.0"
     ns1:alignment="middle center"
     ns1:stroke-to-path="0"
     ns1:jacobian_sqrt="0.705556"
     id="g51">
    <defs
       id="id-ad867df8-bf73-48b3-aabb-1e4b55a750d7">
      <g
         id="id-34dc78cd-f647-4c19-9881-4110fe715795">
        <g
           id="id-8cc9fa59-5e6f-4be8-9d22-44b19c08efae">
          <path
             d="M 2.84375,-3.8125 C 2.890625,-4 2.953125,-4.234375 3.015625,-4.375 l -0.03125,-0.078125 -0.078125,0.03125 c -0.234375,0.0625 -0.34375,0.0625 -0.828125,0.0625 H 1.90625 L 2.125,-5.46875 c 0.15625,-0.859375 0.4375,-1.234375 0.890625,-1.234375 0.296875,0 0.578125,0.140625 0.71875,0.390625 L 3.84375,-6.359375 C 3.890625,-6.515625 3.984375,-6.828125 4.0625,-7.03125 L 4.109375,-7.171875 C 3.953125,-7.25 3.65625,-7.3125 3.421875,-7.3125 c -0.109375,0 -0.265625,0.03125 -0.34375,0.078125 -0.25,0.109375 -1.0625,0.71875 -1.296875,0.953125 C 1.5625,-6.0625 1.453125,-5.765625 1.328125,-5.1875 L 1.1875,-4.40625 C 0.78125,-4.203125 0.578125,-4.125 0.328125,-4.03125 L 0.28125,-3.8125 h 0.8125 L 1,-3.265625 C 0.703125,-1.3125 0.328125,0.53125 0.109375,1.21875 -0.0625,1.8125 -0.375,2.125 -0.734375,2.125 -0.953125,2.125 -1.0625,2.046875 -1.25,1.828125 L -1.390625,1.875 C -1.421875,2.109375 -1.5625,2.578125 -1.609375,2.671875 -1.53125,2.71875 -1.375,2.75 -1.265625,2.75 -0.859375,2.75 -0.3125,2.4375 0.0625,1.96875 0.671875,1.25 0.890625,0.5625 1.625,-2.9375 c 0.03125,-0.125 0.109375,-0.5 0.1875,-0.875 z m 0,0"
             id="id-819d1f9b-525f-4dd2-afae-bfe69986cd69" />
        </g>
        <g
           id="id-107ca60e-0a38-47ae-af2e-c6d8a6ecb6dd">
          <path
             d="m 0.1875,-2.9375 0.046875,0.15625 0.25,-0.171875 c 0.28125,-0.171875 0.296875,-0.1875 0.34375,-0.1875 0.09375,0 0.140625,0.078125 0.140625,0.1875 0,0.390625 -0.3125,1.859375 -0.625,2.9375 L 0.40625,0.0625 C 0.59375,0.015625 0.765625,-0.03125 0.9375,-0.0625 1.078125,-1.015625 1.234375,-1.515625 1.578125,-2.03125 2,-2.671875 2.5625,-3.140625 2.90625,-3.140625 c 0.078125,0 0.125,0.078125 0.125,0.1875 0,0.140625 -0.015625,0.296875 -0.078125,0.53125 L 2.546875,-0.8125 c -0.0625,0.28125 -0.09375,0.453125 -0.09375,0.578125 0,0.1875 0.078125,0.296875 0.234375,0.296875 0.1875,0 0.46875,-0.15625 1.203125,-0.703125 L 3.8125,-0.78125 3.625,-0.65625 C 3.40625,-0.5 3.234375,-0.421875 3.15625,-0.421875 3.109375,-0.421875 3.0625,-0.5 3.0625,-0.578125 c 0,-0.03125 0,-0.125 0.015625,-0.15625 l 0.5,-2.078125 C 3.625,-3.03125 3.65625,-3.25 3.65625,-3.375 c 0,-0.171875 -0.078125,-0.28125 -0.234375,-0.28125 -0.3125,0 -0.84375,0.296875 -1.28125,0.703125 C 1.84375,-2.6875 1.640625,-2.421875 1.25,-1.875 l 0.28125,-1.21875 c 0.03125,-0.140625 0.046875,-0.21875 0.046875,-0.3125 0,-0.15625 -0.0625,-0.25 -0.171875,-0.25 -0.15625,0 -0.453125,0.171875 -1.015625,0.5625 z m 0,0"
             id="id-7f2bdd96-33bf-42f2-85b2-871754b5f31e" />
        </g>
        <g
           id="id-41d2f658-65c1-4c89-8375-384993c5dbe3">
          <path
             d="m 5.53125,-0.78125 -0.203125,0.125 C 5.109375,-0.5 4.953125,-0.421875 4.875,-0.421875 c -0.0625,0 -0.09375,-0.078125 -0.09375,-0.15625 0,-0.078125 0.015625,-0.140625 0.046875,-0.296875 l 0.5625,-2.25 c 0.03125,-0.140625 0.0625,-0.25 0.0625,-0.3125 0,-0.125 -0.078125,-0.21875 -0.203125,-0.21875 -0.21875,0 -0.5,0.140625 -0.96875,0.46875 -0.484375,0.34375 -0.75,0.609375 -1.109375,1.125 l 0.21875,-1.03125 C 3.421875,-3.25 3.453125,-3.359375 3.453125,-3.421875 3.453125,-3.5625 3.375,-3.65625 3.25,-3.65625 c -0.21875,0 -0.578125,0.171875 -0.984375,0.484375 -0.34375,0.265625 -0.5,0.421875 -0.984375,1.09375 l 0.25,-1.015625 c 0.03125,-0.125 0.046875,-0.234375 0.046875,-0.328125 0,-0.140625 -0.0625,-0.234375 -0.171875,-0.234375 -0.15625,0 -0.453125,0.15625 -1.015625,0.5625 L 0.1875,-2.9375 l 0.046875,0.15625 0.25,-0.171875 c 0.28125,-0.171875 0.296875,-0.1875 0.34375,-0.1875 0.09375,0 0.140625,0.078125 0.140625,0.1875 0,0.390625 -0.3125,1.859375 -0.625,2.9375 L 0.375,0.0625 0.890625,-0.046875 1.046875,-0.8125 c 0.1875,-0.84375 0.390625,-1.296875 0.8125,-1.75 0.3125,-0.34375 0.65625,-0.578125 0.875,-0.578125 0.046875,0 0.078125,0.0625 0.078125,0.15625 0,0.265625 -0.171875,1.140625 -0.484375,2.46875 l -0.109375,0.5 L 2.25,0.0625 2.78125,-0.046875 2.9375,-0.859375 C 3.046875,-1.46875 3.3125,-2.03125 3.640625,-2.40625 4.0625,-2.875 4.4375,-3.140625 4.6875,-3.140625 c 0.0625,0 0.09375,0.078125 0.09375,0.1875 0,0.1875 -0.015625,0.296875 -0.1875,0.953125 -0.125,0.484375 -0.25,0.9375 -0.328125,1.1875 -0.0625,0.21875 -0.09375,0.40625 -0.09375,0.578125 0,0.1875 0.078125,0.296875 0.21875,0.296875 0.203125,0 0.46875,-0.15625 1.21875,-0.703125 z m 0,0"
             id="id-ead51c95-d232-4bfc-a9d8-0b14e12c7088" />
        </g>
        <g
           id="id-5ff13687-2c45-40e6-a2ca-15cd03605ca0">
          <path
             d="m 7.125,-3.390625 c 0.15625,0 0.359375,0 0.359375,-0.203125 0,-0.21875 -0.203125,-0.21875 -0.34375,-0.21875 h -6.21875 c -0.140625,0 -0.34375,0 -0.34375,0.21875 0,0.203125 0.203125,0.203125 0.359375,0.203125 z M 7.140625,-1.375 c 0.140625,0 0.34375,0 0.34375,-0.21875 0,-0.203125 -0.203125,-0.203125 -0.359375,-0.203125 H 0.9375 c -0.15625,0 -0.359375,0 -0.359375,0.203125 0,0.21875 0.203125,0.21875 0.34375,0.21875 z m 0,0"
             id="id-d8332f6d-74ae-4f53-ad48-6315e410fd13" />
        </g>
        <g
           id="id-7ce93e99-e4aa-4a66-914e-c86cb60da723">
          <path
             d="m 0.671875,-5.53125 h 0.09375 l 1.28125,-0.578125 C 2.0625,-6.125 2.078125,-6.125 2.078125,-6.125 c 0.0625,0 0.078125,0.09375 0.078125,0.328125 v 4.84375 c 0,0.515625 -0.109375,0.625 -0.640625,0.65625 l -0.5625,0.03125 V 0.03125 C 2.5,0 2.5,0 2.609375,0 c 0.125,0 0.34375,0 0.6875,0.015625 0.109375,0 0.46875,0 0.875,0.015625 V -0.265625 L 3.65625,-0.296875 C 3.09375,-0.328125 3,-0.4375 3,-0.953125 V -6.875 L 2.859375,-6.921875 C 2.21875,-6.578125 1.5,-6.28125 0.59375,-5.96875 Z m 0,0"
             id="id-a0da11ca-400f-4dbc-bd34-9eb9b8cb0e48" />
        </g>
      </g>
    </defs>
    <g
       fill="#000000"
       fill-opacity="1"
       id="id-6de3e880-a84d-4fc1-8f66-a836d6ef2ceb"
       transform="translate(-148.523,-127.453)">
      <g
         transform="translate(150.132,134.765)"
         id="g44">
        <path
           d="M 2.84375,-3.8125 C 2.890625,-4 2.953125,-4.234375 3.015625,-4.375 l -0.03125,-0.078125 -0.078125,0.03125 c -0.234375,0.0625 -0.34375,0.0625 -0.828125,0.0625 H 1.90625 L 2.125,-5.46875 c 0.15625,-0.859375 0.4375,-1.234375 0.890625,-1.234375 0.296875,0 0.578125,0.140625 0.71875,0.390625 L 3.84375,-6.359375 C 3.890625,-6.515625 3.984375,-6.828125 4.0625,-7.03125 L 4.109375,-7.171875 C 3.953125,-7.25 3.65625,-7.3125 3.421875,-7.3125 c -0.109375,0 -0.265625,0.03125 -0.34375,0.078125 -0.25,0.109375 -1.0625,0.71875 -1.296875,0.953125 C 1.5625,-6.0625 1.453125,-5.765625 1.328125,-5.1875 L 1.1875,-4.40625 C 0.78125,-4.203125 0.578125,-4.125 0.328125,-4.03125 L 0.28125,-3.8125 h 0.8125 L 1,-3.265625 C 0.703125,-1.3125 0.328125,0.53125 0.109375,1.21875 -0.0625,1.8125 -0.375,2.125 -0.734375,2.125 -0.953125,2.125 -1.0625,2.046875 -1.25,1.828125 L -1.390625,1.875 C -1.421875,2.109375 -1.5625,2.578125 -1.609375,2.671875 -1.53125,2.71875 -1.375,2.75 -1.265625,2.75 -0.859375,2.75 -0.3125,2.4375 0.0625,1.96875 0.671875,1.25 0.890625,0.5625 1.625,-2.9375 c 0.03125,-0.125 0.109375,-0.5 0.1875,-0.875 z m 0,0"
           id="id-27ab030e-4e57-489f-a817-5bb8210c5895" />
      </g>
    </g>
    <g
       fill="#000000"
       fill-opacity="1"
       id="id-10936e53-2efa-49ea-bccf-ebc30a22c53e"
       transform="translate(-148.523,-127.453)">
      <g
         transform="translate(153.37,136.259)"
         id="g45">
        <path
           d="m 0.1875,-2.9375 0.046875,0.15625 0.25,-0.171875 c 0.28125,-0.171875 0.296875,-0.1875 0.34375,-0.1875 0.09375,0 0.140625,0.078125 0.140625,0.1875 0,0.390625 -0.3125,1.859375 -0.625,2.9375 L 0.40625,0.0625 C 0.59375,0.015625 0.765625,-0.03125 0.9375,-0.0625 1.078125,-1.015625 1.234375,-1.515625 1.578125,-2.03125 2,-2.671875 2.5625,-3.140625 2.90625,-3.140625 c 0.078125,0 0.125,0.078125 0.125,0.1875 0,0.140625 -0.015625,0.296875 -0.078125,0.53125 L 2.546875,-0.8125 c -0.0625,0.28125 -0.09375,0.453125 -0.09375,0.578125 0,0.1875 0.078125,0.296875 0.234375,0.296875 0.1875,0 0.46875,-0.15625 1.203125,-0.703125 L 3.8125,-0.78125 3.625,-0.65625 C 3.40625,-0.5 3.234375,-0.421875 3.15625,-0.421875 3.109375,-0.421875 3.0625,-0.5 3.0625,-0.578125 c 0,-0.03125 0,-0.125 0.015625,-0.15625 l 0.5,-2.078125 C 3.625,-3.03125 3.65625,-3.25 3.65625,-3.375 c 0,-0.171875 -0.078125,-0.28125 -0.234375,-0.28125 -0.3125,0 -0.84375,0.296875 -1.28125,0.703125 C 1.84375,-2.6875 1.640625,-2.421875 1.25,-1.875 l 0.28125,-1.21875 c 0.03125,-0.140625 0.046875,-0.21875 0.046875,-0.3125 0,-0.15625 -0.0625,-0.25 -0.171875,-0.25 -0.15625,0 -0.453125,0.171875 -1.015625,0.5625 z m 0,0"
           id="id-342863d6-3f00-49b1-81a4-f3c1988884b6" />
      </g>
    </g>
    <g
       fill="#000000"
       fill-opacity="1"
       id="id-1fdb3ab3-5bf1-457a-82be-43f6d6c9b9c1"
       transform="translate(-148.523,-127.453)">
      <g
         transform="translate(161.064,134.765)"
         id="g46">
        <path
           d="m 7.125,-3.390625 c 0.15625,0 0.359375,0 0.359375,-0.203125 0,-0.21875 -0.203125,-0.21875 -0.34375,-0.21875 h -6.21875 c -0.140625,0 -0.34375,0 -0.34375,0.21875 0,0.203125 0.203125,0.203125 0.359375,0.203125 z M 7.140625,-1.375 c 0.140625,0 0.34375,0 0.34375,-0.21875 0,-0.203125 -0.203125,-0.203125 -0.359375,-0.203125 H 0.9375 c -0.15625,0 -0.359375,0 -0.359375,0.203125 0,0.21875 0.203125,0.21875 0.34375,0.21875 z m 0,0"
           id="id-de34d8a3-0b61-48a9-ad2a-e7e9f6e60fb3" />
      </g>
    </g>
    <g
       fill="#000000"
       fill-opacity="1"
       id="id-08da8833-c8ba-4780-88af-0b96d1267510"
       transform="translate(-148.523,-127.453)">
      <g
         transform="translate(173.445,134.765)"
         id="g47">
        <path
           d="M 2.84375,-3.8125 C 2.890625,-4 2.953125,-4.234375 3.015625,-4.375 l -0.03125,-0.078125 -0.078125,0.03125 c -0.234375,0.0625 -0.34375,0.0625 -0.828125,0.0625 H 1.90625 L 2.125,-5.46875 c 0.15625,-0.859375 0.4375,-1.234375 0.890625,-1.234375 0.296875,0 0.578125,0.140625 0.71875,0.390625 L 3.84375,-6.359375 C 3.890625,-6.515625 3.984375,-6.828125 4.0625,-7.03125 L 4.109375,-7.171875 C 3.953125,-7.25 3.65625,-7.3125 3.421875,-7.3125 c -0.109375,0 -0.265625,0.03125 -0.34375,0.078125 -0.25,0.109375 -1.0625,0.71875 -1.296875,0.953125 C 1.5625,-6.0625 1.453125,-5.765625 1.328125,-5.1875 L 1.1875,-4.40625 C 0.78125,-4.203125 0.578125,-4.125 0.328125,-4.03125 L 0.28125,-3.8125 h 0.8125 L 1,-3.265625 C 0.703125,-1.3125 0.328125,0.53125 0.109375,1.21875 -0.0625,1.8125 -0.375,2.125 -0.734375,2.125 -0.953125,2.125 -1.0625,2.046875 -1.25,1.828125 L -1.390625,1.875 C -1.421875,2.109375 -1.5625,2.578125 -1.609375,2.671875 -1.53125,2.71875 -1.375,2.75 -1.265625,2.75 -0.859375,2.75 -0.3125,2.4375 0.0625,1.96875 0.671875,1.25 0.890625,0.5625 1.625,-2.9375 c 0.03125,-0.125 0.109375,-0.5 0.1875,-0.875 z m 0,0"
           id="id-30375dd6-b5f6-4e0a-8220-cadda38dab1f" />
      </g>
    </g>
    <g
       fill="#000000"
       fill-opacity="1"
       id="id-9680cca5-6bfe-4bb4-a054-8db3fea481b7"
       transform="translate(-148.523,-127.453)">
      <g
         transform="translate(176.683,136.259)"
         id="g48">
        <path
           d="m 5.53125,-0.78125 -0.203125,0.125 C 5.109375,-0.5 4.953125,-0.421875 4.875,-0.421875 c -0.0625,0 -0.09375,-0.078125 -0.09375,-0.15625 0,-0.078125 0.015625,-0.140625 0.046875,-0.296875 l 0.5625,-2.25 c 0.03125,-0.140625 0.0625,-0.25 0.0625,-0.3125 0,-0.125 -0.078125,-0.21875 -0.203125,-0.21875 -0.21875,0 -0.5,0.140625 -0.96875,0.46875 -0.484375,0.34375 -0.75,0.609375 -1.109375,1.125 l 0.21875,-1.03125 C 3.421875,-3.25 3.453125,-3.359375 3.453125,-3.421875 3.453125,-3.5625 3.375,-3.65625 3.25,-3.65625 c -0.21875,0 -0.578125,0.171875 -0.984375,0.484375 -0.34375,0.265625 -0.5,0.421875 -0.984375,1.09375 l 0.25,-1.015625 c 0.03125,-0.125 0.046875,-0.234375 0.046875,-0.328125 0,-0.140625 -0.0625,-0.234375 -0.171875,-0.234375 -0.15625,0 -0.453125,0.15625 -1.015625,0.5625 L 0.1875,-2.9375 l 0.046875,0.15625 0.25,-0.171875 c 0.28125,-0.171875 0.296875,-0.1875 0.34375,-0.1875 0.09375,0 0.140625,0.078125 0.140625,0.1875 0,0.390625 -0.3125,1.859375 -0.625,2.9375 L 0.375,0.0625 0.890625,-0.046875 1.046875,-0.8125 c 0.1875,-0.84375 0.390625,-1.296875 0.8125,-1.75 0.3125,-0.34375 0.65625,-0.578125 0.875,-0.578125 0.046875,0 0.078125,0.0625 0.078125,0.15625 0,0.265625 -0.171875,1.140625 -0.484375,2.46875 l -0.109375,0.5 L 2.25,0.0625 2.78125,-0.046875 2.9375,-0.859375 C 3.046875,-1.46875 3.3125,-2.03125 3.640625,-2.40625 4.0625,-2.875 4.4375,-3.140625 4.6875,-3.140625 c 0.0625,0 0.09375,0.078125 0.09375,0.1875 0,0.1875 -0.015625,0.296875 -0.1875,0.953125 -0.125,0.484375 -0.25,0.9375 -0.328125,1.1875 -0.0625,0.21875 -0.09375,0.40625 -0.09375,0.578125 0,0.1875 0.078125,0.296875 0.21875,0.296875 0.203125,0 0.46875,-0.15625 1.21875,-0.703125 z m 0,0"
           id="id-d03bef34-08a5-4920-8b3a-c5fae9e3d9c8" />
      </g>
    </g>
    <g
       fill="#000000"
       fill-opacity="1"
       id="id-10149b91-d6b4-4466-8e64-62ce3ec8b97d"
       transform="translate(-148.523,-127.453)">
      <g
         transform="translate(186.059,134.765)"
         id="g49">
        <path
           d="m 7.125,-3.390625 c 0.15625,0 0.359375,0 0.359375,-0.203125 0,-0.21875 -0.203125,-0.21875 -0.34375,-0.21875 h -6.21875 c -0.140625,0 -0.34375,0 -0.34375,0.21875 0,0.203125 0.203125,0.203125 0.359375,0.203125 z M 7.140625,-1.375 c 0.140625,0 0.34375,0 0.34375,-0.21875 0,-0.203125 -0.203125,-0.203125 -0.359375,-0.203125 H 0.9375 c -0.15625,0 -0.359375,0 -0.359375,0.203125 0,0.21875 0.203125,0.21875 0.34375,0.21875 z m 0,0"
           id="id-03b71139-aac6-4121-b99b-40572fb5a6ca" />
      </g>
    </g>
    <g
       fill="#000000"
       fill-opacity="1"
       id="id-31580251-6549-453f-a065-581790dc0077"
       transform="translate(-148.523,-127.453)">
      <g
         transform="translate(197.02,134.765)"
         id="g50">
        <path
           d="m 0.671875,-5.53125 h 0.09375 l 1.28125,-0.578125 C 2.0625,-6.125 2.078125,-6.125 2.078125,-6.125 c 0.0625,0 0.078125,0.09375 0.078125,0.328125 v 4.84375 c 0,0.515625 -0.109375,0.625 -0.640625,0.65625 l -0.5625,0.03125 V 0.03125 C 2.5,0 2.5,0 2.609375,0 c 0.125,0 0.34375,0 0.6875,0.015625 0.109375,0 0.46875,0 0.875,0.015625 V -0.265625 L 3.65625,-0.296875 C 3.09375,-0.328125 3,-0.4375 3,-0.953125 V -6.875 L 2.859375,-6.921875 C 2.21875,-6.578125 1.5,-6.28125 0.59375,-5.96875 Z m 0,0"
           id="id-15a8af84-556a-408a-80bb-25ce3b780128" />
      </g>
    </g>
  </g>
</svg>
