<?xml version="1.0" encoding="UTF-8" standalone="no"?>
<!-- Created with Inkscape (http://www.inkscape.org/) -->

<svg
   width="131.21953mm"
   height="90.989021mm"
   viewBox="0 0 131.21953 90.989021"
   version="1.1"
   id="svg1"
   inkscape:version="1.3 (0e150ed, 2023-07-21)"
   sodipodi:docname="prob-27-06-24_01.svg"
   xmlns:inkscape="http://www.inkscape.org/namespaces/inkscape"
   xmlns:sodipodi="http://sodipodi.sourceforge.net/DTD/sodipodi-0.dtd"
   xmlns="http://www.w3.org/2000/svg"
   xmlns:svg="http://www.w3.org/2000/svg"
   xmlns:ns1="http://www.iki.fi/pav/software/textext/">
  <sodipodi:namedview
     id="namedview1"
     pagecolor="#ffffff"
     bordercolor="#000000"
     borderopacity="0.25"
     inkscape:showpageshadow="2"
     inkscape:pageopacity="0.0"
     inkscape:pagecheckerboard="0"
     inkscape:deskcolor="#d1d1d1"
     inkscape:document-units="mm"
     inkscape:zoom="1"
     inkscape:cx="176"
     inkscape:cy="236"
     inkscape:window-width="1512"
     inkscape:window-height="916"
     inkscape:window-x="0"
     inkscape:window-y="38"
     inkscape:window-maximized="1"
     inkscape:current-layer="layer1" />
  <defs
     id="defs1" />
  <g
     inkscape:label="Layer 1"
     inkscape:groupmode="layer"
     id="layer1"
     transform="translate(-12.664806,-55.029988)">
    <path
       d="m 78.451934,137.23508 a 40.848303,41.568791 0 0 0 4.197703,-3.64865 40.848303,41.568791 0 0 0 4.162836,-4.9597 40.848303,41.568791 0 0 0 3.349073,-5.56179 40.848303,41.568791 0 0 0 2.453142,-6.02659 40.848303,41.568791 0 0 0 1.496347,-6.34237 40.848303,41.568791 0 0 0 0.502944,-6.50294 40.848303,41.568791 0 0 0 -0.06437,-2.33109 40.848303,41.568791 0 0 0 -0.192636,-2.323151 40.848303,41.568791 0 0 0 -0.320298,-2.308813 40.848303,41.568791 0 0 0 -0.446756,-2.287096 40.848303,41.568791 0 0 0 -0.572073,-2.257631 40.848303,41.568791 0 0 0 -0.696203,-2.221649 40.848303,41.568791 0 0 0 -0.816693,-2.178187 40.848303,41.568791 0 0 0 -0.936109,-2.128358 40.848303,41.568791 0 0 0 -1.051944,-2.071876 40.848303,41.568791 0 0 0 -1.163624,-2.008117 40.848303,41.568791 0 0 0 -1.27297,-1.938864 40.848303,41.568791 0 0 0 -1.378151,-1.863163 40.848303,41.568791 0 0 0 -1.478036,-1.781349 40.848303,41.568791 0 0 0 -1.57436,-1.694105 40.848303,41.568791 0 0 0 -1.664771,-1.602108 40.848303,41.568791 0 0 0 -1.750488,-1.504068 40.848303,41.568791 0 0 0 -1.124621,-0.861107 40.848303,41.568791 0 0 0 -4.21012,3.659516 40.848303,41.568791 0 0 0 -4.162829,4.959765 40.848303,41.568791 0 0 0 -3.349074,5.561719 40.848303,41.568791 0 0 0 -2.453142,6.026658 40.848303,41.568791 0 0 0 -1.496353,6.342369 40.848303,41.568791 0 0 0 -0.502944,6.503015 40.848303,41.568791 0 0 0 0.502944,6.50279 40.848303,41.568791 0 0 0 1.496353,6.34244 40.848303,41.568791 0 0 0 2.453142,6.02666 40.848303,41.568791 0 0 0 3.349074,5.56165 40.848303,41.568791 0 0 0 4.162829,4.95984 40.848303,41.568791 0 0 0 4.552297,3.95656 z"
       style="opacity:1;fill:#ffff00;fill-opacity:0.356522;stroke:none;stroke-width:0.505;paint-order:stroke fill markers"
       id="path5" />
    <path
       d="m 78.451934,137.23508 a 40.848303,41.568791 0 0 1 -4.552297,-3.95648 40.848303,41.568791 0 0 1 -4.162836,-4.95984 40.848303,41.568791 0 0 1 -3.349073,-5.56171 40.848303,41.568791 0 0 1 -2.453141,-6.02666 40.848303,41.568791 0 0 1 -1.496348,-6.34237 40.848303,41.568791 0 0 1 -0.502944,-6.50288 40.848303,41.568791 0 0 1 0.502944,-6.502943 40.848303,41.568791 0 0 1 1.496348,-6.342369 40.848303,41.568791 0 0 1 2.453141,-6.026723 40.848303,41.568791 0 0 1 3.349073,-5.561651 40.848303,41.568791 0 0 1 4.162836,-4.959833 A 40.848303,41.568791 0 0 1 78.10975,70.832104 40.848303,41.568791 0 0 0 77.403517,70.290985 40.848303,41.568791 0 0 0 75.49821,68.995557 40.848303,41.568791 0 0 0 73.524933,67.81134 40.848303,41.568791 0 0 0 71.489012,66.740846 40.848303,41.568791 0 0 0 69.397554,65.788285 40.848303,41.568791 0 0 0 67.257028,64.95746 40.848303,41.568791 0 0 0 65.073972,64.249319 40.848303,41.568791 0 0 0 62.85544,63.666785 40.848303,41.568791 0 0 0 60.607955,63.21189 a 40.848303,41.568791 0 0 0 -2.26876,-0.325214 40.848303,41.568791 0 0 0 -2.282941,-0.195537 40.848303,41.568791 0 0 0 -2.290625,-0.0611 40.848303,41.568791 0 0 0 -6.390232,0.511247 40.848303,41.568791 0 0 0 -6.232436,1.522739 40.848303,41.568791 0 0 0 -5.922182,2.496415 40.848303,41.568791 0 0 0 -5.465347,3.408171 40.848303,41.568791 0 0 0 -4.873784,4.236213 40.848303,41.568791 0 0 0 -4.162835,4.959697 40.848303,41.568791 0 0 0 -3.349073,5.561786 40.848303,41.568791 0 0 0 -2.453135,6.026657 40.848303,41.568791 0 0 0 -1.496354,6.3423 40.848303,41.568791 0 0 0 -0.502945,6.503006 40.848303,41.568791 0 0 0 0.502945,6.50294 40.848303,41.568791 0 0 0 1.496354,6.34237 40.848303,41.568791 0 0 0 2.453135,6.02666 40.848303,41.568791 0 0 0 3.349073,5.56172 40.848303,41.568791 0 0 0 4.162835,4.95977 40.848303,41.568791 0 0 0 4.873784,4.23627 40.848303,41.568791 0 0 0 5.465347,3.4081 40.848303,41.568791 0 0 0 5.922182,2.49643 40.848303,41.568791 0 0 0 6.232436,1.52273 40.848303,41.568791 0 0 0 6.390232,0.51125 40.848303,41.568791 0 0 0 6.390233,-0.51125 40.848303,41.568791 0 0 0 6.232442,-1.52273 40.848303,41.568791 0 0 0 5.922169,-2.49643 40.848303,41.568791 0 0 0 5.465354,-3.4081 40.848303,41.568791 0 0 0 0.676048,-0.58796 z"
       style="font-variation-settings:normal;opacity:1;vector-effect:none;fill:#19f012;fill-opacity:0.356522;stroke:#008000;stroke-width:0.505;stroke-linecap:butt;stroke-linejoin:miter;stroke-miterlimit:4;stroke-dasharray:1.51499999,1.51499999;stroke-dashoffset:0;stroke-opacity:0.967059;-inkscape-stroke:none;paint-order:normal;stop-color:#000000;stop-opacity:1"
       id="path3" />
    <path
       d="m 102.78362,62.316294 a 40.848303,41.568791 0 0 0 -6.390241,0.511245 40.848303,41.568791 0 0 0 -6.232429,1.52274 40.848303,41.568791 0 0 0 -5.922168,2.496415 40.848303,41.568791 0 0 0 -5.465361,3.408171 40.848303,41.568791 0 0 0 -0.663664,0.576424 40.848303,41.568791 0 0 1 1.124627,0.861108 40.848303,41.568791 0 0 1 1.750482,1.504067 40.848303,41.568791 0 0 1 1.664785,1.602176 40.848303,41.568791 0 0 1 1.57436,1.694038 40.848303,41.568791 0 0 1 1.478023,1.781417 40.848303,41.568791 0 0 1 1.378171,1.863095 40.848303,41.568791 0 0 1 1.272962,1.938932 40.848303,41.568791 0 0 1 1.163631,2.008117 40.848303,41.568791 0 0 1 1.051932,2.071803 40.848303,41.568791 0 0 1 0.936108,2.128427 40.848303,41.568791 0 0 1 0.816693,2.178187 40.848303,41.568791 0 0 1 0.696197,2.221581 40.848303,41.568791 0 0 1 0.572072,2.257699 40.848303,41.568791 0 0 1 0.446756,2.287028 40.848303,41.568791 0 0 1 0.320299,2.308824 40.848303,41.568791 0 0 1 0.192636,2.323212 40.848303,41.568791 0 0 1 0.06437,2.33102 40.848303,41.568791 0 0 1 -0.502943,6.50295 40.848303,41.568791 0 0 1 -1.496347,6.34244 40.848303,41.568791 0 0 1 -2.453149,6.02652 40.848303,41.568791 0 0 1 -3.34906,5.56179 40.848303,41.568791 0 0 1 -4.162835,4.95976 40.848303,41.568791 0 0 1 -4.19771,3.64865 40.848303,41.568791 0 0 0 0.321506,0.27905 40.848303,41.568791 0 0 0 5.465355,3.40817 40.848303,41.568791 0 0 0 5.922167,2.49634 40.848303,41.568791 0 0 0 6.23245,1.52281 40.848303,41.568791 0 0 0 6.390225,0.51125 40.848303,41.568791 0 0 0 6.39023,-0.51125 40.848303,41.568791 0 0 0 6.23244,-1.52281 40.848303,41.568791 0 0 0 5.92217,-2.49634 40.848303,41.568791 0 0 0 5.46536,-3.40817 40.848303,41.568791 0 0 0 4.87378,-4.23622 40.848303,41.568791 0 0 0 4.16283,-4.95982 40.848303,41.568791 0 0 0 3.34907,-5.56172 40.848303,41.568791 0 0 0 2.45314,-6.02667 40.848303,41.568791 0 0 0 1.49636,-6.34236 40.848303,41.568791 0 0 0 0.50294,-6.50288 40.848303,41.568791 0 0 0 -0.0643,-2.33102 40.848303,41.568791 0 0 0 -0.19264,-2.323212 40.848303,41.568791 0 0 0 -0.3203,-2.308759 40.848303,41.568791 0 0 0 -0.44676,-2.287234 40.848303,41.568791 0 0 0 -0.57206,-2.257631 40.848303,41.568791 0 0 0 -0.69621,-2.221511 40.848303,41.568791 0 0 0 -0.81669,-2.178325 40.848303,41.568791 0 0 0 -0.93611,-2.128289 40.848303,41.568791 0 0 0 -1.05193,-2.071871 40.848303,41.568791 0 0 0 -1.16364,-2.008049 40.848303,41.568791 0 0 0 -1.27296,-1.938933 40.848303,41.568791 0 0 0 -1.37817,-1.863094 40.848303,41.568791 0 0 0 -1.47802,-1.78135 40.848303,41.568791 0 0 0 -1.57436,-1.694241 40.848303,41.568791 0 0 0 -1.66478,-1.602107 40.848303,41.568791 0 0 0 -1.75047,-1.504068 40.848303,41.568791 0 0 0 -1.83085,-1.40243 40.848303,41.568791 0 0 0 -1.90531,-1.295496 40.848303,41.568791 0 0 0 -1.97326,-1.184082 40.848303,41.568791 0 0 0 -2.03592,-1.070493 40.848303,41.568791 0 0 0 -2.09147,-0.952697 40.848303,41.568791 0 0 0 -2.14052,-0.830825 40.848303,41.568791 0 0 0 -2.18307,-0.708141 40.848303,41.568791 0 0 0 -2.21851,-0.581856 40.848303,41.568791 0 0 0 -2.24748,-0.454893 40.848303,41.568791 0 0 0 -2.26877,-0.325894 40.848303,41.568791 0 0 0 -2.28294,-0.195537 40.848303,41.568791 0 0 0 -2.29063,-0.0611 z"
       style="opacity:1;fill:#2064bf;fill-opacity:0.356522;stroke:#0000ff;stroke-width:0.505;paint-order:stroke fill markers;stroke-dasharray:1.51499999,1.51499999;stroke-dashoffset:0"
       id="path4" />
    <g
       transform="matrix(1.1619113,0,0,1.1619113,113.95681,101.35833)"
       ns1:version="1.9.0"
       ns1:texconverter="pdflatex"
       ns1:pdfconverter="inkscape"
       ns1:text="$z$"
       ns1:preamble="/Users/sachchidanandprasad/Library/Application Support/org.inkscape.Inkscape/config/inkscape/extensions/inkscapeMadeEasy/basicLatexPackages.tex"
       ns1:scale="1.0"
       ns1:alignment="middle center"
       ns1:stroke-to-path="0"
       id="g4610"
       ns1:jacobian_sqrt="0.352778"
       style="stroke-width:0.303618">
      <defs
         id="id-86f0c3a0-e0f9-4f9e-b891-ebfcb7019679">
        <g
           id="id-6a68a9bf-f4bf-4dfc-9223-eef36c9ba9ca">
          <g
             id="id-d21bc3d2-4f6e-450c-83b9-10ec27562199">
            <path
               d="m 1.328125,-0.828125 c 0.53125,-0.578125 0.828125,-0.828125 1.1875,-1.140625 0,0 0.609375,-0.53125 0.96875,-0.890625 C 4.4375,-3.78125 4.65625,-4.265625 4.65625,-4.3125 c 0,-0.09375 -0.09375,-0.09375 -0.109375,-0.09375 -0.078125,0 -0.09375,0.015625 -0.15625,0.109375 -0.296875,0.484375 -0.5,0.640625 -0.734375,0.640625 -0.25,0 -0.359375,-0.15625 -0.515625,-0.328125 -0.1875,-0.21875 -0.359375,-0.421875 -0.6875,-0.421875 -0.75,0 -1.203125,0.921875 -1.203125,1.140625 0,0.046875 0.03125,0.109375 0.109375,0.109375 0.09375,0 0.109375,-0.046875 0.140625,-0.109375 0.1875,-0.46875 0.765625,-0.46875 0.84375,-0.46875 0.203125,0 0.390625,0.0625 0.625,0.140625 0.40625,0.15625 0.515625,0.15625 0.765625,0.15625 -0.359375,0.421875 -1.1875,1.140625 -1.375,1.296875 l -0.90625,0.84375 C 0.78125,-0.625 0.421875,-0.0625 0.421875,0.015625 c 0,0.09375 0.109375,0.09375 0.125,0.09375 0.078125,0 0.09375,-0.015625 0.15625,-0.125 0.234375,-0.359375 0.53125,-0.625 0.859375,-0.625 0.21875,0 0.328125,0.09375 0.578125,0.375 0.15625,0.21875 0.34375,0.375 0.625,0.375 1,0 1.578125,-1.265625 1.578125,-1.53125 0,-0.046875 -0.046875,-0.109375 -0.125,-0.109375 -0.09375,0 -0.109375,0.0625 -0.140625,0.140625 C 3.84375,-0.75 3.203125,-0.5625 2.875,-0.5625 c -0.1875,0 -0.375,-0.0625 -0.578125,-0.125 -0.34375,-0.125 -0.5,-0.171875 -0.703125,-0.171875 -0.015625,0 -0.171875,0 -0.265625,0.03125 z m 0,0"
               id="id-15f3d4e0-0c4b-4d71-8f8e-46fc36b6832a" />
          </g>
        </g>
      </defs>
      <g
         fill="#000000"
         fill-opacity="1"
         id="id-c0cb88c4-d4b0-45c8-adf2-7ee31a197ec0"
         transform="translate(-149.134,-130.359)"
         style="stroke-width:0.303618">
        <g
           transform="translate(148.712,134.765)"
           id="g9668"
           style="stroke-width:0.303618">
          <path
             d="m 1.328125,-0.828125 c 0.53125,-0.578125 0.828125,-0.828125 1.1875,-1.140625 0,0 0.609375,-0.53125 0.96875,-0.890625 C 4.4375,-3.78125 4.65625,-4.265625 4.65625,-4.3125 c 0,-0.09375 -0.09375,-0.09375 -0.109375,-0.09375 -0.078125,0 -0.09375,0.015625 -0.15625,0.109375 -0.296875,0.484375 -0.5,0.640625 -0.734375,0.640625 -0.25,0 -0.359375,-0.15625 -0.515625,-0.328125 -0.1875,-0.21875 -0.359375,-0.421875 -0.6875,-0.421875 -0.75,0 -1.203125,0.921875 -1.203125,1.140625 0,0.046875 0.03125,0.109375 0.109375,0.109375 0.09375,0 0.109375,-0.046875 0.140625,-0.109375 0.1875,-0.46875 0.765625,-0.46875 0.84375,-0.46875 0.203125,0 0.390625,0.0625 0.625,0.140625 0.40625,0.15625 0.515625,0.15625 0.765625,0.15625 -0.359375,0.421875 -1.1875,1.140625 -1.375,1.296875 l -0.90625,0.84375 C 0.78125,-0.625 0.421875,-0.0625 0.421875,0.015625 c 0,0.09375 0.109375,0.09375 0.125,0.09375 0.078125,0 0.09375,-0.015625 0.15625,-0.125 0.234375,-0.359375 0.53125,-0.625 0.859375,-0.625 0.21875,0 0.328125,0.09375 0.578125,0.375 0.15625,0.21875 0.34375,0.375 0.625,0.375 1,0 1.578125,-1.265625 1.578125,-1.53125 0,-0.046875 -0.046875,-0.109375 -0.125,-0.109375 -0.09375,0 -0.109375,0.0625 -0.140625,0.140625 C 3.84375,-0.75 3.203125,-0.5625 2.875,-0.5625 c -0.1875,0 -0.375,-0.0625 -0.578125,-0.125 -0.34375,-0.125 -0.5,-0.171875 -0.703125,-0.171875 -0.015625,0 -0.171875,0 -0.265625,0.03125 z m 0,0"
             id="id-9957adcc-efff-4cc9-b401-c8860b3e5c26"
             style="stroke-width:0.303618" />
        </g>
      </g>
    </g>
    <g
       transform="matrix(1.122195,0,0,1.122195,38.863536,101.87159)"
       ns1:version="1.9.0"
       ns1:texconverter="pdflatex"
       ns1:pdfconverter="inkscape"
       ns1:text="$x$"
       ns1:preamble="/Users/sachchidanandprasad/Library/Application Support/org.inkscape.Inkscape/config/inkscape/extensions/inkscapeMadeEasy/basicLatexPackages.tex"
       ns1:scale="1.0"
       ns1:alignment="middle center"
       ns1:stroke-to-path="0"
       ns1:inkscapeversion="1.3"
       id="g2050"
       ns1:jacobian_sqrt="0.352778"
       style="stroke-width:0.314364">
      <defs
         id="id-4ba114ff-46ff-4d21-8526-f3d9b599a7c3">
        <g
           id="id-970e9abb-58d7-415a-b64a-7e6a7d1e5d0a">
          <g
             id="id-14cc5e6e-5268-465a-bb90-e12bc8c286ff">
            <path
               d="M 3.328125,-3.015625 C 3.390625,-3.265625 3.625,-4.1875 4.3125,-4.1875 c 0.046875,0 0.296875,0 0.5,0.125 C 4.53125,-4 4.34375,-3.765625 4.34375,-3.515625 c 0,0.15625 0.109375,0.34375 0.375,0.34375 0.21875,0 0.53125,-0.171875 0.53125,-0.578125 0,-0.515625 -0.578125,-0.65625 -0.921875,-0.65625 -0.578125,0 -0.921875,0.53125 -1.046875,0.75 -0.25,-0.65625 -0.78125,-0.75 -1.078125,-0.75 -1.03125,0 -1.609375,1.28125 -1.609375,1.53125 0,0.109375 0.109375,0.109375 0.125,0.109375 0.078125,0 0.109375,-0.03125 0.125,-0.109375 0.34375,-1.0625 1,-1.3125 1.34375,-1.3125 0.1875,0 0.53125,0.09375 0.53125,0.671875 0,0.3125 -0.171875,0.96875 -0.53125,2.375 -0.15625,0.609375 -0.515625,1.03125 -0.953125,1.03125 -0.0625,0 -0.28125,0 -0.5,-0.125 0.25,-0.0625 0.46875,-0.265625 0.46875,-0.546875 0,-0.265625 -0.21875,-0.34375 -0.359375,-0.34375 -0.3125,0 -0.546875,0.25 -0.546875,0.578125 0,0.453125 0.484375,0.65625 0.921875,0.65625 0.671875,0 1.03125,-0.703125 1.046875,-0.75 0.125,0.359375 0.484375,0.75 1.078125,0.75 1.03125,0 1.59375,-1.28125 1.59375,-1.53125 0,-0.109375 -0.078125,-0.109375 -0.109375,-0.109375 -0.09375,0 -0.109375,0.046875 -0.140625,0.109375 -0.328125,1.078125 -1,1.3125 -1.3125,1.3125 -0.390625,0 -0.546875,-0.3125 -0.546875,-0.65625 0,-0.21875 0.046875,-0.4375 0.15625,-0.875 z m 0,0"
               id="id-b60adc52-7a2b-46c3-b94d-194c2c400f3c" />
          </g>
        </g>
      </defs>
      <g
         fill="#000000"
         fill-opacity="1"
         id="id-33e38beb-ff22-42e8-852d-0b39a2802449"
         transform="translate(-149.009,-130.359)"
         style="stroke-width:0.314364">
        <g
           transform="translate(148.712,134.765)"
           id="g134"
           style="stroke-width:0.314364">
          <path
             d="M 3.328125,-3.015625 C 3.390625,-3.265625 3.625,-4.1875 4.3125,-4.1875 c 0.046875,0 0.296875,0 0.5,0.125 C 4.53125,-4 4.34375,-3.765625 4.34375,-3.515625 c 0,0.15625 0.109375,0.34375 0.375,0.34375 0.21875,0 0.53125,-0.171875 0.53125,-0.578125 0,-0.515625 -0.578125,-0.65625 -0.921875,-0.65625 -0.578125,0 -0.921875,0.53125 -1.046875,0.75 -0.25,-0.65625 -0.78125,-0.75 -1.078125,-0.75 -1.03125,0 -1.609375,1.28125 -1.609375,1.53125 0,0.109375 0.109375,0.109375 0.125,0.109375 0.078125,0 0.109375,-0.03125 0.125,-0.109375 0.34375,-1.0625 1,-1.3125 1.34375,-1.3125 0.1875,0 0.53125,0.09375 0.53125,0.671875 0,0.3125 -0.171875,0.96875 -0.53125,2.375 -0.15625,0.609375 -0.515625,1.03125 -0.953125,1.03125 -0.0625,0 -0.28125,0 -0.5,-0.125 0.25,-0.0625 0.46875,-0.265625 0.46875,-0.546875 0,-0.265625 -0.21875,-0.34375 -0.359375,-0.34375 -0.3125,0 -0.546875,0.25 -0.546875,0.578125 0,0.453125 0.484375,0.65625 0.921875,0.65625 0.671875,0 1.03125,-0.703125 1.046875,-0.75 0.125,0.359375 0.484375,0.75 1.078125,0.75 1.03125,0 1.59375,-1.28125 1.59375,-1.53125 0,-0.109375 -0.078125,-0.109375 -0.109375,-0.109375 -0.09375,0 -0.109375,0.046875 -0.140625,0.109375 -0.328125,1.078125 -1,1.3125 -1.3125,1.3125 -0.390625,0 -0.546875,-0.3125 -0.546875,-0.65625 0,-0.21875 0.046875,-0.4375 0.15625,-0.875 z m 0,0"
             id="id-ff65298f-edb6-43b2-89d6-ec49ac05b16d"
             style="stroke-width:0.314364" />
        </g>
      </g>
    </g>
    <g
       transform="matrix(1.1013667,0,0,1.1013667,75.701084,77.734769)"
       ns1:version="1.9.0"
       ns1:texconverter="pdflatex"
       ns1:pdfconverter="inkscape"
       ns1:text="$x'$"
       ns1:preamble="/Users/sachchidanandprasad/Library/Application Support/org.inkscape.Inkscape/config/inkscape/extensions/inkscapeMadeEasy/basicLatexPackages.tex"
       ns1:scale="1.0"
       ns1:alignment="middle center"
       ns1:stroke-to-path="0"
       ns1:inkscapeversion="1.3"
       id="g485"
       ns1:jacobian_sqrt="0.352778"
       style="stroke-width:0.320309">
      <defs
         id="id-1ac7abf4-ba02-4b56-99b0-bdfe5a691723">
        <g
           id="id-1619dae1-b6f8-4dde-88e4-190bbbc88357">
          <g
             id="id-f6d2b0fb-4850-4ffd-a0d2-6251746c2580">
            <path
               d="M 3.328125,-3.015625 C 3.390625,-3.265625 3.625,-4.1875 4.3125,-4.1875 c 0.046875,0 0.296875,0 0.5,0.125 C 4.53125,-4 4.34375,-3.765625 4.34375,-3.515625 c 0,0.15625 0.109375,0.34375 0.375,0.34375 0.21875,0 0.53125,-0.171875 0.53125,-0.578125 0,-0.515625 -0.578125,-0.65625 -0.921875,-0.65625 -0.578125,0 -0.921875,0.53125 -1.046875,0.75 -0.25,-0.65625 -0.78125,-0.75 -1.078125,-0.75 -1.03125,0 -1.609375,1.28125 -1.609375,1.53125 0,0.109375 0.109375,0.109375 0.125,0.109375 0.078125,0 0.109375,-0.03125 0.125,-0.109375 0.34375,-1.0625 1,-1.3125 1.34375,-1.3125 0.1875,0 0.53125,0.09375 0.53125,0.671875 0,0.3125 -0.171875,0.96875 -0.53125,2.375 -0.15625,0.609375 -0.515625,1.03125 -0.953125,1.03125 -0.0625,0 -0.28125,0 -0.5,-0.125 0.25,-0.0625 0.46875,-0.265625 0.46875,-0.546875 0,-0.265625 -0.21875,-0.34375 -0.359375,-0.34375 -0.3125,0 -0.546875,0.25 -0.546875,0.578125 0,0.453125 0.484375,0.65625 0.921875,0.65625 0.671875,0 1.03125,-0.703125 1.046875,-0.75 0.125,0.359375 0.484375,0.75 1.078125,0.75 1.03125,0 1.59375,-1.28125 1.59375,-1.53125 0,-0.109375 -0.078125,-0.109375 -0.109375,-0.109375 -0.09375,0 -0.109375,0.046875 -0.140625,0.109375 -0.328125,1.078125 -1,1.3125 -1.3125,1.3125 -0.390625,0 -0.546875,-0.3125 -0.546875,-0.65625 0,-0.21875 0.046875,-0.4375 0.15625,-0.875 z m 0,0"
               id="id-91dbac26-e0c2-4041-b983-0fc2e073d0bf" />
          </g>
          <g
             id="id-dc0e148a-f11c-42bc-816e-42d9cb27e62d">
            <path
               d="m 2.015625,-3.296875 c 0.0625,-0.109375 0.0625,-0.171875 0.0625,-0.21875 0,-0.21875 -0.1875,-0.375 -0.40625,-0.375 -0.265625,0 -0.34375,0.21875 -0.375,0.328125 L 0.375,-0.546875 c -0.015625,0.015625 -0.046875,0.09375 -0.046875,0.109375 0,0.078125 0.21875,0.15625 0.28125,0.15625 0.046875,0 0.046875,-0.015625 0.09375,-0.125 z m 0,0"
               id="id-e4de10a4-13df-40ef-87a7-f8abfa8ef957" />
          </g>
        </g>
      </defs>
      <g
         fill="#000000"
         fill-opacity="1"
         id="id-b3d86b4c-2fa6-4c9a-8e91-2c91433ff7bb"
         transform="translate(-149.009,-127.258)"
         style="stroke-width:0.320309">
        <g
           transform="translate(148.712,134.765)"
           id="g6656"
           style="stroke-width:0.320309">
          <path
             d="M 3.328125,-3.015625 C 3.390625,-3.265625 3.625,-4.1875 4.3125,-4.1875 c 0.046875,0 0.296875,0 0.5,0.125 C 4.53125,-4 4.34375,-3.765625 4.34375,-3.515625 c 0,0.15625 0.109375,0.34375 0.375,0.34375 0.21875,0 0.53125,-0.171875 0.53125,-0.578125 0,-0.515625 -0.578125,-0.65625 -0.921875,-0.65625 -0.578125,0 -0.921875,0.53125 -1.046875,0.75 -0.25,-0.65625 -0.78125,-0.75 -1.078125,-0.75 -1.03125,0 -1.609375,1.28125 -1.609375,1.53125 0,0.109375 0.109375,0.109375 0.125,0.109375 0.078125,0 0.109375,-0.03125 0.125,-0.109375 0.34375,-1.0625 1,-1.3125 1.34375,-1.3125 0.1875,0 0.53125,0.09375 0.53125,0.671875 0,0.3125 -0.171875,0.96875 -0.53125,2.375 -0.15625,0.609375 -0.515625,1.03125 -0.953125,1.03125 -0.0625,0 -0.28125,0 -0.5,-0.125 0.25,-0.0625 0.46875,-0.265625 0.46875,-0.546875 0,-0.265625 -0.21875,-0.34375 -0.359375,-0.34375 -0.3125,0 -0.546875,0.25 -0.546875,0.578125 0,0.453125 0.484375,0.65625 0.921875,0.65625 0.671875,0 1.03125,-0.703125 1.046875,-0.75 0.125,0.359375 0.484375,0.75 1.078125,0.75 1.03125,0 1.59375,-1.28125 1.59375,-1.53125 0,-0.109375 -0.078125,-0.109375 -0.109375,-0.109375 -0.09375,0 -0.109375,0.046875 -0.140625,0.109375 -0.328125,1.078125 -1,1.3125 -1.3125,1.3125 -0.390625,0 -0.546875,-0.3125 -0.546875,-0.65625 0,-0.21875 0.046875,-0.4375 0.15625,-0.875 z m 0,0"
             id="id-5de99908-a874-48cb-a116-9c4b80fd19d9"
             style="stroke-width:0.320309" />
        </g>
      </g>
      <g
         fill="#000000"
         fill-opacity="1"
         id="id-c769899c-f8f3-4e4c-b6e0-4adbc3340fae"
         transform="translate(-149.009,-127.258)"
         style="stroke-width:0.320309">
        <g
           transform="translate(154.406,131.149)"
           id="g5903"
           style="stroke-width:0.320309">
          <path
             d="m 2.015625,-3.296875 c 0.0625,-0.109375 0.0625,-0.171875 0.0625,-0.21875 0,-0.21875 -0.1875,-0.375 -0.40625,-0.375 -0.265625,0 -0.34375,0.21875 -0.375,0.328125 L 0.375,-0.546875 c -0.015625,0.015625 -0.046875,0.09375 -0.046875,0.109375 0,0.078125 0.21875,0.15625 0.28125,0.15625 0.046875,0 0.046875,-0.015625 0.09375,-0.125 z m 0,0"
             id="id-509ead71-9972-4fe7-a05e-0cf16784d433"
             style="stroke-width:0.320309" />
        </g>
      </g>
    </g>
    <path
       style="font-variation-settings:normal;opacity:1;fill:none;fill-opacity:0.356522;stroke:#000000;stroke-width:0.5;stroke-linecap:square;stroke-linejoin:miter;stroke-miterlimit:4;stroke-dasharray:none;stroke-dashoffset:0;stroke-opacity:1;paint-order:normal"
       d="m 77.709098,88.802778 -30.65249,15.395462 63.740112,-0.31422 z"
       id="path8" />
    <circle
       id="path7"
       style="fill:#ff0000;stroke:none;stroke-width:0.264583"
       cx="47.05661"
       cy="104.19824"
       r="1.3712357" />
    <circle
       id="circle7"
       style="fill:#ff0000;stroke:none;stroke-width:0.264583"
       cx="110.79672"
       cy="103.88403"
       r="1.3712357" />
    <circle
       id="circle8"
       style="fill:#ff0000;stroke:none;stroke-width:0.264583"
       cx="77.709099"
       cy="88.80278"
       r="1.3712357" />
    <g
       transform="matrix(0.94924657,0,0,0.94924657,31.727059,55.030463)"
       ns1:version="1.9.0"
       ns1:texconverter="pdflatex"
       ns1:pdfconverter="inkscape"
       ns1:text="$B_x$"
       ns1:preamble="/Users/sachchidanandprasad/Library/Application Support/org.inkscape.Inkscape/config/inkscape/extensions/inkscapeMadeEasy/basicLatexPackages.tex"
       ns1:scale="1.0"
       ns1:alignment="middle center"
       ns1:stroke-to-path="0"
       ns1:inkscapeversion="1.3"
       id="g129"
       ns1:jacobian_sqrt="0.352778"
       style="stroke-width:0.37164">
      <defs
         id="id-d20b6eb1-f0dd-401a-9098-65b730e91ef3">
        <g
           id="id-91f319b9-fcad-4413-a31b-941a7131708d">
          <g
             id="id-f25a1d6b-3446-4bd9-bba1-41a9a30b5b35">
            <path
               d="M 1.59375,-0.78125 C 1.5,-0.390625 1.46875,-0.3125 0.6875,-0.3125 c -0.171875,0 -0.265625,0 -0.265625,0.203125 C 0.421875,0 0.515625,0 0.6875,0 H 4.25 C 5.828125,0 7,-1.171875 7,-2.15625 7,-2.875 6.421875,-3.453125 5.453125,-3.5625 6.484375,-3.75 7.53125,-4.484375 7.53125,-5.4375 c 0,-0.734375 -0.65625,-1.375 -1.84375,-1.375 H 2.328125 c -0.1875,0 -0.28125,0 -0.28125,0.203125 0,0.109375 0.09375,0.109375 0.28125,0.109375 0.015625,0 0.203125,0 0.375,0.015625 0.171875,0.03125 0.265625,0.03125 0.265625,0.171875 0,0.03125 -0.015625,0.0625 -0.03125,0.1875 z m 1.5,-2.875 0.625,-2.46875 C 3.8125,-6.46875 3.828125,-6.5 4.25,-6.5 h 1.296875 c 0.875,0 1.078125,0.59375 1.078125,1.03125 0,0.875 -0.859375,1.8125 -2.0625,1.8125 z m -0.4375,3.34375 c -0.140625,0 -0.15625,0 -0.21875,0 -0.109375,-0.015625 -0.140625,-0.03125 -0.140625,-0.109375 0,-0.03125 0,-0.046875 0.0625,-0.21875 l 0.6875,-2.78125 h 1.875 c 0.953125,0 1.15625,0.734375 1.15625,1.15625 C 6.078125,-1.28125 5.1875,-0.3125 4,-0.3125 Z m 0,0"
               id="id-2d861a17-2098-4cce-9cd4-2c3f37888950" />
          </g>
          <g
             id="id-a297c470-39bc-4b92-8de3-407ecb1eaeac">
            <path
               d="M 1.734375,-0.734375 C 1.671875,-0.5 1.4375,-0.125 1.078125,-0.125 c -0.015625,0 -0.234375,0 -0.375,-0.09375 0.28125,-0.09375 0.3125,-0.34375 0.3125,-0.390625 0,-0.15625 -0.125,-0.25 -0.28125,-0.25 -0.203125,0 -0.40625,0.15625 -0.40625,0.421875 0,0.34375 0.390625,0.5 0.734375,0.5 0.328125,0 0.609375,-0.1875 0.78125,-0.484375 C 2.015625,-0.0625 2.390625,0.0625 2.671875,0.0625 c 0.8125,0 1.234375,-0.859375 1.234375,-1.0625 0,-0.09375 -0.09375,-0.09375 -0.109375,-0.09375 -0.109375,0 -0.109375,0.046875 -0.140625,0.125 -0.140625,0.484375 -0.5625,0.84375 -0.953125,0.84375 -0.28125,0 -0.421875,-0.1875 -0.421875,-0.453125 0,-0.1875 0.171875,-0.8125 0.359375,-1.59375 C 2.78125,-2.703125 3.09375,-2.875 3.328125,-2.875 c 0.015625,0 0.21875,0 0.375,0.09375 -0.21875,0.0625 -0.3125,0.265625 -0.3125,0.390625 0,0.140625 0.125,0.25 0.28125,0.25 0.15625,0 0.390625,-0.125 0.390625,-0.421875 0,-0.390625 -0.453125,-0.515625 -0.71875,-0.515625 -0.359375,0 -0.640625,0.234375 -0.78125,0.5 -0.125,-0.28125 -0.453125,-0.5 -0.84375,-0.5 C 0.9375,-3.078125 0.5,-2.21875 0.5,-2 c 0,0.078125 0.09375,0.078125 0.109375,0.078125 0.09375,0 0.09375,-0.015625 0.140625,-0.109375 C 0.921875,-2.578125 1.359375,-2.875 1.703125,-2.875 1.9375,-2.875 2.125,-2.75 2.125,-2.421875 2.125,-2.28125 2.03125,-1.9375 1.96875,-1.6875 Z m 0,0"
               id="id-002fddbc-e847-4808-bd21-4386d16a0427" />
          </g>
        </g>
      </defs>
      <g
         fill="#000000"
         fill-opacity="1"
         id="id-d53c8e3a-acbc-451f-8c54-25993ef18c8c"
         transform="translate(-149.134,-127.953)"
         style="stroke-width:0.37164">
        <g
           transform="translate(148.712,134.765)"
           id="g5000"
           style="stroke-width:0.37164">
          <path
             d="M 1.59375,-0.78125 C 1.5,-0.390625 1.46875,-0.3125 0.6875,-0.3125 c -0.171875,0 -0.265625,0 -0.265625,0.203125 C 0.421875,0 0.515625,0 0.6875,0 H 4.25 C 5.828125,0 7,-1.171875 7,-2.15625 7,-2.875 6.421875,-3.453125 5.453125,-3.5625 6.484375,-3.75 7.53125,-4.484375 7.53125,-5.4375 c 0,-0.734375 -0.65625,-1.375 -1.84375,-1.375 H 2.328125 c -0.1875,0 -0.28125,0 -0.28125,0.203125 0,0.109375 0.09375,0.109375 0.28125,0.109375 0.015625,0 0.203125,0 0.375,0.015625 0.171875,0.03125 0.265625,0.03125 0.265625,0.171875 0,0.03125 -0.015625,0.0625 -0.03125,0.1875 z m 1.5,-2.875 0.625,-2.46875 C 3.8125,-6.46875 3.828125,-6.5 4.25,-6.5 h 1.296875 c 0.875,0 1.078125,0.59375 1.078125,1.03125 0,0.875 -0.859375,1.8125 -2.0625,1.8125 z m -0.4375,3.34375 c -0.140625,0 -0.15625,0 -0.21875,0 -0.109375,-0.015625 -0.140625,-0.03125 -0.140625,-0.109375 0,-0.03125 0,-0.046875 0.0625,-0.21875 l 0.6875,-2.78125 h 1.875 c 0.953125,0 1.15625,0.734375 1.15625,1.15625 C 6.078125,-1.28125 5.1875,-0.3125 4,-0.3125 Z m 0,0"
             id="id-ab1126bb-a44a-4e72-af73-a3078572c66c"
             style="stroke-width:0.37164" />
        </g>
      </g>
      <g
         fill="#000000"
         fill-opacity="1"
         id="id-ed0ac3a3-075b-4095-96cd-5b11422ddc21"
         transform="translate(-149.134,-127.953)"
         style="stroke-width:0.37164">
        <g
           transform="translate(156.269,136.259)"
           id="g4565"
           style="stroke-width:0.37164">
          <path
             d="M 1.734375,-0.734375 C 1.671875,-0.5 1.4375,-0.125 1.078125,-0.125 c -0.015625,0 -0.234375,0 -0.375,-0.09375 0.28125,-0.09375 0.3125,-0.34375 0.3125,-0.390625 0,-0.15625 -0.125,-0.25 -0.28125,-0.25 -0.203125,0 -0.40625,0.15625 -0.40625,0.421875 0,0.34375 0.390625,0.5 0.734375,0.5 0.328125,0 0.609375,-0.1875 0.78125,-0.484375 C 2.015625,-0.0625 2.390625,0.0625 2.671875,0.0625 c 0.8125,0 1.234375,-0.859375 1.234375,-1.0625 0,-0.09375 -0.09375,-0.09375 -0.109375,-0.09375 -0.109375,0 -0.109375,0.046875 -0.140625,0.125 -0.140625,0.484375 -0.5625,0.84375 -0.953125,0.84375 -0.28125,0 -0.421875,-0.1875 -0.421875,-0.453125 0,-0.1875 0.171875,-0.8125 0.359375,-1.59375 C 2.78125,-2.703125 3.09375,-2.875 3.328125,-2.875 c 0.015625,0 0.21875,0 0.375,0.09375 -0.21875,0.0625 -0.3125,0.265625 -0.3125,0.390625 0,0.140625 0.125,0.25 0.28125,0.25 0.15625,0 0.390625,-0.125 0.390625,-0.421875 0,-0.390625 -0.453125,-0.515625 -0.71875,-0.515625 -0.359375,0 -0.640625,0.234375 -0.78125,0.5 -0.125,-0.28125 -0.453125,-0.5 -0.84375,-0.5 C 0.9375,-3.078125 0.5,-2.21875 0.5,-2 c 0,0.078125 0.09375,0.078125 0.109375,0.078125 0.09375,0 0.09375,-0.015625 0.140625,-0.109375 C 0.921875,-2.578125 1.359375,-2.875 1.703125,-2.875 1.9375,-2.875 2.125,-2.75 2.125,-2.421875 2.125,-2.28125 2.03125,-1.9375 1.96875,-1.6875 Z m 0,0"
             id="id-794e8282-0d47-4c1c-a4ff-7bd73b85fd42"
             style="stroke-width:0.37164" />
        </g>
      </g>
    </g>
    <g
       transform="matrix(0.94924657,0,0,0.94924657,119.19465,56.088795)"
       ns1:version="1.9.0"
       ns1:texconverter="pdflatex"
       ns1:pdfconverter="inkscape"
       ns1:text="$U_z$"
       ns1:preamble="/Users/sachchidanandprasad/Library/Application Support/org.inkscape.Inkscape/config/inkscape/extensions/inkscapeMadeEasy/basicLatexPackages.tex"
       ns1:scale="1.0"
       ns1:alignment="middle center"
       ns1:stroke-to-path="0"
       ns1:inkscapeversion="1.3"
       id="g5924"
       ns1:jacobian_sqrt="0.352778"
       style="stroke-width:0.37164">
      <defs
         id="id-e3065556-05c5-46c9-b497-79b47c89aa45">
        <g
           id="id-dfee09d1-871f-4058-9b78-5369093c5fe5">
          <g
             id="id-c4031e36-563e-4bac-b5eb-6cac4897083d">
            <path
               d="M 6.328125,-5.765625 C 6.4375,-6.171875 6.609375,-6.46875 7.40625,-6.5 c 0.046875,0 0.171875,-0.015625 0.171875,-0.203125 0,0 0,-0.109375 -0.125,-0.109375 -0.328125,0 -0.6875,0.03125 -1.015625,0.03125 -0.34375,0 -0.71875,-0.03125 -1.046875,-0.03125 -0.0625,0 -0.171875,0 -0.171875,0.203125 C 5.21875,-6.5 5.3125,-6.5 5.390625,-6.5 c 0.578125,0.015625 0.6875,0.21875 0.6875,0.4375 0,0.03125 -0.03125,0.1875 -0.03125,0.203125 l -0.90625,3.5625 C 4.8125,-0.953125 3.65625,-0.09375 2.65625,-0.09375 c -0.671875,0 -1.203125,-0.4375 -1.203125,-1.296875 0,-0.015625 0,-0.328125 0.109375,-0.765625 L 2.515625,-6.046875 C 2.609375,-6.40625 2.625,-6.5 3.359375,-6.5 c 0.265625,0 0.34375,0 0.34375,-0.203125 0,-0.109375 -0.109375,-0.109375 -0.140625,-0.109375 -0.28125,0 -1,0.03125 -1.28125,0.03125 -0.28125,0 -1,-0.03125 -1.28125,-0.03125 -0.078125,0 -0.1875,0 -0.1875,0.203125 C 0.8125,-6.5 0.890625,-6.5 1.09375,-6.5 c 0.015625,0 0.203125,0 0.375,0.015625 0.171875,0.03125 0.265625,0.03125 0.265625,0.171875 0,0.046875 -0.109375,0.46875 -0.171875,0.703125 l -0.21875,0.875 C 1.25,-4.34375 0.78125,-2.46875 0.734375,-2.265625 0.671875,-2 0.671875,-1.84375 0.671875,-1.6875 c 0,1.203125 0.90625,1.90625 1.953125,1.90625 1.25,0 2.484375,-1.125 2.8125,-2.4375 z m 0,0"
               id="id-f903f49b-390c-4075-98d0-008abc1f77d1" />
          </g>
          <g
             id="id-31ac4f0c-183f-4b5b-b095-5eb5a1235064">
            <path
               d="m 1.171875,-0.609375 c 0.1875,-0.1875 0.3125,-0.3125 0.890625,-0.796875 0.15625,-0.109375 0.671875,-0.53125 0.875,-0.71875 0.421875,-0.421875 0.6875,-0.78125 0.6875,-0.859375 0,-0.09375 -0.078125,-0.09375 -0.109375,-0.09375 -0.0625,0 -0.09375,0.015625 -0.125,0.078125 -0.21875,0.3125 -0.359375,0.421875 -0.53125,0.421875 -0.078125,0 -0.1875,0 -0.390625,-0.203125 -0.234375,-0.25 -0.390625,-0.296875 -0.546875,-0.296875 -0.5625,0 -0.9375,0.609375 -0.9375,0.8125 0,0.078125 0.0625,0.09375 0.109375,0.09375 0.09375,0 0.109375,-0.015625 0.125,-0.09375 0.109375,-0.25 0.5,-0.265625 0.609375,-0.265625 0.171875,0 0.34375,0.046875 0.4375,0.0625 0.390625,0.078125 0.4375,0.078125 0.609375,0.078125 -0.171875,0.203125 -0.296875,0.328125 -0.96875,0.84375 -0.546875,0.4375 -0.734375,0.609375 -0.859375,0.75 -0.421875,0.40625 -0.625,0.71875 -0.625,0.78125 0,0.078125 0.09375,0.078125 0.125,0.078125 0.0625,0 0.078125,0 0.109375,-0.0625 0.1875,-0.265625 0.40625,-0.421875 0.640625,-0.421875 0.09375,0 0.1875,0 0.375,0.171875 0.21875,0.21875 0.359375,0.3125 0.59375,0.3125 C 3,0.0625 3.46875,-0.78125 3.46875,-1.015625 3.46875,-1.09375 3.390625,-1.09375 3.359375,-1.09375 3.265625,-1.09375 3.25,-1.0625 3.21875,-0.984375 3.09375,-0.640625 2.6875,-0.46875 2.34375,-0.46875 2.1875,-0.46875 2,-0.515625 1.828125,-0.546875 1.515625,-0.625 1.453125,-0.625 1.328125,-0.625 c -0.015625,0 -0.109375,0 -0.15625,0.015625 z m 0,0"
               id="id-389edc5c-5385-412c-87c4-2370438b0586" />
          </g>
        </g>
      </defs>
      <g
         fill="#000000"
         fill-opacity="1"
         id="id-31b1a524-7fa3-4171-a59a-611533616698"
         transform="translate(-149.384,-127.953)"
         style="stroke-width:0.37164">
        <g
           transform="translate(148.712,134.765)"
           id="g2455"
           style="stroke-width:0.37164">
          <path
             d="M 6.328125,-5.765625 C 6.4375,-6.171875 6.609375,-6.46875 7.40625,-6.5 c 0.046875,0 0.171875,-0.015625 0.171875,-0.203125 0,0 0,-0.109375 -0.125,-0.109375 -0.328125,0 -0.6875,0.03125 -1.015625,0.03125 -0.34375,0 -0.71875,-0.03125 -1.046875,-0.03125 -0.0625,0 -0.171875,0 -0.171875,0.203125 C 5.21875,-6.5 5.3125,-6.5 5.390625,-6.5 c 0.578125,0.015625 0.6875,0.21875 0.6875,0.4375 0,0.03125 -0.03125,0.1875 -0.03125,0.203125 l -0.90625,3.5625 C 4.8125,-0.953125 3.65625,-0.09375 2.65625,-0.09375 c -0.671875,0 -1.203125,-0.4375 -1.203125,-1.296875 0,-0.015625 0,-0.328125 0.109375,-0.765625 L 2.515625,-6.046875 C 2.609375,-6.40625 2.625,-6.5 3.359375,-6.5 c 0.265625,0 0.34375,0 0.34375,-0.203125 0,-0.109375 -0.109375,-0.109375 -0.140625,-0.109375 -0.28125,0 -1,0.03125 -1.28125,0.03125 -0.28125,0 -1,-0.03125 -1.28125,-0.03125 -0.078125,0 -0.1875,0 -0.1875,0.203125 C 0.8125,-6.5 0.890625,-6.5 1.09375,-6.5 c 0.015625,0 0.203125,0 0.375,0.015625 0.171875,0.03125 0.265625,0.03125 0.265625,0.171875 0,0.046875 -0.109375,0.46875 -0.171875,0.703125 l -0.21875,0.875 C 1.25,-4.34375 0.78125,-2.46875 0.734375,-2.265625 0.671875,-2 0.671875,-1.84375 0.671875,-1.6875 c 0,1.203125 0.90625,1.90625 1.953125,1.90625 1.25,0 2.484375,-1.125 2.8125,-2.4375 z m 0,0"
             id="id-88415229-362a-4c81-b9de-1c3e6b67f220"
             style="stroke-width:0.37164" />
        </g>
      </g>
      <g
         fill="#000000"
         fill-opacity="1"
         id="id-207da99d-cde1-4a6b-9fa3-fdcac5f3ca9e"
         transform="translate(-149.384,-127.953)"
         style="stroke-width:0.37164">
        <g
           transform="translate(155.515,136.259)"
           id="g580"
           style="stroke-width:0.37164">
          <path
             d="m 1.171875,-0.609375 c 0.1875,-0.1875 0.3125,-0.3125 0.890625,-0.796875 0.15625,-0.109375 0.671875,-0.53125 0.875,-0.71875 0.421875,-0.421875 0.6875,-0.78125 0.6875,-0.859375 0,-0.09375 -0.078125,-0.09375 -0.109375,-0.09375 -0.0625,0 -0.09375,0.015625 -0.125,0.078125 -0.21875,0.3125 -0.359375,0.421875 -0.53125,0.421875 -0.078125,0 -0.1875,0 -0.390625,-0.203125 -0.234375,-0.25 -0.390625,-0.296875 -0.546875,-0.296875 -0.5625,0 -0.9375,0.609375 -0.9375,0.8125 0,0.078125 0.0625,0.09375 0.109375,0.09375 0.09375,0 0.109375,-0.015625 0.125,-0.09375 0.109375,-0.25 0.5,-0.265625 0.609375,-0.265625 0.171875,0 0.34375,0.046875 0.4375,0.0625 0.390625,0.078125 0.4375,0.078125 0.609375,0.078125 -0.171875,0.203125 -0.296875,0.328125 -0.96875,0.84375 -0.546875,0.4375 -0.734375,0.609375 -0.859375,0.75 -0.421875,0.40625 -0.625,0.71875 -0.625,0.78125 0,0.078125 0.09375,0.078125 0.125,0.078125 0.0625,0 0.078125,0 0.109375,-0.0625 0.1875,-0.265625 0.40625,-0.421875 0.640625,-0.421875 0.09375,0 0.1875,0 0.375,0.171875 0.21875,0.21875 0.359375,0.3125 0.59375,0.3125 C 3,0.0625 3.46875,-0.78125 3.46875,-1.015625 3.46875,-1.09375 3.390625,-1.09375 3.359375,-1.09375 3.265625,-1.09375 3.25,-1.0625 3.21875,-0.984375 3.09375,-0.640625 2.6875,-0.46875 2.34375,-0.46875 2.1875,-0.46875 2,-0.515625 1.828125,-0.546875 1.515625,-0.625 1.453125,-0.625 1.328125,-0.625 c -0.015625,0 -0.109375,0 -0.15625,0.015625 z m 0,0"
             id="id-17614be2-55d1-4aa6-9752-d0b2090fee86"
             style="stroke-width:0.37164" />
        </g>
      </g>
    </g>
  </g>
</svg>
