<?xml version="1.0" encoding="UTF-8" standalone="no"?>
<!-- Created with Inkscape (http://www.inkscape.org/) -->

<svg
   width="66.94397mm"
   height="65.639694mm"
   viewBox="0 0 66.94397 65.639694"
   version="1.1"
   id="svg2778"
   inkscape:version="1.2.2 (1:1.2.2+202305151914+b0a8486541)"
   sodipodi:docname="prob-17-07-23_02.svg"
   xmlns:inkscape="http://www.inkscape.org/namespaces/inkscape"
   xmlns:sodipodi="http://sodipodi.sourceforge.net/DTD/sodipodi-0.dtd"
   xmlns="http://www.w3.org/2000/svg"
   xmlns:svg="http://www.w3.org/2000/svg">
  <sodipodi:namedview
     id="namedview2780"
     pagecolor="#ffffff"
     bordercolor="#999999"
     borderopacity="1"
     inkscape:showpageshadow="0"
     inkscape:pageopacity="0"
     inkscape:pagecheckerboard="0"
     inkscape:deskcolor="#d1d1d1"
     inkscape:document-units="mm"
     showgrid="false"
     inkscape:zoom="2"
     inkscape:cx="219.75"
     inkscape:cy="95.25"
     inkscape:window-width="1920"
     inkscape:window-height="1012"
     inkscape:window-x="0"
     inkscape:window-y="32"
     inkscape:window-maximized="1"
     inkscape:current-layer="layer1"
     showguides="true">
    <inkscape:grid
       type="xygrid"
       id="grid630"
       originx="-23.890278"
       originy="3.5962652e-05" />
  </sodipodi:namedview>
  <defs
     id="defs2775">
    <clipPath
       id="clipPath7480">
      <path
         d="M 0,3 H 9 V 14.445312 H 0 Z m 0,0"
         id="path5921" />
    </clipPath>
    <clipPath
       id="clipPath5743">
      <path
         d="M 0,3 H 9 V 14.445312 H 0 Z m 0,0"
         id="path4818" />
    </clipPath>
    <clipPath
       id="clipPath7190">
      <path
         d="M 0,0 H 7.894531 V 11.097656 H 0 Z m 0,0"
         id="path5760" />
    </clipPath>
    <clipPath
       id="clipPath2546">
      <path
         d="m 11,0 h 5 v 17.214844 h -5 z m 0,0"
         id="path2396" />
    </clipPath>
    <clipPath
       id="clipPath5153">
      <path
         d="m 26,0 h 5 v 17.214844 h -5 z m 0,0"
         id="path6264" />
    </clipPath>
    <clipPath
       id="clipPath2465">
      <path
         d="m 55,0 h 2 v 17.214844 h -2 z m 0,0"
         id="path2438" />
    </clipPath>
    <clipPath
       id="clipPath4448">
      <path
         d="m 99,0 h 1 v 17.214844 h -1 z m 0,0"
         id="path8832" />
    </clipPath>
  </defs>
  <g
     inkscape:label="Layer 1"
     inkscape:groupmode="layer"
     id="layer1"
     transform="translate(-86.019, -82.4822)">
    <g
       id="path3625"
       style="fill:#808080;stroke-width:1.17636"
       transform="matrix(1,0,0,0.72263155,0,22.87795)">
      <path
         style="color:#000000;fill:#808080;stroke-width:1.17636;-inkscape-stroke:none"
         d="m 106.58008,84.148437 v 89.167973 h 0.26367 V 84.148437 Z"
         id="path4122" />
      <g
         id="g4116"
         style="fill:#808080;stroke-width:1.17636">
        <path
           d="m 105.97155,84.519453 0.74083,-2.037289 0.74083,2.037289 c -0.43153,-0.370416 -1.04828,-0.370416 -1.48166,0 z"
           style="fill:#808080;fill-rule:evenodd;stroke-width:0.217872"
           id="path4118" />
      </g>
    </g>
    <g
       id="path3627"
       style="fill:#808080;stroke-width:1.09823"
       transform="matrix(0.73699204,0,0,1.1249985,40.230468,-16.091403)">
      <path
         style="color:#000000;fill:#808080;stroke-width:1.09823;-inkscape-stroke:none"
         d="m 62.128906,128.59961 v 0.26562 h 89.167964 v -0.26562 z"
         id="path4106" />
      <g
         id="g4100"
         style="fill:#808080;stroke-width:1.09823">
        <path
           d="m 150.92566,127.9919 2.03729,0.74083 -2.03729,0.74083 c 0.37042,-0.43153 0.37042,-1.04828 0,-1.48166 z"
           style="fill:#808080;fill-rule:evenodd;stroke-width:0.203401"
           id="path4102" />
      </g>
    </g>
    <path
       style="fill:none;stroke:#000000;stroke-width:0.264583px;stroke-linecap:butt;stroke-linejoin:miter;stroke-dasharray:0.529166, 1.5875;stroke-dashoffset:0;stroke-opacity:1"
       d="M 133.30707,96.301429 V 141.8967"
       id="path699"
       sodipodi:nodetypes="cc" />
    <g
       inkscape:label=""
       transform="matrix(0.65728738,0,0,0.65728738,134.4313,129.5017)"
       id="g2478"
       style="stroke-width:1.5214">
      <g
         id="g2476"
         transform="matrix(0.352778,0,0,0.352778,-0.248047,0.0980722)"
         style="stroke-width:1.5214">
        <g
           clip-path="url(#clipPath7190)"
           clip-rule="nonzero"
           id="g19"
           style="stroke-width:2.31467">
          <g
             style="fill:#000000;fill-opacity:1;stroke-width:1.5214"
             id="g17">
            <g
               id="use15"
               transform="translate(0,11.097)"
               style="stroke-width:1.5214">
              <path
                 style="stroke:none;stroke-width:1.5214"
                 d="M 7.1875,-2.671875 H 6.875 c -0.171875,1.21875 -0.3125,1.4375 -0.390625,1.53125 C 6.40625,-1 5.171875,-1 4.921875,-1 H 1.625 c 0.609375,-0.671875 1.8125,-1.890625 3.28125,-3.3125 1.046875,-0.984375 2.28125,-2.15625 2.28125,-3.859375 0,-2.03125 -1.625,-3.203125 -3.4375,-3.203125 -1.890625,0 -3.046875,1.65625 -3.046875,3.21875 0,0.671875 0.5,0.75 0.703125,0.75 0.171875,0 0.6875,-0.09375 0.6875,-0.703125 0,-0.53125 -0.4375,-0.6875 -0.6875,-0.6875 -0.09375,0 -0.203125,0.015625 -0.265625,0.046875 0.328125,-1.453125 1.328125,-2.1875 2.375,-2.1875 1.5,0 2.46875,1.1875 2.46875,2.765625 0,1.484375 -0.875,2.78125 -1.859375,3.90625 l -3.421875,3.875 V 0 h 6.0625 z m 0,0"
                 id="path26" />
            </g>
          </g>
        </g>
      </g>
    </g>
    <circle
       id="circle2854"
       style="fill:#000000;stroke:none;stroke-width:0.264583"
       cx="133.30707"
       cy="128.58296"
       r="1.25" />
    <path
       style="fill:none;stroke:#0000ff;stroke-width:0.5;stroke-linecap:butt;stroke-linejoin:miter;stroke-opacity:1"
       d="m 86.926774,95.44081 16.443386,16.29638 17.00144,16.79157 12.95686,-12.89888"
       id="path3143"
       sodipodi:nodetypes="cccc" />
    <path
       style="font-variation-settings:normal;opacity:1;vector-effect:none;fill:none;fill-opacity:1;stroke:#0000ff;stroke-width:0.5;stroke-linecap:butt;stroke-linejoin:miter;stroke-miterlimit:4;stroke-dasharray:none;stroke-dashoffset:0;stroke-opacity:1;-inkscape-stroke:none;stop-color:#000000;stop-opacity:1"
       d="M 133.30707,115.65117 151.91863,96.701853"
       id="path3214" />
    <g
       inkscape:label=""
       transform="translate(112.89097,83.950537)"
       id="g7069">
      <g
         id="surface1"
         transform="matrix(0.352778,0,0,0.352778,-0.308681,0.00383637)">
        <g
           style="fill:#000000;fill-opacity:1"
           id="g53">
          <g
             id="use51"
             transform="translate(0,12.911)">
            <path
               style="stroke:none"
               d="m 7.671875,-6.921875 c 0.359375,0 0.484375,0 0.484375,-0.328125 0,-0.171875 -0.125,-0.171875 -0.4375,-0.171875 H 6.3125 c 0.328125,-1.765625 0.578125,-3 0.71875,-3.546875 0.09375,-0.40625 0.453125,-0.8125 0.90625,-0.8125 0.359375,0 0.71875,0.15625 0.890625,0.3125 -0.671875,0.0625 -0.875,0.5625 -0.875,0.859375 0,0.34375 0.265625,0.546875 0.59375,0.546875 0.34375,0 0.859375,-0.28125 0.859375,-0.9375 0,-0.71875 -0.734375,-1.125 -1.484375,-1.125 -0.734375,0 -1.46875,0.546875 -1.8125,1.21875 -0.3125,0.609375 -0.484375,1.234375 -0.875,3.484375 h -1.15625 c -0.328125,0 -0.5,0 -0.5,0.3125 0,0.1875 0.109375,0.1875 0.453125,0.1875 H 5.125 c -0.296875,1.59375 -1.015625,5.5 -1.40625,7.328125 -0.296875,1.5 -0.546875,2.765625 -1.40625,2.765625 -0.0625,0 -0.5625,0 -0.859375,-0.328125 0.875,-0.078125 0.875,-0.828125 0.875,-0.84375 0,-0.34375 -0.265625,-0.546875 -0.59375,-0.546875 -0.34375,0 -0.859375,0.28125 -0.859375,0.9375 0,0.75 0.765625,1.125 1.4375,1.125 1.75,0 2.46875,-3.15625 2.65625,-4.015625 0.3125,-1.328125 1.15625,-5.90625 1.25,-6.421875 z m 0,0"
               id="path104" />
          </g>
        </g>
        <g
           clip-path="url(#clipPath2546)"
           clip-rule="nonzero"
           id="g59">
          <g
             style="fill:#000000;fill-opacity:1"
             id="g57">
            <g
               id="use55"
               transform="translate(10.147,12.911)">
              <path
                 style="stroke:none"
                 d="m 5.265625,4.203125 c 0,-0.015625 0,-0.046875 -0.046875,-0.109375 -0.796875,-0.8125 -2.90625,-3.015625 -2.90625,-8.375 0,-5.375 2.078125,-7.5625 2.921875,-8.421875 0,-0.01563 0.03125,-0.0625 0.03125,-0.109375 0,-0.04687 -0.046875,-0.07813 -0.125,-0.07813 -0.1875,0 -1.640625,1.265625 -2.484375,3.15625 -0.859375,1.921875 -1.109375,3.78125 -1.109375,5.421875 0,1.25 0.125,3.34375 1.15625,5.5625 0.828125,1.796875 2.234375,3.0625 2.4375,3.0625 0.09375,0 0.125,-0.046875 0.125,-0.109375 z m 0,0"
                 id="path108" />
            </g>
          </g>
        </g>
        <g
           style="fill:#000000;fill-opacity:1"
           id="g63">
          <g
             id="use61"
             transform="translate(16.243,12.911)">
            <path
               style="stroke:none"
               d="m 8.15625,-7.03125 c -0.546875,0.109375 -0.75,0.515625 -0.75,0.84375 0,0.421875 0.328125,0.5625 0.5625,0.5625 0.515625,0 0.875,-0.453125 0.875,-0.921875 0,-0.71875 -0.8125,-1.046875 -1.546875,-1.046875 -1.046875,0 -1.625,1.03125 -1.78125,1.359375 -0.40625,-1.296875 -1.46875,-1.359375 -1.78125,-1.359375 -1.75,0 -2.6875,2.25 -2.6875,2.640625 0,0.0625 0.078125,0.15625 0.1875,0.15625 0.140625,0 0.171875,-0.109375 0.21875,-0.171875 C 2.03125,-6.890625 3.1875,-7.25 3.6875,-7.25 c 0.765625,0 0.921875,0.71875 0.921875,1.140625 0,0.375 -0.09375,0.765625 -0.296875,1.59375 L 3.71875,-2.15625 c -0.25,1.03125 -0.75,1.984375 -1.671875,1.984375 -0.078125,0 -0.515625,0 -0.875,-0.21875 0.625,-0.125 0.75,-0.640625 0.75,-0.84375 0,-0.34375 -0.25,-0.5625 -0.578125,-0.5625 -0.40625,0 -0.859375,0.375 -0.859375,0.921875 0,0.71875 0.8125,1.046875 1.546875,1.046875 0.828125,0 1.40625,-0.65625 1.78125,-1.359375 0.265625,1.015625 1.125,1.359375 1.765625,1.359375 1.75,0 2.6875,-2.25 2.6875,-2.640625 0,-0.078125 -0.0625,-0.15625 -0.171875,-0.15625 -0.15625,0 -0.171875,0.09375 -0.21875,0.234375 -0.46875,1.515625 -1.46875,2.21875 -2.25,2.21875 -0.59375,0 -0.921875,-0.453125 -0.921875,-1.15625 0,-0.375 0.0625,-0.65625 0.34375,-1.78125 l 0.59375,-2.34375 C 5.90625,-6.484375 6.484375,-7.25 7.28125,-7.25 c 0.03125,0 0.515625,0 0.875,0.21875 z m 0,0"
               id="path112" />
          </g>
        </g>
        <g
           clip-path="url(#clipPath5153)"
           clip-rule="nonzero"
           id="g69">
          <g
             style="fill:#000000;fill-opacity:1"
             id="g67">
            <g
               id="use65"
               transform="translate(25.822001,12.911)">
              <path
                 style="stroke:none"
                 d="m 4.53125,-4.28125 c 0,-1.25 -0.125,-3.34375 -1.15625,-5.5625 -0.828125,-1.796875 -2.234375,-3.046875 -2.4375,-3.046875 -0.0625,0 -0.125,0.01563 -0.125,0.09375 0,0.03125 0.015625,0.0625 0.03125,0.09375 0.828125,0.859375 2.921875,3.046875 2.921875,8.390625 0,5.375 -2.078125,7.5625 -2.921875,8.421875 C 0.828125,4.15625 0.8125,4.171875 0.8125,4.203125 0.8125,4.28125 0.875,4.3125 0.9375,4.3125 1.125,4.3125 2.578125,3.03125 3.421875,1.140625 4.28125,-0.78125 4.53125,-2.640625 4.53125,-4.28125 Z m 0,0"
                 id="path116" />
            </g>
          </g>
        </g>
        <g
           style="fill:#000000;fill-opacity:1"
           id="g73">
          <g
             id="use71"
             transform="translate(36.703854,12.911)">
            <path
               style="stroke:none"
               d="m 11.078125,-5.53125 c 0.25,0 0.515625,0 0.515625,-0.28125 C 11.59375,-6.125 11.296875,-6.125 11,-6.125 H 1.375 c -0.296875,0 -0.578125,0 -0.578125,0.3125 0,0.28125 0.25,0.28125 0.515625,0.28125 z M 11,-2.46875 c 0.296875,0 0.59375,0 0.59375,-0.296875 0,-0.296875 -0.265625,-0.296875 -0.515625,-0.296875 H 1.3125 c -0.265625,0 -0.515625,0 -0.515625,0.296875 0,0.296875 0.28125,0.296875 0.578125,0.296875 z m 0,0"
               id="path120" />
          </g>
        </g>
        <g
           clip-path="url(#clipPath2465)"
           clip-rule="nonzero"
           id="g79">
          <g
             style="fill:#000000;fill-opacity:1"
             id="g77">
            <g
               id="use75"
               transform="translate(53.875,12.911)">
              <path
                 style="stroke:none"
                 d="m 2.734375,-12.296875 c 0,-0.3125 0,-0.625 -0.34375,-0.625 -0.34375,0 -0.34375,0.3125 -0.34375,0.625 V 3.6875 c 0,0.3125 0,0.625 0.34375,0.625 0.34375,0 0.34375,-0.3125 0.34375,-0.625 z m 0,0"
                 id="path124" />
            </g>
          </g>
        </g>
        <g
           style="fill:#000000;fill-opacity:1"
           id="g83">
          <g
             id="use81"
             transform="translate(58.657001,12.911)">
            <path
               style="stroke:none"
               d="m 8.15625,-7.03125 c -0.546875,0.109375 -0.75,0.515625 -0.75,0.84375 0,0.421875 0.328125,0.5625 0.5625,0.5625 0.515625,0 0.875,-0.453125 0.875,-0.921875 0,-0.71875 -0.8125,-1.046875 -1.546875,-1.046875 -1.046875,0 -1.625,1.03125 -1.78125,1.359375 -0.40625,-1.296875 -1.46875,-1.359375 -1.78125,-1.359375 -1.75,0 -2.6875,2.25 -2.6875,2.640625 0,0.0625 0.078125,0.15625 0.1875,0.15625 0.140625,0 0.171875,-0.109375 0.21875,-0.171875 C 2.03125,-6.890625 3.1875,-7.25 3.6875,-7.25 c 0.765625,0 0.921875,0.71875 0.921875,1.140625 0,0.375 -0.09375,0.765625 -0.296875,1.59375 L 3.71875,-2.15625 c -0.25,1.03125 -0.75,1.984375 -1.671875,1.984375 -0.078125,0 -0.515625,0 -0.875,-0.21875 0.625,-0.125 0.75,-0.640625 0.75,-0.84375 0,-0.34375 -0.25,-0.5625 -0.578125,-0.5625 -0.40625,0 -0.859375,0.375 -0.859375,0.921875 0,0.71875 0.8125,1.046875 1.546875,1.046875 0.828125,0 1.40625,-0.65625 1.78125,-1.359375 0.265625,1.015625 1.125,1.359375 1.765625,1.359375 1.75,0 2.6875,-2.25 2.6875,-2.640625 0,-0.078125 -0.0625,-0.15625 -0.171875,-0.15625 -0.15625,0 -0.171875,0.09375 -0.21875,0.234375 -0.46875,1.515625 -1.46875,2.21875 -2.25,2.21875 -0.59375,0 -0.921875,-0.453125 -0.921875,-1.15625 0,-0.375 0.0625,-0.65625 0.34375,-1.78125 l 0.59375,-2.34375 C 5.90625,-6.484375 6.484375,-7.25 7.28125,-7.25 c 0.03125,0 0.515625,0 0.875,0.21875 z m 0,0"
               id="path128" />
          </g>
        </g>
        <g
           style="fill:#000000;fill-opacity:1"
           id="g87">
          <g
             id="use85"
             transform="translate(72.061996,12.911)">
            <path
               style="stroke:none"
               d="m 11.34375,-3.953125 c 0.296875,0 0.609375,0 0.609375,-0.359375 0,-0.34375 -0.3125,-0.34375 -0.609375,-0.34375 h -9.3125 c -0.296875,0 -0.609375,0 -0.609375,0.34375 0,0.359375 0.3125,0.359375 0.609375,0.359375 z m 0,0"
               id="path132" />
          </g>
        </g>
        <g
           style="fill:#000000;fill-opacity:1"
           id="g91">
          <g
             id="use89"
             transform="translate(89.277,12.911)">
            <path
               style="stroke:none"
               d="m 4.578125,-11 c 0,-0.359375 -0.015625,-0.375 -0.25,-0.375 -0.671875,0.796875 -1.6875,1.0625 -2.65625,1.09375 -0.046875,0 -0.140625,0 -0.15625,0.03125 C 1.5,-10.203125 1.5,-10.171875 1.5,-9.8125 c 0.53125,0 1.421875,-0.109375 2.109375,-0.515625 V -1.25 c 0,0.59375 -0.03125,0.796875 -1.515625,0.796875 H 1.578125 V 0 c 0.828125,-0.015625 1.6875,-0.03125 2.515625,-0.03125 0.828125,0 1.6875,0.015625 2.515625,0.03125 V -0.453125 H 6.09375 c -1.484375,0 -1.515625,-0.1875 -1.515625,-0.796875 z m 0,0"
               id="path136" />
          </g>
        </g>
        <g
           clip-path="url(#clipPath4448)"
           clip-rule="nonzero"
           id="g97">
          <g
             style="fill:#000000;fill-opacity:1"
             id="g95">
            <g
               id="use93"
               transform="translate(97.172997,12.911)">
              <path
                 style="stroke:none"
                 d="m 2.734375,-12.296875 c 0,-0.3125 0,-0.625 -0.34375,-0.625 -0.34375,0 -0.34375,0.3125 -0.34375,0.625 V 3.6875 c 0,0.3125 0,0.625 0.34375,0.625 0.34375,0 0.34375,-0.3125 0.34375,-0.625 z m 0,0"
                 id="path140" />
            </g>
          </g>
        </g>
      </g>
    </g>
  </g>
</svg>
