<?xml version="1.0" encoding="UTF-8" standalone="no"?>
<!-- Created with Inkscape (http://www.inkscape.org/) -->

<svg
   width="133.51865mm"
   height="129.84148mm"
   viewBox="0 0 133.51865 129.84148"
   version="1.1"
   id="svg5"
   inkscape:version="1.2.2 (b0a84865, 2022-12-01)"
   sodipodi:docname="prob-06-06-23_01.svg"
   xmlns:inkscape="http://www.inkscape.org/namespaces/inkscape"
   xmlns:sodipodi="http://sodipodi.sourceforge.net/DTD/sodipodi-0.dtd"
   xmlns="http://www.w3.org/2000/svg"
   xmlns:svg="http://www.w3.org/2000/svg"
   xmlns:ns2="http://www.iki.fi/pav/software/textext/">
  <sodipodi:namedview
     id="namedview7"
     pagecolor="#ffffff"
     bordercolor="#000000"
     borderopacity="0.25"
     inkscape:showpageshadow="2"
     inkscape:pageopacity="0.0"
     inkscape:pagecheckerboard="0"
     inkscape:deskcolor="#d1d1d1"
     inkscape:document-units="mm"
     showgrid="false"
     inkscape:zoom="1"
     inkscape:cx="303"
     inkscape:cy="257"
     inkscape:window-width="1512"
     inkscape:window-height="916"
     inkscape:window-x="0"
     inkscape:window-y="38"
     inkscape:window-maximized="1"
     inkscape:current-layer="layer1" />
  <defs
     id="defs2">
    <rect
       x="306"
       y="259"
       width="5"
       height="13"
       id="rect10872" />
  </defs>
  <g
     inkscape:label="Layer 1"
     inkscape:groupmode="layer"
     id="layer1"
     transform="translate(-29.3104, -79.3702)">
    <path
       style="fill:#0000ff;stroke:#000000;stroke-width:0.7;stroke-linecap:round;paint-order:stroke fill markers;stop-color:#000000;stroke-dasharray:2.09999996,2.09999996;stroke-dashoffset:0;opacity:1;fill-opacity:0.2"
       d="M 98.689587,80.697913 C 58.555016,88.729453 18.983151,154.90919 32.54375,184.14999 51.045031,224.04442 183.99753,223.03745 159.27917,122.76666 151.81055,92.469983 122.79902,75.873248 98.689587,80.697913 Z"
       id="path247"
       sodipodi:nodetypes="assa" />
    <g
       id="g2136">
      <path
         style="color:#000000;fill:#800080;stroke-linecap:round;-inkscape-stroke:none;paint-order:stroke fill markers"
         d="m 126.35547,114.49219 -31.962892,30.50195 -33.744141,32.20508 a 0.34999999,0.34999999 0 0 0 -0.01172,0.49414 0.34999999,0.34999999 0 0 0 0.49414,0.0117 l 33.746094,-32.20313 31.962889,-30.5039 a 0.34999999,0.34999999 0 0 0 0.0117,-0.49414 0.34999999,0.34999999 0 0 0 -0.49609,-0.0117 z"
         id="path2156" />
      <path
         style="color:#000000;fill:#800080;fill-opacity:0.2;stroke-width:0.7;stroke-linecap:round;-inkscape-stroke:none;paint-order:stroke fill markers"
         d="m 60.889502,177.45151 33.745382,-32.2036 31.963006,-30.50266"
         id="path2153" />
      <g
         id="g2090"
         style="fill:#800080">
        <g
           id="path2092"
           style="fill:#800080">
          <path
             style="color:#000000;fill:#800080;fill-rule:evenodd;stroke-width:0.35pt;-inkscape-stroke:none"
             d="m 96.154108,143.7981 c -0.517976,0.97811 -1.047522,2.45106 -1.070659,3.44074 0,0 -0.966542,-1.01282 -0.701769,-1.74929 -0.748044,0.23006 -1.714586,-0.78275 -1.714586,-0.78275 0.989679,0.0231 2.485767,-0.437 3.487014,-0.9087 z"
             id="path2150" />
          <path
             style="color:#000000;fill:#800080;fill-rule:evenodd;-inkscape-stroke:none"
             d="m 96.6875,143.28906 -0.632813,0.29883 c -0.973098,0.45844 -2.470877,0.90605 -3.382812,0.88477 l -0.5625,-0.0117 0.388672,0.40625 c 0,0 0.255765,0.27098 0.615234,0.51172 0.294886,0.19748 0.699009,0.29148 1.097656,0.27343 -0.03692,0.3976 0.03907,0.80542 0.222657,1.10938 0.223677,0.37033 0.480468,0.63867 0.480468,0.63867 l 0.388672,0.40625 0.01367,-0.5625 c 0.02132,-0.91192 0.539553,-2.38532 1.042969,-3.33594 z m -0.875,0.83399 c -0.389586,0.81872 -0.696355,1.76123 -0.8125,2.62109 -0.07138,-0.0919 -0.09035,-0.0961 -0.167969,-0.22461 -0.1934,-0.3202 -0.320753,-0.70004 -0.230469,-0.95117 l 0.158204,-0.43945 -0.447266,0.13671 c -0.255076,0.0784 -0.628641,-0.0672 -0.939453,-0.27539 -0.125439,-0.084 -0.128074,-0.10381 -0.216797,-0.17968 0.863937,-0.0758 1.820348,-0.3368 2.65625,-0.6875 z"
             id="path2147" />
        </g>
      </g>
    </g>
    <circle
       id="path1074"
       style="fill:#000000;stroke:none;stroke-width:0.377976"
       cx="126.59789"
       cy="114.74525"
       r="1.5" />
    <circle
       id="path1076"
       style="fill:#000000;stroke:none;stroke-width:0.377976"
       cx="60.889503"
       cy="177.45151"
       r="1.5" />
    <g
       transform="matrix(0.619018,0,0,0.619018,57.64055,181.69517)"
       ns2:version="1.8.2"
       ns2:texconverter="pdflatex"
       ns2:pdfconverter="inkscape"
       ns2:text="$z_1$"
       ns2:preamble="/Users/sachchidanandprasad/Library/Application Support/org.inkscape.Inkscape/config/inkscape/extensions/textext/default_packages.tex"
       ns2:scale="1.7546955875933306"
       ns2:alignment="middle center"
       ns2:stroke-to-path="0"
       ns2:inkscapeversion="1.2.2"
       ns2:jacobian_sqrt="0.619018"
       id="g4556">
      <defs
         id="id-71c14f24-2869-47b6-b8fa-a4024d72e5dc">
        <g
           id="id-42c9649a-24fb-431b-ac47-930a00732aa1">
          <g
             id="id-00dbbf1b-6d1b-4c56-b4d9-84f16dd3d9b0" />
          <g
             id="id-db2e6379-ac5e-455d-9570-777dfb29c1d2">
            <path
               d="m 1.515625,-0.96875 c 0.515625,-0.578125 0.9375,-0.953125 1.53125,-1.5 C 3.765625,-3.078125 4.078125,-3.375 4.25,-3.5625 5.078125,-4.390625 5.5,-5.078125 5.5,-5.171875 c 0,-0.09375 -0.09375,-0.09375 -0.125,-0.09375 -0.078125,0 -0.109375,0.046875 -0.15625,0.125 C 4.90625,-4.625 4.625,-4.375 4.3125,-4.375 c -0.25,0 -0.375,-0.109375 -0.609375,-0.390625 -0.25,-0.296875 -0.453125,-0.5 -0.796875,-0.5 -0.875,0 -1.40625,1.078125 -1.40625,1.328125 0,0.046875 0.015625,0.109375 0.125,0.109375 0.09375,0 0.109375,-0.046875 0.140625,-0.125 0.203125,-0.484375 0.78125,-0.5625 1,-0.5625 0.265625,0 0.5,0.078125 0.75,0.1875 0.453125,0.1875 0.640625,0.1875 0.765625,0.1875 0.078125,0 0.125,0 0.1875,0 C 4.078125,-3.6875 3.4375,-3.109375 2.890625,-2.625 L 1.6875,-1.5 c -0.734375,0.734375 -1.171875,1.4375 -1.171875,1.53125 0,0.0625 0.0625,0.09375 0.125,0.09375 0.078125,0 0.09375,-0.015625 0.171875,-0.15625 0.1875,-0.296875 0.578125,-0.75 1.015625,-0.75 0.25,0 0.375,0.09375 0.609375,0.390625 C 2.671875,-0.125 2.875,0.125 3.25,0.125 c 1.171875,0 1.84375,-1.53125 1.84375,-1.796875 0,-0.046875 -0.015625,-0.125 -0.140625,-0.125 -0.09375,0 -0.09375,0.046875 -0.140625,0.171875 -0.265625,0.703125 -0.96875,0.984375 -1.4375,0.984375 -0.25,0 -0.484375,-0.078125 -0.734375,-0.1875 -0.484375,-0.1875 -0.609375,-0.1875 -0.765625,-0.1875 -0.125,0 -0.25,0 -0.359375,0.046875 z m 0,0"
               id="id-aa2f0b83-51b3-4af3-9473-29389a9739f3" />
          </g>
          <g
             id="id-fb3f323e-4c22-48b6-8181-22de93567ba9" />
          <g
             id="id-b82b6fa4-e5a3-4c49-b8f6-4d0bb3fb7e6a">
            <path
               d="m 2.5,-5.078125 c 0,-0.21875 -0.015625,-0.21875 -0.234375,-0.21875 -0.328125,0.3125 -0.75,0.5 -1.5,0.5 v 0.265625 c 0.21875,0 0.640625,0 1.109375,-0.203125 v 4.078125 c 0,0.296875 -0.03125,0.390625 -0.78125,0.390625 H 0.8125 V 0 c 0.328125,-0.03125 1.015625,-0.03125 1.375,-0.03125 0.359375,0 1.046875,0 1.375,0.03125 V -0.265625 H 3.28125 c -0.75,0 -0.78125,-0.09375 -0.78125,-0.390625 z m 0,0"
               id="id-072e7bed-2afe-48f4-a227-17a7f59b55c9" />
          </g>
        </g>
      </defs>
      <g
         fill="#000000"
         fill-opacity="1"
         id="id-ce0bcd47-81d1-460c-af56-97ef87f978a9"
         transform="translate(-128.929,-132.487)">
        <g
           transform="translate(128.413,137.753)"
           id="g4549">
          <path
             d="m 1.515625,-0.96875 c 0.515625,-0.578125 0.9375,-0.953125 1.53125,-1.5 C 3.765625,-3.078125 4.078125,-3.375 4.25,-3.5625 5.078125,-4.390625 5.5,-5.078125 5.5,-5.171875 c 0,-0.09375 -0.09375,-0.09375 -0.125,-0.09375 -0.078125,0 -0.109375,0.046875 -0.15625,0.125 C 4.90625,-4.625 4.625,-4.375 4.3125,-4.375 c -0.25,0 -0.375,-0.109375 -0.609375,-0.390625 -0.25,-0.296875 -0.453125,-0.5 -0.796875,-0.5 -0.875,0 -1.40625,1.078125 -1.40625,1.328125 0,0.046875 0.015625,0.109375 0.125,0.109375 0.09375,0 0.109375,-0.046875 0.140625,-0.125 0.203125,-0.484375 0.78125,-0.5625 1,-0.5625 0.265625,0 0.5,0.078125 0.75,0.1875 0.453125,0.1875 0.640625,0.1875 0.765625,0.1875 0.078125,0 0.125,0 0.1875,0 C 4.078125,-3.6875 3.4375,-3.109375 2.890625,-2.625 L 1.6875,-1.5 c -0.734375,0.734375 -1.171875,1.4375 -1.171875,1.53125 0,0.0625 0.0625,0.09375 0.125,0.09375 0.078125,0 0.09375,-0.015625 0.171875,-0.15625 0.1875,-0.296875 0.578125,-0.75 1.015625,-0.75 0.25,0 0.375,0.09375 0.609375,0.390625 C 2.671875,-0.125 2.875,0.125 3.25,0.125 c 1.171875,0 1.84375,-1.53125 1.84375,-1.796875 0,-0.046875 -0.015625,-0.125 -0.140625,-0.125 -0.09375,0 -0.09375,0.046875 -0.140625,0.171875 -0.265625,0.703125 -0.96875,0.984375 -1.4375,0.984375 -0.25,0 -0.484375,-0.078125 -0.734375,-0.1875 -0.484375,-0.1875 -0.609375,-0.1875 -0.765625,-0.1875 -0.125,0 -0.25,0 -0.359375,0.046875 z m 0,0"
             id="id-63aa404f-7c74-4b30-aaa6-04a7d9e0de11" />
        </g>
      </g>
      <g
         fill="#000000"
         fill-opacity="1"
         id="id-05bc4b0d-3e03-49cf-9d25-c156f202430e"
         transform="translate(-128.929,-132.487)">
        <g
           transform="translate(133.851,139.547)"
           id="g4553">
          <path
             d="m 2.5,-5.078125 c 0,-0.21875 -0.015625,-0.21875 -0.234375,-0.21875 -0.328125,0.3125 -0.75,0.5 -1.5,0.5 v 0.265625 c 0.21875,0 0.640625,0 1.109375,-0.203125 v 4.078125 c 0,0.296875 -0.03125,0.390625 -0.78125,0.390625 H 0.8125 V 0 c 0.328125,-0.03125 1.015625,-0.03125 1.375,-0.03125 0.359375,0 1.046875,0 1.375,0.03125 V -0.265625 H 3.28125 c -0.75,0 -0.78125,-0.09375 -0.78125,-0.390625 z m 0,0"
             id="id-f1a86cf2-4e0b-4fe5-8200-c9568047844b" />
        </g>
      </g>
    </g>
    <g
       transform="matrix(0.619018,0,0,0.619018,129.27003,110.52225)"
       ns2:version="1.8.2"
       ns2:texconverter="pdflatex"
       ns2:pdfconverter="inkscape"
       ns2:text="$z_2$"
       ns2:preamble="/Users/sachchidanandprasad/Library/Application Support/org.inkscape.Inkscape/config/inkscape/extensions/textext/default_packages.tex"
       ns2:scale="1.7546955875933306"
       ns2:alignment="middle center"
       ns2:stroke-to-path="0"
       ns2:inkscapeversion="1.2.2"
       ns2:jacobian_sqrt="0.619018"
       id="g4658">
      <defs
         id="id-45813ffe-9484-4050-b2b2-985c58f11d08">
        <g
           id="id-95767d33-1e8d-4df0-a616-f0659e98c64e">
          <g
             id="id-2e275411-22a2-403c-81b5-a2fdcd5ddefa" />
          <g
             id="id-139b7cb6-b406-4da0-992f-c089d5311859">
            <path
               d="m 1.515625,-0.96875 c 0.515625,-0.578125 0.9375,-0.953125 1.53125,-1.5 C 3.765625,-3.078125 4.078125,-3.375 4.25,-3.5625 5.078125,-4.390625 5.5,-5.078125 5.5,-5.171875 c 0,-0.09375 -0.09375,-0.09375 -0.125,-0.09375 -0.078125,0 -0.109375,0.046875 -0.15625,0.125 C 4.90625,-4.625 4.625,-4.375 4.3125,-4.375 c -0.25,0 -0.375,-0.109375 -0.609375,-0.390625 -0.25,-0.296875 -0.453125,-0.5 -0.796875,-0.5 -0.875,0 -1.40625,1.078125 -1.40625,1.328125 0,0.046875 0.015625,0.109375 0.125,0.109375 0.09375,0 0.109375,-0.046875 0.140625,-0.125 0.203125,-0.484375 0.78125,-0.5625 1,-0.5625 0.265625,0 0.5,0.078125 0.75,0.1875 0.453125,0.1875 0.640625,0.1875 0.765625,0.1875 0.078125,0 0.125,0 0.1875,0 C 4.078125,-3.6875 3.4375,-3.109375 2.890625,-2.625 L 1.6875,-1.5 c -0.734375,0.734375 -1.171875,1.4375 -1.171875,1.53125 0,0.0625 0.0625,0.09375 0.125,0.09375 0.078125,0 0.09375,-0.015625 0.171875,-0.15625 0.1875,-0.296875 0.578125,-0.75 1.015625,-0.75 0.25,0 0.375,0.09375 0.609375,0.390625 C 2.671875,-0.125 2.875,0.125 3.25,0.125 c 1.171875,0 1.84375,-1.53125 1.84375,-1.796875 0,-0.046875 -0.015625,-0.125 -0.140625,-0.125 -0.09375,0 -0.09375,0.046875 -0.140625,0.171875 -0.265625,0.703125 -0.96875,0.984375 -1.4375,0.984375 -0.25,0 -0.484375,-0.078125 -0.734375,-0.1875 -0.484375,-0.1875 -0.609375,-0.1875 -0.765625,-0.1875 -0.125,0 -0.25,0 -0.359375,0.046875 z m 0,0"
               id="id-9accc73e-79da-4bcc-8c19-4d9f1eec5fce" />
          </g>
          <g
             id="id-1fcc3409-30ae-4927-a4c8-4544e14002c0" />
          <g
             id="id-1d091080-a3e3-4224-80f9-d9db0dd984c2">
            <path
               d="m 2.25,-1.625 c 0.125,-0.125 0.453125,-0.390625 0.59375,-0.5 0.484375,-0.453125 0.953125,-0.890625 0.953125,-1.609375 0,-0.953125 -0.796875,-1.5625 -1.78125,-1.5625 -0.96875,0 -1.59375,0.71875 -1.59375,1.4375 0,0.390625 0.3125,0.4375 0.421875,0.4375 0.171875,0 0.421875,-0.109375 0.421875,-0.421875 0,-0.40625 -0.40625,-0.40625 -0.5,-0.40625 C 1,-4.84375 1.53125,-5.03125 1.921875,-5.03125 c 0.734375,0 1.125,0.625 1.125,1.296875 0,0.828125 -0.578125,1.4375 -1.53125,2.390625 l -1,1.046875 C 0.421875,-0.21875 0.421875,-0.203125 0.421875,0 H 3.5625 l 0.234375,-1.421875 h -0.25 C 3.53125,-1.265625 3.46875,-0.875 3.375,-0.71875 c -0.046875,0.0625 -0.65625,0.0625 -0.78125,0.0625 H 1.171875 Z m 0,0"
               id="id-4968e274-3062-4da9-8cf0-d61845dec72a" />
          </g>
        </g>
      </defs>
      <g
         fill="#000000"
         fill-opacity="1"
         id="id-afae8744-f820-4ea2-9f25-d5b1019217df"
         transform="translate(-128.929,-132.487)">
        <g
           transform="translate(128.413,137.753)"
           id="g4651">
          <path
             d="m 1.515625,-0.96875 c 0.515625,-0.578125 0.9375,-0.953125 1.53125,-1.5 C 3.765625,-3.078125 4.078125,-3.375 4.25,-3.5625 5.078125,-4.390625 5.5,-5.078125 5.5,-5.171875 c 0,-0.09375 -0.09375,-0.09375 -0.125,-0.09375 -0.078125,0 -0.109375,0.046875 -0.15625,0.125 C 4.90625,-4.625 4.625,-4.375 4.3125,-4.375 c -0.25,0 -0.375,-0.109375 -0.609375,-0.390625 -0.25,-0.296875 -0.453125,-0.5 -0.796875,-0.5 -0.875,0 -1.40625,1.078125 -1.40625,1.328125 0,0.046875 0.015625,0.109375 0.125,0.109375 0.09375,0 0.109375,-0.046875 0.140625,-0.125 0.203125,-0.484375 0.78125,-0.5625 1,-0.5625 0.265625,0 0.5,0.078125 0.75,0.1875 0.453125,0.1875 0.640625,0.1875 0.765625,0.1875 0.078125,0 0.125,0 0.1875,0 C 4.078125,-3.6875 3.4375,-3.109375 2.890625,-2.625 L 1.6875,-1.5 c -0.734375,0.734375 -1.171875,1.4375 -1.171875,1.53125 0,0.0625 0.0625,0.09375 0.125,0.09375 0.078125,0 0.09375,-0.015625 0.171875,-0.15625 0.1875,-0.296875 0.578125,-0.75 1.015625,-0.75 0.25,0 0.375,0.09375 0.609375,0.390625 C 2.671875,-0.125 2.875,0.125 3.25,0.125 c 1.171875,0 1.84375,-1.53125 1.84375,-1.796875 0,-0.046875 -0.015625,-0.125 -0.140625,-0.125 -0.09375,0 -0.09375,0.046875 -0.140625,0.171875 -0.265625,0.703125 -0.96875,0.984375 -1.4375,0.984375 -0.25,0 -0.484375,-0.078125 -0.734375,-0.1875 -0.484375,-0.1875 -0.609375,-0.1875 -0.765625,-0.1875 -0.125,0 -0.25,0 -0.359375,0.046875 z m 0,0"
             id="id-b67c52b0-1d03-4e2d-926b-08eb7924d704" />
        </g>
      </g>
      <g
         fill="#000000"
         fill-opacity="1"
         id="id-60f68bac-6f55-496d-8409-0a81a3f42705"
         transform="translate(-128.929,-132.487)">
        <g
           transform="translate(133.851,139.547)"
           id="g4655">
          <path
             d="m 2.25,-1.625 c 0.125,-0.125 0.453125,-0.390625 0.59375,-0.5 0.484375,-0.453125 0.953125,-0.890625 0.953125,-1.609375 0,-0.953125 -0.796875,-1.5625 -1.78125,-1.5625 -0.96875,0 -1.59375,0.71875 -1.59375,1.4375 0,0.390625 0.3125,0.4375 0.421875,0.4375 0.171875,0 0.421875,-0.109375 0.421875,-0.421875 0,-0.40625 -0.40625,-0.40625 -0.5,-0.40625 C 1,-4.84375 1.53125,-5.03125 1.921875,-5.03125 c 0.734375,0 1.125,0.625 1.125,1.296875 0,0.828125 -0.578125,1.4375 -1.53125,2.390625 l -1,1.046875 C 0.421875,-0.21875 0.421875,-0.203125 0.421875,0 H 3.5625 l 0.234375,-1.421875 h -0.25 C 3.53125,-1.265625 3.46875,-0.875 3.375,-0.71875 c -0.046875,0.0625 -0.65625,0.0625 -0.78125,0.0625 H 1.171875 Z m 0,0"
             id="id-edb5aacf-43f0-47c0-a1b5-9289afa43d2f" />
        </g>
      </g>
    </g>
    <g
       transform="matrix(0.619018,0,0,0.619018,96.687268,147.80651)"
       ns2:version="1.8.2"
       ns2:texconverter="pdflatex"
       ns2:pdfconverter="inkscape"
       ns2:text="$\\gamma(t)$"
       ns2:preamble="/Users/sachchidanandprasad/Library/Application Support/org.inkscape.Inkscape/config/inkscape/extensions/textext/default_packages.tex"
       ns2:scale="1.7546955875933306"
       ns2:alignment="middle center"
       ns2:stroke-to-path="0"
       ns2:inkscapeversion="1.2.2"
       ns2:jacobian_sqrt="0.619018"
       id="g4791"
       style="fill:#800080;fill-opacity:1">
      <defs
         id="id-0563fb0e-2086-4d72-b733-ab9c37025aec">
        <g
           id="id-a8edc4fe-475c-4616-935f-25220dc00cbc">
          <g
             id="id-20a35dda-53e0-47f8-9288-5b6a1a4cd9be" />
          <g
             id="id-1e802d20-7c9b-4006-82ef-c99488cdb7fc">
            <path
               d="M 4.515625,-1.453125 C 4.5,-2.046875 4.46875,-2.96875 4.015625,-4.046875 3.78125,-4.640625 3.375,-5.265625 2.5,-5.265625 c -1.46875,0 -2.265625,1.875 -2.265625,2.1875 0,0.109375 0.078125,0.109375 0.109375,0.109375 0.109375,0 0.109375,-0.03125 0.171875,-0.1875 0.25,-0.734375 1.015625,-1.328125 1.84375,-1.328125 1.65625,0 1.890625,1.859375 1.890625,3.03125 0,0.765625 -0.078125,1.015625 -0.15625,1.25 -0.21875,0.734375 -0.609375,2.21875 -0.609375,2.5625 0,0.09375 0.03125,0.203125 0.125,0.203125 0.1875,0 0.28125,-0.40625 0.421875,-0.875 0.28125,-1.046875 0.359375,-1.578125 0.421875,-2.0625 0.03125,-0.28125 0.703125,-2.25 1.65625,-4.125 0.078125,-0.203125 0.25,-0.515625 0.25,-0.5625 0,0 -0.015625,-0.09375 -0.125,-0.09375 -0.015625,0 -0.078125,0 -0.109375,0.046875 -0.015625,0.03125 -0.4375,0.84375 -0.796875,1.65625 -0.171875,0.40625 -0.421875,0.9375 -0.8125,2 z m 0,0"
               id="id-dca93dc4-a1e5-49f5-a412-d28c12cdb8bb" />
          </g>
          <g
             id="id-3770412d-0e3f-47fd-bf39-50e56bcfacd6">
            <path
               d="M 2.40625,-4.8125 H 3.5 c 0.234375,0 0.34375,0 0.34375,-0.203125 0,-0.140625 -0.0625,-0.140625 -0.3125,-0.140625 H 2.484375 l 0.4375,-1.734375 C 2.96875,-7.0625 2.96875,-7.09375 2.96875,-7.171875 c 0,-0.1875 -0.140625,-0.296875 -0.296875,-0.296875 -0.109375,0 -0.375,0.03125 -0.46875,0.421875 l -0.46875,1.890625 h -1.125 c -0.234375,0 -0.34375,0 -0.34375,0.234375 0,0.109375 0.078125,0.109375 0.3125,0.109375 h 1.0625 L 0.84375,-1.65625 c -0.09375,0.421875 -0.125,0.546875 -0.125,0.703125 0,0.5625 0.390625,1.078125 1.0625,1.078125 1.203125,0 1.859375,-1.75 1.859375,-1.828125 0,-0.078125 -0.0625,-0.109375 -0.125,-0.109375 -0.03125,0 -0.078125,0 -0.09375,0.046875 C 3.40625,-1.75 3.390625,-1.75 3.3125,-1.546875 c -0.25,0.59375 -0.796875,1.421875 -1.5,1.421875 -0.359375,0 -0.375,-0.296875 -0.375,-0.5625 0,0 0,-0.234375 0.03125,-0.375 z m 0,0"
               id="id-98e5027e-4a86-42be-a623-f9dcb9d44eae" />
          </g>
          <g
             id="id-2ff6d221-21f5-42ea-8119-f1d79b5878d4" />
          <g
             id="id-31d34c4b-3eb0-4936-a8b7-d376ec1ecf2e">
            <path
               d="m 3.890625,2.90625 c 0,-0.03125 0,-0.0625 -0.203125,-0.265625 C 2.484375,1.4375 1.8125,-0.53125 1.8125,-2.96875 c 0,-2.328125 0.5625,-4.328125 1.953125,-5.734375 0.125,-0.109375 0.125,-0.125 0.125,-0.171875 0,-0.0625 -0.0625,-0.09375 -0.109375,-0.09375 -0.15625,0 -1.140625,0.859375 -1.71875,2.03125 -0.609375,1.21875 -0.890625,2.484375 -0.890625,3.96875 0,1.0625 0.171875,2.484375 0.78125,3.75 C 2.671875,2.21875 3.640625,3 3.78125,3 3.828125,3 3.890625,2.96875 3.890625,2.90625 Z m 0,0"
               id="id-b62e058c-d248-4915-beb3-1b5536ae9c47" />
          </g>
          <g
             id="id-43c16ac0-2b4e-49d6-b0f2-ca9ecf03831a">
            <path
               d="M 3.375,-2.96875 C 3.375,-3.890625 3.25,-5.359375 2.578125,-6.75 1.875,-8.1875 0.890625,-8.96875 0.765625,-8.96875 c -0.046875,0 -0.109375,0.03125 -0.109375,0.09375 0,0.046875 0,0.0625 0.203125,0.265625 1.203125,1.203125 1.859375,3.1875 1.859375,5.625 0,2.3125 -0.5625,4.3125 -1.9375,5.71875 C 0.65625,2.84375 0.65625,2.875 0.65625,2.90625 0.65625,2.96875 0.71875,3 0.765625,3 0.921875,3 1.90625,2.140625 2.484375,0.96875 3.09375,-0.25 3.375,-1.546875 3.375,-2.96875 Z m 0,0"
               id="id-1c142707-4b7f-408c-8c54-d90ca6f4d752" />
          </g>
        </g>
      </defs>
      <g
         fill="#000000"
         fill-opacity="1"
         id="id-ff0fb9a9-a9d0-4746-ad52-95f508afb083"
         transform="translate(-128.647,-128.784)"
         style="fill:#800080;fill-opacity:1">
        <g
           transform="translate(128.413,137.753)"
           id="g4776"
           style="fill:#800080;fill-opacity:1">
          <path
             d="M 4.515625,-1.453125 C 4.5,-2.046875 4.46875,-2.96875 4.015625,-4.046875 3.78125,-4.640625 3.375,-5.265625 2.5,-5.265625 c -1.46875,0 -2.265625,1.875 -2.265625,2.1875 0,0.109375 0.078125,0.109375 0.109375,0.109375 0.109375,0 0.109375,-0.03125 0.171875,-0.1875 0.25,-0.734375 1.015625,-1.328125 1.84375,-1.328125 1.65625,0 1.890625,1.859375 1.890625,3.03125 0,0.765625 -0.078125,1.015625 -0.15625,1.25 -0.21875,0.734375 -0.609375,2.21875 -0.609375,2.5625 0,0.09375 0.03125,0.203125 0.125,0.203125 0.1875,0 0.28125,-0.40625 0.421875,-0.875 0.28125,-1.046875 0.359375,-1.578125 0.421875,-2.0625 0.03125,-0.28125 0.703125,-2.25 1.65625,-4.125 0.078125,-0.203125 0.25,-0.515625 0.25,-0.5625 0,0 -0.015625,-0.09375 -0.125,-0.09375 -0.015625,0 -0.078125,0 -0.109375,0.046875 -0.015625,0.03125 -0.4375,0.84375 -0.796875,1.65625 -0.171875,0.40625 -0.421875,0.9375 -0.8125,2 z m 0,0"
             id="id-3abf05cf-e2ec-4aba-9a98-84e35337e9f9"
             style="fill:#800080;fill-opacity:1" />
        </g>
      </g>
      <g
         fill="#000000"
         fill-opacity="1"
         id="id-c1c1ce75-26a3-433b-b544-cd0964d2d9e9"
         transform="translate(-128.647,-128.784)"
         style="fill:#800080;fill-opacity:1">
        <g
           transform="translate(135.135,137.753)"
           id="g4780"
           style="fill:#800080;fill-opacity:1">
          <path
             d="m 3.890625,2.90625 c 0,-0.03125 0,-0.0625 -0.203125,-0.265625 C 2.484375,1.4375 1.8125,-0.53125 1.8125,-2.96875 c 0,-2.328125 0.5625,-4.328125 1.953125,-5.734375 0.125,-0.109375 0.125,-0.125 0.125,-0.171875 0,-0.0625 -0.0625,-0.09375 -0.109375,-0.09375 -0.15625,0 -1.140625,0.859375 -1.71875,2.03125 -0.609375,1.21875 -0.890625,2.484375 -0.890625,3.96875 0,1.0625 0.171875,2.484375 0.78125,3.75 C 2.671875,2.21875 3.640625,3 3.78125,3 3.828125,3 3.890625,2.96875 3.890625,2.90625 Z m 0,0"
             id="id-2f05478b-4506-4a83-817f-e5bd5433addb"
             style="fill:#800080;fill-opacity:1" />
        </g>
      </g>
      <g
         fill="#000000"
         fill-opacity="1"
         id="id-5055c9d5-b16e-4ca6-b55e-701c7c69df6d"
         transform="translate(-128.647,-128.784)"
         style="fill:#800080;fill-opacity:1">
        <g
           transform="translate(139.688,137.753)"
           id="g4784"
           style="fill:#800080;fill-opacity:1">
          <path
             d="M 2.40625,-4.8125 H 3.5 c 0.234375,0 0.34375,0 0.34375,-0.203125 0,-0.140625 -0.0625,-0.140625 -0.3125,-0.140625 H 2.484375 l 0.4375,-1.734375 C 2.96875,-7.0625 2.96875,-7.09375 2.96875,-7.171875 c 0,-0.1875 -0.140625,-0.296875 -0.296875,-0.296875 -0.109375,0 -0.375,0.03125 -0.46875,0.421875 l -0.46875,1.890625 h -1.125 c -0.234375,0 -0.34375,0 -0.34375,0.234375 0,0.109375 0.078125,0.109375 0.3125,0.109375 h 1.0625 L 0.84375,-1.65625 c -0.09375,0.421875 -0.125,0.546875 -0.125,0.703125 0,0.5625 0.390625,1.078125 1.0625,1.078125 1.203125,0 1.859375,-1.75 1.859375,-1.828125 0,-0.078125 -0.0625,-0.109375 -0.125,-0.109375 -0.03125,0 -0.078125,0 -0.09375,0.046875 C 3.40625,-1.75 3.390625,-1.75 3.3125,-1.546875 c -0.25,0.59375 -0.796875,1.421875 -1.5,1.421875 -0.359375,0 -0.375,-0.296875 -0.375,-0.5625 0,0 0,-0.234375 0.03125,-0.375 z m 0,0"
             id="id-a2e696fc-dc9f-4e0a-a47f-c274da71ae10"
             style="fill:#800080;fill-opacity:1" />
        </g>
      </g>
      <g
         fill="#000000"
         fill-opacity="1"
         id="id-8b924af9-36b6-4046-8f90-80712d95de4a"
         transform="translate(-128.647,-128.784)"
         style="fill:#800080;fill-opacity:1">
        <g
           transform="translate(143.915,137.753)"
           id="g4788"
           style="fill:#800080;fill-opacity:1">
          <path
             d="M 3.375,-2.96875 C 3.375,-3.890625 3.25,-5.359375 2.578125,-6.75 1.875,-8.1875 0.890625,-8.96875 0.765625,-8.96875 c -0.046875,0 -0.109375,0.03125 -0.109375,0.09375 0,0.046875 0,0.0625 0.203125,0.265625 1.203125,1.203125 1.859375,3.1875 1.859375,5.625 0,2.3125 -0.5625,4.3125 -1.9375,5.71875 C 0.65625,2.84375 0.65625,2.875 0.65625,2.90625 0.65625,2.96875 0.71875,3 0.765625,3 0.921875,3 1.90625,2.140625 2.484375,0.96875 3.09375,-0.25 3.375,-1.546875 3.375,-2.96875 Z m 0,0"
             id="id-d6934bd7-645a-4784-b912-b40a65300fd7"
             style="fill:#800080;fill-opacity:1" />
        </g>
      </g>
    </g>
    <g
       transform="matrix(0.91097202,0,0,0.91097202,145.36101,191.14616)"
       ns2:version="1.8.2"
       ns2:texconverter="pdflatex"
       ns2:pdfconverter="inkscape"
       ns2:text="$D$"
       ns2:preamble="/Users/sachchidanandprasad/Library/Application Support/org.inkscape.Inkscape/config/inkscape/extensions/textext/default_packages.tex"
       ns2:scale="1.7546955875933306"
       ns2:alignment="middle center"
       ns2:stroke-to-path="0"
       ns2:inkscapeversion="1.2.2"
       ns2:jacobian_sqrt="0.619018"
       id="g10857">
      <defs
         id="id-32103ddf-74b8-4ced-9da1-5d30f87279b1">
        <g
           id="id-b991bf72-f763-478c-b683-84e07f819cd1">
          <g
             id="id-028b4f8d-96e3-4051-8b27-a455ac1bf705" />
          <g
             id="id-781920bb-22eb-4ea2-955a-b2743a6c4e11">
            <path
               d="M 1.875,-0.890625 C 1.765625,-0.46875 1.75,-0.34375 0.90625,-0.34375 c -0.21875,0 -0.34375,0 -0.34375,0.21875 C 0.5625,0 0.640625,0 0.875,0 h 3.78125 c 2.421875,0 4.78125,-2.5 4.78125,-5.15625 0,-1.734375 -1.03125,-3 -2.75,-3 H 2.859375 c -0.234375,0 -0.34375,0 -0.34375,0.21875 0,0.125 0.109375,0.125 0.296875,0.125 0.71875,0 0.71875,0.09375 0.71875,0.21875 0,0.03125 0,0.09375 -0.046875,0.28125 z M 4.40625,-7.34375 C 4.5,-7.796875 4.546875,-7.8125 5.015625,-7.8125 h 1.3125 c 1.125,0 2.15625,0.609375 2.15625,2.25 0,0.609375 -0.234375,2.6875 -1.390625,4 -0.34375,0.390625 -1.25,1.21875 -2.625,1.21875 H 3.109375 c -0.171875,0 -0.1875,0 -0.265625,-0.015625 -0.125,-0.015625 -0.140625,-0.03125 -0.140625,-0.125 0,-0.09375 0.015625,-0.15625 0.046875,-0.265625 z m 0,0"
               id="id-6f9332f6-a4cc-4c3a-bffb-ea8f79acfea1" />
          </g>
        </g>
      </defs>
      <g
         fill="#000000"
         fill-opacity="1"
         id="id-6cc65614-2e3c-4f30-8e04-12d68c583781"
         transform="translate(-128.975,-129.597)">
        <g
           transform="translate(128.413,137.753)"
           id="g10854">
          <path
             d="M 1.875,-0.890625 C 1.765625,-0.46875 1.75,-0.34375 0.90625,-0.34375 c -0.21875,0 -0.34375,0 -0.34375,0.21875 C 0.5625,0 0.640625,0 0.875,0 h 3.78125 c 2.421875,0 4.78125,-2.5 4.78125,-5.15625 0,-1.734375 -1.03125,-3 -2.75,-3 H 2.859375 c -0.234375,0 -0.34375,0 -0.34375,0.21875 0,0.125 0.109375,0.125 0.296875,0.125 0.71875,0 0.71875,0.09375 0.71875,0.21875 0,0.03125 0,0.09375 -0.046875,0.28125 z M 4.40625,-7.34375 C 4.5,-7.796875 4.546875,-7.8125 5.015625,-7.8125 h 1.3125 c 1.125,0 2.15625,0.609375 2.15625,2.25 0,0.609375 -0.234375,2.6875 -1.390625,4 -0.34375,0.390625 -1.25,1.21875 -2.625,1.21875 H 3.109375 c -0.171875,0 -0.1875,0 -0.265625,-0.015625 -0.125,-0.015625 -0.140625,-0.03125 -0.140625,-0.125 0,-0.09375 0.015625,-0.15625 0.046875,-0.265625 z m 0,0"
             id="id-261626ac-302f-49d6-b668-60bb00e9b5a6" />
        </g>
      </g>
    </g>
    <text
       xml:space="preserve"
       transform="matrix(0.26458333,0,0,0.26458333,29.3104,79.3702)"
       id="text10870"
       style="font-size:12px;font-family:sans-serif;-inkscape-font-specification:'sans-serif, Normal';text-align:center;white-space:pre;shape-inside:url(#rect10872);display:inline;opacity:1;fill:#800080;fill-opacity:1;stroke:#000000;stroke-width:2.64567;stroke-linecap:round;stroke-dasharray:none;stroke-dashoffset:0;paint-order:stroke fill markers;stop-color:#000000" />
  </g>
</svg>
