<?xml version="1.0" encoding="UTF-8" standalone="no"?>
<!-- Created with Inkscape (http://www.inkscape.org/) -->

<svg
   width="127.68427mm"
   height="115.9779mm"
   viewBox="0 0 127.68427 115.9779"
   version="1.1"
   id="svg1"
   inkscape:version="1.4 (e7c3feb1, 2024-10-09)"
   sodipodi:docname="prob-03-04-25_01.svg"
   xmlns:inkscape="http://www.inkscape.org/namespaces/inkscape"
   xmlns:sodipodi="http://sodipodi.sourceforge.net/DTD/sodipodi-0.dtd"
   xmlns="http://www.w3.org/2000/svg"
   xmlns:svg="http://www.w3.org/2000/svg"
   xmlns:ns1="http://www.iki.fi/pav/software/textext/">
  <sodipodi:namedview
     id="namedview1"
     pagecolor="#ffffff"
     bordercolor="#000000"
     borderopacity="0.25"
     inkscape:showpageshadow="2"
     inkscape:pageopacity="0.0"
     inkscape:pagecheckerboard="0"
     inkscape:deskcolor="#d1d1d1"
     inkscape:document-units="mm"
     inkscape:zoom="1"
     inkscape:cx="215.5"
     inkscape:cy="257"
     inkscape:window-width="1512"
     inkscape:window-height="916"
     inkscape:window-x="0"
     inkscape:window-y="38"
     inkscape:window-maximized="1"
     inkscape:current-layer="layer1" />
  <defs
     id="defs1">
    <marker
       style="overflow:visible"
       id="marker31"
       refX="0"
       refY="0"
       orient="auto-start-reverse"
       inkscape:stockid="Wide arrow"
       markerWidth="1"
       markerHeight="1"
       viewBox="0 0 1 1"
       inkscape:isstock="true"
       inkscape:collect="always"
       preserveAspectRatio="xMidYMid">
      <path
         style="fill:none;stroke:context-stroke;stroke-width:1;stroke-linecap:butt"
         d="M 3,-3 0,0 3,3"
         transform="rotate(180,0.125,0)"
         sodipodi:nodetypes="ccc"
         id="path31" />
    </marker>
    <inkscape:path-effect
       effect="bspline"
       id="path-effect30"
       is_visible="true"
       lpeversion="1.3"
       weight="33.333333"
       steps="2"
       helper_size="0"
       apply_no_weight="true"
       apply_with_weight="true"
       only_selected="false"
       uniform="false" />
    <marker
       style="overflow:visible"
       id="ArrowWide"
       refX="0"
       refY="0"
       orient="auto-start-reverse"
       inkscape:stockid="Wide arrow"
       markerWidth="1"
       markerHeight="1"
       viewBox="0 0 1 1"
       inkscape:isstock="true"
       inkscape:collect="always"
       preserveAspectRatio="xMidYMid">
      <path
         style="fill:none;stroke:context-stroke;stroke-width:1;stroke-linecap:butt"
         d="M 3,-3 0,0 3,3"
         transform="rotate(180,0.125,0)"
         sodipodi:nodetypes="ccc"
         id="path23" />
    </marker>
    <inkscape:path-effect
       effect="bspline"
       id="path-effect22"
       is_visible="true"
       lpeversion="1.3"
       weight="33.333333"
       steps="2"
       helper_size="0"
       apply_no_weight="true"
       apply_with_weight="true"
       only_selected="false"
       uniform="false" />
  </defs>
  <g
     inkscape:label="Layer 1"
     inkscape:groupmode="layer"
     id="layer1"
     transform="translate(-27.682303,-82.777838)">
    <circle
       style="fill:none;fill-rule:evenodd;stroke:#4d4d4d;stroke-width:0.499999;stroke-dasharray:none"
       id="path1"
       cx="78.052086"
       cy="131.49792"
       r="31.485416" />
    <circle
       style="fill:none;fill-rule:evenodd;stroke:#4d4d4d;stroke-width:0.499999;stroke-dasharray:none"
       id="circle1"
       cx="118.00417"
       cy="131.49792"
       r="31.485416" />
    <circle
       style="fill:none;fill-rule:evenodd;stroke:#4d4d4d;stroke-width:0.499999;stroke-dasharray:none"
       id="circle2"
       cx="98.954178"
       cy="158.22084"
       r="31.485416" />
    <path
       d="M 78.052083,100.0125 A 31.485416,31.485416 0 0 0 46.566667,131.49792 31.485416,31.485416 0 0 0 67.729716,161.20463 31.485416,31.485416 0 0 1 67.46875,158.22083 31.485416,31.485416 0 0 1 86.708919,129.32234 31.485416,31.485416 0 0 1 98.03846,107.18726 31.485416,31.485416 0 0 0 78.052083,100.0125 Z"
       style="fill:#5fd35f;fill-rule:evenodd;stroke:#4d4d4d;stroke-width:0.499999"
       id="path5" />
    <path
       d="m 98.028125,155.80134 a 31.485416,31.485416 0 0 1 -11.509375,-24.30342 31.485416,31.485416 0 0 1 0.190169,-2.17558 31.485416,31.485416 0 0 0 -19.240169,28.89849 31.485416,31.485416 0 0 0 0.260966,2.9838 31.485416,31.485416 0 0 0 10.322367,1.7787 31.485416,31.485416 0 0 0 19.976042,-7.18199 z"
       style="fill:#5599ff;fill-rule:evenodd;stroke:#4d4d4d;stroke-width:0.499999"
       id="path9" />
    <g
       transform="matrix(1.1369885,0,0,1.1369885,38.522069,114.78349)"
       ns1:version="1.10.2"
       ns1:texconverter="pdflatex"
       ns1:pdfconverter="inkscape"
       ns1:text="$A$"
       ns1:preamble="/Users/sachchidanandprasad/Library/Application Support/org.inkscape.Inkscape/config/inkscape/extensions/textext/default_packages.tex"
       ns1:scale="1.1644503894170415"
       ns1:alignment="middle center"
       ns1:stroke-to-path="0"
       ns1:jacobian_sqrt="0.410792"
       id="g10"
       style="stroke-width:0.361298">
      <defs
         id="id-b41cf430-2cdb-4104-9cce-05d838c2c28f">
        <g
           id="id-34992e89-d435-4261-9277-ee072441066c">
          <g
             id="id-9aff18b8-c575-4359-91a2-0d580d147348">
            <path
               d="m 4.609375,-7.03125 -3.71875,5.921875 C 0.53125,-0.5625 0.34375,-0.40625 0.015625,-0.3125 L -0.1875,-0.265625 V 0.03125 C 0.734375,0 0.734375,0 0.921875,0 1.109375,0 1.140625,0 2,0.03125 V -0.25 L 1.46875,-0.28125 C 1.3125,-0.296875 1.171875,-0.375 1.171875,-0.46875 c 0,-0.078125 0.0625,-0.21875 0.25,-0.546875 l 1.015625,-1.75 h 2.453125 l 0.25,1.875 v 0.03125 c 0,0.015625 0.015625,0.046875 0.015625,0.09375 0.015625,0.078125 0.03125,0.171875 0.03125,0.21875 0,0.15625 -0.15625,0.25 -0.4375,0.265625 L 4.3125,-0.25 V 0.03125 C 5.328125,0 5.328125,0 5.53125,0 5.734375,0 5.734375,0 6.75,0.03125 V -0.25 L 6.484375,-0.28125 C 6.015625,-0.34375 6.015625,-0.34375 5.9375,-0.796875 L 5.0625,-7.03125 Z M 4.46875,-5.984375 4.84375,-3.125 H 2.6875 Z m 0,0"
               id="id-1b687ab4-5dfc-486a-b7b6-f28a3f18da5e" />
          </g>
        </g>
      </defs>
      <g
         fill="#000000"
         fill-opacity="1"
         id="id-02cc7da8-f46b-4250-a7c8-37dc8683827d"
         transform="translate(-149.148,-127.734)"
         style="stroke-width:0.361298">
        <g
           transform="translate(149.335,134.765)"
           id="g9"
           style="stroke-width:0.361298">
          <path
             d="m 4.609375,-7.03125 -3.71875,5.921875 C 0.53125,-0.5625 0.34375,-0.40625 0.015625,-0.3125 L -0.1875,-0.265625 V 0.03125 C 0.734375,0 0.734375,0 0.921875,0 1.109375,0 1.140625,0 2,0.03125 V -0.25 L 1.46875,-0.28125 C 1.3125,-0.296875 1.171875,-0.375 1.171875,-0.46875 c 0,-0.078125 0.0625,-0.21875 0.25,-0.546875 l 1.015625,-1.75 h 2.453125 l 0.25,1.875 v 0.03125 c 0,0.015625 0.015625,0.046875 0.015625,0.09375 0.015625,0.078125 0.03125,0.171875 0.03125,0.21875 0,0.15625 -0.15625,0.25 -0.4375,0.265625 L 4.3125,-0.25 V 0.03125 C 5.328125,0 5.328125,0 5.53125,0 5.734375,0 5.734375,0 6.75,0.03125 V -0.25 L 6.484375,-0.28125 C 6.015625,-0.34375 6.015625,-0.34375 5.9375,-0.796875 L 5.0625,-7.03125 Z M 4.46875,-5.984375 4.84375,-3.125 H 2.6875 Z m 0,0"
             id="id-da7eadd9-ff6e-420a-abda-7ee9cb897252"
             style="stroke-width:0.361298" />
        </g>
      </g>
    </g>
    <g
       transform="matrix(1.0669938,0,0,1.0669938,149.69857,113.23554)"
       ns1:version="1.10.2"
       ns1:texconverter="pdflatex"
       ns1:pdfconverter="inkscape"
       ns1:text="$B$"
       ns1:preamble="/Users/sachchidanandprasad/Library/Application Support/org.inkscape.Inkscape/config/inkscape/extensions/textext/default_packages.tex"
       ns1:scale="1.1644503894170415"
       ns1:alignment="middle center"
       ns1:stroke-to-path="0"
       ns1:jacobian_sqrt="0.410792"
       id="g12"
       style="stroke-width:0.384999">
      <defs
         id="id-03d4bac4-9cf4-4e01-82b2-61867be57335">
        <g
           id="id-ca77092d-cb11-414f-a430-d6788e4e8d7f">
          <g
             id="id-7a1f07bd-e286-4503-83a7-4030238856fb">
            <path
               d="M 0.96875,-6.625 1.5,-6.59375 c 0.234375,0 0.34375,0.078125 0.34375,0.265625 0,0.140625 -0.046875,0.453125 -0.09375,0.75 l -0.859375,5.03125 c -0.046875,0.171875 -0.15625,0.25 -0.578125,0.3125 L 0.265625,0.03125 0.625,0.015625 C 0.890625,0 1.046875,0 1.171875,0 1.28125,0 1.53125,0.015625 1.796875,0.015625 L 2.15625,0.03125 2.359375,0.046875 c 0.1875,0 0.328125,0.015625 0.40625,0.015625 0.46875,0 0.953125,-0.140625 1.421875,-0.421875 0.78125,-0.46875 1.21875,-1.140625 1.21875,-1.90625 0,-0.421875 -0.125,-0.75 -0.40625,-0.96875 -0.25,-0.21875 -0.546875,-0.296875 -1.234375,-0.40625 0.5625,-0.203125 0.8125,-0.3125 1.125,-0.59375 0.453125,-0.390625 0.6875,-0.859375 0.6875,-1.375 C 5.578125,-6.421875 5,-6.890625 4,-6.890625 c -0.015625,0 -0.125,0 -0.265625,0 L 3.09375,-6.875 c -0.109375,0 -0.46875,0 -0.59375,0 -0.1875,0 -0.5,0 -0.984375,-0.015625 H 1 Z m 1.1875,3.234375 h 0.859375 c 1.015625,0 1.515625,0.421875 1.515625,1.28125 0,1.03125 -0.71875,1.765625 -1.71875,1.765625 -0.203125,0 -0.484375,0 -0.8125,-0.03125 C 1.9375,-0.390625 1.8125,-0.40625 1.65625,-0.40625 Z m 0.5625,-3.09375 c 0.109375,0 0.125,0 0.328125,-0.015625 0.21875,-0.015625 0.34375,-0.03125 0.46875,-0.03125 0.796875,0 1.203125,0.359375 1.203125,1.109375 C 4.71875,-4.375 3.984375,-3.75 2.734375,-3.75 H 2.21875 Z m 0,0"
               id="id-18c14579-005d-46d7-993b-c9c9cceb5743" />
          </g>
        </g>
      </defs>
      <g
         fill="#000000"
         fill-opacity="1"
         id="id-e58a3206-efd2-4c4d-b213-9fa9ea27881e"
         transform="translate(-149.302,-127.874)"
         style="stroke-width:0.384999">
        <g
           transform="translate(149.036,134.765)"
           id="g11"
           style="stroke-width:0.384999">
          <path
             d="M 0.96875,-6.625 1.5,-6.59375 c 0.234375,0 0.34375,0.078125 0.34375,0.265625 0,0.140625 -0.046875,0.453125 -0.09375,0.75 l -0.859375,5.03125 c -0.046875,0.171875 -0.15625,0.25 -0.578125,0.3125 L 0.265625,0.03125 0.625,0.015625 C 0.890625,0 1.046875,0 1.171875,0 1.28125,0 1.53125,0.015625 1.796875,0.015625 L 2.15625,0.03125 2.359375,0.046875 c 0.1875,0 0.328125,0.015625 0.40625,0.015625 0.46875,0 0.953125,-0.140625 1.421875,-0.421875 0.78125,-0.46875 1.21875,-1.140625 1.21875,-1.90625 0,-0.421875 -0.125,-0.75 -0.40625,-0.96875 -0.25,-0.21875 -0.546875,-0.296875 -1.234375,-0.40625 0.5625,-0.203125 0.8125,-0.3125 1.125,-0.59375 0.453125,-0.390625 0.6875,-0.859375 0.6875,-1.375 C 5.578125,-6.421875 5,-6.890625 4,-6.890625 c -0.015625,0 -0.125,0 -0.265625,0 L 3.09375,-6.875 c -0.109375,0 -0.46875,0 -0.59375,0 -0.1875,0 -0.5,0 -0.984375,-0.015625 H 1 Z m 1.1875,3.234375 h 0.859375 c 1.015625,0 1.515625,0.421875 1.515625,1.28125 0,1.03125 -0.71875,1.765625 -1.71875,1.765625 -0.203125,0 -0.484375,0 -0.8125,-0.03125 C 1.9375,-0.390625 1.8125,-0.40625 1.65625,-0.40625 Z m 0.5625,-3.09375 c 0.109375,0 0.125,0 0.328125,-0.015625 0.21875,-0.015625 0.34375,-0.03125 0.46875,-0.03125 0.796875,0 1.203125,0.359375 1.203125,1.109375 C 4.71875,-4.375 3.984375,-3.75 2.734375,-3.75 H 2.21875 Z m 0,0"
             id="id-55e5d4ca-3e90-48a8-b5f6-2437a3d14854"
             style="stroke-width:0.384999" />
        </g>
      </g>
    </g>
    <g
       transform="matrix(1.1903423,0,0,1.1903423,106.60971,190.18185)"
       ns1:version="1.10.2"
       ns1:texconverter="pdflatex"
       ns1:pdfconverter="inkscape"
       ns1:text="$C$"
       ns1:preamble="/Users/sachchidanandprasad/Library/Application Support/org.inkscape.Inkscape/config/inkscape/extensions/textext/default_packages.tex"
       ns1:scale="1.1644503894170415"
       ns1:alignment="middle center"
       ns1:stroke-to-path="0"
       ns1:jacobian_sqrt="0.410792"
       id="g14"
       style="stroke-width:0.345104">
      <defs
         id="id-52ecfeed-9299-49c6-ba61-f773c2ff6757">
        <g
           id="id-745a0cb7-f91e-4865-b432-457f67f57e3c">
          <g
             id="id-fca3335a-d024-4d4e-b476-88fbd045618b">
            <path
               d="M 5.953125,-5.171875 H 6.21875 c 0.046875,-0.5625 0.125,-1 0.265625,-1.453125 -0.75,-0.296875 -1.328125,-0.40625 -1.9375,-0.40625 -0.8125,0 -1.640625,0.25 -2.328125,0.71875 -1.171875,0.78125 -1.765625,1.953125 -1.765625,3.484375 0,1.9375 1.0625,3 2.96875,3 0.953125,0 1.65625,-0.21875 2.5625,-0.84375 l 0.09375,-0.359375 -0.09375,-0.0625 c -0.9375,0.5625 -1.453125,0.75 -2.234375,0.75 -1.5625,0 -2.421875,-0.96875 -2.421875,-2.734375 0,-1.109375 0.34375,-2.09375 0.9375,-2.71875 0.46875,-0.46875 1.109375,-0.71875 1.90625,-0.71875 0.703125,0 1.21875,0.140625 1.78125,0.5 z m 0,0"
               id="id-43c56c90-ff30-4ec6-9b7d-f826f581c49d" />
          </g>
        </g>
      </defs>
      <g
         fill="#000000"
         fill-opacity="1"
         id="id-7da0940b-93f7-4e26-add6-b3de12cff2ec"
         transform="translate(-149.25,-127.734)"
         style="stroke-width:0.345104">
        <g
           transform="translate(148.797,134.765)"
           id="g13"
           style="stroke-width:0.345104">
          <path
             d="M 5.953125,-5.171875 H 6.21875 c 0.046875,-0.5625 0.125,-1 0.265625,-1.453125 -0.75,-0.296875 -1.328125,-0.40625 -1.9375,-0.40625 -0.8125,0 -1.640625,0.25 -2.328125,0.71875 -1.171875,0.78125 -1.765625,1.953125 -1.765625,3.484375 0,1.9375 1.0625,3 2.96875,3 0.953125,0 1.65625,-0.21875 2.5625,-0.84375 l 0.09375,-0.359375 -0.09375,-0.0625 c -0.9375,0.5625 -1.453125,0.75 -2.234375,0.75 -1.5625,0 -2.421875,-0.96875 -2.421875,-2.734375 0,-1.109375 0.34375,-2.09375 0.9375,-2.71875 0.46875,-0.46875 1.109375,-0.71875 1.90625,-0.71875 0.703125,0 1.21875,0.140625 1.78125,0.5 z m 0,0"
             id="id-2681eb48-9cfe-47b3-a05a-168aa42f8252"
             style="stroke-width:0.345104" />
        </g>
      </g>
    </g>
    <g
       transform="matrix(0.77221741,0,0,0.77221741,60.276957,82.778031)"
       ns1:version="1.10.2"
       ns1:texconverter="pdflatex"
       ns1:pdfconverter="inkscape"
       ns1:text="$(A\\setminus B) \\setminus C$"
       ns1:preamble="/Users/sachchidanandprasad/Library/Application Support/org.inkscape.Inkscape/config/inkscape/extensions/textext/default_packages.tex"
       ns1:scale="1.1644503894170415"
       ns1:alignment="middle center"
       ns1:stroke-to-path="0"
       ns1:jacobian_sqrt="0.410792"
       id="g22"
       style="stroke-width:0.531964;fill:#008000;fill-opacity:1">
      <defs
         id="id-919e373a-878c-4aab-a0b4-c6868c393435">
        <g
           id="id-968719ee-18fe-4179-b969-16ec3a0837f4">
          <g
             id="id-2285ca71-2c88-4722-a050-166dcc56b1be">
            <path
               d="m 3.4375,2.484375 c 0,-0.03125 0,-0.046875 -0.1875,-0.21875 C 1.953125,0.953125 1.625,-1 1.625,-2.59375 1.625,-4.40625 2.015625,-6.203125 3.296875,-7.5 3.4375,-7.625 3.4375,-7.640625 3.4375,-7.671875 3.4375,-7.75 3.390625,-7.78125 3.328125,-7.78125 c -0.09375,0 -1.03125,0.703125 -1.640625,2.015625 -0.53125,1.15625 -0.65625,2.296875 -0.65625,3.171875 0,0.8125 0.109375,2.0625 0.6875,3.234375 0.609375,1.28125 1.515625,1.953125 1.609375,1.953125 0.0625,0 0.109375,-0.03125 0.109375,-0.109375 z m 0,0"
               id="id-924e0f16-317e-4829-a08c-1a9a66bcceba" />
          </g>
          <g
             id="id-51668f4e-fa5b-4117-8d8f-77b4448e1986">
            <path
               d="m 3,-2.59375 c 0,-0.8125 -0.109375,-2.0625 -0.6875,-3.234375 -0.625,-1.28125 -1.515625,-1.953125 -1.625,-1.953125 -0.046875,0 -0.09375,0.046875 -0.09375,0.109375 0,0.03125 0,0.046875 0.1875,0.234375 1.03125,1.03125 1.609375,2.671875 1.609375,4.84375 0,1.78125 -0.375,3.59375 -1.671875,4.90625 -0.125,0.125 -0.125,0.140625 -0.125,0.171875 0,0.0625 0.046875,0.109375 0.09375,0.109375 0.109375,0 1.046875,-0.703125 1.65625,-2.015625 C 2.875,-0.578125 3,-1.71875 3,-2.59375 Z m 0,0"
               id="id-368275ca-b927-44e5-8ddf-9e58fffb6072" />
          </g>
          <g
             id="id-581d6a13-97de-46de-89d5-2b8d3d381daa">
            <path
               d="m 4.609375,-7.03125 -3.71875,5.921875 C 0.53125,-0.5625 0.34375,-0.40625 0.015625,-0.3125 L -0.1875,-0.265625 V 0.03125 C 0.734375,0 0.734375,0 0.921875,0 1.109375,0 1.140625,0 2,0.03125 V -0.25 L 1.46875,-0.28125 C 1.3125,-0.296875 1.171875,-0.375 1.171875,-0.46875 c 0,-0.078125 0.0625,-0.21875 0.25,-0.546875 l 1.015625,-1.75 h 2.453125 l 0.25,1.875 v 0.03125 c 0,0.015625 0.015625,0.046875 0.015625,0.09375 0.015625,0.078125 0.03125,0.171875 0.03125,0.21875 0,0.15625 -0.15625,0.25 -0.4375,0.265625 L 4.3125,-0.25 V 0.03125 C 5.328125,0 5.328125,0 5.53125,0 5.734375,0 5.734375,0 6.75,0.03125 V -0.25 L 6.484375,-0.28125 C 6.015625,-0.34375 6.015625,-0.34375 5.9375,-0.796875 L 5.0625,-7.03125 Z M 4.46875,-5.984375 4.84375,-3.125 H 2.6875 Z m 0,0"
               id="id-8bcc2acb-4cc1-4e9e-bdb5-bcf5cd5130c1" />
          </g>
          <g
             id="id-dcbf0ee5-2910-43bf-a1e5-cf4518041b38">
            <path
               d="M 0.96875,-6.625 1.5,-6.59375 c 0.234375,0 0.34375,0.078125 0.34375,0.265625 0,0.140625 -0.046875,0.453125 -0.09375,0.75 l -0.859375,5.03125 c -0.046875,0.171875 -0.15625,0.25 -0.578125,0.3125 L 0.265625,0.03125 0.625,0.015625 C 0.890625,0 1.046875,0 1.171875,0 1.28125,0 1.53125,0.015625 1.796875,0.015625 L 2.15625,0.03125 2.359375,0.046875 c 0.1875,0 0.328125,0.015625 0.40625,0.015625 0.46875,0 0.953125,-0.140625 1.421875,-0.421875 0.78125,-0.46875 1.21875,-1.140625 1.21875,-1.90625 0,-0.421875 -0.125,-0.75 -0.40625,-0.96875 -0.25,-0.21875 -0.546875,-0.296875 -1.234375,-0.40625 0.5625,-0.203125 0.8125,-0.3125 1.125,-0.59375 0.453125,-0.390625 0.6875,-0.859375 0.6875,-1.375 C 5.578125,-6.421875 5,-6.890625 4,-6.890625 c -0.015625,0 -0.125,0 -0.265625,0 L 3.09375,-6.875 c -0.109375,0 -0.46875,0 -0.59375,0 -0.1875,0 -0.5,0 -0.984375,-0.015625 H 1 Z m 1.1875,3.234375 h 0.859375 c 1.015625,0 1.515625,0.421875 1.515625,1.28125 0,1.03125 -0.71875,1.765625 -1.71875,1.765625 -0.203125,0 -0.484375,0 -0.8125,-0.03125 C 1.9375,-0.390625 1.8125,-0.40625 1.65625,-0.40625 Z m 0.5625,-3.09375 c 0.109375,0 0.125,0 0.328125,-0.015625 0.21875,-0.015625 0.34375,-0.03125 0.46875,-0.03125 0.796875,0 1.203125,0.359375 1.203125,1.109375 C 4.71875,-4.375 3.984375,-3.75 2.734375,-3.75 H 2.21875 Z m 0,0"
               id="id-5eb6804c-d8ed-46fe-b41e-b0ac2ce29dc2" />
          </g>
          <g
             id="id-d919221f-f427-42de-9ba5-ab5277509ba7">
            <path
               d="M 5.953125,-5.171875 H 6.21875 c 0.046875,-0.5625 0.125,-1 0.265625,-1.453125 -0.75,-0.296875 -1.328125,-0.40625 -1.9375,-0.40625 -0.8125,0 -1.640625,0.25 -2.328125,0.71875 -1.171875,0.78125 -1.765625,1.953125 -1.765625,3.484375 0,1.9375 1.0625,3 2.96875,3 0.953125,0 1.65625,-0.21875 2.5625,-0.84375 l 0.09375,-0.359375 -0.09375,-0.0625 c -0.9375,0.5625 -1.453125,0.75 -2.234375,0.75 -1.5625,0 -2.421875,-0.96875 -2.421875,-2.734375 0,-1.109375 0.34375,-2.09375 0.9375,-2.71875 0.46875,-0.46875 1.109375,-0.71875 1.90625,-0.71875 0.703125,0 1.21875,0.140625 1.78125,0.5 z m 0,0"
               id="id-49d5b56e-3463-450b-9b77-ed250f80ccce" />
          </g>
          <g
             id="id-f02c8dce-7ee0-44af-b500-54451652c456">
            <path
               d="m 4.15625,2.34375 c 0.0625,0.140625 0.109375,0.25 0.25,0.25 0.109375,0 0.203125,-0.09375 0.203125,-0.203125 0,-0.03125 0,-0.046875 -0.0625,-0.171875 L 1,-7.53125 c -0.0625,-0.171875 -0.09375,-0.25 -0.21875,-0.25 -0.125,0 -0.203125,0.09375 -0.203125,0.203125 0,0.03125 0,0.046875 0.046875,0.171875 z m 0,0"
               id="id-bb629f12-6bda-4ec4-b202-6c08e42fb1f9" />
          </g>
        </g>
      </defs>
      <g
         fill="#000000"
         fill-opacity="1"
         id="id-b2ec55db-145d-49cf-9503-7190227820a5"
         transform="translate(-149.868,-126.984)"
         style="stroke-width:0.531964;fill:#008000;fill-opacity:1">
        <g
           transform="translate(148.837,134.765)"
           id="g15"
           style="stroke-width:0.531964;fill:#008000;fill-opacity:1">
          <path
             d="m 3.4375,2.484375 c 0,-0.03125 0,-0.046875 -0.1875,-0.21875 C 1.953125,0.953125 1.625,-1 1.625,-2.59375 1.625,-4.40625 2.015625,-6.203125 3.296875,-7.5 3.4375,-7.625 3.4375,-7.640625 3.4375,-7.671875 3.4375,-7.75 3.390625,-7.78125 3.328125,-7.78125 c -0.09375,0 -1.03125,0.703125 -1.640625,2.015625 -0.53125,1.15625 -0.65625,2.296875 -0.65625,3.171875 0,0.8125 0.109375,2.0625 0.6875,3.234375 0.609375,1.28125 1.515625,1.953125 1.609375,1.953125 0.0625,0 0.109375,-0.03125 0.109375,-0.109375 z m 0,0"
             id="id-8641758b-91f2-4031-9192-29d5aad18272"
             style="stroke-width:0.531964;fill:#008000;fill-opacity:1" />
        </g>
      </g>
      <g
         fill="#000000"
         fill-opacity="1"
         id="id-80bded97-bc46-486f-822f-1e42a06005c9"
         transform="translate(-149.868,-126.984)"
         style="stroke-width:0.531964;fill:#008000;fill-opacity:1">
        <g
           transform="translate(153.609,134.765)"
           id="g16"
           style="stroke-width:0.531964;fill:#008000;fill-opacity:1">
          <path
             d="m 4.609375,-7.03125 -3.71875,5.921875 C 0.53125,-0.5625 0.34375,-0.40625 0.015625,-0.3125 L -0.1875,-0.265625 V 0.03125 C 0.734375,0 0.734375,0 0.921875,0 1.109375,0 1.140625,0 2,0.03125 V -0.25 L 1.46875,-0.28125 C 1.3125,-0.296875 1.171875,-0.375 1.171875,-0.46875 c 0,-0.078125 0.0625,-0.21875 0.25,-0.546875 l 1.015625,-1.75 h 2.453125 l 0.25,1.875 v 0.03125 c 0,0.015625 0.015625,0.046875 0.015625,0.09375 0.015625,0.078125 0.03125,0.171875 0.03125,0.21875 0,0.15625 -0.15625,0.25 -0.4375,0.265625 L 4.3125,-0.25 V 0.03125 C 5.328125,0 5.328125,0 5.53125,0 5.734375,0 5.734375,0 6.75,0.03125 V -0.25 L 6.484375,-0.28125 C 6.015625,-0.34375 6.015625,-0.34375 5.9375,-0.796875 L 5.0625,-7.03125 Z M 4.46875,-5.984375 4.84375,-3.125 H 2.6875 Z m 0,0"
             id="id-132f00e3-b79d-42d1-980a-7762055db79e"
             style="stroke-width:0.531964;fill:#008000;fill-opacity:1" />
        </g>
      </g>
      <g
         fill="#000000"
         fill-opacity="1"
         id="id-c726adb4-e3e1-4369-be55-6843a2817ab6"
         transform="translate(-149.868,-126.984)"
         style="stroke-width:0.531964;fill:#008000;fill-opacity:1">
        <g
           transform="translate(162.988,134.765)"
           id="g17"
           style="stroke-width:0.531964;fill:#008000;fill-opacity:1">
          <path
             d="m 4.15625,2.34375 c 0.0625,0.140625 0.109375,0.25 0.25,0.25 0.109375,0 0.203125,-0.09375 0.203125,-0.203125 0,-0.03125 0,-0.046875 -0.0625,-0.171875 L 1,-7.53125 c -0.0625,-0.171875 -0.09375,-0.25 -0.21875,-0.25 -0.125,0 -0.203125,0.09375 -0.203125,0.203125 0,0.03125 0,0.046875 0.046875,0.171875 z m 0,0"
             id="id-8df6f812-6a37-404f-89d0-7af26337f278"
             style="stroke-width:0.531964;fill:#008000;fill-opacity:1" />
        </g>
      </g>
      <g
         fill="#000000"
         fill-opacity="1"
         id="id-ac06b385-6314-453c-aa76-20e262922112"
         transform="translate(-149.868,-126.984)"
         style="stroke-width:0.531964;fill:#008000;fill-opacity:1">
        <g
           transform="translate(170.564,134.765)"
           id="g18"
           style="stroke-width:0.531964;fill:#008000;fill-opacity:1">
          <path
             d="M 0.96875,-6.625 1.5,-6.59375 c 0.234375,0 0.34375,0.078125 0.34375,0.265625 0,0.140625 -0.046875,0.453125 -0.09375,0.75 l -0.859375,5.03125 c -0.046875,0.171875 -0.15625,0.25 -0.578125,0.3125 L 0.265625,0.03125 0.625,0.015625 C 0.890625,0 1.046875,0 1.171875,0 1.28125,0 1.53125,0.015625 1.796875,0.015625 L 2.15625,0.03125 2.359375,0.046875 c 0.1875,0 0.328125,0.015625 0.40625,0.015625 0.46875,0 0.953125,-0.140625 1.421875,-0.421875 0.78125,-0.46875 1.21875,-1.140625 1.21875,-1.90625 0,-0.421875 -0.125,-0.75 -0.40625,-0.96875 -0.25,-0.21875 -0.546875,-0.296875 -1.234375,-0.40625 0.5625,-0.203125 0.8125,-0.3125 1.125,-0.59375 0.453125,-0.390625 0.6875,-0.859375 0.6875,-1.375 C 5.578125,-6.421875 5,-6.890625 4,-6.890625 c -0.015625,0 -0.125,0 -0.265625,0 L 3.09375,-6.875 c -0.109375,0 -0.46875,0 -0.59375,0 -0.1875,0 -0.5,0 -0.984375,-0.015625 H 1 Z m 1.1875,3.234375 h 0.859375 c 1.015625,0 1.515625,0.421875 1.515625,1.28125 0,1.03125 -0.71875,1.765625 -1.71875,1.765625 -0.203125,0 -0.484375,0 -0.8125,-0.03125 C 1.9375,-0.390625 1.8125,-0.40625 1.65625,-0.40625 Z m 0.5625,-3.09375 c 0.109375,0 0.125,0 0.328125,-0.015625 0.21875,-0.015625 0.34375,-0.03125 0.46875,-0.03125 0.796875,0 1.203125,0.359375 1.203125,1.109375 C 4.71875,-4.375 3.984375,-3.75 2.734375,-3.75 H 2.21875 Z m 0,0"
             id="id-eba70f2d-ca05-4ccc-ba28-0f0ca144377c"
             style="stroke-width:0.531964;fill:#008000;fill-opacity:1" />
        </g>
      </g>
      <g
         fill="#000000"
         fill-opacity="1"
         id="id-9a94e0ec-b994-4d9a-9a66-a8ac98ce5abc"
         transform="translate(-149.868,-126.984)"
         style="stroke-width:0.531964;fill:#008000;fill-opacity:1">
        <g
           transform="translate(176.9,134.765)"
           id="g19"
           style="stroke-width:0.531964;fill:#008000;fill-opacity:1">
          <path
             d="m 3,-2.59375 c 0,-0.8125 -0.109375,-2.0625 -0.6875,-3.234375 -0.625,-1.28125 -1.515625,-1.953125 -1.625,-1.953125 -0.046875,0 -0.09375,0.046875 -0.09375,0.109375 0,0.03125 0,0.046875 0.1875,0.234375 1.03125,1.03125 1.609375,2.671875 1.609375,4.84375 0,1.78125 -0.375,3.59375 -1.671875,4.90625 -0.125,0.125 -0.125,0.140625 -0.125,0.171875 0,0.0625 0.046875,0.109375 0.09375,0.109375 0.109375,0 1.046875,-0.703125 1.65625,-2.015625 C 2.875,-0.578125 3,-1.71875 3,-2.59375 Z m 0,0"
             id="id-78dd88f0-1175-4479-8572-deca4b071c89"
             style="stroke-width:0.531964;fill:#008000;fill-opacity:1" />
        </g>
      </g>
      <g
         fill="#000000"
         fill-opacity="1"
         id="id-b0a5090c-530d-42fe-b9e7-15427bfed5f9"
         transform="translate(-149.868,-126.984)"
         style="stroke-width:0.531964;fill:#008000;fill-opacity:1">
        <g
           transform="translate(183.111,134.765)"
           id="g20"
           style="stroke-width:0.531964;fill:#008000;fill-opacity:1">
          <path
             d="m 4.15625,2.34375 c 0.0625,0.140625 0.109375,0.25 0.25,0.25 0.109375,0 0.203125,-0.09375 0.203125,-0.203125 0,-0.03125 0,-0.046875 -0.0625,-0.171875 L 1,-7.53125 c -0.0625,-0.171875 -0.09375,-0.25 -0.21875,-0.25 -0.125,0 -0.203125,0.09375 -0.203125,0.203125 0,0.03125 0,0.046875 0.046875,0.171875 z m 0,0"
             id="id-c80ea28a-5660-4548-bb0e-c177c2526f88"
             style="stroke-width:0.531964;fill:#008000;fill-opacity:1" />
        </g>
      </g>
      <g
         fill="#000000"
         fill-opacity="1"
         id="id-a2290e15-499a-4fa4-8d6b-7c2f638039d7"
         transform="translate(-149.868,-126.984)"
         style="stroke-width:0.531964;fill:#008000;fill-opacity:1">
        <g
           transform="translate(190.448,134.765)"
           id="g21"
           style="stroke-width:0.531964;fill:#008000;fill-opacity:1">
          <path
             d="M 5.953125,-5.171875 H 6.21875 c 0.046875,-0.5625 0.125,-1 0.265625,-1.453125 -0.75,-0.296875 -1.328125,-0.40625 -1.9375,-0.40625 -0.8125,0 -1.640625,0.25 -2.328125,0.71875 -1.171875,0.78125 -1.765625,1.953125 -1.765625,3.484375 0,1.9375 1.0625,3 2.96875,3 0.953125,0 1.65625,-0.21875 2.5625,-0.84375 l 0.09375,-0.359375 -0.09375,-0.0625 c -0.9375,0.5625 -1.453125,0.75 -2.234375,0.75 -1.5625,0 -2.421875,-0.96875 -2.421875,-2.734375 0,-1.109375 0.34375,-2.09375 0.9375,-2.71875 0.46875,-0.46875 1.109375,-0.71875 1.90625,-0.71875 0.703125,0 1.21875,0.140625 1.78125,0.5 z m 0,0"
             id="id-e41b7140-f61a-4c1f-be7a-d188e700adcd"
             style="stroke-width:0.531964;fill:#008000;fill-opacity:1" />
        </g>
      </g>
    </g>
    <path
       style="fill:#5599ff;fill-rule:evenodd;stroke:#000000;stroke-width:0.499999;stroke-dasharray:none;marker-end:url(#ArrowWide)"
       d="m 73.289582,91.281249 c 0,6.96736 0,13.934721 0,20.902081"
       id="path22"
       inkscape:path-effect="#path-effect22"
       inkscape:original-d="m 73.289582,91.281249 c 0,6.96736 0,13.934721 0,20.902081"
       transform="translate(0,0.52916667)" />
    <g
       transform="matrix(0.7036399,0,0,0.7036399,27.682127,174.94417)"
       ns1:version="1.10.2"
       ns1:texconverter="pdflatex"
       ns1:pdfconverter="inkscape"
       ns1:text="$(A \\setminus B) \\cap C$"
       ns1:preamble="/Users/sachchidanandprasad/Library/Application Support/org.inkscape.Inkscape/config/inkscape/extensions/textext/default_packages.tex"
       ns1:scale="1.1644503894170415"
       ns1:alignment="middle center"
       ns1:stroke-to-path="0"
       ns1:jacobian_sqrt="0.410792"
       id="g30"
       style="stroke-width:0.58381;fill:#0000ff">
      <defs
         id="id-a46a6975-00ce-49e1-a12c-63a43dde80cf">
        <g
           id="id-1a42723d-faf9-41db-997b-74194bff0bc2">
          <g
             id="id-5f4d2279-7179-461f-9248-ff4765443ab1">
            <path
               d="m 3.4375,2.484375 c 0,-0.03125 0,-0.046875 -0.1875,-0.21875 C 1.953125,0.953125 1.625,-1 1.625,-2.59375 1.625,-4.40625 2.015625,-6.203125 3.296875,-7.5 3.4375,-7.625 3.4375,-7.640625 3.4375,-7.671875 3.4375,-7.75 3.390625,-7.78125 3.328125,-7.78125 c -0.09375,0 -1.03125,0.703125 -1.640625,2.015625 -0.53125,1.15625 -0.65625,2.296875 -0.65625,3.171875 0,0.8125 0.109375,2.0625 0.6875,3.234375 0.609375,1.28125 1.515625,1.953125 1.609375,1.953125 0.0625,0 0.109375,-0.03125 0.109375,-0.109375 z m 0,0"
               id="id-3bb80743-1e17-4808-b8eb-5e41a8a38cd2" />
          </g>
          <g
             id="id-b7efbd73-cc1e-45ff-b759-c2218421cebd">
            <path
               d="m 3,-2.59375 c 0,-0.8125 -0.109375,-2.0625 -0.6875,-3.234375 -0.625,-1.28125 -1.515625,-1.953125 -1.625,-1.953125 -0.046875,0 -0.09375,0.046875 -0.09375,0.109375 0,0.03125 0,0.046875 0.1875,0.234375 1.03125,1.03125 1.609375,2.671875 1.609375,4.84375 0,1.78125 -0.375,3.59375 -1.671875,4.90625 -0.125,0.125 -0.125,0.140625 -0.125,0.171875 0,0.0625 0.046875,0.109375 0.09375,0.109375 0.109375,0 1.046875,-0.703125 1.65625,-2.015625 C 2.875,-0.578125 3,-1.71875 3,-2.59375 Z m 0,0"
               id="id-11b23182-b029-4fa5-ae21-87b01c0754e4" />
          </g>
          <g
             id="id-7a9f80e1-8311-4ba9-abb8-632454362758">
            <path
               d="m 4.609375,-7.03125 -3.71875,5.921875 C 0.53125,-0.5625 0.34375,-0.40625 0.015625,-0.3125 L -0.1875,-0.265625 V 0.03125 C 0.734375,0 0.734375,0 0.921875,0 1.109375,0 1.140625,0 2,0.03125 V -0.25 L 1.46875,-0.28125 C 1.3125,-0.296875 1.171875,-0.375 1.171875,-0.46875 c 0,-0.078125 0.0625,-0.21875 0.25,-0.546875 l 1.015625,-1.75 h 2.453125 l 0.25,1.875 v 0.03125 c 0,0.015625 0.015625,0.046875 0.015625,0.09375 0.015625,0.078125 0.03125,0.171875 0.03125,0.21875 0,0.15625 -0.15625,0.25 -0.4375,0.265625 L 4.3125,-0.25 V 0.03125 C 5.328125,0 5.328125,0 5.53125,0 5.734375,0 5.734375,0 6.75,0.03125 V -0.25 L 6.484375,-0.28125 C 6.015625,-0.34375 6.015625,-0.34375 5.9375,-0.796875 L 5.0625,-7.03125 Z M 4.46875,-5.984375 4.84375,-3.125 H 2.6875 Z m 0,0"
               id="id-b2fa490d-829e-400f-8611-341b62c67e6b" />
          </g>
          <g
             id="id-a4b00b79-5ef6-4ea2-a68d-ea1d8a024749">
            <path
               d="M 0.96875,-6.625 1.5,-6.59375 c 0.234375,0 0.34375,0.078125 0.34375,0.265625 0,0.140625 -0.046875,0.453125 -0.09375,0.75 l -0.859375,5.03125 c -0.046875,0.171875 -0.15625,0.25 -0.578125,0.3125 L 0.265625,0.03125 0.625,0.015625 C 0.890625,0 1.046875,0 1.171875,0 1.28125,0 1.53125,0.015625 1.796875,0.015625 L 2.15625,0.03125 2.359375,0.046875 c 0.1875,0 0.328125,0.015625 0.40625,0.015625 0.46875,0 0.953125,-0.140625 1.421875,-0.421875 0.78125,-0.46875 1.21875,-1.140625 1.21875,-1.90625 0,-0.421875 -0.125,-0.75 -0.40625,-0.96875 -0.25,-0.21875 -0.546875,-0.296875 -1.234375,-0.40625 0.5625,-0.203125 0.8125,-0.3125 1.125,-0.59375 0.453125,-0.390625 0.6875,-0.859375 0.6875,-1.375 C 5.578125,-6.421875 5,-6.890625 4,-6.890625 c -0.015625,0 -0.125,0 -0.265625,0 L 3.09375,-6.875 c -0.109375,0 -0.46875,0 -0.59375,0 -0.1875,0 -0.5,0 -0.984375,-0.015625 H 1 Z m 1.1875,3.234375 h 0.859375 c 1.015625,0 1.515625,0.421875 1.515625,1.28125 0,1.03125 -0.71875,1.765625 -1.71875,1.765625 -0.203125,0 -0.484375,0 -0.8125,-0.03125 C 1.9375,-0.390625 1.8125,-0.40625 1.65625,-0.40625 Z m 0.5625,-3.09375 c 0.109375,0 0.125,0 0.328125,-0.015625 0.21875,-0.015625 0.34375,-0.03125 0.46875,-0.03125 0.796875,0 1.203125,0.359375 1.203125,1.109375 C 4.71875,-4.375 3.984375,-3.75 2.734375,-3.75 H 2.21875 Z m 0,0"
               id="id-04f2236e-5ab3-4ae6-b034-00b444625ff6" />
          </g>
          <g
             id="id-a6d4c74c-f90f-45ee-971d-444e944ce593">
            <path
               d="M 5.953125,-5.171875 H 6.21875 c 0.046875,-0.5625 0.125,-1 0.265625,-1.453125 -0.75,-0.296875 -1.328125,-0.40625 -1.9375,-0.40625 -0.8125,0 -1.640625,0.25 -2.328125,0.71875 -1.171875,0.78125 -1.765625,1.953125 -1.765625,3.484375 0,1.9375 1.0625,3 2.96875,3 0.953125,0 1.65625,-0.21875 2.5625,-0.84375 l 0.09375,-0.359375 -0.09375,-0.0625 c -0.9375,0.5625 -1.453125,0.75 -2.234375,0.75 -1.5625,0 -2.421875,-0.96875 -2.421875,-2.734375 0,-1.109375 0.34375,-2.09375 0.9375,-2.71875 0.46875,-0.46875 1.109375,-0.71875 1.90625,-0.71875 0.703125,0 1.21875,0.140625 1.78125,0.5 z m 0,0"
               id="id-692f3347-2107-4000-a610-e696c6eb56c6" />
          </g>
          <g
             id="id-5c6a3502-2321-4b1c-bcf2-b592cc541f3d">
            <path
               d="m 4.15625,2.34375 c 0.0625,0.140625 0.109375,0.25 0.25,0.25 0.109375,0 0.203125,-0.09375 0.203125,-0.203125 0,-0.03125 0,-0.046875 -0.0625,-0.171875 L 1,-7.53125 c -0.0625,-0.171875 -0.09375,-0.25 -0.21875,-0.25 -0.125,0 -0.203125,0.09375 -0.203125,0.203125 0,0.03125 0,0.046875 0.046875,0.171875 z m 0,0"
               id="id-334f8c00-5efc-4a24-bc91-cac8a7d5c6e0" />
          </g>
          <g
             id="id-4f401698-618f-4c29-a5a7-8efc25b90a4b">
            <path
               d="m 6.34375,-3.9375 c 0,-1.578125 -1.59375,-2.265625 -2.890625,-2.265625 -1.34375,0 -2.875,0.71875 -2.875,2.25 v 3.8125 c 0,0.1875 0,0.375 0.203125,0.375 0.203125,0 0.203125,-0.1875 0.203125,-0.375 V -3.90625 c 0,-1.546875 1.6875,-1.890625 2.46875,-1.890625 0.46875,0 1.125,0.09375 1.671875,0.453125 0.796875,0.515625 0.796875,1.171875 0.796875,1.453125 v 3.75 c 0,0.1875 0,0.375 0.203125,0.375 0.21875,0 0.21875,-0.1875 0.21875,-0.375 z m 0,0"
               id="id-ab3dfc79-23fc-4698-b516-17397c8261df" />
          </g>
        </g>
      </defs>
      <g
         fill="#000000"
         fill-opacity="1"
         id="id-f888d05b-c3e4-4c00-923a-420d3c89dc4d"
         transform="translate(-149.868,-126.984)"
         style="stroke-width:0.58381;fill:#0000ff">
        <g
           transform="translate(148.837,134.765)"
           id="g23"
           style="stroke-width:0.58381;fill:#0000ff">
          <path
             d="m 3.4375,2.484375 c 0,-0.03125 0,-0.046875 -0.1875,-0.21875 C 1.953125,0.953125 1.625,-1 1.625,-2.59375 1.625,-4.40625 2.015625,-6.203125 3.296875,-7.5 3.4375,-7.625 3.4375,-7.640625 3.4375,-7.671875 3.4375,-7.75 3.390625,-7.78125 3.328125,-7.78125 c -0.09375,0 -1.03125,0.703125 -1.640625,2.015625 -0.53125,1.15625 -0.65625,2.296875 -0.65625,3.171875 0,0.8125 0.109375,2.0625 0.6875,3.234375 0.609375,1.28125 1.515625,1.953125 1.609375,1.953125 0.0625,0 0.109375,-0.03125 0.109375,-0.109375 z m 0,0"
             id="id-e7367228-9a6b-4439-8c2c-f3854e99d4b2"
             style="stroke-width:0.58381;fill:#0000ff" />
        </g>
      </g>
      <g
         fill="#000000"
         fill-opacity="1"
         id="id-00816f0e-0123-45a4-9a5a-c1fffeba84e7"
         transform="translate(-149.868,-126.984)"
         style="stroke-width:0.58381;fill:#0000ff">
        <g
           transform="translate(153.609,134.765)"
           id="g24"
           style="stroke-width:0.58381;fill:#0000ff">
          <path
             d="m 4.609375,-7.03125 -3.71875,5.921875 C 0.53125,-0.5625 0.34375,-0.40625 0.015625,-0.3125 L -0.1875,-0.265625 V 0.03125 C 0.734375,0 0.734375,0 0.921875,0 1.109375,0 1.140625,0 2,0.03125 V -0.25 L 1.46875,-0.28125 C 1.3125,-0.296875 1.171875,-0.375 1.171875,-0.46875 c 0,-0.078125 0.0625,-0.21875 0.25,-0.546875 l 1.015625,-1.75 h 2.453125 l 0.25,1.875 v 0.03125 c 0,0.015625 0.015625,0.046875 0.015625,0.09375 0.015625,0.078125 0.03125,0.171875 0.03125,0.21875 0,0.15625 -0.15625,0.25 -0.4375,0.265625 L 4.3125,-0.25 V 0.03125 C 5.328125,0 5.328125,0 5.53125,0 5.734375,0 5.734375,0 6.75,0.03125 V -0.25 L 6.484375,-0.28125 C 6.015625,-0.34375 6.015625,-0.34375 5.9375,-0.796875 L 5.0625,-7.03125 Z M 4.46875,-5.984375 4.84375,-3.125 H 2.6875 Z m 0,0"
             id="id-66cec490-b356-4808-81fe-52973fcdee97"
             style="stroke-width:0.58381;fill:#0000ff" />
        </g>
      </g>
      <g
         fill="#000000"
         fill-opacity="1"
         id="id-cb5bd0db-a151-4344-b2ab-bcc2b35e1b8d"
         transform="translate(-149.868,-126.984)"
         style="stroke-width:0.58381;fill:#0000ff">
        <g
           transform="translate(162.988,134.765)"
           id="g25"
           style="stroke-width:0.58381;fill:#0000ff">
          <path
             d="m 4.15625,2.34375 c 0.0625,0.140625 0.109375,0.25 0.25,0.25 0.109375,0 0.203125,-0.09375 0.203125,-0.203125 0,-0.03125 0,-0.046875 -0.0625,-0.171875 L 1,-7.53125 c -0.0625,-0.171875 -0.09375,-0.25 -0.21875,-0.25 -0.125,0 -0.203125,0.09375 -0.203125,0.203125 0,0.03125 0,0.046875 0.046875,0.171875 z m 0,0"
             id="id-7829a92c-330d-479a-9929-85e2039de9e6"
             style="stroke-width:0.58381;fill:#0000ff" />
        </g>
      </g>
      <g
         fill="#000000"
         fill-opacity="1"
         id="id-3c3a5e4b-ad43-498a-8bab-b65570eb3a33"
         transform="translate(-149.868,-126.984)"
         style="stroke-width:0.58381;fill:#0000ff">
        <g
           transform="translate(170.564,134.765)"
           id="g26"
           style="stroke-width:0.58381;fill:#0000ff">
          <path
             d="M 0.96875,-6.625 1.5,-6.59375 c 0.234375,0 0.34375,0.078125 0.34375,0.265625 0,0.140625 -0.046875,0.453125 -0.09375,0.75 l -0.859375,5.03125 c -0.046875,0.171875 -0.15625,0.25 -0.578125,0.3125 L 0.265625,0.03125 0.625,0.015625 C 0.890625,0 1.046875,0 1.171875,0 1.28125,0 1.53125,0.015625 1.796875,0.015625 L 2.15625,0.03125 2.359375,0.046875 c 0.1875,0 0.328125,0.015625 0.40625,0.015625 0.46875,0 0.953125,-0.140625 1.421875,-0.421875 0.78125,-0.46875 1.21875,-1.140625 1.21875,-1.90625 0,-0.421875 -0.125,-0.75 -0.40625,-0.96875 -0.25,-0.21875 -0.546875,-0.296875 -1.234375,-0.40625 0.5625,-0.203125 0.8125,-0.3125 1.125,-0.59375 0.453125,-0.390625 0.6875,-0.859375 0.6875,-1.375 C 5.578125,-6.421875 5,-6.890625 4,-6.890625 c -0.015625,0 -0.125,0 -0.265625,0 L 3.09375,-6.875 c -0.109375,0 -0.46875,0 -0.59375,0 -0.1875,0 -0.5,0 -0.984375,-0.015625 H 1 Z m 1.1875,3.234375 h 0.859375 c 1.015625,0 1.515625,0.421875 1.515625,1.28125 0,1.03125 -0.71875,1.765625 -1.71875,1.765625 -0.203125,0 -0.484375,0 -0.8125,-0.03125 C 1.9375,-0.390625 1.8125,-0.40625 1.65625,-0.40625 Z m 0.5625,-3.09375 c 0.109375,0 0.125,0 0.328125,-0.015625 0.21875,-0.015625 0.34375,-0.03125 0.46875,-0.03125 0.796875,0 1.203125,0.359375 1.203125,1.109375 C 4.71875,-4.375 3.984375,-3.75 2.734375,-3.75 H 2.21875 Z m 0,0"
             id="id-192a3419-f811-4302-8714-9bd9151d428e"
             style="stroke-width:0.58381;fill:#0000ff" />
        </g>
      </g>
      <g
         fill="#000000"
         fill-opacity="1"
         id="id-6e66ff55-b578-4cf1-8abd-bff0e617a52f"
         transform="translate(-149.868,-126.984)"
         style="stroke-width:0.58381;fill:#0000ff">
        <g
           transform="translate(176.9,134.765)"
           id="g27"
           style="stroke-width:0.58381;fill:#0000ff">
          <path
             d="m 3,-2.59375 c 0,-0.8125 -0.109375,-2.0625 -0.6875,-3.234375 -0.625,-1.28125 -1.515625,-1.953125 -1.625,-1.953125 -0.046875,0 -0.09375,0.046875 -0.09375,0.109375 0,0.03125 0,0.046875 0.1875,0.234375 1.03125,1.03125 1.609375,2.671875 1.609375,4.84375 0,1.78125 -0.375,3.59375 -1.671875,4.90625 -0.125,0.125 -0.125,0.140625 -0.125,0.171875 0,0.0625 0.046875,0.109375 0.09375,0.109375 0.109375,0 1.046875,-0.703125 1.65625,-2.015625 C 2.875,-0.578125 3,-1.71875 3,-2.59375 Z m 0,0"
             id="id-fc3e7e8e-4c4d-4251-89ee-05bf54e2875b"
             style="stroke-width:0.58381;fill:#0000ff" />
        </g>
      </g>
      <g
         fill="#000000"
         fill-opacity="1"
         id="id-167c6ae6-e2a1-432a-aa88-cc9be72ef45a"
         transform="translate(-149.868,-126.984)"
         style="stroke-width:0.58381;fill:#0000ff">
        <g
           transform="translate(183.111,134.765)"
           id="g28"
           style="stroke-width:0.58381;fill:#0000ff">
          <path
             d="m 6.34375,-3.9375 c 0,-1.578125 -1.59375,-2.265625 -2.890625,-2.265625 -1.34375,0 -2.875,0.71875 -2.875,2.25 v 3.8125 c 0,0.1875 0,0.375 0.203125,0.375 0.203125,0 0.203125,-0.1875 0.203125,-0.375 V -3.90625 c 0,-1.546875 1.6875,-1.890625 2.46875,-1.890625 0.46875,0 1.125,0.09375 1.671875,0.453125 0.796875,0.515625 0.796875,1.171875 0.796875,1.453125 v 3.75 c 0,0.1875 0,0.375 0.203125,0.375 0.21875,0 0.21875,-0.1875 0.21875,-0.375 z m 0,0"
             id="id-f2bd2c31-c375-4819-982e-a20c959d3af9"
             style="stroke-width:0.58381;fill:#0000ff" />
        </g>
      </g>
      <g
         fill="#000000"
         fill-opacity="1"
         id="id-a6d2cdbb-ce9c-4f42-87d1-7a5fe9498b3b"
         transform="translate(-149.868,-126.984)"
         style="stroke-width:0.58381;fill:#0000ff">
        <g
           transform="translate(192.172,134.765)"
           id="g29"
           style="stroke-width:0.58381;fill:#0000ff">
          <path
             d="M 5.953125,-5.171875 H 6.21875 c 0.046875,-0.5625 0.125,-1 0.265625,-1.453125 -0.75,-0.296875 -1.328125,-0.40625 -1.9375,-0.40625 -0.8125,0 -1.640625,0.25 -2.328125,0.71875 -1.171875,0.78125 -1.765625,1.953125 -1.765625,3.484375 0,1.9375 1.0625,3 2.96875,3 0.953125,0 1.65625,-0.21875 2.5625,-0.84375 l 0.09375,-0.359375 -0.09375,-0.0625 c -0.9375,0.5625 -1.453125,0.75 -2.234375,0.75 -1.5625,0 -2.421875,-0.96875 -2.421875,-2.734375 0,-1.109375 0.34375,-2.09375 0.9375,-2.71875 0.46875,-0.46875 1.109375,-0.71875 1.90625,-0.71875 0.703125,0 1.21875,0.140625 1.78125,0.5 z m 0,0"
             id="id-387b5bff-0f1d-41d3-95ab-f213b57ec145"
             style="stroke-width:0.58381;fill:#0000ff" />
        </g>
      </g>
    </g>
    <path
       style="fill:#5599ff;fill-rule:evenodd;stroke:#000000;stroke-width:0.499999;stroke-dasharray:none;marker-end:url(#marker31)"
       d="m 48.418749,172.24375 c 9.877779,-5.46806 19.755555,-10.93611 29.633333,-16.40417"
       id="path30"
       inkscape:path-effect="#path-effect30"
       inkscape:original-d="m 48.418749,172.24375 c 9.877777,-5.46806 19.755557,-10.93611 29.633333,-16.40417" />
  </g>
</svg>
