<?xml version="1.0" encoding="UTF-8" standalone="no"?>
<!-- Created with Inkscape (http://www.inkscape.org/) -->

<svg
   id="svg5"
   version="1.1"
   viewBox="0 0 177.22707 80.915894"
   height="80.915894mm"
   width="177.22707mm"
   sodipodi:docname="prob-15-06-23_01.svg"
   inkscape:version="1.2.2 (b0a84865, 2022-12-01)"
   xmlns:inkscape="http://www.inkscape.org/namespaces/inkscape"
   xmlns:sodipodi="http://sodipodi.sourceforge.net/DTD/sodipodi-0.dtd"
   xmlns="http://www.w3.org/2000/svg"
   xmlns:svg="http://www.w3.org/2000/svg"
   xmlns:ns16="http://www.iki.fi/pav/software/textext/">
  <sodipodi:namedview
     id="namedview7"
     pagecolor="#ffffff"
     bordercolor="#000000"
     borderopacity="0.25"
     inkscape:showpageshadow="2"
     inkscape:pageopacity="0.0"
     inkscape:pagecheckerboard="0"
     inkscape:deskcolor="#d1d1d1"
     inkscape:document-units="mm"
     showgrid="false"
     inkscape:zoom="1"
     inkscape:cx="305"
     inkscape:cy="268"
     inkscape:window-width="1512"
     inkscape:window-height="916"
     inkscape:window-x="0"
     inkscape:window-y="38"
     inkscape:window-maximized="1"
     inkscape:current-layer="layer1" />
  <defs
     id="defs2">
    <g
       id="id-80784894-35de-4a17-a284-19ea624754e8">
      <g
         id="id-4b0359d6-1fe4-40ca-b286-d24b6f1dde37" />
      <g
         id="id-a771ff85-188b-40fe-bffa-ee2ecc5d56e1">
        <path
           d="M 2.03125,-1.328125 C 1.609375,-0.625 1.203125,-0.375 0.640625,-0.34375 0.5,-0.328125 0.40625,-0.328125 0.40625,-0.125 c 0,0.078125 0.0625,0.125 0.140625,0.125 0.21875,0 0.75,-0.03125 0.96875,-0.03125 C 1.859375,-0.03125 2.25,0 2.578125,0 c 0.078125,0 0.21875,0 0.21875,-0.234375 0,-0.09375 -0.09375,-0.109375 -0.171875,-0.109375 -0.265625,-0.03125 -0.5,-0.125 -0.5,-0.40625 0,-0.171875 0.078125,-0.296875 0.234375,-0.5625 l 0.90625,-1.515625 H 6.3125 c 0.015625,0.109375 0.015625,0.203125 0.015625,0.3125 0.046875,0.3125 0.1875,1.5625 0.1875,1.78125 0,0.359375 -0.609375,0.390625 -0.796875,0.390625 -0.140625,0 -0.265625,0 -0.265625,0.21875 C 5.453125,0 5.5625,0 5.625,0 5.828125,0 6.078125,-0.03125 6.28125,-0.03125 H 6.953125 C 7.6875,-0.03125 8.21875,0 8.21875,0 8.3125,0 8.4375,0 8.4375,-0.234375 8.4375,-0.34375 8.328125,-0.34375 8.15625,-0.34375 7.5,-0.34375 7.484375,-0.453125 7.453125,-0.8125 L 6.71875,-8.265625 c -0.03125,-0.25 -0.078125,-0.265625 -0.203125,-0.265625 -0.125,0 -0.1875,0.015625 -0.296875,0.203125 z M 3.46875,-3.171875 5.875,-7.1875 6.28125,-3.171875 Z m 0,0"
           id="id-b7d18ae7-de6a-4d70-a1d2-894a1837cfbe" />
      </g>
      <g
         id="id-8f2e4532-e657-4133-9362-74fc050eaa70">
        <path
           d="M 4.375,-7.34375 C 4.484375,-7.796875 4.53125,-7.8125 5,-7.8125 h 1.546875 c 1.359375,0 1.359375,1.140625 1.359375,1.25 0,0.96875 -0.96875,2.203125 -2.546875,2.203125 h -1.71875 z m 2.015625,3.078125 C 7.703125,-4.5 8.875,-5.421875 8.875,-6.515625 8.875,-7.453125 8.0625,-8.15625 6.703125,-8.15625 H 2.875 c -0.234375,0 -0.34375,0 -0.34375,0.21875 0,0.125 0.109375,0.125 0.296875,0.125 0.71875,0 0.71875,0.09375 0.71875,0.21875 0,0.03125 0,0.09375 -0.046875,0.28125 L 1.890625,-0.890625 C 1.78125,-0.46875 1.75,-0.34375 0.921875,-0.34375 c -0.234375,0 -0.34375,0 -0.34375,0.21875 0,0.125 0.0625,0.125 0.3125,0.125 h 4.09375 C 6.8125,0 8.21875,-1.390625 8.21875,-2.59375 c 0,-0.984375 -0.859375,-1.578125 -1.828125,-1.671875 z m -1.6875,3.921875 h -1.625 c -0.15625,0 -0.1875,0 -0.25,-0.015625 -0.140625,-0.015625 -0.15625,-0.03125 -0.15625,-0.125 0,-0.09375 0.03125,-0.15625 0.046875,-0.265625 L 3.5625,-4.125 h 2.25 c 1.40625,0 1.40625,1.3125 1.40625,1.40625 0,1.15625 -1.03125,2.375 -2.515625,2.375 z m 0,0"
           id="id-5237188f-6af7-4279-8cd2-7285649d1142" />
      </g>
      <g
         id="id-8c8a1ef0-e5a9-4e66-8412-ccfb216bf1b2">
        <path
           d="m 2.328125,0.046875 c 0,-0.6875 -0.21875,-1.203125 -0.71875,-1.203125 -0.375,0 -0.5625,0.3125 -0.5625,0.578125 C 1.046875,-0.328125 1.21875,0 1.625,0 1.78125,0 1.90625,-0.046875 2.015625,-0.15625 2.046875,-0.171875 2.0625,-0.171875 2.0625,-0.171875 c 0.03125,0 0.03125,0.15625 0.03125,0.21875 C 2.09375,0.4375 2.015625,1.21875 1.328125,2 1.1875,2.140625 1.1875,2.15625 1.1875,2.1875 c 0,0.0625 0.0625,0.125 0.125,0.125 0.09375,0 1.015625,-0.890625 1.015625,-2.265625 z m 0,0"
           id="id-bc31f4bf-3714-46a7-a156-ae0bf08a8a70" />
      </g>
      <g
         id="id-f427a10a-b81d-4263-9a51-20ea7ac30422" />
      <g
         id="id-bfb27a13-7835-4849-b462-77dfd16cd414">
        <path
           d="m 8.0625,-3.875 c 0.171875,0 0.390625,0 0.390625,-0.21875 C 8.453125,-4.3125 8.25,-4.3125 8.0625,-4.3125 H 1.03125 c -0.171875,0 -0.390625,0 -0.390625,0.21875 0,0.21875 0.203125,0.21875 0.390625,0.21875 z m 0,2.21875 c 0.171875,0 0.390625,0 0.390625,-0.203125 C 8.453125,-2.09375 8.25,-2.09375 8.0625,-2.09375 H 1.03125 c -0.171875,0 -0.390625,0 -0.390625,0.21875 0,0.21875 0.203125,0.21875 0.390625,0.21875 z m 0,0"
           id="id-37f5f7a6-2704-44f0-8fa7-bc071015cf66" />
      </g>
      <g
         id="id-fcc7fc64-eccc-4d81-969a-781d07390f9d">
        <path
           d="m 2.984375,2.984375 v -0.4375 h -1.15625 v -11.0625 h 1.15625 V -8.96875 H 1.390625 V 2.984375 Z m 0,0"
           id="id-50bb7374-c764-4163-8586-ea52b200cea2" />
      </g>
      <g
         id="id-e363e5dc-69da-4893-9d83-30ab45072a23">
        <path
           d="m 5.359375,-3.828125 c 0,-0.984375 -0.0625,-1.953125 -0.5,-2.859375 -0.484375,-1 -1.34375,-1.265625 -1.9375,-1.265625 -0.6875,0 -1.53125,0.34375 -1.984375,1.34375 -0.328125,0.75 -0.453125,1.5 -0.453125,2.78125 0,1.15625 0.09375,2.03125 0.515625,2.890625 0.46875,0.90625 1.296875,1.1875 1.921875,1.1875 1.03125,0 1.625,-0.625 1.984375,-1.3125 0.421875,-0.890625 0.453125,-2.0625 0.453125,-2.765625 z m -2.4375,3.84375 C 2.53125,0.015625 1.75,-0.203125 1.53125,-1.5 c -0.125,-0.71875 -0.125,-1.625 -0.125,-2.46875 0,-0.984375 0,-1.859375 0.1875,-2.5625 0.203125,-0.8125 0.8125,-1.171875 1.328125,-1.171875 0.453125,0 1.140625,0.265625 1.375,1.296875 0.15625,0.6875 0.15625,1.625 0.15625,2.4375 0,0.796875 0,1.703125 -0.140625,2.4375 -0.21875,1.3125 -0.984375,1.546875 -1.390625,1.546875 z m 0,0"
           id="id-c6611510-7365-47b0-a4d3-54639e28f621" />
      </g>
      <g
         id="id-11821983-6b0f-41e4-b9e0-aa3909b72b6c">
        <path
           d="m 3.4375,-7.65625 c 0,-0.28125 0,-0.296875 -0.234375,-0.296875 C 2.921875,-7.625 2.3125,-7.1875 1.09375,-7.1875 v 0.34375 c 0.265625,0 0.859375,0 1.53125,-0.296875 v 6.21875 c 0,0.4375 -0.046875,0.578125 -1.09375,0.578125 h -0.375 V 0 c 0.328125,-0.03125 1.484375,-0.03125 1.875,-0.03125 0.40625,0 1.546875,0 1.875,0.03125 v -0.34375 h -0.375 c -1.046875,0 -1.09375,-0.140625 -1.09375,-0.578125 z m 0,0"
           id="id-7b917f51-5644-4617-b5f2-c877af4623a6" />
      </g>
      <g
         id="id-a64b1101-dcce-4b4d-a5c2-bc1ca904f748">
        <path
           d="M 1.859375,-8.96875 H 0.25 v 0.453125 h 1.15625 v 11.0625 H 0.25 v 0.4375 h 1.609375 z m 0,0"
           id="id-6d51cdce-0171-4207-bc30-75701a81e897" />
      </g>
      <g
         id="id-0e1af2be-b881-4e01-9eee-98bcd3f2a73e">
        <path
           d="m 3.890625,2.90625 c 0,-0.03125 0,-0.0625 -0.203125,-0.265625 C 2.484375,1.4375 1.8125,-0.53125 1.8125,-2.96875 c 0,-2.328125 0.5625,-4.328125 1.953125,-5.734375 0.125,-0.109375 0.125,-0.125 0.125,-0.171875 0,-0.0625 -0.0625,-0.09375 -0.109375,-0.09375 -0.15625,0 -1.140625,0.859375 -1.71875,2.03125 -0.609375,1.21875 -0.890625,2.484375 -0.890625,3.96875 0,1.0625 0.171875,2.484375 0.78125,3.75 C 2.671875,2.21875 3.640625,3 3.78125,3 3.828125,3 3.890625,2.96875 3.890625,2.90625 Z m 0,0"
           id="id-1dd8faac-667a-4915-a342-338a66811055" />
      </g>
      <g
         id="id-e87acdb3-dcab-4ea4-8c89-75a84ae2f95c">
        <path
           d="M 3.375,-2.96875 C 3.375,-3.890625 3.25,-5.359375 2.578125,-6.75 1.875,-8.1875 0.890625,-8.96875 0.765625,-8.96875 c -0.046875,0 -0.109375,0.03125 -0.109375,0.09375 0,0.046875 0,0.0625 0.203125,0.265625 1.203125,1.203125 1.859375,3.1875 1.859375,5.625 0,2.3125 -0.5625,4.3125 -1.9375,5.71875 C 0.65625,2.84375 0.65625,2.875 0.65625,2.90625 0.65625,2.96875 0.71875,3 0.765625,3 0.921875,3 1.90625,2.140625 2.484375,0.96875 3.09375,-0.25 3.375,-1.546875 3.375,-2.96875 Z m 0,0"
           id="id-8d2681e7-016d-451c-bd49-b875d9b02e68" />
      </g>
      <g
         id="id-0fbbb361-71b6-4f65-b707-770be6d5b00d" />
      <g
         id="id-3495c9d4-3e70-444a-93d3-8721c7ab1a40">
        <path
           d="m 7.875,-2.75 c 0.203125,0 0.421875,0 0.421875,-0.234375 0,-0.25 -0.21875,-0.25 -0.421875,-0.25 H 1.40625 c -0.203125,0 -0.421875,0 -0.421875,0.25 0,0.234375 0.21875,0.234375 0.421875,0.234375 z m 0,0"
           id="id-f596de27-1d91-485d-a447-103ee8bd9e37" />
      </g>
      <g
         id="id-58bce1c7-8adc-470e-b982-8236b4f245a2">
        <path
           d="m 3.375,-7.375 c 0,-0.484375 0.3125,-1.25 1.625,-1.328125 0.0625,-0.015625 0.109375,-0.0625 0.109375,-0.125 0,-0.140625 -0.09375,-0.140625 -0.234375,-0.140625 -1.1875,0 -2.28125,0.609375 -2.296875,1.5 V -4.75 c 0,0.46875 0,0.859375 -0.46875,1.25 -0.421875,0.34375 -0.875,0.375 -1.140625,0.375 -0.0625,0.015625 -0.109375,0.0625 -0.109375,0.140625 0,0.109375 0.078125,0.109375 0.1875,0.125 0.796875,0.046875 1.375,0.484375 1.5,1.0625 0.03125,0.140625 0.03125,0.15625 0.03125,0.59375 V 1.15625 c 0,0.5 0,0.890625 0.578125,1.34375 0.46875,0.359375 1.25,0.484375 1.71875,0.484375 0.140625,0 0.234375,0 0.234375,-0.125 0,-0.125 -0.078125,-0.125 -0.203125,-0.140625 C 4.15625,2.671875 3.578125,2.296875 3.421875,1.6875 3.375,1.578125 3.375,1.546875 3.375,1.125 v -2.515625 c 0,-0.546875 -0.09375,-0.75 -0.46875,-1.125 -0.25,-0.25 -0.59375,-0.375 -0.9375,-0.46875 C 2.953125,-3.265625 3.375,-3.8125 3.375,-4.5 Z m 0,0"
           id="id-8e8f0001-5c1e-4066-9e01-79cb99751b9f" />
      </g>
      <g
         id="id-4f748ab3-1cf2-4f6f-8a7c-d9e4426d7650">
        <path
           d="m 2.578125,1.40625 c 0,0.46875 -0.3125,1.234375 -1.609375,1.3125 -0.0625,0.015625 -0.109375,0.0625 -0.109375,0.140625 0,0.125 0.125,0.125 0.234375,0.125 C 2.265625,2.984375 3.375,2.40625 3.375,1.5 v -2.734375 c 0,-0.46875 0,-0.84375 0.484375,-1.234375 0.421875,-0.359375 0.875,-0.375 1.140625,-0.390625 0.0625,-0.015625 0.109375,-0.0625 0.109375,-0.125 0,-0.125 -0.078125,-0.125 -0.203125,-0.140625 C 4.125,-3.171875 3.546875,-3.59375 3.421875,-4.1875 3.375,-4.3125 3.375,-4.34375 3.375,-4.765625 v -2.375 c 0,-0.5 0,-0.875 -0.5625,-1.328125 -0.484375,-0.375 -1.3125,-0.5 -1.71875,-0.5 -0.109375,0 -0.234375,0 -0.234375,0.140625 0,0.109375 0.078125,0.109375 0.1875,0.125 0.765625,0.046875 1.34375,0.4375 1.5,1.046875 0.03125,0.109375 0.03125,0.125 0.03125,0.5625 v 2.5 c 0,0.546875 0.09375,0.75 0.484375,1.140625 0.25,0.25 0.59375,0.375 0.9375,0.46875 C 3.015625,-2.71875 2.578125,-2.15625 2.578125,-1.46875 Z m 0,0"
           id="id-c4da1516-5a79-436b-8142-617afcc8d6e0" />
      </g>
    </g>
    <g
       id="id-e88371d5-ad8e-4e1b-9535-17c5b68ef61b">
      <g
         id="id-27c6c948-6abe-4f52-8377-668c01c38dd1" />
      <g
         id="id-7ac280c7-b1e3-43cc-851c-85e3ed6ad8c4">
        <path
           d="M 2.03125,-1.328125 C 1.609375,-0.625 1.203125,-0.375 0.640625,-0.34375 0.5,-0.328125 0.40625,-0.328125 0.40625,-0.125 c 0,0.078125 0.0625,0.125 0.140625,0.125 0.21875,0 0.75,-0.03125 0.96875,-0.03125 C 1.859375,-0.03125 2.25,0 2.578125,0 c 0.078125,0 0.21875,0 0.21875,-0.234375 0,-0.09375 -0.09375,-0.109375 -0.171875,-0.109375 -0.265625,-0.03125 -0.5,-0.125 -0.5,-0.40625 0,-0.171875 0.078125,-0.296875 0.234375,-0.5625 l 0.90625,-1.515625 H 6.3125 c 0.015625,0.109375 0.015625,0.203125 0.015625,0.3125 0.046875,0.3125 0.1875,1.5625 0.1875,1.78125 0,0.359375 -0.609375,0.390625 -0.796875,0.390625 -0.140625,0 -0.265625,0 -0.265625,0.21875 C 5.453125,0 5.5625,0 5.625,0 5.828125,0 6.078125,-0.03125 6.28125,-0.03125 H 6.953125 C 7.6875,-0.03125 8.21875,0 8.21875,0 8.3125,0 8.4375,0 8.4375,-0.234375 8.4375,-0.34375 8.328125,-0.34375 8.15625,-0.34375 7.5,-0.34375 7.484375,-0.453125 7.453125,-0.8125 L 6.71875,-8.265625 c -0.03125,-0.25 -0.078125,-0.265625 -0.203125,-0.265625 -0.125,0 -0.1875,0.015625 -0.296875,0.203125 z M 3.46875,-3.171875 5.875,-7.1875 6.28125,-3.171875 Z m 0,0"
           id="id-2d118bd8-0536-4a8b-be1e-dbfc2aa1019c" />
      </g>
    </g>
  </defs>
  <g
     inkscape:label="Layer 1"
     inkscape:groupmode="layer"
     id="layer1"
     transform="translate(-11.002087,-46.854553)">
    <path
       id="path360"
       style="opacity:0.98;fill:#0000ff;fill-opacity:0.504878;stroke:#000000;stroke-width:0.75;stroke-linecap:round;paint-order:stroke fill markers;stop-color:#000000"
       d="M 187.85416,82.272722 A 34.131248,34.131248 0 0 1 153.72291,116.40397 34.131248,34.131248 0 0 1 119.59167,82.272722 34.131248,34.131248 0 0 1 153.72291,48.141475 34.131248,34.131248 0 0 1 187.85416,82.272722 Z" />
    <path
       style="opacity:0.98;fill:#0000ff;fill-opacity:0.504878;stroke:#000000;stroke-width:0.75;stroke-linecap:round;paint-order:stroke fill markers;stop-color:#000000"
       d="m 46.879527,48.14659 c 18.46,0.448238 32.76006,15.553123 32.76005,34.121013 0,18.850167 -15.28108,34.131247 -34.13124,34.131247 -18.85017,0 -34.13125,-15.28108 -34.13125,-34.131247 0,-18.46602 14.66459,-33.506941 32.98334,-34.112315"
       id="path1123" />
    <circle
       id="path1188"
       style="fill:#f9f9f9;stroke:none;stroke-width:0.264583"
       cx="45.508335"
       cy="47.979553"
       r="1.125" />
    <g
       transform="matrix(0.619018,0,0,0.619018,53.367394,94.702599)"
       ns16:version="1.8.2"
       ns16:texconverter="pdflatex"
       ns16:pdfconverter="inkscape"
       ns16:text="$A = B[0,1] - \\{(0,1)\\}$"
       ns16:preamble="/Users/sachchidanandprasad/Library/Application Support/org.inkscape.Inkscape/config/inkscape/extensions/textext/default_packages.tex"
       ns16:scale="1.7546955875933306"
       ns16:alignment="middle center"
       ns16:stroke-to-path="0"
       ns16:jacobian_sqrt="0.619018"
       id="g1291">
      <defs
         id="id-06c80a66-3c57-4f6c-baf1-e4378662c872">
        <g
           id="g1803">
          <g
             id="g1745" />
          <g
             id="g1749">
            <path
               d="M 2.03125,-1.328125 C 1.609375,-0.625 1.203125,-0.375 0.640625,-0.34375 0.5,-0.328125 0.40625,-0.328125 0.40625,-0.125 c 0,0.078125 0.0625,0.125 0.140625,0.125 0.21875,0 0.75,-0.03125 0.96875,-0.03125 C 1.859375,-0.03125 2.25,0 2.578125,0 c 0.078125,0 0.21875,0 0.21875,-0.234375 0,-0.09375 -0.09375,-0.109375 -0.171875,-0.109375 -0.265625,-0.03125 -0.5,-0.125 -0.5,-0.40625 0,-0.171875 0.078125,-0.296875 0.234375,-0.5625 l 0.90625,-1.515625 H 6.3125 c 0.015625,0.109375 0.015625,0.203125 0.015625,0.3125 0.046875,0.3125 0.1875,1.5625 0.1875,1.78125 0,0.359375 -0.609375,0.390625 -0.796875,0.390625 -0.140625,0 -0.265625,0 -0.265625,0.21875 C 5.453125,0 5.5625,0 5.625,0 5.828125,0 6.078125,-0.03125 6.28125,-0.03125 H 6.953125 C 7.6875,-0.03125 8.21875,0 8.21875,0 8.3125,0 8.4375,0 8.4375,-0.234375 8.4375,-0.34375 8.328125,-0.34375 8.15625,-0.34375 7.5,-0.34375 7.484375,-0.453125 7.453125,-0.8125 L 6.71875,-8.265625 c -0.03125,-0.25 -0.078125,-0.265625 -0.203125,-0.265625 -0.125,0 -0.1875,0.015625 -0.296875,0.203125 z M 3.46875,-3.171875 5.875,-7.1875 6.28125,-3.171875 Z m 0,0"
               id="path1747" />
          </g>
          <g
             id="g1753">
            <path
               d="M 4.375,-7.34375 C 4.484375,-7.796875 4.53125,-7.8125 5,-7.8125 h 1.546875 c 1.359375,0 1.359375,1.140625 1.359375,1.25 0,0.96875 -0.96875,2.203125 -2.546875,2.203125 h -1.71875 z m 2.015625,3.078125 C 7.703125,-4.5 8.875,-5.421875 8.875,-6.515625 8.875,-7.453125 8.0625,-8.15625 6.703125,-8.15625 H 2.875 c -0.234375,0 -0.34375,0 -0.34375,0.21875 0,0.125 0.109375,0.125 0.296875,0.125 0.71875,0 0.71875,0.09375 0.71875,0.21875 0,0.03125 0,0.09375 -0.046875,0.28125 L 1.890625,-0.890625 C 1.78125,-0.46875 1.75,-0.34375 0.921875,-0.34375 c -0.234375,0 -0.34375,0 -0.34375,0.21875 0,0.125 0.0625,0.125 0.3125,0.125 h 4.09375 C 6.8125,0 8.21875,-1.390625 8.21875,-2.59375 c 0,-0.984375 -0.859375,-1.578125 -1.828125,-1.671875 z m -1.6875,3.921875 h -1.625 c -0.15625,0 -0.1875,0 -0.25,-0.015625 -0.140625,-0.015625 -0.15625,-0.03125 -0.15625,-0.125 0,-0.09375 0.03125,-0.15625 0.046875,-0.265625 L 3.5625,-4.125 h 2.25 c 1.40625,0 1.40625,1.3125 1.40625,1.40625 0,1.15625 -1.03125,2.375 -2.515625,2.375 z m 0,0"
               id="path1751" />
          </g>
          <g
             id="g1757">
            <path
               d="m 2.328125,0.046875 c 0,-0.6875 -0.21875,-1.203125 -0.71875,-1.203125 -0.375,0 -0.5625,0.3125 -0.5625,0.578125 C 1.046875,-0.328125 1.21875,0 1.625,0 1.78125,0 1.90625,-0.046875 2.015625,-0.15625 2.046875,-0.171875 2.0625,-0.171875 2.0625,-0.171875 c 0.03125,0 0.03125,0.15625 0.03125,0.21875 C 2.09375,0.4375 2.015625,1.21875 1.328125,2 1.1875,2.140625 1.1875,2.15625 1.1875,2.1875 c 0,0.0625 0.0625,0.125 0.125,0.125 0.09375,0 1.015625,-0.890625 1.015625,-2.265625 z m 0,0"
               id="path1755" />
          </g>
          <g
             id="g1759" />
          <g
             id="g1763">
            <path
               d="m 8.0625,-3.875 c 0.171875,0 0.390625,0 0.390625,-0.21875 C 8.453125,-4.3125 8.25,-4.3125 8.0625,-4.3125 H 1.03125 c -0.171875,0 -0.390625,0 -0.390625,0.21875 0,0.21875 0.203125,0.21875 0.390625,0.21875 z m 0,2.21875 c 0.171875,0 0.390625,0 0.390625,-0.203125 C 8.453125,-2.09375 8.25,-2.09375 8.0625,-2.09375 H 1.03125 c -0.171875,0 -0.390625,0 -0.390625,0.21875 0,0.21875 0.203125,0.21875 0.390625,0.21875 z m 0,0"
               id="path1761" />
          </g>
          <g
             id="g1767">
            <path
               d="m 2.984375,2.984375 v -0.4375 h -1.15625 v -11.0625 h 1.15625 V -8.96875 H 1.390625 V 2.984375 Z m 0,0"
               id="path1765" />
          </g>
          <g
             id="g1771">
            <path
               d="m 5.359375,-3.828125 c 0,-0.984375 -0.0625,-1.953125 -0.5,-2.859375 -0.484375,-1 -1.34375,-1.265625 -1.9375,-1.265625 -0.6875,0 -1.53125,0.34375 -1.984375,1.34375 -0.328125,0.75 -0.453125,1.5 -0.453125,2.78125 0,1.15625 0.09375,2.03125 0.515625,2.890625 0.46875,0.90625 1.296875,1.1875 1.921875,1.1875 1.03125,0 1.625,-0.625 1.984375,-1.3125 0.421875,-0.890625 0.453125,-2.0625 0.453125,-2.765625 z m -2.4375,3.84375 C 2.53125,0.015625 1.75,-0.203125 1.53125,-1.5 c -0.125,-0.71875 -0.125,-1.625 -0.125,-2.46875 0,-0.984375 0,-1.859375 0.1875,-2.5625 0.203125,-0.8125 0.8125,-1.171875 1.328125,-1.171875 0.453125,0 1.140625,0.265625 1.375,1.296875 0.15625,0.6875 0.15625,1.625 0.15625,2.4375 0,0.796875 0,1.703125 -0.140625,2.4375 -0.21875,1.3125 -0.984375,1.546875 -1.390625,1.546875 z m 0,0"
               id="path1769" />
          </g>
          <g
             id="g1775">
            <path
               d="m 3.4375,-7.65625 c 0,-0.28125 0,-0.296875 -0.234375,-0.296875 C 2.921875,-7.625 2.3125,-7.1875 1.09375,-7.1875 v 0.34375 c 0.265625,0 0.859375,0 1.53125,-0.296875 v 6.21875 c 0,0.4375 -0.046875,0.578125 -1.09375,0.578125 h -0.375 V 0 c 0.328125,-0.03125 1.484375,-0.03125 1.875,-0.03125 0.40625,0 1.546875,0 1.875,0.03125 v -0.34375 h -0.375 c -1.046875,0 -1.09375,-0.140625 -1.09375,-0.578125 z m 0,0"
               id="path1773" />
          </g>
          <g
             id="g1779">
            <path
               d="M 1.859375,-8.96875 H 0.25 v 0.453125 h 1.15625 v 11.0625 H 0.25 v 0.4375 h 1.609375 z m 0,0"
               id="path1777" />
          </g>
          <g
             id="g1783">
            <path
               d="m 3.890625,2.90625 c 0,-0.03125 0,-0.0625 -0.203125,-0.265625 C 2.484375,1.4375 1.8125,-0.53125 1.8125,-2.96875 c 0,-2.328125 0.5625,-4.328125 1.953125,-5.734375 0.125,-0.109375 0.125,-0.125 0.125,-0.171875 0,-0.0625 -0.0625,-0.09375 -0.109375,-0.09375 -0.15625,0 -1.140625,0.859375 -1.71875,2.03125 -0.609375,1.21875 -0.890625,2.484375 -0.890625,3.96875 0,1.0625 0.171875,2.484375 0.78125,3.75 C 2.671875,2.21875 3.640625,3 3.78125,3 3.828125,3 3.890625,2.96875 3.890625,2.90625 Z m 0,0"
               id="path1781" />
          </g>
          <g
             id="g1787">
            <path
               d="M 3.375,-2.96875 C 3.375,-3.890625 3.25,-5.359375 2.578125,-6.75 1.875,-8.1875 0.890625,-8.96875 0.765625,-8.96875 c -0.046875,0 -0.109375,0.03125 -0.109375,0.09375 0,0.046875 0,0.0625 0.203125,0.265625 1.203125,1.203125 1.859375,3.1875 1.859375,5.625 0,2.3125 -0.5625,4.3125 -1.9375,5.71875 C 0.65625,2.84375 0.65625,2.875 0.65625,2.90625 0.65625,2.96875 0.71875,3 0.765625,3 0.921875,3 1.90625,2.140625 2.484375,0.96875 3.09375,-0.25 3.375,-1.546875 3.375,-2.96875 Z m 0,0"
               id="path1785" />
          </g>
          <g
             id="g1789" />
          <g
             id="g1793">
            <path
               d="m 7.875,-2.75 c 0.203125,0 0.421875,0 0.421875,-0.234375 0,-0.25 -0.21875,-0.25 -0.421875,-0.25 H 1.40625 c -0.203125,0 -0.421875,0 -0.421875,0.25 0,0.234375 0.21875,0.234375 0.421875,0.234375 z m 0,0"
               id="path1791" />
          </g>
          <g
             id="g1797">
            <path
               d="m 3.375,-7.375 c 0,-0.484375 0.3125,-1.25 1.625,-1.328125 0.0625,-0.015625 0.109375,-0.0625 0.109375,-0.125 0,-0.140625 -0.09375,-0.140625 -0.234375,-0.140625 -1.1875,0 -2.28125,0.609375 -2.296875,1.5 V -4.75 c 0,0.46875 0,0.859375 -0.46875,1.25 -0.421875,0.34375 -0.875,0.375 -1.140625,0.375 -0.0625,0.015625 -0.109375,0.0625 -0.109375,0.140625 0,0.109375 0.078125,0.109375 0.1875,0.125 0.796875,0.046875 1.375,0.484375 1.5,1.0625 0.03125,0.140625 0.03125,0.15625 0.03125,0.59375 V 1.15625 c 0,0.5 0,0.890625 0.578125,1.34375 0.46875,0.359375 1.25,0.484375 1.71875,0.484375 0.140625,0 0.234375,0 0.234375,-0.125 0,-0.125 -0.078125,-0.125 -0.203125,-0.140625 C 4.15625,2.671875 3.578125,2.296875 3.421875,1.6875 3.375,1.578125 3.375,1.546875 3.375,1.125 v -2.515625 c 0,-0.546875 -0.09375,-0.75 -0.46875,-1.125 -0.25,-0.25 -0.59375,-0.375 -0.9375,-0.46875 C 2.953125,-3.265625 3.375,-3.8125 3.375,-4.5 Z m 0,0"
               id="path1795" />
          </g>
          <g
             id="g1801">
            <path
               d="m 2.578125,1.40625 c 0,0.46875 -0.3125,1.234375 -1.609375,1.3125 -0.0625,0.015625 -0.109375,0.0625 -0.109375,0.140625 0,0.125 0.125,0.125 0.234375,0.125 C 2.265625,2.984375 3.375,2.40625 3.375,1.5 v -2.734375 c 0,-0.46875 0,-0.84375 0.484375,-1.234375 0.421875,-0.359375 0.875,-0.375 1.140625,-0.390625 0.0625,-0.015625 0.109375,-0.0625 0.109375,-0.125 0,-0.125 -0.078125,-0.125 -0.203125,-0.140625 C 4.125,-3.171875 3.546875,-3.59375 3.421875,-4.1875 3.375,-4.3125 3.375,-4.34375 3.375,-4.765625 v -2.375 c 0,-0.5 0,-0.875 -0.5625,-1.328125 -0.484375,-0.375 -1.3125,-0.5 -1.71875,-0.5 -0.109375,0 -0.234375,0 -0.234375,0.140625 0,0.109375 0.078125,0.109375 0.1875,0.125 0.765625,0.046875 1.34375,0.4375 1.5,1.046875 0.03125,0.109375 0.03125,0.125 0.03125,0.5625 v 2.5 c 0,0.546875 0.09375,0.75 0.484375,1.140625 0.25,0.25 0.59375,0.375 0.9375,0.46875 C 3.015625,-2.71875 2.578125,-2.15625 2.578125,-1.46875 Z m 0,0"
               id="path1799" />
          </g>
        </g>
      </defs>
      <g
         transform="translate(-17.139039,44.888854)"
         ns16:version="1.8.2"
         ns16:texconverter="pdflatex"
         ns16:pdfconverter="inkscape"
         ns16:text="$A$"
         ns16:preamble="/Users/sachchidanandprasad/Library/Application Support/org.inkscape.Inkscape/config/inkscape/extensions/textext/default_packages.tex"
         ns16:scale="1.7546955875933306"
         ns16:alignment="middle center"
         ns16:stroke-to-path="0"
         ns16:jacobian_sqrt="1.0"
         id="g1541">
        <defs
           id="id-cba85e04-ca6f-4634-8af6-4c197168d5fc">
          <g
             id="g1812">
            <g
               id="g1806" />
            <g
               id="g1810">
              <path
                 d="M 2.03125,-1.328125 C 1.609375,-0.625 1.203125,-0.375 0.640625,-0.34375 0.5,-0.328125 0.40625,-0.328125 0.40625,-0.125 c 0,0.078125 0.0625,0.125 0.140625,0.125 0.21875,0 0.75,-0.03125 0.96875,-0.03125 C 1.859375,-0.03125 2.25,0 2.578125,0 c 0.078125,0 0.21875,0 0.21875,-0.234375 0,-0.09375 -0.09375,-0.109375 -0.171875,-0.109375 -0.265625,-0.03125 -0.5,-0.125 -0.5,-0.40625 0,-0.171875 0.078125,-0.296875 0.234375,-0.5625 l 0.90625,-1.515625 H 6.3125 c 0.015625,0.109375 0.015625,0.203125 0.015625,0.3125 0.046875,0.3125 0.1875,1.5625 0.1875,1.78125 0,0.359375 -0.609375,0.390625 -0.796875,0.390625 -0.140625,0 -0.265625,0 -0.265625,0.21875 C 5.453125,0 5.5625,0 5.625,0 5.828125,0 6.078125,-0.03125 6.28125,-0.03125 H 6.953125 C 7.6875,-0.03125 8.21875,0 8.21875,0 8.3125,0 8.4375,0 8.4375,-0.234375 8.4375,-0.34375 8.328125,-0.34375 8.15625,-0.34375 7.5,-0.34375 7.484375,-0.453125 7.453125,-0.8125 L 6.71875,-8.265625 c -0.03125,-0.25 -0.078125,-0.265625 -0.203125,-0.265625 -0.125,0 -0.1875,0.015625 -0.296875,0.203125 z M 3.46875,-3.171875 5.875,-7.1875 6.28125,-3.171875 Z m 0,0"
                 id="path1808" />
            </g>
          </g>
        </defs>
        <g
           fill="#000000"
           fill-opacity="1"
           id="id-5141f7e3-9c50-4410-a65f-e1d001a605da"
           transform="translate(-128.819,-129.222)">
          <g
             transform="translate(128.413,137.753)"
             id="g1538">
            <path
               d="M 2.03125,-1.328125 C 1.609375,-0.625 1.203125,-0.375 0.640625,-0.34375 0.5,-0.328125 0.40625,-0.328125 0.40625,-0.125 c 0,0.078125 0.0625,0.125 0.140625,0.125 0.21875,0 0.75,-0.03125 0.96875,-0.03125 C 1.859375,-0.03125 2.25,0 2.578125,0 c 0.078125,0 0.21875,0 0.21875,-0.234375 0,-0.09375 -0.09375,-0.109375 -0.171875,-0.109375 -0.265625,-0.03125 -0.5,-0.125 -0.5,-0.40625 0,-0.171875 0.078125,-0.296875 0.234375,-0.5625 l 0.90625,-1.515625 H 6.3125 c 0.015625,0.109375 0.015625,0.203125 0.015625,0.3125 0.046875,0.3125 0.1875,1.5625 0.1875,1.78125 0,0.359375 -0.609375,0.390625 -0.796875,0.390625 -0.140625,0 -0.265625,0 -0.265625,0.21875 C 5.453125,0 5.5625,0 5.625,0 5.828125,0 6.078125,-0.03125 6.28125,-0.03125 H 6.953125 C 7.6875,-0.03125 8.21875,0 8.21875,0 8.3125,0 8.4375,0 8.4375,-0.234375 8.4375,-0.34375 8.328125,-0.34375 8.15625,-0.34375 7.5,-0.34375 7.484375,-0.453125 7.453125,-0.8125 L 6.71875,-8.265625 c -0.03125,-0.25 -0.078125,-0.265625 -0.203125,-0.265625 -0.125,0 -0.1875,0.015625 -0.296875,0.203125 z M 3.46875,-3.171875 5.875,-7.1875 6.28125,-3.171875 Z m 0,0"
               id="id-00ab2d97-3155-48ec-836a-fa9b6eafa407" />
          </g>
        </g>
      </g>
    </g>
    <g
       transform="matrix(0.619018,0,0,0.619018,153.641,122.606)"
       ns16:version="1.8.2"
       ns16:texconverter="pdflatex"
       ns16:pdfconverter="inkscape"
       ns16:text="$B$"
       ns16:preamble="/Users/sachchidanandprasad/Library/Application Support/org.inkscape.Inkscape/config/inkscape/extensions/textext/default_packages.tex"
       ns16:scale="1.7546955875933306"
       ns16:alignment="middle center"
       ns16:stroke-to-path="0"
       ns16:jacobian_sqrt="0.619018"
       id="g1948">
      <defs
         id="id-2baba311-c57e-47ed-ac96-02e6d91b12dc">
        <g
           id="id-f1db1d50-5850-4775-a98f-b49486de9e07">
          <g
             id="id-0eec11f8-2eba-42a3-8658-f879d0363e6d" />
          <g
             id="id-bde2d1ab-4a8f-4a5f-b84f-5dab37693f94">
            <path
               d="M 4.375,-7.34375 C 4.484375,-7.796875 4.53125,-7.8125 5,-7.8125 h 1.546875 c 1.359375,0 1.359375,1.140625 1.359375,1.25 0,0.96875 -0.96875,2.203125 -2.546875,2.203125 h -1.71875 z m 2.015625,3.078125 C 7.703125,-4.5 8.875,-5.421875 8.875,-6.515625 8.875,-7.453125 8.0625,-8.15625 6.703125,-8.15625 H 2.875 c -0.234375,0 -0.34375,0 -0.34375,0.21875 0,0.125 0.109375,0.125 0.296875,0.125 0.71875,0 0.71875,0.09375 0.71875,0.21875 0,0.03125 0,0.09375 -0.046875,0.28125 L 1.890625,-0.890625 C 1.78125,-0.46875 1.75,-0.34375 0.921875,-0.34375 c -0.234375,0 -0.34375,0 -0.34375,0.21875 0,0.125 0.0625,0.125 0.3125,0.125 h 4.09375 C 6.8125,0 8.21875,-1.390625 8.21875,-2.59375 c 0,-0.984375 -0.859375,-1.578125 -1.828125,-1.671875 z m -1.6875,3.921875 h -1.625 c -0.15625,0 -0.1875,0 -0.25,-0.015625 -0.140625,-0.015625 -0.15625,-0.03125 -0.15625,-0.125 0,-0.09375 0.03125,-0.15625 0.046875,-0.265625 L 3.5625,-4.125 h 2.25 c 1.40625,0 1.40625,1.3125 1.40625,1.40625 0,1.15625 -1.03125,2.375 -2.515625,2.375 z m 0,0"
               id="id-7790401e-9ece-48c1-ad4d-6222ab72c19d" />
          </g>
        </g>
      </defs>
      <g
         fill="#000000"
         fill-opacity="1"
         id="id-70134fc3-0e63-41cd-97c7-1abe778161a6"
         transform="translate(-128.991,-129.597)">
        <g
           transform="translate(128.413,137.753)"
           id="g2161">
          <path
             d="M 4.375,-7.34375 C 4.484375,-7.796875 4.53125,-7.8125 5,-7.8125 h 1.546875 c 1.359375,0 1.359375,1.140625 1.359375,1.25 0,0.96875 -0.96875,2.203125 -2.546875,2.203125 h -1.71875 z m 2.015625,3.078125 C 7.703125,-4.5 8.875,-5.421875 8.875,-6.515625 8.875,-7.453125 8.0625,-8.15625 6.703125,-8.15625 H 2.875 c -0.234375,0 -0.34375,0 -0.34375,0.21875 0,0.125 0.109375,0.125 0.296875,0.125 0.71875,0 0.71875,0.09375 0.71875,0.21875 0,0.03125 0,0.09375 -0.046875,0.28125 L 1.890625,-0.890625 C 1.78125,-0.46875 1.75,-0.34375 0.921875,-0.34375 c -0.234375,0 -0.34375,0 -0.34375,0.21875 0,0.125 0.0625,0.125 0.3125,0.125 h 4.09375 C 6.8125,0 8.21875,-1.390625 8.21875,-2.59375 c 0,-0.984375 -0.859375,-1.578125 -1.828125,-1.671875 z m -1.6875,3.921875 h -1.625 c -0.15625,0 -0.1875,0 -0.25,-0.015625 -0.140625,-0.015625 -0.15625,-0.03125 -0.15625,-0.125 0,-0.09375 0.03125,-0.15625 0.046875,-0.265625 L 3.5625,-4.125 h 2.25 c 1.40625,0 1.40625,1.3125 1.40625,1.40625 0,1.15625 -1.03125,2.375 -2.515625,2.375 z m 0,0"
             id="id-d88a48dc-7f89-48e5-9a1e-a50b31914564" />
        </g>
      </g>
    </g>
    <g
       transform="matrix(1.152952,0,0,1.152952,95.39971,78.126285)"
       ns16:version="1.8.2"
       ns16:texconverter="pdflatex"
       ns16:pdfconverter="inkscape"
       ns16:text="$\\subsetneq$"
       ns16:preamble="/Users/sachchidanandprasad/Library/Application Support/org.inkscape.Inkscape/config/inkscape/extensions/textext/default_packages.tex"
       ns16:scale="1.7546955875933306"
       ns16:alignment="middle center"
       ns16:stroke-to-path="0"
       ns16:jacobian_sqrt="0.619018"
       id="g2367">
      <defs
         id="id-7c3e6619-894f-483e-91db-7b5df0c0215f">
        <g
           id="id-fe1055e6-6300-45bb-98c7-3a035574b093">
          <g
             id="id-78973d4d-2c93-48b6-b467-b334747a6fb7" />
          <g
             id="id-32bf44af-4531-41fa-a592-300be6ed4138">
            <path
               d="m 7.875,-7.125 c 0.203125,0 0.421875,0 0.421875,-0.234375 0,-0.25 -0.21875,-0.25 -0.421875,-0.25 H 4.65625 c -2.015625,0 -3.671875,1.53125 -3.671875,3.46875 0,1.9375 1.65625,3.453125 3.671875,3.453125 H 7.875 c 0.203125,0 0.421875,0 0.421875,-0.234375 0,-0.234375 -0.21875,-0.234375 -0.421875,-0.234375 H 4.703125 c -1.9375,0 -3.234375,-1.40625 -3.234375,-2.984375 0,-1.625 1.359375,-2.984375 3.21875,-2.984375 z m 0,8.765625 c 0.203125,0 0.421875,0 0.421875,-0.234375 0,-0.25 -0.21875,-0.25 -0.421875,-0.25 H 5.265625 C 5.515625,0.9375 5.9375,0.546875 5.984375,0.515625 6.125,0.375 6.15625,0.328125 6.15625,0.234375 6.15625,0.171875 6.109375,0 5.921875,0 5.84375,0 5.828125,0 5.5625,0.234375 L 4.546875,1.15625 H 1.65625 c -0.203125,0 -0.421875,0 -0.421875,0.25 0,0.234375 0.21875,0.234375 0.421875,0.234375 H 4.015625 C 3.78125,1.859375 3.34375,2.25 3.296875,2.28125 3.1875,2.40625 3.125,2.46875 3.125,2.5625 c 0,0.109375 0.078125,0.234375 0.25,0.234375 0.0625,0 0.09375,0 0.34375,-0.234375 L 4.734375,1.640625 Z m 0,0"
               id="id-069fcc1e-bb22-4a83-9ebe-3b56fbb53f50" />
          </g>
        </g>
      </defs>
      <g
         fill="#000000"
         fill-opacity="1"
         id="id-008fa5da-a1f6-4129-b75c-f09d41e972e7"
         transform="translate(-129.397,-130.144)">
        <g
           transform="translate(128.413,137.753)"
           id="g2364">
          <path
             d="m 7.875,-7.125 c 0.203125,0 0.421875,0 0.421875,-0.234375 0,-0.25 -0.21875,-0.25 -0.421875,-0.25 H 4.65625 c -2.015625,0 -3.671875,1.53125 -3.671875,3.46875 0,1.9375 1.65625,3.453125 3.671875,3.453125 H 7.875 c 0.203125,0 0.421875,0 0.421875,-0.234375 0,-0.234375 -0.21875,-0.234375 -0.421875,-0.234375 H 4.703125 c -1.9375,0 -3.234375,-1.40625 -3.234375,-2.984375 0,-1.625 1.359375,-2.984375 3.21875,-2.984375 z m 0,8.765625 c 0.203125,0 0.421875,0 0.421875,-0.234375 0,-0.25 -0.21875,-0.25 -0.421875,-0.25 H 5.265625 C 5.515625,0.9375 5.9375,0.546875 5.984375,0.515625 6.125,0.375 6.15625,0.328125 6.15625,0.234375 6.15625,0.171875 6.109375,0 5.921875,0 5.84375,0 5.828125,0 5.5625,0.234375 L 4.546875,1.15625 H 1.65625 c -0.203125,0 -0.421875,0 -0.421875,0.25 0,0.234375 0.21875,0.234375 0.421875,0.234375 H 4.015625 C 3.78125,1.859375 3.34375,2.25 3.296875,2.28125 3.1875,2.40625 3.125,2.46875 3.125,2.5625 c 0,0.109375 0.078125,0.234375 0.25,0.234375 0.0625,0 0.09375,0 0.34375,-0.234375 L 4.734375,1.640625 Z m 0,0"
             id="id-e263fae3-a83b-4bfb-83ff-f4b9709575d3" />
        </g>
      </g>
    </g>
  </g>
</svg>
