<?xml version="1.0" encoding="UTF-8" standalone="no"?>
<!-- Created with Inkscape (http://www.inkscape.org/) -->

<svg
   width="70.897568mm"
   height="65.843483mm"
   viewBox="0 0 70.897561 65.843477"
   version="1.1"
   id="svg1"
   inkscape:version="1.4 (e7c3feb1, 2024-10-09)"
   sodipodi:docname="prob-19-08-25_01.svg"
   xmlns:inkscape="http://www.inkscape.org/namespaces/inkscape"
   xmlns:sodipodi="http://sodipodi.sourceforge.net/DTD/sodipodi-0.dtd"
   xmlns="http://www.w3.org/2000/svg"
   xmlns:svg="http://www.w3.org/2000/svg"
   xmlns:ns1="http://www.iki.fi/pav/software/textext/">
  <sodipodi:namedview
     id="namedview1"
     pagecolor="#ffffff"
     bordercolor="#000000"
     borderopacity="0.25"
     inkscape:showpageshadow="2"
     inkscape:pageopacity="0.0"
     inkscape:pagecheckerboard="0"
     inkscape:deskcolor="#d1d1d1"
     inkscape:document-units="mm"
     showguides="true"
     inkscape:zoom="1"
     inkscape:cx="144"
     inkscape:cy="154"
     inkscape:window-width="1512"
     inkscape:window-height="916"
     inkscape:window-x="0"
     inkscape:window-y="38"
     inkscape:window-maximized="0"
     inkscape:current-layer="layer1">
    <sodipodi:guide
       position="17.856837,53.129411"
       orientation="0,-1"
       id="guide32"
       inkscape:locked="false" />
    <sodipodi:guide
       position="33.970534,35.631203"
       orientation="1,0"
       id="guide33"
       inkscape:locked="false" />
  </sodipodi:namedview>
  <defs
     id="defs1">
    <marker
       style="overflow:visible"
       id="ArrowWideRounded"
       refX="0"
       refY="0"
       orient="auto-start-reverse"
       inkscape:stockid="Wide, rounded arrow"
       markerWidth="1"
       markerHeight="1"
       viewBox="0 0 1 1"
       inkscape:isstock="true"
       inkscape:collect="always"
       preserveAspectRatio="xMidYMid">
      <path
         style="fill:none;stroke:context-stroke;stroke-width:1;stroke-linecap:round"
         d="M 3,-3 0,0 3,3"
         transform="rotate(180,0.125,0)"
         sodipodi:nodetypes="ccc"
         id="path3" />
    </marker>
  </defs>
  <g
     inkscape:label="Layer 1"
     inkscape:groupmode="layer"
     id="layer1"
     transform="translate(-39.5577, -86.568)">
    <path
       style="fill:#00ffff;fill-rule:evenodd;stroke:#333333;stroke-width:0.4;stroke-dasharray:none;marker-end:url(#ArrowWideRounded);paint-order:stroke fill markers"
       d="M 57.414583,152.4115 V 86.950862"
       id="path1" />
    <path
       style="fill:#00ffff;fill-rule:evenodd;stroke:#333333;stroke-width:0.4;stroke-dasharray:none;marker-end:url(#ArrowWideRounded);paint-order:stroke fill markers"
       d="M 39.557744,132.89399 H 110.07247"
       id="path2" />
    <circle
       style="fill:none;fill-rule:evenodd;stroke:#0000ff;stroke-width:0.499999;stroke-dasharray:none;paint-order:stroke fill markers"
       id="path4"
       cx="73.528282"
       cy="116.7803"
       r="16.098465" />
    <circle
       id="path33"
       style="fill:#ff0000;stroke:none;stroke-width:0.264583"
       cx="73.528282"
       cy="116.7803"
       r="0.61977422" />
    <g
       transform="matrix(0.38303643,0,0,0.38303643,74.782057,118.3698)"
       ns1:version="1.10.2"
       ns1:texconverter="pdflatex"
       ns1:pdfconverter="inkscape"
       ns1:text="$1+ \\iota$"
       ns1:preamble="/Users/sachchidanandprasad/Library/Application Support/org.inkscape.Inkscape/config/inkscape/extensions/textext/default_packages.tex"
       ns1:scale="2.658454183650908"
       ns1:alignment="middle center"
       ns1:stroke-to-path="0"
       ns1:inkscapeversion="1.4"
       ns1:jacobian_sqrt="0.937844"
       id="g36"
       style="stroke-width:2.44845">
      <defs
         id="id-93550d6a-37b9-40e1-8a13-a9594755ad5c">
        <g
           id="id-d60404af-f0ac-493b-af71-814fd8fa0524">
          <g
             id="id-8b5cb736-27f4-40d5-adb8-bdc146906da9">
            <path
               d="m 2.9375,-6.375 c 0,-0.25 0,-0.265625 -0.234375,-0.265625 C 2.078125,-6 1.203125,-6 0.890625,-6 v 0.3125 c 0.203125,0 0.78125,0 1.296875,-0.265625 v 5.171875 c 0,0.359375 -0.03125,0.46875 -0.921875,0.46875 h -0.3125 V 0 c 0.34375,-0.03125 1.203125,-0.03125 1.609375,-0.03125 0.390625,0 1.265625,0 1.609375,0.03125 v -0.3125 h -0.3125 c -0.90625,0 -0.921875,-0.109375 -0.921875,-0.46875 z m 0,0"
               id="id-2aa8981e-8b71-429d-9d5f-2fffca41663a" />
          </g>
          <g
             id="id-3c8acf84-b437-4048-9271-f3cc68e01f49">
            <path
               d="m 4.078125,-2.296875 h 2.78125 C 7,-2.296875 7.1875,-2.296875 7.1875,-2.5 7.1875,-2.6875 7,-2.6875 6.859375,-2.6875 h -2.78125 v -2.796875 c 0,-0.140625 0,-0.328125 -0.203125,-0.328125 -0.203125,0 -0.203125,0.1875 -0.203125,0.328125 V -2.6875 h -2.78125 c -0.140625,0 -0.328125,0 -0.328125,0.1875 0,0.203125 0.1875,0.203125 0.328125,0.203125 h 2.78125 V 0.5 c 0,0.140625 0,0.328125 0.203125,0.328125 0.203125,0 0.203125,-0.1875 0.203125,-0.328125 z m 0,0"
               id="id-f393a0cd-d446-4706-ad38-123ea24ac79f" />
          </g>
          <g
             id="id-f90c57a2-efa9-416f-8d7f-d0789dcefa03">
            <path
               d="m 3.234375,-1.421875 c 0,-0.109375 -0.09375,-0.109375 -0.125,-0.109375 -0.09375,0 -0.109375,0.046875 -0.125,0.109375 -0.3125,0.984375 -1.140625,1.3125 -1.5625,1.3125 -0.140625,0 -0.265625,-0.03125 -0.265625,-0.328125 0,-0.234375 0.078125,-0.46875 0.171875,-0.734375 C 1.78125,-2.375 2.1875,-4.0625 2.1875,-4.140625 2.1875,-4.3125 2.078125,-4.40625 1.90625,-4.40625 c -0.109375,0 -0.296875,0.0625 -0.375,0.265625 -0.0625,0.1875 -0.15625,0.671875 -0.21875,0.859375 -0.015625,0.046875 -0.265625,0.921875 -0.296875,1.0625 -0.03125,0.09375 -0.125,0.34375 -0.140625,0.4375 -0.078125,0.28125 -0.3125,0.75 -0.3125,1.078125 0,0.40625 0.28125,0.8125 0.828125,0.8125 1.140625,0 1.84375,-1.203125 1.84375,-1.53125 z m 0,0"
               id="id-25a95e85-bbf9-4dae-b07d-e49f901e89b1" />
          </g>
        </g>
      </defs>
      <g
         fill="#000000"
         fill-opacity="1"
         id="id-5b870ed4-2e97-44a2-96dd-4dd10093e4dc"
         transform="translate(-149.603,-128.124)"
         style="stroke-width:2.44845">
        <g
           transform="translate(148.712,134.765)"
           id="g33"
           style="stroke-width:2.44845">
          <path
             d="m 2.9375,-6.375 c 0,-0.25 0,-0.265625 -0.234375,-0.265625 C 2.078125,-6 1.203125,-6 0.890625,-6 v 0.3125 c 0.203125,0 0.78125,0 1.296875,-0.265625 v 5.171875 c 0,0.359375 -0.03125,0.46875 -0.921875,0.46875 h -0.3125 V 0 c 0.34375,-0.03125 1.203125,-0.03125 1.609375,-0.03125 0.390625,0 1.265625,0 1.609375,0.03125 v -0.3125 h -0.3125 c -0.90625,0 -0.921875,-0.109375 -0.921875,-0.46875 z m 0,0"
             id="id-2b4ba3be-2c59-41ae-bae8-851b6b41f716"
             style="stroke-width:2.44845" />
        </g>
      </g>
      <g
         fill="#000000"
         fill-opacity="1"
         id="id-586d9728-b3c8-434f-acbf-f89b641865f3"
         transform="translate(-149.603,-128.124)"
         style="stroke-width:2.44845">
        <g
           transform="translate(155.905,134.765)"
           id="g34"
           style="stroke-width:2.44845">
          <path
             d="m 4.078125,-2.296875 h 2.78125 C 7,-2.296875 7.1875,-2.296875 7.1875,-2.5 7.1875,-2.6875 7,-2.6875 6.859375,-2.6875 h -2.78125 v -2.796875 c 0,-0.140625 0,-0.328125 -0.203125,-0.328125 -0.203125,0 -0.203125,0.1875 -0.203125,0.328125 V -2.6875 h -2.78125 c -0.140625,0 -0.328125,0 -0.328125,0.1875 0,0.203125 0.1875,0.203125 0.328125,0.203125 h 2.78125 V 0.5 c 0,0.140625 0,0.328125 0.203125,0.328125 0.203125,0 0.203125,-0.1875 0.203125,-0.328125 z m 0,0"
             id="id-62611649-cd1f-499f-a2e9-9d731c8dd9ee"
             style="stroke-width:2.44845" />
        </g>
      </g>
      <g
         fill="#000000"
         fill-opacity="1"
         id="id-cf84238d-597a-45a0-9807-6694fc54ba0c"
         transform="translate(-149.603,-128.124)"
         style="stroke-width:2.44845">
        <g
           transform="translate(165.87,134.765)"
           id="g35"
           style="stroke-width:2.44845">
          <path
             d="m 3.234375,-1.421875 c 0,-0.109375 -0.09375,-0.109375 -0.125,-0.109375 -0.09375,0 -0.109375,0.046875 -0.125,0.109375 -0.3125,0.984375 -1.140625,1.3125 -1.5625,1.3125 -0.140625,0 -0.265625,-0.03125 -0.265625,-0.328125 0,-0.234375 0.078125,-0.46875 0.171875,-0.734375 C 1.78125,-2.375 2.1875,-4.0625 2.1875,-4.140625 2.1875,-4.3125 2.078125,-4.40625 1.90625,-4.40625 c -0.109375,0 -0.296875,0.0625 -0.375,0.265625 -0.0625,0.1875 -0.15625,0.671875 -0.21875,0.859375 -0.015625,0.046875 -0.265625,0.921875 -0.296875,1.0625 -0.03125,0.09375 -0.125,0.34375 -0.140625,0.4375 -0.078125,0.28125 -0.3125,0.75 -0.3125,1.078125 0,0.40625 0.28125,0.8125 0.828125,0.8125 1.140625,0 1.84375,-1.203125 1.84375,-1.53125 z m 0,0"
             id="id-38f2341f-9855-493a-b11b-f9d1ec337d6a"
             style="stroke-width:2.44845" />
        </g>
      </g>
    </g>
  </g>
</svg>
