<?xml version="1.0" encoding="UTF-8" standalone="no"?>
<!-- Created with Inkscape (http://www.inkscape.org/) -->

<svg
   width="139.44408mm"
   height="139.46642mm"
   viewBox="0 0 139.44407 139.46642"
   version="1.1"
   id="svg5"
   sodipodi:docname="prob-14-02-23_01.svg"
   inkscape:version="1.2.2 (1:1.2.2+202212051550+b0a8486541)"
   xmlns:inkscape="http://www.inkscape.org/namespaces/inkscape"
   xmlns:sodipodi="http://sodipodi.sourceforge.net/DTD/sodipodi-0.dtd"
   xmlns:xlink="http://www.w3.org/1999/xlink"
   xmlns="http://www.w3.org/2000/svg"
   xmlns:svg="http://www.w3.org/2000/svg">
  <sodipodi:namedview
     id="namedview7"
     pagecolor="#ffffff"
     bordercolor="#666666"
     borderopacity="1.0"
     inkscape:pageshadow="2"
     inkscape:pageopacity="0.0"
     inkscape:pagecheckerboard="0"
     inkscape:document-units="mm"
     showgrid="false"
     showborder="false"
     inkscape:zoom="1"
     inkscape:cx="185.5"
     inkscape:cy="234.5"
     inkscape:window-width="1600"
     inkscape:window-height="832"
     inkscape:window-x="0"
     inkscape:window-y="32"
     inkscape:window-maximized="1"
     inkscape:current-layer="layer1"
     inkscape:showpageshadow="0"
     inkscape:deskcolor="#d1d1d1"
     showguides="true">
    <inkscape:grid
       type="xygrid"
       id="grid928"
       originx="-28.977469"
       originy="-72.200248" />
  </sodipodi:namedview>
  <defs
     id="defs2">
    <marker
       style="overflow:visible"
       id="Arrow2Lend"
       refX="0"
       refY="0"
       orient="auto"
       inkscape:stockid="Arrow2Lend"
       inkscape:isstock="true">
      <path
         transform="matrix(-1.1,0,0,-1.1,-1.1,0)"
         d="M 8.7185878,4.0337352 -2.2072895,0.01601326 8.7185884,-4.0017078 c -1.7454984,2.3720609 -1.7354408,5.6174519 -6e-7,8.035443 z"
         style="fill:context-stroke;fill-rule:evenodd;stroke:context-stroke;stroke-width:0.625;stroke-linejoin:round"
         id="path1664" />
    </marker>
    <marker
       style="overflow:visible"
       id="Arrow2Mend"
       refX="0"
       refY="0"
       orient="auto"
       inkscape:stockid="Arrow2Mend"
       inkscape:isstock="true">
      <path
         transform="scale(-0.6)"
         d="M 8.7185878,4.0337352 -2.2072895,0.01601326 8.7185884,-4.0017078 c -1.7454984,2.3720609 -1.7354408,5.6174519 -6e-7,8.035443 z"
         style="fill:context-stroke;fill-rule:evenodd;stroke:context-stroke;stroke-width:0.625;stroke-linejoin:round"
         id="path1670" />
    </marker>
    <g
       id="g1454">
      <symbol
         overflow="visible"
         id="symbol5407">
        <path
           style="stroke:none"
           d=""
           id="path8903" />
      </symbol>
      <symbol
         overflow="visible"
         id="symbol9683">
        <path
           style="stroke:none"
           d="M 3.328125,-3.015625 C 3.390625,-3.265625 3.625,-4.1875 4.3125,-4.1875 c 0.046875,0 0.296875,0 0.5,0.125 C 4.53125,-4 4.34375,-3.765625 4.34375,-3.515625 c 0,0.15625 0.109375,0.34375 0.375,0.34375 0.21875,0 0.53125,-0.171875 0.53125,-0.578125 0,-0.515625 -0.578125,-0.65625 -0.921875,-0.65625 -0.578125,0 -0.921875,0.53125 -1.046875,0.75 -0.25,-0.65625 -0.78125,-0.75 -1.078125,-0.75 -1.03125,0 -1.609375,1.28125 -1.609375,1.53125 0,0.109375 0.109375,0.109375 0.125,0.109375 0.078125,0 0.109375,-0.03125 0.125,-0.109375 0.34375,-1.0625 1,-1.3125 1.34375,-1.3125 0.1875,0 0.53125,0.09375 0.53125,0.671875 0,0.3125 -0.171875,0.96875 -0.53125,2.375 -0.15625,0.609375 -0.515625,1.03125 -0.953125,1.03125 -0.0625,0 -0.28125,0 -0.5,-0.125 0.25,-0.0625 0.46875,-0.265625 0.46875,-0.546875 0,-0.265625 -0.21875,-0.34375 -0.359375,-0.34375 -0.3125,0 -0.546875,0.25 -0.546875,0.578125 0,0.453125 0.484375,0.65625 0.921875,0.65625 0.671875,0 1.03125,-0.703125 1.046875,-0.75 0.125,0.359375 0.484375,0.75 1.078125,0.75 1.03125,0 1.59375,-1.28125 1.59375,-1.53125 0,-0.109375 -0.078125,-0.109375 -0.109375,-0.109375 -0.09375,0 -0.109375,0.046875 -0.140625,0.109375 -0.328125,1.078125 -1,1.3125 -1.3125,1.3125 -0.390625,0 -0.546875,-0.3125 -0.546875,-0.65625 0,-0.21875 0.046875,-0.4375 0.15625,-0.875 z m 0,0"
           id="path8810" />
      </symbol>
    </g>
    <g
       id="g9584">
      <symbol
         overflow="visible"
         id="symbol7191">
        <path
           style="stroke:none"
           d=""
           id="path3990" />
      </symbol>
      <symbol
         overflow="visible"
         id="symbol1680">
        <path
           style="stroke:none"
           d="m 4.84375,-3.796875 c 0.046875,-0.140625 0.046875,-0.15625 0.046875,-0.234375 0,-0.171875 -0.140625,-0.265625 -0.296875,-0.265625 -0.09375,0 -0.25,0.0625 -0.34375,0.203125 -0.015625,0.0625 -0.109375,0.359375 -0.140625,0.546875 -0.078125,0.25 -0.140625,0.53125 -0.203125,0.796875 l -0.453125,1.796875 c -0.03125,0.140625 -0.46875,0.84375 -1.125,0.84375 -0.5,0 -0.609375,-0.4375 -0.609375,-0.8125 C 1.71875,-1.375 1.890625,-2 2.21875,-2.875 2.375,-3.28125 2.421875,-3.390625 2.421875,-3.59375 c 0,-0.4375 -0.3125,-0.8125 -0.8125,-0.8125 -0.953125,0 -1.3125,1.453125 -1.3125,1.53125 0,0.109375 0.09375,0.109375 0.109375,0.109375 0.109375,0 0.109375,-0.03125 0.15625,-0.1875 0.28125,-0.9375 0.671875,-1.234375 1.015625,-1.234375 0.078125,0 0.25,0 0.25,0.3125 0,0.25 -0.109375,0.515625 -0.171875,0.703125 -0.40625,1.0625 -0.578125,1.625 -0.578125,2.09375 0,0.890625 0.625,1.1875 1.21875,1.1875 0.390625,0 0.71875,-0.171875 1,-0.453125 -0.125,0.515625 -0.25,1.015625 -0.640625,1.546875 -0.265625,0.328125 -0.640625,0.625 -1.09375,0.625 -0.140625,0 -0.59375,-0.03125 -0.765625,-0.421875 0.15625,0 0.296875,0 0.421875,-0.125 C 1.328125,1.203125 1.421875,1.0625 1.421875,0.875 1.421875,0.5625 1.15625,0.53125 1.0625,0.53125 0.828125,0.53125 0.5,0.6875 0.5,1.171875 c 0,0.5 0.4375,0.875 1.0625,0.875 1.015625,0 2.046875,-0.90625 2.328125,-2.03125 z m 0,0"
           id="path1119" />
      </symbol>
    </g>
    <clipPath
       id="clipPath489">
      <path
         d="M 2,0 H 3 V 17.214844 H 2 Z m 0,0"
         id="path9147" />
    </clipPath>
    <clipPath
       id="clipPath1607">
      <path
         d="m 15,0 h 2 v 17.214844 h -2 z m 0,0"
         id="path8533" />
    </clipPath>
  </defs>
  <g
     inkscape:label="Layer 1"
     inkscape:groupmode="layer"
     id="layer1"
     transform="translate(-28.9775, -72.2002)">
    <path
       d="M 31.852334,79.426413 31.75,211.56433 M 39.789833,79.426414 V 211.56433 m 7.9375,-132.137916 V 211.56433 m 7.9375,-132.137916 V 211.56433 m 7.9375,-132.137916 V 211.56433 m 7.9375,-132.137916 V 211.56433 m 7.9375,-132.137916 V 211.56433 M 87.414832,79.426414 V 211.56433 m 7.9375,-132.137916 V 211.56433 M 103.28983,79.426414 V 211.56433 m 7.9375,-132.137916 V 211.56433 m 7.9375,-132.137916 V 211.56433 m 7.9375,-132.137916 V 211.56433 m 7.9375,-132.137916 V 211.56433 m 7.9375,-132.137916 V 211.56433 m 7.9375,-132.137917 V 211.56433 m 7.9375,-132.137916 V 211.56433 M 28.97747,82.020832 h 132.41836 m -132.41836,7.9375 H 161.39583 M 28.97747,97.895831 H 161.39583 M 28.97747,105.83333 h 132.41836 m -132.41836,7.9375 h 132.41836 m -132.41836,7.9375 h 132.41836 m -132.41836,7.9375 h 132.41836 m -132.41836,7.9375 h 132.41836 m -132.41836,7.9375 h 132.41836 m -132.41836,7.9375 h 132.41836 m -132.41836,7.9375 h 132.41836 m -132.41836,7.9375 h 132.41836 m -132.41836,7.9375 h 132.41836 m -132.41836,7.9375 h 132.41836 m -132.41836,7.9375 h 132.41836 m -132.41836,7.9375 h 132.41836 m -132.41836,7.9375 h 132.41836"
       style="fill:#999999;stroke:#b3b3b3;stroke-width:0.176351"
       id="path970"
       sodipodi:nodetypes="cccccccccccccccccccccccccccccccccccccccccccccccccccccccccccccccccccc" />
    <g
       id="path1255">
      <path
         style="color:#000000;fill:#333333;-inkscape-stroke:none"
         d="m 28.976562,153.30664 v 0.30273 H 161.39648 v -0.30273 z"
         id="path685" />
      <g
         id="g675">
        <g
           id="path677">
          <path
             style="color:#000000;fill:#333333;fill-rule:evenodd;stroke-width:0.208444;stroke-linejoin:round;-inkscape-stroke:none"
             d="m 158.15458,152.11304 3.64389,1.33995 -3.64389,1.33995 c 0.58214,-0.79111 0.57879,-1.87348 0,-2.6799 z"
             id="path681" />
          <path
             style="color:#000000;fill:#333333;fill-rule:evenodd;stroke-linejoin:round;-inkscape-stroke:none"
             d="m 158.19141,152.01562 a 0.10423242,0.10423242 0 0 0 -0.1211,0.15821 c 0.55314,0.77068 0.55513,1.80223 0,2.55664 a 0.10423242,0.10423242 0 0 0 0.1211,0.16015 l 3.64257,-1.33984 a 0.10423242,0.10423242 0 0 0 0,-0.19531 z m 0.12109,0.26563 3.18359,1.17187 -3.18164,1.16993 c 0.42369,-0.73055 0.42142,-1.60207 -0.002,-2.3418 z"
             id="path683" />
        </g>
      </g>
    </g>
    <g
       id="path1919">
      <path
         style="color:#000000;fill:#333333;-inkscape-stroke:none"
         d="M 95.099609,82.021484 V 211.66602 h 0.300782 V 82.021484 Z"
         id="path699" />
      <g
         id="g689">
        <g
           id="path691">
          <path
             style="color:#000000;fill:#333333;fill-rule:evenodd;stroke-width:0.20625;stroke-linejoin:round;-inkscape-stroke:none"
             d="m 93.918867,85.227967 1.325849,-3.60554 1.325848,3.60554 c -0.782781,-0.576014 -1.85376,-0.572695 -2.651697,0 z"
             id="path695" />
          <path
             style="color:#000000;fill:#333333;fill-rule:evenodd;stroke-linejoin:round;-inkscape-stroke:none"
             d="m 95.244141,81.519531 a 0.10313531,0.10313531 0 0 0 -0.0957,0.06641 l -1.326171,3.605469 a 0.10313531,0.10313531 0 0 0 0.15625,0.121094 c 0.762578,-0.547317 1.784787,-0.551242 2.53125,-0.002 a 0.10313531,0.10313531 0 0 0 0.158203,-0.119141 l -1.326172,-3.605469 a 0.10313531,0.10313531 0 0 0 -0.09766,-0.06641 z m 0.002,0.402344 1.158203,3.148437 c -0.723163,-0.420927 -1.58548,-0.419125 -2.31836,0 z"
             id="path697" />
        </g>
      </g>
    </g>
    <g
       inkscape:label=""
       transform="translate(71.246548,73.713588)"
       id="g2386">
      <g
         id="g9004">
        <g
           style="fill:#000000;fill-opacity:1"
           id="g8659">
          <use
             xlink:href="#symbol9683"
             x="91.925003"
             y="81.962997"
             id="use9197"
             width="100%"
             height="100%" />
        </g>
      </g>
    </g>
    <g
       inkscape:label=""
       transform="translate(1.5882026,-5.3564975)"
       id="g2466">
      <g
         id="g4190">
        <g
           style="fill:#000000;fill-opacity:1"
           id="g2134">
          <use
             xlink:href="#symbol1680"
             x="91.925003"
             y="81.962997"
             id="use6168"
             width="100%"
             height="100%" />
        </g>
      </g>
    </g>
    <ellipse
       style="font-variation-settings:normal;opacity:1;vector-effect:none;fill:none;fill-opacity:1;fill-rule:evenodd;stroke:#0000ff;stroke-width:0.75;stroke-linecap:butt;stroke-linejoin:miter;stroke-miterlimit:4;stroke-dasharray:none;stroke-dashoffset:0;stroke-opacity:1;-inkscape-stroke:none;paint-order:fill stroke markers;stop-color:#000000;stop-opacity:1"
       id="path491"
       cx="95.916245"
       cy="153.45833"
       rx="47.061085"
       ry="47.060883" />
    <g
       inkscape:label=""
       transform="translate(104.75009,126.6089)"
       id="g803"
       style="fill:#0000ff">
      <g
         id="surface1"
         transform="matrix(0.352778,0,0,0.352778,23.225572,-14.534365)"
         style="fill:#0000ff">
        <g
           clip-path="url(#clipPath489)"
           clip-rule="nonzero"
           id="g37"
           style="fill:#0000ff">
          <g
             style="fill:#0000ff;fill-opacity:1"
             id="g35">
            <g
               id="use33"
               transform="translate(0,12.911)"
               style="fill:#0000ff">
              <path
                 style="fill:#0000ff;stroke:none"
                 d="m 2.734375,-12.296875 c 0,-0.3125 0,-0.625 -0.34375,-0.625 -0.34375,0 -0.34375,0.3125 -0.34375,0.625 V 3.6875 c 0,0.3125 0,0.625 0.34375,0.625 0.34375,0 0.34375,-0.3125 0.34375,-0.625 z m 0,0"
                 id="path62" />
            </g>
          </g>
        </g>
        <g
           style="fill:#0000ff;fill-opacity:1"
           id="g41">
          <g
             id="use39"
             transform="translate(4.7820001,12.911)"
             style="fill:#0000ff">
            <path
               style="fill:#0000ff;stroke:none"
               d="m 2.1875,-1.390625 c 0.734375,-0.84375 1.34375,-1.375 2.203125,-2.15625 C 5.421875,-4.4375 5.875,-4.875 6.109375,-5.125 7.3125,-6.3125 7.921875,-7.3125 7.921875,-7.453125 7.921875,-7.59375 7.78125,-7.59375 7.75,-7.59375 c -0.125,0 -0.15625,0.0625 -0.25,0.1875 -0.421875,0.75 -0.84375,1.109375 -1.28125,1.109375 -0.359375,0 -0.546875,-0.15625 -0.875,-0.578125 -0.375,-0.421875 -0.65625,-0.71875 -1.15625,-0.71875 -1.265625,0 -2.015625,1.5625 -2.015625,1.921875 0,0.0625 0.015625,0.15625 0.171875,0.15625 0.140625,0 0.15625,-0.0625 0.203125,-0.1875 0.296875,-0.6875 1.125,-0.8125 1.453125,-0.8125 0.359375,0 0.703125,0.125 1.0625,0.28125 0.65625,0.28125 0.921875,0.28125 1.109375,0.28125 0.109375,0 0.1875,0 0.265625,-0.015625 -0.5625,0.671875 -1.5,1.484375 -2.265625,2.203125 l -1.75,1.59375 c -1.046875,1.0625 -1.6875,2.078125 -1.6875,2.203125 0,0.109375 0.09375,0.140625 0.203125,0.140625 0.09375,0 0.109375,-0.015625 0.234375,-0.21875 C 1.453125,-0.484375 2,-1.125 2.640625,-1.125 3,-1.125 3.171875,-1 3.515625,-0.5625 3.84375,-0.1875 4.125,0.171875 4.6875,0.171875 c 1.6875,0 2.640625,-2.1875 2.640625,-2.578125 0,-0.078125 -0.015625,-0.171875 -0.1875,-0.171875 -0.125,0 -0.15625,0.0625 -0.203125,0.234375 -0.375,1.015625 -1.390625,1.4375 -2.0625,1.4375 -0.359375,0 -0.703125,-0.125 -1.0625,-0.28125 -0.703125,-0.28125 -0.890625,-0.28125 -1.109375,-0.28125 -0.171875,0 -0.359375,0 -0.515625,0.078125 z m 0,0"
               id="path66" />
          </g>
        </g>
        <g
           clip-path="url(#clipPath1607)"
           clip-rule="nonzero"
           id="g47"
           style="fill:#0000ff">
          <g
             style="fill:#0000ff;fill-opacity:1"
             id="g45">
            <g
               id="use43"
               transform="translate(13.38,12.911)"
               style="fill:#0000ff">
              <path
                 style="fill:#0000ff;stroke:none"
                 d="m 2.734375,-12.296875 c 0,-0.3125 0,-0.625 -0.34375,-0.625 -0.34375,0 -0.34375,0.3125 -0.34375,0.625 V 3.6875 c 0,0.3125 0,0.625 0.34375,0.625 0.34375,0 0.34375,-0.3125 0.34375,-0.625 z m 0,0"
                 id="path70" />
            </g>
          </g>
        </g>
        <g
           style="fill:#0000ff;fill-opacity:1"
           id="g51">
          <g
             id="use49"
             transform="translate(22.944,12.911)"
             style="fill:#0000ff">
            <path
               style="fill:#0000ff;stroke:none"
               d="m 11.078125,-5.53125 c 0.25,0 0.515625,0 0.515625,-0.28125 C 11.59375,-6.125 11.296875,-6.125 11,-6.125 H 1.375 c -0.296875,0 -0.578125,0 -0.578125,0.3125 0,0.28125 0.25,0.28125 0.515625,0.28125 z M 11,-2.46875 c 0.296875,0 0.59375,0 0.59375,-0.296875 0,-0.296875 -0.265625,-0.296875 -0.515625,-0.296875 H 1.3125 c -0.265625,0 -0.515625,0 -0.515625,0.296875 0,0.296875 0.28125,0.296875 0.578125,0.296875 z m 0,0"
               id="path74" />
          </g>
        </g>
        <g
           style="fill:#0000ff;fill-opacity:1"
           id="g55">
          <g
             id="use53"
             transform="translate(40.121525,12.911)"
             style="fill:#0000ff">
            <path
               style="fill:#0000ff;stroke:none"
               d="m 3.8125,-5.859375 c 1.53125,0 2.203125,1.328125 2.203125,2.859375 0,2.0625 -1.109375,2.859375 -2.109375,2.859375 C 3,-0.140625 1.515625,-0.578125 1.046875,-1.90625 1.140625,-1.875 1.21875,-1.875 1.3125,-1.875 c 0.40625,0 0.71875,-0.28125 0.71875,-0.71875 0,-0.5 -0.375,-0.734375 -0.71875,-0.734375 -0.296875,0 -0.75,0.140625 -0.75,0.78125 0,1.578125 1.5625,2.828125 3.375,2.828125 1.921875,0 3.375,-1.5 3.375,-3.265625 0,-1.671875 -1.375,-2.875 -3,-3.0625 1.296875,-0.265625 2.5625,-1.4375 2.5625,-3.015625 0,-1.34375 -1.359375,-2.3125 -2.921875,-2.3125 -1.5625,0 -2.9375,0.953125 -2.9375,2.328125 0,0.609375 0.453125,0.71875 0.671875,0.71875 0.359375,0 0.671875,-0.234375 0.671875,-0.671875 0,-0.453125 -0.3125,-0.671875 -0.671875,-0.671875 -0.0625,0 -0.15625,0 -0.21875,0.03125 0.5,-1.140625 1.859375,-1.34375 2.453125,-1.34375 0.609375,0 1.75,0.296875 1.75,1.9375 0,0.484375 -0.078125,1.34375 -0.65625,2.109375 C 4.5,-6.265625 3.90625,-6.234375 3.34375,-6.1875 c -0.09375,0 -0.484375,0.046875 -0.546875,0.046875 -0.125,0.015625 -0.203125,0.03125 -0.203125,0.15625 0,0.109375 0.03125,0.125 0.375,0.125 z m 0,0"
               id="path78" />
          </g>
        </g>
      </g>
    </g>
    <circle
       id="path929"
       style="fill:#ff0000;stroke:none;stroke-width:0.833332"
       cx="95.352333"
       cy="153.60938"
       r="1.25" />
    <circle
       id="circle931"
       style="fill:#ff0000;stroke:none;stroke-width:0.833332"
       cx="127.10233"
       cy="153.30664"
       r="1.25" />
    <circle
       id="circle933"
       style="fill:#008000;stroke:none;stroke-width:0.833332"
       cx="95.099609"
       cy="137.58333"
       r="1.25" />
    <circle
       id="circle935"
       style="fill:#008000;stroke:none;stroke-width:0.833332"
       cx="95.099609"
       cy="169.33333"
       r="1.25" />
    <circle
       id="circle937"
       style="fill:#008000;stroke:none;stroke-width:0.833332"
       cx="139.00858"
       cy="85.989578"
       r="1.25" />
    <circle
       id="circle939"
       style="fill:#ff0000;stroke:none;stroke-width:0.833332"
       cx="139.00858"
       cy="93.927078"
       r="1.25" />
    <text
       xml:space="preserve"
       style="font-size:3.0877px;line-height:1.25;font-family:'Century Schoolbook';-inkscape-font-specification:'Century Schoolbook, Normal';font-variant-ligatures:none;fill:#ff0000;fill-opacity:1;stroke-width:0.192981"
       x="143.77017"
       y="95.020889"
       id="text1049"><tspan
         sodipodi:role="line"
         id="tspan1047"
         style="fill:#ff0000;fill-opacity:1;stroke-width:0.192981"
         x="143.77017"
         y="95.020889">Zero</tspan></text>
    <text
       xml:space="preserve"
       style="font-size:3.21092px;line-height:1.25;font-family:'Century Schoolbook';-inkscape-font-specification:'Century Schoolbook, Normal';font-variant-ligatures:none;fill:#008000;fill-opacity:1;stroke-width:0.200683"
       x="143.75632"
       y="87.140366"
       id="text1053"><tspan
         sodipodi:role="line"
         id="tspan1051"
         style="fill:#008000;fill-opacity:1;stroke-width:0.200683"
         x="143.75632"
         y="87.140366">Pole</tspan></text>
  </g>
</svg>
