<?xml version="1.0" encoding="UTF-8" standalone="no"?>
<!-- Created with Inkscape (http://www.inkscape.org/) -->

<svg
   width="135.26668mm"
   height="135.26668mm"
   viewBox="0 0 135.26668 135.26668"
   version="1.1"
   id="svg1"
   inkscape:version="1.4 (e7c3feb1, 2024-10-09)"
   sodipodi:docname="prob-30-01-25_01.svg"
   xmlns:inkscape="http://www.inkscape.org/namespaces/inkscape"
   xmlns:sodipodi="http://sodipodi.sourceforge.net/DTD/sodipodi-0.dtd"
   xmlns="http://www.w3.org/2000/svg"
   xmlns:svg="http://www.w3.org/2000/svg"
   xmlns:ns1="http://www.iki.fi/pav/software/textext/">
  <sodipodi:namedview
     id="namedview1"
     pagecolor="#ffffff"
     bordercolor="#000000"
     borderopacity="0.25"
     inkscape:showpageshadow="2"
     inkscape:pageopacity="0.0"
     inkscape:pagecheckerboard="0"
     inkscape:deskcolor="#d1d1d1"
     inkscape:document-units="mm"
     inkscape:zoom="1"
     inkscape:cx="277.5"
     inkscape:cy="287"
     inkscape:window-width="1512"
     inkscape:window-height="916"
     inkscape:window-x="0"
     inkscape:window-y="38"
     inkscape:window-maximized="1"
     inkscape:current-layer="layer1" />
  <defs
     id="defs1">
    <marker
       style="overflow:visible"
       id="ArrowWideRounded"
       refX="0"
       refY="0"
       orient="auto-start-reverse"
       inkscape:stockid="Wide, rounded arrow"
       markerWidth="1"
       markerHeight="1"
       viewBox="0 0 1 1"
       inkscape:isstock="true"
       inkscape:collect="always"
       preserveAspectRatio="xMidYMid">
      <path
         style="fill:none;stroke:context-stroke;stroke-width:1;stroke-linecap:round"
         d="M 3,-3 0,0 3,3"
         transform="rotate(180,0.125,0)"
         sodipodi:nodetypes="ccc"
         id="path2" />
    </marker>
    <inkscape:path-effect
       effect="bspline"
       id="path-effect47"
       is_visible="true"
       lpeversion="1.3"
       weight="33.333333"
       steps="2"
       helper_size="0"
       apply_no_weight="true"
       apply_with_weight="true"
       only_selected="false"
       uniform="false" />
    <inkscape:path-effect
       effect="bspline"
       id="path-effect12"
       is_visible="true"
       lpeversion="1.3"
       weight="33.333333"
       steps="2"
       helper_size="0"
       apply_no_weight="true"
       apply_with_weight="true"
       only_selected="false"
       uniform="false" />
    <inkscape:path-effect
       effect="bspline"
       id="path-effect11"
       is_visible="true"
       lpeversion="1.3"
       weight="33.333333"
       steps="2"
       helper_size="0"
       apply_no_weight="true"
       apply_with_weight="true"
       only_selected="false"
       uniform="false" />
  </defs>
  <g
     inkscape:label="Layer 1"
     inkscape:groupmode="layer"
     id="layer1"
     transform="translate(5.3406467,-27.242214)">
    <path
       id="rect44"
       style="fill:#999999;fill-opacity:0.3041096;stroke:none;stroke-width:0.499999;stroke-miterlimit:10"
       d="M -5.3406467,27.242214 V 162.50889 H 129.92603 V 27.242214 Z M 62.292434,67.358628 A 27.516666,27.516666 0 0 1 89.809101,94.875295 27.516666,27.516666 0 0 1 62.292434,122.39196 27.516666,27.516666 0 0 1 34.775768,94.875295 27.516666,27.516666 0 0 1 62.292434,67.358628 Z" />
    <circle
       style="fill:none;fill-opacity:0.520833;stroke:#000000;stroke-width:0.8;stroke-miterlimit:10;stroke-dasharray:2.4, 2.4;stroke-dashoffset:0"
       id="path44"
       cx="62.292648"
       cy="94.875504"
       r="27.516666" />
    <path
       style="fill:#000000;fill-opacity:0.520833;stroke:#000000;stroke-width:0.5;stroke-miterlimit:10;stroke-dasharray:none;stroke-dashoffset:0;marker-mid:url(#ArrowWideRounded)"
       d="M 62.292692,94.87555 C 66.914318,88.411844 71.535943,81.948138 77.814414,72.96897 84.092885,63.989802 92.0282,52.495174 99.963516,41.000545"
       id="path47"
       inkscape:path-effect="#path-effect47"
       inkscape:original-d="M 62.292692,94.87555 C 66.914318,88.411844 71.535943,81.948138 76.157569,75.484432 84.092885,63.989802 92.0282,52.495174 99.963516,41.000545"
       sodipodi:nodetypes="ccc" />
    <circle
       id="path45"
       style="fill:#000000;stroke:none;stroke-width:0.264583"
       cx="62.292648"
       cy="94.875504"
       r="1.2" />
    <circle
       id="path46"
       style="fill:#ff0000;stroke:none;stroke-width:0.264583"
       cx="99.963516"
       cy="41.000546"
       r="1.2" />
    <g
       transform="matrix(0.529167,0,0,0.529167,59.725515,97.943217)"
       ns1:version="1.10.2"
       ns1:texconverter="pdflatex"
       ns1:pdfconverter="inkscape"
       ns1:text="$x$"
       ns1:preamble="/Users/sachchidanandprasad/Library/Application Support/org.inkscape.Inkscape/config/inkscape/extensions/textext/default_packages.tex"
       ns1:scale="1.5"
       ns1:alignment="middle center"
       ns1:stroke-to-path="0"
       ns1:inkscapeversion="1.4"
       ns1:jacobian_sqrt="0.529167"
       id="g48">
      <defs
         id="id-fb761424-0c88-4fc9-9d9a-026bdba9af60">
        <g
           id="id-51608a79-6a36-4b68-b5fa-a746efca4eaa">
          <g
             id="id-3c82464f-18bc-416e-949e-0740e1f6c2d3">
            <path
               d="m 0.203125,-0.875 c 0,0.203125 -0.015625,0.328125 -0.078125,0.640625 -0.015625,0.125 -0.03125,0.15625 -0.03125,0.21875 0.140625,0.078125 0.3125,0.125 0.421875,0.125 0.328125,0 0.71875,-0.28125 1.03125,-0.75 l 0.75,-1.171875 0.109375,0.6875 c 0.140625,0.84375 0.359375,1.234375 0.71875,1.234375 0.21875,0 0.546875,-0.171875 0.859375,-0.453125 L 4.46875,-0.78125 4.390625,-0.984375 C 4.03125,-0.671875 3.78125,-0.53125 3.625,-0.53125 c -0.15625,0 -0.28125,-0.09375 -0.390625,-0.296875 -0.078125,-0.1875 -0.1875,-0.5625 -0.25,-0.84375 L 2.8125,-2.6875 3.15625,-3.171875 c 0.46875,-0.640625 0.734375,-0.875 1.046875,-0.875 0.15625,0 0.28125,0.078125 0.328125,0.234375 l 0.140625,-0.046875 0.15625,-0.84375 C 4.703125,-4.78125 4.609375,-4.8125 4.53125,-4.8125 c -0.40625,0 -0.796875,0.359375 -1.421875,1.28125 l -0.375,0.546875 -0.046875,-0.46875 c -0.125,-1 -0.390625,-1.359375 -0.984375,-1.359375 -0.25,0 -0.484375,0.09375 -0.5625,0.21875 L 0.5625,-3.765625 0.734375,-3.671875 C 1.03125,-4 1.21875,-4.140625 1.421875,-4.140625 c 0.328125,0 0.546875,0.40625 0.71875,1.375 L 2.25,-2.140625 1.84375,-1.53125 c -0.421875,0.671875 -0.765625,1 -1.046875,1 -0.15625,0 -0.265625,-0.046875 -0.28125,-0.09375 L 0.40625,-0.90625 Z m 0,0"
               id="id-23a91bb4-e760-417a-b0bf-31b5984c8c53" />
          </g>
        </g>
      </defs>
      <g
         fill="#000000"
         fill-opacity="1"
         id="id-391eeead-a639-41c4-a06e-b3abbf69cabf"
         transform="translate(-149.1,-129.952)">
        <g
           transform="translate(149.006,134.765)"
           id="g47">
          <path
             d="m 0.203125,-0.875 c 0,0.203125 -0.015625,0.328125 -0.078125,0.640625 -0.015625,0.125 -0.03125,0.15625 -0.03125,0.21875 0.140625,0.078125 0.3125,0.125 0.421875,0.125 0.328125,0 0.71875,-0.28125 1.03125,-0.75 l 0.75,-1.171875 0.109375,0.6875 c 0.140625,0.84375 0.359375,1.234375 0.71875,1.234375 0.21875,0 0.546875,-0.171875 0.859375,-0.453125 L 4.46875,-0.78125 4.390625,-0.984375 C 4.03125,-0.671875 3.78125,-0.53125 3.625,-0.53125 c -0.15625,0 -0.28125,-0.09375 -0.390625,-0.296875 -0.078125,-0.1875 -0.1875,-0.5625 -0.25,-0.84375 L 2.8125,-2.6875 3.15625,-3.171875 c 0.46875,-0.640625 0.734375,-0.875 1.046875,-0.875 0.15625,0 0.28125,0.078125 0.328125,0.234375 l 0.140625,-0.046875 0.15625,-0.84375 C 4.703125,-4.78125 4.609375,-4.8125 4.53125,-4.8125 c -0.40625,0 -0.796875,0.359375 -1.421875,1.28125 l -0.375,0.546875 -0.046875,-0.46875 c -0.125,-1 -0.390625,-1.359375 -0.984375,-1.359375 -0.25,0 -0.484375,0.09375 -0.5625,0.21875 L 0.5625,-3.765625 0.734375,-3.671875 C 1.03125,-4 1.21875,-4.140625 1.421875,-4.140625 c 0.328125,0 0.546875,0.40625 0.71875,1.375 L 2.25,-2.140625 1.84375,-1.53125 c -0.421875,0.671875 -0.765625,1 -1.046875,1 -0.15625,0 -0.265625,-0.046875 -0.28125,-0.09375 L 0.40625,-0.90625 Z m 0,0"
             id="id-dd98fde2-4d05-47e0-8fd9-97e4be699e2f" />
        </g>
      </g>
    </g>
    <g
       transform="matrix(0.529167,0,0,0.529167,94.755192,37.145629)"
       ns1:version="1.10.2"
       ns1:texconverter="pdflatex"
       ns1:pdfconverter="inkscape"
       ns1:text="$y$"
       ns1:preamble="/Users/sachchidanandprasad/Library/Application Support/org.inkscape.Inkscape/config/inkscape/extensions/textext/default_packages.tex"
       ns1:scale="1.5"
       ns1:alignment="middle center"
       ns1:stroke-to-path="0"
       ns1:inkscapeversion="1.4"
       ns1:jacobian_sqrt="0.529167"
       id="g50">
      <defs
         id="id-31cb73d1-849e-4721-a17d-a7cf54ab37b4">
        <g
           id="id-6053126f-69b3-4190-bf86-ab9dc6c59207">
          <g
             id="id-686e76ad-4d45-4527-80cf-5f95bc8894b9">
            <path
               d="m -0.0625,1.796875 c -0.015625,0.0625 -0.015625,0.125 -0.015625,0.171875 0,0.4375 0.375,0.78125 0.8125,0.78125 1.0625,0 2.15625,-1.234375 2.75,-3.078125 L 4.890625,-4.71875 4.78125,-4.8125 c -0.296875,0.125 -0.53125,0.171875 -0.75,0.203125 l -0.34375,1.3125 c -0.125,0.46875 -0.46875,1.1875 -0.796875,1.6875 -0.34375,0.5 -0.84375,0.9375 -1.0625,0.9375 -0.109375,0 -0.203125,-0.21875 -0.1875,-0.46875 V -1.28125 l 0.15625,-1.921875 c 0.015625,-0.3125 0.03125,-0.6875 0.03125,-0.96875 0,-0.453125 -0.0625,-0.640625 -0.234375,-0.640625 -0.125,0 -0.265625,0.078125 -0.75,0.40625 l -0.8125,0.5625 0.109375,0.171875 0.5,-0.296875 L 0.671875,-4 c 0.109375,-0.0625 0.171875,-0.09375 0.21875,-0.09375 0.140625,0 0.21875,0.203125 0.21875,0.53125 0,0 0,0.0625 -0.015625,0.140625 L 0.921875,-1 v 0.40625 c 0,0.421875 0.171875,0.703125 0.421875,0.703125 0.375,0 1.203125,-0.84375 1.953125,-1.96875 L 2.8125,-0.15625 C 2.296875,1.609375 1.796875,2.328125 1.109375,2.328125 0.75,2.328125 0.484375,2.0625 0.484375,1.71875 0.484375,1.671875 0.5,1.578125 0.515625,1.5 L 0.40625,1.453125 Z m 0,0"
               id="id-807f01eb-cf34-434a-9122-6e1bcf2d6aa6" />
          </g>
        </g>
      </defs>
      <g
         fill="#000000"
         fill-opacity="1"
         id="id-1f66dab2-99a1-4954-a310-d1a7b1034670"
         transform="translate(-148.759,-129.952)">
        <g
           transform="translate(148.837,134.765)"
           id="g49">
          <path
             d="m -0.0625,1.796875 c -0.015625,0.0625 -0.015625,0.125 -0.015625,0.171875 0,0.4375 0.375,0.78125 0.8125,0.78125 1.0625,0 2.15625,-1.234375 2.75,-3.078125 L 4.890625,-4.71875 4.78125,-4.8125 c -0.296875,0.125 -0.53125,0.171875 -0.75,0.203125 l -0.34375,1.3125 c -0.125,0.46875 -0.46875,1.1875 -0.796875,1.6875 -0.34375,0.5 -0.84375,0.9375 -1.0625,0.9375 -0.109375,0 -0.203125,-0.21875 -0.1875,-0.46875 V -1.28125 l 0.15625,-1.921875 c 0.015625,-0.3125 0.03125,-0.6875 0.03125,-0.96875 0,-0.453125 -0.0625,-0.640625 -0.234375,-0.640625 -0.125,0 -0.265625,0.078125 -0.75,0.40625 l -0.8125,0.5625 0.109375,0.171875 0.5,-0.296875 L 0.671875,-4 c 0.109375,-0.0625 0.171875,-0.09375 0.21875,-0.09375 0.140625,0 0.21875,0.203125 0.21875,0.53125 0,0 0,0.0625 -0.015625,0.140625 L 0.921875,-1 v 0.40625 c 0,0.421875 0.171875,0.703125 0.421875,0.703125 0.375,0 1.203125,-0.84375 1.953125,-1.96875 L 2.8125,-0.15625 C 2.296875,1.609375 1.796875,2.328125 1.109375,2.328125 0.75,2.328125 0.484375,2.0625 0.484375,1.71875 0.484375,1.671875 0.5,1.578125 0.515625,1.5 L 0.40625,1.453125 Z m 0,0"
             id="id-4b2f52aa-5e16-4094-83d2-b2c4aa435df9" />
        </g>
      </g>
    </g>
    <g
       transform="matrix(0.529167,0,0,0.529167,66.581263,81.295852)"
       ns1:version="1.10.2"
       ns1:texconverter="pdflatex"
       ns1:pdfconverter="inkscape"
       ns1:text="$r$"
       ns1:preamble="/Users/sachchidanandprasad/Library/Application Support/org.inkscape.Inkscape/config/inkscape/extensions/textext/default_packages.tex"
       ns1:scale="1.5"
       ns1:alignment="middle center"
       ns1:stroke-to-path="0"
       ns1:inkscapeversion="1.4"
       ns1:jacobian_sqrt="0.529167"
       id="g53">
      <defs
         id="id-5ddf1353-c925-4ff5-8ec8-233bb2903da9">
        <g
           id="id-6f8fa40f-9346-447f-817a-276f62edf22a">
          <g
             id="id-f754381d-da8c-4a38-abee-ab67e0764c76">
            <path
               d="M 3.671875,-3.640625 C 3.703125,-4.015625 3.75,-4.34375 3.828125,-4.75 3.71875,-4.796875 3.671875,-4.8125 3.625,-4.8125 c -0.3125,0 -0.609375,0.25 -0.96875,0.75 L 2.375,-3.671875 c -0.375,0.5625 -0.5,0.765625 -0.65625,1.125 l 0.078125,-0.40625 C 1.828125,-3.1875 1.90625,-3.59375 1.96875,-3.8125 l 0.0625,-0.25 c 0.046875,-0.171875 0.0625,-0.296875 0.0625,-0.421875 0,-0.203125 -0.078125,-0.328125 -0.234375,-0.328125 -0.203125,0 -0.578125,0.21875 -1.328125,0.75 l -0.265625,0.1875 0.0625,0.203125 0.3125,-0.203125 C 0.921875,-4.0625 1.03125,-4.109375 1.125,-4.109375 c 0.09375,0 0.171875,0.09375 0.171875,0.21875 C 1.296875,-3.3125 0.875,-1.25 0.46875,0.015625 L 0.5625,0.09375 C 0.71875,0.046875 0.875,0.015625 1.109375,-0.046875 L 1.234375,-0.0625 1.5,-1.25 c 0.171875,-0.828125 0.40625,-1.359375 0.84375,-1.9375 0.34375,-0.4375 0.609375,-0.640625 0.828125,-0.640625 0.140625,0 0.25,0.046875 0.359375,0.1875 z m 0,0"
               id="id-6e1d4cf9-74e8-4380-bab1-9586b29c07ca" />
          </g>
        </g>
      </defs>
      <g
         fill="#000000"
         fill-opacity="1"
         id="id-ff25bc83-69ac-4809-8c0f-c24112b1a14b"
         transform="translate(-149.003,-129.952)">
        <g
           transform="translate(148.737,134.765)"
           id="g52">
          <path
             d="M 3.671875,-3.640625 C 3.703125,-4.015625 3.75,-4.34375 3.828125,-4.75 3.71875,-4.796875 3.671875,-4.8125 3.625,-4.8125 c -0.3125,0 -0.609375,0.25 -0.96875,0.75 L 2.375,-3.671875 c -0.375,0.5625 -0.5,0.765625 -0.65625,1.125 l 0.078125,-0.40625 C 1.828125,-3.1875 1.90625,-3.59375 1.96875,-3.8125 l 0.0625,-0.25 c 0.046875,-0.171875 0.0625,-0.296875 0.0625,-0.421875 0,-0.203125 -0.078125,-0.328125 -0.234375,-0.328125 -0.203125,0 -0.578125,0.21875 -1.328125,0.75 l -0.265625,0.1875 0.0625,0.203125 0.3125,-0.203125 C 0.921875,-4.0625 1.03125,-4.109375 1.125,-4.109375 c 0.09375,0 0.171875,0.09375 0.171875,0.21875 C 1.296875,-3.3125 0.875,-1.25 0.46875,0.015625 L 0.5625,0.09375 C 0.71875,0.046875 0.875,0.015625 1.109375,-0.046875 L 1.234375,-0.0625 1.5,-1.25 c 0.171875,-0.828125 0.40625,-1.359375 0.84375,-1.9375 0.34375,-0.4375 0.609375,-0.640625 0.828125,-0.640625 0.140625,0 0.25,0.046875 0.359375,0.1875 z m 0,0"
             id="id-4b809c3c-566a-48e5-a885-e1915203e152" />
        </g>
      </g>
    </g>
    <g
       transform="matrix(0.298645,-0.43684,0.43684,0.298645,80.238865,72.993932)"
       ns1:version="1.10.2"
       ns1:texconverter="pdflatex"
       ns1:pdfconverter="inkscape"
       ns1:text="$\\underbrace{\\kern 2.4cm}_{\\epsilon}$"
       ns1:preamble="/Users/sachchidanandprasad/Library/Application Support/org.inkscape.Inkscape/config/inkscape/extensions/textext/default_packages.tex"
       ns1:scale="1.4999999980930703"
       ns1:alignment="middle center"
       ns1:stroke-to-path="0"
       ns1:inkscapeversion="1.4"
       ns1:jacobian_sqrt="0.5291672907739102"
       id="g76">
      <defs
         id="id-3ba23733-6a35-4593-8162-bc8bf6ad8fa5">
        <g
           id="id-588a0288-ee30-43ad-baeb-c3f3b93685bf">
          <g
             id="id-9dfb1e62-c753-415e-accb-e8b84929d4a8">
            <path
               d="m 4.578125,-0.921875 c 0,-0.21875 0,-0.28125 -0.125,-0.28125 -0.609375,0 -1.609375,-0.078125 -2.5,-0.515625 C 0.875,-2.265625 0.46875,-2.890625 0.21875,-3.28125 0.1875,-3.328125 0.125,-3.328125 0,-3.328125 c -0.234375,0 -0.234375,0.015625 -0.234375,0.25 V -2.90625 C 1.109375,-0.46875 3.359375,0 4.375,0 4.578125,0 4.578125,-0.015625 4.578125,-0.28125 Z m 0,0"
               id="id-eaefc804-bd83-4571-9810-d04b179ffc21" />
          </g>
          <g
             id="id-24ceb2dc-6bb4-4a64-90cd-8c9bff63facd">
            <path
               d="M 4.71875,1.71875 C 3.375,-0.734375 1.125,-1.203125 0.109375,-1.203125 c -0.203125,0 -0.203125,0.015625 -0.203125,0.28125 v 0.640625 c 0,0.234375 0,0.28125 0.140625,0.28125 0.59375,0.015625 1.59375,0.09375 2.484375,0.53125 1.078125,0.53125 1.484375,1.15625 1.734375,1.546875 0.03125,0.0625 0.09375,0.0625 0.21875,0.0625 C 4.71875,2.140625 4.71875,2.125 4.71875,1.875 Z m 0,0"
               id="id-c6750789-8afc-4f71-a2f3-c66a04e0a2ae" />
          </g>
          <g
             id="id-1970dd5e-4c93-425a-92dd-0c33f723aa86">
            <path
               d="m 4.578125,-0.921875 c 0,-0.265625 0,-0.28125 -0.203125,-0.28125 -1.015625,0 -3.265625,0.484375 -4.609375,2.921875 V 1.875 c 0,0.25 0,0.265625 0.234375,0.265625 0.1875,0 0.203125,-0.015625 0.25,-0.09375 C 1.0625,0.75 2.4375,0.046875 4.46875,0 4.578125,0 4.578125,-0.0625 4.578125,-0.28125 Z m 0,0"
               id="id-21fbc8a7-71f6-41be-adaf-6869d403c460" />
          </g>
          <g
             id="id-e07bad34-9b58-407a-82d8-ade3b8341077">
            <path
               d="m 4.71875,-3.078125 c 0,-0.234375 0,-0.25 -0.234375,-0.25 -0.1875,0 -0.203125,0.015625 -0.25,0.078125 -0.8125,1.3125 -2.1875,2.015625 -4.21875,2.046875 -0.109375,0 -0.109375,0.078125 -0.109375,0.28125 v 0.640625 c 0,0.265625 0,0.28125 0.203125,0.28125 C 1.125,0 3.375,-0.484375 4.71875,-2.90625 Z m 0,0"
               id="id-bdb40d61-4702-4f75-8891-ae5bc00b9101" />
          </g>
          <g
             id="id-5b40b760-91a7-418b-9a75-f2efddb10689">
            <path
               d="m 2.9375,-0.84375 -0.171875,0.125 C 2.359375,-0.421875 2,-0.296875 1.71875,-0.296875 c -0.34375,0 -0.8125,-0.359375 -0.921875,-0.84375 -0.015625,-0.078125 -0.015625,-0.15625 -0.015625,-0.25 0,-0.09375 0,-0.1875 0.015625,-0.28125 C 1,-1.6875 1.359375,-1.6875 1.40625,-1.6875 c 0.359375,0 0.828125,0 1.0625,0 L 2.515625,-1.734375 2.625,-2 c -0.5625,0.015625 -0.65625,0.015625 -0.9375,0.015625 -0.0625,0 -0.546875,0 -0.828125,0 0.0625,-0.375 0.203125,-0.78125 0.53125,-1.046875 0.21875,-0.1875 0.484375,-0.28125 0.75,-0.28125 0.25,0 0.5,0.046875 0.640625,0.234375 0.0625,0.046875 0.140625,0.171875 0.203125,0.296875 L 3.125,-2.796875 3.4375,-3.203125 C 3.203125,-3.484375 2.84375,-3.65625 2.453125,-3.65625 c -0.5,0 -0.984375,0.1875 -1.40625,0.546875 C 0.5625,-2.71875 0.25,-2.15625 0.15625,-1.578125 0.125,-1.4375 0.109375,-1.296875 0.109375,-1.171875 c 0,0.328125 0.09375,0.640625 0.296875,0.875 0.234375,0.296875 0.640625,0.375 1.046875,0.375 0.4375,0 0.828125,-0.21875 1.546875,-0.78125 z m 0,0"
               id="id-96f23d68-170d-46a5-be51-59c533dcd261" />
          </g>
        </g>
      </defs>
      <g
         fill="#000000"
         fill-opacity="1"
         id="id-2e794591-a653-4544-8801-b98dd2988e2a"
         transform="translate(-148.603,-135.621)">
        <g
           transform="translate(148.837,138.949)"
           id="g71">
          <path
             d="m 4.578125,-0.921875 c 0,-0.21875 0,-0.28125 -0.125,-0.28125 -0.609375,0 -1.609375,-0.078125 -2.5,-0.515625 C 0.875,-2.265625 0.46875,-2.890625 0.21875,-3.28125 0.1875,-3.328125 0.125,-3.328125 0,-3.328125 c -0.234375,0 -0.234375,0.015625 -0.234375,0.25 V -2.90625 C 1.109375,-0.46875 3.359375,0 4.375,0 4.578125,0 4.578125,-0.015625 4.578125,-0.28125 Z m 0,0"
             id="id-87a60a70-dcf9-4d93-b30f-fe0f3b639db8" />
        </g>
      </g>
      <path
         fill-rule="nonzero"
         fill="#000000"
         fill-opacity="1"
         d="M 4.8426794,3.3283399 H 29.393459 v -1.1875 H 4.8426794 Z m 0,0"
         id="id-85b6715c-7f8d-41da-b175-d5b26250a739" />
      <g
         fill="#000000"
         fill-opacity="1"
         id="id-2de4c617-4a00-4da9-95cd-5be2b8fc23f1"
         transform="translate(-148.603,-135.621)">
        <g
           transform="translate(178.12,138.949)"
           id="g72">
          <path
             d="M 4.71875,1.71875 C 3.375,-0.734375 1.125,-1.203125 0.109375,-1.203125 c -0.203125,0 -0.203125,0.015625 -0.203125,0.28125 v 0.640625 c 0,0.234375 0,0.28125 0.140625,0.28125 0.59375,0.015625 1.59375,0.09375 2.484375,0.53125 1.078125,0.53125 1.484375,1.15625 1.734375,1.546875 0.03125,0.0625 0.09375,0.0625 0.21875,0.0625 C 4.71875,2.140625 4.71875,2.125 4.71875,1.875 Z m 0,0"
             id="id-fe286ef8-6b9c-416e-ac94-bb346daee814" />
        </g>
      </g>
      <g
         fill="#000000"
         fill-opacity="1"
         id="id-87afab49-20de-4632-8f31-9a73ce655026"
         transform="translate(-148.603,-135.621)">
        <g
           transform="translate(182.852,138.949)"
           id="g73">
          <path
             d="m 4.578125,-0.921875 c 0,-0.265625 0,-0.28125 -0.203125,-0.28125 -1.015625,0 -3.265625,0.484375 -4.609375,2.921875 V 1.875 c 0,0.25 0,0.265625 0.234375,0.265625 0.1875,0 0.203125,-0.015625 0.25,-0.09375 C 1.0625,0.75 2.4375,0.046875 4.46875,0 4.578125,0 4.578125,-0.0625 4.578125,-0.28125 Z m 0,0"
             id="id-c548e9d8-0e7a-4b26-aaa4-e2fdff951f55" />
        </g>
      </g>
      <path
         fill-rule="nonzero"
         fill="#000000"
         fill-opacity="1"
         d="m 38.858309,3.3283399 h 24.55078 v -1.1875 h -24.55078 z m 0,0"
         id="id-21f75865-3b03-4955-86ef-e36e378dc0b6" />
      <g
         fill="#000000"
         fill-opacity="1"
         id="id-59dc5cad-1293-4b25-8f6c-522b47472367"
         transform="translate(-148.603,-135.621)">
        <g
           transform="translate(212.136,138.949)"
           id="g74">
          <path
             d="m 4.71875,-3.078125 c 0,-0.234375 0,-0.25 -0.234375,-0.25 -0.1875,0 -0.203125,0.015625 -0.25,0.078125 -0.8125,1.3125 -2.1875,2.015625 -4.21875,2.046875 -0.109375,0 -0.109375,0.078125 -0.109375,0.28125 v 0.640625 c 0,0.265625 0,0.28125 0.203125,0.28125 C 1.125,0 3.375,-0.484375 4.71875,-2.90625 Z m 0,0"
             id="id-a5ba1d09-2816-45ed-bd49-b70a33c01fcc" />
        </g>
      </g>
      <g
         fill="#000000"
         fill-opacity="1"
         id="id-ee4bbfc5-6cc5-4b71-81cb-21bb9ae57c84"
         transform="translate(-148.603,-135.621)">
        <g
           transform="translate(180.964,147.068)"
           id="g75">
          <path
             d="m 2.9375,-0.84375 -0.171875,0.125 C 2.359375,-0.421875 2,-0.296875 1.71875,-0.296875 c -0.34375,0 -0.8125,-0.359375 -0.921875,-0.84375 -0.015625,-0.078125 -0.015625,-0.15625 -0.015625,-0.25 0,-0.09375 0,-0.1875 0.015625,-0.28125 C 1,-1.6875 1.359375,-1.6875 1.40625,-1.6875 c 0.359375,0 0.828125,0 1.0625,0 L 2.515625,-1.734375 2.625,-2 c -0.5625,0.015625 -0.65625,0.015625 -0.9375,0.015625 -0.0625,0 -0.546875,0 -0.828125,0 0.0625,-0.375 0.203125,-0.78125 0.53125,-1.046875 0.21875,-0.1875 0.484375,-0.28125 0.75,-0.28125 0.25,0 0.5,0.046875 0.640625,0.234375 0.0625,0.046875 0.140625,0.171875 0.203125,0.296875 L 3.125,-2.796875 3.4375,-3.203125 C 3.203125,-3.484375 2.84375,-3.65625 2.453125,-3.65625 c -0.5,0 -0.984375,0.1875 -1.40625,0.546875 C 0.5625,-2.71875 0.25,-2.15625 0.15625,-1.578125 0.125,-1.4375 0.109375,-1.296875 0.109375,-1.171875 c 0,0.328125 0.09375,0.640625 0.296875,0.875 0.234375,0.296875 0.640625,0.375 1.046875,0.375 0.4375,0 0.828125,-0.21875 1.546875,-0.78125 z m 0,0"
             id="id-826f3d69-4472-4bcf-b409-3e4e19d59361" />
        </g>
      </g>
    </g>
  </g>
</svg>
