<?xml version="1.0" encoding="UTF-8" standalone="no"?>
<!-- Created with Inkscape (http://www.inkscape.org/) -->

<svg
   width="190.15509mm"
   height="102.08737mm"
   viewBox="0 0 190.15509 102.08737"
   version="1.1"
   id="svg2778"
   inkscape:version="1.3 (1:1.3+202307231459+0e150ed6c4)"
   sodipodi:docname="prob-24-10-23_01.svg"
   xmlns:inkscape="http://www.inkscape.org/namespaces/inkscape"
   xmlns:sodipodi="http://sodipodi.sourceforge.net/DTD/sodipodi-0.dtd"
   xmlns="http://www.w3.org/2000/svg"
   xmlns:svg="http://www.w3.org/2000/svg">
  <sodipodi:namedview
     id="namedview2780"
     pagecolor="#ffffff"
     bordercolor="#999999"
     borderopacity="1"
     inkscape:showpageshadow="0"
     inkscape:pageopacity="0"
     inkscape:pagecheckerboard="0"
     inkscape:deskcolor="#d1d1d1"
     inkscape:document-units="mm"
     showgrid="false"
     showguides="true"
     inkscape:zoom="1"
     inkscape:cx="432.5"
     inkscape:cy="167.5"
     inkscape:window-width="1920"
     inkscape:window-height="1012"
     inkscape:window-x="0"
     inkscape:window-y="32"
     inkscape:window-maximized="1"
     inkscape:current-layer="layer1">
    <inkscape:grid
       id="grid11"
       units="px"
       originx="231.87529"
       originy="32.480724"
       spacingx="0.26458334"
       spacingy="0.26458334"
       empcolor="#0099e5"
       empopacity="0.30196078"
       color="#0099e5"
       opacity="0.14901961"
       empspacing="5"
       dotted="false"
       gridanglex="30"
       gridanglez="30"
       visible="false" />
    <sodipodi:guide
       position="103.13077,35.897748"
       orientation="1,0"
       id="guide12"
       inkscape:locked="false" />
    <sodipodi:guide
       position="94.282518,45.06"
       orientation="0,-1"
       id="guide13"
       inkscape:locked="false" />
  </sodipodi:namedview>
  <defs
     id="defs2775">
    <inkscape:path-effect
       effect="bspline"
       id="path-effect11"
       is_visible="true"
       lpeversion="1.3"
       weight="33.333333"
       steps="2"
       helper_size="0"
       apply_no_weight="true"
       apply_with_weight="true"
       only_selected="false"
       uniform="false" />
    <inkscape:path-effect
       effect="bspline"
       id="path-effect9"
       is_visible="true"
       lpeversion="1.3"
       weight="33.333333"
       steps="2"
       helper_size="0"
       apply_no_weight="true"
       apply_with_weight="true"
       only_selected="false"
       uniform="false" />
    <inkscape:path-effect
       effect="bspline"
       id="path-effect7"
       is_visible="true"
       lpeversion="1.3"
       weight="33.333333"
       steps="2"
       helper_size="0"
       apply_no_weight="true"
       apply_with_weight="true"
       only_selected="false"
       uniform="false" />
    <inkscape:path-effect
       effect="bspline"
       id="path-effect5"
       is_visible="true"
       lpeversion="1.3"
       weight="33.333333"
       steps="2"
       helper_size="0"
       apply_no_weight="true"
       apply_with_weight="true"
       only_selected="false"
       uniform="false" />
  </defs>
  <g
     inkscape:label="Layer 1"
     inkscape:groupmode="layer"
     id="layer1"
     transform="translate(-0.77835252,-73.888225)">
    <g
       id="g13"
       transform="translate(3.0717157,-3.0387584)">
      <path
         d="m 52.331823,125.47576 -3.927625,1.83289 1.832892,-3.92762 c 0.08641,1.13377 0.95834,2.00571 2.094733,2.09473 z"
         style="color:#000000;fill:#0000ff;fill-rule:evenodd;-inkscape-stroke:none"
         id="path16" />
    </g>
    <path
       style="fill:none;stroke:#000000;stroke-width:0.529167;stroke-linecap:butt;stroke-linejoin:miter;stroke-opacity:1"
       d="M 0.77861161,150.28311 190.93319,150.46932"
       id="path14"
       sodipodi:nodetypes="cc" />
    <path
       style="fill:none;stroke:#000000;stroke-width:0.529167;stroke-linecap:butt;stroke-linejoin:miter;stroke-opacity:1"
       d="M 25.725752,175.97549 25.765742,73.888329"
       id="path15"
       sodipodi:nodetypes="cc" />
    <path
       style="fill:none;stroke:#0000ff;stroke-width:0.529167;stroke-linecap:butt;stroke-linejoin:miter;stroke-dasharray:none;stroke-opacity:1"
       d="M 25.735807,150.30755 H 153.24613 L 88.731453,86.63531 Z"
       id="path13" />
    <g
       inkscape:label=""
       transform="matrix(1.9204424,0,0,1.9204514,84.612417,154.87917)"
       id="g20"
       style="stroke-width:0.52071">
      <g
         id="surface1"
         transform="matrix(0.352778,0,0,0.352778,-0.894556,-0.709965)"
         style="stroke-width:0.52071">
        <g
           style="fill:#000000;fill-opacity:1;stroke-width:0.52071"
           id="g5">
          <g
             id="use4"
             transform="translate(2.1919999,9.6999998)"
             style="stroke-width:0.52071">
            <path
               style="stroke:none;stroke-width:0.52071"
               d="m 1.265625,-4.40625 c 0.1875,-0.65625 0.59375,-1.46875 1.15625,-2 C 2.625,-6.59375 3.09375,-6.96875 3.5,-6.96875 c 0.84375,0 1.34375,0.65625 1.484375,1.03125 0.609375,1.40625 0.703125,2.21875 0.703125,3.65625 -0.203125,0.9375 -0.453125,1.875 -0.65625,2.828125 l -0.578125,2.90625 0.5,0.15625 C 5.234375,3.359375 5.484375,3.0625 5.78125,2.90625 l 0.4375,-2.75 C 6.328125,-0.9375 6.75,-2.15625 7.140625,-3.03125 7.59375,-4.015625 8.390625,-5 8.734375,-5.09375 8.84375,-5.125 8.875,-5.15625 8.890625,-5.21875 8.921875,-5.359375 8.984375,-5.671875 9.453125,-6.3125 9.28125,-6.390625 9.28125,-6.625 9.1875,-6.625 c -0.625,0.15625 -1.921875,1.78125 -2.75,3.796875 -0.03125,-1 -0.109375,-1.4375 -0.21875,-1.9375 C 6,-5.6875 5.6875,-6.28125 5.34375,-6.75 4.75,-7.59375 4.03125,-7.6875 3.5625,-7.6875 c -0.390625,0 -1.03125,0.109375 -1.84375,0.84375 -0.3125,0.265625 -1.125,1.1875 -1.375,1.75 0.234375,0.296875 0.328125,0.46875 0.484375,0.78125 z m 0,0"
               id="path6" />
          </g>
        </g>
        <g
           style="fill:#000000;fill-opacity:1;stroke-width:0.52071"
           id="g6">
          <g
             id="use5"
             transform="translate(11.891,12.672)"
             style="stroke-width:0.52071">
            <path
               style="stroke:none;stroke-width:0.52071"
               d="m 0.8125,-6.71875 h 0.125 L 2.5,-7.421875 C 2.5,-7.4375 2.515625,-7.4375 2.53125,-7.4375 c 0.078125,0 0.09375,0.109375 0.09375,0.40625 v 5.875 c 0,0.625 -0.125,0.75 -0.78125,0.796875 l -0.6875,0.03125 V 0.03125 C 3.03125,0 3.03125,0 3.15625,0 3.3125,0 3.578125,0 4,0.015625 4.140625,0.03125 4.5625,0.03125 5.0625,0.03125 v -0.359375 l -0.625,-0.03125 C 3.765625,-0.40625 3.640625,-0.53125 3.640625,-1.15625 v -7.1875 L 3.46875,-8.40625 c -0.78125,0.421875 -1.640625,0.78125 -2.75,1.171875 z m 0,0"
               id="path7" />
          </g>
        </g>
      </g>
    </g>
    <g
       inkscape:label=""
       transform="matrix(1.9204424,0,0,1.9204514,123.26165,111.17439)"
       id="g26"
       style="stroke-width:0.52071">
      <g
         id="g25"
         transform="matrix(0.352778,0,0,0.352778,-0.894556,-0.709965)"
         style="stroke-width:0.52071">
        <g
           style="fill:#000000;fill-opacity:1;stroke-width:0.52071"
           id="g22">
          <g
             id="g21"
             transform="translate(2.1919999,9.6999998)"
             style="stroke-width:0.52071">
            <path
               style="stroke:none;stroke-width:0.52071"
               d="m 1.265625,-4.40625 c 0.1875,-0.65625 0.59375,-1.46875 1.15625,-2 C 2.625,-6.59375 3.09375,-6.96875 3.5,-6.96875 c 0.84375,0 1.34375,0.65625 1.484375,1.03125 0.609375,1.40625 0.703125,2.21875 0.703125,3.65625 -0.203125,0.9375 -0.453125,1.875 -0.65625,2.828125 l -0.578125,2.90625 0.5,0.15625 C 5.234375,3.359375 5.484375,3.0625 5.78125,2.90625 l 0.4375,-2.75 C 6.328125,-0.9375 6.75,-2.15625 7.140625,-3.03125 7.59375,-4.015625 8.390625,-5 8.734375,-5.09375 8.84375,-5.125 8.875,-5.15625 8.890625,-5.21875 8.921875,-5.359375 8.984375,-5.671875 9.453125,-6.3125 9.28125,-6.390625 9.28125,-6.625 9.1875,-6.625 c -0.625,0.15625 -1.921875,1.78125 -2.75,3.796875 -0.03125,-1 -0.109375,-1.4375 -0.21875,-1.9375 C 6,-5.6875 5.6875,-6.28125 5.34375,-6.75 4.75,-7.59375 4.03125,-7.6875 3.5625,-7.6875 c -0.390625,0 -1.03125,0.109375 -1.84375,0.84375 -0.3125,0.265625 -1.125,1.1875 -1.375,1.75 0.234375,0.296875 0.328125,0.46875 0.484375,0.78125 z m 0,0"
               id="path20" />
          </g>
        </g>
        <g
           style="fill:#000000;fill-opacity:1;stroke-width:0.52071"
           id="g24">
          <g
             id="g23"
             transform="translate(11.891,12.491)"
             style="stroke-width:0.52071">
            <path
               style="stroke:none;stroke-width:0.52071"
               d="m 0.1875,-0.28125 v 0.3125 C 2.453125,0 2.453125,0 2.890625,0 c 0.4375,0 0.4375,0 2.78125,0.03125 -0.03125,-0.25 -0.03125,-0.375 -0.03125,-0.546875 0,-0.15625 0,-0.265625 0.03125,-0.53125 C 4.28125,-1 3.71875,-0.984375 1.484375,-0.9375 L 3.6875,-3.265625 c 1.171875,-1.25 1.53125,-1.921875 1.53125,-2.828125 0,-1.390625 -0.9375,-2.25 -2.484375,-2.25 -0.875,0 -1.46875,0.25 -2.0625,0.84375 L 0.46875,-5.84375 h 0.359375 l 0.15625,-0.5625 c 0.1875,-0.703125 0.625,-1 1.4375,-1 1.046875,0 1.703125,0.65625 1.703125,1.671875 0,0.921875 -0.5,1.8125 -1.875,3.265625 z m 0,0"
               id="path22" />
          </g>
        </g>
      </g>
    </g>
    <g
       inkscape:label=""
       transform="matrix(1.9204424,0,0,1.9204514,45.730843,111.00403)"
       id="g32"
       style="stroke-width:0.52071">
      <g
         id="g31"
         transform="matrix(0.352778,0,0,0.352778,-0.894556,-0.709965)"
         style="stroke-width:0.52071">
        <g
           style="fill:#000000;fill-opacity:1;stroke-width:0.52071"
           id="g28">
          <g
             id="g27"
             transform="translate(2.1919999,9.6999998)"
             style="stroke-width:0.52071">
            <path
               style="stroke:none;stroke-width:0.52071"
               d="m 1.265625,-4.40625 c 0.1875,-0.65625 0.59375,-1.46875 1.15625,-2 C 2.625,-6.59375 3.09375,-6.96875 3.5,-6.96875 c 0.84375,0 1.34375,0.65625 1.484375,1.03125 0.609375,1.40625 0.703125,2.21875 0.703125,3.65625 -0.203125,0.9375 -0.453125,1.875 -0.65625,2.828125 l -0.578125,2.90625 0.5,0.15625 C 5.234375,3.359375 5.484375,3.0625 5.78125,2.90625 l 0.4375,-2.75 C 6.328125,-0.9375 6.75,-2.15625 7.140625,-3.03125 7.59375,-4.015625 8.390625,-5 8.734375,-5.09375 8.84375,-5.125 8.875,-5.15625 8.890625,-5.21875 8.921875,-5.359375 8.984375,-5.671875 9.453125,-6.3125 9.28125,-6.390625 9.28125,-6.625 9.1875,-6.625 c -0.625,0.15625 -1.921875,1.78125 -2.75,3.796875 -0.03125,-1 -0.109375,-1.4375 -0.21875,-1.9375 C 6,-5.6875 5.6875,-6.28125 5.34375,-6.75 4.75,-7.59375 4.03125,-7.6875 3.5625,-7.6875 c -0.390625,0 -1.03125,0.109375 -1.84375,0.84375 -0.3125,0.265625 -1.125,1.1875 -1.375,1.75 0.234375,0.296875 0.328125,0.46875 0.484375,0.78125 z m 0,0"
               id="path26" />
          </g>
        </g>
        <g
           style="fill:#000000;fill-opacity:1;stroke-width:0.52071"
           id="g30">
          <g
             id="g29"
             transform="translate(11.891,12.491)"
             style="stroke-width:0.52071">
            <path
               style="stroke:none;stroke-width:0.52071"
               d="m 0.515625,-6.03125 h 0.375 l 0.21875,-0.671875 C 1.25,-7.125 2.015625,-7.53125 2.640625,-7.53125 c 0.78125,0 1.421875,0.640625 1.421875,1.40625 0,0.90625 -0.703125,1.671875 -1.5625,1.671875 -0.109375,0 -0.234375,-0.015625 -0.390625,-0.03125 L 1.921875,-4.5 1.78125,-3.84375 1.859375,-3.78125 C 2.328125,-3.984375 2.5625,-4.046875 2.875,-4.046875 c 1.015625,0 1.59375,0.640625 1.59375,1.75 C 4.46875,-1.0625 3.734375,-0.25 2.609375,-0.25 2.046875,-0.25 1.546875,-0.4375 1.1875,-0.78125 0.890625,-1.046875 0.734375,-1.3125 0.515625,-1.96875 L 0.1875,-1.859375 c 0.25,0.75 0.34375,1.1875 0.421875,1.78125 0.640625,0.21875 1.171875,0.3125 1.625,0.3125 0.96875,0 2.078125,-0.53125 2.75,-1.34375 0.40625,-0.5 0.609375,-1.03125 0.609375,-1.609375 0,-0.578125 -0.234375,-1.078125 -0.671875,-1.390625 -0.3125,-0.21875 -0.59375,-0.3125 -1.1875,-0.421875 0.96875,-0.75 1.328125,-1.3125 1.328125,-2.015625 0,-1.078125 -0.890625,-1.796875 -2.234375,-1.796875 -0.828125,0 -1.375,0.234375 -1.953125,0.8125 z m 0,0"
               id="path28" />
          </g>
        </g>
      </g>
    </g>
    <g
       inkscape:label=""
       transform="matrix(1.3851159,0,0,1.3851223,82.250272,78.043251)"
       id="g34"
       style="stroke-width:0.72196">
      <g
         id="g33"
         transform="matrix(0.352778,0,0,0.352778,-1.35206,-0.707275)"
         style="stroke-width:0.72196">
        <g
           style="fill:#000000;fill-opacity:1;stroke-width:0.72196"
           id="g7">
          <g
             id="use6"
             transform="translate(2.1919999,14.458)"
             style="stroke-width:0.72196">
            <path
               style="stroke:none;stroke-width:0.72196"
               d="M 5.5,3.984375 C 5.5,3.9375 5.5,3.90625 5.21875,3.625 3.140625,1.53125 2.609375,-1.609375 2.609375,-4.15625 c 0,-2.890625 0.625,-5.78125 2.671875,-7.859375 C 5.5,-12.203125 5.5,-12.234375 5.5,-12.296875 c 0,-0.109375 -0.0625,-0.15625 -0.171875,-0.15625 -0.15625,0 -1.65625,1.125 -2.640625,3.234375 -0.84375,1.828125 -1.046875,3.671875 -1.046875,5.0625 0,1.296875 0.1875,3.3125 1.09375,5.1875 1,2.046875 2.4375,3.125 2.59375,3.125 C 5.4375,4.15625 5.5,4.109375 5.5,3.984375 Z m 0,0"
               id="path10" />
          </g>
        </g>
        <g
           style="fill:#000000;fill-opacity:1;stroke-width:0.72196"
           id="g8">
          <g
             id="use7"
             transform="translate(8.8310003,14.458)"
             style="stroke-width:0.72196">
            <path
               style="stroke:none;stroke-width:0.72196"
               d="M 1.0625,-8.84375 H 1.234375 L 3.28125,-9.765625 C 3.296875,-9.78125 3.3125,-9.78125 3.328125,-9.78125 c 0.09375,0 0.125,0.140625 0.125,0.515625 v 7.734375 c 0,0.828125 -0.171875,1 -1.03125,1.046875 L 1.53125,-0.4375 V 0.046875 C 3.984375,0 3.984375,0 4.15625,0 c 0.203125,0 0.5625,0 1.109375,0.015625 0.1875,0.015625 0.75,0.015625 1.390625,0.03125 V -0.4375 L 5.828125,-0.484375 c -0.875,-0.046875 -1.03125,-0.21875 -1.03125,-1.046875 v -9.453125 l -0.21875,-0.07813 c -1.046875,0.546875 -2.171875,1.015625 -3.625,1.53125 z m 0,0"
               id="path11" />
          </g>
          <g
             id="use8"
             transform="translate(16.8011,14.458)"
             style="stroke-width:0.72196">
            <path
               style="stroke:none;stroke-width:0.72196"
               d="M 3.25,-1.953125 C 2.828125,-1.8125 2.53125,-1.71875 1.6875,-1.484375 1.578125,-0.265625 1.171875,0.765625 0.25,2.296875 L 0.484375,2.46875 1.125,2.171875 C 2.421875,0.5 3.03125,-0.515625 3.46875,-1.734375 Z m 0,0"
               id="path12" />
          </g>
        </g>
        <g
           style="fill:#000000;fill-opacity:1;stroke-width:0.72196"
           id="g9">
          <g
             id="use9"
             transform="translate(23.448162,14.458)"
             style="stroke-width:0.72196">
            <path
               style="stroke:none;stroke-width:0.72196"
               d="M 1.0625,-8.84375 H 1.234375 L 3.28125,-9.765625 C 3.296875,-9.78125 3.3125,-9.78125 3.328125,-9.78125 c 0.09375,0 0.125,0.140625 0.125,0.515625 v 7.734375 c 0,0.828125 -0.171875,1 -1.03125,1.046875 L 1.53125,-0.4375 V 0.046875 C 3.984375,0 3.984375,0 4.15625,0 c 0.203125,0 0.5625,0 1.109375,0.015625 0.1875,0.015625 0.75,0.015625 1.390625,0.03125 V -0.4375 L 5.828125,-0.484375 c -0.875,-0.046875 -1.03125,-0.21875 -1.03125,-1.046875 v -9.453125 l -0.21875,-0.07813 c -1.046875,0.546875 -2.171875,1.015625 -3.625,1.53125 z m 0,0"
               id="path32" />
          </g>
        </g>
        <g
           style="fill:#000000;fill-opacity:1;stroke-width:0.72196"
           id="g10">
          <g
             id="use10"
             transform="translate(31.612,14.458)"
             style="stroke-width:0.72196">
            <path
               style="stroke:none;stroke-width:0.72196"
               d="m 4.796875,-4.15625 c 0,-1.296875 -0.171875,-3.296875 -1.09375,-5.171875 -1,-2.046875 -2.421875,-3.125 -2.59375,-3.125 -0.09375,0 -0.15625,0.0625 -0.15625,0.15625 0,0.0625 0,0.09375 0.3125,0.390625 1.625,1.640625 2.578125,4.28125 2.578125,7.75 0,2.84375 -0.625,5.765625 -2.6875,7.859375 C 0.953125,3.90625 0.953125,3.9375 0.953125,3.984375 c 0,0.09375 0.0625,0.171875 0.15625,0.171875 0.171875,0 1.671875,-1.140625 2.640625,-3.25 0.84375,-1.8125 1.046875,-3.65625 1.046875,-5.0625 z m 0,0"
               id="path33" />
          </g>
        </g>
      </g>
    </g>
    <g
       inkscape:label=""
       transform="matrix(1.3851159,0,0,1.3851223,147.07002,152.59794)"
       id="g43"
       style="stroke-width:0.72196">
      <g
         id="g42"
         transform="matrix(0.352778,0,0,0.352778,-1.35206,-0.707275)"
         style="stroke-width:0.72196">
        <g
           style="fill:#000000;fill-opacity:1;stroke-width:0.72196"
           id="g36">
          <g
             id="g35"
             transform="translate(2.1919999,14.458)"
             style="stroke-width:0.72196">
            <path
               style="stroke:none;stroke-width:0.72196"
               d="M 5.5,3.984375 C 5.5,3.9375 5.5,3.90625 5.21875,3.625 3.140625,1.53125 2.609375,-1.609375 2.609375,-4.15625 c 0,-2.890625 0.625,-5.78125 2.671875,-7.859375 C 5.5,-12.203125 5.5,-12.234375 5.5,-12.296875 c 0,-0.109375 -0.0625,-0.15625 -0.171875,-0.15625 -0.15625,0 -1.65625,1.125 -2.640625,3.234375 -0.84375,1.828125 -1.046875,3.671875 -1.046875,5.0625 0,1.296875 0.1875,3.3125 1.09375,5.1875 1,2.046875 2.4375,3.125 2.59375,3.125 C 5.4375,4.15625 5.5,4.109375 5.5,3.984375 Z m 0,0"
               id="path34" />
          </g>
        </g>
        <g
           style="fill:#000000;fill-opacity:1;stroke-width:0.72196"
           id="g39">
          <g
             id="g37"
             transform="translate(8.8310003,14.458)"
             style="stroke-width:0.72196">
            <path
               style="stroke:none;stroke-width:0.72196"
               d="m 0.25,-0.359375 v 0.40625 C 3.234375,0 3.234375,0 3.8125,0 c 0.578125,0 0.578125,0 3.640625,0.046875 -0.03125,-0.328125 -0.03125,-0.5 -0.03125,-0.71875 0,-0.203125 0,-0.359375 0.03125,-0.71875 C 5.625,-1.3125 4.890625,-1.296875 1.9375,-1.234375 l 2.90625,-3.0625 C 6.390625,-5.9375 6.875,-6.828125 6.875,-8.015625 c 0,-1.828125 -1.25,-2.96875 -3.265625,-2.96875 -1.15625,0 -1.9375,0.328125 -2.71875,1.125 L 0.625,-7.703125 H 1.078125 L 1.296875,-8.4375 C 1.546875,-9.359375 2.125,-9.75 3.1875,-9.75 c 1.375,0 2.25,0.859375 2.25,2.21875 0,1.1875 -0.671875,2.375 -2.46875,4.28125 z m 0,0"
               id="path36" />
          </g>
          <g
             id="g38"
             transform="translate(16.8011,14.458)"
             style="stroke-width:0.72196">
            <path
               style="stroke:none;stroke-width:0.72196"
               d="M 3.25,-1.953125 C 2.828125,-1.8125 2.53125,-1.71875 1.6875,-1.484375 1.578125,-0.265625 1.171875,0.765625 0.25,2.296875 L 0.484375,2.46875 1.125,2.171875 C 2.421875,0.5 3.03125,-0.515625 3.46875,-1.734375 Z m 0,0"
               id="path37" />
          </g>
        </g>
        <g
           style="fill:#000000;fill-opacity:1;stroke-width:0.72196"
           id="g41">
          <g
             id="g40"
             transform="translate(23.448162,14.458)"
             style="stroke-width:0.72196">
            <path
               style="stroke:none;stroke-width:0.72196"
               d="m 4.1875,-10.984375 c -2.46875,0 -3.71875,1.96875 -3.71875,5.828125 0,1.859375 0.328125,3.46875 0.890625,4.25 0.546875,0.78125 1.453125,1.21875 2.4375,1.21875 2.40625,0 3.609375,-2.0625 3.609375,-6.140625 0,-3.5 -1.03125,-5.15625 -3.21875,-5.15625 z m -0.28125,0.5625 c 1.546875,0 2.171875,1.5625 2.171875,5.390625 0,3.390625 -0.609375,4.796875 -2.078125,4.796875 -1.546875,0 -2.203125,-1.609375 -2.203125,-5.5 0,-3.359375 0.59375,-4.6875 2.109375,-4.6875 z m 0,0"
               id="path39" />
          </g>
        </g>
        <g
           style="fill:#000000;fill-opacity:1;stroke-width:0.72196"
           id="g11">
          <g
             id="use11"
             transform="translate(31.612,14.458)"
             style="stroke-width:0.72196">
            <path
               style="stroke:none;stroke-width:0.72196"
               d="m 4.796875,-4.15625 c 0,-1.296875 -0.171875,-3.296875 -1.09375,-5.171875 -1,-2.046875 -2.421875,-3.125 -2.59375,-3.125 -0.09375,0 -0.15625,0.0625 -0.15625,0.15625 0,0.0625 0,0.09375 0.3125,0.390625 1.625,1.640625 2.578125,4.28125 2.578125,7.75 0,2.84375 -0.625,5.765625 -2.6875,7.859375 C 0.953125,3.90625 0.953125,3.9375 0.953125,3.984375 c 0,0.09375 0.0625,0.171875 0.15625,0.171875 0.171875,0 1.671875,-1.140625 2.640625,-3.25 0.84375,-1.8125 1.046875,-3.65625 1.046875,-5.0625 z m 0,0"
               id="path41" />
          </g>
        </g>
      </g>
    </g>
    <g
       id="g18">
      <path
         d="m 88.750368,148.82635 4.0733,1.4812 -4.0733,1.4812 c 0.7406,-0.8628 0.7406,-2.0959 0,-2.9624 z"
         style="color:#000000;fill:#0000ff;fill-rule:evenodd;-inkscape-stroke:none"
         id="path18" />
    </g>
    <g
       id="g44">
      <path
         d="m 120.46511,120.04248 -1.83289,-3.92762 3.92762,1.83289 c -1.13377,0.0864 -2.00571,0.95834 -2.09473,2.09473 z"
         style="color:#000000;fill:#0000ff;fill-rule:evenodd;-inkscape-stroke:none"
         id="path44" />
    </g>
  </g>
</svg>
