<?xml version="1.0" encoding="UTF-8" standalone="no"?>
<!-- Created with Inkscape (http://www.inkscape.org/) -->

<svg
   width="140.93967mm"
   height="147.48634mm"
   viewBox="0 0 140.93967 147.48634"
   version="1.1"
   id="svg1"
   inkscape:version="1.4 (e7c3feb1, 2024-10-09)"
   sodipodi:docname="prob-30-05-25_01.svg"
   xmlns:inkscape="http://www.inkscape.org/namespaces/inkscape"
   xmlns:sodipodi="http://sodipodi.sourceforge.net/DTD/sodipodi-0.dtd"
   xmlns="http://www.w3.org/2000/svg"
   xmlns:svg="http://www.w3.org/2000/svg"
   xmlns:ns1="http://www.iki.fi/pav/software/textext/">
  <sodipodi:namedview
     id="namedview1"
     pagecolor="#ffffff"
     bordercolor="#000000"
     borderopacity="0.25"
     inkscape:showpageshadow="2"
     inkscape:pageopacity="0.0"
     inkscape:pagecheckerboard="0"
     inkscape:deskcolor="#d1d1d1"
     inkscape:document-units="mm"
     showgrid="false"
     inkscape:zoom="1"
     inkscape:cx="303"
     inkscape:cy="357"
     inkscape:window-width="1512"
     inkscape:window-height="916"
     inkscape:window-x="0"
     inkscape:window-y="38"
     inkscape:window-maximized="1"
     inkscape:current-layer="layer1">
    <inkscape:grid
       type="axonomgrid"
       id="grid1"
       units="mm"
       originx="-41.825797"
       originy="-126.88004"
       spacingx="0.99999998"
       spacingy="1"
       empcolor="#0099e5"
       empopacity="0.30196078"
       color="#0099e5"
       opacity="0.14901961"
       empspacing="5"
       dotted="false"
       gridanglex="30"
       gridanglez="30"
       enabled="true"
       visible="false" />
  </sodipodi:namedview>
  <defs
     id="defs1" />
  <g
     inkscape:label="Layer 1"
     inkscape:groupmode="layer"
     id="layer1"
     transform="translate(-41.825797,-126.88004)">
    <path
       style="font-variation-settings:normal;opacity:1;vector-effect:none;fill:#afdde9;fill-opacity:1;fill-rule:evenodd;stroke:none;stroke-width:0.799999;stroke-linecap:butt;stroke-linejoin:miter;stroke-miterlimit:4;stroke-dasharray:none;stroke-dashoffset:0;stroke-opacity:1;-inkscape-stroke:none"
       d="M 112.31872,127.68004 42.925341,247.87289 c -2.322994,6.65604 2.498532,12.46017 14.464577,17.41238 11.817726,5.14116 25.286173,6.43125 38.610365,8.05788 13.656747,1.0561 27.306857,0.77736 40.950317,-0.83624 11.38218,-1.28056 21.81678,-3.8361 31.3038,-7.66664 9.44174,-4.18711 14.14506,-8.83042 14.10996,-13.92992 0.24008,-1.85539 -0.83413,-3.39849 -1.8956,-5.19097 z"
       id="path15"
       sodipodi:nodetypes="ccccccccc" />
    <path
       style="fill:none;fill-rule:evenodd;stroke:#0000ff;stroke-width:0.799994;stroke-dasharray:4.79996, 0.799994;stroke-dashoffset:0"
       d="m 116.50619,228.15447 c 36.73811,0.71243 65.85926,10.68629 65.85927,22.88558"
       id="path12" />
    <path
       style="fill:none;fill-rule:evenodd;stroke:#0000ff;stroke-width:0.799994;stroke-dasharray:4.79996, 0.799994;stroke-dashoffset:0"
       d="m 42.2258,251.04008 c 1e-5,-12.36804 29.932386,-22.44866 67.38816,-22.90981"
       id="path5" />
    <path
       style="opacity:1;vector-effect:none;fill:none;fill-rule:evenodd;stroke:#666666;stroke-width:0.799999"
       d="m 111.99574,141.29152 c 2.65501,0 5.13433,-0.75223 7.23646,-2.05519"
       id="path17" />
    <path
       style="font-variation-settings:normal;opacity:1;vector-effect:none;fill:none;fill-opacity:1;fill-rule:evenodd;stroke:#4d4d4d;stroke-width:0.799999;stroke-linecap:butt;stroke-linejoin:miter;stroke-miterlimit:4;stroke-dasharray:none;stroke-dashoffset:0;stroke-opacity:1;-inkscape-stroke:none"
       d="M 112.31872,127.68004 V 251.04008"
       id="path8" />
    <path
       style="fill:none;fill-rule:evenodd;stroke:#0000ff;stroke-width:0.799994"
       d="m 182.36546,251.04008 c 10e-6,12.66184 -31.37133,22.9263 -70.06983,22.9263 -38.698504,0 -70.069837,-10.26446 -70.06983,-22.9263"
       id="path1" />
    <path
       style="font-variation-settings:normal;opacity:1;vector-effect:none;fill:#4d4d4d;fill-opacity:1;fill-rule:evenodd;stroke:#4d4d4d;stroke-width:0.799999;stroke-linecap:butt;stroke-linejoin:miter;stroke-miterlimit:4;stroke-dasharray:none;stroke-dashoffset:0;stroke-opacity:1;-inkscape-stroke:none"
       d="m 112.30153,250.91035 h 70.06283"
       id="path14" />
    <circle
       id="path13"
       style="fill:#ff0000;stroke:none;stroke-width:0.264584"
       cx="-112.30153"
       cy="250.91034"
       r="1.0764643"
       transform="scale(-1,1)" />
    <g
       transform="matrix(0.937844,0,0,0.937844,143.78613,243.47112)"
       ns1:version="1.10.2"
       ns1:texconverter="pdflatex"
       ns1:pdfconverter="inkscape"
       ns1:text="$r$"
       ns1:preamble="/Users/sachchidanandprasad/Library/Application Support/org.inkscape.Inkscape/config/inkscape/extensions/textext/default_packages.tex"
       ns1:scale="2.658454183650908"
       ns1:alignment="middle center"
       ns1:stroke-to-path="0"
       ns1:jacobian_sqrt="0.937844"
       id="g15">
      <defs
         id="id-0b08006c-7af6-4725-b16d-def9b2e2709f">
        <g
           id="id-6ca22777-7c93-49b6-88ff-334ffbdea13d">
          <g
             id="id-3b40d4e3-65cb-498c-a0d8-c8c8e883d7eb">
            <path
               d="M 3.671875,-3.640625 C 3.703125,-4.015625 3.75,-4.34375 3.828125,-4.75 3.71875,-4.796875 3.671875,-4.8125 3.625,-4.8125 c -0.3125,0 -0.609375,0.25 -0.96875,0.75 L 2.375,-3.671875 c -0.375,0.5625 -0.5,0.765625 -0.65625,1.125 l 0.078125,-0.40625 C 1.828125,-3.1875 1.90625,-3.59375 1.96875,-3.8125 l 0.0625,-0.25 c 0.046875,-0.171875 0.0625,-0.296875 0.0625,-0.421875 0,-0.203125 -0.078125,-0.328125 -0.234375,-0.328125 -0.203125,0 -0.578125,0.21875 -1.328125,0.75 l -0.265625,0.1875 0.0625,0.203125 0.3125,-0.203125 C 0.921875,-4.0625 1.03125,-4.109375 1.125,-4.109375 c 0.09375,0 0.171875,0.09375 0.171875,0.21875 C 1.296875,-3.3125 0.875,-1.25 0.46875,0.015625 L 0.5625,0.09375 C 0.71875,0.046875 0.875,0.015625 1.109375,-0.046875 L 1.234375,-0.0625 1.5,-1.25 c 0.171875,-0.828125 0.40625,-1.359375 0.84375,-1.9375 0.34375,-0.4375 0.609375,-0.640625 0.828125,-0.640625 0.140625,0 0.25,0.046875 0.359375,0.1875 z m 0,0"
               id="id-21c3f6ed-e5c7-42e5-8b94-bc74f6a48f07" />
          </g>
        </g>
      </defs>
      <g
         fill="#000000"
         fill-opacity="1"
         id="id-79430482-4e07-4205-9103-7a61c6dae29c"
         transform="translate(-149.003,-129.952)">
        <g
           transform="translate(148.737,134.765)"
           id="g14">
          <path
             d="M 3.671875,-3.640625 C 3.703125,-4.015625 3.75,-4.34375 3.828125,-4.75 3.71875,-4.796875 3.671875,-4.8125 3.625,-4.8125 c -0.3125,0 -0.609375,0.25 -0.96875,0.75 L 2.375,-3.671875 c -0.375,0.5625 -0.5,0.765625 -0.65625,1.125 l 0.078125,-0.40625 C 1.828125,-3.1875 1.90625,-3.59375 1.96875,-3.8125 l 0.0625,-0.25 c 0.046875,-0.171875 0.0625,-0.296875 0.0625,-0.421875 0,-0.203125 -0.078125,-0.328125 -0.234375,-0.328125 -0.203125,0 -0.578125,0.21875 -1.328125,0.75 l -0.265625,0.1875 0.0625,0.203125 0.3125,-0.203125 C 0.921875,-4.0625 1.03125,-4.109375 1.125,-4.109375 c 0.09375,0 0.171875,0.09375 0.171875,0.21875 C 1.296875,-3.3125 0.875,-1.25 0.46875,0.015625 L 0.5625,0.09375 C 0.71875,0.046875 0.875,0.015625 1.109375,-0.046875 L 1.234375,-0.0625 1.5,-1.25 c 0.171875,-0.828125 0.40625,-1.359375 0.84375,-1.9375 0.34375,-0.4375 0.609375,-0.640625 0.828125,-0.640625 0.140625,0 0.25,0.046875 0.359375,0.1875 z m 0,0"
             id="id-2a10ef8a-f9a6-4969-bc6b-bc30d4802ecb" />
        </g>
      </g>
    </g>
    <g
       transform="matrix(0.937844,0,0,0.937844,113.96597,187.16801)"
       ns1:version="1.10.2"
       ns1:texconverter="pdflatex"
       ns1:pdfconverter="inkscape"
       ns1:text="$h$"
       ns1:preamble="/Users/sachchidanandprasad/Library/Application Support/org.inkscape.Inkscape/config/inkscape/extensions/textext/default_packages.tex"
       ns1:scale="2.658454183650908"
       ns1:alignment="middle center"
       ns1:stroke-to-path="0"
       ns1:jacobian_sqrt="0.937844"
       id="g17">
      <defs
         id="id-da3c03a0-caf4-4269-867f-4dd7b341fe55">
        <g
           id="id-8cfcadb3-94ae-42b3-80c2-c2f6a029752b">
          <g
             id="id-c39fa839-8665-42b3-9418-cdd2c711e8a6">
            <path
               d="m 2.359375,-7.203125 -0.125,-0.109375 c -0.515625,0.265625 -0.875,0.359375 -1.59375,0.421875 l -0.046875,0.21875 h 0.484375 c 0.234375,0 0.34375,0.0625 0.34375,0.234375 0,0.078125 -0.015625,0.171875 -0.03125,0.234375 L 0.984375,-3.875 C 0.703125,-2.359375 0.3125,-0.640625 0.09375,-0.015625 L 0.171875,0.09375 0.859375,-0.0625 C 1.015625,-1.21875 1.1875,-1.828125 1.46875,-2.359375 1.90625,-3.15625 2.953125,-4.125 3.375,-4.125 c 0.125,0 0.21875,0.09375 0.21875,0.21875 0,0.171875 -0.078125,0.5625 -0.15625,0.890625 l -0.5,1.953125 c -0.09375,0.359375 -0.140625,0.578125 -0.140625,0.765625 0,0.234375 0.109375,0.390625 0.296875,0.390625 0.265625,0 0.625,-0.21875 1.59375,-0.9375 l -0.09375,-0.1875 -0.25,0.171875 C 4.046875,-0.671875 3.828125,-0.5625 3.734375,-0.5625 3.65625,-0.5625 3.59375,-0.640625 3.59375,-0.75 c 0,-0.109375 0.015625,-0.1875 0.078125,-0.40625 L 4.3125,-3.703125 c 0.046875,-0.265625 0.109375,-0.578125 0.109375,-0.75 0,-0.21875 -0.109375,-0.359375 -0.296875,-0.359375 -0.34375,0 -0.9375,0.34375 -1.578125,0.859375 -0.34375,0.296875 -0.515625,0.46875 -0.96875,1.0625 l -0.203125,0.25 z m 0,0"
               id="id-273f6ca9-9fe9-40bd-8a79-3abe0ea7155a" />
          </g>
        </g>
      </defs>
      <g
         fill="#000000"
         fill-opacity="1"
         id="id-568ede49-c9ca-4ca1-87f2-697f456e3a80"
         transform="translate(-148.981,-127.453)">
        <g
           transform="translate(148.887,134.765)"
           id="g16">
          <path
             d="m 2.359375,-7.203125 -0.125,-0.109375 c -0.515625,0.265625 -0.875,0.359375 -1.59375,0.421875 l -0.046875,0.21875 h 0.484375 c 0.234375,0 0.34375,0.0625 0.34375,0.234375 0,0.078125 -0.015625,0.171875 -0.03125,0.234375 L 0.984375,-3.875 C 0.703125,-2.359375 0.3125,-0.640625 0.09375,-0.015625 L 0.171875,0.09375 0.859375,-0.0625 C 1.015625,-1.21875 1.1875,-1.828125 1.46875,-2.359375 1.90625,-3.15625 2.953125,-4.125 3.375,-4.125 c 0.125,0 0.21875,0.09375 0.21875,0.21875 0,0.171875 -0.078125,0.5625 -0.15625,0.890625 l -0.5,1.953125 c -0.09375,0.359375 -0.140625,0.578125 -0.140625,0.765625 0,0.234375 0.109375,0.390625 0.296875,0.390625 0.265625,0 0.625,-0.21875 1.59375,-0.9375 l -0.09375,-0.1875 -0.25,0.171875 C 4.046875,-0.671875 3.828125,-0.5625 3.734375,-0.5625 3.65625,-0.5625 3.59375,-0.640625 3.59375,-0.75 c 0,-0.109375 0.015625,-0.1875 0.078125,-0.40625 L 4.3125,-3.703125 c 0.046875,-0.265625 0.109375,-0.578125 0.109375,-0.75 0,-0.21875 -0.109375,-0.359375 -0.296875,-0.359375 -0.34375,0 -0.9375,0.34375 -1.578125,0.859375 -0.34375,0.296875 -0.515625,0.46875 -0.96875,1.0625 l -0.203125,0.25 z m 0,0"
             id="id-a48351f4-03f2-4986-9524-59c307ad3459" />
        </g>
      </g>
    </g>
    <path
       style="fill:none;fill-rule:evenodd;stroke:#0000ff;stroke-width:0.799999;-inkscape-stroke:none"
       d="M 181.71209,247.87289 112.31872,127.68004 42.925341,247.87289"
       id="path4" />
    <g
       transform="matrix(0.937844,0,0,0.937844,114.77625,143.46608)"
       ns1:version="1.10.2"
       ns1:texconverter="pdflatex"
       ns1:pdfconverter="inkscape"
       ns1:text="$\\theta$"
       ns1:preamble="/Users/sachchidanandprasad/Library/Application Support/org.inkscape.Inkscape/config/inkscape/extensions/textext/default_packages.tex"
       ns1:scale="2.658454183650908"
       ns1:alignment="middle center"
       ns1:stroke-to-path="0"
       ns1:jacobian_sqrt="0.937844"
       id="g19">
      <defs
         id="id-3f044ba8-f9ad-43ec-be4b-7eaa75677a56">
        <g
           id="id-f4c38d5d-df56-4bf5-9772-70fa37e6bdfb">
          <g
             id="id-e36833db-dbdd-4e8b-84a0-beb8e7e4003b">
            <path
               d="m 3.15625,-7.09375 c -0.421875,0 -0.859375,0.21875 -1.328125,0.65625 -0.875,0.859375 -1.53125,2.359375 -1.53125,4.1875 0,1.59375 0.3125,2.359375 1.15625,2.359375 0.515625,0 1.140625,-0.375 1.609375,-0.96875 C 3.734375,-1.71875 4.359375,-3.375 4.359375,-4.875 c 0,-1.390625 -0.375,-2.21875 -1.203125,-2.21875 z m -0.859375,3.796875 c 0.6875,0 0.96875,0.03125 1.125,0.109375 -0.21875,1.015625 -0.578125,1.90625 -0.90625,2.4375 -0.1875,0.296875 -0.46875,0.484375 -0.765625,0.484375 -0.59375,0 -0.703125,-0.765625 -0.703125,-1.953125 0,-0.3125 0.015625,-0.625 0.0625,-0.953125 0.21875,-0.09375 0.484375,-0.125 1.1875,-0.125 z m 0.609375,-3.40625 c 0.625,0 0.6875,0.8125 0.6875,2.046875 0,0.28125 -0.015625,0.5625 -0.0625,0.84375 -0.1875,0.078125 -0.5,0.109375 -1.15625,0.109375 -0.6875,0 -0.96875,-0.03125 -1.15625,-0.109375 0.265625,-1.171875 0.71875,-2.25 1.078125,-2.671875 0.140625,-0.140625 0.375,-0.21875 0.609375,-0.21875 z m 0,0"
               id="id-f34bb340-1f1c-4eae-9f76-c0f610dc40ba" />
          </g>
        </g>
      </defs>
      <g
         fill="#000000"
         fill-opacity="1"
         id="id-7a622534-8072-4217-9ee4-dfe0480bfecc"
         transform="translate(-149.134,-127.671)">
        <g
           transform="translate(148.837,134.765)"
           id="g18">
          <path
             d="m 3.15625,-7.09375 c -0.421875,0 -0.859375,0.21875 -1.328125,0.65625 -0.875,0.859375 -1.53125,2.359375 -1.53125,4.1875 0,1.59375 0.3125,2.359375 1.15625,2.359375 0.515625,0 1.140625,-0.375 1.609375,-0.96875 C 3.734375,-1.71875 4.359375,-3.375 4.359375,-4.875 c 0,-1.390625 -0.375,-2.21875 -1.203125,-2.21875 z m -0.859375,3.796875 c 0.6875,0 0.96875,0.03125 1.125,0.109375 -0.21875,1.015625 -0.578125,1.90625 -0.90625,2.4375 -0.1875,0.296875 -0.46875,0.484375 -0.765625,0.484375 -0.59375,0 -0.703125,-0.765625 -0.703125,-1.953125 0,-0.3125 0.015625,-0.625 0.0625,-0.953125 0.21875,-0.09375 0.484375,-0.125 1.1875,-0.125 z m 0.609375,-3.40625 c 0.625,0 0.6875,0.8125 0.6875,2.046875 0,0.28125 -0.015625,0.5625 -0.0625,0.84375 -0.1875,0.078125 -0.5,0.109375 -1.15625,0.109375 -0.6875,0 -0.96875,-0.03125 -1.15625,-0.109375 0.265625,-1.171875 0.71875,-2.25 1.078125,-2.671875 0.140625,-0.140625 0.375,-0.21875 0.609375,-0.21875 z m 0,0"
             id="id-1169f8af-e89f-409d-b56a-af22fce779ca" />
        </g>
      </g>
    </g>
    <g
       transform="matrix(0.937844,0,0,0.937844,96.755917,253.36867)"
       ns1:version="1.10.2"
       ns1:texconverter="pdflatex"
       ns1:pdfconverter="inkscape"
       ns1:text="$(0,0,z_0)$"
       ns1:preamble="/Users/sachchidanandprasad/Library/Application Support/org.inkscape.Inkscape/config/inkscape/extensions/textext/default_packages.tex"
       ns1:scale="2.658454183650908"
       ns1:alignment="middle center"
       ns1:stroke-to-path="0"
       ns1:jacobian_sqrt="0.937844"
       id="g28">
      <defs
         id="id-762f907a-5af3-472b-887d-5dd328c64415">
        <g
           id="id-74e08693-3e7e-4a4a-bad5-1560b09e1a45">
          <g
             id="id-1e221b2d-133f-45ad-a48a-5c02a49ea2f5">
            <path
               d="m 3.4375,2.484375 c 0,-0.03125 0,-0.046875 -0.1875,-0.21875 C 1.953125,0.953125 1.625,-1 1.625,-2.59375 1.625,-4.40625 2.015625,-6.203125 3.296875,-7.5 3.4375,-7.625 3.4375,-7.640625 3.4375,-7.671875 3.4375,-7.75 3.390625,-7.78125 3.328125,-7.78125 c -0.09375,0 -1.03125,0.703125 -1.640625,2.015625 -0.53125,1.15625 -0.65625,2.296875 -0.65625,3.171875 0,0.8125 0.109375,2.0625 0.6875,3.234375 0.609375,1.28125 1.515625,1.953125 1.609375,1.953125 0.0625,0 0.109375,-0.03125 0.109375,-0.109375 z m 0,0"
               id="id-37e6188a-5b05-497f-a3aa-cb1ba4c72377" />
          </g>
          <g
             id="id-0c13fceb-f0ea-4df5-bfc7-4c8af9f216c7">
            <path
               d="m 3,-2.59375 c 0,-0.8125 -0.109375,-2.0625 -0.6875,-3.234375 -0.625,-1.28125 -1.515625,-1.953125 -1.625,-1.953125 -0.046875,0 -0.09375,0.046875 -0.09375,0.109375 0,0.03125 0,0.046875 0.1875,0.234375 1.03125,1.03125 1.609375,2.671875 1.609375,4.84375 0,1.78125 -0.375,3.59375 -1.671875,4.90625 -0.125,0.125 -0.125,0.140625 -0.125,0.171875 0,0.0625 0.046875,0.109375 0.09375,0.109375 0.109375,0 1.046875,-0.703125 1.65625,-2.015625 C 2.875,-0.578125 3,-1.71875 3,-2.59375 Z m 0,0"
               id="id-8beed923-8c15-4ba9-a1e5-a63e8d9eaec0" />
          </g>
          <g
             id="id-4ae10f52-1f22-4886-9208-20adf3ec4df3">
            <path
               d="m 2.625,-6.875 c -1.546875,0 -2.328125,1.234375 -2.328125,3.640625 C 0.296875,-2.0625 0.5,-1.0625 0.84375,-0.5625 1.203125,-0.078125 1.75,0.203125 2.375,0.203125 c 1.5,0 2.265625,-1.296875 2.265625,-3.859375 0,-2.171875 -0.65625,-3.21875 -2.015625,-3.21875 z m -0.1875,0.359375 c 0.96875,0 1.359375,0.96875 1.359375,3.359375 0,2.125 -0.375,3 -1.296875,3 -0.96875,0 -1.375,-1 -1.375,-3.4375 0,-2.09375 0.375,-2.921875 1.3125,-2.921875 z m 0,0"
               id="id-fc6174ce-91c0-4ba5-92f6-b51135f7d9ec" />
          </g>
          <g
             id="id-289dfe98-6269-4bfa-98ea-83bdbf1a00c5">
            <path
               d="m 2.03125,-1.21875 c -0.265625,0.078125 -0.453125,0.140625 -0.96875,0.296875 -0.078125,0.75 -0.328125,1.40625 -0.90625,2.359375 l 0.140625,0.109375 0.40625,-0.1875 C 1.515625,0.3125 1.890625,-0.3125 2.171875,-1.09375 Z m 0,0"
               id="id-fc54259b-0dd0-4ac7-b85e-0e57458086ca" />
          </g>
          <g
             id="id-7edd9026-8d89-422f-8d0b-2ab8dbcf0126">
            <path
               d="M -0.015625,-0.203125 0.078125,0.0625 c 0.296875,-0.234375 0.5625,-0.328125 0.90625,-0.328125 0.25,0 0.53125,0.0625 1.046875,0.171875 0.59375,0.15625 0.90625,0.203125 1.171875,0.203125 0.125,0 0.21875,-0.015625 0.5,-0.09375 0.109375,-0.625 0.1875,-0.96875 0.296875,-1.4375 H 3.78125 L 3.5625,-0.8125 c -0.046875,0.171875 -0.171875,0.25 -0.375,0.25 -0.125,0 -0.28125,-0.03125 -0.5,-0.078125 L 2.515625,-0.671875 C 2.1875,-0.75 1.84375,-0.796875 1.65625,-0.796875 c -0.328125,0 -0.59375,0.0625 -0.953125,0.203125 L 4.09375,-4.390625 4.140625,-4.71875 4.0625,-4.8125 3.828125,-4.578125 C 3.734375,-4.46875 3.625,-4.4375 3.484375,-4.4375 3.15625,-4.4375 2.625,-4.515625 2.15625,-4.640625 L 1.96875,-4.6875 C 1.6875,-4.765625 1.5,-4.8125 1.359375,-4.8125 c -0.171875,0 -0.375,0.03125 -0.609375,0.109375 l -0.328125,1.21875 h 0.21875 L 0.9375,-4.0625 c 0.171875,-0.046875 0.265625,-0.046875 0.390625,-0.046875 0.140625,0 0.25,0 0.453125,0.046875 0.328125,0.0625 0.59375,0.09375 0.796875,0.09375 0.359375,0 0.609375,-0.0625 0.9375,-0.234375 z m 0,0"
               id="id-fb2c2f32-9c3d-4c5b-9c73-ab8cca1ec034" />
          </g>
          <g
             id="id-2ec3b249-9783-4923-8791-63924b1cd2dd">
            <path
               d="m 2,-5.21875 c -1.1875,0 -1.78125,0.921875 -1.78125,2.765625 0,0.890625 0.15625,1.65625 0.421875,2.015625 0.265625,0.375 0.6875,0.59375 1.15625,0.59375 1.15625,0 1.734375,-0.984375 1.734375,-2.9375 0,-1.65625 -0.5,-2.4375 -1.53125,-2.4375 z m -0.140625,0.265625 c 0.734375,0 1.03125,0.734375 1.03125,2.5625 0,1.609375 -0.296875,2.28125 -0.984375,2.28125 -0.734375,0 -1.046875,-0.765625 -1.046875,-2.625 0,-1.59375 0.28125,-2.21875 1,-2.21875 z m 0,0"
               id="id-65d92927-c4f0-48e9-9b28-204cbf9028fd" />
          </g>
        </g>
      </defs>
      <g
         fill="#000000"
         fill-opacity="1"
         id="id-a602da3b-0ccd-4346-9871-6d5d3ad288fa"
         transform="translate(-149.868,-126.984)">
        <g
           transform="translate(148.837,134.765)"
           id="g20">
          <path
             d="m 3.4375,2.484375 c 0,-0.03125 0,-0.046875 -0.1875,-0.21875 C 1.953125,0.953125 1.625,-1 1.625,-2.59375 1.625,-4.40625 2.015625,-6.203125 3.296875,-7.5 3.4375,-7.625 3.4375,-7.640625 3.4375,-7.671875 3.4375,-7.75 3.390625,-7.78125 3.328125,-7.78125 c -0.09375,0 -1.03125,0.703125 -1.640625,2.015625 -0.53125,1.15625 -0.65625,2.296875 -0.65625,3.171875 0,0.8125 0.109375,2.0625 0.6875,3.234375 0.609375,1.28125 1.515625,1.953125 1.609375,1.953125 0.0625,0 0.109375,-0.03125 0.109375,-0.109375 z m 0,0"
             id="id-b0622423-d52d-49b7-b87a-bb7e4cd74eb8" />
        </g>
      </g>
      <g
         fill="#000000"
         fill-opacity="1"
         id="id-56b53f04-a192-4aca-879b-fd3e4c41878c"
         transform="translate(-149.868,-126.984)">
        <g
           transform="translate(152.986,134.765)"
           id="g21">
          <path
             d="m 2.625,-6.875 c -1.546875,0 -2.328125,1.234375 -2.328125,3.640625 C 0.296875,-2.0625 0.5,-1.0625 0.84375,-0.5625 1.203125,-0.078125 1.75,0.203125 2.375,0.203125 c 1.5,0 2.265625,-1.296875 2.265625,-3.859375 0,-2.171875 -0.65625,-3.21875 -2.015625,-3.21875 z m -0.1875,0.359375 c 0.96875,0 1.359375,0.96875 1.359375,3.359375 0,2.125 -0.375,3 -1.296875,3 -0.96875,0 -1.375,-1 -1.375,-3.4375 0,-2.09375 0.375,-2.921875 1.3125,-2.921875 z m 0,0"
             id="id-02751c99-20d6-43f9-b244-e8165a1b71bd" />
        </g>
        <g
           transform="translate(157.967,134.765)"
           id="g22">
          <path
             d="m 2.03125,-1.21875 c -0.265625,0.078125 -0.453125,0.140625 -0.96875,0.296875 -0.078125,0.75 -0.328125,1.40625 -0.90625,2.359375 l 0.140625,0.109375 0.40625,-0.1875 C 1.515625,0.3125 1.890625,-0.3125 2.171875,-1.09375 Z m 0,0"
             id="id-5eaa7b78-74b4-4184-a954-5cb48fa3e42e" />
        </g>
      </g>
      <g
         fill="#000000"
         fill-opacity="1"
         id="id-6b75c3e8-5b3b-45a3-892f-b64d48c64ea6"
         transform="translate(-149.868,-126.984)">
        <g
           transform="translate(162.122,134.765)"
           id="g23">
          <path
             d="m 2.625,-6.875 c -1.546875,0 -2.328125,1.234375 -2.328125,3.640625 C 0.296875,-2.0625 0.5,-1.0625 0.84375,-0.5625 1.203125,-0.078125 1.75,0.203125 2.375,0.203125 c 1.5,0 2.265625,-1.296875 2.265625,-3.859375 0,-2.171875 -0.65625,-3.21875 -2.015625,-3.21875 z m -0.1875,0.359375 c 0.96875,0 1.359375,0.96875 1.359375,3.359375 0,2.125 -0.375,3 -1.296875,3 -0.96875,0 -1.375,-1 -1.375,-3.4375 0,-2.09375 0.375,-2.921875 1.3125,-2.921875 z m 0,0"
             id="id-975b735b-f61f-4016-8de7-a2bb7cd1ae3b" />
        </g>
        <g
           transform="translate(167.103,134.765)"
           id="g24">
          <path
             d="m 2.03125,-1.21875 c -0.265625,0.078125 -0.453125,0.140625 -0.96875,0.296875 -0.078125,0.75 -0.328125,1.40625 -0.90625,2.359375 l 0.140625,0.109375 0.40625,-0.1875 C 1.515625,0.3125 1.890625,-0.3125 2.171875,-1.09375 Z m 0,0"
             id="id-80100b1f-a214-43e4-9df7-c54f4c2b0db3" />
        </g>
      </g>
      <g
         fill="#000000"
         fill-opacity="1"
         id="id-803e95f5-85b4-42a3-a277-dc6035006e3b"
         transform="translate(-149.868,-126.984)">
        <g
           transform="translate(171.376,134.765)"
           id="g25">
          <path
             d="M -0.015625,-0.203125 0.078125,0.0625 c 0.296875,-0.234375 0.5625,-0.328125 0.90625,-0.328125 0.25,0 0.53125,0.0625 1.046875,0.171875 0.59375,0.15625 0.90625,0.203125 1.171875,0.203125 0.125,0 0.21875,-0.015625 0.5,-0.09375 0.109375,-0.625 0.1875,-0.96875 0.296875,-1.4375 H 3.78125 L 3.5625,-0.8125 c -0.046875,0.171875 -0.171875,0.25 -0.375,0.25 -0.125,0 -0.28125,-0.03125 -0.5,-0.078125 L 2.515625,-0.671875 C 2.1875,-0.75 1.84375,-0.796875 1.65625,-0.796875 c -0.328125,0 -0.59375,0.0625 -0.953125,0.203125 L 4.09375,-4.390625 4.140625,-4.71875 4.0625,-4.8125 3.828125,-4.578125 C 3.734375,-4.46875 3.625,-4.4375 3.484375,-4.4375 3.15625,-4.4375 2.625,-4.515625 2.15625,-4.640625 L 1.96875,-4.6875 C 1.6875,-4.765625 1.5,-4.8125 1.359375,-4.8125 c -0.171875,0 -0.375,0.03125 -0.609375,0.109375 l -0.328125,1.21875 h 0.21875 L 0.9375,-4.0625 c 0.171875,-0.046875 0.265625,-0.046875 0.390625,-0.046875 0.140625,0 0.25,0 0.453125,0.046875 0.328125,0.0625 0.59375,0.09375 0.796875,0.09375 0.359375,0 0.609375,-0.0625 0.9375,-0.234375 z m 0,0"
             id="id-430daa32-b6ff-4968-8810-a89b55596b63" />
        </g>
      </g>
      <g
         fill="#000000"
         fill-opacity="1"
         id="id-1c1f327f-c7ab-440d-abf5-1973f63753fd"
         transform="translate(-149.868,-126.984)">
        <g
           transform="translate(175.924,136.509)"
           id="g26">
          <path
             d="m 2,-5.21875 c -1.1875,0 -1.78125,0.921875 -1.78125,2.765625 0,0.890625 0.15625,1.65625 0.421875,2.015625 0.265625,0.375 0.6875,0.59375 1.15625,0.59375 1.15625,0 1.734375,-0.984375 1.734375,-2.9375 0,-1.65625 -0.5,-2.4375 -1.53125,-2.4375 z m -0.140625,0.265625 c 0.734375,0 1.03125,0.734375 1.03125,2.5625 0,1.609375 -0.296875,2.28125 -0.984375,2.28125 -0.734375,0 -1.046875,-0.765625 -1.046875,-2.625 0,-1.59375 0.28125,-2.21875 1,-2.21875 z m 0,0"
             id="id-4f7d6687-f6c4-450b-ac3e-4156cf183080" />
        </g>
      </g>
      <g
         fill="#000000"
         fill-opacity="1"
         id="id-d37e2df8-e4a8-4653-8d84-8b68a4743a81"
         transform="translate(-149.868,-126.984)">
        <g
           transform="translate(180.332,134.765)"
           id="g27">
          <path
             d="m 3,-2.59375 c 0,-0.8125 -0.109375,-2.0625 -0.6875,-3.234375 -0.625,-1.28125 -1.515625,-1.953125 -1.625,-1.953125 -0.046875,0 -0.09375,0.046875 -0.09375,0.109375 0,0.03125 0,0.046875 0.1875,0.234375 1.03125,1.03125 1.609375,2.671875 1.609375,4.84375 0,1.78125 -0.375,3.59375 -1.671875,4.90625 -0.125,0.125 -0.125,0.140625 -0.125,0.171875 0,0.0625 0.046875,0.109375 0.09375,0.109375 0.109375,0 1.046875,-0.703125 1.65625,-2.015625 C 2.875,-0.578125 3,-1.71875 3,-2.59375 Z m 0,0"
             id="id-56715da4-b3ab-45cb-b4ab-aba1b7f669e9" />
        </g>
      </g>
    </g>
  </g>
</svg>
