<?xml version="1.0" encoding="UTF-8" standalone="no"?>
<!-- Created with Inkscape (http://www.inkscape.org/) -->

<svg
   width="148.39491mm"
   height="79.524445mm"
   viewBox="0 0 148.39491 79.524445"
   version="1.1"
   id="svg1"
   sodipodi:docname="prob-13-09-25_01.svg"
   inkscape:version="1.4.2 (ebf0e940, 2025-05-08)"
   xmlns:inkscape="http://www.inkscape.org/namespaces/inkscape"
   xmlns:sodipodi="http://sodipodi.sourceforge.net/DTD/sodipodi-0.dtd"
   xmlns="http://www.w3.org/2000/svg"
   xmlns:svg="http://www.w3.org/2000/svg"
   xmlns:ns1="http://www.iki.fi/pav/software/textext/">
  <sodipodi:namedview
     id="namedview1"
     pagecolor="#ffffff"
     bordercolor="#000000"
     borderopacity="0.25"
     inkscape:showpageshadow="2"
     inkscape:pageopacity="0.0"
     inkscape:pagecheckerboard="0"
     inkscape:deskcolor="#d1d1d1"
     inkscape:document-units="mm"
     inkscape:zoom="1.4188611"
     inkscape:cx="410.18814"
     inkscape:cy="171.61652"
     inkscape:window-width="1512"
     inkscape:window-height="921"
     inkscape:window-x="0"
     inkscape:window-y="33"
     inkscape:window-maximized="1"
     inkscape:current-layer="layer1" />
  <defs
     id="defs1" />
  <g
     inkscape:label="Layer 1"
     inkscape:groupmode="layer"
     id="layer1"
     transform="translate(-30.802544,-108.73778)">
    <rect
       style="fill:none;fill-opacity:0.44902;fill-rule:evenodd;stroke:#000000;stroke-width:0.499999"
       id="rect1"
       width="147.89491"
       height="79.024445"
       x="31.052544"
       y="108.98778" />
    <g
       id="g54"
       transform="translate(5.3839155,23.014305)">
      <path
         d="m 61.295309,102.79491 a 22.730611,22.690791 0 0 0 -22.730611,22.69078 22.730611,22.690791 0 0 0 22.730611,22.6908 22.730611,22.690791 0 0 0 15.0285,-5.7313 22.730611,22.690791 0 0 1 -7.702105,-16.9595 22.730611,22.690791 0 0 1 7.702105,-16.95949 22.730611,22.690791 0 0 0 -15.0285,-5.73129 z"
         style="fill:#0000ff;fill-opacity:0.44902;fill-rule:evenodd;stroke:#000000;stroke-width:0.499999"
         id="path42" />
      <path
         d="m 76.323814,108.5262 a 22.730611,22.690791 0 0 0 -7.70211,16.95949 22.730611,22.690791 0 0 0 7.70211,16.9595 22.730611,22.690791 0 0 0 7.702082,-16.9595 22.730611,22.690791 0 0 0 -7.702082,-16.95949 z"
         style="fill:#ffff00;fill-opacity:0.44902;fill-rule:evenodd;stroke:#000000;stroke-width:0.499999"
         id="path44" />
      <path
         d="m 98.541342,108.5262 a 22.730611,22.690791 0 0 1 7.702108,16.95949 22.730611,22.690791 0 0 1 -7.702108,16.9595 22.730611,22.690791 0 0 0 15.028498,5.7313 22.730611,22.690791 0 0 0 22.73061,-22.6908 22.730611,22.690791 0 0 0 -22.73061,-22.69079 22.730611,22.690791 0 0 0 -15.028498,5.7313 z"
         style="fill:#008080;fill-opacity:0.44902;fill-rule:evenodd;stroke:#000000;stroke-width:0.499999"
         id="path43" />
      <path
         d="m 98.541342,108.5262 a 22.730611,22.690791 0 0 0 -7.70211,16.95949 22.730611,22.690791 0 0 0 7.70211,16.9595 22.730611,22.690791 0 0 0 7.702108,-16.9595 22.730611,22.690791 0 0 0 -7.702108,-16.95949 z"
         style="fill:#ffff00;fill-opacity:0.44902;fill-rule:evenodd;stroke:#000000;stroke-width:0.499999"
         id="path45" />
      <path
         d="m 152.96539,108.5262 a 22.730611,22.690791 0 0 0 -7.70211,16.95949 22.730611,22.690791 0 0 0 7.70211,16.9595 22.730611,22.690791 0 0 0 7.70208,-16.9595 22.730611,22.690791 0 0 0 -7.70208,-16.95949 z"
         style="fill:#ffff00;fill-opacity:0.44902;fill-rule:evenodd;stroke:#000000;stroke-width:0.499999"
         id="path46" />
      <g
         transform="matrix(0.705556,0,0,0.705556,84.933078,123.62128)"
         ns1:version="1.10.2"
         ns1:texconverter="pdflatex"
         ns1:pdfconverter="inkscape"
         ns1:text="$+$"
         ns1:preamble="/Users/sachchidanandprasad/Library/Application Support/org.inkscape.Inkscape/config/inkscape/extensions/textext/default_packages.tex"
         ns1:scale="2.0"
         ns1:alignment="middle center"
         ns1:stroke-to-path="0"
         ns1:jacobian_sqrt="0.705556"
         id="g47">
        <defs
           id="id-1ee6de41-ce51-4a9e-a99d-451fc9e00f34">
          <g
             id="id-ca58938a-612c-42e7-8778-ccbbebfc8045">
            <g
               id="id-cdcfda85-857f-4447-b3bc-e4a7fd7137cc">
              <path
                 d="m 4.078125,-2.296875 h 2.78125 C 7,-2.296875 7.1875,-2.296875 7.1875,-2.5 7.1875,-2.6875 7,-2.6875 6.859375,-2.6875 h -2.78125 v -2.796875 c 0,-0.140625 0,-0.328125 -0.203125,-0.328125 -0.203125,0 -0.203125,0.1875 -0.203125,0.328125 V -2.6875 h -2.78125 c -0.140625,0 -0.328125,0 -0.328125,0.1875 0,0.203125 0.1875,0.203125 0.328125,0.203125 h 2.78125 V 0.5 c 0,0.140625 0,0.328125 0.203125,0.328125 0.203125,0 0.203125,-0.1875 0.203125,-0.328125 z m 0,0"
                 id="id-4c61a21b-b9f0-4480-a0e3-56d4dbe20d47" />
            </g>
          </g>
        </defs>
        <g
           fill="#000000"
           fill-opacity="1"
           id="id-ac23b86b-547a-46bb-b71e-0e53f0d6da9e"
           transform="translate(-149.275,-128.952)">
          <g
             transform="translate(148.712,134.765)"
             id="g46">
            <path
               d="m 4.078125,-2.296875 h 2.78125 C 7,-2.296875 7.1875,-2.296875 7.1875,-2.5 7.1875,-2.6875 7,-2.6875 6.859375,-2.6875 h -2.78125 v -2.796875 c 0,-0.140625 0,-0.328125 -0.203125,-0.328125 -0.203125,0 -0.203125,0.1875 -0.203125,0.328125 V -2.6875 h -2.78125 c -0.140625,0 -0.328125,0 -0.328125,0.1875 0,0.203125 0.1875,0.203125 0.328125,0.203125 h 2.78125 V 0.5 c 0,0.140625 0,0.328125 0.203125,0.328125 0.203125,0 0.203125,-0.1875 0.203125,-0.328125 z m 0,0"
               id="id-17628118-c1e7-4fa4-9a72-862938326157" />
          </g>
        </g>
      </g>
      <g
         transform="matrix(0.705556,0,0,0.705556,139.012,125.826)"
         ns1:version="1.10.2"
         ns1:texconverter="pdflatex"
         ns1:pdfconverter="inkscape"
         ns1:text="$-$"
         ns1:preamble="/Users/sachchidanandprasad/Library/Application Support/org.inkscape.Inkscape/config/inkscape/extensions/textext/default_packages.tex"
         ns1:scale="2.0"
         ns1:alignment="middle center"
         ns1:stroke-to-path="0"
         ns1:jacobian_sqrt="0.705556"
         id="g53">
        <defs
           id="id-4e01c92a-0833-4eb8-8042-42fc7de16748">
          <g
             id="id-0792f95b-4bcd-4fea-9c4f-9dfea867f419">
            <g
               id="id-614ee113-c9b8-4cef-86ce-253657d872e2">
              <path
                 d="m 6.5625,-2.296875 c 0.171875,0 0.359375,0 0.359375,-0.203125 0,-0.1875 -0.1875,-0.1875 -0.359375,-0.1875 H 1.171875 c -0.171875,0 -0.34375,0 -0.34375,0.1875 0,0.203125 0.171875,0.203125 0.34375,0.203125 z m 0,0"
                 id="id-3d4f5016-4400-449d-88ef-0abdcc5573c6" />
            </g>
          </g>
        </defs>
        <g
           fill="#000000"
           fill-opacity="1"
           id="id-fe4c8b54-1960-423b-a34f-dc33e1353620"
           transform="translate(-149.54,-132.077)">
          <g
             transform="translate(148.712,134.765)"
             id="g52">
            <path
               d="m 6.5625,-2.296875 c 0.171875,0 0.359375,0 0.359375,-0.203125 0,-0.1875 -0.1875,-0.1875 -0.359375,-0.1875 H 1.171875 c -0.171875,0 -0.34375,0 -0.34375,0.1875 0,0.203125 0.171875,0.203125 0.34375,0.203125 z m 0,0"
               id="id-f7da584c-ed36-4eaf-ad99-b0ceb05b47ae" />
          </g>
        </g>
      </g>
    </g>
  </g>
</svg>
