<?xml version="1.0" encoding="UTF-8" standalone="no"?>
<!-- Created with Inkscape (http://www.inkscape.org/) -->

<svg
   width="210.39177mm"
   height="117.7503mm"
   viewBox="0 0 210.39177 117.7503"
   version="1.1"
   id="svg13438"
   sodipodi:docname="prob-13-07-23_01.svg"
   inkscape:version="1.2.2 (1:1.2.2+202305151914+b0a8486541)"
   xmlns:inkscape="http://www.inkscape.org/namespaces/inkscape"
   xmlns:sodipodi="http://sodipodi.sourceforge.net/DTD/sodipodi-0.dtd"
   xmlns="http://www.w3.org/2000/svg"
   xmlns:svg="http://www.w3.org/2000/svg">
  <sodipodi:namedview
     id="namedview13440"
     pagecolor="#ffffff"
     bordercolor="#999999"
     borderopacity="1"
     inkscape:showpageshadow="0"
     inkscape:pageopacity="0"
     inkscape:pagecheckerboard="0"
     inkscape:deskcolor="#d1d1d1"
     inkscape:document-units="mm"
     showgrid="false"
     inkscape:zoom="1"
     inkscape:cx="524"
     inkscape:cy="259.5"
     inkscape:window-width="1920"
     inkscape:window-height="1012"
     inkscape:window-x="0"
     inkscape:window-y="32"
     inkscape:window-maximized="1"
     inkscape:current-layer="layer1" />
  <defs
     id="defs13435">
    <clipPath
       id="clipPath4928">
      <path
         d="M 0,0 H 7.894531 V 11.097656 H 0 Z m 0,0"
         id="path7205" />
    </clipPath>
    <clipPath
       id="clipPath9876">
      <path
         d="m 8,2 h 5 V 9.996094 H 8 Z m 0,0"
         id="path1912" />
    </clipPath>
    <clipPath
       id="clipPath3267">
      <path
         d="m 8,2 h 5 V 9.996094 H 8 Z m 0,0"
         id="path1969" />
    </clipPath>
    <clipPath
       id="clipPath185">
      <path
         d="m 65,13 h 4 v 6.164062 h -4 z m 0,0"
         id="path6142" />
    </clipPath>
    <clipPath
       id="clipPath3746">
      <path
         d="m 68,26 h 4 v 7.449219 h -4 z m 0,0"
         id="path3480" />
    </clipPath>
    <clipPath
       id="clipPath7221">
      <path
         d="M 1,0 H 6 V 17.1875 H 1 Z m 0,0"
         id="path2642" />
    </clipPath>
    <clipPath
       id="clipPath4061">
      <path
         d="m 32,0 h 5 v 17.1875 h -5 z m 0,0"
         id="path7911" />
    </clipPath>
    <clipPath
       id="clipPath7060">
      <path
         d="M 0,0 H 10 V 7.652344 H 0 Z m 0,0"
         id="path2975" />
    </clipPath>
    <clipPath
       id="clipPath1148">
      <path
         d="m 21,0 h 5 v 17.214844 h -5 z m 0,0"
         id="path650" />
    </clipPath>
    <clipPath
       id="clipPath7543">
      <path
         d="m 28,0 h 5 v 17.214844 h -5 z m 0,0"
         id="path3577" />
    </clipPath>
    <clipPath
       id="clipPath430">
      <path
         d="m 47,0 h 5 v 17.214844 h -5 z m 0,0"
         id="path2228" />
    </clipPath>
    <clipPath
       id="clipPath528">
      <path
         d="m 54,0 h 5 v 17.214844 h -5 z m 0,0"
         id="path2529" />
    </clipPath>
    <clipPath
       id="clipPath4036">
      <path
         d="m 34,0 h 4 v 17.214844 h -4 z m 0,0"
         id="path1505" />
    </clipPath>
    <clipPath
       id="clipPath6951">
      <path
         d="m 41,0 h 5 v 17.214844 h -5 z m 0,0"
         id="path5677" />
    </clipPath>
    <clipPath
       id="clipPath9482">
      <path
         d="m 59,0 h 5 v 17.214844 h -5 z m 0,0"
         id="path5400" />
    </clipPath>
    <clipPath
       id="clipPath8978">
      <path
         d="m 66,0 h 5 v 17.214844 h -5 z m 0,0"
         id="path6758" />
    </clipPath>
    <clipPath
       id="clipPath7674">
      <path
         d="m 11,0 h 5 v 17.214844 h -5 z m 0,0"
         id="path7738" />
    </clipPath>
    <clipPath
       id="clipPath4623">
      <path
         d="m 26,0 h 5 v 17.214844 h -5 z m 0,0"
         id="path3564" />
    </clipPath>
    <clipPath
       id="clipPath1054">
      <path
         d="m 55,0 h 5 v 17.214844 h -5 z m 0,0"
         id="path8028" />
    </clipPath>
    <clipPath
       id="clipPath6607">
      <path
         d="m 62,0 h 5 v 17.214844 h -5 z m 0,0"
         id="path5464" />
    </clipPath>
    <clipPath
       id="clipPath112">
      <path
         d="m 81,0 h 5 v 17.214844 h -5 z m 0,0"
         id="path8689" />
    </clipPath>
    <clipPath
       id="clipPath4336">
      <path
         d="m 88,0 h 5 v 17.214844 h -5 z m 0,0"
         id="path2320" />
    </clipPath>
    <clipPath
       id="clipPath5899">
      <path
         d="m 82,15 h 4 v 5.46875 h -4 z m 0,0"
         id="path9823" />
    </clipPath>
    <clipPath
       id="clipPath9249">
      <path
         d="M 0,0 H 10 V 15.304688 H 0 Z m 0,0"
         id="path7672" />
    </clipPath>
    <clipPath
       id="clipPath2567">
      <path
         d="m 29,13 h 4 v 6.164062 h -4 z m 0,0"
         id="path2673" />
    </clipPath>
  </defs>
  <g
     inkscape:label="Layer 1"
     inkscape:groupmode="layer"
     id="layer1"
     transform="translate(0.39178, -57.0897)">
    <circle
       style="font-variation-settings:normal;opacity:0.916872;fill:#0000ff;fill-opacity:0.308892;fill-rule:evenodd;stroke:#0000ff;stroke-width:0.784;stroke-linecap:butt;stroke-linejoin:miter;stroke-miterlimit:4;stroke-dasharray:none;stroke-dashoffset:0;stroke-opacity:1;stop-color:#000000;stop-opacity:1"
       id="path13611"
       cx="32.199326"
       cy="132.82924"
       r="32.199326" />
    <circle
       style="font-variation-settings:normal;opacity:0.916872;fill:#0000ff;fill-opacity:0.308892;fill-rule:evenodd;stroke:#0000ff;stroke-width:0.784;stroke-linecap:butt;stroke-linejoin:miter;stroke-miterlimit:4;stroke-dasharray:none;stroke-dashoffset:0;stroke-opacity:1;stop-color:#000000;stop-opacity:1"
       id="circle13976"
       cx="167.99184"
       cy="132.83492"
       r="41.616158" />
    <g
       id="g14223"
       transform="matrix(0.91606958,0,0,0.91309892,2.6805288,11.56633)"
       style="stroke-width:1.09339">
      <path
         style="color:#000000;fill:#008080;stroke-width:1.09339;-inkscape-stroke:none"
         d="m 54.927734,110.01758 -22.990234,22.54297 0.523437,0.53711 22.992188,-22.54493 z"
         id="path14211" />
      <g
         id="g14201"
         style="stroke-width:1.09339">
        <g
           id="path14203"
           style="stroke-width:1.09339">
          <path
             style="color:#000000;fill:#008080;fill-rule:evenodd;stroke-width:0.410023pt;-inkscape-stroke:none"
             d="m 56.796173,108.70972 c -0.540697,1.05542 -1.086589,2.64114 -1.096981,3.70174 0,0 -1.050218,-1.071 -0.777271,-1.86386 -0.798055,0.25736 -1.848273,-0.81364 -1.848273,-0.81364 1.06061,0.0104 2.65672,-0.50432 3.722525,-1.02424 z"
             id="path14207" />
          <path
             style="color:#000000;fill:#008080;fill-rule:evenodd;stroke-width:1.09339;-inkscape-stroke:none"
             d="m 57.361328,108.15625 -0.673828,0.32813 c -1.035844,0.5053 -2.634051,1.00958 -3.611328,1 l -0.603516,-0.006 0.421875,0.42968 c 0,0 0.279356,0.28638 0.667969,0.53907 0.318829,0.2073 0.750861,0.30253 1.177734,0.27734 -0.03406,0.42676 0.05463,0.86044 0.25586,1.18359 0.245019,0.39349 0.52539,0.67774 0.52539,0.67774 l 0.421875,0.43164 0.0059,-0.60352 c 0.0096,-0.97727 0.544814,-2.56409 1.070312,-3.58984 z M 56.4375,109.0625 c -0.405494,0.88281 -0.72205,1.89737 -0.833984,2.82031 -0.07793,-0.0976 -0.09837,-0.10141 -0.183594,-0.23828 -0.211853,-0.34022 -0.354791,-0.74527 -0.261719,-1.01562 l 0.162109,-0.47266 -0.474609,0.1543 c -0.272129,0.0877 -0.675709,-0.0647 -1.011719,-0.28321 -0.134951,-0.0877 -0.138445,-0.10776 -0.234375,-0.1875 0.924972,-0.0939 1.947462,-0.38924 2.837891,-0.77734 z"
             id="path14209" />
        </g>
      </g>
    </g>
    <circle
       id="path14288"
       style="fill:#000000;stroke:none;stroke-width:0.264583"
       cx="32.199326"
       cy="132.82924"
       r="1.5" />
    <g
       id="g14300"
       transform="matrix(1.179995,0,0,1.1761685,130.066,-23.46514)"
       style="stroke-width:0.848835">
      <path
         style="color:#000000;fill:#008080;stroke-width:0.848835;-inkscape-stroke:none"
         d="m 54.927734,110.01758 -22.990234,22.54297 0.523437,0.53711 22.992188,-22.54493 z"
         id="path14290" />
      <g
         id="g14298"
         style="stroke-width:0.848835">
        <g
           id="g14296"
           style="stroke-width:0.848835">
          <path
             style="color:#000000;fill:#008080;fill-rule:evenodd;stroke-width:0.318314pt;-inkscape-stroke:none"
             d="m 56.796173,108.70972 c -0.540697,1.05542 -1.086589,2.64114 -1.096981,3.70174 0,0 -1.050218,-1.071 -0.777271,-1.86386 -0.798055,0.25736 -1.848273,-0.81364 -1.848273,-0.81364 1.06061,0.0104 2.65672,-0.50432 3.722525,-1.02424 z"
             id="path14292" />
          <path
             style="color:#000000;fill:#008080;fill-rule:evenodd;stroke-width:0.848835;-inkscape-stroke:none"
             d="m 57.361328,108.15625 -0.673828,0.32813 c -1.035844,0.5053 -2.634051,1.00958 -3.611328,1 l -0.603516,-0.006 0.421875,0.42968 c 0,0 0.279356,0.28638 0.667969,0.53907 0.318829,0.2073 0.750861,0.30253 1.177734,0.27734 -0.03406,0.42676 0.05463,0.86044 0.25586,1.18359 0.245019,0.39349 0.52539,0.67774 0.52539,0.67774 l 0.421875,0.43164 0.0059,-0.60352 c 0.0096,-0.97727 0.544814,-2.56409 1.070312,-3.58984 z M 56.4375,109.0625 c -0.405494,0.88281 -0.72205,1.89737 -0.833984,2.82031 -0.07793,-0.0976 -0.09837,-0.10141 -0.183594,-0.23828 -0.211853,-0.34022 -0.354791,-0.74527 -0.261719,-1.01562 l 0.162109,-0.47266 -0.474609,0.1543 c -0.272129,0.0877 -0.675709,-0.0647 -1.011719,-0.28321 -0.134951,-0.0877 -0.138445,-0.10776 -0.234375,-0.1875 0.924972,-0.0939 1.947462,-0.38924 2.837891,-0.77734 z"
             id="path14294" />
        </g>
      </g>
    </g>
    <circle
       id="circle14302"
       style="fill:#000000;stroke:none;stroke-width:0.264583"
       cx="167.99184"
       cy="132.83492"
       r="1.5" />
    <path
       style="color:#000000;fill:#008080;stroke-width:0.999996;-inkscape-stroke:none"
       d="m 46.664947,66.601287 -29.447191,-0.337073 -0.0077,0.685851 29.449721,0.337073 z"
       id="path14304" />
    <path
       style="color:#000000;fill:#008080;stroke-width:0.999996;-inkscape-stroke:none"
       d="m 184.93334,66.50674 -37.93111,-0.434184 -0.01,0.883448 37.93437,0.434185 z"
       id="path14316" />
    <circle
       id="circle14338"
       style="fill:#000000;stroke:none;stroke-width:0.264583"
       cx="17.213905"
       cy="66.60714"
       r="1.5" />
    <circle
       id="circle14340"
       style="fill:#000000;stroke:none;stroke-width:0.264583"
       cx="46.662361"
       cy="66.944214"
       r="1.5" />
    <circle
       id="circle14342"
       style="fill:#000000;stroke:none;stroke-width:0.264583"
       cx="146.99722"
       cy="66.514282"
       r="1.5" />
    <circle
       id="circle14344"
       style="fill:#000000;stroke:none;stroke-width:0.264583"
       cx="184.92998"
       cy="66.948463"
       r="1.5" />
    <g
       inkscape:label=""
       transform="translate(145.93796,69.279302)"
       id="g14403">
      <g
         id="surface1"
         transform="matrix(0.352778,0,0,0.352778,-0.23151,0.0980722)">
        <g
           clip-path="url(#clipPath4928)"
           clip-rule="nonzero"
           id="g19">
          <g
             style="fill:#000000;fill-opacity:1"
             id="g17">
            <g
               id="use15"
               transform="translate(0,11.097)">
              <path
                 style="stroke:none"
                 d="m 7.234375,-5.53125 c 0,-1.046875 -0.015625,-2.84375 -0.75,-4.21875 -0.625,-1.203125 -1.640625,-1.625 -2.546875,-1.625 -0.828125,0 -1.875,0.375 -2.53125,1.609375 -0.6875,1.296875 -0.75,2.890625 -0.75,4.234375 0,0.984375 0.015625,2.484375 0.546875,3.796875 0.75,1.765625 2.0625,2.015625 2.734375,2.015625 0.796875,0 2,-0.328125 2.703125,-1.96875 0.515625,-1.1875 0.59375,-2.578125 0.59375,-3.84375 z M 3.9375,0 C 2.84375,0 2.1875,-0.953125 1.953125,-2.25 1.75,-3.265625 1.75,-4.75 1.75,-5.71875 c 0,-1.328125 0,-2.421875 0.234375,-3.46875 0.328125,-1.46875 1.28125,-1.921875 1.953125,-1.921875 0.71875,0 1.625,0.46875 1.953125,1.875 C 6.109375,-8.25 6.125,-7.09375 6.125,-5.71875 c 0,1.125 0,2.5 -0.203125,3.515625 C 5.5625,-0.328125 4.546875,0 3.9375,0 Z m 0,0"
                 id="path26" />
            </g>
          </g>
        </g>
      </g>
    </g>
    <g
       inkscape:label=""
       transform="translate(44.217989,70.170542)"
       id="g14492">
      <g
         id="g14490"
         transform="matrix(0.352778,0,0,0.352778,-0.165365,0.0637645)">
        <g
           style="fill:#000000;fill-opacity:1"
           id="g23">
          <g
             id="use21"
             transform="translate(0,7.4130001)">
            <path
               style="stroke:none"
               d="m 6.703125,-7.046875 c -0.53125,0.109375 -0.8125,0.484375 -0.8125,0.859375 0,0.421875 0.328125,0.5625 0.5625,0.5625 0.484375,0 0.875,-0.421875 0.875,-0.9375 0,-0.546875 -0.53125,-1.03125 -1.390625,-1.03125 -0.6875,0 -1.484375,0.3125 -2.203125,1.359375 -0.125,-0.90625 -0.8125,-1.359375 -1.5,-1.359375 -0.671875,0 -1.015625,0.515625 -1.21875,0.890625 -0.296875,0.625 -0.546875,1.65625 -0.546875,1.75 0,0.0625 0.0625,0.15625 0.1875,0.15625 0.140625,0 0.15625,-0.03125 0.25,-0.421875 C 1.171875,-6.25 1.5,-7.25 2.1875,-7.25 c 0.40625,0 0.53125,0.296875 0.53125,0.796875 0,0.375 -0.171875,1.046875 -0.296875,1.578125 l -0.46875,1.859375 C 1.875,-2.6875 1.6875,-1.90625 1.59375,-1.59375 c -0.109375,0.4375 -0.296875,1.25 -0.296875,1.328125 0,0.25 0.1875,0.4375 0.4375,0.4375 0.1875,0 0.515625,-0.125 0.625,-0.46875 0.046875,-0.140625 0.6875,-2.734375 0.796875,-3.125 0.078125,-0.390625 0.1875,-0.75 0.265625,-1.125 C 3.5,-4.78125 3.5625,-5.0625 3.609375,-5.28125 3.671875,-5.4375 4.125,-6.28125 4.5625,-6.65625 4.765625,-6.859375 5.21875,-7.25 5.921875,-7.25 c 0.28125,0 0.546875,0.046875 0.78125,0.203125 z m 0,0"
               id="path36" />
          </g>
        </g>
        <g
           clip-path="url(#clipPath9876)"
           clip-rule="nonzero"
           id="g29">
          <g
             style="fill:#000000;fill-opacity:1"
             id="g27">
            <g
               id="use25"
               transform="translate(7.5960002,9.9949999)">
              <path
                 style="stroke:none"
                 d="m 3.203125,-6.984375 c 0,-0.25 0,-0.28125 -0.25,-0.28125 C 2.28125,-6.5625 1.3125,-6.5625 0.96875,-6.5625 v 0.328125 c 0.21875,0 0.859375,0 1.4375,-0.28125 v 5.65625 c 0,0.390625 -0.046875,0.515625 -1.015625,0.515625 H 1.03125 V 0 c 0.390625,-0.03125 1.328125,-0.03125 1.765625,-0.03125 0.4375,0 1.390625,0 1.765625,0.03125 V -0.34375 H 4.21875 c -0.984375,0 -1.015625,-0.109375 -1.015625,-0.515625 z m 0,0"
                 id="path40" />
            </g>
          </g>
        </g>
      </g>
    </g>
    <g
       inkscape:label=""
       transform="translate(183.43809,70.606076)"
       id="g14613">
      <g
         id="g14611"
         transform="matrix(0.352778,0,0,0.352778,-0.165365,0.0637645)">
        <g
           style="fill:#000000;fill-opacity:1"
           id="g14601">
          <g
             id="g14599"
             transform="translate(0,7.4130001)">
            <path
               style="stroke:none"
               d="m 6.703125,-7.046875 c -0.53125,0.109375 -0.8125,0.484375 -0.8125,0.859375 0,0.421875 0.328125,0.5625 0.5625,0.5625 0.484375,0 0.875,-0.421875 0.875,-0.9375 0,-0.546875 -0.53125,-1.03125 -1.390625,-1.03125 -0.6875,0 -1.484375,0.3125 -2.203125,1.359375 -0.125,-0.90625 -0.8125,-1.359375 -1.5,-1.359375 -0.671875,0 -1.015625,0.515625 -1.21875,0.890625 -0.296875,0.625 -0.546875,1.65625 -0.546875,1.75 0,0.0625 0.0625,0.15625 0.1875,0.15625 0.140625,0 0.15625,-0.03125 0.25,-0.421875 C 1.171875,-6.25 1.5,-7.25 2.1875,-7.25 c 0.40625,0 0.53125,0.296875 0.53125,0.796875 0,0.375 -0.171875,1.046875 -0.296875,1.578125 l -0.46875,1.859375 C 1.875,-2.6875 1.6875,-1.90625 1.59375,-1.59375 c -0.109375,0.4375 -0.296875,1.25 -0.296875,1.328125 0,0.25 0.1875,0.4375 0.4375,0.4375 0.1875,0 0.515625,-0.125 0.625,-0.46875 0.046875,-0.140625 0.6875,-2.734375 0.796875,-3.125 0.078125,-0.390625 0.1875,-0.75 0.265625,-1.125 C 3.5,-4.78125 3.5625,-5.0625 3.609375,-5.28125 3.671875,-5.4375 4.125,-6.28125 4.5625,-6.65625 4.765625,-6.859375 5.21875,-7.25 5.921875,-7.25 c 0.28125,0 0.546875,0.046875 0.78125,0.203125 z m 0,0"
               id="path14597" />
          </g>
        </g>
        <g
           clip-path="url(#clipPath3267)"
           clip-rule="nonzero"
           id="g14609">
          <g
             style="fill:#000000;fill-opacity:1"
             id="g14607">
            <g
               id="g14605"
               transform="translate(7.5960002,9.9949999)">
              <path
                 style="stroke:none"
                 d="m 1.390625,-0.84375 1.15625,-1.125 c 1.703125,-1.5 2.34375,-2.09375 2.34375,-3.171875 0,-1.25 -0.96875,-2.125 -2.3125,-2.125 -1.21875,0 -2.03125,1 -2.03125,1.96875 0,0.625 0.546875,0.625 0.578125,0.625 0.1875,0 0.5625,-0.140625 0.5625,-0.578125 0,-0.296875 -0.1875,-0.578125 -0.578125,-0.578125 -0.078125,0 -0.109375,0 -0.140625,0.015625 0.25,-0.703125 0.84375,-1.109375 1.46875,-1.109375 1,0 1.46875,0.875 1.46875,1.78125 0,0.859375 -0.546875,1.734375 -1.140625,2.40625 l -2.09375,2.328125 c -0.125,0.125 -0.125,0.140625 -0.125,0.40625 H 4.59375 L 4.890625,-1.890625 H 4.625 C 4.5625,-1.578125 4.5,-1.09375 4.390625,-0.921875 4.3125,-0.84375 3.59375,-0.84375 3.34375,-0.84375 Z m 0,0"
                 id="path14603" />
            </g>
          </g>
        </g>
      </g>
    </g>
    <g
       inkscape:label=""
       transform="translate(15.986983,69.307881)"
       id="g14638">
      <g
         id="g14636"
         transform="matrix(0.352778,0,0,0.352778,-0.23151,0.0980722)">
        <g
           clip-path="url(#clipPath4928)"
           clip-rule="nonzero"
           id="g14634">
          <g
             style="fill:#000000;fill-opacity:1"
             id="g14632">
            <g
               id="g14630"
               transform="translate(0,11.097)">
              <path
                 style="stroke:none"
                 d="m 7.234375,-5.53125 c 0,-1.046875 -0.015625,-2.84375 -0.75,-4.21875 -0.625,-1.203125 -1.640625,-1.625 -2.546875,-1.625 -0.828125,0 -1.875,0.375 -2.53125,1.609375 -0.6875,1.296875 -0.75,2.890625 -0.75,4.234375 0,0.984375 0.015625,2.484375 0.546875,3.796875 0.75,1.765625 2.0625,2.015625 2.734375,2.015625 0.796875,0 2,-0.328125 2.703125,-1.96875 0.515625,-1.1875 0.59375,-2.578125 0.59375,-3.84375 z M 3.9375,0 C 2.84375,0 2.1875,-0.953125 1.953125,-2.25 1.75,-3.265625 1.75,-4.75 1.75,-5.71875 c 0,-1.328125 0,-2.421875 0.234375,-3.46875 0.328125,-1.46875 1.28125,-1.921875 1.953125,-1.921875 0.71875,0 1.625,0.46875 1.953125,1.875 C 6.109375,-8.25 6.125,-7.09375 6.125,-5.71875 c 0,1.125 0,2.5 -0.203125,3.515625 C 5.5625,-0.328125 4.546875,0 3.9375,0 Z m 0,0"
                 id="path14628" />
            </g>
          </g>
        </g>
      </g>
    </g>
    <g
       id="path14688"
       style="fill:#000000">
      <path
         style="color:#000000;fill:#000000;-inkscape-stroke:none"
         d="m 75.9375,66.013672 v 0.5 h 43.07617 v -0.5 z"
         id="path14726" />
      <g
         id="g14720"
         style="fill:#000000">
        <path
           d="m 118.31343,64.864212 3.85,1.4 -3.85,1.4 c 0.7,-0.8155 0.7,-1.981 0,-2.8 z"
           style="fill:#000000;fill-rule:evenodd;stroke-width:0.35"
           id="path14722" />
      </g>
    </g>
    <g
       id="path15914"
       style="fill:#000000">
      <path
         style="color:#000000;fill:#000000;-inkscape-stroke:none"
         d="m 94.076172,127.75391 c -6.696543,0.24167 -13.600674,2.39565 -20.410156,6.35937 l 0.251953,0.43164 c 13.501529,-7.85908 27.259261,-8.52265 39.066411,-1.25195 l 0.26171,-0.42578 c -5.98338,-3.6845 -12.47338,-5.35496 -19.169918,-5.11328 z"
         id="path16016" />
      <g
         id="g16010"
         style="fill:#000000">
        <path
           d="m 113.25263,131.52099 2.54421,3.21084 -4.01238,-0.82663 c 1.02366,-0.32736 1.63479,-1.31978 1.46817,-2.38421 z"
           style="fill:#000000;fill-rule:evenodd;stroke-width:0.35"
           id="path16012" />
      </g>
    </g>
    <ellipse
       style="font-variation-settings:normal;opacity:0.916872;fill:none;fill-opacity:0.308892;fill-rule:evenodd;stroke:#4d4d4d;stroke-width:0.783999;stroke-linecap:butt;stroke-linejoin:miter;stroke-miterlimit:4;stroke-dasharray:none;stroke-dashoffset:0;stroke-opacity:1;stop-color:#000000;stop-opacity:1"
       id="circle16018"
       cx="32.199368"
       cy="132.82535"
       rx="20.398909"
       ry="20.398863" />
    <circle
       id="circle16020"
       style="fill:#800066;fill-opacity:1;stroke:none;stroke-width:0.264583"
       cx="51.466263"
       cy="126.26098"
       r="1.5" />
    <ellipse
       style="font-variation-settings:normal;opacity:0.916872;vector-effect:none;fill:none;fill-opacity:0.308892;fill-rule:evenodd;stroke:#4d4d4d;stroke-width:0.783999;stroke-linecap:butt;stroke-linejoin:miter;stroke-miterlimit:4;stroke-dasharray:none;stroke-dashoffset:0;stroke-opacity:1;-inkscape-stroke:none;stop-color:#000000;stop-opacity:1"
       id="circle16022"
       cx="167.9955"
       cy="132.83737"
       rx="26.208275"
       ry="26.208261" />
    <circle
       id="circle16048"
       style="fill:#800066;stroke:none;stroke-width:0.264583;font-variation-settings:normal;opacity:1;vector-effect:none;fill-opacity:1;stroke-linecap:butt;stroke-linejoin:miter;stroke-miterlimit:4;stroke-dasharray:none;stroke-dashoffset:0;stroke-opacity:1;-inkscape-stroke:none;stop-color:#000000;stop-opacity:1"
       cx="193.88106"
       cy="128.23415"
       r="1.5" />
    <g
       inkscape:label=""
       transform="translate(46.060823,127.64338)"
       id="g17636"
       style="fill:#800066;fill-opacity:1">
      <g
         id="g17634"
         transform="matrix(0.352778,0,0,0.352778,-0.110243,-0.00366008)"
         style="fill:#800066;fill-opacity:1">
        <g
           clip-path="url(#clipPath7060)"
           clip-rule="nonzero"
           id="g17632"
           style="fill:#800066;fill-opacity:1">
          <g
             style="fill:#800066;fill-opacity:1"
             id="g17630">
            <g
               id="g17628"
               transform="translate(0,7.651)"
               style="fill:#800066;fill-opacity:1">
              <path
                 style="fill:#800066;stroke:none;fill-opacity:1"
                 d="m 5.796875,-4.25 2,-2.296875 c 0.1875,-0.21875 0.34375,-0.359375 1.78125,-0.359375 v -0.734375 c -0.96875,0.03125 -1,0.03125 -1.59375,0.03125 -0.5,0 -1.234375,0 -1.71875,-0.03125 v 0.734375 c 0.328125,0 0.6875,0.09375 0.6875,0.203125 0,0.046875 -0.078125,0.15625 -0.125,0.1875 L 5.34375,-4.828125 3.640625,-6.90625 h 0.71875 v -0.734375 c -0.40625,0.03125 -1.5625,0.03125 -2.03125,0.03125 -0.515625,0 -1.453125,0 -1.9375,-0.03125 V -6.90625 H 1.625 l 2.6875,3.265625 -2.25,2.53125 c -0.203125,0.25 -0.328125,0.375 -1.75,0.375 V 0 c 1.03125,-0.03125 1.0625,-0.03125 1.59375,-0.03125 0.5,0 1.234375,0 1.703125,0.03125 v -0.734375 c -0.328125,0 -0.6875,-0.09375 -0.6875,-0.21875 0,-0.015625 0,-0.03125 0.125,-0.171875 L 4.765625,-3.0625 6.6875,-0.734375 H 5.953125 V 0 C 6.375,-0.03125 7.53125,-0.03125 8,-0.03125 c 0.515625,0 1.4375,0 1.921875,0.03125 V -0.734375 H 8.71875 Z m 0,0"
                 id="path17626" />
            </g>
          </g>
        </g>
      </g>
    </g>
    <g
       inkscape:label=""
       transform="translate(82.901475,57.370074)"
       id="g20850">
      <g
         id="g20848"
         transform="matrix(0.352778,0,0,0.352778,-0.286632,-0.00189615)">
        <g
           style="fill:#000000;fill-opacity:1"
           id="g53">
          <g
             id="use51"
             transform="translate(0,12.896)">
            <path
               style="stroke:none"
               d="m 7.40625,-11.796875 c 0,-0.15625 -0.125,-0.15625 -0.171875,-0.15625 -0.15625,0 -0.171875,0.03125 -0.25,0.328125 L 6.0625,-7.921875 c -0.046875,0.21875 -0.078125,0.25 -0.09375,0.265625 -0.015625,0.03125 -0.125,0.046875 -0.171875,0.046875 -2.8125,0.234375 -4.984375,2.5625 -4.984375,4.71875 0,1.859375 1.421875,3 3.21875,3.09375 -0.140625,0.53125 -0.265625,1.09375 -0.390625,1.625 C 3.390625,2.734375 3.25,3.3125 3.25,3.375 c 0,0.03125 0,0.140625 0.171875,0.140625 0.0625,0 0.125,0 0.15625,-0.078125 C 3.609375,3.40625 3.71875,3 3.78125,2.765625 l 0.640625,-2.5625 c 2.953125,-0.15625 5.1875,-2.5625 5.1875,-4.734375 0,-1.734375 -1.3125,-2.96875 -3.21875,-3.09375 z m -1.125,4.515625 c 1.140625,0.0625 2.28125,0.703125 2.28125,2.390625 0,1.953125 -1.359375,4.53125 -4.046875,4.734375 z m -2.171875,7.140625 c -0.84375,-0.046875 -2.25,-0.5 -2.25,-2.390625 0,-2.171875 1.5625,-4.578125 4.046875,-4.734375 z m 0,0"
               id="path104" />
          </g>
        </g>
        <g
           style="fill:#000000;fill-opacity:1"
           id="g57">
          <g
             id="use55"
             transform="translate(9.9759998,12.896)">
            <path
               style="stroke:none"
               d="m 5.265625,4.203125 c 0,-0.015625 0,-0.046875 -0.046875,-0.109375 -0.796875,-0.8125 -2.90625,-3.015625 -2.90625,-8.375 0,-5.375 2.078125,-7.5625 2.921875,-8.421875 0,-0.01563 0.03125,-0.0625 0.03125,-0.109375 0,-0.04687 -0.046875,-0.07813 -0.125,-0.07813 -0.1875,0 -1.640625,1.265625 -2.484375,3.15625 -0.859375,1.921875 -1.109375,3.78125 -1.109375,5.421875 0,1.25 0.125,3.34375 1.15625,5.5625 0.828125,1.796875 2.234375,3.0625 2.4375,3.0625 0.09375,0 0.125,-0.046875 0.125,-0.109375 z m 0,0"
               id="path108" />
          </g>
        </g>
        <g
           style="fill:#000000;fill-opacity:1"
           id="g61">
          <g
             id="use59"
             transform="translate(16.073,12.896)">
            <path
               style="stroke:none"
               d="m 8.15625,-7.03125 c -0.546875,0.109375 -0.75,0.515625 -0.75,0.84375 0,0.421875 0.328125,0.5625 0.5625,0.5625 0.515625,0 0.875,-0.453125 0.875,-0.921875 0,-0.71875 -0.8125,-1.046875 -1.546875,-1.046875 -1.046875,0 -1.625,1.03125 -1.78125,1.359375 -0.40625,-1.296875 -1.46875,-1.359375 -1.78125,-1.359375 -1.75,0 -2.6875,2.25 -2.6875,2.640625 0,0.0625 0.078125,0.15625 0.1875,0.15625 0.140625,0 0.171875,-0.109375 0.21875,-0.171875 C 2.03125,-6.890625 3.1875,-7.25 3.6875,-7.25 c 0.765625,0 0.921875,0.71875 0.921875,1.140625 0,0.375 -0.09375,0.765625 -0.296875,1.59375 L 3.71875,-2.15625 c -0.25,1.03125 -0.75,1.984375 -1.671875,1.984375 -0.078125,0 -0.515625,0 -0.875,-0.21875 0.625,-0.125 0.75,-0.640625 0.75,-0.84375 0,-0.34375 -0.25,-0.5625 -0.578125,-0.5625 -0.40625,0 -0.859375,0.375 -0.859375,0.921875 0,0.71875 0.8125,1.046875 1.546875,1.046875 0.828125,0 1.40625,-0.65625 1.78125,-1.359375 0.265625,1.015625 1.125,1.359375 1.765625,1.359375 1.75,0 2.6875,-2.25 2.6875,-2.640625 0,-0.078125 -0.0625,-0.15625 -0.171875,-0.15625 -0.15625,0 -0.171875,0.09375 -0.21875,0.234375 -0.46875,1.515625 -1.46875,2.21875 -2.25,2.21875 -0.59375,0 -0.921875,-0.453125 -0.921875,-1.15625 0,-0.375 0.0625,-0.65625 0.34375,-1.78125 l 0.59375,-2.34375 C 5.90625,-6.484375 6.484375,-7.25 7.28125,-7.25 c 0.03125,0 0.515625,0 0.875,0.21875 z m 0,0"
               id="path112" />
          </g>
        </g>
        <g
           style="fill:#000000;fill-opacity:1"
           id="g20818">
          <g
             id="use63"
             transform="translate(25.652,12.896)">
            <path
               style="stroke:none"
               d="m 4.53125,-4.28125 c 0,-1.25 -0.125,-3.34375 -1.15625,-5.5625 -0.828125,-1.796875 -2.234375,-3.046875 -2.4375,-3.046875 -0.0625,0 -0.125,0.01563 -0.125,0.09375 0,0.03125 0.015625,0.0625 0.03125,0.09375 0.828125,0.859375 2.921875,3.046875 2.921875,8.390625 0,5.375 -2.078125,7.5625 -2.921875,8.421875 C 0.828125,4.15625 0.8125,4.171875 0.8125,4.203125 0.8125,4.28125 0.875,4.3125 0.9375,4.3125 1.125,4.3125 2.578125,3.03125 3.421875,1.140625 4.28125,-0.78125 4.53125,-2.640625 4.53125,-4.28125 Z m 0,0"
               id="path116" />
          </g>
        </g>
        <g
           style="fill:#000000;fill-opacity:1"
           id="g20823">
          <g
             id="g20821"
             transform="translate(36.533855,12.896)">
            <path
               style="stroke:none"
               d="m 11.078125,-5.53125 c 0.25,0 0.515625,0 0.515625,-0.28125 C 11.59375,-6.125 11.296875,-6.125 11,-6.125 H 1.375 c -0.296875,0 -0.578125,0 -0.578125,0.3125 0,0.28125 0.25,0.28125 0.515625,0.28125 z M 11,-2.46875 c 0.296875,0 0.59375,0 0.59375,-0.296875 0,-0.296875 -0.265625,-0.296875 -0.515625,-0.296875 H 1.3125 c -0.265625,0 -0.515625,0 -0.515625,0.296875 0,0.296875 0.28125,0.296875 0.578125,0.296875 z m 0,0"
               id="path120" />
          </g>
        </g>
        <g
           style="fill:#000000;fill-opacity:1"
           id="g20828">
          <g
             id="g20826"
             transform="translate(53.705002,12.896)">
            <path
               style="stroke:none"
               d="m 8.15625,-7.03125 c -0.546875,0.109375 -0.75,0.515625 -0.75,0.84375 0,0.421875 0.328125,0.5625 0.5625,0.5625 0.515625,0 0.875,-0.453125 0.875,-0.921875 0,-0.71875 -0.8125,-1.046875 -1.546875,-1.046875 -1.046875,0 -1.625,1.03125 -1.78125,1.359375 -0.40625,-1.296875 -1.46875,-1.359375 -1.78125,-1.359375 -1.75,0 -2.6875,2.25 -2.6875,2.640625 0,0.0625 0.078125,0.15625 0.1875,0.15625 0.140625,0 0.171875,-0.109375 0.21875,-0.171875 C 2.03125,-6.890625 3.1875,-7.25 3.6875,-7.25 c 0.765625,0 0.921875,0.71875 0.921875,1.140625 0,0.375 -0.09375,0.765625 -0.296875,1.59375 L 3.71875,-2.15625 c -0.25,1.03125 -0.75,1.984375 -1.671875,1.984375 -0.078125,0 -0.515625,0 -0.875,-0.21875 0.625,-0.125 0.75,-0.640625 0.75,-0.84375 0,-0.34375 -0.25,-0.5625 -0.578125,-0.5625 -0.40625,0 -0.859375,0.375 -0.859375,0.921875 0,0.71875 0.8125,1.046875 1.546875,1.046875 0.828125,0 1.40625,-0.65625 1.78125,-1.359375 0.265625,1.015625 1.125,1.359375 1.765625,1.359375 1.75,0 2.6875,-2.25 2.6875,-2.640625 0,-0.078125 -0.0625,-0.15625 -0.171875,-0.15625 -0.15625,0 -0.171875,0.09375 -0.21875,0.234375 -0.46875,1.515625 -1.46875,2.21875 -2.25,2.21875 -0.59375,0 -0.921875,-0.453125 -0.921875,-1.15625 0,-0.375 0.0625,-0.65625 0.34375,-1.78125 l 0.59375,-2.34375 C 5.90625,-6.484375 6.484375,-7.25 7.28125,-7.25 c 0.03125,0 0.515625,0 0.875,0.21875 z m 0,0"
               id="path124" />
          </g>
        </g>
        <g
           style="fill:#000000;fill-opacity:1"
           id="g77">
          <g
             id="use75"
             transform="translate(67.109001,12.896)">
            <path
               style="stroke:none"
               d="m 3.3125,-4.3125 c 0,-0.484375 -0.421875,-0.90625 -0.921875,-0.90625 -0.5,0 -0.90625,0.421875 -0.90625,0.90625 0,0.5 0.40625,0.921875 0.90625,0.921875 0.5,0 0.921875,-0.421875 0.921875,-0.921875 z m 0,0"
               id="path128" />
          </g>
        </g>
        <g
           style="fill:#000000;fill-opacity:1"
           id="g81">
          <g
             id="use79"
             transform="translate(76.913002,5.9990001)">
            <path
               style="stroke:none"
               d="m 0.953125,-0.640625 c -0.03125,0.15625 -0.09375,0.40625 -0.09375,0.46875 0,0.1875 0.15625,0.296875 0.3125,0.296875 0.140625,0 0.328125,-0.09375 0.40625,-0.3125 0.03125,-0.046875 0.390625,-1.53125 0.4375,-1.71875 0.09375,-0.359375 0.28125,-1.125 0.34375,-1.421875 C 2.40625,-3.46875 2.71875,-3.984375 2.984375,-4.21875 3.0625,-4.296875 3.375,-4.578125 3.84375,-4.578125 c 0.296875,0 0.453125,0.125 0.46875,0.125 -0.328125,0.0625 -0.578125,0.3125 -0.578125,0.609375 0,0.171875 0.125,0.375 0.421875,0.375 0.296875,0 0.59375,-0.25 0.59375,-0.640625 0,-0.390625 -0.34375,-0.71875 -0.90625,-0.71875 -0.703125,0 -1.1875,0.546875 -1.390625,0.84375 -0.09375,-0.484375 -0.484375,-0.84375 -0.984375,-0.84375 -0.515625,0 -0.71875,0.4375 -0.8125,0.625 -0.203125,0.375 -0.34375,1.03125 -0.34375,1.0625 0,0.109375 0.109375,0.109375 0.140625,0.109375 0.109375,0 0.109375,-0.015625 0.171875,-0.25 0.1875,-0.78125 0.40625,-1.296875 0.796875,-1.296875 0.1875,0 0.34375,0.078125 0.34375,0.5 0,0.234375 -0.03125,0.34375 -0.171875,0.921875 z m 0,0"
               id="path132" />
          </g>
        </g>
        <g
           style="fill:#000000;fill-opacity:1"
           id="g85">
          <g
             id="use83"
             transform="translate(81.834,7.6360002)">
            <path
               style="stroke:none"
               d="m 2.25,-1.625 c 0.125,-0.125 0.453125,-0.390625 0.59375,-0.5 0.484375,-0.453125 0.953125,-0.890625 0.953125,-1.609375 0,-0.953125 -0.796875,-1.5625 -1.78125,-1.5625 -0.96875,0 -1.59375,0.71875 -1.59375,1.4375 0,0.390625 0.3125,0.4375 0.421875,0.4375 0.171875,0 0.421875,-0.109375 0.421875,-0.421875 0,-0.40625 -0.40625,-0.40625 -0.5,-0.40625 C 1,-4.84375 1.53125,-5.03125 1.921875,-5.03125 c 0.734375,0 1.125,0.625 1.125,1.296875 0,0.828125 -0.578125,1.4375 -1.53125,2.390625 l -1,1.046875 C 0.421875,-0.21875 0.421875,-0.203125 0.421875,0 H 3.5625 l 0.234375,-1.421875 h -0.25 C 3.53125,-1.265625 3.46875,-0.875 3.375,-0.71875 c -0.046875,0.0625 -0.65625,0.0625 -0.78125,0.0625 H 1.171875 Z m 0,0"
               id="path136" />
          </g>
        </g>
        <path
           style="fill:none;stroke:#000000;stroke-width:0.638;stroke-linecap:butt;stroke-linejoin:miter;stroke-miterlimit:10;stroke-opacity:1"
           d="M 0.0010625,-0.00175 H 9.653406"
           transform="matrix(1,0,0,-1,76.913,8.592)"
           id="path87" />
        <g
           style="fill:#000000;fill-opacity:1"
           id="g91">
          <g
             id="use89"
             transform="translate(76.913002,18.833)">
            <path
               style="stroke:none"
               d="m 0.953125,-0.640625 c -0.03125,0.15625 -0.09375,0.40625 -0.09375,0.46875 0,0.1875 0.15625,0.296875 0.3125,0.296875 0.140625,0 0.328125,-0.09375 0.40625,-0.3125 0.03125,-0.046875 0.390625,-1.53125 0.4375,-1.71875 0.09375,-0.359375 0.28125,-1.125 0.34375,-1.421875 C 2.40625,-3.46875 2.71875,-3.984375 2.984375,-4.21875 3.0625,-4.296875 3.375,-4.578125 3.84375,-4.578125 c 0.296875,0 0.453125,0.125 0.46875,0.125 -0.328125,0.0625 -0.578125,0.3125 -0.578125,0.609375 0,0.171875 0.125,0.375 0.421875,0.375 0.296875,0 0.59375,-0.25 0.59375,-0.640625 0,-0.390625 -0.34375,-0.71875 -0.90625,-0.71875 -0.703125,0 -1.1875,0.546875 -1.390625,0.84375 -0.09375,-0.484375 -0.484375,-0.84375 -0.984375,-0.84375 -0.515625,0 -0.71875,0.4375 -0.8125,0.625 -0.203125,0.375 -0.34375,1.03125 -0.34375,1.0625 0,0.109375 0.109375,0.109375 0.140625,0.109375 0.109375,0 0.109375,-0.015625 0.171875,-0.25 0.1875,-0.78125 0.40625,-1.296875 0.796875,-1.296875 0.1875,0 0.34375,0.078125 0.34375,0.5 0,0.234375 -0.03125,0.34375 -0.171875,0.921875 z m 0,0"
               id="path140" />
          </g>
        </g>
        <g
           clip-path="url(#clipPath5899)"
           clip-rule="nonzero"
           id="g97">
          <g
             style="fill:#000000;fill-opacity:1"
             id="g20845">
            <g
               id="use93"
               transform="translate(81.834,20.469)">
              <path
                 style="stroke:none"
                 d="m 2.5,-5.078125 c 0,-0.21875 -0.015625,-0.21875 -0.234375,-0.21875 -0.328125,0.3125 -0.75,0.5 -1.5,0.5 v 0.265625 c 0.21875,0 0.640625,0 1.109375,-0.203125 v 4.078125 c 0,0.296875 -0.03125,0.390625 -0.78125,0.390625 H 0.8125 V 0 c 0.328125,-0.03125 1.015625,-0.03125 1.375,-0.03125 0.359375,0 1.046875,0 1.375,0.03125 V -0.265625 H 3.28125 c -0.75,0 -0.78125,-0.09375 -0.78125,-0.390625 z m 0,0"
                 id="path144" />
            </g>
          </g>
        </g>
      </g>
    </g>
    <g
       inkscape:label=""
       transform="translate(94.354973,121.58487)"
       id="g22908">
      <g
         id="g22906"
         transform="matrix(0.352778,0,0,0.352778,-0.308681,0.0596193)">
        <g
           clip-path="url(#clipPath9249)"
           clip-rule="nonzero"
           id="g22904">
          <g
             style="fill:#000000;fill-opacity:1"
             id="g22902">
            <g
               id="g22900"
               transform="translate(0,11.956)">
              <path
                 style="stroke:none"
                 d="m 7.671875,-6.921875 c 0.359375,0 0.484375,0 0.484375,-0.328125 0,-0.171875 -0.125,-0.171875 -0.4375,-0.171875 H 6.3125 c 0.328125,-1.765625 0.578125,-3 0.71875,-3.546875 0.09375,-0.40625 0.453125,-0.8125 0.90625,-0.8125 0.359375,0 0.71875,0.15625 0.890625,0.3125 -0.671875,0.0625 -0.875,0.5625 -0.875,0.859375 0,0.34375 0.265625,0.546875 0.59375,0.546875 0.34375,0 0.859375,-0.28125 0.859375,-0.9375 0,-0.71875 -0.734375,-1.125 -1.484375,-1.125 -0.734375,0 -1.46875,0.546875 -1.8125,1.21875 -0.3125,0.609375 -0.484375,1.234375 -0.875,3.484375 h -1.15625 c -0.328125,0 -0.5,0 -0.5,0.3125 0,0.1875 0.109375,0.1875 0.453125,0.1875 H 5.125 c -0.296875,1.59375 -1.015625,5.5 -1.40625,7.328125 -0.296875,1.5 -0.546875,2.765625 -1.40625,2.765625 -0.0625,0 -0.5625,0 -0.859375,-0.328125 0.875,-0.078125 0.875,-0.828125 0.875,-0.84375 0,-0.34375 -0.265625,-0.546875 -0.59375,-0.546875 -0.34375,0 -0.859375,0.28125 -0.859375,0.9375 0,0.75 0.765625,1.125 1.4375,1.125 1.75,0 2.46875,-3.15625 2.65625,-4.015625 0.3125,-1.328125 1.15625,-5.90625 1.25,-6.421875 z m 0,0"
                 id="path22898" />
            </g>
          </g>
        </g>
      </g>
    </g>
    <g
       id="g31424">
      <g
         style="fill:#800066;fill-opacity:1"
         id="g38"
         transform="matrix(0.352778,0,0,0.352778,179.82582,127.96823)">
        <g
           id="use36"
           transform="translate(0,11.593)"
           style="fill:#800066;fill-opacity:1">
          <path
             style="fill:#800066;fill-opacity:1;stroke:none"
             d="m 5.796875,-4.25 2,-2.296875 c 0.1875,-0.21875 0.34375,-0.359375 1.78125,-0.359375 v -0.734375 c -0.96875,0.03125 -1,0.03125 -1.59375,0.03125 -0.5,0 -1.234375,0 -1.71875,-0.03125 v 0.734375 c 0.328125,0 0.6875,0.09375 0.6875,0.203125 0,0.046875 -0.078125,0.15625 -0.125,0.1875 L 5.34375,-4.828125 3.640625,-6.90625 h 0.71875 v -0.734375 c -0.40625,0.03125 -1.5625,0.03125 -2.03125,0.03125 -0.515625,0 -1.453125,0 -1.9375,-0.03125 V -6.90625 H 1.625 l 2.6875,3.265625 -2.25,2.53125 c -0.203125,0.25 -0.328125,0.375 -1.75,0.375 V 0 c 1.03125,-0.03125 1.0625,-0.03125 1.59375,-0.03125 0.5,0 1.234375,0 1.703125,0.03125 v -0.734375 c -0.328125,0 -0.6875,-0.09375 -0.6875,-0.21875 0,-0.015625 0,-0.03125 0.125,-0.171875 L 4.765625,-3.0625 6.6875,-0.734375 H 5.953125 V 0 C 6.375,-0.03125 7.53125,-0.03125 8,-0.03125 c 0.515625,0 1.4375,0 1.921875,0.03125 V -0.734375 H 8.71875 Z m 0,0"
             id="path69" />
        </g>
      </g>
      <g
         style="fill:#800066;fill-opacity:1"
         id="g42"
         transform="matrix(0.352778,0,0,0.352778,179.82582,127.96823)">
        <g
           id="use40"
           transform="translate(14.047,11.593)"
           style="fill:#800066;fill-opacity:1">
          <path
             style="fill:#800066;fill-opacity:1;stroke:none"
             d="m 3.3125,-4.3125 c 0,-0.484375 -0.421875,-0.90625 -0.921875,-0.90625 -0.5,0 -0.90625,0.421875 -0.90625,0.90625 0,0.5 0.40625,0.921875 0.90625,0.921875 0.5,0 0.921875,-0.421875 0.921875,-0.921875 z m 0,0"
             id="path73" />
        </g>
      </g>
      <g
         id="g31376"
         transform="translate(0,0.43583116)">
        <g
           style="fill:#800066;fill-opacity:1"
           id="g46"
           transform="matrix(0.352778,0,0,0.352778,179.82582,127.96823)">
          <g
             id="use44"
             transform="translate(23.85,4.6960001)"
             style="fill:#800066;fill-opacity:1">
            <path
               style="fill:#800066;fill-opacity:1;stroke:none"
               d="m 0.953125,-0.640625 c -0.03125,0.15625 -0.09375,0.40625 -0.09375,0.46875 0,0.1875 0.15625,0.296875 0.3125,0.296875 0.140625,0 0.328125,-0.09375 0.40625,-0.3125 0.03125,-0.046875 0.390625,-1.53125 0.4375,-1.71875 0.09375,-0.359375 0.28125,-1.125 0.34375,-1.421875 C 2.40625,-3.46875 2.71875,-3.984375 2.984375,-4.21875 3.0625,-4.296875 3.375,-4.578125 3.84375,-4.578125 c 0.296875,0 0.453125,0.125 0.46875,0.125 -0.328125,0.0625 -0.578125,0.3125 -0.578125,0.609375 0,0.171875 0.125,0.375 0.421875,0.375 0.296875,0 0.59375,-0.25 0.59375,-0.640625 0,-0.390625 -0.34375,-0.71875 -0.90625,-0.71875 -0.703125,0 -1.1875,0.546875 -1.390625,0.84375 -0.09375,-0.484375 -0.484375,-0.84375 -0.984375,-0.84375 -0.515625,0 -0.71875,0.4375 -0.8125,0.625 -0.203125,0.375 -0.34375,1.03125 -0.34375,1.0625 0,0.109375 0.109375,0.109375 0.140625,0.109375 0.109375,0 0.109375,-0.015625 0.171875,-0.25 0.1875,-0.78125 0.40625,-1.296875 0.796875,-1.296875 0.1875,0 0.34375,0.078125 0.34375,0.5 0,0.234375 -0.03125,0.34375 -0.171875,0.921875 z m 0,0"
               id="path77" />
          </g>
        </g>
        <g
           style="fill:#800066;fill-opacity:1"
           id="g50"
           transform="matrix(0.352778,0,0,0.352778,179.82582,127.96823)">
          <g
             id="use48"
             transform="translate(28.771999,6.3330002)"
             style="fill:#800066;fill-opacity:1">
            <path
               style="fill:#800066;fill-opacity:1;stroke:none"
               d="m 2.25,-1.625 c 0.125,-0.125 0.453125,-0.390625 0.59375,-0.5 0.484375,-0.453125 0.953125,-0.890625 0.953125,-1.609375 0,-0.953125 -0.796875,-1.5625 -1.78125,-1.5625 -0.96875,0 -1.59375,0.71875 -1.59375,1.4375 0,0.390625 0.3125,0.4375 0.421875,0.4375 0.171875,0 0.421875,-0.109375 0.421875,-0.421875 0,-0.40625 -0.40625,-0.40625 -0.5,-0.40625 C 1,-4.84375 1.53125,-5.03125 1.921875,-5.03125 c 0.734375,0 1.125,0.625 1.125,1.296875 0,0.828125 -0.578125,1.4375 -1.53125,2.390625 l -1,1.046875 C 0.421875,-0.21875 0.421875,-0.203125 0.421875,0 H 3.5625 l 0.234375,-1.421875 h -0.25 C 3.53125,-1.265625 3.46875,-0.875 3.375,-0.71875 c -0.046875,0.0625 -0.65625,0.0625 -0.78125,0.0625 H 1.171875 Z m 0,0"
               id="path81" />
          </g>
        </g>
      </g>
      <path
         style="fill:#800066;fill-opacity:1;stroke:#800066;stroke-width:0.225072;stroke-linecap:butt;stroke-linejoin:miter;stroke-miterlimit:10;stroke-opacity:1"
         d="m 187.97623,131.24104 h 3.93294"
         id="path52" />
      <g
         id="g31368"
         transform="translate(0,-0.60387747)">
        <g
           style="fill:#800066;fill-opacity:1"
           id="g56"
           transform="matrix(0.352778,0,0,0.352778,179.82582,127.96823)">
          <g
             id="use54"
             transform="translate(23.85,17.530001)"
             style="fill:#800066;fill-opacity:1">
            <path
               style="fill:#800066;fill-opacity:1;stroke:none"
               d="m 0.953125,-0.640625 c -0.03125,0.15625 -0.09375,0.40625 -0.09375,0.46875 0,0.1875 0.15625,0.296875 0.3125,0.296875 0.140625,0 0.328125,-0.09375 0.40625,-0.3125 0.03125,-0.046875 0.390625,-1.53125 0.4375,-1.71875 0.09375,-0.359375 0.28125,-1.125 0.34375,-1.421875 C 2.40625,-3.46875 2.71875,-3.984375 2.984375,-4.21875 3.0625,-4.296875 3.375,-4.578125 3.84375,-4.578125 c 0.296875,0 0.453125,0.125 0.46875,0.125 -0.328125,0.0625 -0.578125,0.3125 -0.578125,0.609375 0,0.171875 0.125,0.375 0.421875,0.375 0.296875,0 0.59375,-0.25 0.59375,-0.640625 0,-0.390625 -0.34375,-0.71875 -0.90625,-0.71875 -0.703125,0 -1.1875,0.546875 -1.390625,0.84375 -0.09375,-0.484375 -0.484375,-0.84375 -0.984375,-0.84375 -0.515625,0 -0.71875,0.4375 -0.8125,0.625 -0.203125,0.375 -0.34375,1.03125 -0.34375,1.0625 0,0.109375 0.109375,0.109375 0.140625,0.109375 0.109375,0 0.109375,-0.015625 0.171875,-0.25 0.1875,-0.78125 0.40625,-1.296875 0.796875,-1.296875 0.1875,0 0.34375,0.078125 0.34375,0.5 0,0.234375 -0.03125,0.34375 -0.171875,0.921875 z m 0,0"
               id="path85" />
          </g>
        </g>
        <g
           clip-path="url(#clipPath2567)"
           clip-rule="nonzero"
           id="g62"
           style="fill:#800066;fill-opacity:1"
           transform="matrix(0.352778,0,0,0.352778,179.82582,127.96823)">
          <g
             style="fill:#800066;fill-opacity:1"
             id="g60">
            <g
               id="use58"
               transform="translate(28.771999,19.166)"
               style="fill:#800066;fill-opacity:1">
              <path
                 style="fill:#800066;fill-opacity:1;stroke:none"
                 d="m 2.5,-5.078125 c 0,-0.21875 -0.015625,-0.21875 -0.234375,-0.21875 -0.328125,0.3125 -0.75,0.5 -1.5,0.5 v 0.265625 c 0.21875,0 0.640625,0 1.109375,-0.203125 v 4.078125 c 0,0.296875 -0.03125,0.390625 -0.78125,0.390625 H 0.8125 V 0 c 0.328125,-0.03125 1.015625,-0.03125 1.375,-0.03125 0.359375,0 1.046875,0 1.375,0.03125 V -0.265625 H 3.28125 c -0.75,0 -0.78125,-0.09375 -0.78125,-0.390625 z m 0,0"
                 id="path89" />
            </g>
          </g>
        </g>
      </g>
    </g>
  </g>
</svg>
