<?xml version="1.0" encoding="UTF-8" standalone="no"?>
<!-- Created with Inkscape (http://www.inkscape.org/) -->

<svg
   width="191.18829mm"
   height="71.883202mm"
   viewBox="0 0 191.18829 71.883201"
   version="1.1"
   id="svg1"
   inkscape:version="1.4 (e7c3feb1, 2024-10-09)"
   sodipodi:docname="prob-01-01-25_06.svg"
   xmlns:inkscape="http://www.inkscape.org/namespaces/inkscape"
   xmlns:sodipodi="http://sodipodi.sourceforge.net/DTD/sodipodi-0.dtd"
   xmlns="http://www.w3.org/2000/svg"
   xmlns:svg="http://www.w3.org/2000/svg"
   xmlns:ns1="http://www.iki.fi/pav/software/textext/">
  <sodipodi:namedview
     id="namedview1"
     pagecolor="#ffffff"
     bordercolor="#000000"
     borderopacity="0.25"
     inkscape:showpageshadow="2"
     inkscape:pageopacity="0.0"
     inkscape:pagecheckerboard="0"
     inkscape:deskcolor="#d1d1d1"
     inkscape:document-units="mm"
     showguides="true"
     inkscape:zoom="1"
     inkscape:cx="369.5"
     inkscape:cy="111"
     inkscape:window-width="1512"
     inkscape:window-height="916"
     inkscape:window-x="0"
     inkscape:window-y="38"
     inkscape:window-maximized="1"
     inkscape:current-layer="layer1" />
  <defs
     id="defs1">
    <marker
       style="overflow:visible"
       id="ArrowWide"
       refX="0"
       refY="0"
       orient="auto-start-reverse"
       inkscape:stockid="Wide arrow"
       markerWidth="1"
       markerHeight="1"
       viewBox="0 0 1 1"
       inkscape:isstock="true"
       inkscape:collect="always"
       preserveAspectRatio="xMidYMid">
      <path
         style="fill:none;stroke:context-stroke;stroke-width:1;stroke-linecap:butt"
         d="M 3,-3 0,0 3,3"
         transform="rotate(180,0.125,0)"
         sodipodi:nodetypes="ccc"
         id="path25" />
    </marker>
  </defs>
  <g
     inkscape:label="Layer 1"
     inkscape:groupmode="layer"
     id="layer1"
     transform="translate(-11.999291,-103.49559)">
    <path
       sodipodi:type="star"
       style="fill:none;stroke:#00aad4;stroke-width:1.1;-inkscape-stroke:none"
       id="path1"
       inkscape:flatsided="true"
       sodipodi:sides="3"
       sodipodi:cx="99.21875"
       sodipodi:cy="160.86667"
       sodipodi:r1="40.112091"
       sodipodi:r2="20.056046"
       sodipodi:arg1="0.52359878"
       sodipodi:arg2="1.5707963"
       inkscape:rounded="0"
       inkscape:randomized="0"
       d="m 133.95684,180.92271 -69.47618,0 34.73809,-60.16813 z"
       inkscape:transform-center-y="-10.028022"
       transform="translate(-50.8,-12.170833)" />
    <path
       sodipodi:type="star"
       style="fill:none;stroke:#00aad4;stroke-width:1.1;-inkscape-stroke:none"
       id="path2"
       inkscape:flatsided="true"
       sodipodi:sides="3"
       sodipodi:cx="99.21875"
       sodipodi:cy="160.86667"
       sodipodi:r1="40.112091"
       sodipodi:r2="20.056046"
       sodipodi:arg1="0.52359878"
       sodipodi:arg2="1.5707963"
       inkscape:rounded="0"
       inkscape:randomized="0"
       d="m 133.95684,180.92271 -69.47618,0 34.73809,-60.16813 z"
       inkscape:transform-center-y="-10.028022"
       transform="translate(64.822917,-12.170833)" />
    <g
       transform="matrix(0.529167,0,0,0.529167,11.999489,170.39793)"
       ns1:version="1.10.2"
       ns1:texconverter="pdflatex"
       ns1:pdfconverter="inkscape"
       ns1:text="$B$"
       ns1:preamble="/Users/sachchidanandprasad/Library/Application Support/org.inkscape.Inkscape/config/inkscape/extensions/textext/default_packages.tex"
       ns1:scale="1.5"
       ns1:alignment="middle center"
       ns1:stroke-to-path="0"
       ns1:jacobian_sqrt="0.529167"
       id="g5">
      <defs
         id="id-78582304-06bf-4ded-bd13-f95bfe001425">
        <g
           id="id-3c0e42da-3ae8-46d5-ba4f-a39094619d9b">
          <g
             id="id-d1067845-cf8f-4f15-bd9a-4d5e7f75a4fe">
            <path
               d="M 0.96875,-6.625 1.5,-6.59375 c 0.234375,0 0.34375,0.078125 0.34375,0.265625 0,0.140625 -0.046875,0.453125 -0.09375,0.75 l -0.859375,5.03125 c -0.046875,0.171875 -0.15625,0.25 -0.578125,0.3125 L 0.265625,0.03125 0.625,0.015625 C 0.890625,0 1.046875,0 1.171875,0 1.28125,0 1.53125,0.015625 1.796875,0.015625 L 2.15625,0.03125 2.359375,0.046875 c 0.1875,0 0.328125,0.015625 0.40625,0.015625 0.46875,0 0.953125,-0.140625 1.421875,-0.421875 0.78125,-0.46875 1.21875,-1.140625 1.21875,-1.90625 0,-0.421875 -0.125,-0.75 -0.40625,-0.96875 -0.25,-0.21875 -0.546875,-0.296875 -1.234375,-0.40625 0.5625,-0.203125 0.8125,-0.3125 1.125,-0.59375 0.453125,-0.390625 0.6875,-0.859375 0.6875,-1.375 C 5.578125,-6.421875 5,-6.890625 4,-6.890625 c -0.015625,0 -0.125,0 -0.265625,0 L 3.09375,-6.875 c -0.109375,0 -0.46875,0 -0.59375,0 -0.1875,0 -0.5,0 -0.984375,-0.015625 H 1 Z m 1.1875,3.234375 h 0.859375 c 1.015625,0 1.515625,0.421875 1.515625,1.28125 0,1.03125 -0.71875,1.765625 -1.71875,1.765625 -0.203125,0 -0.484375,0 -0.8125,-0.03125 C 1.9375,-0.390625 1.8125,-0.40625 1.65625,-0.40625 Z m 0.5625,-3.09375 c 0.109375,0 0.125,0 0.328125,-0.015625 0.21875,-0.015625 0.34375,-0.03125 0.46875,-0.03125 0.796875,0 1.203125,0.359375 1.203125,1.109375 C 4.71875,-4.375 3.984375,-3.75 2.734375,-3.75 H 2.21875 Z m 0,0"
               id="id-69c565a1-52f2-4306-b646-2912552df336" />
          </g>
        </g>
      </defs>
      <g
         fill="#000000"
         fill-opacity="1"
         id="id-b9e772e6-6d52-490d-ac82-b834d481449f"
         transform="translate(-149.302,-127.874)">
        <g
           transform="translate(149.036,134.765)"
           id="g4">
          <path
             d="M 0.96875,-6.625 1.5,-6.59375 c 0.234375,0 0.34375,0.078125 0.34375,0.265625 0,0.140625 -0.046875,0.453125 -0.09375,0.75 l -0.859375,5.03125 c -0.046875,0.171875 -0.15625,0.25 -0.578125,0.3125 L 0.265625,0.03125 0.625,0.015625 C 0.890625,0 1.046875,0 1.171875,0 1.28125,0 1.53125,0.015625 1.796875,0.015625 L 2.15625,0.03125 2.359375,0.046875 c 0.1875,0 0.328125,0.015625 0.40625,0.015625 0.46875,0 0.953125,-0.140625 1.421875,-0.421875 0.78125,-0.46875 1.21875,-1.140625 1.21875,-1.90625 0,-0.421875 -0.125,-0.75 -0.40625,-0.96875 -0.25,-0.21875 -0.546875,-0.296875 -1.234375,-0.40625 0.5625,-0.203125 0.8125,-0.3125 1.125,-0.59375 0.453125,-0.390625 0.6875,-0.859375 0.6875,-1.375 C 5.578125,-6.421875 5,-6.890625 4,-6.890625 c -0.015625,0 -0.125,0 -0.265625,0 L 3.09375,-6.875 c -0.109375,0 -0.46875,0 -0.59375,0 -0.1875,0 -0.5,0 -0.984375,-0.015625 H 1 Z m 1.1875,3.234375 h 0.859375 c 1.015625,0 1.515625,0.421875 1.515625,1.28125 0,1.03125 -0.71875,1.765625 -1.71875,1.765625 -0.203125,0 -0.484375,0 -0.8125,-0.03125 C 1.9375,-0.390625 1.8125,-0.40625 1.65625,-0.40625 Z m 0.5625,-3.09375 c 0.109375,0 0.125,0 0.328125,-0.015625 0.21875,-0.015625 0.34375,-0.03125 0.46875,-0.03125 0.796875,0 1.203125,0.359375 1.203125,1.109375 C 4.71875,-4.375 3.984375,-3.75 2.734375,-3.75 H 2.21875 Z m 0,0"
             id="id-4228a017-bdf1-478d-a4a6-e4775a841d9e" />
        </g>
      </g>
    </g>
    <g
       transform="matrix(0.529167,0,0,0.529167,46.262173,103.73124)"
       ns1:version="1.10.2"
       ns1:texconverter="pdflatex"
       ns1:pdfconverter="inkscape"
       ns1:text="$A$"
       ns1:preamble="/Users/sachchidanandprasad/Library/Application Support/org.inkscape.Inkscape/config/inkscape/extensions/textext/default_packages.tex"
       ns1:scale="1.5"
       ns1:alignment="middle center"
       ns1:stroke-to-path="0"
       ns1:jacobian_sqrt="0.529167"
       id="g7">
      <defs
         id="id-58a41851-2838-438e-af6d-ea5269fdb068">
        <g
           id="id-c5a4fec3-3b7c-4a81-96c6-8ac591517d3d">
          <g
             id="id-f6b87dde-faca-4051-b910-855234a88f9d">
            <path
               d="m 4.609375,-7.03125 -3.71875,5.921875 C 0.53125,-0.5625 0.34375,-0.40625 0.015625,-0.3125 L -0.1875,-0.265625 V 0.03125 C 0.734375,0 0.734375,0 0.921875,0 1.109375,0 1.140625,0 2,0.03125 V -0.25 L 1.46875,-0.28125 C 1.3125,-0.296875 1.171875,-0.375 1.171875,-0.46875 c 0,-0.078125 0.0625,-0.21875 0.25,-0.546875 l 1.015625,-1.75 h 2.453125 l 0.25,1.875 v 0.03125 c 0,0.015625 0.015625,0.046875 0.015625,0.09375 0.015625,0.078125 0.03125,0.171875 0.03125,0.21875 0,0.15625 -0.15625,0.25 -0.4375,0.265625 L 4.3125,-0.25 V 0.03125 C 5.328125,0 5.328125,0 5.53125,0 5.734375,0 5.734375,0 6.75,0.03125 V -0.25 L 6.484375,-0.28125 C 6.015625,-0.34375 6.015625,-0.34375 5.9375,-0.796875 L 5.0625,-7.03125 Z M 4.46875,-5.984375 4.84375,-3.125 H 2.6875 Z m 0,0"
               id="id-030e2b64-950f-4aaa-b4d7-6d6998597a2d" />
          </g>
        </g>
      </defs>
      <g
         fill="#000000"
         fill-opacity="1"
         id="id-a91fb854-bb6f-44ec-8cf6-90761bf22f88"
         transform="translate(-149.148,-127.734)">
        <g
           transform="translate(149.335,134.765)"
           id="g6">
          <path
             d="m 4.609375,-7.03125 -3.71875,5.921875 C 0.53125,-0.5625 0.34375,-0.40625 0.015625,-0.3125 L -0.1875,-0.265625 V 0.03125 C 0.734375,0 0.734375,0 0.921875,0 1.109375,0 1.140625,0 2,0.03125 V -0.25 L 1.46875,-0.28125 C 1.3125,-0.296875 1.171875,-0.375 1.171875,-0.46875 c 0,-0.078125 0.0625,-0.21875 0.25,-0.546875 l 1.015625,-1.75 h 2.453125 l 0.25,1.875 v 0.03125 c 0,0.015625 0.015625,0.046875 0.015625,0.09375 0.015625,0.078125 0.03125,0.171875 0.03125,0.21875 0,0.15625 -0.15625,0.25 -0.4375,0.265625 L 4.3125,-0.25 V 0.03125 C 5.328125,0 5.328125,0 5.53125,0 5.734375,0 5.734375,0 6.75,0.03125 V -0.25 L 6.484375,-0.28125 C 6.015625,-0.34375 6.015625,-0.34375 5.9375,-0.796875 L 5.0625,-7.03125 Z M 4.46875,-5.984375 4.84375,-3.125 H 2.6875 Z m 0,0"
             id="id-77a7dd29-7b53-446e-aa51-1d2bedbed52c" />
        </g>
      </g>
    </g>
    <g
       transform="matrix(0.529167,0,0,0.529167,81.787407,171.29236)"
       ns1:version="1.10.2"
       ns1:texconverter="pdflatex"
       ns1:pdfconverter="inkscape"
       ns1:text="$C$"
       ns1:preamble="/Users/sachchidanandprasad/Library/Application Support/org.inkscape.Inkscape/config/inkscape/extensions/textext/default_packages.tex"
       ns1:scale="1.5"
       ns1:alignment="middle center"
       ns1:stroke-to-path="0"
       ns1:jacobian_sqrt="0.529167"
       id="g9">
      <defs
         id="id-2b716482-4688-470b-a33c-d167a4d988ea">
        <g
           id="id-e115e627-ecea-4975-b19a-0573695bc762">
          <g
             id="id-db2288e2-19fe-4fd8-8fa7-f0b663efaa17">
            <path
               d="M 5.953125,-5.171875 H 6.21875 c 0.046875,-0.5625 0.125,-1 0.265625,-1.453125 -0.75,-0.296875 -1.328125,-0.40625 -1.9375,-0.40625 -0.8125,0 -1.640625,0.25 -2.328125,0.71875 -1.171875,0.78125 -1.765625,1.953125 -1.765625,3.484375 0,1.9375 1.0625,3 2.96875,3 0.953125,0 1.65625,-0.21875 2.5625,-0.84375 l 0.09375,-0.359375 -0.09375,-0.0625 c -0.9375,0.5625 -1.453125,0.75 -2.234375,0.75 -1.5625,0 -2.421875,-0.96875 -2.421875,-2.734375 0,-1.109375 0.34375,-2.09375 0.9375,-2.71875 0.46875,-0.46875 1.109375,-0.71875 1.90625,-0.71875 0.703125,0 1.21875,0.140625 1.78125,0.5 z m 0,0"
               id="id-15dc9c6f-548f-4e2a-8c95-b45fb9c062b1" />
          </g>
        </g>
      </defs>
      <g
         fill="#000000"
         fill-opacity="1"
         id="id-485815be-fe48-437f-b1fc-b812c2ca6250"
         transform="translate(-149.25,-127.734)">
        <g
           transform="translate(148.797,134.765)"
           id="g8">
          <path
             d="M 5.953125,-5.171875 H 6.21875 c 0.046875,-0.5625 0.125,-1 0.265625,-1.453125 -0.75,-0.296875 -1.328125,-0.40625 -1.9375,-0.40625 -0.8125,0 -1.640625,0.25 -2.328125,0.71875 -1.171875,0.78125 -1.765625,1.953125 -1.765625,3.484375 0,1.9375 1.0625,3 2.96875,3 0.953125,0 1.65625,-0.21875 2.5625,-0.84375 l 0.09375,-0.359375 -0.09375,-0.0625 c -0.9375,0.5625 -1.453125,0.75 -2.234375,0.75 -1.5625,0 -2.421875,-0.96875 -2.421875,-2.734375 0,-1.109375 0.34375,-2.09375 0.9375,-2.71875 0.46875,-0.46875 1.109375,-0.71875 1.90625,-0.71875 0.703125,0 1.21875,0.140625 1.78125,0.5 z m 0,0"
             id="id-b1678c42-1b31-4bfc-8016-c545ccfece03" />
        </g>
      </g>
    </g>
    <g
       transform="matrix(0.529167,0,0,0.529167,199.51676,167.31083)"
       ns1:version="1.10.2"
       ns1:texconverter="pdflatex"
       ns1:pdfconverter="inkscape"
       ns1:text="$A$"
       ns1:preamble="/Users/sachchidanandprasad/Library/Application Support/org.inkscape.Inkscape/config/inkscape/extensions/textext/default_packages.tex"
       ns1:scale="1.5"
       ns1:alignment="middle center"
       ns1:stroke-to-path="0"
       ns1:jacobian_sqrt="0.529167"
       id="g14">
      <defs
         id="defs11">
        <g
           id="g11">
          <g
             id="g10">
            <path
               d="m 4.609375,-7.03125 -3.71875,5.921875 C 0.53125,-0.5625 0.34375,-0.40625 0.015625,-0.3125 L -0.1875,-0.265625 V 0.03125 C 0.734375,0 0.734375,0 0.921875,0 1.109375,0 1.140625,0 2,0.03125 V -0.25 L 1.46875,-0.28125 C 1.3125,-0.296875 1.171875,-0.375 1.171875,-0.46875 c 0,-0.078125 0.0625,-0.21875 0.25,-0.546875 l 1.015625,-1.75 h 2.453125 l 0.25,1.875 v 0.03125 c 0,0.015625 0.015625,0.046875 0.015625,0.09375 0.015625,0.078125 0.03125,0.171875 0.03125,0.21875 0,0.15625 -0.15625,0.25 -0.4375,0.265625 L 4.3125,-0.25 V 0.03125 C 5.328125,0 5.328125,0 5.53125,0 5.734375,0 5.734375,0 6.75,0.03125 V -0.25 L 6.484375,-0.28125 C 6.015625,-0.34375 6.015625,-0.34375 5.9375,-0.796875 L 5.0625,-7.03125 Z M 4.46875,-5.984375 4.84375,-3.125 H 2.6875 Z m 0,0"
               id="path9" />
          </g>
        </g>
      </defs>
      <g
         fill="#000000"
         fill-opacity="1"
         id="g13"
         transform="translate(-149.148,-127.734)">
        <g
           transform="translate(149.335,134.765)"
           id="g12">
          <path
             d="m 4.609375,-7.03125 -3.71875,5.921875 C 0.53125,-0.5625 0.34375,-0.40625 0.015625,-0.3125 L -0.1875,-0.265625 V 0.03125 C 0.734375,0 0.734375,0 0.921875,0 1.109375,0 1.140625,0 2,0.03125 V -0.25 L 1.46875,-0.28125 C 1.3125,-0.296875 1.171875,-0.375 1.171875,-0.46875 c 0,-0.078125 0.0625,-0.21875 0.25,-0.546875 l 1.015625,-1.75 h 2.453125 l 0.25,1.875 v 0.03125 c 0,0.015625 0.015625,0.046875 0.015625,0.09375 0.015625,0.078125 0.03125,0.171875 0.03125,0.21875 0,0.15625 -0.15625,0.25 -0.4375,0.265625 L 4.3125,-0.25 V 0.03125 C 5.328125,0 5.328125,0 5.53125,0 5.734375,0 5.734375,0 6.75,0.03125 V -0.25 L 6.484375,-0.28125 C 6.015625,-0.34375 6.015625,-0.34375 5.9375,-0.796875 L 5.0625,-7.03125 Z M 4.46875,-5.984375 4.84375,-3.125 H 2.6875 Z m 0,0"
             id="path11" />
        </g>
      </g>
    </g>
    <g
       transform="matrix(0.529167,0,0,0.529167,162.66285,103.49539)"
       ns1:version="1.10.2"
       ns1:texconverter="pdflatex"
       ns1:pdfconverter="inkscape"
       ns1:text="$B$"
       ns1:preamble="/Users/sachchidanandprasad/Library/Application Support/org.inkscape.Inkscape/config/inkscape/extensions/textext/default_packages.tex"
       ns1:scale="1.5"
       ns1:alignment="middle center"
       ns1:stroke-to-path="0"
       ns1:jacobian_sqrt="0.529167"
       id="g19">
      <defs
         id="defs16">
        <g
           id="g16">
          <g
             id="g15">
            <path
               d="M 0.96875,-6.625 1.5,-6.59375 c 0.234375,0 0.34375,0.078125 0.34375,0.265625 0,0.140625 -0.046875,0.453125 -0.09375,0.75 l -0.859375,5.03125 c -0.046875,0.171875 -0.15625,0.25 -0.578125,0.3125 L 0.265625,0.03125 0.625,0.015625 C 0.890625,0 1.046875,0 1.171875,0 1.28125,0 1.53125,0.015625 1.796875,0.015625 L 2.15625,0.03125 2.359375,0.046875 c 0.1875,0 0.328125,0.015625 0.40625,0.015625 0.46875,0 0.953125,-0.140625 1.421875,-0.421875 0.78125,-0.46875 1.21875,-1.140625 1.21875,-1.90625 0,-0.421875 -0.125,-0.75 -0.40625,-0.96875 -0.25,-0.21875 -0.546875,-0.296875 -1.234375,-0.40625 0.5625,-0.203125 0.8125,-0.3125 1.125,-0.59375 0.453125,-0.390625 0.6875,-0.859375 0.6875,-1.375 C 5.578125,-6.421875 5,-6.890625 4,-6.890625 c -0.015625,0 -0.125,0 -0.265625,0 L 3.09375,-6.875 c -0.109375,0 -0.46875,0 -0.59375,0 -0.1875,0 -0.5,0 -0.984375,-0.015625 H 1 Z m 1.1875,3.234375 h 0.859375 c 1.015625,0 1.515625,0.421875 1.515625,1.28125 0,1.03125 -0.71875,1.765625 -1.71875,1.765625 -0.203125,0 -0.484375,0 -0.8125,-0.03125 C 1.9375,-0.390625 1.8125,-0.40625 1.65625,-0.40625 Z m 0.5625,-3.09375 c 0.109375,0 0.125,0 0.328125,-0.015625 0.21875,-0.015625 0.34375,-0.03125 0.46875,-0.03125 0.796875,0 1.203125,0.359375 1.203125,1.109375 C 4.71875,-4.375 3.984375,-3.75 2.734375,-3.75 H 2.21875 Z m 0,0"
               id="path14" />
          </g>
        </g>
      </defs>
      <g
         fill="#000000"
         fill-opacity="1"
         id="g18"
         transform="translate(-149.302,-127.874)">
        <g
           transform="translate(149.036,134.765)"
           id="g17">
          <path
             d="M 0.96875,-6.625 1.5,-6.59375 c 0.234375,0 0.34375,0.078125 0.34375,0.265625 0,0.140625 -0.046875,0.453125 -0.09375,0.75 l -0.859375,5.03125 c -0.046875,0.171875 -0.15625,0.25 -0.578125,0.3125 L 0.265625,0.03125 0.625,0.015625 C 0.890625,0 1.046875,0 1.171875,0 1.28125,0 1.53125,0.015625 1.796875,0.015625 L 2.15625,0.03125 2.359375,0.046875 c 0.1875,0 0.328125,0.015625 0.40625,0.015625 0.46875,0 0.953125,-0.140625 1.421875,-0.421875 0.78125,-0.46875 1.21875,-1.140625 1.21875,-1.90625 0,-0.421875 -0.125,-0.75 -0.40625,-0.96875 -0.25,-0.21875 -0.546875,-0.296875 -1.234375,-0.40625 0.5625,-0.203125 0.8125,-0.3125 1.125,-0.59375 0.453125,-0.390625 0.6875,-0.859375 0.6875,-1.375 C 5.578125,-6.421875 5,-6.890625 4,-6.890625 c -0.015625,0 -0.125,0 -0.265625,0 L 3.09375,-6.875 c -0.109375,0 -0.46875,0 -0.59375,0 -0.1875,0 -0.5,0 -0.984375,-0.015625 H 1 Z m 1.1875,3.234375 h 0.859375 c 1.015625,0 1.515625,0.421875 1.515625,1.28125 0,1.03125 -0.71875,1.765625 -1.71875,1.765625 -0.203125,0 -0.484375,0 -0.8125,-0.03125 C 1.9375,-0.390625 1.8125,-0.40625 1.65625,-0.40625 Z m 0.5625,-3.09375 c 0.109375,0 0.125,0 0.328125,-0.015625 0.21875,-0.015625 0.34375,-0.03125 0.46875,-0.03125 0.796875,0 1.203125,0.359375 1.203125,1.109375 C 4.71875,-4.375 3.984375,-3.75 2.734375,-3.75 H 2.21875 Z m 0,0"
             id="path16" />
        </g>
      </g>
    </g>
    <g
       transform="matrix(0.529167,0,0,0.529167,124.28619,167.21834)"
       ns1:version="1.10.2"
       ns1:texconverter="pdflatex"
       ns1:pdfconverter="inkscape"
       ns1:text="$C$"
       ns1:preamble="/Users/sachchidanandprasad/Library/Application Support/org.inkscape.Inkscape/config/inkscape/extensions/textext/default_packages.tex"
       ns1:scale="1.5"
       ns1:alignment="middle center"
       ns1:stroke-to-path="0"
       ns1:jacobian_sqrt="0.529167"
       id="g24">
      <defs
         id="defs21">
        <g
           id="g21">
          <g
             id="g20">
            <path
               d="M 5.953125,-5.171875 H 6.21875 c 0.046875,-0.5625 0.125,-1 0.265625,-1.453125 -0.75,-0.296875 -1.328125,-0.40625 -1.9375,-0.40625 -0.8125,0 -1.640625,0.25 -2.328125,0.71875 -1.171875,0.78125 -1.765625,1.953125 -1.765625,3.484375 0,1.9375 1.0625,3 2.96875,3 0.953125,0 1.65625,-0.21875 2.5625,-0.84375 l 0.09375,-0.359375 -0.09375,-0.0625 c -0.9375,0.5625 -1.453125,0.75 -2.234375,0.75 -1.5625,0 -2.421875,-0.96875 -2.421875,-2.734375 0,-1.109375 0.34375,-2.09375 0.9375,-2.71875 0.46875,-0.46875 1.109375,-0.71875 1.90625,-0.71875 0.703125,0 1.21875,0.140625 1.78125,0.5 z m 0,0"
               id="path19" />
          </g>
        </g>
      </defs>
      <g
         fill="#000000"
         fill-opacity="1"
         id="g23"
         transform="translate(-149.25,-127.734)">
        <g
           transform="translate(148.797,134.765)"
           id="g22">
          <path
             d="M 5.953125,-5.171875 H 6.21875 c 0.046875,-0.5625 0.125,-1 0.265625,-1.453125 -0.75,-0.296875 -1.328125,-0.40625 -1.9375,-0.40625 -0.8125,0 -1.640625,0.25 -2.328125,0.71875 -1.171875,0.78125 -1.765625,1.953125 -1.765625,3.484375 0,1.9375 1.0625,3 2.96875,3 0.953125,0 1.65625,-0.21875 2.5625,-0.84375 l 0.09375,-0.359375 -0.09375,-0.0625 c -0.9375,0.5625 -1.453125,0.75 -2.234375,0.75 -1.5625,0 -2.421875,-0.96875 -2.421875,-2.734375 0,-1.109375 0.34375,-2.09375 0.9375,-2.71875 0.46875,-0.46875 1.109375,-0.71875 1.90625,-0.71875 0.703125,0 1.21875,0.140625 1.78125,0.5 z m 0,0"
             id="path21" />
        </g>
      </g>
    </g>
    <path
       style="fill:none;stroke:#000000;stroke-width:0.7;stroke-dasharray:none;marker-end:url(#ArrowWide)"
       d="M 85.173829,136.53781 H 124.58608"
       id="path24" />
    <path
       style="fill:none;stroke:#000000;stroke-width:0.7;stroke-dasharray:2.1, 2.1;stroke-dashoffset:0"
       d="m 94.109986,175.07568 -76.5794,-44.21313"
       id="path36" />
    <g
       transform="matrix(0.529167,0,0,0.529167,102.307,129.546)"
       ns1:version="1.10.2"
       ns1:texconverter="pdflatex"
       ns1:pdfconverter="inkscape"
       ns1:text="$D_2$"
       ns1:preamble="/Users/sachchidanandprasad/Library/Application Support/org.inkscape.Inkscape/config/inkscape/extensions/textext/default_packages.tex"
       ns1:scale="1.5"
       ns1:alignment="middle center"
       ns1:stroke-to-path="0"
       ns1:inkscapeversion="1.4"
       ns1:jacobian_sqrt="0.529167"
       id="g38">
      <defs
         id="id-46f9e129-c274-4860-a46b-6ea81ee49d14">
        <g
           id="id-a316cae1-f030-4a44-b624-66c453936e6f">
          <g
             id="id-fa2f6aa3-7e4a-4df5-9df8-a01e1d8e88c3">
            <path
               d="M 0.328125,-0.234375 0.28125,0.03125 1.203125,0 H 1.75 C 1.9375,0 2.265625,0.015625 2.6875,0.015625 2.890625,0.03125 3.046875,0.03125 3.15625,0.03125 c 0.71875,0 1.203125,-0.109375 1.71875,-0.375 1.5625,-0.796875 2.515625,-2.296875 2.515625,-3.953125 0,-0.984375 -0.296875,-1.671875 -0.90625,-2.109375 -0.46875,-0.328125 -1.3125,-0.5 -2.25,-0.484375 L 2.1875,-6.875 H 2.09375 c -0.09375,0 -0.125,0 -1.125,-0.015625 L 0.9375,-6.625 1.46875,-6.59375 c 0.234375,0 0.34375,0.078125 0.34375,0.265625 0,0.140625 -0.03125,0.453125 -0.09375,0.75 l -0.859375,5.03125 C 0.828125,-0.390625 0.71875,-0.3125 0.40625,-0.25 Z m 2.34375,-6.25 c 0.15625,0 0.203125,0 0.46875,-0.015625 0.3125,-0.015625 0.515625,-0.03125 0.6875,-0.03125 1.8125,0 2.640625,0.765625 2.640625,2.390625 0,1.171875 -0.375,2.21875 -1.0625,2.90625 -0.53125,0.546875 -1.265625,0.828125 -2.125,0.828125 -0.4375,0 -0.921875,-0.046875 -1.609375,-0.15625 0,-0.109375 0.015625,-0.1875 0.046875,-0.359375 z m 0,0"
               id="id-c575516f-a3ec-4ef2-86fa-2493f24ba17c" />
          </g>
          <g
             id="id-838371f8-3f65-413c-aa11-01b5b3ea2761">
            <path
               d="m 0.125,-0.171875 v 0.1875 C 1.53125,0 1.53125,0 1.8125,0 2.078125,0 2.078125,0 3.546875,0.015625 3.53125,-0.140625 3.53125,-0.21875 3.53125,-0.3125 c 0,-0.109375 0,-0.1875 0.015625,-0.34375 -0.875,0.03125 -1.21875,0.046875 -2.625,0.078125 l 1.375,-1.46875 C 3.03125,-2.828125 3.265625,-3.25 3.265625,-3.8125 c 0,-0.875 -0.59375,-1.40625 -1.546875,-1.40625 -0.546875,0 -0.921875,0.15625 -1.296875,0.53125 l -0.125,1.03125 h 0.21875 l 0.09375,-0.359375 c 0.125,-0.4375 0.40625,-0.625 0.90625,-0.625 0.65625,0 1.0625,0.40625 1.0625,1.0625 0,0.5625 -0.3125,1.125 -1.171875,2.03125 z m 0,0"
               id="id-04a24725-833c-475b-a98a-11975ef4d8d9" />
          </g>
        </g>
      </defs>
      <g
         fill="#000000"
         fill-opacity="1"
         id="id-0191aa62-9bdb-4731-b0e3-733e221509ef"
         transform="translate(-149.317,-127.873)">
        <g
           transform="translate(149.036,134.765)"
           id="g36">
          <path
             d="M 0.328125,-0.234375 0.28125,0.03125 1.203125,0 H 1.75 C 1.9375,0 2.265625,0.015625 2.6875,0.015625 2.890625,0.03125 3.046875,0.03125 3.15625,0.03125 c 0.71875,0 1.203125,-0.109375 1.71875,-0.375 1.5625,-0.796875 2.515625,-2.296875 2.515625,-3.953125 0,-0.984375 -0.296875,-1.671875 -0.90625,-2.109375 -0.46875,-0.328125 -1.3125,-0.5 -2.25,-0.484375 L 2.1875,-6.875 H 2.09375 c -0.09375,0 -0.125,0 -1.125,-0.015625 L 0.9375,-6.625 1.46875,-6.59375 c 0.234375,0 0.34375,0.078125 0.34375,0.265625 0,0.140625 -0.03125,0.453125 -0.09375,0.75 l -0.859375,5.03125 C 0.828125,-0.390625 0.71875,-0.3125 0.40625,-0.25 Z m 2.34375,-6.25 c 0.15625,0 0.203125,0 0.46875,-0.015625 0.3125,-0.015625 0.515625,-0.03125 0.6875,-0.03125 1.8125,0 2.640625,0.765625 2.640625,2.390625 0,1.171875 -0.375,2.21875 -1.0625,2.90625 -0.53125,0.546875 -1.265625,0.828125 -2.125,0.828125 -0.4375,0 -0.921875,-0.046875 -1.609375,-0.15625 0,-0.109375 0.015625,-0.1875 0.046875,-0.359375 z m 0,0"
             id="id-2f79e0b1-5c71-4272-b48a-b074f9d3a337" />
        </g>
      </g>
      <g
         fill="#000000"
         fill-opacity="1"
         id="id-d45cae8a-93d2-47a3-86fb-77c86683144e"
         transform="translate(-149.317,-127.873)">
        <g
           transform="translate(156.762,136.509)"
           id="g37">
          <path
             d="m 0.125,-0.171875 v 0.1875 C 1.53125,0 1.53125,0 1.8125,0 2.078125,0 2.078125,0 3.546875,0.015625 3.53125,-0.140625 3.53125,-0.21875 3.53125,-0.3125 c 0,-0.109375 0,-0.1875 0.015625,-0.34375 -0.875,0.03125 -1.21875,0.046875 -2.625,0.078125 l 1.375,-1.46875 C 3.03125,-2.828125 3.265625,-3.25 3.265625,-3.8125 c 0,-0.875 -0.59375,-1.40625 -1.546875,-1.40625 -0.546875,0 -0.921875,0.15625 -1.296875,0.53125 l -0.125,1.03125 h 0.21875 l 0.09375,-0.359375 c 0.125,-0.4375 0.40625,-0.625 0.90625,-0.625 0.65625,0 1.0625,0.40625 1.0625,1.0625 0,0.5625 -0.3125,1.125 -1.171875,2.03125 z m 0,0"
             id="id-18f40cc2-da40-48fb-a525-ff87edd1a9e1" />
        </g>
      </g>
    </g>
  </g>
</svg>
