<?xml version="1.0" encoding="UTF-8" standalone="no"?>
<!-- Created with Inkscape (http://www.inkscape.org/) -->

<svg
   width="143.9586mm"
   height="132.19717mm"
   viewBox="0 0 143.9586 132.19717"
   version="1.1"
   id="svg2606"
   sodipodi:docname="prob-23-05-23_01.svg"
   inkscape:version="1.2.2 (1:1.2.2+202305151914+b0a8486541)"
   xmlns:inkscape="http://www.inkscape.org/namespaces/inkscape"
   xmlns:sodipodi="http://sodipodi.sourceforge.net/DTD/sodipodi-0.dtd"
   xmlns="http://www.w3.org/2000/svg"
   xmlns:svg="http://www.w3.org/2000/svg">
  <sodipodi:namedview
     id="namedview2608"
     pagecolor="#ffffff"
     bordercolor="#999999"
     borderopacity="1"
     inkscape:showpageshadow="0"
     inkscape:pageopacity="0"
     inkscape:pagecheckerboard="0"
     inkscape:deskcolor="#d1d1d1"
     inkscape:document-units="mm"
     showgrid="false"
     inkscape:zoom="1.4142136"
     inkscape:cx="205.41452"
     inkscape:cy="300.87394"
     inkscape:window-width="1920"
     inkscape:window-height="1012"
     inkscape:window-x="0"
     inkscape:window-y="32"
     inkscape:window-maximized="1"
     inkscape:current-layer="layer1" />
  <defs
     id="defs2603">
    <clipPath
       id="clipPath7941">
      <path
         d="M 0,0 H 9.679688 V 10.761719 H 0 Z m 0,0"
         id="path7129" />
    </clipPath>
    <clipPath
       id="clipPath733">
      <path
         d="M 0,0 H 7.894531 V 11.097656 H 0 Z m 0,0"
         id="path6748" />
    </clipPath>
    <clipPath
       id="clipPath9926">
      <path
         d="M 12,1 H 24 V 12.191406 H 12 Z m 0,0"
         id="path811" />
    </clipPath>
    <clipPath
       id="clipPath9517">
      <path
         d="m 36,3 h 5.792969 v 9 H 36 Z m 0,0"
         id="path9739" />
    </clipPath>
  </defs>
  <g
     inkscape:label="Layer 1"
     inkscape:groupmode="layer"
     id="layer1"
     transform="translate(-22.587184,-72.159772)">
    <path
       style="fill:none;stroke:#808080;stroke-width:0.499999;-inkscape-stroke:none;stop-color:#000000"
       d="M 99.888679,76.417121 V 202.97896"
       id="path4445" />
    <path
       style="fill:none;stroke:#808080;stroke-width:0.499999;-inkscape-stroke:none;stop-color:#000000"
       d="M 69.601968,76.417119 V 202.97896"
       id="path4447" />
    <path
       style="fill:none;stroke:#808080;stroke-width:0.499999;-inkscape-stroke:none;stop-color:#000000"
       d="M 130.57501,76.417119 V 202.97896"
       id="path4449" />
    <path
       style="fill:none;stroke:#808080;stroke-width:0.499999;-inkscape-stroke:none;stop-color:#000000"
       d="M 163.36941,139.49823 H 36.80757"
       id="path4465" />
    <path
       style="fill:none;stroke:#808080;stroke-width:0.499999;-inkscape-stroke:none;stop-color:#000000"
       d="M 163.36941,109.21152 H 36.80757"
       id="path4467" />
    <path
       style="fill:none;stroke:#808080;stroke-width:0.499999;-inkscape-stroke:none;stop-color:#000000"
       d="M 163.36941,170.18456 H 36.80757"
       id="path4469" />
    <g
       id="g5588">
      <path
         style="color:#000000;fill:#000000;stroke-linecap:round;-inkscape-stroke:none"
         d="m 37.03125,75.060547 a 0.24999949,0.24999949 0 0 0 -0.25,0.25 V 202.95703 a 0.24999949,0.24999949 0 0 0 0.25,0.25 0.24999949,0.24999949 0 0 0 0.25,-0.25 V 75.310547 a 0.24999949,0.24999949 0 0 0 -0.25,-0.25 z"
         id="path5580" />
      <g
         id="g5574"
         style="fill:#000000">
        <path
           d="m 35.631188,76.009765 1.399997,-3.849993 1.399997,3.849993 c -0.815498,-0.699999 -1.980996,-0.699999 -2.799994,0 z"
           style="fill:#000000;fill-rule:evenodd;stroke-width:0.349999"
           id="path5576" />
      </g>
    </g>
    <g
       id="g5566">
      <path
         style="color:#000000;fill:#000000;stroke-linecap:round;-inkscape-stroke:none"
         d="m 37.03125,202.70703 a 0.24999949,0.24999949 0 0 0 -0.25,0.25 0.24999949,0.24999949 0 0 0 0.25,0.25 H 165.8457 a 0.24999949,0.24999949 0 0 0 0.25,-0.25 0.24999949,0.24999949 0 0 0 -0.25,-0.25 z"
         id="path5552" />
      <g
         id="g5546"
         style="fill:#000000"
         transform="matrix(-1,0,0,1,329.24157,0)">
        <path
           d="m 166.54578,204.35695 -3.84999,-1.4 3.84999,-1.4 c -0.7,0.8155 -0.7,1.981 0,2.8 z"
           style="fill:#000000;fill-rule:evenodd;stroke-width:0.349999"
           id="path5548" />
      </g>
    </g>
    <g
       id="path5720">
      <path
         style="color:#000000;fill:#d4aa00;stroke-linecap:round;-inkscape-stroke:none"
         d="m 69.685547,108.97461 a 0.24999949,0.24999949 0 0 0 -0.320313,0.1543 L 54.998047,150.16797 36.794922,202.875 a 0.24999949,0.24999949 0 0 0 0.154297,0.31836 0.24999949,0.24999949 0 0 0 0.318359,-0.1543 l 18.203125,-52.70508 14.367188,-41.03906 a 0.24999949,0.24999949 0 0 0 -0.152344,-0.32031 z"
         id="path6300" />
      <g
         id="g6269">
        <g
           id="path6271">
          <path
             style="color:#000000;fill:#d4aa00;fill-rule:evenodd;stroke-width:0.249999pt;-inkscape-stroke:none"
             d="m 55.726524,148.83422 c -0.0102,0.7905 0.133622,1.89924 0.441664,2.53572 0,0 -0.944523,-0.32844 -1.016434,-0.88281 -0.400351,0.39015 -1.344873,0.0617 -1.344873,0.0617 0.636481,-0.30804 1.437182,-1.08834 1.919643,-1.71462 z"
             id="path6297" />
          <path
             style="color:#000000;fill:#d4aa00;fill-rule:evenodd;-inkscape-stroke:none"
             d="m 55.892578,148.3457 -0.298828,0.38672 c -0.468899,0.60868 -1.272901,1.38218 -1.859375,1.66602 l -0.361328,0.17578 0.378906,0.13281 c 0,0 0.251645,0.0873 0.558594,0.12305 0.252483,0.0294 0.539305,-0.041 0.787109,-0.1836 0.106502,0.26395 0.286553,0.49781 0.501953,0.63086 0.262914,0.1624 0.513672,0.25 0.513672,0.25 l 0.38086,0.13282 -0.175782,-0.36329 c -0.283839,-0.58647 -0.435694,-1.69265 -0.425781,-2.46093 v -0.002 z m -0.275391,0.80664 c 0.01946,0.64668 0.131691,1.34578 0.337891,1.92969 -0.07538,-0.0352 -0.08836,-0.0315 -0.179687,-0.0879 -0.227326,-0.14041 -0.434464,-0.34026 -0.458985,-0.5293 l -0.04297,-0.33007 -0.238281,0.23242 c -0.136515,0.13303 -0.4221,0.16178 -0.6875,0.13086 -0.106566,-0.0124 -0.114408,-0.0238 -0.195312,-0.043 0.524148,-0.33005 1.048282,-0.80751 1.464843,-1.30274 z"
             id="path6294" />
        </g>
      </g>
    </g>
    <g
       id="path5944">
      <path
         style="color:#000000;fill:#008080;stroke-linecap:round;-inkscape-stroke:none"
         d="m 69.574219,108.96289 c -6.122686,0.68235 -9.606334,4.81932 -12.388672,9.95508 -2.782338,5.13575 -4.910104,11.2965 -8.353516,16.18359 -6.780904,9.62387 -17.78136,21.51844 -23.132812,33.57422 -2.675727,6.02789 -3.941287,12.10984 -2.525391,17.9668 1.415896,5.85696 5.513958,11.4608 13.472656,16.52539 a 0.24999949,0.24999949 0 0 0 0.345703,-0.0762 0.24999949,0.24999949 0 0 0 -0.07617,-0.34571 c -7.883585,-5.01679 -11.874547,-10.50679 -13.25586,-16.2207 -1.381313,-5.71391 -0.152751,-11.67915 2.496094,-17.64648 5.29769,-11.93467 16.268385,-23.81517 23.083984,-33.48829 3.501193,-4.9691 5.631604,-11.15247 8.384766,-16.23437 2.753162,-5.0819 6.080334,-9.03515 12.003906,-9.69531 a 0.24999949,0.24999949 0 0 0 0.220703,-0.27735 0.24999949,0.24999949 0 0 0 -0.27539,-0.2207 z"
         id="path6318" />
      <g
         id="g6308">
        <g
           id="path6310">
          <path
             style="color:#000000;fill:#008080;fill-rule:evenodd;stroke-width:0.249999pt;-inkscape-stroke:none"
             d="m 49.899484,134.02002 c -0.227618,0.75709 -0.394864,1.86254 -0.274122,2.55926 0,0 -0.817463,-0.57598 -0.733839,-1.1287 -0.492355,0.26473 -1.309818,-0.31125 -1.309818,-0.31125 0.69672,-0.12074 1.68143,-0.65021 2.317779,-1.11931 z"
             id="path6314" />
          <path
             style="color:#000000;fill:#008080;fill-rule:evenodd;-inkscape-stroke:none"
             d="m 50.203125,133.58984 -0.402344,0.29688 c -0.618461,0.45591 -1.606067,0.97664 -2.248047,1.08789 l -0.396484,0.0684 0.330078,0.23242 c 0,0 0.21674,0.15448 0.501953,0.27344 0.234194,0.0977 0.529553,0.10919 0.806641,0.041 0.02966,0.28306 0.138198,0.5569 0.308594,0.74414 0.207989,0.22856 0.425781,0.38086 0.425781,0.38086 l 0.328125,0.23243 -0.06836,-0.39649 c -0.111255,-0.64198 0.04831,-1.74661 0.269532,-2.48242 z m -0.496094,0.70508 c -0.159721,0.62757 -0.24457,1.33055 -0.207031,1.94922 -0.06305,-0.0547 -0.07765,-0.0548 -0.150391,-0.13477 -0.179835,-0.19761 -0.321483,-0.44629 -0.292968,-0.63476 l 0.04883,-0.32813 -0.292969,0.15821 c -0.167888,0.0903 -0.450659,0.0384 -0.697266,-0.0645 -0.100112,-0.0418 -0.104846,-0.0546 -0.177734,-0.0957 0.595754,-0.17278 1.231858,-0.48764 1.769531,-0.84961 z"
             id="path6316" />
        </g>
      </g>
    </g>
    <g
       id="path6135">
      <path
         style="color:#000000;fill:#2a7fff;stroke-linecap:round;-inkscape-stroke:none"
         d="m 69.75,109.00977 a 0.24999949,0.24999949 0 0 0 -0.349609,0.0527 0.24999949,0.24999949 0 0 0 0.05273,0.34961 c 4.381256,3.24088 13.824224,7.11083 22.728516,11.08984 4.452145,1.98951 8.765413,4.00185 12.224613,5.95703 3.4592,1.95519 6.06104,3.87387 7.08008,5.57227 2.70222,4.50369 1.43046,8.92795 -1.07227,13.07812 -2.50273,4.15018 -6.23847,7.95794 -8.38086,11.11524 -2.964476,4.36883 -4.060722,9.09543 -5.410157,13.7793 -1.349436,4.68386 -2.945067,9.32435 -6.875,13.60156 -7.030798,7.65208 -16.085162,9.90375 -25.509766,11.5039 -9.424604,1.60016 -19.208156,2.53697 -27.58789,7.63477 a 0.24999949,0.24999949 0 0 0 -0.08203,0.34375 0.24999949,0.24999949 0 0 0 0.34375,0.082 c 8.255058,-5.02195 17.961334,-5.96409 27.410157,-7.56836 9.448822,-1.60427 18.652384,-3.88255 25.794921,-11.65625 4.006374,-4.3604 5.63219,-9.10255 6.986329,-13.80273 1.354138,-4.70019 2.441272,-9.35925 5.343756,-13.63672 2.09506,-3.08756 5.84834,-6.91643 8.39453,-11.13867 2.54618,-4.22224 3.88528,-8.9054 1.07226,-13.59375 -1.12356,-1.87261 -3.77549,-3.77759 -7.26172,-5.74805 -3.48622,-1.97046 -7.81063,-3.98686 -12.267576,-5.97851 C 83.470873,116.06357 74.006711,112.15852 69.75,109.00977 Z"
         id="path6473" />
      <g
         id="g6447">
        <g
           id="path6465">
          <path
             style="color:#000000;fill:#2a7fff;fill-rule:evenodd;stroke-width:0.249999pt;-inkscape-stroke:none"
             d="m 110.92822,130.61577 c 0.60024,0.5145 1.54348,1.11474 2.22948,1.28624 0,0 -0.8575,0.51449 -1.32912,0.21437 0.0429,0.55737 -0.81461,1.07187 -0.81461,1.07187 0.1715,-0.686 0.0858,-1.80073 -0.0858,-2.57248 z"
             id="path6469" />
          <path
             style="color:#000000;fill:#2a7fff;fill-rule:evenodd;-inkscape-stroke:none"
             d="m 110.7207,130.44922 0.0449,0.20312 c 0.16677,0.75004 0.24396,1.86399 0.0859,2.4961 l -0.0977,0.39062 0.3457,-0.20703 c 0,0 0.22894,-0.13692 0.45312,-0.34961 0.18377,-0.17434 0.31115,-0.44037 0.36133,-0.7207 0.27143,0.0885 0.56778,0.0978 0.8086,0.0176 0.29316,-0.0977 0.52148,-0.23438 0.52148,-0.23438 l 0.34375,-0.20703 -0.39062,-0.0977 c -0.63211,-0.15802 -1.57679,-0.75191 -2.16016,-1.25195 l -0.0469,-0.0391 h -0.0625 z m 0.38086,0.45508 c 0.50868,0.39947 1.11694,0.76044 1.69727,0.97656 -0.0751,0.0352 -0.0803,0.0482 -0.18164,0.082 -0.25349,0.0845 -0.5384,0.11601 -0.69922,0.0137 l -0.28125,-0.17969 0.0254,0.33204 c 0.0146,0.19005 -0.146,0.42742 -0.33984,0.61132 -0.0779,0.0739 -0.0916,0.0732 -0.15821,0.12305 0.0828,-0.61413 0.0508,-1.32145 -0.0625,-1.95898 z"
             id="path6471" />
        </g>
        <g
           id="path6457">
          <path
             style="color:#000000;fill:#2a7fff;fill-rule:evenodd;stroke-width:0.249999pt;-inkscape-stroke:none"
             d="m 103.08324,155.12409 c -0.21424,0.76098 -0.36199,1.86921 -0.22899,2.56369 0,0 -0.82749,-0.56149 -0.75361,-1.1156 -0.48762,0.27337 -1.3151,-0.28812 -1.3151,-0.28812 0.69449,-0.133 1.66972,-0.67973 2.2977,-1.15997 z"
             id="path6461" />
          <path
             style="color:#000000;fill:#2a7fff;fill-rule:evenodd;-inkscape-stroke:none"
             d="m 103.37891,154.6875 -0.39649,0.30469 c -0.61032,0.46674 -1.58859,1.00635 -2.22851,1.1289 l -0.39453,0.0742 0.33203,0.22656 c 0,0 0.22054,0.14977 0.50781,0.26368 0.23586,0.0935 0.53081,0.0984 0.80664,0.0254 0.0338,0.28367 0.14803,0.55542 0.32227,0.74023 0.21198,0.22486 0.43164,0.375 0.43164,0.375 l 0.33398,0.22461 -0.0762,-0.39453 c -0.12255,-0.63991 0.0183,-1.74674 0.22656,-2.48633 z m -0.48438,0.71484 c -0.14854,0.63034 -0.22043,1.33546 -0.17187,1.95313 -0.064,-0.0536 -0.0782,-0.0542 -0.15235,-0.13281 -0.18329,-0.19442 -0.32988,-0.43997 -0.30468,-0.62891 l 0.0449,-0.33008 -0.29102,0.16406 c -0.16627,0.0932 -0.44888,0.0458 -0.69726,-0.0527 -0.10048,-0.0398 -0.10622,-0.0521 -0.17969,-0.0918 0.59216,-0.18325 1.22109,-0.50981 1.75195,-0.88086 z"
             id="path6463" />
        </g>
        <g
           id="path6449">
          <path
             style="color:#000000;fill:#2a7fff;fill-rule:evenodd;stroke-width:0.249999pt;-inkscape-stroke:none"
             d="m 90.94709,182.67084 c -0.323344,0.72142 -0.63174,1.79608 -0.601846,2.50255 0,0 -0.736367,-0.67658 -0.582169,-1.21391 -0.522381,0.19904 -1.258748,-0.47754 -1.258748,-0.47754 0.706473,-0.0299 1.751236,-0.42797 2.442763,-0.8111 z"
             id="path6453" />
          <path
             style="color:#000000;fill:#2a7fff;fill-rule:evenodd;-inkscape-stroke:none"
             d="m 91.302734,182.2832 -0.435547,0.24219 c -0.672087,0.37236 -1.718171,0.76151 -2.36914,0.78906 l -0.402344,0.0176 0.294922,0.27344 c 0,0 0.195397,0.17925 0.462891,0.33398 0.219509,0.12698 0.511534,0.1762 0.794921,0.14453 -0.0078,0.28529 0.06576,0.57115 0.210938,0.7793 0.176781,0.25347 0.373047,0.43359 0.373047,0.43359 l 0.296875,0.27149 -0.01758,-0.40234 c -0.02755,-0.65097 0.273636,-1.7266 0.58789,-2.42774 z m -0.582031,0.63477 c -0.239661,0.60244 -0.414744,1.28925 -0.457031,1.9082 -0.05557,-0.0625 -0.06885,-0.0654 -0.13086,-0.1543 -0.152852,-0.21915 -0.261564,-0.48279 -0.208984,-0.66601 l 0.0918,-0.32031 -0.3125,0.11914 c -0.178127,0.0679 -0.450356,-0.0205 -0.681641,-0.1543 -0.09287,-0.0537 -0.09548,-0.0674 -0.162109,-0.11719 0.612665,-0.0948 1.282071,-0.32591 1.861328,-0.61523 z"
             id="path6455" />
        </g>
      </g>
    </g>
    <g
       inkscape:label=""
       transform="translate(94.008971,161.94872)"
       id="g6942"
       style="fill:#2a7fff;fill-opacity:1">
      <g
         id="surface1"
         transform="matrix(0.352778,0,0,0.352778,-0.115755,0.0637645)"
         style="fill:#2a7fff;fill-opacity:1">
        <g
           clip-path="url(#clipPath7941)"
           clip-rule="nonzero"
           id="g19"
           style="fill:#2a7fff;fill-opacity:1">
          <g
             style="fill:#2a7fff;fill-opacity:1"
             id="g17">
            <g
               id="use15"
               transform="translate(0,7.4130001)"
               style="fill:#2a7fff;fill-opacity:1">
              <path
                 style="fill:#2a7fff;fill-opacity:1;stroke:none"
                 d="M 6.515625,-2.09375 C 6.46875,-2.9375 6.4375,-4.265625 5.78125,-5.8125 5.4375,-6.6875 4.859375,-7.59375 3.59375,-7.59375 c -2.109375,0 -3.265625,2.703125 -3.265625,3.15625 0,0.15625 0.125,0.15625 0.171875,0.15625 0.15625,0 0.15625,-0.046875 0.234375,-0.265625 0.375,-1.0625 1.46875,-1.90625 2.65625,-1.90625 2.390625,0 2.734375,2.671875 2.734375,4.375 0,1.078125 -0.109375,1.4375 -0.21875,1.78125 -0.328125,1.078125 -0.890625,3.203125 -0.890625,3.6875 0,0.140625 0.046875,0.296875 0.1875,0.296875 0.25,0 0.40625,-0.578125 0.59375,-1.265625 C 6.21875,0.90625 6.3125,0.15625 6.40625,-0.53125 c 0.046875,-0.421875 1.03125,-3.25 2.390625,-5.953125 0.125,-0.28125 0.359375,-0.75 0.359375,-0.796875 0,-0.015625 -0.015625,-0.140625 -0.171875,-0.140625 -0.03125,0 -0.109375,0 -0.15625,0.0625 -0.03125,0.046875 -0.625,1.21875 -1.15625,2.390625 -0.25,0.578125 -0.59375,1.359375 -1.15625,2.875 z m 0,0"
                 id="path26" />
            </g>
          </g>
        </g>
      </g>
    </g>
    <g
       inkscape:label=""
       transform="translate(52.644813,161.32085)"
       id="g7327"
       style="fill:#d4aa00;fill-opacity:0.980392">
      <g
         id="g7325"
         transform="matrix(0.352778,0,0,0.352778,-0.115755,0.0637645)"
         style="fill:#d4aa00;fill-opacity:0.980392">
        <g
           clip-path="url(#clipPath7941)"
           clip-rule="nonzero"
           id="g7323"
           style="fill:#d4aa00;fill-opacity:0.980392">
          <g
             style="fill:#d4aa00;fill-opacity:0.980392"
             id="g7321">
            <g
               id="g7319"
               transform="translate(0,7.4130001)"
               style="fill:#d4aa00;fill-opacity:0.980392">
              <path
                 style="fill:#d4aa00;fill-opacity:0.980392;stroke:none"
                 d="M 6.515625,-2.09375 C 6.46875,-2.9375 6.4375,-4.265625 5.78125,-5.8125 5.4375,-6.6875 4.859375,-7.59375 3.59375,-7.59375 c -2.109375,0 -3.265625,2.703125 -3.265625,3.15625 0,0.15625 0.125,0.15625 0.171875,0.15625 0.15625,0 0.15625,-0.046875 0.234375,-0.265625 0.375,-1.0625 1.46875,-1.90625 2.65625,-1.90625 2.390625,0 2.734375,2.671875 2.734375,4.375 0,1.078125 -0.109375,1.4375 -0.21875,1.78125 -0.328125,1.078125 -0.890625,3.203125 -0.890625,3.6875 0,0.140625 0.046875,0.296875 0.1875,0.296875 0.25,0 0.40625,-0.578125 0.59375,-1.265625 C 6.21875,0.90625 6.3125,0.15625 6.40625,-0.53125 c 0.046875,-0.421875 1.03125,-3.25 2.390625,-5.953125 0.125,-0.28125 0.359375,-0.75 0.359375,-0.796875 0,-0.015625 -0.015625,-0.140625 -0.171875,-0.140625 -0.03125,0 -0.109375,0 -0.15625,0.0625 -0.03125,0.046875 -0.625,1.21875 -1.15625,2.390625 -0.25,0.578125 -0.59375,1.359375 -1.15625,2.875 z m 0,0"
                 id="path7317" />
            </g>
          </g>
        </g>
      </g>
    </g>
    <g
       inkscape:label=""
       transform="translate(43.143372,143.96005)"
       id="g7339"
       style="fill:#008080;fill-opacity:0.756863">
      <g
         id="g7337"
         transform="matrix(0.352778,0,0,0.352778,-0.115755,0.0637645)"
         style="fill:#008080;fill-opacity:0.756863">
        <g
           clip-path="url(#clipPath7941)"
           clip-rule="nonzero"
           id="g7335"
           style="fill:#008080;fill-opacity:0.756863">
          <g
             style="fill:#008080;fill-opacity:0.756863"
             id="g7333">
            <g
               id="g7331"
               transform="translate(0,7.4130001)"
               style="fill:#008080;fill-opacity:0.756863">
              <path
                 style="fill:#008080;fill-opacity:0.756863;stroke:none"
                 d="M 6.515625,-2.09375 C 6.46875,-2.9375 6.4375,-4.265625 5.78125,-5.8125 5.4375,-6.6875 4.859375,-7.59375 3.59375,-7.59375 c -2.109375,0 -3.265625,2.703125 -3.265625,3.15625 0,0.15625 0.125,0.15625 0.171875,0.15625 0.15625,0 0.15625,-0.046875 0.234375,-0.265625 0.375,-1.0625 1.46875,-1.90625 2.65625,-1.90625 2.390625,0 2.734375,2.671875 2.734375,4.375 0,1.078125 -0.109375,1.4375 -0.21875,1.78125 -0.328125,1.078125 -0.890625,3.203125 -0.890625,3.6875 0,0.140625 0.046875,0.296875 0.1875,0.296875 0.25,0 0.40625,-0.578125 0.59375,-1.265625 C 6.21875,0.90625 6.3125,0.15625 6.40625,-0.53125 c 0.046875,-0.421875 1.03125,-3.25 2.390625,-5.953125 0.125,-0.28125 0.359375,-0.75 0.359375,-0.796875 0,-0.015625 -0.015625,-0.140625 -0.171875,-0.140625 -0.03125,0 -0.109375,0 -0.15625,0.0625 -0.03125,0.046875 -0.625,1.21875 -1.15625,2.390625 -0.25,0.578125 -0.59375,1.359375 -1.15625,2.875 z m 0,0"
                 id="path7329" />
            </g>
          </g>
        </g>
      </g>
    </g>
    <path
       style="color:#000000;fill:#ff00ff;stroke-linecap:round;-inkscape-stroke:none"
       d="m 69.574219,108.71289 a 0.24999949,0.24999949 0 0 0 -0.25,0.25 l 0.01367,46.20117 0.01367,47.29492 -32.572265,0.24805 a 0.24999949,0.24999949 0 0 0 -0.248047,0.25195 0.24999949,0.24999949 0 0 0 0.251953,0.24805 l 33.068359,-0.25195 -0.01367,-47.79102 -0.01367,-46.20117 a 0.24999949,0.24999949 0 0 0 -0.25,-0.25 z"
       id="path9035" />
    <g
       id="path9027">
      <path
         style="color:#000000;fill:#ff00ff;fill-rule:evenodd;stroke-width:0.249999pt;-inkscape-stroke:none"
         d="m 69.587454,153.66427 c 0.250221,0.74993 0.750516,1.74978 1.250663,2.24963 0,0 -0.999998,2.9e-4 -1.250145,-0.49963 -0.249851,0.50007 -1.249849,0.50037 -1.249849,0.50037 0.499851,-0.50015 0.999554,-1.50029 1.249331,-2.25037 z"
         id="path9031" />
      <path
         style="color:#000000;fill:#ff00ff;fill-rule:evenodd;-inkscape-stroke:none"
         d="m 69.587891,153.13672 -0.158204,0.47461 c -0.242755,0.72899 -0.748404,1.72469 -1.208984,2.18554 l -0.285156,0.28516 h 0.402344 c 0,0 0.266713,7.2e-4 0.568359,-0.0664 0.247795,-0.0551 0.494473,-0.21801 0.681641,-0.43359 0.187293,0.21553 0.435733,0.37664 0.683593,0.43164 0.301686,0.067 0.566407,0.0664 0.566407,0.0664 h 0.402343 l -0.285156,-0.28321 c -0.460851,-0.46057 -0.965797,-1.45669 -1.208984,-2.18554 z m 0,0.86328 c 0.231179,0.60513 0.567772,1.22894 0.955078,1.71289 -0.08291,-0.008 -0.09407,-10e-5 -0.199219,-0.0234 -0.26085,-0.0579 -0.522125,-0.17914 -0.607422,-0.34961 l -0.148437,-0.29882 -0.148438,0.29882 c -0.0852,0.17052 -0.344653,0.29157 -0.605469,0.34961 -0.105744,0.0235 -0.118,0.015 -0.201172,0.0234 0.386711,-0.48417 0.72443,-1.10803 0.955079,-1.71289 z"
         id="path9033" />
    </g>
    <circle
       id="circle5590"
       style="fill:#800000;stroke:none;stroke-width:0.529167"
       cx="37.117592"
       cy="202.70703"
       r="1.5" />
    <circle
       id="path5538"
       style="fill:#800000;stroke:none;stroke-width:0.529167"
       cx="69.601967"
       cy="109.21152"
       r="1.5" />
    <g
       inkscape:label=""
       transform="translate(70.466193,146.3187)"
       id="g9061"
       style="fill:#ff00ff;fill-opacity:1">
      <g
         id="g9059"
         transform="matrix(0.352778,0,0,0.352778,-0.115755,0.0637645)"
         style="fill:#ff00ff;fill-opacity:1">
        <g
           clip-path="url(#clipPath7941)"
           clip-rule="nonzero"
           id="g9057"
           style="fill:#ff00ff;fill-opacity:1">
          <g
             style="fill:#ff00ff;fill-opacity:1"
             id="g9055">
            <g
               id="g9053"
               transform="translate(0,7.4130001)"
               style="fill:#ff00ff;fill-opacity:1">
              <path
                 style="fill:#ff00ff;fill-opacity:1;stroke:none"
                 d="M 6.515625,-2.09375 C 6.46875,-2.9375 6.4375,-4.265625 5.78125,-5.8125 5.4375,-6.6875 4.859375,-7.59375 3.59375,-7.59375 c -2.109375,0 -3.265625,2.703125 -3.265625,3.15625 0,0.15625 0.125,0.15625 0.171875,0.15625 0.15625,0 0.15625,-0.046875 0.234375,-0.265625 0.375,-1.0625 1.46875,-1.90625 2.65625,-1.90625 2.390625,0 2.734375,2.671875 2.734375,4.375 0,1.078125 -0.109375,1.4375 -0.21875,1.78125 -0.328125,1.078125 -0.890625,3.203125 -0.890625,3.6875 0,0.140625 0.046875,0.296875 0.1875,0.296875 0.25,0 0.40625,-0.578125 0.59375,-1.265625 C 6.21875,0.90625 6.3125,0.15625 6.40625,-0.53125 c 0.046875,-0.421875 1.03125,-3.25 2.390625,-5.953125 0.125,-0.28125 0.359375,-0.75 0.359375,-0.796875 0,-0.015625 -0.015625,-0.140625 -0.171875,-0.140625 -0.03125,0 -0.109375,0 -0.15625,0.0625 -0.03125,0.046875 -0.625,1.21875 -1.15625,2.390625 -0.25,0.578125 -0.59375,1.359375 -1.15625,2.875 z m 0,0"
                 id="path9051" />
            </g>
          </g>
        </g>
      </g>
    </g>
    <g
       inkscape:label=""
       transform="translate(30.484815,200.18183)"
       id="g11785">
      <g
         id="g11783"
         transform="matrix(0.352778,0,0,0.352778,-0.23151,0.0980722)">
        <g
           clip-path="url(#clipPath733)"
           clip-rule="nonzero"
           id="g11781">
          <g
             style="fill:#000000;fill-opacity:1"
             id="g11779">
            <g
               id="g11777"
               transform="translate(0,11.097)">
              <path
                 style="stroke:none"
                 d="m 7.234375,-5.53125 c 0,-1.046875 -0.015625,-2.84375 -0.75,-4.21875 -0.625,-1.203125 -1.640625,-1.625 -2.546875,-1.625 -0.828125,0 -1.875,0.375 -2.53125,1.609375 -0.6875,1.296875 -0.75,2.890625 -0.75,4.234375 0,0.984375 0.015625,2.484375 0.546875,3.796875 0.75,1.765625 2.0625,2.015625 2.734375,2.015625 0.796875,0 2,-0.328125 2.703125,-1.96875 0.515625,-1.1875 0.59375,-2.578125 0.59375,-3.84375 z M 3.9375,0 C 2.84375,0 2.1875,-0.953125 1.953125,-2.25 1.75,-3.265625 1.75,-4.75 1.75,-5.71875 c 0,-1.328125 0,-2.421875 0.234375,-3.46875 0.328125,-1.46875 1.28125,-1.921875 1.953125,-1.921875 0.71875,0 1.625,0.46875 1.953125,1.875 C 6.109375,-8.25 6.125,-7.09375 6.125,-5.71875 c 0,1.125 0,2.5 -0.203125,3.515625 C 5.5625,-0.328125 4.546875,0 3.9375,0 Z m 0,0"
                 id="path11775" />
            </g>
          </g>
        </g>
      </g>
    </g>
    <g
       inkscape:label=""
       transform="translate(71.074363,102.24336)"
       id="g12048">
      <g
         id="g12046"
         transform="matrix(0.352778,0,0,0.352778,-0.529167,0.0980722)">
        <g
           style="fill:#000000;fill-opacity:1"
           id="g32">
          <g
             id="use30"
             transform="translate(0,11.097)">
            <path
               style="stroke:none"
               d="m 4.578125,-11 c 0,-0.359375 -0.015625,-0.375 -0.25,-0.375 -0.671875,0.796875 -1.6875,1.0625 -2.65625,1.09375 -0.046875,0 -0.140625,0 -0.15625,0.03125 C 1.5,-10.203125 1.5,-10.171875 1.5,-9.8125 c 0.53125,0 1.421875,-0.109375 2.109375,-0.515625 V -1.25 c 0,0.59375 -0.03125,0.796875 -1.515625,0.796875 H 1.578125 V 0 c 0.828125,-0.015625 1.6875,-0.03125 2.515625,-0.03125 0.828125,0 1.6875,0.015625 2.515625,0.03125 V -0.453125 H 6.09375 c -1.484375,0 -1.515625,-0.1875 -1.515625,-0.796875 z m 0,0"
               id="path55" />
          </g>
        </g>
        <g
           clip-path="url(#clipPath9926)"
           clip-rule="nonzero"
           id="g38">
          <g
             style="fill:#000000;fill-opacity:1"
             id="g36">
            <g
               id="use34"
               transform="translate(11.716801,11.097)">
              <path
                 style="stroke:none"
                 d="m 6.484375,-4 h 4.5625 c 0.25,0 0.546875,0 0.546875,-0.28125 0,-0.3125 -0.28125,-0.3125 -0.546875,-0.3125 h -4.5625 v -4.5625 c 0,-0.25 0,-0.53125 -0.28125,-0.53125 -0.3125,0 -0.3125,0.265625 -0.3125,0.53125 v 4.5625 h -4.5625 c -0.25,0 -0.53125,0 -0.53125,0.28125 C 0.796875,-4 1.0625,-4 1.328125,-4 h 4.5625 v 4.5625 c 0,0.25 0,0.546875 0.296875,0.546875 0.296875,0 0.296875,-0.28125 0.296875,-0.546875 z m 0,0"
                 id="path59" />
            </g>
          </g>
        </g>
        <g
           style="fill:#000000;fill-opacity:1"
           id="g42">
          <g
             id="use40"
             transform="translate(27.930265,11.097)">
            <path
               style="stroke:none"
               d="m 3.8125,-5.859375 c 1.53125,0 2.203125,1.328125 2.203125,2.859375 0,2.0625 -1.109375,2.859375 -2.109375,2.859375 C 3,-0.140625 1.515625,-0.578125 1.046875,-1.90625 1.140625,-1.875 1.21875,-1.875 1.3125,-1.875 c 0.40625,0 0.71875,-0.28125 0.71875,-0.71875 0,-0.5 -0.375,-0.734375 -0.71875,-0.734375 -0.296875,0 -0.75,0.140625 -0.75,0.78125 0,1.578125 1.5625,2.828125 3.375,2.828125 1.921875,0 3.375,-1.5 3.375,-3.265625 0,-1.671875 -1.375,-2.875 -3,-3.0625 1.296875,-0.265625 2.5625,-1.4375 2.5625,-3.015625 0,-1.34375 -1.359375,-2.3125 -2.921875,-2.3125 -1.5625,0 -2.9375,0.953125 -2.9375,2.328125 0,0.609375 0.453125,0.71875 0.671875,0.71875 0.359375,0 0.671875,-0.234375 0.671875,-0.671875 0,-0.453125 -0.3125,-0.671875 -0.671875,-0.671875 -0.0625,0 -0.15625,0 -0.21875,0.03125 0.5,-1.140625 1.859375,-1.34375 2.453125,-1.34375 0.609375,0 1.75,0.296875 1.75,1.9375 0,0.484375 -0.078125,1.34375 -0.65625,2.109375 C 4.5,-6.265625 3.90625,-6.234375 3.34375,-6.1875 c -0.09375,0 -0.484375,0.046875 -0.546875,0.046875 -0.125,0.015625 -0.203125,0.03125 -0.203125,0.15625 0,0.109375 0.03125,0.125 0.375,0.125 z m 0,0"
               id="path63" />
          </g>
        </g>
        <g
           clip-path="url(#clipPath9517)"
           clip-rule="nonzero"
           id="g48">
          <g
             style="fill:#000000;fill-opacity:1"
             id="g46">
            <g
               id="use44"
               transform="translate(35.834,11.097)">
              <path
                 style="stroke:none"
                 d="m 5.453125,-2.46875 c 0,-0.078125 -0.0625,-0.15625 -0.171875,-0.15625 -0.140625,0 -0.171875,0.078125 -0.21875,0.234375 -0.546875,1.671875 -1.953125,2.21875 -2.671875,2.21875 -0.203125,0 -0.46875,-0.03125 -0.46875,-0.5625 0,-0.421875 0.203125,-0.9375 0.28125,-1.171875 C 3.0625,-4.25 3.71875,-7.03125 3.71875,-7.15625 3.71875,-7.4375 3.5,-7.59375 3.265625,-7.59375 3,-7.59375 2.75,-7.421875 2.65625,-7.140625 2.53125,-6.8125 2.359375,-5.984375 2.25,-5.671875 2.234375,-5.59375 1.8125,-4.03125 1.734375,-3.828125 1.625,-3.375 1.640625,-3.515625 1.515625,-3.078125 1.359375,-2.484375 0.96875,-1.8125 0.96875,-1.21875 c 0,0.671875 0.421875,1.390625 1.390625,1.390625 1.90625,0 3.09375,-2.0625 3.09375,-2.640625 z m 0,0"
                 id="path67" />
            </g>
          </g>
        </g>
      </g>
    </g>
  </g>
</svg>
