<?xml version="1.0" encoding="UTF-8" standalone="no"?>
<!-- Created with Inkscape (http://www.inkscape.org/) -->

<svg
   width="96.764488mm"
   height="92.590195mm"
   viewBox="0 0 96.764488 92.590196"
   version="1.1"
   id="svg1"
   inkscape:version="1.4.2 (ebf0e940, 2025-05-08)"
   sodipodi:docname="prob-05-02-26_01.svg"
   xmlns:inkscape="http://www.inkscape.org/namespaces/inkscape"
   xmlns:sodipodi="http://sodipodi.sourceforge.net/DTD/sodipodi-0.dtd"
   xmlns="http://www.w3.org/2000/svg"
   xmlns:svg="http://www.w3.org/2000/svg"
   xmlns:ns1="http://www.iki.fi/pav/software/textext/">
  <sodipodi:namedview
     id="namedview1"
     pagecolor="#ffffff"
     bordercolor="#000000"
     borderopacity="0.25"
     inkscape:showpageshadow="2"
     inkscape:pageopacity="0.0"
     inkscape:pagecheckerboard="0"
     inkscape:deskcolor="#d1d1d1"
     inkscape:document-units="mm"
     inkscape:zoom="1"
     inkscape:cx="283"
     inkscape:cy="142.5"
     inkscape:window-width="1512"
     inkscape:window-height="921"
     inkscape:window-x="0"
     inkscape:window-y="33"
     inkscape:window-maximized="1"
     inkscape:current-layer="svg1"
     showguides="false">
    <sodipodi:guide
       position="51.84249,187.26878"
       orientation="0,-1"
       id="guide65"
       inkscape:locked="false" />
    <sodipodi:guide
       position="-26.508649,110.30951"
       orientation="1,0"
       id="guide66"
       inkscape:locked="false" />
    <sodipodi:guide
       position="128.80176,110.30951"
       orientation="1,0"
       id="guide67"
       inkscape:locked="false" />
    <sodipodi:guide
       position="51.842489,31.958368"
       orientation="0,-1"
       id="guide68"
       inkscape:locked="false" />
    <sodipodi:guide
       position="61.051429,108.93241"
       orientation="1,0"
       id="guide83"
       inkscape:locked="false" />
    <sodipodi:guide
       position="51.6784,119.51845"
       orientation="0,-1"
       id="guide84"
       inkscape:locked="false" />
    <sodipodi:guide
       position="48.32331,138.75891"
       orientation="0,-1"
       id="guide85"
       inkscape:locked="false" />
  </sodipodi:namedview>
  <defs
     id="defs1">
    <marker
       style="overflow:visible"
       id="ArrowWideRounded"
       refX="0"
       refY="0"
       orient="auto-start-reverse"
       inkscape:stockid="Wide, rounded arrow"
       markerWidth="1"
       markerHeight="1"
       viewBox="0 0 1 1"
       inkscape:isstock="true"
       inkscape:collect="always"
       preserveAspectRatio="xMidYMid">
      <path
         style="fill:none;stroke:context-stroke;stroke-width:1;stroke-linecap:round"
         d="M 3,-3 0,0 3,3"
         transform="rotate(180,0.125,0)"
         sodipodi:nodetypes="ccc"
         id="path2" />
    </marker>
    <marker
       style="overflow:visible"
       id="ArrowWide"
       refX="0"
       refY="0"
       orient="auto-start-reverse"
       inkscape:stockid="Wide arrow"
       markerWidth="1"
       markerHeight="1"
       viewBox="0 0 1 1"
       inkscape:isstock="true"
       inkscape:collect="always"
       preserveAspectRatio="xMidYMid">
      <path
         style="fill:none;stroke:context-stroke;stroke-width:1;stroke-linecap:butt"
         d="M 3,-3 0,0 3,3"
         transform="rotate(180,0.125,0)"
         sodipodi:nodetypes="ccc"
         id="path1" />
    </marker>
  </defs>
  <rect
     style="font-variation-settings:normal;opacity:1;vector-effect:none;fill:#55ddff;fill-opacity:0.443137;fill-rule:evenodd;stroke:none;stroke-width:0.600001;stroke-linecap:butt;stroke-linejoin:miter;stroke-miterlimit:4;stroke-dasharray:2.4, 2.4;stroke-dashoffset:0;stroke-opacity:1;-inkscape-stroke:none;marker-end:url(#ArrowWide)"
     id="rect88"
     width="96.759666"
     height="28.608948"
     x="0.0075927274"
     y="35.072521" />
  <g
     inkscape:label="Layer 1"
     inkscape:groupmode="layer"
     id="layer1"
     transform="translate(-54.784599,-65.905134)" />
  <path
     style="fill:none;fill-rule:evenodd;stroke:#1a1a1a;stroke-width:0.499999;stroke-dasharray:none;marker-end:url(#ArrowWide)"
     d="M 50.592313,92.378038 V 0.80305674"
     id="path30" />
  <path
     style="fill:none;fill-opacity:0;fill-rule:evenodd;stroke:#999999;stroke-width:0.499999;stroke-dasharray:none;stroke-opacity:1"
     d="m 49.065024,6.6842057 h 1.430707"
     id="path34" />
  <g
     id="g40"
     style="stroke:#999999;stroke-width:1.69578"
     transform="matrix(0.58977316,0,0,0.58962552,-12.293483,-19.811235)">
    <path
       d="m 104.037,102.712 h 2.426"
       style="fill:none;fill-opacity:0;stroke:#999999;stroke-width:0.847888px;stroke-opacity:1"
       id="path35" />
    <path
       d="m 104.037,93.0824 h 2.426"
       style="fill:none;fill-opacity:0;stroke:#999999;stroke-width:0.847888px;stroke-opacity:1"
       id="path36" />
    <path
       d="m 104.037,83.4531 h 2.426"
       style="fill:none;fill-opacity:0;stroke:#999999;stroke-width:0.847888px;stroke-opacity:1"
       id="path37" />
    <path
       d="m 104.037,73.8239 h 2.426"
       style="fill:none;fill-opacity:0;stroke:#999999;stroke-width:0.847888px;stroke-opacity:1"
       id="path38" />
    <path
       d="m 104.037,64.1946 h 2.426"
       style="fill:none;fill-opacity:0;stroke:#999999;stroke-width:0.847888px;stroke-opacity:1"
       id="path39" />
    <path
       d="m 104.037,54.5653 h 2.426"
       style="fill:none;fill-opacity:0;stroke:#999999;stroke-width:0.847888px;stroke-opacity:1"
       id="path40" />
  </g>
  <path
     style="fill:none;fill-opacity:0;fill-rule:evenodd;stroke:#999999;stroke-width:0.499999;stroke-dasharray:none;stroke-opacity:1"
     d="m 49.065024,86.171508 h 1.430707"
     id="path41" />
  <g
     id="g48"
     transform="matrix(0.58977316,0,0,0.58962552,-12.293483,19.932416)"
     style="stroke:#999999;stroke-width:1.69578">
    <path
       d="m 104.037,102.712 h 2.426"
       style="fill:none;fill-opacity:0;stroke:#999999;stroke-width:0.847888px;stroke-opacity:1"
       id="path43" />
    <path
       d="m 104.037,93.0824 h 2.426"
       style="fill:none;fill-opacity:0;stroke:#999999;stroke-width:0.847888px;stroke-opacity:1"
       id="path44" />
    <path
       d="m 104.037,83.4531 h 2.426"
       style="fill:none;fill-opacity:0;stroke:#999999;stroke-width:0.847888px;stroke-opacity:1"
       id="path45" />
    <path
       d="m 104.037,73.8239 h 2.426"
       style="fill:none;fill-opacity:0;stroke:#999999;stroke-width:0.847888px;stroke-opacity:1"
       id="path46" />
    <path
       d="m 104.037,64.1946 h 2.426"
       style="fill:none;fill-opacity:0;stroke:#999999;stroke-width:0.847888px;stroke-opacity:1"
       id="path47" />
    <path
       d="m 104.037,54.5653 h 2.426"
       style="fill:none;fill-opacity:0;stroke:#999999;stroke-width:0.847888px;stroke-opacity:1"
       id="path48" />
  </g>
  <path
     style="fill:none;fill-rule:evenodd;stroke:#1a1a1a;stroke-width:0.499999;stroke-dasharray:none;marker-end:url(#ArrowWide)"
     d="M 0.00759277,46.180208 H 96.288291"
     id="path49" />
  <path
     style="fill:none;fill-opacity:0;fill-rule:evenodd;stroke:#999999;stroke-width:0.499999;stroke-dasharray:none;stroke-opacity:1"
     d="M 90.098209,47.707114 V 46.276765"
     id="path51" />
  <g
     id="g57"
     transform="matrix(0,-0.58962552,-0.58977316,0,116.60028,109.05026)"
     style="stroke:#999999;stroke-width:1.69578">
    <path
       d="m 104.037,102.712 h 2.426"
       style="fill:none;fill-opacity:0;stroke:#999999;stroke-width:0.847888px;stroke-opacity:1"
       id="path52" />
    <path
       d="m 104.037,93.0824 h 2.426"
       style="fill:none;fill-opacity:0;stroke:#999999;stroke-width:0.847888px;stroke-opacity:1"
       id="path53" />
    <path
       d="m 104.037,83.4531 h 2.426"
       style="fill:none;fill-opacity:0;stroke:#999999;stroke-width:0.847888px;stroke-opacity:1"
       id="path54" />
    <path
       d="m 104.037,73.8239 h 2.426"
       style="fill:none;fill-opacity:0;stroke:#999999;stroke-width:0.847888px;stroke-opacity:1"
       id="path55" />
    <path
       d="m 104.037,64.1946 h 2.426"
       style="fill:none;fill-opacity:0;stroke:#999999;stroke-width:0.847888px;stroke-opacity:1"
       id="path56" />
    <path
       d="m 104.037,54.5653 h 2.426"
       style="fill:none;fill-opacity:0;stroke:#999999;stroke-width:0.847888px;stroke-opacity:1"
       id="path57" />
  </g>
  <path
     style="fill:none;fill-opacity:0;fill-rule:evenodd;stroke:#999999;stroke-width:0.499999;stroke-dasharray:none;stroke-opacity:1"
     d="M 10.591001,47.707114 V 46.276765"
     id="path58" />
  <g
     id="g64"
     transform="matrix(0,-0.58962552,-0.58977316,0,76.846679,109.05026)"
     style="stroke:#999999;stroke-width:1.69578">
    <path
       d="m 104.037,102.712 h 2.426"
       style="fill:none;fill-opacity:0;stroke:#999999;stroke-width:0.847888px;stroke-opacity:1"
       id="path59" />
    <path
       d="m 104.037,93.0824 h 2.426"
       style="fill:none;fill-opacity:0;stroke:#999999;stroke-width:0.847888px;stroke-opacity:1"
       id="path60" />
    <path
       d="m 104.037,83.4531 h 2.426"
       style="fill:none;fill-opacity:0;stroke:#999999;stroke-width:0.847888px;stroke-opacity:1"
       id="path61" />
    <path
       d="m 104.037,73.8239 h 2.426"
       style="fill:none;fill-opacity:0;stroke:#999999;stroke-width:0.847888px;stroke-opacity:1"
       id="path62" />
    <path
       d="m 104.037,64.1946 h 2.426"
       style="fill:none;fill-opacity:0;stroke:#999999;stroke-width:0.847888px;stroke-opacity:1"
       id="path63" />
    <path
       d="m 104.037,54.5653 h 2.426"
       style="fill:none;fill-opacity:0;stroke:#999999;stroke-width:0.847888px;stroke-opacity:1"
       id="path64" />
  </g>
  <path
     style="font-variation-settings:normal;opacity:1;fill:none;fill-opacity:1;fill-rule:evenodd;stroke:#0000ff;stroke-width:0.600001;stroke-linecap:butt;stroke-linejoin:miter;stroke-miterlimit:4;stroke-dasharray:none;stroke-dashoffset:0;stroke-opacity:1;stop-color:#000000;stop-opacity:1"
     d="M 4.3829133,92.378038 56.023498,40.750376"
     id="path84" />
  <path
     style="font-variation-settings:normal;opacity:1;vector-effect:none;fill:none;fill-opacity:1;fill-rule:evenodd;stroke:#0000ff;stroke-width:0.600001;stroke-linecap:butt;stroke-linejoin:miter;stroke-miterlimit:4;stroke-dasharray:none;stroke-dashoffset:0;stroke-opacity:1;-inkscape-stroke:none;marker-end:url(#ArrowWideRounded);stop-color:#000000;stop-opacity:1"
     d="M 56.399237,29.141367 95.980829,0.80305274"
     id="path86"
     sodipodi:nodetypes="cc" />
  <path
     style="font-variation-settings:normal;opacity:1;vector-effect:none;fill:none;fill-opacity:1;fill-rule:evenodd;stroke:#000000;stroke-width:0.600001;stroke-linecap:butt;stroke-linejoin:miter;stroke-miterlimit:4;stroke-dasharray:2.4, 2.4;stroke-dashoffset:0;stroke-opacity:1;-inkscape-stroke:none"
     d="M -7.991628e-8,35.072524 H 96.764488"
     id="path87" />
  <path
     style="font-variation-settings:normal;opacity:1;vector-effect:none;fill:none;fill-opacity:1;fill-rule:evenodd;stroke:#000000;stroke-width:0.600001;stroke-linecap:butt;stroke-linejoin:miter;stroke-miterlimit:4;stroke-dasharray:2.4, 2.4;stroke-dashoffset:0;stroke-opacity:1;-inkscape-stroke:none"
     d="M 0,63.460871 H 96.264029"
     id="path88" />
  <path
     style="font-variation-settings:normal;opacity:1;fill:#6600ff;fill-opacity:0.343137;fill-rule:evenodd;stroke:#6600ff;stroke-width:1.4;stroke-linecap:butt;stroke-linejoin:miter;stroke-miterlimit:4;stroke-dasharray:none;stroke-dashoffset:0;stroke-opacity:1"
     d="M 33.159884,46.276958 H 56.170945"
     id="path89" />
  <g
     transform="matrix(0.41611799,0,0,0.41601382,44.719665,64.191069)"
     ns1:version="1.10.2"
     ns1:texconverter="pdflatex"
     ns1:pdfconverter="inkscape"
     ns1:text="$-3$"
     ns1:preamble="/Users/sachchidanandprasad/Library/Application Support/org.inkscape.Inkscape/config/inkscape/extensions/textext/default_packages.tex"
     ns1:scale="2.0"
     ns1:alignment="middle center"
     ns1:stroke-to-path="0"
     ns1:inkscapeversion="1.4.2"
     ns1:jacobian_sqrt="0.705556"
     id="g92"
     style="stroke-width:1.69578">
    <defs
       id="id-5fd7f721-7a41-4d1d-b60b-bfcc20816bba">
      <g
         id="id-1ffd829e-a8ca-421f-b426-ef5ec36cf5fe">
        <g
           id="id-02bef47f-a76f-43c3-83e4-65969c808017">
          <path
             d="m 6.5625,-2.296875 c 0.171875,0 0.359375,0 0.359375,-0.203125 0,-0.1875 -0.1875,-0.1875 -0.359375,-0.1875 H 1.171875 c -0.171875,0 -0.34375,0 -0.34375,0.1875 0,0.203125 0.171875,0.203125 0.34375,0.203125 z m 0,0"
             id="id-e4d4aea6-9cba-4648-abc8-befcbfed5ec0" />
        </g>
        <g
           id="id-eb1c6225-bbdd-4216-bfe4-9b4192f02774">
          <path
             d="m 2.890625,-3.515625 c 0.8125,-0.265625 1.390625,-0.953125 1.390625,-1.75 0,-0.8125 -0.875,-1.375 -1.828125,-1.375 -1,0 -1.765625,0.59375 -1.765625,1.359375 0,0.328125 0.21875,0.515625 0.515625,0.515625 0.296875,0 0.5,-0.21875 0.5,-0.515625 0,-0.484375 -0.46875,-0.484375 -0.609375,-0.484375 0.296875,-0.5 0.953125,-0.625 1.3125,-0.625 0.421875,0 0.96875,0.21875 0.96875,1.109375 0,0.125 -0.03125,0.703125 -0.28125,1.140625 C 2.796875,-3.65625 2.453125,-3.625 2.203125,-3.625 2.125,-3.609375 1.890625,-3.59375 1.8125,-3.59375 c -0.078125,0.015625 -0.140625,0.03125 -0.140625,0.125 0,0.109375 0.0625,0.109375 0.234375,0.109375 h 0.4375 c 0.8125,0 1.1875,0.671875 1.1875,1.65625 0,1.359375 -0.6875,1.640625 -1.125,1.640625 -0.4375,0 -1.1875,-0.171875 -1.53125,-0.75 0.34375,0.046875 0.65625,-0.171875 0.65625,-0.546875 0,-0.359375 -0.265625,-0.5625 -0.546875,-0.5625 -0.25,0 -0.5625,0.140625 -0.5625,0.578125 0,0.90625 0.921875,1.5625 2.015625,1.5625 1.21875,0 2.125,-0.90625 2.125,-1.921875 0,-0.8125 -0.640625,-1.59375 -1.671875,-1.8125 z m 0,0"
             id="id-286f149d-ce62-4fd6-877a-41cefe73d691" />
        </g>
      </g>
    </defs>
    <g
       fill="#000000"
       fill-opacity="1"
       id="id-b84ae6b6-dec7-4221-9d9b-39aaeb3fc9e3"
       transform="translate(-149.54,-128.124)"
       style="stroke-width:1.69578">
      <g
         transform="translate(148.712,134.765)"
         id="g90"
         style="stroke-width:1.69578">
        <path
           d="m 6.5625,-2.296875 c 0.171875,0 0.359375,0 0.359375,-0.203125 0,-0.1875 -0.1875,-0.1875 -0.359375,-0.1875 H 1.171875 c -0.171875,0 -0.34375,0 -0.34375,0.1875 0,0.203125 0.171875,0.203125 0.34375,0.203125 z m 0,0"
           id="id-96372808-4b57-4a82-b093-b182f517c7b7"
           style="stroke-width:1.69578" />
      </g>
    </g>
    <g
       fill="#000000"
       fill-opacity="1"
       id="id-cf2a647f-e286-4c6b-ab9f-3e6807b4a489"
       transform="translate(-149.54,-128.124)"
       style="stroke-width:1.69578">
      <g
         transform="translate(156.461,134.765)"
         id="g91"
         style="stroke-width:1.69578">
        <path
           d="m 2.890625,-3.515625 c 0.8125,-0.265625 1.390625,-0.953125 1.390625,-1.75 0,-0.8125 -0.875,-1.375 -1.828125,-1.375 -1,0 -1.765625,0.59375 -1.765625,1.359375 0,0.328125 0.21875,0.515625 0.515625,0.515625 0.296875,0 0.5,-0.21875 0.5,-0.515625 0,-0.484375 -0.46875,-0.484375 -0.609375,-0.484375 0.296875,-0.5 0.953125,-0.625 1.3125,-0.625 0.421875,0 0.96875,0.21875 0.96875,1.109375 0,0.125 -0.03125,0.703125 -0.28125,1.140625 C 2.796875,-3.65625 2.453125,-3.625 2.203125,-3.625 2.125,-3.609375 1.890625,-3.59375 1.8125,-3.59375 c -0.078125,0.015625 -0.140625,0.03125 -0.140625,0.125 0,0.109375 0.0625,0.109375 0.234375,0.109375 h 0.4375 c 0.8125,0 1.1875,0.671875 1.1875,1.65625 0,1.359375 -0.6875,1.640625 -1.125,1.640625 -0.4375,0 -1.1875,-0.171875 -1.53125,-0.75 0.34375,0.046875 0.65625,-0.171875 0.65625,-0.546875 0,-0.359375 -0.265625,-0.5625 -0.546875,-0.5625 -0.25,0 -0.5625,0.140625 -0.5625,0.578125 0,0.90625 0.921875,1.5625 2.015625,1.5625 1.21875,0 2.125,-0.90625 2.125,-1.921875 0,-0.8125 -0.640625,-1.59375 -1.671875,-1.8125 z m 0,0"
           id="id-ba10cb38-97ff-4d88-9ad5-db23f377d12f"
           style="stroke-width:1.69578" />
      </g>
    </g>
  </g>
  <g
     transform="matrix(0.41611799,0,0,0.41601382,51.120522,31.475459)"
     ns1:version="1.10.2"
     ns1:texconverter="pdflatex"
     ns1:pdfconverter="inkscape"
     ns1:text="$2$"
     ns1:preamble="/Users/sachchidanandprasad/Library/Application Support/org.inkscape.Inkscape/config/inkscape/extensions/textext/default_packages.tex"
     ns1:scale="2.0"
     ns1:alignment="middle center"
     ns1:stroke-to-path="0"
     ns1:inkscapeversion="1.4.2"
     ns1:jacobian_sqrt="0.705556"
     id="g94"
     style="stroke-width:1.69578">
    <defs
       id="id-916c9f3e-6e75-49c6-bb39-9198da2fd168">
      <g
         id="id-39b97fa2-8deb-499d-9bba-97b0d46307a3">
        <g
           id="id-3c604dfe-bf49-4230-bf17-5e25a677efd0">
          <path
             d="m 1.265625,-0.765625 1.0625,-1.03125 c 1.546875,-1.375 2.140625,-1.90625 2.140625,-2.90625 0,-1.140625 -0.890625,-1.9375 -2.109375,-1.9375 -1.125,0 -1.859375,0.921875 -1.859375,1.8125 0,0.546875 0.5,0.546875 0.53125,0.546875 0.171875,0 0.515625,-0.109375 0.515625,-0.53125 0,-0.25 -0.1875,-0.515625 -0.53125,-0.515625 -0.078125,0 -0.09375,0 -0.125,0.015625 0.21875,-0.65625 0.765625,-1.015625 1.34375,-1.015625 0.90625,0 1.328125,0.8125 1.328125,1.625 C 3.5625,-3.90625 3.078125,-3.125 2.515625,-2.5 l -1.90625,2.125 C 0.5,-0.265625 0.5,-0.234375 0.5,0 H 4.203125 L 4.46875,-1.734375 H 4.234375 C 4.171875,-1.4375 4.109375,-1 4,-0.84375 3.9375,-0.765625 3.28125,-0.765625 3.0625,-0.765625 Z m 0,0"
             id="id-11b16c06-a075-47e2-b495-3eb85ff5e519" />
        </g>
      </g>
    </defs>
    <g
       fill="#000000"
       fill-opacity="1"
       id="id-5b745734-6a0f-465e-898e-5ddd9e2dfe6f"
       transform="translate(-149.212,-128.124)"
       style="stroke-width:1.69578">
      <g
         transform="translate(148.712,134.765)"
         id="g93"
         style="stroke-width:1.69578">
        <path
           d="m 1.265625,-0.765625 1.0625,-1.03125 c 1.546875,-1.375 2.140625,-1.90625 2.140625,-2.90625 0,-1.140625 -0.890625,-1.9375 -2.109375,-1.9375 -1.125,0 -1.859375,0.921875 -1.859375,1.8125 0,0.546875 0.5,0.546875 0.53125,0.546875 0.171875,0 0.515625,-0.109375 0.515625,-0.53125 0,-0.25 -0.1875,-0.515625 -0.53125,-0.515625 -0.078125,0 -0.09375,0 -0.125,0.015625 0.21875,-0.65625 0.765625,-1.015625 1.34375,-1.015625 0.90625,0 1.328125,0.8125 1.328125,1.625 C 3.5625,-3.90625 3.078125,-3.125 2.515625,-2.5 l -1.90625,2.125 C 0.5,-0.265625 0.5,-0.234375 0.5,0 H 4.203125 L 4.46875,-1.734375 H 4.234375 C 4.171875,-1.4375 4.109375,-1 4,-0.84375 3.9375,-0.765625 3.28125,-0.765625 3.0625,-0.765625 Z m 0,0"
           id="id-c8efedab-9549-401a-9cad-064988020f75"
           style="stroke-width:1.69578" />
      </g>
    </g>
  </g>
  <path
     style="font-variation-settings:normal;opacity:1;fill:none;fill-opacity:1;fill-rule:evenodd;stroke:#1a1a1a;stroke-width:0.799998;stroke-linecap:butt;stroke-linejoin:miter;stroke-miterlimit:4;stroke-dasharray:none;stroke-dashoffset:0;stroke-opacity:1;stop-color:#000000;stop-opacity:1"
     d="M 50.592311,63.460871 H 33.307319 l -0.147435,-17.18391"
     id="path95" />
  <ellipse
     id="circle90"
     style="fill:#ffffff;stroke:#000000;stroke-width:0.264583"
     cx="33.159885"
     cy="46.276958"
     rx="1.1546043"
     ry="1.1543419" />
  <path
     style="font-variation-settings:normal;opacity:1;vector-effect:none;fill:none;fill-opacity:1;fill-rule:evenodd;stroke:#1a1a1a;stroke-width:0.799998;stroke-linecap:butt;stroke-linejoin:miter;stroke-miterlimit:4;stroke-dasharray:none;stroke-dashoffset:0;stroke-opacity:1;-inkscape-stroke:none;stop-color:#000000;stop-opacity:1"
     d="m 56.023498,40.750375 -3e-6,5.526585"
     id="path96" />
  <ellipse
     id="circle89"
     style="fill:#ff0000;stroke:none;stroke-width:0.264582"
     cx="56.023495"
     cy="46.276958"
     rx="0.58088517"
     ry="0.58073974" />
  <path
     style="font-variation-settings:normal;opacity:1;fill:none;fill-opacity:1;fill-rule:evenodd;stroke:#999999;stroke-width:0.3;stroke-linecap:butt;stroke-linejoin:miter;stroke-miterlimit:4;stroke-dasharray:1.2, 1.2;stroke-dashoffset:0;stroke-opacity:1"
     d="M -7.991628e-8,29.421384 H 96.764488"
     id="path97" />
  <ellipse
     id="circle86"
     style="fill:#ffffff;stroke:#000000;stroke-width:0.264583"
     cx="56.023495"
     cy="29.405706"
     rx="0.7069971"
     ry="0.70683396" />
  <g
     transform="matrix(0.416118 0 0 0.416014 46.9371 25.4255)"
     ns1:version="1.10.2"
     ns1:texconverter="pdflatex"
     ns1:pdfconverter="inkscape"
     ns1:text="$3$"
     ns1:preamble="/Users/sachchidanandprasad/Library/Application Support/org.inkscape.Inkscape/config/inkscape/extensions/textext/default_packages.tex"
     ns1:scale="1.1793986635784621"
     ns1:alignment="middle center"
     ns1:stroke-to-path="0"
     ns1:inkscapeversion="1.4.2"
     ns1:jacobian_sqrt="0.41606599675051553"
     style="stroke-width:0"
     id="g103">
    <defs
       id="id-385817f6-154b-4b9a-9d01-dde884c3e295"
       style="stroke-width:0">
      <g
         id="id-70b02832-750c-454b-8b02-dfeba18c5da2"
         style="stroke-width:0">
        <g
           id="id-42e124cc-9515-4c88-a374-a9fe559e7351"
           style="stroke-width:0">
          <path
             d="m 2.890625,-3.515625 c 0.8125,-0.265625 1.390625,-0.953125 1.390625,-1.75 0,-0.8125 -0.875,-1.375 -1.828125,-1.375 -1,0 -1.765625,0.59375 -1.765625,1.359375 0,0.328125 0.21875,0.515625 0.515625,0.515625 0.296875,0 0.5,-0.21875 0.5,-0.515625 0,-0.484375 -0.46875,-0.484375 -0.609375,-0.484375 0.296875,-0.5 0.953125,-0.625 1.3125,-0.625 0.421875,0 0.96875,0.21875 0.96875,1.109375 0,0.125 -0.03125,0.703125 -0.28125,1.140625 C 2.796875,-3.65625 2.453125,-3.625 2.203125,-3.625 2.125,-3.609375 1.890625,-3.59375 1.8125,-3.59375 c -0.078125,0.015625 -0.140625,0.03125 -0.140625,0.125 0,0.109375 0.0625,0.109375 0.234375,0.109375 h 0.4375 c 0.8125,0 1.1875,0.671875 1.1875,1.65625 0,1.359375 -0.6875,1.640625 -1.125,1.640625 -0.4375,0 -1.1875,-0.171875 -1.53125,-0.75 0.34375,0.046875 0.65625,-0.171875 0.65625,-0.546875 0,-0.359375 -0.265625,-0.5625 -0.546875,-0.5625 -0.25,0 -0.5625,0.140625 -0.5625,0.578125 0,0.90625 0.921875,1.5625 2.015625,1.5625 1.21875,0 2.125,-0.90625 2.125,-1.921875 0,-0.8125 -0.640625,-1.59375 -1.671875,-1.8125 z m 0,0"
             id="id-25d158d3-23f1-4e3c-9233-8380dfb4a7a4"
             style="stroke-width:0" />
        </g>
      </g>
    </defs>
    <g
       fill="#000000"
       fill-opacity="1"
       id="id-05088f30-f5b5-42bf-baab-9e0d2c19baff"
       transform="translate(-149.134, -128.124)"
       style="stroke-width:0">
      <g
         transform="translate(148.712, 134.765)"
         style="stroke-width:0"
         id="g102">
        <path
           d="m 2.890625,-3.515625 c 0.8125,-0.265625 1.390625,-0.953125 1.390625,-1.75 0,-0.8125 -0.875,-1.375 -1.828125,-1.375 -1,0 -1.765625,0.59375 -1.765625,1.359375 0,0.328125 0.21875,0.515625 0.515625,0.515625 0.296875,0 0.5,-0.21875 0.5,-0.515625 0,-0.484375 -0.46875,-0.484375 -0.609375,-0.484375 0.296875,-0.5 0.953125,-0.625 1.3125,-0.625 0.421875,0 0.96875,0.21875 0.96875,1.109375 0,0.125 -0.03125,0.703125 -0.28125,1.140625 C 2.796875,-3.65625 2.453125,-3.625 2.203125,-3.625 2.125,-3.609375 1.890625,-3.59375 1.8125,-3.59375 c -0.078125,0.015625 -0.140625,0.03125 -0.140625,0.125 0,0.109375 0.0625,0.109375 0.234375,0.109375 h 0.4375 c 0.8125,0 1.1875,0.671875 1.1875,1.65625 0,1.359375 -0.6875,1.640625 -1.125,1.640625 -0.4375,0 -1.1875,-0.171875 -1.53125,-0.75 0.34375,0.046875 0.65625,-0.171875 0.65625,-0.546875 0,-0.359375 -0.265625,-0.5625 -0.546875,-0.5625 -0.25,0 -0.5625,0.140625 -0.5625,0.578125 0,0.90625 0.921875,1.5625 2.015625,1.5625 1.21875,0 2.125,-0.90625 2.125,-1.921875 0,-0.8125 -0.640625,-1.59375 -1.671875,-1.8125 z m 0,0"
           id="id-ca43b757-86af-499d-8400-0ce576d750dd"
           style="stroke-width:0" />
      </g>
    </g>
  </g>
  <path
     style="font-variation-settings:normal;opacity:1;fill:none;fill-opacity:1;fill-rule:evenodd;stroke:#999999;stroke-width:0.3;stroke-linecap:butt;stroke-linejoin:miter;stroke-miterlimit:4;stroke-dasharray:1.19999803, 1.19999803;stroke-dashoffset:0;stroke-opacity:1"
     d="M 2.008372e-8,40.750381 H 96.764488"
     id="path103" />
  <ellipse
     id="path85"
     style="fill:#ff0000;stroke:none;stroke-width:0.264583"
     cx="56.023495"
     cy="40.750385"
     rx="0.53312528"
     ry="0.53299183" />
  <path
     style="font-variation-settings:normal;opacity:1;vector-effect:none;fill:#6600ff;fill-opacity:0.343137;fill-rule:evenodd;stroke:#ff00ff;stroke-width:1.4;stroke-linecap:butt;stroke-linejoin:miter;stroke-miterlimit:4;stroke-dasharray:none;stroke-dashoffset:0;stroke-opacity:1;-inkscape-stroke:none;stop-color:#000000;stop-opacity:1"
     d="M 50.592311,35.072523 V 63.460871"
     id="path94" />
</svg>
