<?xml version="1.0" encoding="UTF-8" standalone="no"?>
<!-- Created with Inkscape (http://www.inkscape.org/) -->

<svg
   width="308.40079mm"
   height="67.339043mm"
   viewBox="0 0 308.40079 67.339045"
   version="1.1"
   id="svg5"
   sodipodi:docname="prob-05-02-23_02.svg"
   inkscape:version="1.2.2 (1:1.2.2+202212051550+b0a8486541)"
   xmlns:inkscape="http://www.inkscape.org/namespaces/inkscape"
   xmlns:sodipodi="http://sodipodi.sourceforge.net/DTD/sodipodi-0.dtd"
   xmlns="http://www.w3.org/2000/svg"
   xmlns:svg="http://www.w3.org/2000/svg">
  <sodipodi:namedview
     id="namedview7"
     pagecolor="#ffffff"
     bordercolor="#999999"
     borderopacity="1"
     inkscape:showpageshadow="0"
     inkscape:pageopacity="0"
     inkscape:pagecheckerboard="0"
     inkscape:deskcolor="#d1d1d1"
     inkscape:document-units="mm"
     showgrid="false"
     inkscape:zoom="0.70710678"
     inkscape:cx="603.86919"
     inkscape:cy="33.234019"
     inkscape:window-width="1600"
     inkscape:window-height="832"
     inkscape:window-x="0"
     inkscape:window-y="32"
     inkscape:window-maximized="1"
     inkscape:current-layer="layer1" />
  <defs
     id="defs2">
    <clipPath
       id="clipPath3254">
      <path
         d="M 0,0 H 8.847656 V 7.410156 H 0 Z m 0,0"
         id="path7589" />
    </clipPath>
    <clipPath
       id="clipPath3453">
      <path
         d="M 0,0 H 7 V 11.953125 H 0 Z m 0,0"
         id="path5356" />
    </clipPath>
    <clipPath
       id="clipPath6748">
      <path
         d="M 0,0 H 7.253906 V 7.410156 H 0 Z m 0,0"
         id="path6755" />
    </clipPath>
    <clipPath
       id="clipPath5562">
      <path
         d="M 0,0 H 7.894531 V 11.097656 H 0 Z m 0,0"
         id="path9427" />
    </clipPath>
    <clipPath
       id="clipPath3897">
      <path
         d="M 1,0 H 7 V 11.097656 H 1 Z m 0,0"
         id="path4628" />
    </clipPath>
    <clipPath
       id="clipPath7652">
      <path
         d="M 1,0 H 6 V 17.1875 H 1 Z m 0,0"
         id="path6507" />
    </clipPath>
    <clipPath
       id="clipPath4030">
      <path
         d="m 28,0 h 4 v 17.1875 h -4 z m 0,0"
         id="path2316" />
    </clipPath>
    <clipPath
       id="clipPath6591">
      <path
         d="m 39,5 h 6.859375 v 9 H 39 Z m 0,0"
         id="path7001" />
    </clipPath>
    <clipPath
       id="clipPath4903">
      <path
         d="M 1,0 H 6 V 17.1875 H 1 Z m 0,0"
         id="path4251" />
    </clipPath>
    <clipPath
       id="clipPath7910">
      <path
         d="m 28,0 h 4 v 17.1875 h -4 z m 0,0"
         id="path9358" />
    </clipPath>
    <clipPath
       id="clipPath6103">
      <path
         d="m 39,0 h 6.859375 V 14 H 39 Z m 0,0"
         id="path1463" />
    </clipPath>
    <clipPath
       id="clipPath361">
      <path
         d="M 1,0 H 6 V 17.1875 H 1 Z m 0,0"
         id="path3677" />
    </clipPath>
    <clipPath
       id="clipPath1037">
      <path
         d="m 26,0 h 5 v 17.1875 h -5 z m 0,0"
         id="path9283" />
    </clipPath>
    <clipPath
       id="clipPath1801">
      <path
         d="m 37,5 h 8.859375 v 9 H 37 Z m 0,0"
         id="path8202" />
    </clipPath>
    <clipPath
       id="clipPath7652-0">
      <path
         d="M 1,0 H 6 V 17.1875 H 1 Z m 0,0"
         id="path6507-6" />
    </clipPath>
    <clipPath
       id="clipPath4030-1">
      <path
         d="m 28,0 h 4 v 17.1875 h -4 z m 0,0"
         id="path2316-5" />
    </clipPath>
    <clipPath
       id="clipPath6591-5">
      <path
         d="m 39,5 h 6.859375 v 9 H 39 Z m 0,0"
         id="path7001-4" />
    </clipPath>
    <clipPath
       id="clipPath7652-8">
      <path
         d="M 1,0 H 6 V 17.1875 H 1 Z m 0,0"
         id="path6507-8" />
    </clipPath>
    <clipPath
       id="clipPath4030-4">
      <path
         d="m 28,0 h 4 v 17.1875 h -4 z m 0,0"
         id="path2316-3" />
    </clipPath>
    <clipPath
       id="clipPath6591-1">
      <path
         d="m 39,5 h 6.859375 v 9 H 39 Z m 0,0"
         id="path7001-49" />
    </clipPath>
    <clipPath
       id="clipPath463">
      <path
         d="m 15,0 h 5 v 17.1875 h -5 z m 0,0"
         id="path2220" />
    </clipPath>
    <clipPath
       id="clipPath603">
      <path
         d="m 40,0 h 5 v 17.1875 h -5 z m 0,0"
         id="path7290" />
    </clipPath>
    <clipPath
       id="clipPath6676">
      <path
         d="m 13,0 h 5 v 17.1875 h -5 z m 0,0"
         id="path6790" />
    </clipPath>
    <clipPath
       id="clipPath169">
      <path
         d="m 40,0 h 5 v 17.1875 h -5 z m 0,0"
         id="path2394" />
    </clipPath>
    <clipPath
       id="clipPath7157">
      <path
         d="m 14,0 h 4 v 17.1875 h -4 z m 0,0"
         id="path4709" />
    </clipPath>
    <clipPath
       id="clipPath6157">
      <path
         d="m 40,0 h 5 v 17.1875 h -5 z m 0,0"
         id="path2194" />
    </clipPath>
  </defs>
  <g
     inkscape:label="Layer 1"
     inkscape:groupmode="layer"
     id="layer1"
     transform="translate(-11.169634,75.990707)">
    <ellipse
       style="font-variation-settings:normal;opacity:1;vector-effect:none;fill:#f0f00e;fill-opacity:1;fill-rule:evenodd;stroke:#4d4d4d;stroke-width:0.5;stroke-linecap:butt;stroke-linejoin:miter;stroke-miterlimit:4;stroke-dasharray:none;stroke-dashoffset:0;stroke-opacity:1;-inkscape-stroke:none;paint-order:fill stroke markers;stop-color:#000000;stop-opacity:1"
       id="ellipse1003"
       cx="26.56115"
       cy="-48.798496"
       rx="15.141516"
       ry="26.942211" />
    <ellipse
       style="font-variation-settings:normal;opacity:1;vector-effect:none;fill:#ffb380;fill-opacity:1;fill-rule:evenodd;stroke:#4d4d4d;stroke-width:0.5;stroke-linecap:butt;stroke-linejoin:miter;stroke-miterlimit:4;stroke-dasharray:none;stroke-dashoffset:0;stroke-opacity:1;-inkscape-stroke:none;paint-order:fill stroke markers;stop-color:#000000;stop-opacity:1"
       id="ellipse1005"
       cx="91.256439"
       cy="-48.798496"
       rx="15.141516"
       ry="26.942211" />
    <g
       id="path2674">
      <path
         style="color:#000000;fill:#000000;-inkscape-stroke:none"
         d="m 27.568359,-64.443359 -0.01367,0.464843 31.615235,1.007813 31.080078,0.992187 0.01367,-0.464843 -31.080078,-0.992188 z"
         id="path938" />
      <g
         id="g928">
        <g
           id="path930">
          <path
             style="color:#000000;fill:#000000;fill-rule:evenodd;stroke-width:0.2325pt;-inkscape-stroke:none"
             d="m 60.571422,-63.158471 c -0.704559,0.210143 -1.648912,0.645254 -2.128502,1.095192 0,0 0.02965,-0.929527 0.501829,-1.147083 -0.45735,-0.247208 -0.427698,-1.176735 -0.427698,-1.176735 0.449937,0.47959 1.364638,0.974005 2.054371,1.228626 z"
             id="path934" />
          <path
             style="color:#000000;fill:#000000;fill-rule:evenodd;-inkscape-stroke:none"
             d="m 58.375,-64.765625 -0.01367,0.373047 c 0,0 -0.0084,0.246902 0.04492,0.529297 0.04388,0.232194 0.187638,0.468014 0.382812,0.648437 -0.2052,0.167698 -0.363434,0.392755 -0.421875,0.621094 -0.07126,0.27842 -0.08008,0.525391 -0.08008,0.525391 l -0.01172,0.375 0.273437,-0.257813 c 0.44191,-0.414587 1.381652,-0.854358 2.066406,-1.058594 l 0.445313,-0.132812 -0.435547,-0.162109 c -0.670345,-0.247464 -1.579555,-0.745591 -1.994141,-1.1875 z m 0.320312,0.658203 c 0.438762,0.37449 1.008471,0.706772 1.564454,0.939453 -0.569065,0.196621 -1.159606,0.490655 -1.621094,0.835938 0.01029,-0.07693 0.0024,-0.08825 0.02734,-0.185547 0.06161,-0.240732 0.182741,-0.47855 0.34375,-0.552734 l 0.28125,-0.128907 -0.273438,-0.148437 c -0.155952,-0.0843 -0.260497,-0.328096 -0.306641,-0.572266 -0.01869,-0.09889 -0.01026,-0.109981 -0.01563,-0.1875 z"
             id="path936" />
        </g>
      </g>
    </g>
    <ellipse
       style="font-variation-settings:normal;opacity:1;vector-effect:none;fill:#f0f00e;fill-opacity:1;fill-rule:evenodd;stroke:#4d4d4d;stroke-width:0.5;stroke-linecap:butt;stroke-linejoin:miter;stroke-miterlimit:4;stroke-dasharray:none;stroke-dashoffset:0;stroke-opacity:1;-inkscape-stroke:none;paint-order:fill stroke markers;stop-color:#000000;stop-opacity:1"
       id="ellipse10832"
       cx="132.38281"
       cy="-48.798496"
       rx="15.141516"
       ry="26.942211" />
    <ellipse
       style="font-variation-settings:normal;opacity:1;vector-effect:none;fill:#ffb380;fill-opacity:1;fill-rule:evenodd;stroke:#4d4d4d;stroke-width:0.5;stroke-linecap:butt;stroke-linejoin:miter;stroke-miterlimit:4;stroke-dasharray:none;stroke-dashoffset:0;stroke-opacity:1;-inkscape-stroke:none;paint-order:fill stroke markers;stop-color:#000000;stop-opacity:1"
       id="ellipse10834"
       cx="197.07809"
       cy="-48.798496"
       rx="15.141516"
       ry="26.942211" />
    <g
       inkscape:label=""
       transform="matrix(1.2306799,0,0,1.2306799,152.12779,-18.957001)"
       id="g10950"
       style="stroke-width:0.812559" />
    <ellipse
       style="font-variation-settings:normal;opacity:1;vector-effect:none;fill:#f0f00e;fill-opacity:1;fill-rule:evenodd;stroke:#4d4d4d;stroke-width:0.5;stroke-linecap:butt;stroke-linejoin:miter;stroke-miterlimit:4;stroke-dasharray:none;stroke-dashoffset:0;stroke-opacity:1;-inkscape-stroke:none;paint-order:fill stroke markers;stop-color:#000000;stop-opacity:1"
       id="ellipse12402"
       cx="239.48364"
       cy="-47.947418"
       rx="15.141516"
       ry="26.942211" />
    <ellipse
       style="font-variation-settings:normal;opacity:1;vector-effect:none;fill:#ffb380;fill-opacity:1;fill-rule:evenodd;stroke:#4d4d4d;stroke-width:0.5;stroke-linecap:butt;stroke-linejoin:miter;stroke-miterlimit:4;stroke-dasharray:none;stroke-dashoffset:0;stroke-opacity:1;-inkscape-stroke:none;paint-order:fill stroke markers;stop-color:#000000;stop-opacity:1"
       id="ellipse12404"
       cx="304.17889"
       cy="-47.947418"
       rx="15.141516"
       ry="26.942211" />
    <g
       id="path14207">
      <path
         style="color:#000000;fill:#000000;-inkscape-stroke:none"
         d="m 26.611328,-50.025391 -0.101562,0.453125 34.783203,7.75 29.912109,6.664063 0.101563,-0.455078 -29.91211,-6.66211 z"
         id="path952" />
      <g
         id="g942">
        <g
           id="path944">
          <path
             style="color:#000000;fill:#000000;fill-rule:evenodd;stroke-width:0.2325pt;-inkscape-stroke:none"
             d="m 62.705911,-41.746058 c -0.731367,0.07526 -1.740228,0.326906 -2.295216,0.679664 0,0 0.20223,-0.907746 0.70666,-1.033568 -0.403315,-0.328051 -0.201085,-1.235797 -0.201085,-1.235797 0.352758,0.554988 1.159389,1.211091 1.789641,1.589701 z"
             id="path948" />
          <path
             style="color:#000000;fill:#000000;fill-rule:evenodd;-inkscape-stroke:none"
             d="m 60.845703,-43.734375 -0.08008,0.365234 c 0,0 -0.05453,0.239951 -0.05469,0.527344 -1.26e-4,0.235973 0.09633,0.493522 0.253907,0.707031 -0.233778,0.126301 -0.43108,0.319248 -0.53125,0.533204 -0.121859,0.260279 -0.173828,0.501953 -0.173828,0.501953 l -0.08203,0.365234 0.316407,-0.201172 c 0.511383,-0.325042 1.517708,-0.583106 2.228515,-0.65625 l 0.460938,-0.04687 -0.398438,-0.240234 c -0.612535,-0.367968 -1.413239,-1.027679 -1.738281,-1.539063 z m 0.195313,0.708984 c 0.360902,0.448416 0.857708,0.879387 1.359375,1.210938 -0.595591,0.08723 -1.22852,0.266313 -1.746094,0.519531 0.02439,-0.07336 0.01826,-0.08547 0.06055,-0.175781 0.105363,-0.225048 0.267447,-0.435612 0.439453,-0.478516 l 0.300781,-0.07617 -0.240234,-0.195312 c -0.137527,-0.111862 -0.193492,-0.370649 -0.19336,-0.619141 5.4e-5,-0.09965 0.01049,-0.108806 0.01953,-0.185547 z"
             id="path950" />
        </g>
      </g>
    </g>
    <g
       id="path14657">
      <path
         style="color:#000000;fill:#000000;-inkscape-stroke:none"
         d="m 26.560547,-35.617187 v 0.464843 h 32.935547 31.759765 v -0.464843 H 59.496094 Z"
         id="path966" />
      <g
         id="g956">
        <g
           id="path958">
          <path
             style="color:#000000;fill:#000000;fill-rule:evenodd;stroke-width:0.2325pt;-inkscape-stroke:none"
             d="m 60.890229,-35.385487 c -0.6975,0.2325 -1.6275,0.6975 -2.0925,1.1625 0,0 0,-0.93 0.465,-1.1625 -0.465,-0.2325 -0.465,-1.1625 -0.465,-1.1625 0.465,0.465 1.395,0.93 2.0925,1.1625 z"
             id="path962" />
          <path
             style="color:#000000;fill:#000000;fill-rule:evenodd;-inkscape-stroke:none"
             d="m 58.642578,-36.921875 v 0.373047 c 0,0 1.56e-4,0.248747 0.0625,0.529297 0.05115,0.230193 0.200448,0.460618 0.400391,0.634765 -0.199943,0.174148 -0.349237,0.404573 -0.400391,0.634766 -0.06234,0.28055 -0.0625,0.527344 -0.0625,0.527344 v 0.373047 l 0.265625,-0.263672 c 0.428466,-0.428466 1.353357,-0.899036 2.03125,-1.125 l 0.441406,-0.146485 -0.441406,-0.148437 c -0.677893,-0.225965 -1.602784,-0.696534 -2.03125,-1.125 z m 0.34375,0.650391 c 0.449697,0.359134 1.02817,0.672195 1.589844,0.886718 -0.561526,0.21454 -1.140347,0.527718 -1.589844,0.886719 0.0078,-0.07702 -2.07e-4,-0.08793 0.02148,-0.185547 0.05391,-0.242574 0.165659,-0.483219 0.324219,-0.5625 l 0.277344,-0.138672 -0.277344,-0.138671 c -0.15856,-0.07928 -0.270313,-0.321879 -0.324219,-0.564454 -0.02147,-0.0966 -0.01361,-0.107029 -0.02148,-0.183593 z"
             id="path964" />
        </g>
      </g>
    </g>
    <circle
       id="circle1013"
       style="fill:#0000ff;stroke:none;stroke-width:0.264583"
       cx="91.256439"
       cy="-62.211506"
       r="1" />
    <circle
       id="circle1015"
       style="fill:#0000ff;stroke:none;stroke-width:0.264583"
       cx="91.256439"
       cy="-35.385487"
       r="1" />
    <g
       inkscape:label=""
       transform="translate(92.840647,-37.547259)"
       id="g9329">
      <g
         id="g9327"
         transform="matrix(0.352778,0,0,0.352778,-0.248047,0.0980722)">
        <g
           clip-path="url(#clipPath5562)"
           clip-rule="nonzero"
           id="g9325">
          <g
             style="fill:#000000;fill-opacity:1"
             id="g9323">
            <g
               id="g9321"
               transform="translate(0,11.097)">
              <path
                 style="stroke:none"
                 d="M 7.1875,-2.671875 H 6.875 c -0.171875,1.21875 -0.3125,1.4375 -0.390625,1.53125 C 6.40625,-1 5.171875,-1 4.921875,-1 H 1.625 c 0.609375,-0.671875 1.8125,-1.890625 3.28125,-3.3125 1.046875,-0.984375 2.28125,-2.15625 2.28125,-3.859375 0,-2.03125 -1.625,-3.203125 -3.4375,-3.203125 -1.890625,0 -3.046875,1.65625 -3.046875,3.21875 0,0.671875 0.5,0.75 0.703125,0.75 0.171875,0 0.6875,-0.09375 0.6875,-0.703125 0,-0.53125 -0.4375,-0.6875 -0.6875,-0.6875 -0.09375,0 -0.203125,0.015625 -0.265625,0.046875 0.328125,-1.453125 1.328125,-2.1875 2.375,-2.1875 1.5,0 2.46875,1.1875 2.46875,2.765625 0,1.484375 -0.875,2.78125 -1.859375,3.90625 l -3.421875,3.875 V 0 h 6.0625 z m 0,0"
                 id="path9319" />
            </g>
          </g>
        </g>
      </g>
    </g>
    <g
       inkscape:label=""
       transform="translate(92.617834,-64.273936)"
       id="g9455">
      <g
         id="g9453"
         transform="matrix(0.352778,0,0,0.352778,-0.529167,0.0980722)">
        <g
           clip-path="url(#clipPath3897)"
           clip-rule="nonzero"
           id="g9451">
          <g
             style="fill:#000000;fill-opacity:1"
             id="g9449">
            <g
               id="g9447"
               transform="translate(0,11.097)">
              <path
                 style="stroke:none"
                 d="m 4.578125,-11 c 0,-0.359375 -0.015625,-0.375 -0.25,-0.375 -0.671875,0.796875 -1.6875,1.0625 -2.65625,1.09375 -0.046875,0 -0.140625,0 -0.15625,0.03125 C 1.5,-10.203125 1.5,-10.171875 1.5,-9.8125 c 0.53125,0 1.421875,-0.109375 2.109375,-0.515625 V -1.25 c 0,0.59375 -0.03125,0.796875 -1.515625,0.796875 H 1.578125 V 0 c 0.828125,-0.015625 1.6875,-0.03125 2.515625,-0.03125 0.828125,0 1.6875,0.015625 2.515625,0.03125 V -0.453125 H 6.09375 c -1.484375,0 -1.515625,-0.1875 -1.515625,-0.796875 z m 0,0"
                 id="path9445" />
            </g>
          </g>
        </g>
      </g>
    </g>
    <circle
       id="circle1011"
       style="fill:#0000ff;stroke:none;stroke-width:0.264583"
       cx="26.56115"
       cy="-49.798496"
       r="1" />
    <circle
       id="circle1007"
       style="fill:#0000ff;stroke:none;stroke-width:0.264583"
       cx="26.56115"
       cy="-64.21151"
       r="1" />
    <circle
       id="circle1009"
       style="fill:#0000ff;stroke:none;stroke-width:0.264583"
       cx="26.56115"
       cy="-35.385487"
       r="1" />
    <g
       inkscape:label=""
       transform="translate(22.709838,-66.016271)"
       id="g9036">
      <g
         id="surface1"
         transform="matrix(0.352778,0,0,0.352778,-0.242535,0.0641173)">
        <g
           clip-path="url(#clipPath3254)"
           clip-rule="nonzero"
           id="g19">
          <g
             style="fill:#000000;fill-opacity:1"
             id="g17">
            <g
               id="use15"
               transform="translate(0,7.4120002)">
              <path
                 style="stroke:none"
                 d="M 5.1875,-2.046875 C 5.09375,-1.75 5.09375,-1.71875 4.859375,-1.390625 c -0.375,0.484375 -1.140625,1.21875 -1.953125,1.21875 -0.703125,0 -1.09375,-0.640625 -1.09375,-1.65625 0,-0.9375 0.53125,-2.875 0.859375,-3.59375 C 3.25,-6.625 4.0625,-7.25 4.734375,-7.25 c 1.140625,0 1.359375,1.40625 1.359375,1.546875 0,0.015625 -0.046875,0.25 -0.0625,0.28125 z m 1.09375,-4.40625 C 6.09375,-6.90625 5.625,-7.59375 4.734375,-7.59375 c -1.9375,0 -4.046875,2.515625 -4.046875,5.0625 0,1.703125 1,2.703125 2.171875,2.703125 0.953125,0 1.75,-0.734375 2.234375,-1.3125 0.171875,1.015625 0.984375,1.3125 1.5,1.3125 0.515625,0 0.9375,-0.3125 1.234375,-0.921875 C 8.109375,-1.34375 8.34375,-2.390625 8.34375,-2.46875 8.34375,-2.546875 8.28125,-2.625 8.171875,-2.625 8.03125,-2.625 8,-2.53125 7.9375,-2.265625 7.671875,-1.25 7.359375,-0.171875 6.640625,-0.171875 c -0.5,0 -0.53125,-0.453125 -0.53125,-0.796875 0,-0.390625 0.0625,-0.578125 0.203125,-1.25 0.125,-0.4375 0.21875,-0.8125 0.34375,-1.3125 0.640625,-2.578125 0.796875,-3.203125 0.796875,-3.296875 0,-0.25 -0.1875,-0.4375 -0.4375,-0.4375 -0.5625,0 -0.703125,0.609375 -0.734375,0.8125 z m 0,0"
                 id="path26" />
            </g>
          </g>
        </g>
      </g>
    </g>
    <g
       inkscape:label=""
       transform="translate(22.639432,-52.494881)"
       id="g9125">
      <g
         id="g9123"
         transform="matrix(0.352778,0,0,0.352778,-0.275608,-6.6143e-4)">
        <g
           clip-path="url(#clipPath3453)"
           clip-rule="nonzero"
           id="g9121">
          <g
             style="fill:#000000;fill-opacity:1"
             id="g9119">
            <g
               id="g9117"
               transform="translate(0,11.955)">
              <path
                 style="stroke:none"
                 d="M 3.984375,-11.515625 C 4,-11.59375 4.03125,-11.6875 4.03125,-11.78125 c 0,-0.171875 -0.171875,-0.171875 -0.203125,-0.171875 -0.015625,0 -0.640625,0.0625 -0.953125,0.09375 -0.296875,0.01563 -0.546875,0.04687 -0.859375,0.0625 -0.421875,0.03125 -0.53125,0.04687 -0.53125,0.359375 0,0.171875 0.171875,0.171875 0.34375,0.171875 0.875,0 0.875,0.15625 0.875,0.328125 0,0.125 -0.140625,0.625 -0.203125,0.9375 L 2.078125,-8.34375 C 1.90625,-7.65625 0.9375,-3.75 0.859375,-3.4375 0.78125,-3.015625 0.78125,-2.71875 0.78125,-2.5 c 0,1.765625 0.96875,2.671875 2.09375,2.671875 2,0 4.0625,-2.5625 4.0625,-5.0625 0,-1.578125 -0.890625,-2.703125 -2.1875,-2.703125 -0.890625,0 -1.703125,0.734375 -2.03125,1.078125 z m -1.09375,11.34375 c -0.546875,0 -1.15625,-0.40625 -1.15625,-1.75 0,-0.578125 0.0625,-0.90625 0.359375,-2.109375 C 2.15625,-4.25 2.421875,-5.359375 2.5,-5.578125 2.53125,-5.71875 3.546875,-7.25 4.71875,-7.25 c 0.75,0 1.09375,0.765625 1.09375,1.65625 0,0.828125 -0.46875,2.765625 -0.90625,3.671875 -0.421875,0.921875 -1.21875,1.75 -2.015625,1.75 z m 0,0"
                 id="path9115" />
            </g>
          </g>
        </g>
      </g>
    </g>
    <g
       inkscape:label=""
       transform="translate(22.591703,-36.520222)"
       id="g9219">
      <g
         id="g9217"
         transform="matrix(0.352778,0,0,0.352778,-0.242535,0.0641173)">
        <g
           clip-path="url(#clipPath6748)"
           clip-rule="nonzero"
           id="g9215">
          <g
             style="fill:#000000;fill-opacity:1"
             id="g9213">
            <g
               id="g9211"
               transform="translate(0,7.4120002)">
              <path
                 style="stroke:none"
                 d="m 6.734375,-6.46875 c -0.328125,0 -0.484375,0 -0.71875,0.203125 -0.109375,0.078125 -0.296875,0.34375 -0.296875,0.625 0,0.34375 0.25,0.546875 0.578125,0.546875 0.421875,0 0.890625,-0.34375 0.890625,-1.03125 0,-0.828125 -0.796875,-1.46875 -1.984375,-1.46875 -2.265625,0 -4.515625,2.46875 -4.515625,4.90625 0,1.5 0.9375,2.859375 2.6875,2.859375 2.34375,0 3.828125,-1.828125 3.828125,-2.046875 0,-0.109375 -0.109375,-0.1875 -0.171875,-0.1875 -0.0625,0 -0.078125,0.015625 -0.234375,0.171875 -1.09375,1.453125 -2.734375,1.71875 -3.390625,1.71875 -1.1875,0 -1.5625,-1.03125 -1.5625,-1.890625 0,-0.609375 0.296875,-2.28125 0.90625,-3.453125 C 3.203125,-6.3125 4.125,-7.25 5.21875,-7.25 c 0.21875,0 1.171875,0.03125 1.515625,0.78125 z m 0,0"
                 id="path9209" />
            </g>
          </g>
        </g>
      </g>
    </g>
    <g
       id="path14695">
      <path
         style="color:#000000;fill:#000000;-inkscape-stroke:none"
         d="m 197.03516,-62.439453 -32.34766,6.207031 -32.34766,6.205078 0.0859,0.457032 32.34766,-6.207032 32.34765,-6.205078 z"
         id="path924" />
      <g
         id="g914">
        <g
           id="path916">
          <path
             style="color:#000000;fill:#000000;fill-rule:evenodd;stroke-width:0.2325pt;-inkscape-stroke:none"
             d="m 166.10046,-56.267863 c -0.64119,0.359766 -1.46691,0.991678 -1.83596,1.535968 0,0 -0.17524,-0.91334 0.23761,-1.229296 -0.50048,-0.140714 -0.67572,-1.054054 -0.67572,-1.054054 0.54429,0.369049 1.54525,0.650478 2.27407,0.747382 z"
             id="path920" />
          <path
             style="color:#000000;fill:#000000;fill-rule:evenodd;-inkscape-stroke:none"
             d="m 163.60352,-57.353516 0.0703,0.367188 c 0,0 0.0461,0.244036 0.16015,0.507812 0.0936,0.216368 0.28462,0.413496 0.51368,0.546875 -0.16369,0.208725 -0.26658,0.463432 -0.27344,0.699219 -0.008,0.287272 0.0371,0.529297 0.0371,0.529297 l 0.0723,0.367188 0.20899,-0.308594 c 0.34005,-0.501526 1.16004,-1.138628 1.7832,-1.488281 l 0.40625,-0.226563 -0.46094,-0.0625 c -0.70833,-0.09418 -1.7055,-0.38065 -2.20703,-0.720703 z m 0.45898,0.574219 c 0.50981,0.268581 1.13753,0.467359 1.73047,0.572266 -0.51207,0.317097 -1.0226,0.733694 -1.39649,1.171875 -0.007,-0.07758 -0.0166,-0.08646 -0.0137,-0.1875 0.007,-0.248387 0.0721,-0.507498 0.21289,-0.615235 l 0.2461,-0.189453 -0.29688,-0.08398 c -0.17066,-0.04798 -0.32713,-0.262163 -0.42578,-0.490234 -0.0396,-0.09147 -0.0344,-0.103716 -0.0566,-0.177735 z"
             id="path922" />
        </g>
      </g>
    </g>
    <g
       id="path14721">
      <path
         style="color:#000000;fill:#000000;-inkscape-stroke:none"
         d="M 132.47656,-64.423828 132.28906,-64 l 32.34766,14.414063 32.34765,14.412109 0.1875,-0.423828 -32.34765,-14.414063 z"
         id="path910" />
      <g
         id="g900">
        <g
           id="path902">
          <path
             style="color:#000000;fill:#000000;fill-rule:evenodd;stroke-width:0.2325pt;-inkscape-stroke:none"
             d="m 166.00469,-49.230743 c -0.73175,-0.07151 -1.77049,-0.02526 -2.38449,0.210229 0,0 0.37851,-0.849491 0.89788,-0.872611 -0.33012,-0.401625 0.0484,-1.251116 0.0484,-1.251116 0.2355,0.613998 0.89573,1.417248 1.43823,1.913498 z"
             id="path906" />
          <path
             style="color:#000000;fill:#000000;fill-rule:evenodd;-inkscape-stroke:none"
             d="m 164.57812,-51.548828 -0.15234,0.341797 c 0,0 -0.10292,0.226175 -0.16016,0.507812 -0.047,0.231166 -0.003,0.501685 0.10938,0.742188 -0.25333,0.07778 -0.48465,0.226659 -0.625,0.416015 -0.17113,0.230889 -0.27148,0.457032 -0.27148,0.457032 l -0.15235,0.341797 0.34961,-0.132813 c 0.56576,-0.216988 1.60328,-0.270672 2.31445,-0.201172 h 0.008 0.006 0.40039 l -0.29493,-0.269531 c -0.52724,-0.482299 -1.18143,-1.287756 -1.39843,-1.853516 z m 0.0469,0.732422 c 0.26474,0.512198 0.66702,1.033671 1.09375,1.458984 -0.60082,-0.03277 -1.25706,0.01687 -1.81445,0.16211 0.0384,-0.06698 0.0345,-0.08019 0.0937,-0.160157 0.14796,-0.199636 0.35024,-0.374929 0.52734,-0.382812 l 0.30859,-0.01367 -0.19531,-0.240234 c -0.11257,-0.13695 -0.11785,-0.402971 -0.0684,-0.646485 0.0198,-0.09748 0.0306,-0.104389 0.0547,-0.177734 z m 1.37891,1.429687 0.0156,0.002 c -0.005,-5.27e-4 -0.0121,0.0025 -0.0176,0.002 z"
             id="path908" />
        </g>
      </g>
    </g>
    <g
       id="path14747">
      <path
         style="color:#000000;fill:#000000;-inkscape-stroke:none"
         d="m 132.38281,-35.617187 v 0.464843 h 34.18555 30.50976 v -0.464843 h -30.50976 z"
         id="path896" />
      <g
         id="g886">
        <g
           id="path888">
          <path
             style="color:#000000;fill:#000000;fill-rule:evenodd;stroke-width:0.2325pt;-inkscape-stroke:none"
             d="m 167.96261,-35.385487 c -0.6975,0.2325 -1.6275,0.6975 -2.0925,1.1625 0,0 0,-0.93 0.465,-1.1625 -0.465,-0.2325 -0.465,-1.1625 -0.465,-1.1625 0.465,0.465 1.395,0.93 2.0925,1.1625 z"
             id="path892" />
          <path
             style="color:#000000;fill:#000000;fill-rule:evenodd;-inkscape-stroke:none"
             d="m 165.71484,-36.921875 v 0.373047 c 0,0 1.6e-4,0.248747 0.0625,0.529297 0.0512,0.230193 0.20045,0.460618 0.40039,0.634765 -0.19994,0.174148 -0.34923,0.404573 -0.40039,0.634766 -0.0623,0.28055 -0.0625,0.527344 -0.0625,0.527344 v 0.373047 l 0.26563,-0.263672 c 0.42846,-0.428466 1.35336,-0.899036 2.03125,-1.125 l 0.4414,-0.146485 -0.4414,-0.148437 c -0.67789,-0.225965 -1.60279,-0.696534 -2.03125,-1.125 z m 0.34375,0.650391 c 0.4497,0.359134 1.02817,0.672195 1.58985,0.886718 -0.56153,0.21454 -1.14035,0.527718 -1.58985,0.886719 0.008,-0.07702 -2e-4,-0.08793 0.0215,-0.185547 0.0539,-0.242574 0.16566,-0.483219 0.32422,-0.5625 l 0.27734,-0.138672 -0.27734,-0.138671 c -0.15856,-0.07928 -0.27032,-0.321879 -0.32422,-0.564454 -0.0215,-0.0966 -0.0136,-0.107029 -0.0215,-0.183593 z"
             id="path894" />
        </g>
      </g>
    </g>
    <circle
       id="circle10844"
       style="fill:#0000ff;stroke:none;stroke-width:0.264583"
       cx="197.07809"
       cy="-62.211506"
       r="1" />
    <circle
       id="circle10850"
       style="fill:#0000ff;stroke:none;stroke-width:0.264583"
       cx="197.07809"
       cy="-35.385487"
       r="1" />
    <g
       inkscape:label=""
       transform="translate(198.6623,-37.547259)"
       id="g10898">
      <g
         id="g10896"
         transform="matrix(0.352778,0,0,0.352778,-0.248047,0.0980722)">
        <g
           clip-path="url(#clipPath5562)"
           clip-rule="nonzero"
           id="g10894">
          <g
             style="fill:#000000;fill-opacity:1"
             id="g10892">
            <g
               id="g10890"
               transform="translate(0,11.097)">
              <path
                 style="stroke:none"
                 d="M 7.1875,-2.671875 H 6.875 c -0.171875,1.21875 -0.3125,1.4375 -0.390625,1.53125 C 6.40625,-1 5.171875,-1 4.921875,-1 H 1.625 c 0.609375,-0.671875 1.8125,-1.890625 3.28125,-3.3125 1.046875,-0.984375 2.28125,-2.15625 2.28125,-3.859375 0,-2.03125 -1.625,-3.203125 -3.4375,-3.203125 -1.890625,0 -3.046875,1.65625 -3.046875,3.21875 0,0.671875 0.5,0.75 0.703125,0.75 0.171875,0 0.6875,-0.09375 0.6875,-0.703125 0,-0.53125 -0.4375,-0.6875 -0.6875,-0.6875 -0.09375,0 -0.203125,0.015625 -0.265625,0.046875 0.328125,-1.453125 1.328125,-2.1875 2.375,-2.1875 1.5,0 2.46875,1.1875 2.46875,2.765625 0,1.484375 -0.875,2.78125 -1.859375,3.90625 l -3.421875,3.875 V 0 h 6.0625 z m 0,0"
                 id="path10888" />
            </g>
          </g>
        </g>
      </g>
    </g>
    <g
       inkscape:label=""
       transform="translate(198.43949,-64.273936)"
       id="g10910">
      <g
         id="g10908"
         transform="matrix(0.352778,0,0,0.352778,-0.529167,0.0980722)">
        <g
           clip-path="url(#clipPath3897)"
           clip-rule="nonzero"
           id="g10906">
          <g
             style="fill:#000000;fill-opacity:1"
             id="g10904">
            <g
               id="g10902"
               transform="translate(0,11.097)">
              <path
                 style="stroke:none"
                 d="m 4.578125,-11 c 0,-0.359375 -0.015625,-0.375 -0.25,-0.375 -0.671875,0.796875 -1.6875,1.0625 -2.65625,1.09375 -0.046875,0 -0.140625,0 -0.15625,0.03125 C 1.5,-10.203125 1.5,-10.171875 1.5,-9.8125 c 0.53125,0 1.421875,-0.109375 2.109375,-0.515625 V -1.25 c 0,0.59375 -0.03125,0.796875 -1.515625,0.796875 H 1.578125 V 0 c 0.828125,-0.015625 1.6875,-0.03125 2.515625,-0.03125 0.828125,0 1.6875,0.015625 2.515625,0.03125 V -0.453125 H 6.09375 c -1.484375,0 -1.515625,-0.1875 -1.515625,-0.796875 z m 0,0"
                 id="path10900" />
            </g>
          </g>
        </g>
      </g>
    </g>
    <circle
       id="circle10842"
       style="fill:#0000ff;stroke:none;stroke-width:0.264583"
       cx="132.38281"
       cy="-64.21151"
       r="1" />
    <g
       inkscape:label=""
       transform="translate(128.53149,-66.016271)"
       id="g10862">
      <g
         id="g10860"
         transform="matrix(0.352778,0,0,0.352778,-0.242535,0.0641173)">
        <g
           clip-path="url(#clipPath3254)"
           clip-rule="nonzero"
           id="g10858">
          <g
             style="fill:#000000;fill-opacity:1"
             id="g10856">
            <g
               id="g10854"
               transform="translate(0,7.4120002)">
              <path
                 style="stroke:none"
                 d="M 5.1875,-2.046875 C 5.09375,-1.75 5.09375,-1.71875 4.859375,-1.390625 c -0.375,0.484375 -1.140625,1.21875 -1.953125,1.21875 -0.703125,0 -1.09375,-0.640625 -1.09375,-1.65625 0,-0.9375 0.53125,-2.875 0.859375,-3.59375 C 3.25,-6.625 4.0625,-7.25 4.734375,-7.25 c 1.140625,0 1.359375,1.40625 1.359375,1.546875 0,0.015625 -0.046875,0.25 -0.0625,0.28125 z m 1.09375,-4.40625 C 6.09375,-6.90625 5.625,-7.59375 4.734375,-7.59375 c -1.9375,0 -4.046875,2.515625 -4.046875,5.0625 0,1.703125 1,2.703125 2.171875,2.703125 0.953125,0 1.75,-0.734375 2.234375,-1.3125 0.171875,1.015625 0.984375,1.3125 1.5,1.3125 0.515625,0 0.9375,-0.3125 1.234375,-0.921875 C 8.109375,-1.34375 8.34375,-2.390625 8.34375,-2.46875 8.34375,-2.546875 8.28125,-2.625 8.171875,-2.625 8.03125,-2.625 8,-2.53125 7.9375,-2.265625 7.671875,-1.25 7.359375,-0.171875 6.640625,-0.171875 c -0.5,0 -0.53125,-0.453125 -0.53125,-0.796875 0,-0.390625 0.0625,-0.578125 0.203125,-1.25 0.125,-0.4375 0.21875,-0.8125 0.34375,-1.3125 0.640625,-2.578125 0.796875,-3.203125 0.796875,-3.296875 0,-0.25 -0.1875,-0.4375 -0.4375,-0.4375 -0.5625,0 -0.703125,0.609375 -0.734375,0.8125 z m 0,0"
                 id="path10852" />
            </g>
          </g>
        </g>
      </g>
    </g>
    <g
       inkscape:label=""
       transform="translate(128.46109,-52.494881)"
       id="g10874">
      <g
         id="g10872"
         transform="matrix(0.352778,0,0,0.352778,-0.275608,-6.6143e-4)">
        <g
           clip-path="url(#clipPath3453)"
           clip-rule="nonzero"
           id="g10870">
          <g
             style="fill:#000000;fill-opacity:1"
             id="g10868">
            <g
               id="g10866"
               transform="translate(0,11.955)">
              <path
                 style="stroke:none"
                 d="M 3.984375,-11.515625 C 4,-11.59375 4.03125,-11.6875 4.03125,-11.78125 c 0,-0.171875 -0.171875,-0.171875 -0.203125,-0.171875 -0.015625,0 -0.640625,0.0625 -0.953125,0.09375 -0.296875,0.01563 -0.546875,0.04687 -0.859375,0.0625 -0.421875,0.03125 -0.53125,0.04687 -0.53125,0.359375 0,0.171875 0.171875,0.171875 0.34375,0.171875 0.875,0 0.875,0.15625 0.875,0.328125 0,0.125 -0.140625,0.625 -0.203125,0.9375 L 2.078125,-8.34375 C 1.90625,-7.65625 0.9375,-3.75 0.859375,-3.4375 0.78125,-3.015625 0.78125,-2.71875 0.78125,-2.5 c 0,1.765625 0.96875,2.671875 2.09375,2.671875 2,0 4.0625,-2.5625 4.0625,-5.0625 0,-1.578125 -0.890625,-2.703125 -2.1875,-2.703125 -0.890625,0 -1.703125,0.734375 -2.03125,1.078125 z m -1.09375,11.34375 c -0.546875,0 -1.15625,-0.40625 -1.15625,-1.75 0,-0.578125 0.0625,-0.90625 0.359375,-2.109375 C 2.15625,-4.25 2.421875,-5.359375 2.5,-5.578125 2.53125,-5.71875 3.546875,-7.25 4.71875,-7.25 c 0.75,0 1.09375,0.765625 1.09375,1.65625 0,0.828125 -0.46875,2.765625 -0.90625,3.671875 -0.421875,0.921875 -1.21875,1.75 -2.015625,1.75 z m 0,0"
                 id="path10864" />
            </g>
          </g>
        </g>
      </g>
    </g>
    <g
       inkscape:label=""
       transform="translate(128.41336,-36.520222)"
       id="g10886">
      <g
         id="g10884"
         transform="matrix(0.352778,0,0,0.352778,-0.242535,0.0641173)">
        <g
           clip-path="url(#clipPath6748)"
           clip-rule="nonzero"
           id="g10882">
          <g
             style="fill:#000000;fill-opacity:1"
             id="g10880">
            <g
               id="g10878"
               transform="translate(0,7.4120002)">
              <path
                 style="stroke:none"
                 d="m 6.734375,-6.46875 c -0.328125,0 -0.484375,0 -0.71875,0.203125 -0.109375,0.078125 -0.296875,0.34375 -0.296875,0.625 0,0.34375 0.25,0.546875 0.578125,0.546875 0.421875,0 0.890625,-0.34375 0.890625,-1.03125 0,-0.828125 -0.796875,-1.46875 -1.984375,-1.46875 -2.265625,0 -4.515625,2.46875 -4.515625,4.90625 0,1.5 0.9375,2.859375 2.6875,2.859375 2.34375,0 3.828125,-1.828125 3.828125,-2.046875 0,-0.109375 -0.109375,-0.1875 -0.171875,-0.1875 -0.0625,0 -0.078125,0.015625 -0.234375,0.171875 -1.09375,1.453125 -2.734375,1.71875 -3.390625,1.71875 -1.1875,0 -1.5625,-1.03125 -1.5625,-1.890625 0,-0.609375 0.296875,-2.28125 0.90625,-3.453125 C 3.203125,-6.3125 4.125,-7.25 5.21875,-7.25 c 0.21875,0 1.171875,0.03125 1.515625,0.78125 z m 0,0"
                 id="path10876" />
            </g>
          </g>
        </g>
      </g>
    </g>
    <circle
       id="circle10840"
       style="fill:#0000ff;stroke:none;stroke-width:0.264583"
       cx="132.38281"
       cy="-49.798496"
       r="1" />
    <circle
       id="circle10848"
       style="fill:#0000ff;stroke:none;stroke-width:0.264583"
       cx="132.38281"
       cy="-35.385487"
       r="1" />
    <g
       id="path14789">
      <path
         style="color:#000000;fill:#000000;-inkscape-stroke:none"
         d="m 304.08984,-61.576172 -19.36523,8.03125 -45.33008,18.794922 0.17774,0.429688 45.33007,-18.794922 19.36524,-8.03125 z"
         id="path854" />
      <g
         id="g844">
        <g
           id="path846">
          <path
             style="color:#000000;fill:#000000;fill-rule:evenodd;stroke-width:0.2325pt;-inkscape-stroke:none"
             d="m 286.10209,-53.86484 c -0.55525,0.481932 -1.23622,1.267686 -1.48764,1.875332 0,0 -0.35622,-0.859075 -0.0157,-1.251952 -0.51859,-0.03666 -0.87481,-0.895735 -0.87481,-0.895735 0.60765,0.251429 1.64483,0.32475 2.37819,0.272355 z"
             id="path850" />
          <path
             style="color:#000000;fill:#000000;fill-rule:evenodd;-inkscape-stroke:none"
             d="m 283.4375,-54.423828 0.14258,0.345703 c 0,0 0.0947,0.229569 0.25976,0.464844 0.13574,0.193484 0.36297,0.349717 0.61524,0.433594 -0.11699,0.237073 -0.16972,0.50665 -0.12891,0.738281 0.0499,0.283035 0.14453,0.511719 0.14453,0.511719 l 0.14453,0.345703 0.14258,-0.345703 c 0.23167,-0.559902 0.90567,-1.349975 1.44531,-1.81836 l -0.0898,0.03516 -0.0117,-0.30664 h -0.01 c -0.71275,0.05092 -1.74869,-0.03004 -2.3086,-0.261719 z m 0.56641,0.46875 c 0.55308,0.159493 1.20756,0.226001 1.80859,0.208984 -0.43727,0.413684 -0.85283,0.924991 -1.13086,1.429688 -0.0221,-0.07384 -0.0336,-0.08004 -0.0508,-0.177735 -0.0431,-0.24472 -0.0302,-0.512513 0.0859,-0.646484 l 0.20117,-0.234375 -0.3086,-0.02148 c -0.17683,-0.0125 -0.37291,-0.193057 -0.51562,-0.396485 -0.0571,-0.08135 -0.0532,-0.09422 -0.0898,-0.162109 z m 2.09765,0.242187 c 0.002,-1.29e-4 0.004,0.0021 0.006,0.002 l -0.006,0.002 z"
             id="path852" />
        </g>
      </g>
    </g>
    <g
       id="path14815">
      <path
         style="color:#000000;fill:#000000;-inkscape-stroke:none"
         d="m 239.57812,-63.572266 -0.18945,0.423829 39.51953,17.609375 25.17578,11.216796 0.18946,-0.423828 -25.17578,-11.21875 z"
         id="path868" />
      <g
         id="g858">
        <g
           id="path860">
          <path
             style="color:#000000;fill:#000000;fill-rule:evenodd;stroke-width:0.2325pt;-inkscape-stroke:none"
             d="m 280.27733,-45.184148 c -0.73175,-0.07151 -1.77049,-0.02526 -2.38449,0.210229 0,0 0.37851,-0.849491 0.89788,-0.872611 -0.33012,-0.401625 0.0484,-1.251116 0.0484,-1.251116 0.2355,0.613998 0.89573,1.417248 1.43823,1.913498 z"
             id="path864" />
          <path
             style="color:#000000;fill:#000000;fill-rule:evenodd;-inkscape-stroke:none"
             d="m 278.84961,-47.501953 -0.15234,0.341797 c 0,0 -0.10097,0.224222 -0.15821,0.505859 -0.0469,0.230678 -0.002,0.502013 0.10938,0.742188 -0.25455,0.07718 -0.4842,0.228001 -0.625,0.417968 -0.17113,0.230889 -0.27149,0.457032 -0.27149,0.457032 l -0.15234,0.341797 0.34961,-0.134766 c 0.56576,-0.216988 1.60132,-0.268719 2.3125,-0.199219 h 0.008 0.008 0.39844 l -0.29297,-0.269531 c -0.52725,-0.482299 -1.18144,-1.287756 -1.39844,-1.853516 z m 0.0488,0.730469 c 0.26491,0.512553 0.66675,1.035501 1.09375,1.460937 -0.60083,-0.03277 -1.25706,0.01687 -1.81446,0.16211 0.0385,-0.06698 0.0345,-0.08019 0.0937,-0.160157 0.14797,-0.199636 0.3483,-0.374929 0.52539,-0.382812 l 0.31055,-0.01367 -0.19726,-0.240234 c -0.11257,-0.13695 -0.1159,-0.402971 -0.0664,-0.646485 0.02,-0.09858 0.0304,-0.105903 0.0547,-0.179687 z m 1.3789,1.43164 0.0156,0.002 c -0.005,-5.27e-4 -0.0122,0.0025 -0.0176,0.002 z"
             id="path866" />
        </g>
      </g>
    </g>
    <g
       id="path14841">
      <path
         style="color:#000000;fill:#000000;-inkscape-stroke:none"
         d="m 239.53516,-49.173828 -0.10157,0.453125 43.31836,9.650391 21.37696,4.763671 0.0996,-0.455078 -21.375,-4.761718 z"
         id="path882" />
      <g
         id="g872">
        <g
           id="path874">
          <path
             style="color:#000000;fill:#000000;fill-rule:evenodd;stroke-width:0.2325pt;-inkscape-stroke:none"
             d="m 284.16361,-38.993478 c -0.73137,0.07526 -1.74023,0.326906 -2.29522,0.679664 0,0 0.20223,-0.907746 0.70666,-1.033568 -0.40331,-0.328051 -0.20108,-1.235797 -0.20108,-1.235797 0.35276,0.554988 1.15939,1.211091 1.78964,1.589701 z"
             id="path878" />
          <path
             style="color:#000000;fill:#000000;fill-rule:evenodd;-inkscape-stroke:none"
             d="m 282.30469,-40.982422 -0.082,0.365235 c 0,0 -0.0545,0.241903 -0.0547,0.529296 -1.3e-4,0.235973 0.0963,0.493522 0.2539,0.707032 -0.23289,0.126537 -0.42934,0.317758 -0.52929,0.53125 -0.12186,0.260279 -0.17578,0.501953 -0.17578,0.501953 l -0.082,0.365234 0.3164,-0.201172 c 0.51139,-0.325043 1.51771,-0.583105 2.22852,-0.65625 l 0.46289,-0.04687 -0.39844,-0.240234 c -0.61253,-0.367967 -1.41519,-1.027679 -1.74023,-1.539063 z m 0.19336,0.708985 c 0.3609,0.448415 0.85771,0.879386 1.35937,1.210937 -0.5947,0.08723 -1.22718,0.2669 -1.74414,0.519531 0.0243,-0.07286 0.0187,-0.08453 0.0606,-0.173828 0.10536,-0.225048 0.26745,-0.437565 0.43945,-0.480469 l 0.30078,-0.07422 -0.24023,-0.195313 c -0.13753,-0.111861 -0.19545,-0.372602 -0.19531,-0.621094 5e-5,-0.100064 0.0104,-0.108629 0.0195,-0.185546 z"
             id="path880" />
        </g>
      </g>
    </g>
    <circle
       id="circle12414"
       style="fill:#0000ff;stroke:none;stroke-width:0.264583"
       cx="304.17889"
       cy="-61.360428"
       r="1" />
    <circle
       id="circle12420"
       style="fill:#0000ff;stroke:none;stroke-width:0.264583"
       cx="304.17889"
       cy="-34.534409"
       r="1" />
    <g
       inkscape:label=""
       transform="translate(305.76313,-36.696182)"
       id="g12468">
      <g
         id="g12466"
         transform="matrix(0.352778,0,0,0.352778,-0.248047,0.0980722)">
        <g
           clip-path="url(#clipPath5562)"
           clip-rule="nonzero"
           id="g12464">
          <g
             style="fill:#000000;fill-opacity:1"
             id="g12462">
            <g
               id="g12460"
               transform="translate(0,11.097)">
              <path
                 style="stroke:none"
                 d="M 7.1875,-2.671875 H 6.875 c -0.171875,1.21875 -0.3125,1.4375 -0.390625,1.53125 C 6.40625,-1 5.171875,-1 4.921875,-1 H 1.625 c 0.609375,-0.671875 1.8125,-1.890625 3.28125,-3.3125 1.046875,-0.984375 2.28125,-2.15625 2.28125,-3.859375 0,-2.03125 -1.625,-3.203125 -3.4375,-3.203125 -1.890625,0 -3.046875,1.65625 -3.046875,3.21875 0,0.671875 0.5,0.75 0.703125,0.75 0.171875,0 0.6875,-0.09375 0.6875,-0.703125 0,-0.53125 -0.4375,-0.6875 -0.6875,-0.6875 -0.09375,0 -0.203125,0.015625 -0.265625,0.046875 0.328125,-1.453125 1.328125,-2.1875 2.375,-2.1875 1.5,0 2.46875,1.1875 2.46875,2.765625 0,1.484375 -0.875,2.78125 -1.859375,3.90625 l -3.421875,3.875 V 0 h 6.0625 z m 0,0"
                 id="path12458" />
            </g>
          </g>
        </g>
      </g>
    </g>
    <g
       inkscape:label=""
       transform="translate(305.54032,-63.422859)"
       id="g12480">
      <g
         id="g12478"
         transform="matrix(0.352778,0,0,0.352778,-0.529167,0.0980722)">
        <g
           clip-path="url(#clipPath3897)"
           clip-rule="nonzero"
           id="g12476">
          <g
             style="fill:#000000;fill-opacity:1"
             id="g12474">
            <g
               id="g12472"
               transform="translate(0,11.097)">
              <path
                 style="stroke:none"
                 d="m 4.578125,-11 c 0,-0.359375 -0.015625,-0.375 -0.25,-0.375 -0.671875,0.796875 -1.6875,1.0625 -2.65625,1.09375 -0.046875,0 -0.140625,0 -0.15625,0.03125 C 1.5,-10.203125 1.5,-10.171875 1.5,-9.8125 c 0.53125,0 1.421875,-0.109375 2.109375,-0.515625 V -1.25 c 0,0.59375 -0.03125,0.796875 -1.515625,0.796875 H 1.578125 V 0 c 0.828125,-0.015625 1.6875,-0.03125 2.515625,-0.03125 0.828125,0 1.6875,0.015625 2.515625,0.03125 V -0.453125 H 6.09375 c -1.484375,0 -1.515625,-0.1875 -1.515625,-0.796875 z m 0,0"
                 id="path12470" />
            </g>
          </g>
        </g>
      </g>
    </g>
    <circle
       id="circle12410"
       style="fill:#0000ff;stroke:none;stroke-width:0.264583"
       cx="239.48364"
       cy="-48.947418"
       r="1" />
    <circle
       id="circle12412"
       style="fill:#0000ff;stroke:none;stroke-width:0.264583"
       cx="239.48364"
       cy="-63.360432"
       r="1" />
    <circle
       id="circle12418"
       style="fill:#0000ff;stroke:none;stroke-width:0.264583"
       cx="239.48364"
       cy="-34.534409"
       r="1" />
    <g
       inkscape:label=""
       transform="translate(235.63232,-65.165194)"
       id="g12432">
      <g
         id="g12430"
         transform="matrix(0.352778,0,0,0.352778,-0.242535,0.0641173)">
        <g
           clip-path="url(#clipPath3254)"
           clip-rule="nonzero"
           id="g12428">
          <g
             style="fill:#000000;fill-opacity:1"
             id="g12426">
            <g
               id="g12424"
               transform="translate(0,7.4120002)">
              <path
                 style="stroke:none"
                 d="M 5.1875,-2.046875 C 5.09375,-1.75 5.09375,-1.71875 4.859375,-1.390625 c -0.375,0.484375 -1.140625,1.21875 -1.953125,1.21875 -0.703125,0 -1.09375,-0.640625 -1.09375,-1.65625 0,-0.9375 0.53125,-2.875 0.859375,-3.59375 C 3.25,-6.625 4.0625,-7.25 4.734375,-7.25 c 1.140625,0 1.359375,1.40625 1.359375,1.546875 0,0.015625 -0.046875,0.25 -0.0625,0.28125 z m 1.09375,-4.40625 C 6.09375,-6.90625 5.625,-7.59375 4.734375,-7.59375 c -1.9375,0 -4.046875,2.515625 -4.046875,5.0625 0,1.703125 1,2.703125 2.171875,2.703125 0.953125,0 1.75,-0.734375 2.234375,-1.3125 0.171875,1.015625 0.984375,1.3125 1.5,1.3125 0.515625,0 0.9375,-0.3125 1.234375,-0.921875 C 8.109375,-1.34375 8.34375,-2.390625 8.34375,-2.46875 8.34375,-2.546875 8.28125,-2.625 8.171875,-2.625 8.03125,-2.625 8,-2.53125 7.9375,-2.265625 7.671875,-1.25 7.359375,-0.171875 6.640625,-0.171875 c -0.5,0 -0.53125,-0.453125 -0.53125,-0.796875 0,-0.390625 0.0625,-0.578125 0.203125,-1.25 0.125,-0.4375 0.21875,-0.8125 0.34375,-1.3125 0.640625,-2.578125 0.796875,-3.203125 0.796875,-3.296875 0,-0.25 -0.1875,-0.4375 -0.4375,-0.4375 -0.5625,0 -0.703125,0.609375 -0.734375,0.8125 z m 0,0"
                 id="path12422" />
            </g>
          </g>
        </g>
      </g>
    </g>
    <g
       inkscape:label=""
       transform="translate(235.56192,-51.643804)"
       id="g12444">
      <g
         id="g12442"
         transform="matrix(0.352778,0,0,0.352778,-0.275608,-6.6143e-4)">
        <g
           clip-path="url(#clipPath3453)"
           clip-rule="nonzero"
           id="g12440">
          <g
             style="fill:#000000;fill-opacity:1"
             id="g12438">
            <g
               id="g12436"
               transform="translate(0,11.955)">
              <path
                 style="stroke:none"
                 d="M 3.984375,-11.515625 C 4,-11.59375 4.03125,-11.6875 4.03125,-11.78125 c 0,-0.171875 -0.171875,-0.171875 -0.203125,-0.171875 -0.015625,0 -0.640625,0.0625 -0.953125,0.09375 -0.296875,0.01563 -0.546875,0.04687 -0.859375,0.0625 -0.421875,0.03125 -0.53125,0.04687 -0.53125,0.359375 0,0.171875 0.171875,0.171875 0.34375,0.171875 0.875,0 0.875,0.15625 0.875,0.328125 0,0.125 -0.140625,0.625 -0.203125,0.9375 L 2.078125,-8.34375 C 1.90625,-7.65625 0.9375,-3.75 0.859375,-3.4375 0.78125,-3.015625 0.78125,-2.71875 0.78125,-2.5 c 0,1.765625 0.96875,2.671875 2.09375,2.671875 2,0 4.0625,-2.5625 4.0625,-5.0625 0,-1.578125 -0.890625,-2.703125 -2.1875,-2.703125 -0.890625,0 -1.703125,0.734375 -2.03125,1.078125 z m -1.09375,11.34375 c -0.546875,0 -1.15625,-0.40625 -1.15625,-1.75 0,-0.578125 0.0625,-0.90625 0.359375,-2.109375 C 2.15625,-4.25 2.421875,-5.359375 2.5,-5.578125 2.53125,-5.71875 3.546875,-7.25 4.71875,-7.25 c 0.75,0 1.09375,0.765625 1.09375,1.65625 0,0.828125 -0.46875,2.765625 -0.90625,3.671875 -0.421875,0.921875 -1.21875,1.75 -2.015625,1.75 z m 0,0"
                 id="path12434" />
            </g>
          </g>
        </g>
      </g>
    </g>
    <g
       inkscape:label=""
       transform="translate(235.51419,-35.669145)"
       id="g12456">
      <g
         id="g12454"
         transform="matrix(0.352778,0,0,0.352778,-0.242535,0.0641173)">
        <g
           clip-path="url(#clipPath6748)"
           clip-rule="nonzero"
           id="g12452">
          <g
             style="fill:#000000;fill-opacity:1"
             id="g12450">
            <g
               id="g12448"
               transform="translate(0,7.4120002)">
              <path
                 style="stroke:none"
                 d="m 6.734375,-6.46875 c -0.328125,0 -0.484375,0 -0.71875,0.203125 -0.109375,0.078125 -0.296875,0.34375 -0.296875,0.625 0,0.34375 0.25,0.546875 0.578125,0.546875 0.421875,0 0.890625,-0.34375 0.890625,-1.03125 0,-0.828125 -0.796875,-1.46875 -1.984375,-1.46875 -2.265625,0 -4.515625,2.46875 -4.515625,4.90625 0,1.5 0.9375,2.859375 2.6875,2.859375 2.34375,0 3.828125,-1.828125 3.828125,-2.046875 0,-0.109375 -0.109375,-0.1875 -0.171875,-0.1875 -0.0625,0 -0.078125,0.015625 -0.234375,0.171875 -1.09375,1.453125 -2.734375,1.71875 -3.390625,1.71875 -1.1875,0 -1.5625,-1.03125 -1.5625,-1.890625 0,-0.609375 0.296875,-2.28125 0.90625,-3.453125 C 3.203125,-6.3125 4.125,-7.25 5.21875,-7.25 c 0.21875,0 1.171875,0.03125 1.515625,0.78125 z m 0,0"
                 id="path12446" />
            </g>
          </g>
        </g>
      </g>
    </g>
    <g
       inkscape:label=""
       transform="matrix(1.2491522,0,0,1.2306801,46.239098,-16.801522)"
       id="g15754"
       style="stroke-width:0.806529">
      <g
         id="g15752"
         transform="matrix(0.352778,0,0,0.352778,-0.242535,-0.00224907)"
         style="stroke-width:0.806529">
        <g
           style="fill:#000000;fill-opacity:1;stroke-width:0.806529"
           id="g35">
          <g
             id="use33"
             transform="translate(0,12.897)"
             style="stroke-width:0.806529">
            <path
               style="stroke:none;stroke-width:0.806529"
               d="M 5.1875,-2.046875 C 5.09375,-1.75 5.09375,-1.71875 4.859375,-1.390625 c -0.375,0.484375 -1.140625,1.21875 -1.953125,1.21875 -0.703125,0 -1.09375,-0.640625 -1.09375,-1.65625 0,-0.9375 0.53125,-2.875 0.859375,-3.59375 C 3.25,-6.625 4.0625,-7.25 4.734375,-7.25 c 1.140625,0 1.359375,1.40625 1.359375,1.546875 0,0.015625 -0.046875,0.25 -0.0625,0.28125 z m 1.09375,-4.40625 C 6.09375,-6.90625 5.625,-7.59375 4.734375,-7.59375 c -1.9375,0 -4.046875,2.515625 -4.046875,5.0625 0,1.703125 1,2.703125 2.171875,2.703125 0.953125,0 1.75,-0.734375 2.234375,-1.3125 0.171875,1.015625 0.984375,1.3125 1.5,1.3125 0.515625,0 0.9375,-0.3125 1.234375,-0.921875 C 8.109375,-1.34375 8.34375,-2.390625 8.34375,-2.46875 8.34375,-2.546875 8.28125,-2.625 8.171875,-2.625 8.03125,-2.625 8,-2.53125 7.9375,-2.265625 7.671875,-1.25 7.359375,-0.171875 6.640625,-0.171875 c -0.5,0 -0.53125,-0.453125 -0.53125,-0.796875 0,-0.390625 0.0625,-0.578125 0.203125,-1.25 0.125,-0.4375 0.21875,-0.8125 0.34375,-1.3125 0.640625,-2.578125 0.796875,-3.203125 0.796875,-3.296875 0,-0.25 -0.1875,-0.4375 -0.4375,-0.4375 -0.5625,0 -0.703125,0.609375 -0.734375,0.8125 z m 0,0"
               id="path62" />
          </g>
        </g>
        <g
           clip-path="url(#clipPath463)"
           clip-rule="nonzero"
           id="g41"
           style="stroke-width:0.650488">
          <g
             style="fill:#000000;fill-opacity:1;stroke-width:0.806529"
             id="g39">
            <g
               id="use37"
               transform="translate(14.046,12.897)"
               style="stroke-width:0.806529">
              <path
                 style="stroke:none;stroke-width:0.806529"
                 d="m 5.265625,4.203125 c 0,-0.015625 0,-0.046875 -0.046875,-0.109375 -0.796875,-0.8125 -2.90625,-3.015625 -2.90625,-8.375 0,-5.375 2.078125,-7.5625 2.921875,-8.421875 0,-0.01563 0.03125,-0.0625 0.03125,-0.109375 0,-0.04687 -0.046875,-0.07813 -0.125,-0.07813 -0.1875,0 -1.640625,1.265625 -2.484375,3.15625 -0.859375,1.921875 -1.109375,3.78125 -1.109375,5.421875 0,1.25 0.125,3.34375 1.15625,5.5625 0.828125,1.796875 2.234375,3.0625 2.4375,3.0625 0.09375,0 0.125,-0.046875 0.125,-0.109375 z m 0,0"
                 id="path66" />
            </g>
          </g>
        </g>
        <g
           style="fill:#000000;fill-opacity:1;stroke-width:0.806529"
           id="g45">
          <g
             id="use43"
             transform="translate(20.142,12.897)"
             style="stroke-width:0.806529">
            <path
               style="stroke:none;stroke-width:0.806529"
               d="M 3.984375,-11.515625 C 4,-11.59375 4.03125,-11.6875 4.03125,-11.78125 c 0,-0.171875 -0.171875,-0.171875 -0.203125,-0.171875 -0.015625,0 -0.640625,0.0625 -0.953125,0.09375 -0.296875,0.01563 -0.546875,0.04687 -0.859375,0.0625 -0.421875,0.03125 -0.53125,0.04687 -0.53125,0.359375 0,0.171875 0.171875,0.171875 0.34375,0.171875 0.875,0 0.875,0.15625 0.875,0.328125 0,0.125 -0.140625,0.625 -0.203125,0.9375 L 2.078125,-8.34375 C 1.90625,-7.65625 0.9375,-3.75 0.859375,-3.4375 0.78125,-3.015625 0.78125,-2.71875 0.78125,-2.5 c 0,1.765625 0.96875,2.671875 2.09375,2.671875 2,0 4.0625,-2.5625 4.0625,-5.0625 0,-1.578125 -0.890625,-2.703125 -2.1875,-2.703125 -0.890625,0 -1.703125,0.734375 -2.03125,1.078125 z m -1.09375,11.34375 c -0.546875,0 -1.15625,-0.40625 -1.15625,-1.75 0,-0.578125 0.0625,-0.90625 0.359375,-2.109375 C 2.15625,-4.25 2.421875,-5.359375 2.5,-5.578125 2.53125,-5.71875 3.546875,-7.25 4.71875,-7.25 c 0.75,0 1.09375,0.765625 1.09375,1.65625 0,0.828125 -0.46875,2.765625 -0.90625,3.671875 -0.421875,0.921875 -1.21875,1.75 -2.015625,1.75 z m 0,0"
               id="path70" />
          </g>
        </g>
        <g
           style="fill:#000000;fill-opacity:1;stroke-width:0.806529"
           id="g49">
          <g
             id="use47"
             transform="translate(32.50782,12.897)"
             style="stroke-width:0.806529">
            <path
               style="stroke:none;stroke-width:0.806529"
               d="m 6.734375,-6.46875 c -0.328125,0 -0.484375,0 -0.71875,0.203125 -0.109375,0.078125 -0.296875,0.34375 -0.296875,0.625 0,0.34375 0.25,0.546875 0.578125,0.546875 0.421875,0 0.890625,-0.34375 0.890625,-1.03125 0,-0.828125 -0.796875,-1.46875 -1.984375,-1.46875 -2.265625,0 -4.515625,2.46875 -4.515625,4.90625 0,1.5 0.9375,2.859375 2.6875,2.859375 2.34375,0 3.828125,-1.828125 3.828125,-2.046875 0,-0.109375 -0.109375,-0.1875 -0.171875,-0.1875 -0.0625,0 -0.078125,0.015625 -0.234375,0.171875 -1.09375,1.453125 -2.734375,1.71875 -3.390625,1.71875 -1.1875,0 -1.5625,-1.03125 -1.5625,-1.890625 0,-0.609375 0.296875,-2.28125 0.90625,-3.453125 C 3.203125,-6.3125 4.125,-7.25 5.21875,-7.25 c 0.21875,0 1.171875,0.03125 1.515625,0.78125 z m 0,0"
               id="path74" />
          </g>
        </g>
        <g
           clip-path="url(#clipPath603)"
           clip-rule="nonzero"
           id="g55"
           style="stroke-width:0.650488">
          <g
             style="fill:#000000;fill-opacity:1;stroke-width:0.806529"
             id="g53">
            <g
               id="use51"
               transform="translate(39.761002,12.897)"
               style="stroke-width:0.806529">
              <path
                 style="stroke:none;stroke-width:0.806529"
                 d="m 4.53125,-4.28125 c 0,-1.25 -0.125,-3.34375 -1.15625,-5.5625 -0.828125,-1.796875 -2.234375,-3.046875 -2.4375,-3.046875 -0.0625,0 -0.125,0.01563 -0.125,0.09375 0,0.03125 0.015625,0.0625 0.03125,0.09375 0.828125,0.859375 2.921875,3.046875 2.921875,8.390625 0,5.375 -2.078125,7.5625 -2.921875,8.421875 C 0.828125,4.15625 0.8125,4.171875 0.8125,4.203125 0.8125,4.28125 0.875,4.3125 0.9375,4.3125 1.125,4.3125 2.578125,3.03125 3.421875,1.140625 4.28125,-0.78125 4.53125,-2.640625 4.53125,-4.28125 Z m 0,0"
                 id="path78" />
            </g>
          </g>
        </g>
      </g>
    </g>
    <g
       inkscape:label=""
       transform="matrix(1.2518437,0,0,1.2306801,156.30456,-16.110969)"
       id="g16387"
       style="stroke-width:0.805661">
      <g
         id="g16385"
         transform="matrix(0.352778,0,0,0.352778,-0.275608,-0.00224907)"
         style="stroke-width:0.805661">
        <g
           style="fill:#000000;fill-opacity:1;stroke-width:0.805661"
           id="g16355">
          <g
             id="g16353"
             transform="translate(0,12.897)"
             style="stroke-width:0.805661">
            <path
               style="stroke:none;stroke-width:0.805661"
               d="M 3.984375,-11.515625 C 4,-11.59375 4.03125,-11.6875 4.03125,-11.78125 c 0,-0.171875 -0.171875,-0.171875 -0.203125,-0.171875 -0.015625,0 -0.640625,0.0625 -0.953125,0.09375 -0.296875,0.01563 -0.546875,0.04687 -0.859375,0.0625 -0.421875,0.03125 -0.53125,0.04687 -0.53125,0.359375 0,0.171875 0.171875,0.171875 0.34375,0.171875 0.875,0 0.875,0.15625 0.875,0.328125 0,0.125 -0.140625,0.625 -0.203125,0.9375 L 2.078125,-8.34375 C 1.90625,-7.65625 0.9375,-3.75 0.859375,-3.4375 0.78125,-3.015625 0.78125,-2.71875 0.78125,-2.5 c 0,1.765625 0.96875,2.671875 2.09375,2.671875 2,0 4.0625,-2.5625 4.0625,-5.0625 0,-1.578125 -0.890625,-2.703125 -2.1875,-2.703125 -0.890625,0 -1.703125,0.734375 -2.03125,1.078125 z m -1.09375,11.34375 c -0.546875,0 -1.15625,-0.40625 -1.15625,-1.75 0,-0.578125 0.0625,-0.90625 0.359375,-2.109375 C 2.15625,-4.25 2.421875,-5.359375 2.5,-5.578125 2.53125,-5.71875 3.546875,-7.25 4.71875,-7.25 c 0.75,0 1.09375,0.765625 1.09375,1.65625 0,0.828125 -0.46875,2.765625 -0.90625,3.671875 -0.421875,0.921875 -1.21875,1.75 -2.015625,1.75 z m 0,0"
               id="path16351" />
          </g>
        </g>
        <g
           clip-path="url(#clipPath6676)"
           clip-rule="nonzero"
           id="g16363"
           style="stroke-width:0.64909">
          <g
             style="fill:#000000;fill-opacity:1;stroke-width:0.805661"
             id="g16361">
            <g
               id="g16359"
               transform="translate(12.364,12.897)"
               style="stroke-width:0.805661">
              <path
                 style="stroke:none;stroke-width:0.805661"
                 d="m 5.265625,4.203125 c 0,-0.015625 0,-0.046875 -0.046875,-0.109375 -0.796875,-0.8125 -2.90625,-3.015625 -2.90625,-8.375 0,-5.375 2.078125,-7.5625 2.921875,-8.421875 0,-0.01563 0.03125,-0.0625 0.03125,-0.109375 0,-0.04687 -0.046875,-0.07813 -0.125,-0.07813 -0.1875,0 -1.640625,1.265625 -2.484375,3.15625 -0.859375,1.921875 -1.109375,3.78125 -1.109375,5.421875 0,1.25 0.125,3.34375 1.15625,5.5625 0.828125,1.796875 2.234375,3.0625 2.4375,3.0625 0.09375,0 0.125,-0.046875 0.125,-0.109375 z m 0,0"
                 id="path16357" />
            </g>
          </g>
        </g>
        <g
           style="fill:#000000;fill-opacity:1;stroke-width:0.805661"
           id="g16369">
          <g
             id="g16367"
             transform="translate(18.461,12.897)"
             style="stroke-width:0.805661">
            <path
               style="stroke:none;stroke-width:0.805661"
               d="M 5.1875,-2.046875 C 5.09375,-1.75 5.09375,-1.71875 4.859375,-1.390625 c -0.375,0.484375 -1.140625,1.21875 -1.953125,1.21875 -0.703125,0 -1.09375,-0.640625 -1.09375,-1.65625 0,-0.9375 0.53125,-2.875 0.859375,-3.59375 C 3.25,-6.625 4.0625,-7.25 4.734375,-7.25 c 1.140625,0 1.359375,1.40625 1.359375,1.546875 0,0.015625 -0.046875,0.25 -0.0625,0.28125 z m 1.09375,-4.40625 C 6.09375,-6.90625 5.625,-7.59375 4.734375,-7.59375 c -1.9375,0 -4.046875,2.515625 -4.046875,5.0625 0,1.703125 1,2.703125 2.171875,2.703125 0.953125,0 1.75,-0.734375 2.234375,-1.3125 0.171875,1.015625 0.984375,1.3125 1.5,1.3125 0.515625,0 0.9375,-0.3125 1.234375,-0.921875 C 8.109375,-1.34375 8.34375,-2.390625 8.34375,-2.46875 8.34375,-2.546875 8.28125,-2.625 8.171875,-2.625 8.03125,-2.625 8,-2.53125 7.9375,-2.265625 7.671875,-1.25 7.359375,-0.171875 6.640625,-0.171875 c -0.5,0 -0.53125,-0.453125 -0.53125,-0.796875 0,-0.390625 0.0625,-0.578125 0.203125,-1.25 0.125,-0.4375 0.21875,-0.8125 0.34375,-1.3125 0.640625,-2.578125 0.796875,-3.203125 0.796875,-3.296875 0,-0.25 -0.1875,-0.4375 -0.4375,-0.4375 -0.5625,0 -0.703125,0.609375 -0.734375,0.8125 z m 0,0"
               id="path16365" />
          </g>
        </g>
        <g
           style="fill:#000000;fill-opacity:1;stroke-width:0.805661"
           id="g16375">
          <g
             id="g16373"
             transform="translate(32.508766,12.897)"
             style="stroke-width:0.805661">
            <path
               style="stroke:none;stroke-width:0.805661"
               d="m 6.734375,-6.46875 c -0.328125,0 -0.484375,0 -0.71875,0.203125 -0.109375,0.078125 -0.296875,0.34375 -0.296875,0.625 0,0.34375 0.25,0.546875 0.578125,0.546875 0.421875,0 0.890625,-0.34375 0.890625,-1.03125 0,-0.828125 -0.796875,-1.46875 -1.984375,-1.46875 -2.265625,0 -4.515625,2.46875 -4.515625,4.90625 0,1.5 0.9375,2.859375 2.6875,2.859375 2.34375,0 3.828125,-1.828125 3.828125,-2.046875 0,-0.109375 -0.109375,-0.1875 -0.171875,-0.1875 -0.0625,0 -0.078125,0.015625 -0.234375,0.171875 -1.09375,1.453125 -2.734375,1.71875 -3.390625,1.71875 -1.1875,0 -1.5625,-1.03125 -1.5625,-1.890625 0,-0.609375 0.296875,-2.28125 0.90625,-3.453125 C 3.203125,-6.3125 4.125,-7.25 5.21875,-7.25 c 0.21875,0 1.171875,0.03125 1.515625,0.78125 z m 0,0"
               id="path16371" />
          </g>
        </g>
        <g
           clip-path="url(#clipPath169)"
           clip-rule="nonzero"
           id="g16383"
           style="stroke-width:0.64909">
          <g
             style="fill:#000000;fill-opacity:1;stroke-width:0.805661"
             id="g16381">
            <g
               id="g16379"
               transform="translate(39.761002,12.897)"
               style="stroke-width:0.805661">
              <path
                 style="stroke:none;stroke-width:0.805661"
                 d="m 4.53125,-4.28125 c 0,-1.25 -0.125,-3.34375 -1.15625,-5.5625 -0.828125,-1.796875 -2.234375,-3.046875 -2.4375,-3.046875 -0.0625,0 -0.125,0.01563 -0.125,0.09375 0,0.03125 0.015625,0.0625 0.03125,0.09375 0.828125,0.859375 2.921875,3.046875 2.921875,8.390625 0,5.375 -2.078125,7.5625 -2.921875,8.421875 C 0.828125,4.15625 0.8125,4.171875 0.8125,4.203125 0.8125,4.28125 0.875,4.3125 0.9375,4.3125 1.125,4.3125 2.578125,3.03125 3.421875,1.140625 4.28125,-0.78125 4.53125,-2.640625 4.53125,-4.28125 Z m 0,0"
                 id="path16377" />
            </g>
          </g>
        </g>
      </g>
    </g>
    <g
       inkscape:label=""
       transform="matrix(1.2491522,0,0,1.2306801,262.22355,-16.366743)"
       id="g16924"
       style="stroke-width:0.806529">
      <g
         id="g16922"
         transform="matrix(0.352778,0,0,0.352778,-0.242535,-0.00224907)"
         style="stroke-width:0.806529">
        <g
           style="fill:#000000;fill-opacity:1;stroke-width:0.806529"
           id="g16892">
          <g
             id="g16890"
             transform="translate(0,12.897)"
             style="stroke-width:0.806529">
            <path
               style="stroke:none;stroke-width:0.806529"
               d="m 6.734375,-6.46875 c -0.328125,0 -0.484375,0 -0.71875,0.203125 -0.109375,0.078125 -0.296875,0.34375 -0.296875,0.625 0,0.34375 0.25,0.546875 0.578125,0.546875 0.421875,0 0.890625,-0.34375 0.890625,-1.03125 0,-0.828125 -0.796875,-1.46875 -1.984375,-1.46875 -2.265625,0 -4.515625,2.46875 -4.515625,4.90625 0,1.5 0.9375,2.859375 2.6875,2.859375 2.34375,0 3.828125,-1.828125 3.828125,-2.046875 0,-0.109375 -0.109375,-0.1875 -0.171875,-0.1875 -0.0625,0 -0.078125,0.015625 -0.234375,0.171875 -1.09375,1.453125 -2.734375,1.71875 -3.390625,1.71875 -1.1875,0 -1.5625,-1.03125 -1.5625,-1.890625 0,-0.609375 0.296875,-2.28125 0.90625,-3.453125 C 3.203125,-6.3125 4.125,-7.25 5.21875,-7.25 c 0.21875,0 1.171875,0.03125 1.515625,0.78125 z m 0,0"
               id="path16888" />
          </g>
        </g>
        <g
           clip-path="url(#clipPath7157)"
           clip-rule="nonzero"
           id="g16900"
           style="stroke-width:0.650488">
          <g
             style="fill:#000000;fill-opacity:1;stroke-width:0.806529"
             id="g16898">
            <g
               id="g16896"
               transform="translate(12.452,12.897)"
               style="stroke-width:0.806529">
              <path
                 style="stroke:none;stroke-width:0.806529"
                 d="m 5.265625,4.203125 c 0,-0.015625 0,-0.046875 -0.046875,-0.109375 -0.796875,-0.8125 -2.90625,-3.015625 -2.90625,-8.375 0,-5.375 2.078125,-7.5625 2.921875,-8.421875 0,-0.01563 0.03125,-0.0625 0.03125,-0.109375 0,-0.04687 -0.046875,-0.07813 -0.125,-0.07813 -0.1875,0 -1.640625,1.265625 -2.484375,3.15625 -0.859375,1.921875 -1.109375,3.78125 -1.109375,5.421875 0,1.25 0.125,3.34375 1.15625,5.5625 0.828125,1.796875 2.234375,3.0625 2.4375,3.0625 0.09375,0 0.125,-0.046875 0.125,-0.109375 z m 0,0"
                 id="path16894" />
            </g>
          </g>
        </g>
        <g
           style="fill:#000000;fill-opacity:1;stroke-width:0.806529"
           id="g16906">
          <g
             id="g16904"
             transform="translate(18.548,12.897)"
             style="stroke-width:0.806529">
            <path
               style="stroke:none;stroke-width:0.806529"
               d="M 5.1875,-2.046875 C 5.09375,-1.75 5.09375,-1.71875 4.859375,-1.390625 c -0.375,0.484375 -1.140625,1.21875 -1.953125,1.21875 -0.703125,0 -1.09375,-0.640625 -1.09375,-1.65625 0,-0.9375 0.53125,-2.875 0.859375,-3.59375 C 3.25,-6.625 4.0625,-7.25 4.734375,-7.25 c 1.140625,0 1.359375,1.40625 1.359375,1.546875 0,0.015625 -0.046875,0.25 -0.0625,0.28125 z m 1.09375,-4.40625 C 6.09375,-6.90625 5.625,-7.59375 4.734375,-7.59375 c -1.9375,0 -4.046875,2.515625 -4.046875,5.0625 0,1.703125 1,2.703125 2.171875,2.703125 0.953125,0 1.75,-0.734375 2.234375,-1.3125 0.171875,1.015625 0.984375,1.3125 1.5,1.3125 0.515625,0 0.9375,-0.3125 1.234375,-0.921875 C 8.109375,-1.34375 8.34375,-2.390625 8.34375,-2.46875 8.34375,-2.546875 8.28125,-2.625 8.171875,-2.625 8.03125,-2.625 8,-2.53125 7.9375,-2.265625 7.671875,-1.25 7.359375,-0.171875 6.640625,-0.171875 c -0.5,0 -0.53125,-0.453125 -0.53125,-0.796875 0,-0.390625 0.0625,-0.578125 0.203125,-1.25 0.125,-0.4375 0.21875,-0.8125 0.34375,-1.3125 0.640625,-2.578125 0.796875,-3.203125 0.796875,-3.296875 0,-0.25 -0.1875,-0.4375 -0.4375,-0.4375 -0.5625,0 -0.703125,0.609375 -0.734375,0.8125 z m 0,0"
               id="path16902" />
          </g>
        </g>
        <g
           style="fill:#000000;fill-opacity:1;stroke-width:0.806529"
           id="g16912">
          <g
             id="g16910"
             transform="translate(32.595764,12.897)"
             style="stroke-width:0.806529">
            <path
               style="stroke:none;stroke-width:0.806529"
               d="M 3.984375,-11.515625 C 4,-11.59375 4.03125,-11.6875 4.03125,-11.78125 c 0,-0.171875 -0.171875,-0.171875 -0.203125,-0.171875 -0.015625,0 -0.640625,0.0625 -0.953125,0.09375 -0.296875,0.01563 -0.546875,0.04687 -0.859375,0.0625 -0.421875,0.03125 -0.53125,0.04687 -0.53125,0.359375 0,0.171875 0.171875,0.171875 0.34375,0.171875 0.875,0 0.875,0.15625 0.875,0.328125 0,0.125 -0.140625,0.625 -0.203125,0.9375 L 2.078125,-8.34375 C 1.90625,-7.65625 0.9375,-3.75 0.859375,-3.4375 0.78125,-3.015625 0.78125,-2.71875 0.78125,-2.5 c 0,1.765625 0.96875,2.671875 2.09375,2.671875 2,0 4.0625,-2.5625 4.0625,-5.0625 0,-1.578125 -0.890625,-2.703125 -2.1875,-2.703125 -0.890625,0 -1.703125,0.734375 -2.03125,1.078125 z m -1.09375,11.34375 c -0.546875,0 -1.15625,-0.40625 -1.15625,-1.75 0,-0.578125 0.0625,-0.90625 0.359375,-2.109375 C 2.15625,-4.25 2.421875,-5.359375 2.5,-5.578125 2.53125,-5.71875 3.546875,-7.25 4.71875,-7.25 c 0.75,0 1.09375,0.765625 1.09375,1.65625 0,0.828125 -0.46875,2.765625 -0.90625,3.671875 -0.421875,0.921875 -1.21875,1.75 -2.015625,1.75 z m 0,0"
               id="path16908" />
          </g>
        </g>
        <g
           clip-path="url(#clipPath6157)"
           clip-rule="nonzero"
           id="g16920"
           style="stroke-width:0.650488">
          <g
             style="fill:#000000;fill-opacity:1;stroke-width:0.806529"
             id="g16918">
            <g
               id="g16916"
               transform="translate(39.761002,12.897)"
               style="stroke-width:0.806529">
              <path
                 style="stroke:none;stroke-width:0.806529"
                 d="m 4.53125,-4.28125 c 0,-1.25 -0.125,-3.34375 -1.15625,-5.5625 -0.828125,-1.796875 -2.234375,-3.046875 -2.4375,-3.046875 -0.0625,0 -0.125,0.01563 -0.125,0.09375 0,0.03125 0.015625,0.0625 0.03125,0.09375 0.828125,0.859375 2.921875,3.046875 2.921875,8.390625 0,5.375 -2.078125,7.5625 -2.921875,8.421875 C 0.828125,4.15625 0.8125,4.171875 0.8125,4.203125 0.8125,4.28125 0.875,4.3125 0.9375,4.3125 1.125,4.3125 2.578125,3.03125 3.421875,1.140625 4.28125,-0.78125 4.53125,-2.640625 4.53125,-4.28125 Z m 0,0"
                 id="path16914" />
            </g>
          </g>
        </g>
      </g>
    </g>
  </g>
</svg>
