<?xml version="1.0" encoding="UTF-8" standalone="no"?>
<!-- Created with Inkscape (http://www.inkscape.org/) -->

<svg
   width="619.49878mm"
   height="130.18268mm"
   viewBox="0 0 619.49879 130.18268"
   version="1.1"
   id="svg5"
   sodipodi:docname="prob-05-02-23_01.svg"
   inkscape:version="1.2.2 (1:1.2.2+202212051550+b0a8486541)"
   xmlns:inkscape="http://www.inkscape.org/namespaces/inkscape"
   xmlns:sodipodi="http://sodipodi.sourceforge.net/DTD/sodipodi-0.dtd"
   xmlns="http://www.w3.org/2000/svg"
   xmlns:svg="http://www.w3.org/2000/svg">
  <sodipodi:namedview
     id="namedview7"
     pagecolor="#ffffff"
     bordercolor="#999999"
     borderopacity="1"
     inkscape:showpageshadow="0"
     inkscape:pageopacity="0"
     inkscape:pagecheckerboard="0"
     inkscape:deskcolor="#d1d1d1"
     inkscape:document-units="mm"
     showgrid="false"
     inkscape:zoom="0.70710678"
     inkscape:cx="1448.8618"
     inkscape:cy="366.98842"
     inkscape:window-width="1600"
     inkscape:window-height="832"
     inkscape:window-x="0"
     inkscape:window-y="32"
     inkscape:window-maximized="1"
     inkscape:current-layer="layer1" />
  <defs
     id="defs2">
    <marker
       style="overflow:visible"
       id="Arrow5"
       refX="0"
       refY="0"
       orient="auto-start-reverse"
       inkscape:stockid="Arrow5"
       markerWidth="5.8874264"
       markerHeight="6.6094756"
       viewBox="0 0 5.8874262 6.6094758"
       inkscape:isstock="true"
       inkscape:collect="always"
       preserveAspectRatio="xMidYMid">
      <path
         transform="scale(0.5)"
         style="fill:context-stroke;fill-rule:evenodd;stroke:context-stroke;stroke-width:1pt"
         d="m 6,0 c -3,1 -7,3 -9,5 0,0 0,-4 2,-5 -2,-1 -2,-5 -2,-5 2,2 6,4 9,5 z"
         id="path8893" />
    </marker>
    <clipPath
       id="clipPath3254">
      <path
         d="M 0,0 H 8.847656 V 7.410156 H 0 Z m 0,0"
         id="path7589" />
    </clipPath>
    <clipPath
       id="clipPath3453">
      <path
         d="M 0,0 H 7 V 11.953125 H 0 Z m 0,0"
         id="path5356" />
    </clipPath>
    <clipPath
       id="clipPath6748">
      <path
         d="M 0,0 H 7.253906 V 7.410156 H 0 Z m 0,0"
         id="path6755" />
    </clipPath>
    <clipPath
       id="clipPath5562">
      <path
         d="M 0,0 H 7.894531 V 11.097656 H 0 Z m 0,0"
         id="path9427" />
    </clipPath>
    <clipPath
       id="clipPath3897">
      <path
         d="M 1,0 H 7 V 11.097656 H 1 Z m 0,0"
         id="path4628" />
    </clipPath>
    <clipPath
       id="clipPath7652">
      <path
         d="M 1,0 H 6 V 17.1875 H 1 Z m 0,0"
         id="path6507" />
    </clipPath>
    <clipPath
       id="clipPath4030">
      <path
         d="m 28,0 h 4 v 17.1875 h -4 z m 0,0"
         id="path2316" />
    </clipPath>
    <clipPath
       id="clipPath6591">
      <path
         d="m 39,5 h 6.859375 v 9 H 39 Z m 0,0"
         id="path7001" />
    </clipPath>
    <clipPath
       id="clipPath4903">
      <path
         d="M 1,0 H 6 V 17.1875 H 1 Z m 0,0"
         id="path4251" />
    </clipPath>
    <clipPath
       id="clipPath7910">
      <path
         d="m 28,0 h 4 v 17.1875 h -4 z m 0,0"
         id="path9358" />
    </clipPath>
    <clipPath
       id="clipPath6103">
      <path
         d="m 39,0 h 6.859375 V 14 H 39 Z m 0,0"
         id="path1463" />
    </clipPath>
    <clipPath
       id="clipPath361">
      <path
         d="M 1,0 H 6 V 17.1875 H 1 Z m 0,0"
         id="path3677" />
    </clipPath>
    <clipPath
       id="clipPath1037">
      <path
         d="m 26,0 h 5 v 17.1875 h -5 z m 0,0"
         id="path9283" />
    </clipPath>
    <clipPath
       id="clipPath1801">
      <path
         d="m 37,5 h 8.859375 v 9 H 37 Z m 0,0"
         id="path8202" />
    </clipPath>
    <clipPath
       id="clipPath7652-0">
      <path
         d="M 1,0 H 6 V 17.1875 H 1 Z m 0,0"
         id="path6507-6" />
    </clipPath>
    <clipPath
       id="clipPath4030-1">
      <path
         d="m 28,0 h 4 v 17.1875 h -4 z m 0,0"
         id="path2316-5" />
    </clipPath>
    <clipPath
       id="clipPath6591-5">
      <path
         d="m 39,5 h 6.859375 v 9 H 39 Z m 0,0"
         id="path7001-4" />
    </clipPath>
    <clipPath
       id="clipPath7652-8">
      <path
         d="M 1,0 H 6 V 17.1875 H 1 Z m 0,0"
         id="path6507-8" />
    </clipPath>
    <clipPath
       id="clipPath4030-4">
      <path
         d="m 28,0 h 4 v 17.1875 h -4 z m 0,0"
         id="path2316-3" />
    </clipPath>
    <clipPath
       id="clipPath6591-1">
      <path
         d="m 39,5 h 6.859375 v 9 H 39 Z m 0,0"
         id="path7001-49" />
    </clipPath>
  </defs>
  <g
     inkscape:label="Layer 1"
     inkscape:groupmode="layer"
     id="layer1"
     transform="translate(106.96646,75.020369)">
    <ellipse
       style="font-variation-settings:normal;opacity:1;vector-effect:none;fill:#f0f00e;fill-opacity:1;fill-rule:evenodd;stroke:#4d4d4d;stroke-width:0.5;stroke-linecap:butt;stroke-linejoin:miter;stroke-miterlimit:4;stroke-dasharray:none;stroke-dashoffset:0;stroke-opacity:1;-inkscape-stroke:none;paint-order:fill stroke markers;stop-color:#000000;stop-opacity:1"
       id="ellipse1003"
       cx="-77.231468"
       cy="-22.201036"
       rx="29.484989"
       ry="52.569332" />
    <ellipse
       style="font-variation-settings:normal;opacity:1;vector-effect:none;fill:#ffb380;fill-opacity:1;fill-rule:evenodd;stroke:#4d4d4d;stroke-width:0.5;stroke-linecap:butt;stroke-linejoin:miter;stroke-miterlimit:4;stroke-dasharray:none;stroke-dashoffset:0;stroke-opacity:1;-inkscape-stroke:none;paint-order:fill stroke markers;stop-color:#000000;stop-opacity:1"
       id="ellipse1005"
       cx="48.749313"
       cy="-22.201036"
       rx="29.484989"
       ry="52.569332" />
    <path
       style="fill:none;stroke:#000000;stroke-width:0.465;stroke-linecap:butt;stroke-linejoin:miter;stroke-miterlimit:4;stroke-dasharray:none;stroke-opacity:1;marker-mid:url(#Arrow5)"
       d="m -75.28417,-52.274734 61.565623,1.967895 60.520567,1.934491"
       id="path2674"
       sodipodi:nodetypes="ccc" />
    <path
       style="font-variation-settings:normal;opacity:1;vector-effect:none;fill:none;fill-opacity:1;stroke:#000000;stroke-width:0.465;stroke-linecap:butt;stroke-linejoin:miter;stroke-miterlimit:4;stroke-dasharray:none;stroke-dashoffset:0;stroke-opacity:1;-inkscape-stroke:none;marker-mid:url(#Arrow5);stop-color:#000000;stop-opacity:1"
       d="M -77.231464,-24.152223 -13.677186,-36.374155 46.80202,-48.372348"
       id="path3520"
       sodipodi:nodetypes="ccc" />
    <ellipse
       id="circle1011"
       style="fill:#0000ff;stroke:none;stroke-width:0.264582"
       cx="-77.231468"
       cy="-24.152224"
       rx="1.9472944"
       ry="1.9511886" />
    <ellipse
       id="circle1007"
       style="fill:#0000ff;stroke:none;stroke-width:0.264582"
       cx="-77.231468"
       cy="-52.274731"
       rx="1.9472944"
       ry="1.9511886" />
    <ellipse
       id="circle1013"
       style="fill:#0000ff;stroke:none;stroke-width:0.264582"
       cx="48.749313"
       cy="-48.372349"
       rx="1.9472944"
       ry="1.9511886" />
    <path
       style="font-variation-settings:normal;opacity:1;vector-effect:none;fill:none;fill-opacity:1;stroke:#000000;stroke-width:0.465;stroke-linecap:butt;stroke-linejoin:miter;stroke-miterlimit:4;stroke-dasharray:none;stroke-dashoffset:0;stroke-opacity:1;-inkscape-stroke:none;marker-mid:url(#Arrow5);stop-color:#000000;stop-opacity:1"
       d="m -77.231467,3.9702753 h 62.847686 63.133095"
       id="path3578"
       sodipodi:nodetypes="ccc" />
    <ellipse
       id="circle1009"
       style="fill:#0000ff;stroke:none;stroke-width:0.264582"
       cx="-77.231468"
       cy="3.9702752"
       rx="1.9472944"
       ry="1.9511886" />
    <ellipse
       id="circle1015"
       style="fill:#0000ff;stroke:none;stroke-width:0.264582"
       cx="48.749313"
       cy="3.9702752"
       rx="1.9472944"
       ry="1.9511886" />
    <g
       inkscape:label=""
       transform="matrix(1.9472944,0,0,1.9511886,-84.731096,-55.796162)"
       id="g9036"
       style="stroke-width:0.513021">
      <g
         id="surface1"
         transform="matrix(0.352778,0,0,0.352778,-0.242535,0.0641173)"
         style="stroke-width:0.513021">
        <g
           clip-path="url(#clipPath3254)"
           clip-rule="nonzero"
           id="g19"
           style="stroke-width:0.298002">
          <g
             style="fill:#000000;fill-opacity:1;stroke-width:0.513021"
             id="g17">
            <g
               id="use15"
               transform="translate(0,7.4120002)"
               style="stroke-width:0.513021">
              <path
                 style="stroke:none;stroke-width:0.513021"
                 d="M 5.1875,-2.046875 C 5.09375,-1.75 5.09375,-1.71875 4.859375,-1.390625 c -0.375,0.484375 -1.140625,1.21875 -1.953125,1.21875 -0.703125,0 -1.09375,-0.640625 -1.09375,-1.65625 0,-0.9375 0.53125,-2.875 0.859375,-3.59375 C 3.25,-6.625 4.0625,-7.25 4.734375,-7.25 c 1.140625,0 1.359375,1.40625 1.359375,1.546875 0,0.015625 -0.046875,0.25 -0.0625,0.28125 z m 1.09375,-4.40625 C 6.09375,-6.90625 5.625,-7.59375 4.734375,-7.59375 c -1.9375,0 -4.046875,2.515625 -4.046875,5.0625 0,1.703125 1,2.703125 2.171875,2.703125 0.953125,0 1.75,-0.734375 2.234375,-1.3125 0.171875,1.015625 0.984375,1.3125 1.5,1.3125 0.515625,0 0.9375,-0.3125 1.234375,-0.921875 C 8.109375,-1.34375 8.34375,-2.390625 8.34375,-2.46875 8.34375,-2.546875 8.28125,-2.625 8.171875,-2.625 8.03125,-2.625 8,-2.53125 7.9375,-2.265625 7.671875,-1.25 7.359375,-0.171875 6.640625,-0.171875 c -0.5,0 -0.53125,-0.453125 -0.53125,-0.796875 0,-0.390625 0.0625,-0.578125 0.203125,-1.25 0.125,-0.4375 0.21875,-0.8125 0.34375,-1.3125 0.640625,-2.578125 0.796875,-3.203125 0.796875,-3.296875 0,-0.25 -0.1875,-0.4375 -0.4375,-0.4375 -0.5625,0 -0.703125,0.609375 -0.734375,0.8125 z m 0,0"
                 id="path26" />
            </g>
          </g>
        </g>
      </g>
    </g>
    <g
       inkscape:label=""
       transform="matrix(1.9472944,0,0,1.9511886,-84.868197,-29.413379)"
       id="g9125"
       style="stroke-width:0.513021">
      <g
         id="g9123"
         transform="matrix(0.352778,0,0,0.352778,-0.275608,-6.6143e-4)"
         style="stroke-width:0.513021">
        <g
           clip-path="url(#clipPath3453)"
           clip-rule="nonzero"
           id="g9121"
           style="stroke-width:0.298002">
          <g
             style="fill:#000000;fill-opacity:1;stroke-width:0.513021"
             id="g9119">
            <g
               id="g9117"
               transform="translate(0,11.955)"
               style="stroke-width:0.513021">
              <path
                 style="stroke:none;stroke-width:0.513021"
                 d="M 3.984375,-11.515625 C 4,-11.59375 4.03125,-11.6875 4.03125,-11.78125 c 0,-0.171875 -0.171875,-0.171875 -0.203125,-0.171875 -0.015625,0 -0.640625,0.0625 -0.953125,0.09375 -0.296875,0.01563 -0.546875,0.04687 -0.859375,0.0625 -0.421875,0.03125 -0.53125,0.04687 -0.53125,0.359375 0,0.171875 0.171875,0.171875 0.34375,0.171875 0.875,0 0.875,0.15625 0.875,0.328125 0,0.125 -0.140625,0.625 -0.203125,0.9375 L 2.078125,-8.34375 C 1.90625,-7.65625 0.9375,-3.75 0.859375,-3.4375 0.78125,-3.015625 0.78125,-2.71875 0.78125,-2.5 c 0,1.765625 0.96875,2.671875 2.09375,2.671875 2,0 4.0625,-2.5625 4.0625,-5.0625 0,-1.578125 -0.890625,-2.703125 -2.1875,-2.703125 -0.890625,0 -1.703125,0.734375 -2.03125,1.078125 z m -1.09375,11.34375 c -0.546875,0 -1.15625,-0.40625 -1.15625,-1.75 0,-0.578125 0.0625,-0.90625 0.359375,-2.109375 C 2.15625,-4.25 2.421875,-5.359375 2.5,-5.578125 2.53125,-5.71875 3.546875,-7.25 4.71875,-7.25 c 0.75,0 1.09375,0.765625 1.09375,1.65625 0,0.828125 -0.46875,2.765625 -0.90625,3.671875 -0.421875,0.921875 -1.21875,1.75 -2.015625,1.75 z m 0,0"
                 id="path9115" />
            </g>
          </g>
        </g>
      </g>
    </g>
    <g
       inkscape:label=""
       transform="matrix(1.9472944,0,0,1.9511886,-84.961139,1.7561922)"
       id="g9219"
       style="stroke-width:0.513021">
      <g
         id="g9217"
         transform="matrix(0.352778,0,0,0.352778,-0.242535,0.0641173)"
         style="stroke-width:0.513021">
        <g
           clip-path="url(#clipPath6748)"
           clip-rule="nonzero"
           id="g9215"
           style="stroke-width:0.298002">
          <g
             style="fill:#000000;fill-opacity:1;stroke-width:0.513021"
             id="g9213">
            <g
               id="g9211"
               transform="translate(0,7.4120002)"
               style="stroke-width:0.513021">
              <path
                 style="stroke:none;stroke-width:0.513021"
                 d="m 6.734375,-6.46875 c -0.328125,0 -0.484375,0 -0.71875,0.203125 -0.109375,0.078125 -0.296875,0.34375 -0.296875,0.625 0,0.34375 0.25,0.546875 0.578125,0.546875 0.421875,0 0.890625,-0.34375 0.890625,-1.03125 0,-0.828125 -0.796875,-1.46875 -1.984375,-1.46875 -2.265625,0 -4.515625,2.46875 -4.515625,4.90625 0,1.5 0.9375,2.859375 2.6875,2.859375 2.34375,0 3.828125,-1.828125 3.828125,-2.046875 0,-0.109375 -0.109375,-0.1875 -0.171875,-0.1875 -0.0625,0 -0.078125,0.015625 -0.234375,0.171875 -1.09375,1.453125 -2.734375,1.71875 -3.390625,1.71875 -1.1875,0 -1.5625,-1.03125 -1.5625,-1.890625 0,-0.609375 0.296875,-2.28125 0.90625,-3.453125 C 3.203125,-6.3125 4.125,-7.25 5.21875,-7.25 c 0.21875,0 1.171875,0.03125 1.515625,0.78125 z m 0,0"
                 id="path9209" />
            </g>
          </g>
        </g>
      </g>
    </g>
    <g
       inkscape:label=""
       transform="matrix(1.9472944,0,0,1.9511886,51.834234,-0.24775005)"
       id="g9329"
       style="stroke-width:0.513021">
      <g
         id="g9327"
         transform="matrix(0.352778,0,0,0.352778,-0.248047,0.0980722)"
         style="stroke-width:0.513021">
        <g
           clip-path="url(#clipPath5562)"
           clip-rule="nonzero"
           id="g9325"
           style="stroke-width:0.298002">
          <g
             style="fill:#000000;fill-opacity:1;stroke-width:0.513021"
             id="g9323">
            <g
               id="g9321"
               transform="translate(0,11.097)"
               style="stroke-width:0.513021">
              <path
                 style="stroke:none;stroke-width:0.513021"
                 d="M 7.1875,-2.671875 H 6.875 c -0.171875,1.21875 -0.3125,1.4375 -0.390625,1.53125 C 6.40625,-1 5.171875,-1 4.921875,-1 H 1.625 c 0.609375,-0.671875 1.8125,-1.890625 3.28125,-3.3125 1.046875,-0.984375 2.28125,-2.15625 2.28125,-3.859375 0,-2.03125 -1.625,-3.203125 -3.4375,-3.203125 -1.890625,0 -3.046875,1.65625 -3.046875,3.21875 0,0.671875 0.5,0.75 0.703125,0.75 0.171875,0 0.6875,-0.09375 0.6875,-0.703125 0,-0.53125 -0.4375,-0.6875 -0.6875,-0.6875 -0.09375,0 -0.203125,0.015625 -0.265625,0.046875 0.328125,-1.453125 1.328125,-2.1875 2.375,-2.1875 1.5,0 2.46875,1.1875 2.46875,2.765625 0,1.484375 -0.875,2.78125 -1.859375,3.90625 l -3.421875,3.875 V 0 h 6.0625 z m 0,0"
                 id="path9319" />
            </g>
          </g>
        </g>
      </g>
    </g>
    <g
       inkscape:label=""
       transform="matrix(1.9472944,0,0,1.9511886,51.400352,-52.396537)"
       id="g9455"
       style="stroke-width:0.513021">
      <g
         id="g9453"
         transform="matrix(0.352778,0,0,0.352778,-0.529167,0.0980722)"
         style="stroke-width:0.513021">
        <g
           clip-path="url(#clipPath3897)"
           clip-rule="nonzero"
           id="g9451"
           style="stroke-width:0.298002">
          <g
             style="fill:#000000;fill-opacity:1;stroke-width:0.513021"
             id="g9449">
            <g
               id="g9447"
               transform="translate(0,11.097)"
               style="stroke-width:0.513021">
              <path
                 style="stroke:none;stroke-width:0.513021"
                 d="m 4.578125,-11 c 0,-0.359375 -0.015625,-0.375 -0.25,-0.375 -0.671875,0.796875 -1.6875,1.0625 -2.65625,1.09375 -0.046875,0 -0.140625,0 -0.15625,0.03125 C 1.5,-10.203125 1.5,-10.171875 1.5,-9.8125 c 0.53125,0 1.421875,-0.109375 2.109375,-0.515625 V -1.25 c 0,0.59375 -0.03125,0.796875 -1.515625,0.796875 H 1.578125 V 0 c 0.828125,-0.015625 1.6875,-0.03125 2.515625,-0.03125 0.828125,0 1.6875,0.015625 2.515625,0.03125 V -0.453125 H 6.09375 c -1.484375,0 -1.515625,-0.1875 -1.515625,-0.796875 z m 0,0"
                 id="path9445" />
            </g>
          </g>
        </g>
      </g>
    </g>
    <g
       inkscape:label=""
       transform="matrix(2.3964961,0,0,2.4012886,-37.976326,39.822943)"
       id="g10425"
       style="stroke-width:0.416859">
      <g
         id="g10423"
         transform="matrix(0.352778,0,0,0.352778,-0.545703,-0.00224907)"
         style="stroke-width:0.416859">
        <g
           clip-path="url(#clipPath7652)"
           clip-rule="nonzero"
           id="g40"
           style="stroke-width:0.338723">
          <g
             style="fill:#000000;fill-opacity:1;stroke-width:0.416859"
             id="g38">
            <g
               id="use36"
               transform="translate(0,12.897)"
               style="stroke-width:0.416859">
              <path
                 style="stroke:none;stroke-width:0.416859"
                 d="m 5.265625,4.203125 c 0,-0.015625 0,-0.046875 -0.046875,-0.109375 -0.796875,-0.8125 -2.90625,-3.015625 -2.90625,-8.375 0,-5.375 2.078125,-7.5625 2.921875,-8.421875 0,-0.01563 0.03125,-0.0625 0.03125,-0.109375 0,-0.04687 -0.046875,-0.07813 -0.125,-0.07813 -0.1875,0 -1.640625,1.265625 -2.484375,3.15625 -0.859375,1.921875 -1.109375,3.78125 -1.109375,5.421875 0,1.25 0.125,3.34375 1.15625,5.5625 0.828125,1.796875 2.234375,3.0625 2.4375,3.0625 0.09375,0 0.125,-0.046875 0.125,-0.109375 z m 0,0"
                 id="path67" />
            </g>
          </g>
        </g>
        <g
           style="fill:#000000;fill-opacity:1;stroke-width:0.416859"
           id="g44">
          <g
             id="use42"
             transform="translate(6.0970001,12.897)"
             style="stroke-width:0.416859">
            <path
               style="stroke:none;stroke-width:0.416859"
               d="M 5.1875,-2.046875 C 5.09375,-1.75 5.09375,-1.71875 4.859375,-1.390625 c -0.375,0.484375 -1.140625,1.21875 -1.953125,1.21875 -0.703125,0 -1.09375,-0.640625 -1.09375,-1.65625 0,-0.9375 0.53125,-2.875 0.859375,-3.59375 C 3.25,-6.625 4.0625,-7.25 4.734375,-7.25 c 1.140625,0 1.359375,1.40625 1.359375,1.546875 0,0.015625 -0.046875,0.25 -0.0625,0.28125 z m 1.09375,-4.40625 C 6.09375,-6.90625 5.625,-7.59375 4.734375,-7.59375 c -1.9375,0 -4.046875,2.515625 -4.046875,5.0625 0,1.703125 1,2.703125 2.171875,2.703125 0.953125,0 1.75,-0.734375 2.234375,-1.3125 0.171875,1.015625 0.984375,1.3125 1.5,1.3125 0.515625,0 0.9375,-0.3125 1.234375,-0.921875 C 8.109375,-1.34375 8.34375,-2.390625 8.34375,-2.46875 8.34375,-2.546875 8.28125,-2.625 8.171875,-2.625 8.03125,-2.625 8,-2.53125 7.9375,-2.265625 7.671875,-1.25 7.359375,-0.171875 6.640625,-0.171875 c -0.5,0 -0.53125,-0.453125 -0.53125,-0.796875 0,-0.390625 0.0625,-0.578125 0.203125,-1.25 0.125,-0.4375 0.21875,-0.8125 0.34375,-1.3125 0.640625,-2.578125 0.796875,-3.203125 0.796875,-3.296875 0,-0.25 -0.1875,-0.4375 -0.4375,-0.4375 -0.5625,0 -0.703125,0.609375 -0.734375,0.8125 z m 0,0"
               id="path71" />
          </g>
        </g>
        <g
           style="fill:#000000;fill-opacity:1;stroke-width:0.416859"
           id="g48">
          <g
             id="use46"
             transform="translate(20.144766,12.897)"
             style="stroke-width:0.416859">
            <path
               style="stroke:none;stroke-width:0.416859"
               d="M 3.984375,-11.515625 C 4,-11.59375 4.03125,-11.6875 4.03125,-11.78125 c 0,-0.171875 -0.171875,-0.171875 -0.203125,-0.171875 -0.015625,0 -0.640625,0.0625 -0.953125,0.09375 -0.296875,0.01563 -0.546875,0.04687 -0.859375,0.0625 -0.421875,0.03125 -0.53125,0.04687 -0.53125,0.359375 0,0.171875 0.171875,0.171875 0.34375,0.171875 0.875,0 0.875,0.15625 0.875,0.328125 0,0.125 -0.140625,0.625 -0.203125,0.9375 L 2.078125,-8.34375 C 1.90625,-7.65625 0.9375,-3.75 0.859375,-3.4375 0.78125,-3.015625 0.78125,-2.71875 0.78125,-2.5 c 0,1.765625 0.96875,2.671875 2.09375,2.671875 2,0 4.0625,-2.5625 4.0625,-5.0625 0,-1.578125 -0.890625,-2.703125 -2.1875,-2.703125 -0.890625,0 -1.703125,0.734375 -2.03125,1.078125 z m -1.09375,11.34375 c -0.546875,0 -1.15625,-0.40625 -1.15625,-1.75 0,-0.578125 0.0625,-0.90625 0.359375,-2.109375 C 2.15625,-4.25 2.421875,-5.359375 2.5,-5.578125 2.53125,-5.71875 3.546875,-7.25 4.71875,-7.25 c 0.75,0 1.09375,0.765625 1.09375,1.65625 0,0.828125 -0.46875,2.765625 -0.90625,3.671875 -0.421875,0.921875 -1.21875,1.75 -2.015625,1.75 z m 0,0"
               id="path75" />
          </g>
        </g>
        <g
           clip-path="url(#clipPath4030)"
           clip-rule="nonzero"
           id="g54"
           style="stroke-width:0.338723">
          <g
             style="fill:#000000;fill-opacity:1;stroke-width:0.416859"
             id="g52">
            <g
               id="use50"
               transform="translate(27.309,12.897)"
               style="stroke-width:0.416859">
              <path
                 style="stroke:none;stroke-width:0.416859"
                 d="m 4.53125,-4.28125 c 0,-1.25 -0.125,-3.34375 -1.15625,-5.5625 -0.828125,-1.796875 -2.234375,-3.046875 -2.4375,-3.046875 -0.0625,0 -0.125,0.01563 -0.125,0.09375 0,0.03125 0.015625,0.0625 0.03125,0.09375 0.828125,0.859375 2.921875,3.046875 2.921875,8.390625 0,5.375 -2.078125,7.5625 -2.921875,8.421875 C 0.828125,4.15625 0.8125,4.171875 0.8125,4.203125 0.8125,4.28125 0.875,4.3125 0.9375,4.3125 1.125,4.3125 2.578125,3.03125 3.421875,1.140625 4.28125,-0.78125 4.53125,-2.640625 4.53125,-4.28125 Z m 0,0"
                 id="path79" />
            </g>
          </g>
        </g>
        <g
           clip-path="url(#clipPath6591)"
           clip-rule="nonzero"
           id="g60"
           style="stroke-width:0.338723">
          <g
             style="fill:#000000;fill-opacity:1;stroke-width:0.416859"
             id="g58">
            <g
               id="use56"
               transform="translate(38.603001,12.897)"
               style="stroke-width:0.416859">
              <path
                 style="stroke:none;stroke-width:0.416859"
                 d="m 6.734375,-6.46875 c -0.328125,0 -0.484375,0 -0.71875,0.203125 -0.109375,0.078125 -0.296875,0.34375 -0.296875,0.625 0,0.34375 0.25,0.546875 0.578125,0.546875 0.421875,0 0.890625,-0.34375 0.890625,-1.03125 0,-0.828125 -0.796875,-1.46875 -1.984375,-1.46875 -2.265625,0 -4.515625,2.46875 -4.515625,4.90625 0,1.5 0.9375,2.859375 2.6875,2.859375 2.34375,0 3.828125,-1.828125 3.828125,-2.046875 0,-0.109375 -0.109375,-0.1875 -0.171875,-0.1875 -0.0625,0 -0.078125,0.015625 -0.234375,0.171875 -1.09375,1.453125 -2.734375,1.71875 -3.390625,1.71875 -1.1875,0 -1.5625,-1.03125 -1.5625,-1.890625 0,-0.609375 0.296875,-2.28125 0.90625,-3.453125 C 3.203125,-6.3125 4.125,-7.25 5.21875,-7.25 c 0.21875,0 1.171875,0.03125 1.515625,0.78125 z m 0,0"
                 id="path83" />
            </g>
          </g>
        </g>
      </g>
    </g>
    <ellipse
       style="font-variation-settings:normal;opacity:1;vector-effect:none;fill:#f0f00e;fill-opacity:1;fill-rule:evenodd;stroke:#4d4d4d;stroke-width:0.5;stroke-linecap:butt;stroke-linejoin:miter;stroke-miterlimit:4;stroke-dasharray:none;stroke-dashoffset:0;stroke-opacity:1;-inkscape-stroke:none;paint-order:fill stroke markers;stop-color:#000000;stop-opacity:1"
       id="ellipse10832"
       cx="128.83447"
       cy="-22.201036"
       rx="29.484989"
       ry="52.569332" />
    <ellipse
       style="font-variation-settings:normal;opacity:1;vector-effect:none;fill:#ffb380;fill-opacity:1;fill-rule:evenodd;stroke:#4d4d4d;stroke-width:0.5;stroke-linecap:butt;stroke-linejoin:miter;stroke-miterlimit:4;stroke-dasharray:none;stroke-dashoffset:0;stroke-opacity:1;-inkscape-stroke:none;paint-order:fill stroke markers;stop-color:#000000;stop-opacity:1"
       id="ellipse10834"
       cx="254.81522"
       cy="-22.201036"
       rx="29.484989"
       ry="52.569332" />
    <path
       style="fill:none;stroke:#000000;stroke-width:0.465;stroke-linecap:butt;stroke-linejoin:miter;stroke-miterlimit:4;stroke-dasharray:none;stroke-opacity:1;marker-mid:url(#Arrow5)"
       d="m 130.78176,-52.274734 61.56562,1.967895 60.52057,1.934491"
       id="path10836"
       sodipodi:nodetypes="ccc" />
    <ellipse
       id="circle10842"
       style="fill:#0000ff;stroke:none;stroke-width:0.264582"
       cx="128.83447"
       cy="-52.274731"
       rx="1.9472944"
       ry="1.9511886" />
    <g
       inkscape:label=""
       transform="matrix(1.9472944,0,0,1.9511886,121.33481,-55.796162)"
       id="g10862"
       style="stroke-width:0.513021">
      <g
         id="g10860"
         transform="matrix(0.352778,0,0,0.352778,-0.242535,0.0641173)"
         style="stroke-width:0.513021">
        <g
           clip-path="url(#clipPath3254)"
           clip-rule="nonzero"
           id="g10858"
           style="stroke-width:0.298002">
          <g
             style="fill:#000000;fill-opacity:1;stroke-width:0.513021"
             id="g10856">
            <g
               id="g10854"
               transform="translate(0,7.4120002)"
               style="stroke-width:0.513021">
              <path
                 style="stroke:none;stroke-width:0.513021"
                 d="M 5.1875,-2.046875 C 5.09375,-1.75 5.09375,-1.71875 4.859375,-1.390625 c -0.375,0.484375 -1.140625,1.21875 -1.953125,1.21875 -0.703125,0 -1.09375,-0.640625 -1.09375,-1.65625 0,-0.9375 0.53125,-2.875 0.859375,-3.59375 C 3.25,-6.625 4.0625,-7.25 4.734375,-7.25 c 1.140625,0 1.359375,1.40625 1.359375,1.546875 0,0.015625 -0.046875,0.25 -0.0625,0.28125 z m 1.09375,-4.40625 C 6.09375,-6.90625 5.625,-7.59375 4.734375,-7.59375 c -1.9375,0 -4.046875,2.515625 -4.046875,5.0625 0,1.703125 1,2.703125 2.171875,2.703125 0.953125,0 1.75,-0.734375 2.234375,-1.3125 0.171875,1.015625 0.984375,1.3125 1.5,1.3125 0.515625,0 0.9375,-0.3125 1.234375,-0.921875 C 8.109375,-1.34375 8.34375,-2.390625 8.34375,-2.46875 8.34375,-2.546875 8.28125,-2.625 8.171875,-2.625 8.03125,-2.625 8,-2.53125 7.9375,-2.265625 7.671875,-1.25 7.359375,-0.171875 6.640625,-0.171875 c -0.5,0 -0.53125,-0.453125 -0.53125,-0.796875 0,-0.390625 0.0625,-0.578125 0.203125,-1.25 0.125,-0.4375 0.21875,-0.8125 0.34375,-1.3125 0.640625,-2.578125 0.796875,-3.203125 0.796875,-3.296875 0,-0.25 -0.1875,-0.4375 -0.4375,-0.4375 -0.5625,0 -0.703125,0.609375 -0.734375,0.8125 z m 0,0"
                 id="path10852" />
            </g>
          </g>
        </g>
      </g>
    </g>
    <g
       inkscape:label=""
       transform="matrix(1.9472944,0,0,1.9511886,121.19772,-29.413379)"
       id="g10874"
       style="stroke-width:0.513021">
      <g
         id="g10872"
         transform="matrix(0.352778,0,0,0.352778,-0.275608,-6.6143e-4)"
         style="stroke-width:0.513021">
        <g
           clip-path="url(#clipPath3453)"
           clip-rule="nonzero"
           id="g10870"
           style="stroke-width:0.298002">
          <g
             style="fill:#000000;fill-opacity:1;stroke-width:0.513021"
             id="g10868">
            <g
               id="g10866"
               transform="translate(0,11.955)"
               style="stroke-width:0.513021">
              <path
                 style="stroke:none;stroke-width:0.513021"
                 d="M 3.984375,-11.515625 C 4,-11.59375 4.03125,-11.6875 4.03125,-11.78125 c 0,-0.171875 -0.171875,-0.171875 -0.203125,-0.171875 -0.015625,0 -0.640625,0.0625 -0.953125,0.09375 -0.296875,0.01563 -0.546875,0.04687 -0.859375,0.0625 -0.421875,0.03125 -0.53125,0.04687 -0.53125,0.359375 0,0.171875 0.171875,0.171875 0.34375,0.171875 0.875,0 0.875,0.15625 0.875,0.328125 0,0.125 -0.140625,0.625 -0.203125,0.9375 L 2.078125,-8.34375 C 1.90625,-7.65625 0.9375,-3.75 0.859375,-3.4375 0.78125,-3.015625 0.78125,-2.71875 0.78125,-2.5 c 0,1.765625 0.96875,2.671875 2.09375,2.671875 2,0 4.0625,-2.5625 4.0625,-5.0625 0,-1.578125 -0.890625,-2.703125 -2.1875,-2.703125 -0.890625,0 -1.703125,0.734375 -2.03125,1.078125 z m -1.09375,11.34375 c -0.546875,0 -1.15625,-0.40625 -1.15625,-1.75 0,-0.578125 0.0625,-0.90625 0.359375,-2.109375 C 2.15625,-4.25 2.421875,-5.359375 2.5,-5.578125 2.53125,-5.71875 3.546875,-7.25 4.71875,-7.25 c 0.75,0 1.09375,0.765625 1.09375,1.65625 0,0.828125 -0.46875,2.765625 -0.90625,3.671875 -0.421875,0.921875 -1.21875,1.75 -2.015625,1.75 z m 0,0"
                 id="path10864" />
            </g>
          </g>
        </g>
      </g>
    </g>
    <g
       inkscape:label=""
       transform="matrix(1.9472944,0,0,1.9511886,121.10477,1.7561922)"
       id="g10886"
       style="stroke-width:0.513021">
      <g
         id="g10884"
         transform="matrix(0.352778,0,0,0.352778,-0.242535,0.0641173)"
         style="stroke-width:0.513021">
        <g
           clip-path="url(#clipPath6748)"
           clip-rule="nonzero"
           id="g10882"
           style="stroke-width:0.298002">
          <g
             style="fill:#000000;fill-opacity:1;stroke-width:0.513021"
             id="g10880">
            <g
               id="g10878"
               transform="translate(0,7.4120002)"
               style="stroke-width:0.513021">
              <path
                 style="stroke:none;stroke-width:0.513021"
                 d="m 6.734375,-6.46875 c -0.328125,0 -0.484375,0 -0.71875,0.203125 -0.109375,0.078125 -0.296875,0.34375 -0.296875,0.625 0,0.34375 0.25,0.546875 0.578125,0.546875 0.421875,0 0.890625,-0.34375 0.890625,-1.03125 0,-0.828125 -0.796875,-1.46875 -1.984375,-1.46875 -2.265625,0 -4.515625,2.46875 -4.515625,4.90625 0,1.5 0.9375,2.859375 2.6875,2.859375 2.34375,0 3.828125,-1.828125 3.828125,-2.046875 0,-0.109375 -0.109375,-0.1875 -0.171875,-0.1875 -0.0625,0 -0.078125,0.015625 -0.234375,0.171875 -1.09375,1.453125 -2.734375,1.71875 -3.390625,1.71875 -1.1875,0 -1.5625,-1.03125 -1.5625,-1.890625 0,-0.609375 0.296875,-2.28125 0.90625,-3.453125 C 3.203125,-6.3125 4.125,-7.25 5.21875,-7.25 c 0.21875,0 1.171875,0.03125 1.515625,0.78125 z m 0,0"
                 id="path10876" />
            </g>
          </g>
        </g>
      </g>
    </g>
    <g
       inkscape:label=""
       transform="matrix(2.3964961,0,0,2.4012886,167.28375,36.025349)"
       id="g10950"
       style="stroke-width:0.416859" />
    <g
       inkscape:label=""
       transform="matrix(2.4061524,0,0,2.401289,173.11579,39.813627)"
       id="g11619"
       style="font-variation-settings:normal;opacity:1;vector-effect:none;fill:#000000;fill-opacity:1;stroke-width:0.416022;stroke-linecap:butt;stroke-linejoin:miter;stroke-miterlimit:4;stroke-dasharray:none;stroke-dashoffset:0;stroke-opacity:1;-inkscape-stroke:none;stop-color:#000000;stop-opacity:1">
      <g
         id="g11617"
         transform="matrix(0.352778,0,0,0.352778,-0.545703,-0.00224907)"
         style="font-variation-settings:normal;vector-effect:none;fill:#000000;fill-opacity:1;stroke-width:1.17928;stroke-linecap:butt;stroke-linejoin:miter;stroke-miterlimit:4;stroke-dasharray:none;stroke-dashoffset:0;stroke-opacity:1;-inkscape-stroke:none;stop-color:#000000;stop-opacity:1">
        <g
           clip-path="url(#clipPath4903)"
           clip-rule="nonzero"
           id="g11587"
           style="font-variation-settings:normal;vector-effect:none;fill:#000000;fill-opacity:1;stroke-width:1.17928;stroke-linecap:butt;stroke-linejoin:miter;stroke-miterlimit:4;stroke-dasharray:none;stroke-dashoffset:0;stroke-opacity:1;-inkscape-stroke:none;stop-color:#000000;stop-opacity:1">
          <g
             style="font-variation-settings:normal;vector-effect:none;fill:#000000;fill-opacity:1;stroke-width:1.17928;stroke-linecap:butt;stroke-linejoin:miter;stroke-miterlimit:4;stroke-dasharray:none;stroke-dashoffset:0;stroke-opacity:1;-inkscape-stroke:none;stop-color:#000000;stop-opacity:1"
             id="g11585">
            <g
               id="g11583"
               transform="translate(0,12.897)"
               style="font-variation-settings:normal;vector-effect:none;fill:#000000;fill-opacity:1;stroke-width:1.17928;stroke-linecap:butt;stroke-linejoin:miter;stroke-miterlimit:4;stroke-dasharray:none;stroke-dashoffset:0;stroke-opacity:1;-inkscape-stroke:none;stop-color:#000000;stop-opacity:1">
              <path
                 style="font-variation-settings:normal;vector-effect:none;fill:#000000;fill-opacity:1;stroke:none;stroke-width:1.17928;stroke-linecap:butt;stroke-linejoin:miter;stroke-miterlimit:4;stroke-dasharray:none;stroke-dashoffset:0;stroke-opacity:1;-inkscape-stroke:none;stop-color:#000000;stop-opacity:1"
                 d="m 5.265625,4.203125 c 0,-0.015625 0,-0.046875 -0.046875,-0.109375 -0.796875,-0.8125 -2.90625,-3.015625 -2.90625,-8.375 0,-5.375 2.078125,-7.5625 2.921875,-8.421875 0,-0.01563 0.03125,-0.0625 0.03125,-0.109375 0,-0.04687 -0.046875,-0.07813 -0.125,-0.07813 -0.1875,0 -1.640625,1.265625 -2.484375,3.15625 -0.859375,1.921875 -1.109375,3.78125 -1.109375,5.421875 0,1.25 0.125,3.34375 1.15625,5.5625 0.828125,1.796875 2.234375,3.0625 2.4375,3.0625 0.09375,0 0.125,-0.046875 0.125,-0.109375 z m 0,0"
                 id="path11581" />
            </g>
          </g>
        </g>
        <g
           style="font-variation-settings:normal;vector-effect:none;fill:#000000;fill-opacity:1;stroke-width:1.17928;stroke-linecap:butt;stroke-linejoin:miter;stroke-miterlimit:4;stroke-dasharray:none;stroke-dashoffset:0;stroke-opacity:1;-inkscape-stroke:none;stop-color:#000000;stop-opacity:1"
           id="g11593">
          <g
             id="g11591"
             transform="translate(6.0970001,12.897)"
             style="font-variation-settings:normal;vector-effect:none;fill:#000000;fill-opacity:1;stroke-width:1.17928;stroke-linecap:butt;stroke-linejoin:miter;stroke-miterlimit:4;stroke-dasharray:none;stroke-dashoffset:0;stroke-opacity:1;-inkscape-stroke:none;stop-color:#000000;stop-opacity:1">
            <path
               style="font-variation-settings:normal;vector-effect:none;fill:#000000;fill-opacity:1;stroke:none;stroke-width:1.17928;stroke-linecap:butt;stroke-linejoin:miter;stroke-miterlimit:4;stroke-dasharray:none;stroke-dashoffset:0;stroke-opacity:1;-inkscape-stroke:none;stop-color:#000000;stop-opacity:1"
               d="M 5.1875,-2.046875 C 5.09375,-1.75 5.09375,-1.71875 4.859375,-1.390625 c -0.375,0.484375 -1.140625,1.21875 -1.953125,1.21875 -0.703125,0 -1.09375,-0.640625 -1.09375,-1.65625 0,-0.9375 0.53125,-2.875 0.859375,-3.59375 C 3.25,-6.625 4.0625,-7.25 4.734375,-7.25 c 1.140625,0 1.359375,1.40625 1.359375,1.546875 0,0.015625 -0.046875,0.25 -0.0625,0.28125 z m 1.09375,-4.40625 C 6.09375,-6.90625 5.625,-7.59375 4.734375,-7.59375 c -1.9375,0 -4.046875,2.515625 -4.046875,5.0625 0,1.703125 1,2.703125 2.171875,2.703125 0.953125,0 1.75,-0.734375 2.234375,-1.3125 0.171875,1.015625 0.984375,1.3125 1.5,1.3125 0.515625,0 0.9375,-0.3125 1.234375,-0.921875 C 8.109375,-1.34375 8.34375,-2.390625 8.34375,-2.46875 8.34375,-2.546875 8.28125,-2.625 8.171875,-2.625 8.03125,-2.625 8,-2.53125 7.9375,-2.265625 7.671875,-1.25 7.359375,-0.171875 6.640625,-0.171875 c -0.5,0 -0.53125,-0.453125 -0.53125,-0.796875 0,-0.390625 0.0625,-0.578125 0.203125,-1.25 0.125,-0.4375 0.21875,-0.8125 0.34375,-1.3125 0.640625,-2.578125 0.796875,-3.203125 0.796875,-3.296875 0,-0.25 -0.1875,-0.4375 -0.4375,-0.4375 -0.5625,0 -0.703125,0.609375 -0.734375,0.8125 z m 0,0"
               id="path11589" />
          </g>
        </g>
        <g
           style="font-variation-settings:normal;vector-effect:none;fill:#000000;fill-opacity:1;stroke-width:1.17928;stroke-linecap:butt;stroke-linejoin:miter;stroke-miterlimit:4;stroke-dasharray:none;stroke-dashoffset:0;stroke-opacity:1;-inkscape-stroke:none;stop-color:#000000;stop-opacity:1"
           id="g11599">
          <g
             id="g11597"
             transform="translate(20.144766,12.897)"
             style="font-variation-settings:normal;vector-effect:none;fill:#000000;fill-opacity:1;stroke-width:1.17928;stroke-linecap:butt;stroke-linejoin:miter;stroke-miterlimit:4;stroke-dasharray:none;stroke-dashoffset:0;stroke-opacity:1;-inkscape-stroke:none;stop-color:#000000;stop-opacity:1">
            <path
               style="font-variation-settings:normal;vector-effect:none;fill:#000000;fill-opacity:1;stroke:none;stroke-width:1.17928;stroke-linecap:butt;stroke-linejoin:miter;stroke-miterlimit:4;stroke-dasharray:none;stroke-dashoffset:0;stroke-opacity:1;-inkscape-stroke:none;stop-color:#000000;stop-opacity:1"
               d="m 6.734375,-6.46875 c -0.328125,0 -0.484375,0 -0.71875,0.203125 -0.109375,0.078125 -0.296875,0.34375 -0.296875,0.625 0,0.34375 0.25,0.546875 0.578125,0.546875 0.421875,0 0.890625,-0.34375 0.890625,-1.03125 0,-0.828125 -0.796875,-1.46875 -1.984375,-1.46875 -2.265625,0 -4.515625,2.46875 -4.515625,4.90625 0,1.5 0.9375,2.859375 2.6875,2.859375 2.34375,0 3.828125,-1.828125 3.828125,-2.046875 0,-0.109375 -0.109375,-0.1875 -0.171875,-0.1875 -0.0625,0 -0.078125,0.015625 -0.234375,0.171875 -1.09375,1.453125 -2.734375,1.71875 -3.390625,1.71875 -1.1875,0 -1.5625,-1.03125 -1.5625,-1.890625 0,-0.609375 0.296875,-2.28125 0.90625,-3.453125 C 3.203125,-6.3125 4.125,-7.25 5.21875,-7.25 c 0.21875,0 1.171875,0.03125 1.515625,0.78125 z m 0,0"
               id="path11595" />
          </g>
        </g>
        <g
           clip-path="url(#clipPath7910)"
           clip-rule="nonzero"
           id="g11607"
           style="font-variation-settings:normal;vector-effect:none;fill:#000000;fill-opacity:1;stroke-width:1.17928;stroke-linecap:butt;stroke-linejoin:miter;stroke-miterlimit:4;stroke-dasharray:none;stroke-dashoffset:0;stroke-opacity:1;-inkscape-stroke:none;stop-color:#000000;stop-opacity:1">
          <g
             style="font-variation-settings:normal;vector-effect:none;fill:#000000;fill-opacity:1;stroke-width:1.17928;stroke-linecap:butt;stroke-linejoin:miter;stroke-miterlimit:4;stroke-dasharray:none;stroke-dashoffset:0;stroke-opacity:1;-inkscape-stroke:none;stop-color:#000000;stop-opacity:1"
             id="g11605">
            <g
               id="g11603"
               transform="translate(27.396999,12.897)"
               style="font-variation-settings:normal;vector-effect:none;fill:#000000;fill-opacity:1;stroke-width:1.17928;stroke-linecap:butt;stroke-linejoin:miter;stroke-miterlimit:4;stroke-dasharray:none;stroke-dashoffset:0;stroke-opacity:1;-inkscape-stroke:none;stop-color:#000000;stop-opacity:1">
              <path
                 style="font-variation-settings:normal;vector-effect:none;fill:#000000;fill-opacity:1;stroke:none;stroke-width:1.17928;stroke-linecap:butt;stroke-linejoin:miter;stroke-miterlimit:4;stroke-dasharray:none;stroke-dashoffset:0;stroke-opacity:1;-inkscape-stroke:none;stop-color:#000000;stop-opacity:1"
                 d="m 4.53125,-4.28125 c 0,-1.25 -0.125,-3.34375 -1.15625,-5.5625 -0.828125,-1.796875 -2.234375,-3.046875 -2.4375,-3.046875 -0.0625,0 -0.125,0.01563 -0.125,0.09375 0,0.03125 0.015625,0.0625 0.03125,0.09375 0.828125,0.859375 2.921875,3.046875 2.921875,8.390625 0,5.375 -2.078125,7.5625 -2.921875,8.421875 C 0.828125,4.15625 0.8125,4.171875 0.8125,4.203125 0.8125,4.28125 0.875,4.3125 0.9375,4.3125 1.125,4.3125 2.578125,3.03125 3.421875,1.140625 4.28125,-0.78125 4.53125,-2.640625 4.53125,-4.28125 Z m 0,0"
                 id="path11601" />
            </g>
          </g>
        </g>
        <g
           clip-path="url(#clipPath6103)"
           clip-rule="nonzero"
           id="g11615"
           style="font-variation-settings:normal;vector-effect:none;fill:#000000;fill-opacity:1;stroke-width:1.17928;stroke-linecap:butt;stroke-linejoin:miter;stroke-miterlimit:4;stroke-dasharray:none;stroke-dashoffset:0;stroke-opacity:1;-inkscape-stroke:none;stop-color:#000000;stop-opacity:1">
          <g
             style="font-variation-settings:normal;vector-effect:none;fill:#000000;fill-opacity:1;stroke-width:1.17928;stroke-linecap:butt;stroke-linejoin:miter;stroke-miterlimit:4;stroke-dasharray:none;stroke-dashoffset:0;stroke-opacity:1;-inkscape-stroke:none;stop-color:#000000;stop-opacity:1"
             id="g11613">
            <g
               id="g11611"
               transform="translate(38.691002,12.897)"
               style="font-variation-settings:normal;vector-effect:none;fill:#000000;fill-opacity:1;stroke-width:1.17928;stroke-linecap:butt;stroke-linejoin:miter;stroke-miterlimit:4;stroke-dasharray:none;stroke-dashoffset:0;stroke-opacity:1;-inkscape-stroke:none;stop-color:#000000;stop-opacity:1">
              <path
                 style="font-variation-settings:normal;vector-effect:none;fill:#000000;fill-opacity:1;stroke:none;stroke-width:1.17928;stroke-linecap:butt;stroke-linejoin:miter;stroke-miterlimit:4;stroke-dasharray:none;stroke-dashoffset:0;stroke-opacity:1;-inkscape-stroke:none;stop-color:#000000;stop-opacity:1"
                 d="M 3.984375,-11.515625 C 4,-11.59375 4.03125,-11.6875 4.03125,-11.78125 c 0,-0.171875 -0.171875,-0.171875 -0.203125,-0.171875 -0.015625,0 -0.640625,0.0625 -0.953125,0.09375 -0.296875,0.01563 -0.546875,0.04687 -0.859375,0.0625 -0.421875,0.03125 -0.53125,0.04687 -0.53125,0.359375 0,0.171875 0.171875,0.171875 0.34375,0.171875 0.875,0 0.875,0.15625 0.875,0.328125 0,0.125 -0.140625,0.625 -0.203125,0.9375 L 2.078125,-8.34375 C 1.90625,-7.65625 0.9375,-3.75 0.859375,-3.4375 0.78125,-3.015625 0.78125,-2.71875 0.78125,-2.5 c 0,1.765625 0.96875,2.671875 2.09375,2.671875 2,0 4.0625,-2.5625 4.0625,-5.0625 0,-1.578125 -0.890625,-2.703125 -2.1875,-2.703125 -0.890625,0 -1.703125,0.734375 -2.03125,1.078125 z m -1.09375,11.34375 c -0.546875,0 -1.15625,-0.40625 -1.15625,-1.75 0,-0.578125 0.0625,-0.90625 0.359375,-2.109375 C 2.15625,-4.25 2.421875,-5.359375 2.5,-5.578125 2.53125,-5.71875 3.546875,-7.25 4.71875,-7.25 c 0.75,0 1.09375,0.765625 1.09375,1.65625 0,0.828125 -0.46875,2.765625 -0.90625,3.671875 -0.421875,0.921875 -1.21875,1.75 -2.015625,1.75 z m 0,0"
                 id="path11609" />
            </g>
          </g>
        </g>
      </g>
    </g>
    <g
       inkscape:label=""
       transform="matrix(2.4212991,0,0,2.401289,412.8736,40.607808)"
       id="g11995"
       style="stroke-width:0.414718">
      <g
         id="g11993"
         transform="matrix(0.352778,0,0,0.352778,-0.545703,-0.00224907)"
         style="stroke-width:0.414718">
        <g
           clip-path="url(#clipPath361)"
           clip-rule="nonzero"
           id="g11963"
           style="stroke-width:0.335253">
          <g
             style="fill:#000000;fill-opacity:1;stroke-width:0.414718"
             id="g11961">
            <g
               id="g11959"
               transform="translate(0,12.897)"
               style="stroke-width:0.414718">
              <path
                 style="stroke:none;stroke-width:0.414718"
                 d="m 5.265625,4.203125 c 0,-0.015625 0,-0.046875 -0.046875,-0.109375 -0.796875,-0.8125 -2.90625,-3.015625 -2.90625,-8.375 0,-5.375 2.078125,-7.5625 2.921875,-8.421875 0,-0.01563 0.03125,-0.0625 0.03125,-0.109375 0,-0.04687 -0.046875,-0.07813 -0.125,-0.07813 -0.1875,0 -1.640625,1.265625 -2.484375,3.15625 -0.859375,1.921875 -1.109375,3.78125 -1.109375,5.421875 0,1.25 0.125,3.34375 1.15625,5.5625 0.828125,1.796875 2.234375,3.0625 2.4375,3.0625 0.09375,0 0.125,-0.046875 0.125,-0.109375 z m 0,0"
                 id="path11957" />
            </g>
          </g>
        </g>
        <g
           style="fill:#000000;fill-opacity:1;stroke-width:0.414718"
           id="g11969">
          <g
             id="g11967"
             transform="translate(6.0970001,12.897)"
             style="stroke-width:0.414718">
            <path
               style="stroke:none;stroke-width:0.414718"
               d="M 3.984375,-11.515625 C 4,-11.59375 4.03125,-11.6875 4.03125,-11.78125 c 0,-0.171875 -0.171875,-0.171875 -0.203125,-0.171875 -0.015625,0 -0.640625,0.0625 -0.953125,0.09375 -0.296875,0.01563 -0.546875,0.04687 -0.859375,0.0625 -0.421875,0.03125 -0.53125,0.04687 -0.53125,0.359375 0,0.171875 0.171875,0.171875 0.34375,0.171875 0.875,0 0.875,0.15625 0.875,0.328125 0,0.125 -0.140625,0.625 -0.203125,0.9375 L 2.078125,-8.34375 C 1.90625,-7.65625 0.9375,-3.75 0.859375,-3.4375 0.78125,-3.015625 0.78125,-2.71875 0.78125,-2.5 c 0,1.765625 0.96875,2.671875 2.09375,2.671875 2,0 4.0625,-2.5625 4.0625,-5.0625 0,-1.578125 -0.890625,-2.703125 -2.1875,-2.703125 -0.890625,0 -1.703125,0.734375 -2.03125,1.078125 z m -1.09375,11.34375 c -0.546875,0 -1.15625,-0.40625 -1.15625,-1.75 0,-0.578125 0.0625,-0.90625 0.359375,-2.109375 C 2.15625,-4.25 2.421875,-5.359375 2.5,-5.578125 2.53125,-5.71875 3.546875,-7.25 4.71875,-7.25 c 0.75,0 1.09375,0.765625 1.09375,1.65625 0,0.828125 -0.46875,2.765625 -0.90625,3.671875 -0.421875,0.921875 -1.21875,1.75 -2.015625,1.75 z m 0,0"
               id="path11965" />
          </g>
        </g>
        <g
           style="fill:#000000;fill-opacity:1;stroke-width:0.414718"
           id="g11975">
          <g
             id="g11973"
             transform="translate(18.462822,12.897)"
             style="stroke-width:0.414718">
            <path
               style="stroke:none;stroke-width:0.414718"
               d="m 6.734375,-6.46875 c -0.328125,0 -0.484375,0 -0.71875,0.203125 -0.109375,0.078125 -0.296875,0.34375 -0.296875,0.625 0,0.34375 0.25,0.546875 0.578125,0.546875 0.421875,0 0.890625,-0.34375 0.890625,-1.03125 0,-0.828125 -0.796875,-1.46875 -1.984375,-1.46875 -2.265625,0 -4.515625,2.46875 -4.515625,4.90625 0,1.5 0.9375,2.859375 2.6875,2.859375 2.34375,0 3.828125,-1.828125 3.828125,-2.046875 0,-0.109375 -0.109375,-0.1875 -0.171875,-0.1875 -0.0625,0 -0.078125,0.015625 -0.234375,0.171875 -1.09375,1.453125 -2.734375,1.71875 -3.390625,1.71875 -1.1875,0 -1.5625,-1.03125 -1.5625,-1.890625 0,-0.609375 0.296875,-2.28125 0.90625,-3.453125 C 3.203125,-6.3125 4.125,-7.25 5.21875,-7.25 c 0.21875,0 1.171875,0.03125 1.515625,0.78125 z m 0,0"
               id="path11971" />
          </g>
        </g>
        <g
           clip-path="url(#clipPath1037)"
           clip-rule="nonzero"
           id="g11983"
           style="stroke-width:0.335253">
          <g
             style="fill:#000000;fill-opacity:1;stroke-width:0.414718"
             id="g11981">
            <g
               id="g11979"
               transform="translate(25.715,12.897)"
               style="stroke-width:0.414718">
              <path
                 style="stroke:none;stroke-width:0.414718"
                 d="m 4.53125,-4.28125 c 0,-1.25 -0.125,-3.34375 -1.15625,-5.5625 -0.828125,-1.796875 -2.234375,-3.046875 -2.4375,-3.046875 -0.0625,0 -0.125,0.01563 -0.125,0.09375 0,0.03125 0.015625,0.0625 0.03125,0.09375 0.828125,0.859375 2.921875,3.046875 2.921875,8.390625 0,5.375 -2.078125,7.5625 -2.921875,8.421875 C 0.828125,4.15625 0.8125,4.171875 0.8125,4.203125 0.8125,4.28125 0.875,4.3125 0.9375,4.3125 1.125,4.3125 2.578125,3.03125 3.421875,1.140625 4.28125,-0.78125 4.53125,-2.640625 4.53125,-4.28125 Z m 0,0"
                 id="path11977" />
            </g>
          </g>
        </g>
        <g
           clip-path="url(#clipPath1801)"
           clip-rule="nonzero"
           id="g11991"
           style="stroke-width:0.335253">
          <g
             style="fill:#000000;fill-opacity:1;stroke-width:0.414718"
             id="g11989">
            <g
               id="g11987"
               transform="translate(37.008999,12.897)"
               style="stroke-width:0.414718">
              <path
                 style="stroke:none;stroke-width:0.414718"
                 d="M 5.1875,-2.046875 C 5.09375,-1.75 5.09375,-1.71875 4.859375,-1.390625 c -0.375,0.484375 -1.140625,1.21875 -1.953125,1.21875 -0.703125,0 -1.09375,-0.640625 -1.09375,-1.65625 0,-0.9375 0.53125,-2.875 0.859375,-3.59375 C 3.25,-6.625 4.0625,-7.25 4.734375,-7.25 c 1.140625,0 1.359375,1.40625 1.359375,1.546875 0,0.015625 -0.046875,0.25 -0.0625,0.28125 z m 1.09375,-4.40625 C 6.09375,-6.90625 5.625,-7.59375 4.734375,-7.59375 c -1.9375,0 -4.046875,2.515625 -4.046875,5.0625 0,1.703125 1,2.703125 2.171875,2.703125 0.953125,0 1.75,-0.734375 2.234375,-1.3125 0.171875,1.015625 0.984375,1.3125 1.5,1.3125 0.515625,0 0.9375,-0.3125 1.234375,-0.921875 C 8.109375,-1.34375 8.34375,-2.390625 8.34375,-2.46875 8.34375,-2.546875 8.28125,-2.625 8.171875,-2.625 8.03125,-2.625 8,-2.53125 7.9375,-2.265625 7.671875,-1.25 7.359375,-0.171875 6.640625,-0.171875 c -0.5,0 -0.53125,-0.453125 -0.53125,-0.796875 0,-0.390625 0.0625,-0.578125 0.203125,-1.25 0.125,-0.4375 0.21875,-0.8125 0.34375,-1.3125 0.640625,-2.578125 0.796875,-3.203125 0.796875,-3.296875 0,-0.25 -0.1875,-0.4375 -0.4375,-0.4375 -0.5625,0 -0.703125,0.609375 -0.734375,0.8125 z m 0,0"
                 id="path11985" />
            </g>
          </g>
        </g>
      </g>
    </g>
    <ellipse
       style="font-variation-settings:normal;opacity:1;vector-effect:none;fill:#f0f00e;fill-opacity:1;fill-rule:evenodd;stroke:#4d4d4d;stroke-width:0.5;stroke-linecap:butt;stroke-linejoin:miter;stroke-miterlimit:4;stroke-dasharray:none;stroke-dashoffset:0;stroke-opacity:1;-inkscape-stroke:none;paint-order:fill stroke markers;stop-color:#000000;stop-opacity:1"
       id="ellipse12402"
       cx="356.81668"
       cy="-20.540422"
       rx="29.484989"
       ry="52.569332" />
    <ellipse
       style="font-variation-settings:normal;opacity:1;vector-effect:none;fill:#ffb380;fill-opacity:1;fill-rule:evenodd;stroke:#4d4d4d;stroke-width:0.5;stroke-linecap:butt;stroke-linejoin:miter;stroke-miterlimit:4;stroke-dasharray:none;stroke-dashoffset:0;stroke-opacity:1;-inkscape-stroke:none;paint-order:fill stroke markers;stop-color:#000000;stop-opacity:1"
       id="ellipse12404"
       cx="482.79736"
       cy="-20.540422"
       rx="29.484989"
       ry="52.569332" />
    <path
       style="font-variation-settings:normal;opacity:1;vector-effect:none;fill:none;fill-opacity:1;stroke:#000000;stroke-width:0.465;stroke-linecap:butt;stroke-linejoin:miter;stroke-miterlimit:4;stroke-dasharray:none;stroke-dashoffset:0;stroke-opacity:1;-inkscape-stroke:none;marker-mid:url(#Arrow5);stop-color:#000000;stop-opacity:1"
       d="m 356.81665,-22.491612 63.55427,-12.22193 62.42644,-11.998191"
       id="path12408"
       sodipodi:nodetypes="ccc" />
    <path
       style="font-variation-settings:normal;opacity:1;vector-effect:none;fill:none;fill-opacity:1;stroke:#000000;stroke-width:0.465;stroke-linecap:butt;stroke-linejoin:miter;stroke-miterlimit:4;stroke-dasharray:none;stroke-dashoffset:0;stroke-opacity:1;-inkscape-stroke:none;marker-mid:url(#Arrow5);stop-color:#000000;stop-opacity:1"
       d="m 128.83446,3.9702753 63.37521,-26.3312013 62.60555,-26.01142"
       id="path12510"
       sodipodi:nodetypes="ccc" />
    <path
       style="font-variation-settings:normal;opacity:1;vector-effect:none;fill:none;fill-opacity:1;stroke:#000000;stroke-width:0.465;stroke-linecap:butt;stroke-linejoin:miter;stroke-miterlimit:4;stroke-dasharray:none;stroke-dashoffset:0;stroke-opacity:1;-inkscape-stroke:none;marker-mid:url(#Arrow5);stop-color:#000000;stop-opacity:1"
       d="m 128.83446,-24.152225 64.06197,14.300463 61.91879,13.8220373"
       id="path12558"
       sodipodi:nodetypes="ccc" />
    <ellipse
       id="circle10840"
       style="fill:#0000ff;stroke:none;stroke-width:0.264582"
       cx="128.83447"
       cy="-24.152224"
       rx="1.9472944"
       ry="1.9511886" />
    <ellipse
       id="circle10848"
       style="fill:#0000ff;stroke:none;stroke-width:0.264582"
       cx="128.83447"
       cy="3.9702752"
       rx="1.9472944"
       ry="1.9511886" />
    <ellipse
       id="circle10844"
       style="fill:#0000ff;stroke:none;stroke-width:0.264582"
       cx="254.81522"
       cy="-48.372349"
       rx="1.9472944"
       ry="1.9511886" />
    <ellipse
       id="circle10850"
       style="fill:#0000ff;stroke:none;stroke-width:0.264582"
       cx="254.81522"
       cy="3.9702752"
       rx="1.9472944"
       ry="1.9511886" />
    <g
       inkscape:label=""
       transform="matrix(1.9472944,0,0,1.9511886,257.90015,-0.24775005)"
       id="g10898"
       style="stroke-width:0.513021">
      <g
         id="g10896"
         transform="matrix(0.352778,0,0,0.352778,-0.248047,0.0980722)"
         style="stroke-width:0.513021">
        <g
           clip-path="url(#clipPath5562)"
           clip-rule="nonzero"
           id="g10894"
           style="stroke-width:0.298002">
          <g
             style="fill:#000000;fill-opacity:1;stroke-width:0.513021"
             id="g10892">
            <g
               id="g10890"
               transform="translate(0,11.097)"
               style="stroke-width:0.513021">
              <path
                 style="stroke:none;stroke-width:0.513021"
                 d="M 7.1875,-2.671875 H 6.875 c -0.171875,1.21875 -0.3125,1.4375 -0.390625,1.53125 C 6.40625,-1 5.171875,-1 4.921875,-1 H 1.625 c 0.609375,-0.671875 1.8125,-1.890625 3.28125,-3.3125 1.046875,-0.984375 2.28125,-2.15625 2.28125,-3.859375 0,-2.03125 -1.625,-3.203125 -3.4375,-3.203125 -1.890625,0 -3.046875,1.65625 -3.046875,3.21875 0,0.671875 0.5,0.75 0.703125,0.75 0.171875,0 0.6875,-0.09375 0.6875,-0.703125 0,-0.53125 -0.4375,-0.6875 -0.6875,-0.6875 -0.09375,0 -0.203125,0.015625 -0.265625,0.046875 0.328125,-1.453125 1.328125,-2.1875 2.375,-2.1875 1.5,0 2.46875,1.1875 2.46875,2.765625 0,1.484375 -0.875,2.78125 -1.859375,3.90625 l -3.421875,3.875 V 0 h 6.0625 z m 0,0"
                 id="path10888" />
            </g>
          </g>
        </g>
      </g>
    </g>
    <g
       inkscape:label=""
       transform="matrix(1.9472944,0,0,1.9511886,257.46627,-52.396537)"
       id="g10910"
       style="stroke-width:0.513021">
      <g
         id="g10908"
         transform="matrix(0.352778,0,0,0.352778,-0.529167,0.0980722)"
         style="stroke-width:0.513021">
        <g
           clip-path="url(#clipPath3897)"
           clip-rule="nonzero"
           id="g10906"
           style="stroke-width:0.298002">
          <g
             style="fill:#000000;fill-opacity:1;stroke-width:0.513021"
             id="g10904">
            <g
               id="g10902"
               transform="translate(0,11.097)"
               style="stroke-width:0.513021">
              <path
                 style="stroke:none;stroke-width:0.513021"
                 d="m 4.578125,-11 c 0,-0.359375 -0.015625,-0.375 -0.25,-0.375 -0.671875,0.796875 -1.6875,1.0625 -2.65625,1.09375 -0.046875,0 -0.140625,0 -0.15625,0.03125 C 1.5,-10.203125 1.5,-10.171875 1.5,-9.8125 c 0.53125,0 1.421875,-0.109375 2.109375,-0.515625 V -1.25 c 0,0.59375 -0.03125,0.796875 -1.515625,0.796875 H 1.578125 V 0 c 0.828125,-0.015625 1.6875,-0.03125 2.515625,-0.03125 0.828125,0 1.6875,0.015625 2.515625,0.03125 V -0.453125 H 6.09375 c -1.484375,0 -1.515625,-0.1875 -1.515625,-0.796875 z m 0,0"
                 id="path10900" />
            </g>
          </g>
        </g>
      </g>
    </g>
    <path
       style="font-variation-settings:normal;opacity:1;vector-effect:none;fill:none;fill-opacity:1;stroke:#000000;stroke-width:0.465;stroke-linecap:butt;stroke-linejoin:miter;stroke-miterlimit:4;stroke-dasharray:none;stroke-dashoffset:0;stroke-opacity:1;-inkscape-stroke:none;marker-mid:url(#Arrow5);stop-color:#000000;stop-opacity:1"
       d="m 356.81665,5.6308863 c 29.54589,-12.2757583 59.09176,-24.5515163 88.63764,-36.8272733 12.44769,-5.17178 24.8954,-10.343564 37.34309,-15.515346"
       id="path12844"
       sodipodi:nodetypes="csc" />
    <path
       style="font-variation-settings:normal;opacity:1;vector-effect:none;fill:none;fill-opacity:1;stroke:#000000;stroke-width:0.465;stroke-linecap:butt;stroke-linejoin:miter;stroke-miterlimit:4;stroke-dasharray:none;stroke-dashoffset:0;stroke-opacity:1;-inkscape-stroke:none;marker-mid:url(#Arrow5);stop-color:#000000;stop-opacity:1"
       d="m 356.81665,-50.614117 77.08067,34.41322 48.90006,21.8317833"
       id="path12964"
       sodipodi:nodetypes="ccc" />
    <ellipse
       id="circle12414"
       style="fill:#0000ff;stroke:none;stroke-width:0.264582"
       cx="482.79736"
       cy="-46.711735"
       rx="1.9472944"
       ry="1.9511886" />
    <ellipse
       id="circle12420"
       style="fill:#0000ff;stroke:none;stroke-width:0.264582"
       cx="482.79736"
       cy="5.6308885"
       rx="1.9472944"
       ry="1.9511886" />
    <g
       inkscape:label=""
       transform="matrix(1.9472944,0,0,1.9511886,485.88233,1.4128621)"
       id="g12468"
       style="stroke-width:0.513021">
      <g
         id="g12466"
         transform="matrix(0.352778,0,0,0.352778,-0.248047,0.0980722)"
         style="stroke-width:0.513021">
        <g
           clip-path="url(#clipPath5562)"
           clip-rule="nonzero"
           id="g12464"
           style="stroke-width:0.298002">
          <g
             style="fill:#000000;fill-opacity:1;stroke-width:0.513021"
             id="g12462">
            <g
               id="g12460"
               transform="translate(0,11.097)"
               style="stroke-width:0.513021">
              <path
                 style="stroke:none;stroke-width:0.513021"
                 d="M 7.1875,-2.671875 H 6.875 c -0.171875,1.21875 -0.3125,1.4375 -0.390625,1.53125 C 6.40625,-1 5.171875,-1 4.921875,-1 H 1.625 c 0.609375,-0.671875 1.8125,-1.890625 3.28125,-3.3125 1.046875,-0.984375 2.28125,-2.15625 2.28125,-3.859375 0,-2.03125 -1.625,-3.203125 -3.4375,-3.203125 -1.890625,0 -3.046875,1.65625 -3.046875,3.21875 0,0.671875 0.5,0.75 0.703125,0.75 0.171875,0 0.6875,-0.09375 0.6875,-0.703125 0,-0.53125 -0.4375,-0.6875 -0.6875,-0.6875 -0.09375,0 -0.203125,0.015625 -0.265625,0.046875 0.328125,-1.453125 1.328125,-2.1875 2.375,-2.1875 1.5,0 2.46875,1.1875 2.46875,2.765625 0,1.484375 -0.875,2.78125 -1.859375,3.90625 l -3.421875,3.875 V 0 h 6.0625 z m 0,0"
                 id="path12458" />
            </g>
          </g>
        </g>
      </g>
    </g>
    <g
       inkscape:label=""
       transform="matrix(1.9472944,0,0,1.9511886,485.44844,-50.735925)"
       id="g12480"
       style="stroke-width:0.513021">
      <g
         id="g12478"
         transform="matrix(0.352778,0,0,0.352778,-0.529167,0.0980722)"
         style="stroke-width:0.513021">
        <g
           clip-path="url(#clipPath3897)"
           clip-rule="nonzero"
           id="g12476"
           style="stroke-width:0.298002">
          <g
             style="fill:#000000;fill-opacity:1;stroke-width:0.513021"
             id="g12474">
            <g
               id="g12472"
               transform="translate(0,11.097)"
               style="stroke-width:0.513021">
              <path
                 style="stroke:none;stroke-width:0.513021"
                 d="m 4.578125,-11 c 0,-0.359375 -0.015625,-0.375 -0.25,-0.375 -0.671875,0.796875 -1.6875,1.0625 -2.65625,1.09375 -0.046875,0 -0.140625,0 -0.15625,0.03125 C 1.5,-10.203125 1.5,-10.171875 1.5,-9.8125 c 0.53125,0 1.421875,-0.109375 2.109375,-0.515625 V -1.25 c 0,0.59375 -0.03125,0.796875 -1.515625,0.796875 H 1.578125 V 0 c 0.828125,-0.015625 1.6875,-0.03125 2.515625,-0.03125 0.828125,0 1.6875,0.015625 2.515625,0.03125 V -0.453125 H 6.09375 c -1.484375,0 -1.515625,-0.1875 -1.515625,-0.796875 z m 0,0"
                 id="path12470" />
            </g>
          </g>
        </g>
      </g>
    </g>
    <ellipse
       id="circle12410"
       style="fill:#0000ff;stroke:none;stroke-width:0.264582"
       cx="356.81668"
       cy="-22.491613"
       rx="1.9472944"
       ry="1.9511886" />
    <ellipse
       id="circle12412"
       style="fill:#0000ff;stroke:none;stroke-width:0.264582"
       cx="356.81668"
       cy="-50.614117"
       rx="1.9472944"
       ry="1.9511886" />
    <ellipse
       id="circle12418"
       style="fill:#0000ff;stroke:none;stroke-width:0.264582"
       cx="356.81668"
       cy="5.6308885"
       rx="1.9472944"
       ry="1.9511886" />
    <g
       inkscape:label=""
       transform="matrix(1.9472944,0,0,1.9511886,349.31699,-54.135549)"
       id="g12432"
       style="stroke-width:0.513021">
      <g
         id="g12430"
         transform="matrix(0.352778,0,0,0.352778,-0.242535,0.0641173)"
         style="stroke-width:0.513021">
        <g
           clip-path="url(#clipPath3254)"
           clip-rule="nonzero"
           id="g12428"
           style="stroke-width:0.298002">
          <g
             style="fill:#000000;fill-opacity:1;stroke-width:0.513021"
             id="g12426">
            <g
               id="g12424"
               transform="translate(0,7.4120002)"
               style="stroke-width:0.513021">
              <path
                 style="stroke:none;stroke-width:0.513021"
                 d="M 5.1875,-2.046875 C 5.09375,-1.75 5.09375,-1.71875 4.859375,-1.390625 c -0.375,0.484375 -1.140625,1.21875 -1.953125,1.21875 -0.703125,0 -1.09375,-0.640625 -1.09375,-1.65625 0,-0.9375 0.53125,-2.875 0.859375,-3.59375 C 3.25,-6.625 4.0625,-7.25 4.734375,-7.25 c 1.140625,0 1.359375,1.40625 1.359375,1.546875 0,0.015625 -0.046875,0.25 -0.0625,0.28125 z m 1.09375,-4.40625 C 6.09375,-6.90625 5.625,-7.59375 4.734375,-7.59375 c -1.9375,0 -4.046875,2.515625 -4.046875,5.0625 0,1.703125 1,2.703125 2.171875,2.703125 0.953125,0 1.75,-0.734375 2.234375,-1.3125 0.171875,1.015625 0.984375,1.3125 1.5,1.3125 0.515625,0 0.9375,-0.3125 1.234375,-0.921875 C 8.109375,-1.34375 8.34375,-2.390625 8.34375,-2.46875 8.34375,-2.546875 8.28125,-2.625 8.171875,-2.625 8.03125,-2.625 8,-2.53125 7.9375,-2.265625 7.671875,-1.25 7.359375,-0.171875 6.640625,-0.171875 c -0.5,0 -0.53125,-0.453125 -0.53125,-0.796875 0,-0.390625 0.0625,-0.578125 0.203125,-1.25 0.125,-0.4375 0.21875,-0.8125 0.34375,-1.3125 0.640625,-2.578125 0.796875,-3.203125 0.796875,-3.296875 0,-0.25 -0.1875,-0.4375 -0.4375,-0.4375 -0.5625,0 -0.703125,0.609375 -0.734375,0.8125 z m 0,0"
                 id="path12422" />
            </g>
          </g>
        </g>
      </g>
    </g>
    <g
       inkscape:label=""
       transform="matrix(1.9472944,0,0,1.9511886,349.1799,-27.752767)"
       id="g12444"
       style="stroke-width:0.513021">
      <g
         id="g12442"
         transform="matrix(0.352778,0,0,0.352778,-0.275608,-6.6143e-4)"
         style="stroke-width:0.513021">
        <g
           clip-path="url(#clipPath3453)"
           clip-rule="nonzero"
           id="g12440"
           style="stroke-width:0.298002">
          <g
             style="fill:#000000;fill-opacity:1;stroke-width:0.513021"
             id="g12438">
            <g
               id="g12436"
               transform="translate(0,11.955)"
               style="stroke-width:0.513021">
              <path
                 style="stroke:none;stroke-width:0.513021"
                 d="M 3.984375,-11.515625 C 4,-11.59375 4.03125,-11.6875 4.03125,-11.78125 c 0,-0.171875 -0.171875,-0.171875 -0.203125,-0.171875 -0.015625,0 -0.640625,0.0625 -0.953125,0.09375 -0.296875,0.01563 -0.546875,0.04687 -0.859375,0.0625 -0.421875,0.03125 -0.53125,0.04687 -0.53125,0.359375 0,0.171875 0.171875,0.171875 0.34375,0.171875 0.875,0 0.875,0.15625 0.875,0.328125 0,0.125 -0.140625,0.625 -0.203125,0.9375 L 2.078125,-8.34375 C 1.90625,-7.65625 0.9375,-3.75 0.859375,-3.4375 0.78125,-3.015625 0.78125,-2.71875 0.78125,-2.5 c 0,1.765625 0.96875,2.671875 2.09375,2.671875 2,0 4.0625,-2.5625 4.0625,-5.0625 0,-1.578125 -0.890625,-2.703125 -2.1875,-2.703125 -0.890625,0 -1.703125,0.734375 -2.03125,1.078125 z m -1.09375,11.34375 c -0.546875,0 -1.15625,-0.40625 -1.15625,-1.75 0,-0.578125 0.0625,-0.90625 0.359375,-2.109375 C 2.15625,-4.25 2.421875,-5.359375 2.5,-5.578125 2.53125,-5.71875 3.546875,-7.25 4.71875,-7.25 c 0.75,0 1.09375,0.765625 1.09375,1.65625 0,0.828125 -0.46875,2.765625 -0.90625,3.671875 -0.421875,0.921875 -1.21875,1.75 -2.015625,1.75 z m 0,0"
                 id="path12434" />
            </g>
          </g>
        </g>
      </g>
    </g>
    <g
       inkscape:label=""
       transform="matrix(1.9472944,0,0,1.9511886,349.08695,3.4168043)"
       id="g12456"
       style="stroke-width:0.513021">
      <g
         id="g12454"
         transform="matrix(0.352778,0,0,0.352778,-0.242535,0.0641173)"
         style="stroke-width:0.513021">
        <g
           clip-path="url(#clipPath6748)"
           clip-rule="nonzero"
           id="g12452"
           style="stroke-width:0.298002">
          <g
             style="fill:#000000;fill-opacity:1;stroke-width:0.513021"
             id="g12450">
            <g
               id="g12448"
               transform="translate(0,7.4120002)"
               style="stroke-width:0.513021">
              <path
                 style="stroke:none;stroke-width:0.513021"
                 d="m 6.734375,-6.46875 c -0.328125,0 -0.484375,0 -0.71875,0.203125 -0.109375,0.078125 -0.296875,0.34375 -0.296875,0.625 0,0.34375 0.25,0.546875 0.578125,0.546875 0.421875,0 0.890625,-0.34375 0.890625,-1.03125 0,-0.828125 -0.796875,-1.46875 -1.984375,-1.46875 -2.265625,0 -4.515625,2.46875 -4.515625,4.90625 0,1.5 0.9375,2.859375 2.6875,2.859375 2.34375,0 3.828125,-1.828125 3.828125,-2.046875 0,-0.109375 -0.109375,-0.1875 -0.171875,-0.1875 -0.0625,0 -0.078125,0.015625 -0.234375,0.171875 -1.09375,1.453125 -2.734375,1.71875 -3.390625,1.71875 -1.1875,0 -1.5625,-1.03125 -1.5625,-1.890625 0,-0.609375 0.296875,-2.28125 0.90625,-3.453125 C 3.203125,-6.3125 4.125,-7.25 5.21875,-7.25 c 0.21875,0 1.171875,0.03125 1.515625,0.78125 z m 0,0"
                 id="path12446" />
            </g>
          </g>
        </g>
      </g>
    </g>
  </g>
</svg>
