<?xml version="1.0" encoding="UTF-8" standalone="no"?>
<!-- Created with Inkscape (http://www.inkscape.org/) -->

<svg
   sodipodi:docname="sphere-for-website.svg"
   id="svg5"
   version="1.1"
   viewBox="0 0 118.30735 95.596489"
   height="95.596489mm"
   width="118.30733mm"
   inkscape:version="1.2.2 (b0a8486541, 2022-12-01, custom)"
   xmlns:inkscape="http://www.inkscape.org/namespaces/inkscape"
   xmlns:sodipodi="http://sodipodi.sourceforge.net/DTD/sodipodi-0.dtd"
   xmlns:xlink="http://www.w3.org/1999/xlink"
   xmlns="http://www.w3.org/2000/svg"
   xmlns:svg="http://www.w3.org/2000/svg">
  <sodipodi:namedview
     id="namedview7"
     pagecolor="#ffffff"
     bordercolor="#000000"
     borderopacity="0.25"
     inkscape:showpageshadow="2"
     inkscape:pageopacity="0.0"
     inkscape:pagecheckerboard="0"
     inkscape:deskcolor="#d1d1d1"
     inkscape:document-units="mm"
     showgrid="false"
     inkscape:zoom="1"
     inkscape:cx="232"
     inkscape:cy="297.5"
     inkscape:window-width="1846"
     inkscape:window-height="1016"
     inkscape:window-x="0"
     inkscape:window-y="0"
     inkscape:window-maximized="1"
     inkscape:current-layer="layer1" />
  <defs
     id="defs2">
    <linearGradient
       inkscape:collect="always"
       id="linearGradient925">
      <stop
         style="stop-color:#80e5ff;stop-opacity:1"
         offset="0"
         id="stop921" />
      <stop
         style="stop-color:#00aad4;stop-opacity:1"
         offset="1"
         id="stop923" />
    </linearGradient>
    <radialGradient
       inkscape:collect="always"
       xlink:href="#linearGradient925"
       id="radialGradient927"
       cx="79.085617"
       cy="84.804123"
       fx="79.085617"
       fy="84.804123"
       r="45.852497"
       gradientUnits="userSpaceOnUse"
       gradientTransform="matrix(1.4082099,1.9376664,-1.7023726,1.2372085,88.199758,-180.5029)" />
    <filter
       inkscape:collect="always"
       style="color-interpolation-filters:sRGB"
       id="filter8556"
       x="-0.036418404"
       y="-0.14225706"
       width="1.0728368"
       height="1.2845141">
      <feGaussianBlur
         inkscape:collect="always"
         stdDeviation="0.75014271"
         id="feGaussianBlur8558" />
    </filter>
  </defs>
  <g
     inkscape:label="Layer 1"
     inkscape:groupmode="layer"
     id="layer1"
     transform="translate(-39.390812,-45.294064)">
    <ellipse
       style="opacity:0.57;mix-blend-mode:normal;fill:#cccccc;fill-opacity:1;stroke:none;stroke-width:0.200871;filter:url(#filter8556)"
       id="circle8552"
       cx="129.85283"
       cy="149.98503"
       rx="24.717482"
       ry="6.3277788"
       transform="matrix(1.2295242,-0.51704029,0.23221299,1.3134449,-71.27928,-13.353996)" />
    <circle
       style="fill:url(#radialGradient927);fill-opacity:1;stroke:none;stroke-width:0.264583"
       id="path111"
       cx="85.243309"
       cy="91.146561"
       r="45.852497" />
    <path
       style="font-variation-settings:normal;opacity:1;vector-effect:none;fill:none;fill-opacity:1;stroke:#000080;stroke-width:0.5;stroke-linecap:butt;stroke-linejoin:miter;stroke-miterlimit:4;stroke-dasharray:0.795, 0.795;stroke-dashoffset:0;stroke-opacity:0.577937;-inkscape-stroke:none;stop-color:#000000;stop-opacity:1"
       d="m 40.219982,96.949951 c 0,-14.275791 20.175242,-25.848606 45.062664,-25.848606 24.887424,0 45.062664,11.572815 45.062664,25.848606"
       id="path5073" />
    <path
       style="font-variation-settings:normal;opacity:1;vector-effect:none;fill:none;fill-opacity:1;stroke:#000080;stroke-width:0.5;stroke-linecap:butt;stroke-linejoin:miter;stroke-miterlimit:4;stroke-dasharray:none;stroke-dashoffset:0;stroke-opacity:1;-inkscape-stroke:none;stop-color:#000000;stop-opacity:1"
       d="m 130.34531,96.949951 c 0,14.275789 -20.17524,25.848609 -45.062664,25.848609 -24.887424,0 -45.062667,-11.57282 -45.062664,-25.848609"
       id="path4835" />
    <path
       style="font-variation-settings:normal;opacity:1;vector-effect:none;fill:none;fill-opacity:1;stroke:#000080;stroke-width:0.5;stroke-linecap:butt;stroke-linejoin:miter;stroke-miterlimit:4;stroke-dasharray:none;stroke-dashoffset:0;stroke-opacity:1;-inkscape-stroke:none;stop-color:#000000;stop-opacity:1"
       d="m 57.5853,65.086533 c 9.049241,-2e-6 16.385101,20.426729 16.3851,45.624377 -10e-7,25.19765 -7.33586,45.62437 -16.3851,45.62437"
       transform="rotate(-15.6291)"
       id="path5343" />
    <path
       style="font-variation-settings:normal;opacity:1;vector-effect:none;fill:none;fill-opacity:1;stroke:#000080;stroke-width:0.5;stroke-linecap:butt;stroke-linejoin:miter;stroke-miterlimit:4;stroke-dasharray:0.795, 0.795;stroke-dashoffset:0;stroke-opacity:0.577937;-inkscape-stroke:none;stop-color:#000000;stop-opacity:1"
       d="m 57.5853,156.33528 c -3.785529,0 -7.271222,-3.5746 -10.045484,-9.57771 -3.857562,-8.34723 -6.339615,-21.38984 -6.339615,-36.04666 C 41.2002,85.513263 48.536059,65.086533 57.5853,65.086533"
       transform="rotate(-15.6291)"
       id="path4813" />
    <circle
       style="fill:#ff0000;stroke:none;stroke-width:0.499999;stroke-dasharray:none;stroke-dashoffset:0;stroke-opacity:0.577937"
       id="circle4527"
       cx="85.283493"
       cy="128.47728"
       r="1.0967106" />
    <circle
       style="fill:#ff0000;stroke:none;stroke-width:0.499999;stroke-dasharray:none;stroke-dashoffset:0;stroke-opacity:0.577937"
       id="path4523"
       cx="85.288345"
       cy="53.732742"
       r="1.0967106" />
    <circle
       style="fill:#ff6969;fill-opacity:1;stroke:none;stroke-width:0.499999;stroke-dasharray:none;stroke-dashoffset:0;stroke-opacity:0.577937"
       id="circle5393"
       cx="65.64257"
       cy="60.932472"
       r="1.0967106" />
    <g
       id="g5618"
       transform="rotate(91.857038,160.38015,77.198478)"
       style="fill:#000080;fill-opacity:1">
      <g
         id="path5620"
         style="fill:#000080;fill-opacity:1">
        <path
           style="color:#000000;fill:#000080;fill-opacity:1;fill-rule:evenodd;stroke-width:0.25pt;-inkscape-stroke:none"
           d="m 174.28747,135.44503 c 0.65492,-0.44281 1.48324,-1.19373 1.83005,-1.80995 0,0 0.26941,0.96303 -0.14475,1.33849 0.54886,0.10605 0.81827,1.06908 0.81827,1.06908 -0.61622,-0.34681 -1.71395,-0.55892 -2.50357,-0.59762 z"
           id="path5624" />
        <path
           style="color:#000000;fill:#000080;fill-opacity:1;fill-rule:evenodd;-inkscape-stroke:none"
           d="m 176.16992,133.20312 -0.19726,0.34961 c -0.31957,0.56781 -1.14279,1.32355 -1.7793,1.75391 l -0.41406,0.28125 0.5,0.0234 c 0.76742,0.0376 1.86188,0.25661 2.42968,0.57617 l 0.35157,0.19727 -0.10938,-0.38672 c 0,0 -0.071,-0.25685 -0.2168,-0.5293 -0.11977,-0.22378 -0.34167,-0.41875 -0.5996,-0.54102 0.15629,-0.23818 0.24612,-0.52042 0.23242,-0.77343 -0.0167,-0.30858 -0.0898,-0.56446 -0.0898,-0.56446 z m -0.16797,0.77149 c 0.0141,0.0819 0.0255,0.0903 0.0312,0.19726 0.0145,0.26681 -0.0306,0.54971 -0.17187,0.67774 l -0.24805,0.22461 0.32813,0.0625 c 0.18715,0.0362 0.37391,0.25466 0.5,0.49023 0.0503,0.094 0.0458,0.10652 0.0762,0.1836 -0.5701,-0.24211 -1.26173,-0.39564 -1.90625,-0.45508 0.51991,-0.385 1.02869,-0.8782 1.39062,-1.38086 z"
           id="path5626" />
      </g>
    </g>
    <g
       id="g6814"
       transform="rotate(-46.330579,24.114697,218.55272)"
       style="fill:#2559b0;fill-opacity:1">
      <g
         id="g6812"
         style="fill:#2559b0;fill-opacity:1">
        <path
           style="color:#000000;fill:#2559b0;fill-opacity:1;fill-rule:evenodd;stroke-width:0.25pt;-inkscape-stroke:none"
           d="m 174.28747,135.44503 c 0.65492,-0.44281 1.48324,-1.19373 1.83005,-1.80995 0,0 0.26941,0.96303 -0.14475,1.33849 0.54886,0.10605 0.81827,1.06908 0.81827,1.06908 -0.61622,-0.34681 -1.71395,-0.55892 -2.50357,-0.59762 z"
           id="path6808" />
        <path
           style="color:#000000;fill:#2559b0;fill-opacity:1;fill-rule:evenodd;-inkscape-stroke:none"
           d="m 176.16992,133.20312 -0.19726,0.34961 c -0.31957,0.56781 -1.14279,1.32355 -1.7793,1.75391 l -0.41406,0.28125 0.5,0.0234 c 0.76742,0.0376 1.86188,0.25661 2.42968,0.57617 l 0.35157,0.19727 -0.10938,-0.38672 c 0,0 -0.071,-0.25685 -0.2168,-0.5293 -0.11977,-0.22378 -0.34167,-0.41875 -0.5996,-0.54102 0.15629,-0.23818 0.24612,-0.52042 0.23242,-0.77343 -0.0167,-0.30858 -0.0898,-0.56446 -0.0898,-0.56446 z m -0.16797,0.77149 c 0.0141,0.0819 0.0255,0.0903 0.0312,0.19726 0.0145,0.26681 -0.0306,0.54971 -0.17187,0.67774 l -0.24805,0.22461 0.32813,0.0625 c 0.18715,0.0362 0.37391,0.25466 0.5,0.49023 0.0503,0.094 0.0458,0.10652 0.0762,0.1836 -0.5701,-0.24211 -1.26173,-0.39564 -1.90625,-0.45508 0.51991,-0.385 1.02869,-0.8782 1.39062,-1.38086 z"
           id="path6810" />
      </g>
    </g>
    <g
       id="g7098"
       transform="rotate(88.386015,142.5815,61.247998)"
       style="fill:#2559b0;fill-opacity:1"
       inkscape:transform-center-x="-0.13077574"
       inkscape:transform-center-y="-0.63628896">
      <g
         id="g7096"
         style="fill:#2559b0;fill-opacity:1">
        <path
           style="color:#000000;fill:#2559b0;fill-opacity:1;fill-rule:evenodd;stroke-width:0.25pt;-inkscape-stroke:none"
           d="m 174.28747,135.44503 c 0.65492,-0.44281 1.48324,-1.19373 1.83005,-1.80995 0,0 0.26941,0.96303 -0.14475,1.33849 0.54886,0.10605 0.81827,1.06908 0.81827,1.06908 -0.61622,-0.34681 -1.71395,-0.55892 -2.50357,-0.59762 z"
           id="path7092" />
        <path
           style="color:#000000;fill:#2559b0;fill-opacity:1;fill-rule:evenodd;-inkscape-stroke:none"
           d="m 176.16992,133.20312 -0.19726,0.34961 c -0.31957,0.56781 -1.14279,1.32355 -1.7793,1.75391 l -0.41406,0.28125 0.5,0.0234 c 0.76742,0.0376 1.86188,0.25661 2.42968,0.57617 l 0.35157,0.19727 -0.10938,-0.38672 c 0,0 -0.071,-0.25685 -0.2168,-0.5293 -0.11977,-0.22378 -0.34167,-0.41875 -0.5996,-0.54102 0.15629,-0.23818 0.24612,-0.52042 0.23242,-0.77343 -0.0167,-0.30858 -0.0898,-0.56446 -0.0898,-0.56446 z m -0.16797,0.77149 c 0.0141,0.0819 0.0255,0.0903 0.0312,0.19726 0.0145,0.26681 -0.0306,0.54971 -0.17187,0.67774 l -0.24805,0.22461 0.32813,0.0625 c 0.18715,0.0362 0.37391,0.25466 0.5,0.49023 0.0503,0.094 0.0458,0.10652 0.0762,0.1836 -0.5701,-0.24211 -1.26173,-0.39564 -1.90625,-0.45508 0.51991,-0.385 1.02869,-0.8782 1.39062,-1.38086 z"
           id="path7094" />
      </g>
    </g>
  </g>
</svg>
