<?xml version="1.0" encoding="UTF-8" standalone="no"?>
<!-- Created with Inkscape (http://www.inkscape.org/) -->

<svg
   width="185.10156mm"
   height="77.511719mm"
   viewBox="0 0 185.10156 77.511719"
   version="1.1"
   id="svg1"
   inkscape:version="1.3 (0e150ed, 2023-07-21)"
   sodipodi:docname="HW-02-evenOdd-01.svg"
   xmlns:inkscape="http://www.inkscape.org/namespaces/inkscape"
   xmlns:sodipodi="http://sodipodi.sourceforge.net/DTD/sodipodi-0.dtd"
   xmlns="http://www.w3.org/2000/svg"
   xmlns:svg="http://www.w3.org/2000/svg">
  <sodipodi:namedview
     id="namedview1"
     pagecolor="#ffffff"
     bordercolor="#000000"
     borderopacity="0.25"
     inkscape:showpageshadow="2"
     inkscape:pageopacity="0.0"
     inkscape:pagecheckerboard="0"
     inkscape:deskcolor="#d1d1d1"
     inkscape:document-units="mm"
     inkscape:zoom="1"
     inkscape:cx="356.5"
     inkscape:cy="201"
     inkscape:window-width="1512"
     inkscape:window-height="916"
     inkscape:window-x="0"
     inkscape:window-y="38"
     inkscape:window-maximized="1"
     inkscape:current-layer="layer1" />
  <defs
     id="defs1" />
  <g
     inkscape:label="Layer 1"
     inkscape:groupmode="layer"
     id="layer1"
     transform="translate(-10.083984,-104.85547)">
    <g
       id="path2">
      <path
         style="color:#000000;fill:#666666;stroke-linecap:round;stroke-miterlimit:10;-inkscape-stroke:none"
         d="m 10.583984,166.7168 a 0.5,0.5 0 0 0 -0.5,0.5 0.5,0.5 0 0 0 0.5,0.5 H 191.13281 a 0.5,0.5 0 0 0 0.5,-0.5 0.5,0.5 0 0 0 -0.5,-0.5 z"
         id="path13" />
      <g
         id="g10">
        <g
           id="path10">
          <path
             style="color:#000000;fill:#666666;fill-rule:evenodd;-inkscape-stroke:none"
             d="m 194.13185,167.21667 c -1.5,0.5 -3.5,1.5 -4.5,2.5 0,0 0,-2 1,-2.5 -1,-0.5 -1,-2.5 -1,-2.5 1,1 3,2 4.5,2.5 z"
             id="path11" />
          <path
             style="color:#000000;fill:#666666;fill-rule:evenodd;-inkscape-stroke:none"
             d="m 189.29883,163.91211 v 0.80469 c 0,0 -0.001,0.53143 0.13281,1.13476 0.10668,0.48007 0.3526,0.99022 0.75586,1.36524 -0.40326,0.37501 -0.64918,0.88516 -0.75586,1.36523 -0.13407,0.60333 -0.13281,1.13477 -0.13281,1.13477 v 0.80468 l 0.56836,-0.56836 c 0.92143,-0.92143 2.9113,-1.93397 4.36914,-2.41992 l 0.94922,-0.3164 -0.94922,-0.31641 c -1.45784,-0.48594 -3.44771,-1.49849 -4.36914,-2.41992 z m 0.74804,1.49805 c 0.93226,0.73089 2.09338,1.35441 3.25,1.80664 -1.15662,0.45223 -2.31774,1.07574 -3.25,1.80664 0.0172,-0.13565 4.1e-4,-0.14048 0.0352,-0.29688 0.11593,-0.52166 0.35823,-1.04044 0.69922,-1.21094 l 0.5957,-0.29882 -0.5957,-0.29883 c -0.34099,-0.1705 -0.58329,-0.68927 -0.69922,-1.21094 -0.0348,-0.1564 -0.018,-0.16122 -0.0352,-0.29687 z"
             id="path12" />
        </g>
      </g>
    </g>
    <g
       id="path3">
      <path
         style="color:#000000;fill:#666666;stroke-linecap:round;stroke-miterlimit:10;-inkscape-stroke:none"
         d="m 99.205078,108.41016 a 0.5,0.5 0 0 0 -0.5,0.5 v 72.95703 a 0.5,0.5 0 0 0 0.5,0.5 0.5,0.5 0 0 0 0.5,-0.5 v -72.95703 a 0.5,0.5 0 0 0 -0.5,-0.5 z"
         id="path9" />
      <g
         id="g2">
        <g
           id="path6">
          <path
             style="color:#000000;fill:#666666;fill-rule:evenodd;-inkscape-stroke:none"
             d="m 99.20522,105.91044 c 0.5,1.5 1.5,3.5 2.5,4.5 0,0 -2,0 -2.5,-1 -0.5,1 -2.5,1 -2.5,1 1,-1 2,-3 2.5,-4.5 z"
             id="path7" />
          <path
             style="color:#000000;fill:#666666;fill-rule:evenodd;-inkscape-stroke:none"
             d="m 99.205078,104.85547 -0.316406,0.94922 c -0.485945,1.45783 -1.49849,3.44771 -2.419922,4.36914 l -0.568359,0.57031 h 0.804687 c 0,0 0.531432,0.001 1.134766,-0.13281 0.480071,-0.10668 0.990217,-0.35456 1.365234,-0.75781 0.375017,0.40325 0.885162,0.65113 1.365232,0.75781 0.60334,0.13407 1.13477,0.13281 1.13477,0.13281 h 0.80469 l -0.56836,-0.57031 c -0.92144,-0.92143 -1.93398,-2.91131 -2.419926,-4.36914 z m 0,1.89062 c 0.452284,1.15666 1.075732,2.31785 1.806642,3.25 -0.13568,-0.0172 -0.14044,-3.9e-4 -0.29688,-0.0352 -0.52166,-0.11593 -1.040439,-0.35823 -1.210934,-0.69922 l -0.298828,-0.5957 -0.298828,0.5957 c -0.170495,0.34099 -0.689272,0.58329 -1.210938,0.69922 -0.156433,0.0348 -0.1612,0.018 -0.296875,0.0352 0.73091,-0.93215 1.354358,-2.09334 1.806641,-3.25 z"
             id="path8" />
        </g>
      </g>
    </g>
    <path
       style="fill:none;fill-opacity:0.980392;stroke:#15b7db;stroke-width:1.1;stroke-linecap:round;stroke-miterlimit:10;stroke-dasharray:none"
       d="m 180.99793,157.69166 c -24.55267,-55.89285 -10.17223,-19.72569 -25.92917,-3.96875 -3.69519,3.6952 -14.01239,-19.15372 -22.75416,-20.90208 -9.38169,-1.87634 -18.60421,22.71314 -33.108335,25.92917 -14.504128,-3.21603 -23.72664,-27.80551 -33.108331,-25.92917 -8.74177,1.74836 -19.058969,24.59728 -22.754166,20.90208 -15.75694,-15.75694 -1.376498,-51.9241 -25.929167,3.96875"
       id="path4"
       sodipodi:nodetypes="csscssc" />
  </g>
</svg>
