<?xml version="1.0" encoding="UTF-8" standalone="no"?>
<!-- Created with Inkscape (http://www.inkscape.org/) -->

<svg
   width="146.92186mm"
   height="112.85034mm"
   viewBox="0 0 146.92186 112.85034"
   version="1.1"
   id="svg1"
   xml:space="preserve"
   inkscape:version="1.3 (0e150ed, 2023-07-21)"
   sodipodi:docname="HW-02-limitIdentification-02.svg"
   xmlns:inkscape="http://www.inkscape.org/namespaces/inkscape"
   xmlns:sodipodi="http://sodipodi.sourceforge.net/DTD/sodipodi-0.dtd"
   xmlns="http://www.w3.org/2000/svg"
   xmlns:svg="http://www.w3.org/2000/svg"
   xmlns:ns6="http://www.iki.fi/pav/software/textext/"><sodipodi:namedview
     id="namedview1"
     pagecolor="#ffffff"
     bordercolor="#000000"
     borderopacity="0.25"
     inkscape:showpageshadow="2"
     inkscape:pageopacity="0.0"
     inkscape:pagecheckerboard="0"
     inkscape:deskcolor="#d1d1d1"
     inkscape:document-units="mm"
     inkscape:zoom="3.9978788"
     inkscape:cx="102.92958"
     inkscape:cy="151.33025"
     inkscape:window-width="1512"
     inkscape:window-height="916"
     inkscape:window-x="0"
     inkscape:window-y="38"
     inkscape:window-maximized="1"
     inkscape:current-layer="layer1" /><defs
     id="defs1" /><g
     inkscape:label="Layer 1"
     inkscape:groupmode="layer"
     id="layer1"
     transform="translate(-35.318359,-61.259025)"><g
       id="path1"
       transform="translate(-42.597917)"><path
         style="color:#000000;fill:#666666;stroke-linecap:round;stroke-linejoin:round;stroke-miterlimit:10;-inkscape-stroke:none"
         d="m 105,67.554687 a 0.217685,0.217685 0 0 0 -0.2168,0.216797 V 173.89258 a 0.217685,0.217685 0 0 0 0.2168,0.21679 0.217685,0.217685 0 0 0 0.2168,-0.21679 V 67.771484 A 0.217685,0.217685 0 0 0 105,67.554687 Z"
         id="path14" /><g
         id="g11"><g
           id="path11"><path
             style="color:#000000;fill:#666666;fill-rule:evenodd;-inkscape-stroke:none"
             d="m 105,66.466223 c 0.21768,0.653055 0.65305,1.523795 1.08842,1.959165 0,0 -0.87074,0 -1.08842,-0.43537 -0.21768,0.43537 -1.08842,0.43537 -1.08842,0.43537 0.43537,-0.43537 0.87074,-1.30611 1.08842,-1.959165 z"
             id="path12" /><path
             style="color:#000000;fill:#666666;fill-rule:evenodd;-inkscape-stroke:none"
             d="m 105,66.007812 -0.13672,0.41211 c -0.21156,0.634696 -0.65352,1.50118 -1.05469,1.902344 l -0.24804,0.248046 h 0.35156 c 0,0 0.23147,-2.21e-4 0.49414,-0.05859 0.21573,-0.04794 0.43072,-0.187414 0.59375,-0.375 0.16303,0.187586 0.37802,0.327059 0.59375,0.375 0.26267,0.05837 0.49414,0.05859 0.49414,0.05859 h 0.35156 l -0.24804,-0.248046 c -0.40117,-0.401164 -0.84313,-1.267648 -1.05469,-1.902344 z m 0,0.75 c 0.20095,0.526672 0.49512,1.068577 0.83203,1.490235 -0.0723,-0.0073 -0.082,8.72e-4 -0.17383,-0.01953 -0.22711,-0.05047 -0.45507,-0.154279 -0.52929,-0.302735 L 105,67.666016 l -0.12891,0.259765 c -0.0742,0.148456 -0.30218,0.252264 -0.52929,0.302735 -0.0918,0.0204 -0.10153,0.01219 -0.17383,0.01953 0.33691,-0.421658 0.63108,-0.963563 0.83203,-1.490234 z"
             id="path13" /></g></g></g><g
       id="path2"><path
         style="color:#000000;fill:#666666;stroke-linecap:round;stroke-linejoin:round;stroke-miterlimit:10;-inkscape-stroke:none"
         d="m 35.568359,148.80078 a 0.25,0.25 0 0 0 -0.25,0.25 0.25,0.25 0 0 0 0.25,0.25 H 175.5332 a 0.25,0.25 0 0 0 0.25,-0.25 0.25,0.25 0 0 0 -0.25,-0.25 z"
         id="path18" /><g
         id="g15"><g
           id="path15"><path
             style="color:#000000;fill:#666666;fill-rule:evenodd;-inkscape-stroke:none"
             d="m 177.03229,149.05 c -0.75,0.25 -1.75,0.75 -2.25,1.25 0,0 0,-1 0.5,-1.25 -0.5,-0.25 -0.5,-1.25 -0.5,-1.25 0.5,0.5 1.5,1 2.25,1.25 z"
             id="path16" /><path
             style="color:#000000;fill:#666666;fill-rule:evenodd;-inkscape-stroke:none"
             d="m 174.61523,147.39844 v 0.40234 c 0,0 -6.3e-4,0.26474 0.0664,0.56641 0.0551,0.24784 0.21605,0.49636 0.43164,0.68359 -0.21466,0.18727 -0.37668,0.4343 -0.43164,0.68164 -0.067,0.30167 -0.0664,0.56836 -0.0664,0.56836 v 0.40234 l 0.28516,-0.28515 c 0.46072,-0.46072 1.45663,-0.96601 2.18555,-1.20899 l 0.47265,-0.1582 -0.47265,-0.1582 c -0.72892,-0.24297 -1.72483,-0.75022 -2.18555,-1.21094 z m 0.36914,0.69726 c 0.48407,0.38686 1.10811,0.72425 1.7129,0.95508 -0.60473,0.23081 -1.22887,0.56633 -1.7129,0.95313 0.008,-0.0827 1.7e-4,-0.0945 0.0234,-0.19922 0.058,-0.26084 0.17912,-0.52022 0.34961,-0.60547 l 0.29688,-0.14844 -0.29688,-0.15039 c -0.17049,-0.0852 -0.29164,-0.34464 -0.34961,-0.60547 -0.0234,-0.10514 -0.015,-0.11631 -0.0234,-0.19922 z"
             id="path17" /></g></g><g
         transform="matrix(0.569597,0,0,0.569597,61.516758,61.259167)"
         ns6:version="1.9.0"
         ns6:texconverter="pdflatex"
         ns6:pdfconverter="inkscape"
         ns6:text="$y$"
         ns6:preamble="/Users/sachchidanandprasad/Library/Application Support/org.inkscape.Inkscape/config/inkscape/extensions/inkscapeMadeEasy/basicLatexPackages.tex"
         ns6:scale="1.614603813378603"
         ns6:alignment="middle center"
         ns6:stroke-to-path="0"
         ns6:inkscapeversion="1.3"
         id="g4265"
         ns6:jacobian_sqrt="0.569597"><defs
   id="id-6afedbff-1568-4dfe-90b6-cc3d008d1414">&#10;    <g
   id="id-5f373776-3fda-483f-a7e1-33dc2a64f1a0">&#10;      <g
   id="id-3464777a-78c1-4ec2-9917-793d4b835bdb">&#10;        <path
   d="m 4.84375,-3.796875 c 0.046875,-0.140625 0.046875,-0.15625 0.046875,-0.234375 0,-0.171875 -0.140625,-0.265625 -0.296875,-0.265625 -0.09375,0 -0.25,0.0625 -0.34375,0.203125 -0.015625,0.0625 -0.109375,0.359375 -0.140625,0.546875 -0.078125,0.25 -0.140625,0.53125 -0.203125,0.796875 l -0.453125,1.796875 c -0.03125,0.140625 -0.46875,0.84375 -1.125,0.84375 -0.5,0 -0.609375,-0.4375 -0.609375,-0.8125 C 1.71875,-1.375 1.890625,-2 2.21875,-2.875 2.375,-3.28125 2.421875,-3.390625 2.421875,-3.59375 c 0,-0.4375 -0.3125,-0.8125 -0.8125,-0.8125 -0.953125,0 -1.3125,1.453125 -1.3125,1.53125 0,0.109375 0.09375,0.109375 0.109375,0.109375 0.109375,0 0.109375,-0.03125 0.15625,-0.1875 0.28125,-0.9375 0.671875,-1.234375 1.015625,-1.234375 0.078125,0 0.25,0 0.25,0.3125 0,0.25 -0.109375,0.515625 -0.171875,0.703125 -0.40625,1.0625 -0.578125,1.625 -0.578125,2.09375 0,0.890625 0.625,1.1875 1.21875,1.1875 0.390625,0 0.71875,-0.171875 1,-0.453125 -0.125,0.515625 -0.25,1.015625 -0.640625,1.546875 -0.265625,0.328125 -0.640625,0.625 -1.09375,0.625 -0.140625,0 -0.59375,-0.03125 -0.765625,-0.421875 0.15625,0 0.296875,0 0.421875,-0.125 C 1.328125,1.203125 1.421875,1.0625 1.421875,0.875 1.421875,0.5625 1.15625,0.53125 1.0625,0.53125 0.828125,0.53125 0.5,0.6875 0.5,1.171875 c 0,0.5 0.4375,0.875 1.0625,0.875 1.015625,0 2.046875,-0.90625 2.328125,-2.03125 z m 0,0"
   id="id-6dfe837b-7133-44d3-ad0d-46ed28a8c11a" />&#10;      </g>&#10;    </g>&#10;  </defs>&#10;  <g
   fill="#000000"
   fill-opacity="1"
   id="id-2f830a6f-4f38-459a-b4b4-a824d16eadcd"
   transform="translate(-149.009,-130.359)">&#10;    <g
   transform="translate(148.712,134.765)"
   id="g8241"><path
   d="m 4.84375,-3.796875 c 0.046875,-0.140625 0.046875,-0.15625 0.046875,-0.234375 0,-0.171875 -0.140625,-0.265625 -0.296875,-0.265625 -0.09375,0 -0.25,0.0625 -0.34375,0.203125 -0.015625,0.0625 -0.109375,0.359375 -0.140625,0.546875 -0.078125,0.25 -0.140625,0.53125 -0.203125,0.796875 l -0.453125,1.796875 c -0.03125,0.140625 -0.46875,0.84375 -1.125,0.84375 -0.5,0 -0.609375,-0.4375 -0.609375,-0.8125 C 1.71875,-1.375 1.890625,-2 2.21875,-2.875 2.375,-3.28125 2.421875,-3.390625 2.421875,-3.59375 c 0,-0.4375 -0.3125,-0.8125 -0.8125,-0.8125 -0.953125,0 -1.3125,1.453125 -1.3125,1.53125 0,0.109375 0.09375,0.109375 0.109375,0.109375 0.109375,0 0.109375,-0.03125 0.15625,-0.1875 0.28125,-0.9375 0.671875,-1.234375 1.015625,-1.234375 0.078125,0 0.25,0 0.25,0.3125 0,0.25 -0.109375,0.515625 -0.171875,0.703125 -0.40625,1.0625 -0.578125,1.625 -0.578125,2.09375 0,0.890625 0.625,1.1875 1.21875,1.1875 0.390625,0 0.71875,-0.171875 1,-0.453125 -0.125,0.515625 -0.25,1.015625 -0.640625,1.546875 -0.265625,0.328125 -0.640625,0.625 -1.09375,0.625 -0.140625,0 -0.59375,-0.03125 -0.765625,-0.421875 0.15625,0 0.296875,0 0.421875,-0.125 C 1.328125,1.203125 1.421875,1.0625 1.421875,0.875 1.421875,0.5625 1.15625,0.53125 1.0625,0.53125 0.828125,0.53125 0.5,0.6875 0.5,1.171875 c 0,0.5 0.4375,0.875 1.0625,0.875 1.015625,0 2.046875,-0.90625 2.328125,-2.03125 z m 0,0"
   id="id-0c007076-7563-433d-a2e7-d46e2c56d168" />&#10;      </g></g>&#10;</g><g
         transform="matrix(0.569597,0,0,0.569597,179.419,147.801)"
         ns6:version="1.9.0"
         ns6:texconverter="pdflatex"
         ns6:pdfconverter="inkscape"
         ns6:text="$x$"
         ns6:preamble="/Users/sachchidanandprasad/Library/Application Support/org.inkscape.Inkscape/config/inkscape/extensions/inkscapeMadeEasy/basicLatexPackages.tex"
         ns6:scale="1.614603813378603"
         ns6:alignment="middle center"
         ns6:stroke-to-path="0"
         ns6:inkscapeversion="1.3"
         id="g24"
         ns6:jacobian_sqrt="0.569597"><defs
   id="id-646227e6-83dc-4eb9-8775-1f2206436c09">&#10;    <g
   id="id-a39cb007-ce41-4874-bf1d-687abea08ae5">&#10;      <g
   id="id-f5b86d03-1e6a-4cd3-9047-838b31b47d4d">&#10;        <path
   d="M 3.328125,-3.015625 C 3.390625,-3.265625 3.625,-4.1875 4.3125,-4.1875 c 0.046875,0 0.296875,0 0.5,0.125 C 4.53125,-4 4.34375,-3.765625 4.34375,-3.515625 c 0,0.15625 0.109375,0.34375 0.375,0.34375 0.21875,0 0.53125,-0.171875 0.53125,-0.578125 0,-0.515625 -0.578125,-0.65625 -0.921875,-0.65625 -0.578125,0 -0.921875,0.53125 -1.046875,0.75 -0.25,-0.65625 -0.78125,-0.75 -1.078125,-0.75 -1.03125,0 -1.609375,1.28125 -1.609375,1.53125 0,0.109375 0.109375,0.109375 0.125,0.109375 0.078125,0 0.109375,-0.03125 0.125,-0.109375 0.34375,-1.0625 1,-1.3125 1.34375,-1.3125 0.1875,0 0.53125,0.09375 0.53125,0.671875 0,0.3125 -0.171875,0.96875 -0.53125,2.375 -0.15625,0.609375 -0.515625,1.03125 -0.953125,1.03125 -0.0625,0 -0.28125,0 -0.5,-0.125 0.25,-0.0625 0.46875,-0.265625 0.46875,-0.546875 0,-0.265625 -0.21875,-0.34375 -0.359375,-0.34375 -0.3125,0 -0.546875,0.25 -0.546875,0.578125 0,0.453125 0.484375,0.65625 0.921875,0.65625 0.671875,0 1.03125,-0.703125 1.046875,-0.75 0.125,0.359375 0.484375,0.75 1.078125,0.75 1.03125,0 1.59375,-1.28125 1.59375,-1.53125 0,-0.109375 -0.078125,-0.109375 -0.109375,-0.109375 -0.09375,0 -0.109375,0.046875 -0.140625,0.109375 -0.328125,1.078125 -1,1.3125 -1.3125,1.3125 -0.390625,0 -0.546875,-0.3125 -0.546875,-0.65625 0,-0.21875 0.046875,-0.4375 0.15625,-0.875 z m 0,0"
   id="id-9ba5c1a0-2667-4e3c-bb54-df570d824e66" />&#10;      </g>&#10;    </g>&#10;  </defs>&#10;  <g
   fill="#000000"
   fill-opacity="1"
   id="id-92b4b4b3-5bdf-434b-80f0-a41214d9ff44"
   transform="translate(-149.009,-130.359)">&#10;    <g
   transform="translate(148.712,134.765)"
   id="g8472"><path
   d="M 3.328125,-3.015625 C 3.390625,-3.265625 3.625,-4.1875 4.3125,-4.1875 c 0.046875,0 0.296875,0 0.5,0.125 C 4.53125,-4 4.34375,-3.765625 4.34375,-3.515625 c 0,0.15625 0.109375,0.34375 0.375,0.34375 0.21875,0 0.53125,-0.171875 0.53125,-0.578125 0,-0.515625 -0.578125,-0.65625 -0.921875,-0.65625 -0.578125,0 -0.921875,0.53125 -1.046875,0.75 -0.25,-0.65625 -0.78125,-0.75 -1.078125,-0.75 -1.03125,0 -1.609375,1.28125 -1.609375,1.53125 0,0.109375 0.109375,0.109375 0.125,0.109375 0.078125,0 0.109375,-0.03125 0.125,-0.109375 0.34375,-1.0625 1,-1.3125 1.34375,-1.3125 0.1875,0 0.53125,0.09375 0.53125,0.671875 0,0.3125 -0.171875,0.96875 -0.53125,2.375 -0.15625,0.609375 -0.515625,1.03125 -0.953125,1.03125 -0.0625,0 -0.28125,0 -0.5,-0.125 0.25,-0.0625 0.46875,-0.265625 0.46875,-0.546875 0,-0.265625 -0.21875,-0.34375 -0.359375,-0.34375 -0.3125,0 -0.546875,0.25 -0.546875,0.578125 0,0.453125 0.484375,0.65625 0.921875,0.65625 0.671875,0 1.03125,-0.703125 1.046875,-0.75 0.125,0.359375 0.484375,0.75 1.078125,0.75 1.03125,0 1.59375,-1.28125 1.59375,-1.53125 0,-0.109375 -0.078125,-0.109375 -0.109375,-0.109375 -0.09375,0 -0.109375,0.046875 -0.140625,0.109375 -0.328125,1.078125 -1,1.3125 -1.3125,1.3125 -0.390625,0 -0.546875,-0.3125 -0.546875,-0.65625 0,-0.21875 0.046875,-0.4375 0.15625,-0.875 z m 0,0"
   id="id-0c697ec3-367f-412d-aca4-959c0bb30959" />&#10;      </g></g>&#10;</g></g><path
       style="font-variation-settings:normal;opacity:1;fill:none;fill-opacity:0.831373;stroke:#63c5ef;stroke-width:1.2;stroke-linecap:round;stroke-linejoin:round;stroke-miterlimit:10;stroke-dasharray:none;stroke-dashoffset:0;stroke-opacity:1"
       d="m 42.726043,128.18439 c 14.940762,-30.499247 30.163521,-0.26459 46.566666,-0.26459 18.760131,0 41.549751,-91.735788 70.379161,-46.30208"
       id="path19"
       sodipodi:nodetypes="csc" /><path
       style="font-variation-settings:normal;opacity:1;fill:none;fill-opacity:0.831373;stroke:#666666;stroke-width:1;stroke-linecap:round;stroke-linejoin:round;stroke-miterlimit:10;stroke-dasharray:none;stroke-dashoffset:0;stroke-opacity:1"
       d="M 62.618883,91.142716 H 118.46226 V 148.80078"
       id="path24"
       sodipodi:nodetypes="ccc" /><circle
       id="path25"
       style="fill:#f9f9f9;stroke:#63c5ef;stroke-width:0.709146;stroke-opacity:1"
       cx="118.46227"
       cy="91.142723"
       r="2.0620401" /><g
       transform="matrix(0.74446037,0,0,0.74446037,56.645623,88.342391)"
       ns6:version="1.9.0"
       ns6:texconverter="pdflatex"
       ns6:pdfconverter="inkscape"
       ns6:text="$L$"
       ns6:preamble="/Users/sachchidanandprasad/Library/Application Support/org.inkscape.Inkscape/config/inkscape/extensions/inkscapeMadeEasy/basicLatexPackages.tex"
       ns6:scale="1.614603813378603"
       ns6:alignment="middle center"
       ns6:stroke-to-path="0"
       ns6:inkscapeversion="1.3"
       id="g9767"
       ns6:jacobian_sqrt="0.569597"><defs
   id="id-26bb072b-c3e6-4554-981d-61aa78a8461f">&#10;    <g
   id="id-8963699c-a1de-4a8d-8e6f-f0ad4f6a0289">&#10;      <g
   id="id-a75d5968-2c94-4441-bc4e-669f9bf009b5">&#10;        <path
   d="M 3.734375,-6.03125 C 3.8125,-6.390625 3.84375,-6.5 4.78125,-6.5 c 0.296875,0 0.375,0 0.375,-0.1875 0,-0.125 -0.109375,-0.125 -0.15625,-0.125 -0.328125,0 -1.140625,0.03125 -1.46875,0.03125 -0.296875,0 -1.03125,-0.03125 -1.328125,-0.03125 -0.0625,0 -0.1875,0 -0.1875,0.203125 0,0.109375 0.09375,0.109375 0.28125,0.109375 0.015625,0 0.203125,0 0.375,0.015625 0.171875,0.03125 0.265625,0.03125 0.265625,0.171875 0,0.03125 0,0.0625 -0.03125,0.1875 L 1.5625,-0.78125 c -0.09375,0.390625 -0.109375,0.46875 -0.90625,0.46875 -0.171875,0 -0.265625,0 -0.265625,0.203125 C 0.390625,0 0.484375,0 0.65625,0 h 4.625 C 5.515625,0 5.515625,0 5.578125,-0.171875 L 6.375,-2.328125 c 0.03125,-0.109375 0.03125,-0.125 0.03125,-0.140625 0,-0.03125 -0.03125,-0.109375 -0.109375,-0.109375 -0.09375,0 -0.109375,0.0625 -0.171875,0.21875 -0.34375,0.90625 -0.78125,2.046875 -2.5,2.046875 H 2.6875 c -0.140625,0 -0.171875,0 -0.21875,0 -0.109375,-0.015625 -0.140625,-0.03125 -0.140625,-0.109375 0,-0.03125 0,-0.046875 0.046875,-0.21875 z m 0,0"
   id="id-c994872f-ff09-4ab8-ae0d-f18edf1774c8" />&#10;      </g>&#10;    </g>&#10;  </defs>&#10;  <g
   fill="#000000"
   fill-opacity="1"
   id="id-46d7e221-6282-48b0-9422-9e7aa2883e0b"
   transform="translate(-149.103,-127.953)">&#10;    <g
   transform="translate(148.712,134.765)"
   id="g9960"><path
   d="M 3.734375,-6.03125 C 3.8125,-6.390625 3.84375,-6.5 4.78125,-6.5 c 0.296875,0 0.375,0 0.375,-0.1875 0,-0.125 -0.109375,-0.125 -0.15625,-0.125 -0.328125,0 -1.140625,0.03125 -1.46875,0.03125 -0.296875,0 -1.03125,-0.03125 -1.328125,-0.03125 -0.0625,0 -0.1875,0 -0.1875,0.203125 0,0.109375 0.09375,0.109375 0.28125,0.109375 0.015625,0 0.203125,0 0.375,0.015625 0.171875,0.03125 0.265625,0.03125 0.265625,0.171875 0,0.03125 0,0.0625 -0.03125,0.1875 L 1.5625,-0.78125 c -0.09375,0.390625 -0.109375,0.46875 -0.90625,0.46875 -0.171875,0 -0.265625,0 -0.265625,0.203125 C 0.390625,0 0.484375,0 0.65625,0 h 4.625 C 5.515625,0 5.515625,0 5.578125,-0.171875 L 6.375,-2.328125 c 0.03125,-0.109375 0.03125,-0.125 0.03125,-0.140625 0,-0.03125 -0.03125,-0.109375 -0.109375,-0.109375 -0.09375,0 -0.109375,0.0625 -0.171875,0.21875 -0.34375,0.90625 -0.78125,2.046875 -2.5,2.046875 H 2.6875 c -0.140625,0 -0.171875,0 -0.21875,0 -0.109375,-0.015625 -0.140625,-0.03125 -0.140625,-0.109375 0,-0.03125 0,-0.046875 0.046875,-0.21875 z m 0,0"
   id="id-90ff0724-f350-4a88-8c29-76d180efd747" />&#10;      </g></g>&#10;</g><g
       transform="matrix(0.77267273,0,0,0.77267273,116.8494,150.68291)"
       ns6:version="1.9.0"
       ns6:texconverter="pdflatex"
       ns6:pdfconverter="inkscape"
       ns6:text="$a$"
       ns6:preamble="/Users/sachchidanandprasad/Library/Application Support/org.inkscape.Inkscape/config/inkscape/extensions/inkscapeMadeEasy/basicLatexPackages.tex"
       ns6:scale="1.614603813378603"
       ns6:alignment="middle center"
       ns6:stroke-to-path="0"
       ns6:inkscapeversion="1.3"
       id="g3871"
       ns6:jacobian_sqrt="0.569597"><defs
   id="id-d70b5bb6-2a4c-405d-843a-ff11916d1427">&#10;    <g
   id="id-0bba4774-58ef-4d1a-a2ee-313a4c46f0f4">&#10;      <g
   id="id-d4b1a45c-b695-40da-bace-64d2e2eae664">&#10;        <path
   d="M 3.71875,-3.765625 C 3.53125,-4.140625 3.25,-4.40625 2.796875,-4.40625 c -1.15625,0 -2.390625,1.46875 -2.390625,2.921875 0,0.9375 0.546875,1.59375 1.3125,1.59375 0.203125,0 0.703125,-0.046875 1.296875,-0.75 0.078125,0.421875 0.4375,0.75 0.90625,0.75 0.359375,0 0.578125,-0.234375 0.75,-0.546875 0.15625,-0.359375 0.296875,-0.96875 0.296875,-0.984375 0,-0.109375 -0.09375,-0.109375 -0.125,-0.109375 -0.09375,0 -0.109375,0.046875 -0.140625,0.1875 -0.171875,0.640625 -0.34375,1.234375 -0.75,1.234375 -0.28125,0 -0.296875,-0.265625 -0.296875,-0.453125 0,-0.21875 0.015625,-0.3125 0.125,-0.75 C 3.890625,-1.71875 3.90625,-1.828125 4,-2.203125 L 4.359375,-3.59375 c 0.0625,-0.28125 0.0625,-0.296875 0.0625,-0.34375 0,-0.171875 -0.109375,-0.265625 -0.28125,-0.265625 -0.25,0 -0.390625,0.21875 -0.421875,0.4375 z M 3.078125,-1.1875 C 3.015625,-1 3.015625,-0.984375 2.875,-0.8125 2.4375,-0.265625 2.03125,-0.109375 1.75,-0.109375 c -0.5,0 -0.640625,-0.546875 -0.640625,-0.9375 0,-0.5 0.3125,-1.71875 0.546875,-2.1875 0.3125,-0.578125 0.75,-0.953125 1.15625,-0.953125 0.640625,0 0.78125,0.8125 0.78125,0.875 0,0.0625 -0.015625,0.125 -0.03125,0.171875 z m 0,0"
   id="id-782495cb-527e-482e-bf6a-c85bb7c8ea06" />&#10;      </g>&#10;    </g>&#10;  </defs>&#10;  <g
   fill="#000000"
   fill-opacity="1"
   id="id-72d3fcab-22a9-4ae8-af98-9753e3ef9a2c"
   transform="translate(-149.118,-130.359)">&#10;    <g
   transform="translate(148.712,134.765)"
   id="g4356"><path
   d="M 3.71875,-3.765625 C 3.53125,-4.140625 3.25,-4.40625 2.796875,-4.40625 c -1.15625,0 -2.390625,1.46875 -2.390625,2.921875 0,0.9375 0.546875,1.59375 1.3125,1.59375 0.203125,0 0.703125,-0.046875 1.296875,-0.75 0.078125,0.421875 0.4375,0.75 0.90625,0.75 0.359375,0 0.578125,-0.234375 0.75,-0.546875 0.15625,-0.359375 0.296875,-0.96875 0.296875,-0.984375 0,-0.109375 -0.09375,-0.109375 -0.125,-0.109375 -0.09375,0 -0.109375,0.046875 -0.140625,0.1875 -0.171875,0.640625 -0.34375,1.234375 -0.75,1.234375 -0.28125,0 -0.296875,-0.265625 -0.296875,-0.453125 0,-0.21875 0.015625,-0.3125 0.125,-0.75 C 3.890625,-1.71875 3.90625,-1.828125 4,-2.203125 L 4.359375,-3.59375 c 0.0625,-0.28125 0.0625,-0.296875 0.0625,-0.34375 0,-0.171875 -0.109375,-0.265625 -0.28125,-0.265625 -0.25,0 -0.390625,0.21875 -0.421875,0.4375 z M 3.078125,-1.1875 C 3.015625,-1 3.015625,-0.984375 2.875,-0.8125 2.4375,-0.265625 2.03125,-0.109375 1.75,-0.109375 c -0.5,0 -0.640625,-0.546875 -0.640625,-0.9375 0,-0.5 0.3125,-1.71875 0.546875,-2.1875 0.3125,-0.578125 0.75,-0.953125 1.15625,-0.953125 0.640625,0 0.78125,0.8125 0.78125,0.875 0,0.0625 -0.015625,0.125 -0.03125,0.171875 z m 0,0"
   id="id-c56b4883-ae0d-4e90-b80a-04ff3482a906" />&#10;      </g></g>&#10;</g><circle
       id="circle25"
       style="fill:#ff00ff;stroke:none;stroke-width:0.78559;stroke-opacity:1"
       cx="118.46227"
       cy="119.97175"
       r="2.2843218" /></g></svg>
