<?xml version="1.0" encoding="UTF-8" standalone="no"?>
<!-- Created with Inkscape (http://www.inkscape.org/) -->

<svg
   width="172.68031mm"
   height="143.30551mm"
   viewBox="0 0 172.68031 143.30551"
   version="1.1"
   id="svg1"
   xml:space="preserve"
   inkscape:version="1.3 (0e150ed, 2023-07-21)"
   sodipodi:docname="HW-02-limitfind-01.svg"
   xmlns:inkscape="http://www.inkscape.org/namespaces/inkscape"
   xmlns:sodipodi="http://sodipodi.sourceforge.net/DTD/sodipodi-0.dtd"
   xmlns="http://www.w3.org/2000/svg"
   xmlns:svg="http://www.w3.org/2000/svg"
   xmlns:ns6="http://www.iki.fi/pav/software/textext/"><sodipodi:namedview
     id="namedview1"
     pagecolor="#ffffff"
     bordercolor="#000000"
     borderopacity="0.25"
     inkscape:showpageshadow="2"
     inkscape:pageopacity="0.0"
     inkscape:pagecheckerboard="0"
     inkscape:deskcolor="#d1d1d1"
     inkscape:document-units="mm"
     inkscape:zoom="1"
     inkscape:cx="408.5"
     inkscape:cy="341"
     inkscape:window-width="1512"
     inkscape:window-height="916"
     inkscape:window-x="0"
     inkscape:window-y="38"
     inkscape:window-maximized="1"
     inkscape:current-layer="g41"
     showguides="true"
     showgrid="false"><inkscape:grid
       id="grid48"
       units="mm"
       originx="0"
       originy="0"
       spacingx="0.99999995"
       spacingy="0.99999998"
       empcolor="#0099e5"
       empopacity="0.30196078"
       color="#0099e5"
       opacity="0.14901961"
       empspacing="5"
       dotted="false"
       gridanglex="30"
       gridanglez="30"
       visible="false" /></sodipodi:namedview><defs
     id="defs1"><marker
   inkscape:stockid="ArrowAxisStart"
   orient="auto"
   refY="0"
   refX="0"
   id="ArrowAxisStart"
   style="overflow:visible"><path
     d="M 0,0 5,-5 -12.5,0 5,5 Z"
     style="fill:#000000;fill-opacity:1;fill-rule:evenodd;stroke:#000000;stroke-width:1;stroke-opacity:1"
     transform="matrix(0.4,0,0,0.4,3.5272,0)"
     id="path25" /></marker><marker
   inkscape:stockid="ArrowAxisEnd"
   orient="auto"
   refY="0"
   refX="0"
   id="ArrowAxisEnd"
   style="overflow:visible"><path
     d="M 0,0 5,-5 -12.5,0 5,5 Z"
     style="fill:#000000;fill-opacity:1;fill-rule:evenodd;stroke:#000000;stroke-width:1;stroke-opacity:1"
     transform="matrix(-0.4,0,0,-0.4,-3.5272,0)"
     id="path26" /></marker>&#10;    &#10;    </defs><g
     inkscape:label="Layer 1"
     inkscape:groupmode="layer"
     id="layer1"
     transform="translate(-59.650544,-27.506899)" /><g
     inkscape:label="Plot"
     transform="translate(45.6678, 113.752)"
     id="g41"><g
       inkscape:label="Ticks"
       id="g37"><g
   inkscape:label="Layer 1"
   inkscape:groupmode="layer"
   id="g26"
   transform="matrix(0.442397,0,0,0.442397,-174.47341,-243.21946)"><g
     transform="matrix(1.33333,0,0,1.33333,385.24665,553.6328)"
     ns6:version="1.9.0"
     ns6:texconverter="pdflatex"
     ns6:pdfconverter="inkscape"
     ns6:text=" $0$"
     ns6:preamble="/Users/sachchidanandprasad/Library/Application Support/org.inkscape.Inkscape/config/inkscape/extensions/inkscapeMadeEasy/basicLatexPackages.tex"
     ns6:scale="1.0"
     ns6:alignment="middle center"
     ns6:stroke-to-path="0"
     ns6:inkscapeversion="1.0.1"
     id="g9211"
     ns6:jacobian_sqrt="1.33333"><defs
   id="id-499eceb2-5fde-417b-878c-00b03e9e85e5">&#10;    <g
   id="id-e3748f8f-bfab-43b5-97fe-1be41fd7e876">&#10;      <g
   id="id-df57731c-3ec3-4643-a6a9-a7c2dae21f57">&#10;        <path
   d="m 4.578125,-3.1875 c 0,-0.796875 -0.046875,-1.59375 -0.390625,-2.328125 -0.453125,-0.96875 -1.28125,-1.125 -1.6875,-1.125 -0.609375,0 -1.328125,0.265625 -1.75,1.1875 -0.3125,0.6875 -0.359375,1.46875 -0.359375,2.265625 0,0.75 0.03125,1.640625 0.453125,2.40625 0.421875,0.796875 1.15625,1 1.640625,1 0.53125,0 1.296875,-0.203125 1.734375,-1.15625 0.3125,-0.6875 0.359375,-1.46875 0.359375,-2.25 z M 2.484375,0 C 2.09375,0 1.5,-0.25 1.328125,-1.203125 1.21875,-1.796875 1.21875,-2.71875 1.21875,-3.3125 c 0,-0.640625 0,-1.296875 0.078125,-1.828125 0.1875,-1.1875 0.9375,-1.28125 1.1875,-1.28125 0.328125,0 0.984375,0.1875 1.171875,1.171875 0.109375,0.5625 0.109375,1.3125 0.109375,1.9375 0,0.75 0,1.421875 -0.109375,2.0625 C 3.5,-0.296875 2.9375,0 2.484375,0 Z m 0,0"
   id="id-afd40756-1641-4dfd-828d-ae1dcab150b6" />&#10;      </g>&#10;    </g>&#10;  </defs>&#10;  <g
   fill="#000000"
   fill-opacity="1"
   id="id-8396dfc1-0954-4d13-9f30-756a96e1b30f"
   transform="translate(-149.103,-128.124)">&#10;    <g
   transform="translate(148.712,134.765)"
   id="g5960"><path
   d="m 4.578125,-3.1875 c 0,-0.796875 -0.046875,-1.59375 -0.390625,-2.328125 -0.453125,-0.96875 -1.28125,-1.125 -1.6875,-1.125 -0.609375,0 -1.328125,0.265625 -1.75,1.1875 -0.3125,0.6875 -0.359375,1.46875 -0.359375,2.265625 0,0.75 0.03125,1.640625 0.453125,2.40625 0.421875,0.796875 1.15625,1 1.640625,1 0.53125,0 1.296875,-0.203125 1.734375,-1.15625 0.3125,-0.6875 0.359375,-1.46875 0.359375,-2.25 z M 2.484375,0 C 2.09375,0 1.5,-0.25 1.328125,-1.203125 1.21875,-1.796875 1.21875,-2.71875 1.21875,-3.3125 c 0,-0.640625 0,-1.296875 0.078125,-1.828125 0.1875,-1.1875 0.9375,-1.28125 1.1875,-1.28125 0.328125,0 0.984375,0.1875 1.171875,1.171875 0.109375,0.5625 0.109375,1.3125 0.109375,1.9375 0,0.75 0,1.421875 -0.109375,2.0625 C 3.5,-0.296875 2.9375,0 2.484375,0 Z m 0,0"
   id="id-b2f7d3eb-313f-46a0-b208-e168e3c5b078" />&#10;      </g></g>&#10;</g></g>&#10;    <path
   inkscape:label="none"
   style="fill:none;fill-opacity:1;stroke:#4c4c4c;stroke-width:0.571429;stroke-linecap:round;stroke-linejoin:round;stroke-dasharray:none;stroke-opacity:1"
   d="m 20,-1.25 v 2.5"
   id="path27" /><g
   inkscape:label="Layer 1"
   inkscape:groupmode="layer"
   id="g27"
   transform="matrix(0.442397,0,0,0.442397,-159.17654,-243.28405)"><g
     transform="matrix(1.33333,0,0,1.33333,397.813,555.573)"
     ns6:version="1.9.0"
     ns6:texconverter="pdflatex"
     ns6:pdfconverter="inkscape"
     ns6:text=" $1$"
     ns6:preamble="/Users/sachchidanandprasad/Library/Application Support/org.inkscape.Inkscape/config/inkscape/extensions/inkscapeMadeEasy/basicLatexPackages.tex"
     ns6:scale="1.0"
     ns6:alignment="middle center"
     ns6:stroke-to-path="0"
     ns6:inkscapeversion="1.0.1"
     id="g2980"
     ns6:jacobian_sqrt="1.33333"><defs
   id="id-eed6e6b7-d197-42c7-a22c-9940e7defd74">&#10;    <g
   id="id-1813adc6-34f4-4061-a305-1fff3767a79e">&#10;      <g
   id="id-4d64e192-7b3a-4ed2-a2a2-ff9b2f4e5a0d">&#10;        <path
   d="m 2.9375,-6.375 c 0,-0.25 0,-0.265625 -0.234375,-0.265625 C 2.078125,-6 1.203125,-6 0.890625,-6 v 0.3125 c 0.203125,0 0.78125,0 1.296875,-0.265625 v 5.171875 c 0,0.359375 -0.03125,0.46875 -0.921875,0.46875 h -0.3125 V 0 c 0.34375,-0.03125 1.203125,-0.03125 1.609375,-0.03125 0.390625,0 1.265625,0 1.609375,0.03125 v -0.3125 h -0.3125 c -0.90625,0 -0.921875,-0.109375 -0.921875,-0.46875 z m 0,0"
   id="id-ddf78c82-e2bd-46e0-b13d-9bf453142c4d" />&#10;      </g>&#10;    </g>&#10;  </defs>&#10;  <g
   fill="#000000"
   fill-opacity="1"
   id="id-246a5ef7-24ba-4894-9642-11fe7b29705b"
   transform="translate(-149.603,-128.124)">&#10;    <g
   transform="translate(148.712,134.765)"
   id="g4152"><path
   d="m 2.9375,-6.375 c 0,-0.25 0,-0.265625 -0.234375,-0.265625 C 2.078125,-6 1.203125,-6 0.890625,-6 v 0.3125 c 0.203125,0 0.78125,0 1.296875,-0.265625 v 5.171875 c 0,0.359375 -0.03125,0.46875 -0.921875,0.46875 h -0.3125 V 0 c 0.34375,-0.03125 1.203125,-0.03125 1.609375,-0.03125 0.390625,0 1.265625,0 1.609375,0.03125 v -0.3125 h -0.3125 c -0.90625,0 -0.921875,-0.109375 -0.921875,-0.46875 z m 0,0"
   id="id-2e36a85b-2ec8-44d8-a8e7-3914b058ceeb" />&#10;      </g></g>&#10;</g></g>&#10;    <path
   inkscape:label="none"
   style="fill:none;fill-opacity:1;stroke:#4c4c4c;stroke-width:0.571429;stroke-linecap:round;stroke-linejoin:round;stroke-dasharray:none;stroke-opacity:1"
   d="m 40,-1.25 v 2.5"
   id="path28" /><g
   inkscape:label="Layer 1"
   inkscape:groupmode="layer"
   id="g28"
   transform="matrix(0.442397,0,0,0.442397,-139.37923,-243.28405)"><g
     transform="matrix(1.33333,0,0,1.33333,397.354,555.573)"
     ns6:version="1.9.0"
     ns6:texconverter="pdflatex"
     ns6:pdfconverter="inkscape"
     ns6:text=" $2$"
     ns6:preamble="/Users/sachchidanandprasad/Library/Application Support/org.inkscape.Inkscape/config/inkscape/extensions/inkscapeMadeEasy/basicLatexPackages.tex"
     ns6:scale="1.0"
     ns6:alignment="middle center"
     ns6:stroke-to-path="0"
     ns6:inkscapeversion="1.0.1"
     id="g6737"
     ns6:jacobian_sqrt="1.33333"><defs
   id="id-fc8f6e53-8622-466d-9dce-cca292cd6474">&#10;    <g
   id="id-cb55e671-f7ae-461f-8ede-c47810214a25">&#10;      <g
   id="id-a8995967-4d1d-4c90-9479-3f48b4b2f16d">&#10;        <path
   d="m 1.265625,-0.765625 1.0625,-1.03125 c 1.546875,-1.375 2.140625,-1.90625 2.140625,-2.90625 0,-1.140625 -0.890625,-1.9375 -2.109375,-1.9375 -1.125,0 -1.859375,0.921875 -1.859375,1.8125 0,0.546875 0.5,0.546875 0.53125,0.546875 0.171875,0 0.515625,-0.109375 0.515625,-0.53125 0,-0.25 -0.1875,-0.515625 -0.53125,-0.515625 -0.078125,0 -0.09375,0 -0.125,0.015625 0.21875,-0.65625 0.765625,-1.015625 1.34375,-1.015625 0.90625,0 1.328125,0.8125 1.328125,1.625 C 3.5625,-3.90625 3.078125,-3.125 2.515625,-2.5 l -1.90625,2.125 C 0.5,-0.265625 0.5,-0.234375 0.5,0 H 4.203125 L 4.46875,-1.734375 H 4.234375 C 4.171875,-1.4375 4.109375,-1 4,-0.84375 3.9375,-0.765625 3.28125,-0.765625 3.0625,-0.765625 Z m 0,0"
   id="id-5b8bad3b-8427-45f2-9cac-3d6237d0fd85" />&#10;      </g>&#10;    </g>&#10;  </defs>&#10;  <g
   fill="#000000"
   fill-opacity="1"
   id="id-e8eaa52f-1d2a-44a9-9400-0e13eabb3733"
   transform="translate(-149.212,-128.124)">&#10;    <g
   transform="translate(148.712,134.765)"
   id="g3831"><path
   d="m 1.265625,-0.765625 1.0625,-1.03125 c 1.546875,-1.375 2.140625,-1.90625 2.140625,-2.90625 0,-1.140625 -0.890625,-1.9375 -2.109375,-1.9375 -1.125,0 -1.859375,0.921875 -1.859375,1.8125 0,0.546875 0.5,0.546875 0.53125,0.546875 0.171875,0 0.515625,-0.109375 0.515625,-0.53125 0,-0.25 -0.1875,-0.515625 -0.53125,-0.515625 -0.078125,0 -0.09375,0 -0.125,0.015625 0.21875,-0.65625 0.765625,-1.015625 1.34375,-1.015625 0.90625,0 1.328125,0.8125 1.328125,1.625 C 3.5625,-3.90625 3.078125,-3.125 2.515625,-2.5 l -1.90625,2.125 C 0.5,-0.265625 0.5,-0.234375 0.5,0 H 4.203125 L 4.46875,-1.734375 H 4.234375 C 4.171875,-1.4375 4.109375,-1 4,-0.84375 3.9375,-0.765625 3.28125,-0.765625 3.0625,-0.765625 Z m 0,0"
   id="id-bb2e725c-66ae-48bf-aa96-a346bb408791" />&#10;      </g></g>&#10;</g></g>&#10;    <path
   inkscape:label="none"
   style="fill:none;fill-opacity:1;stroke:#4c4c4c;stroke-width:0.571429;stroke-linecap:round;stroke-linejoin:round;stroke-dasharray:none;stroke-opacity:1"
   d="m 60,-1.25 v 2.5"
   id="path29" /><g
   inkscape:label="Layer 1"
   inkscape:groupmode="layer"
   id="g29"
   transform="matrix(0.442397,0,0,0.442397,-119.4301,-243.21946)"><g
     transform="matrix(1.33333,0,0,1.33333,397.24,555.427)"
     ns6:version="1.9.0"
     ns6:texconverter="pdflatex"
     ns6:pdfconverter="inkscape"
     ns6:text=" $3$"
     ns6:preamble="/Users/sachchidanandprasad/Library/Application Support/org.inkscape.Inkscape/config/inkscape/extensions/inkscapeMadeEasy/basicLatexPackages.tex"
     ns6:scale="1.0"
     ns6:alignment="middle center"
     ns6:stroke-to-path="0"
     ns6:inkscapeversion="1.0.1"
     id="g8289"
     ns6:jacobian_sqrt="1.33333"><defs
   id="id-57179b3c-05cf-4cde-a2c8-4b1748bf54fc">&#10;    <g
   id="id-a51545b0-241b-4960-bb19-c8ef304490d8">&#10;      <g
   id="id-5dc3d681-dae7-44ef-bf71-5f82c619c7af">&#10;        <path
   d="m 2.890625,-3.515625 c 0.8125,-0.265625 1.390625,-0.953125 1.390625,-1.75 0,-0.8125 -0.875,-1.375 -1.828125,-1.375 -1,0 -1.765625,0.59375 -1.765625,1.359375 0,0.328125 0.21875,0.515625 0.515625,0.515625 0.296875,0 0.5,-0.21875 0.5,-0.515625 0,-0.484375 -0.46875,-0.484375 -0.609375,-0.484375 0.296875,-0.5 0.953125,-0.625 1.3125,-0.625 0.421875,0 0.96875,0.21875 0.96875,1.109375 0,0.125 -0.03125,0.703125 -0.28125,1.140625 C 2.796875,-3.65625 2.453125,-3.625 2.203125,-3.625 2.125,-3.609375 1.890625,-3.59375 1.8125,-3.59375 c -0.078125,0.015625 -0.140625,0.03125 -0.140625,0.125 0,0.109375 0.0625,0.109375 0.234375,0.109375 h 0.4375 c 0.8125,0 1.1875,0.671875 1.1875,1.65625 0,1.359375 -0.6875,1.640625 -1.125,1.640625 -0.4375,0 -1.1875,-0.171875 -1.53125,-0.75 0.34375,0.046875 0.65625,-0.171875 0.65625,-0.546875 0,-0.359375 -0.265625,-0.5625 -0.546875,-0.5625 -0.25,0 -0.5625,0.140625 -0.5625,0.578125 0,0.90625 0.921875,1.5625 2.015625,1.5625 1.21875,0 2.125,-0.90625 2.125,-1.921875 0,-0.8125 -0.640625,-1.59375 -1.671875,-1.8125 z m 0,0"
   id="id-6b8fd3c0-f051-411e-8960-b3ed2eda3957" />&#10;      </g>&#10;    </g>&#10;  </defs>&#10;  <g
   fill="#000000"
   fill-opacity="1"
   id="id-1a116d10-067f-4299-8aea-62046b5323dd"
   transform="translate(-149.134,-128.124)">&#10;    <g
   transform="translate(148.712,134.765)"
   id="g7182"><path
   d="m 2.890625,-3.515625 c 0.8125,-0.265625 1.390625,-0.953125 1.390625,-1.75 0,-0.8125 -0.875,-1.375 -1.828125,-1.375 -1,0 -1.765625,0.59375 -1.765625,1.359375 0,0.328125 0.21875,0.515625 0.515625,0.515625 0.296875,0 0.5,-0.21875 0.5,-0.515625 0,-0.484375 -0.46875,-0.484375 -0.609375,-0.484375 0.296875,-0.5 0.953125,-0.625 1.3125,-0.625 0.421875,0 0.96875,0.21875 0.96875,1.109375 0,0.125 -0.03125,0.703125 -0.28125,1.140625 C 2.796875,-3.65625 2.453125,-3.625 2.203125,-3.625 2.125,-3.609375 1.890625,-3.59375 1.8125,-3.59375 c -0.078125,0.015625 -0.140625,0.03125 -0.140625,0.125 0,0.109375 0.0625,0.109375 0.234375,0.109375 h 0.4375 c 0.8125,0 1.1875,0.671875 1.1875,1.65625 0,1.359375 -0.6875,1.640625 -1.125,1.640625 -0.4375,0 -1.1875,-0.171875 -1.53125,-0.75 0.34375,0.046875 0.65625,-0.171875 0.65625,-0.546875 0,-0.359375 -0.265625,-0.5625 -0.546875,-0.5625 -0.25,0 -0.5625,0.140625 -0.5625,0.578125 0,0.90625 0.921875,1.5625 2.015625,1.5625 1.21875,0 2.125,-0.90625 2.125,-1.921875 0,-0.8125 -0.640625,-1.59375 -1.671875,-1.8125 z m 0,0"
   id="id-bb8785b1-b356-470c-8237-4e50d8fc6cce" />&#10;      </g></g>&#10;</g></g>&#10;    <path
   inkscape:label="none"
   style="fill:none;fill-opacity:1;stroke:#4c4c4c;stroke-width:0.571429;stroke-linecap:round;stroke-linejoin:round;stroke-dasharray:none;stroke-opacity:1"
   d="m 80,-1.25 v 2.5"
   id="path30" /><g
   inkscape:label="Layer 1"
   inkscape:groupmode="layer"
   id="g30"
   transform="matrix(0.442397,0,0,0.442397,-99.508703,-243.25153)"><g
     transform="matrix(1.33333,0,0,1.33333,397.063,555.5)"
     ns6:version="1.9.0"
     ns6:texconverter="pdflatex"
     ns6:pdfconverter="inkscape"
     ns6:text=" $4$"
     ns6:preamble="/Users/sachchidanandprasad/Library/Application Support/org.inkscape.Inkscape/config/inkscape/extensions/inkscapeMadeEasy/basicLatexPackages.tex"
     ns6:scale="1.0"
     ns6:alignment="middle center"
     ns6:stroke-to-path="0"
     ns6:inkscapeversion="1.0.1"
     id="g4584"
     ns6:jacobian_sqrt="1.33333"><defs
   id="id-dc0c5565-e3da-4b22-81ff-8079f04b014c">&#10;    <g
   id="id-679eb802-c6cf-4df5-ae74-b8a7f2e971f1">&#10;      <g
   id="id-31b8eab9-de36-4d8d-b45c-d7747481251d">&#10;        <path
   d="m 2.9375,-1.640625 v 0.859375 c 0,0.359375 -0.03125,0.46875 -0.765625,0.46875 H 1.96875 V 0 C 2.375,-0.03125 2.890625,-0.03125 3.3125,-0.03125 c 0.421875,0 0.9375,0 1.359375,0.03125 v -0.3125 h -0.21875 c -0.734375,0 -0.75,-0.109375 -0.75,-0.46875 V -1.640625 H 4.6875 v -0.3125 H 3.703125 v -4.53125 c 0,-0.203125 0,-0.265625 -0.171875,-0.265625 -0.078125,0 -0.109375,0 -0.1875,0.125 l -3.0625,4.671875 v 0.3125 z m 0.046875,-0.3125 H 0.5625 l 2.421875,-3.71875 z m 0,0"
   id="id-9189db98-b606-44cf-8d0f-211dd34637f8" />&#10;      </g>&#10;    </g>&#10;  </defs>&#10;  <g
   fill="#000000"
   fill-opacity="1"
   id="id-c7ebafe2-b5b9-4f18-91f4-a061cca5dc01"
   transform="translate(-148.993,-128.015)">&#10;    <g
   transform="translate(148.712,134.765)"
   id="g6660"><path
   d="m 2.9375,-1.640625 v 0.859375 c 0,0.359375 -0.03125,0.46875 -0.765625,0.46875 H 1.96875 V 0 C 2.375,-0.03125 2.890625,-0.03125 3.3125,-0.03125 c 0.421875,0 0.9375,0 1.359375,0.03125 v -0.3125 h -0.21875 c -0.734375,0 -0.75,-0.109375 -0.75,-0.46875 V -1.640625 H 4.6875 v -0.3125 H 3.703125 v -4.53125 c 0,-0.203125 0,-0.265625 -0.171875,-0.265625 -0.078125,0 -0.109375,0 -0.1875,0.125 l -3.0625,4.671875 v 0.3125 z m 0.046875,-0.3125 H 0.5625 l 2.421875,-3.71875 z m 0,0"
   id="id-d8da45a8-2c44-433f-840b-568bc6ea40d8" />&#10;      </g></g>&#10;</g></g>&#10;    <path
   inkscape:label="none"
   style="fill:none;fill-opacity:1;stroke:#4c4c4c;stroke-width:0.571429;stroke-linecap:round;stroke-linejoin:round;stroke-dasharray:none;stroke-opacity:1"
   d="m 100,-1.25 v 2.5"
   id="path31" /><g
   inkscape:label="Layer 1"
   inkscape:groupmode="layer"
   id="g31"
   transform="matrix(0.442397,0,0,0.442397,-79.379229,-243.21946)"><g
     transform="matrix(1.33333,0,0,1.33333,397.354,555.427)"
     ns6:version="1.9.0"
     ns6:texconverter="pdflatex"
     ns6:pdfconverter="inkscape"
     ns6:text=" $5$"
     ns6:preamble="/Users/sachchidanandprasad/Library/Application Support/org.inkscape.Inkscape/config/inkscape/extensions/inkscapeMadeEasy/basicLatexPackages.tex"
     ns6:scale="1.0"
     ns6:alignment="middle center"
     ns6:stroke-to-path="0"
     ns6:inkscapeversion="1.0.1"
     id="g3024"
     ns6:jacobian_sqrt="1.33333"><defs
   id="id-5dab364d-7acf-4e90-8932-561ee7d79eaf">&#10;    <g
   id="id-298987b1-e099-4ee8-b5f6-a08bde306b84">&#10;      <g
   id="id-e0fd1675-7370-4610-9f8c-d50db36a59ce">&#10;        <path
   d="m 4.46875,-2 c 0,-1.1875 -0.8125,-2.1875 -1.890625,-2.1875 -0.46875,0 -0.90625,0.15625 -1.265625,0.515625 V -5.625 c 0.203125,0.0625 0.53125,0.125 0.84375,0.125 1.234375,0 1.9375,-0.90625 1.9375,-1.03125 0,-0.0625 -0.03125,-0.109375 -0.109375,-0.109375 0,0 -0.03125,0 -0.078125,0.03125 C 3.703125,-6.515625 3.21875,-6.3125 2.546875,-6.3125 2.15625,-6.3125 1.6875,-6.390625 1.21875,-6.59375 1.140625,-6.625 1.125,-6.625 1.109375,-6.625 1,-6.625 1,-6.546875 1,-6.390625 V -3.4375 c 0,0.171875 0,0.25 0.140625,0.25 0.078125,0 0.09375,-0.015625 0.140625,-0.078125 C 1.390625,-3.421875 1.75,-3.96875 2.5625,-3.96875 c 0.515625,0 0.765625,0.453125 0.84375,0.640625 0.15625,0.375 0.1875,0.75 0.1875,1.25 0,0.359375 0,0.953125 -0.25,1.375 C 3.109375,-0.3125 2.734375,-0.0625 2.28125,-0.0625 c -0.71875,0 -1.296875,-0.53125 -1.46875,-1.109375 0.03125,0 0.0625,0.015625 0.171875,0.015625 0.328125,0 0.5,-0.25 0.5,-0.484375 0,-0.25 -0.171875,-0.5 -0.5,-0.5 C 0.84375,-2.140625 0.5,-2.0625 0.5,-1.609375 0.5,-0.75 1.1875,0.21875 2.296875,0.21875 3.453125,0.21875 4.46875,-0.734375 4.46875,-2 Z m 0,0"
   id="id-03ce751a-aba4-41a5-bea6-2a530967b8ad" />&#10;      </g>&#10;    </g>&#10;  </defs>&#10;  <g
   fill="#000000"
   fill-opacity="1"
   id="id-d44379a3-1631-4a34-a0ca-5127e2ff3bc5"
   transform="translate(-149.212,-128.124)">&#10;    <g
   transform="translate(148.712,134.765)"
   id="g7223"><path
   d="m 4.46875,-2 c 0,-1.1875 -0.8125,-2.1875 -1.890625,-2.1875 -0.46875,0 -0.90625,0.15625 -1.265625,0.515625 V -5.625 c 0.203125,0.0625 0.53125,0.125 0.84375,0.125 1.234375,0 1.9375,-0.90625 1.9375,-1.03125 0,-0.0625 -0.03125,-0.109375 -0.109375,-0.109375 0,0 -0.03125,0 -0.078125,0.03125 C 3.703125,-6.515625 3.21875,-6.3125 2.546875,-6.3125 2.15625,-6.3125 1.6875,-6.390625 1.21875,-6.59375 1.140625,-6.625 1.125,-6.625 1.109375,-6.625 1,-6.625 1,-6.546875 1,-6.390625 V -3.4375 c 0,0.171875 0,0.25 0.140625,0.25 0.078125,0 0.09375,-0.015625 0.140625,-0.078125 C 1.390625,-3.421875 1.75,-3.96875 2.5625,-3.96875 c 0.515625,0 0.765625,0.453125 0.84375,0.640625 0.15625,0.375 0.1875,0.75 0.1875,1.25 0,0.359375 0,0.953125 -0.25,1.375 C 3.109375,-0.3125 2.734375,-0.0625 2.28125,-0.0625 c -0.71875,0 -1.296875,-0.53125 -1.46875,-1.109375 0.03125,0 0.0625,0.015625 0.171875,0.015625 0.328125,0 0.5,-0.25 0.5,-0.484375 0,-0.25 -0.171875,-0.5 -0.5,-0.5 C 0.84375,-2.140625 0.5,-2.0625 0.5,-1.609375 0.5,-0.75 1.1875,0.21875 2.296875,0.21875 3.453125,0.21875 4.46875,-0.734375 4.46875,-2 Z m 0,0"
   id="id-507fe670-f371-495e-bdb6-707f90a36ce7" />&#10;      </g></g>&#10;</g></g>&#10;    <g
   inkscape:label="Layer 1"
   inkscape:groupmode="layer"
   id="g32"
   transform="matrix(0.442397,0,0,0.442397,-180.69345,-251.01554)" />&#10;    <path
   inkscape:label="none"
   style="fill:none;fill-opacity:1;stroke:#4c4c4c;stroke-width:0.571429;stroke-linecap:round;stroke-linejoin:round;stroke-dasharray:none;stroke-opacity:1"
   d="m -1.25,-20 h 2.5"
   id="path32" /><g
   inkscape:label="Layer 1"
   inkscape:groupmode="layer"
   id="g33"
   transform="matrix(0.442397,0,0,0.442397,-180.42654,-264.53405)"><g
     transform="matrix(1.33333,0,0,1.33333,397.813,555.573)"
     ns6:version="1.9.0"
     ns6:texconverter="pdflatex"
     ns6:pdfconverter="inkscape"
     ns6:text=" $1$"
     ns6:preamble="/Users/sachchidanandprasad/Library/Application Support/org.inkscape.Inkscape/config/inkscape/extensions/inkscapeMadeEasy/basicLatexPackages.tex"
     ns6:scale="1.0"
     ns6:alignment="middle center"
     ns6:stroke-to-path="0"
     ns6:inkscapeversion="1.0.1"
     id="g4146"
     ns6:jacobian_sqrt="1.33333"><defs
   id="id-7a4d85b6-c1e8-41ce-960b-defff2c2ea51">&#10;    <g
   id="id-08471b1a-1ddb-4d31-9ea4-1cb975c9076f">&#10;      <g
   id="id-887c6d81-7f7e-488f-802b-a2e7ae08d294">&#10;        <path
   d="m 2.9375,-6.375 c 0,-0.25 0,-0.265625 -0.234375,-0.265625 C 2.078125,-6 1.203125,-6 0.890625,-6 v 0.3125 c 0.203125,0 0.78125,0 1.296875,-0.265625 v 5.171875 c 0,0.359375 -0.03125,0.46875 -0.921875,0.46875 h -0.3125 V 0 c 0.34375,-0.03125 1.203125,-0.03125 1.609375,-0.03125 0.390625,0 1.265625,0 1.609375,0.03125 v -0.3125 h -0.3125 c -0.90625,0 -0.921875,-0.109375 -0.921875,-0.46875 z m 0,0"
   id="id-d005aa79-dac2-48a3-823b-5fe4ec20fc74" />&#10;      </g>&#10;    </g>&#10;  </defs>&#10;  <g
   fill="#000000"
   fill-opacity="1"
   id="id-d1cea1c3-f5a6-431e-89bd-f2ec7551cf6b"
   transform="translate(-149.603,-128.124)">&#10;    <g
   transform="translate(148.712,134.765)"
   id="g5010"><path
   d="m 2.9375,-6.375 c 0,-0.25 0,-0.265625 -0.234375,-0.265625 C 2.078125,-6 1.203125,-6 0.890625,-6 v 0.3125 c 0.203125,0 0.78125,0 1.296875,-0.265625 v 5.171875 c 0,0.359375 -0.03125,0.46875 -0.921875,0.46875 h -0.3125 V 0 c 0.34375,-0.03125 1.203125,-0.03125 1.609375,-0.03125 0.390625,0 1.265625,0 1.609375,0.03125 v -0.3125 h -0.3125 c -0.90625,0 -0.921875,-0.109375 -0.921875,-0.46875 z m 0,0"
   id="id-d46d5ce3-483b-4a66-8f47-7134b857302f" />&#10;      </g></g>&#10;</g></g>&#10;    <path
   inkscape:label="none"
   style="fill:none;fill-opacity:1;stroke:#4c4c4c;stroke-width:0.571429;stroke-linecap:round;stroke-linejoin:round;stroke-dasharray:none;stroke-opacity:1"
   d="m -1.25,-40 h 2.5"
   id="path33" /><g
   inkscape:label="Layer 1"
   inkscape:groupmode="layer"
   id="g34"
   transform="matrix(0.442397,0,0,0.442397,-180.62923,-284.53405)"><g
     transform="matrix(1.33333,0,0,1.33333,397.354,555.573)"
     ns6:version="1.9.0"
     ns6:texconverter="pdflatex"
     ns6:pdfconverter="inkscape"
     ns6:text=" $2$"
     ns6:preamble="/Users/sachchidanandprasad/Library/Application Support/org.inkscape.Inkscape/config/inkscape/extensions/inkscapeMadeEasy/basicLatexPackages.tex"
     ns6:scale="1.0"
     ns6:alignment="middle center"
     ns6:stroke-to-path="0"
     ns6:inkscapeversion="1.0.1"
     id="g684"
     ns6:jacobian_sqrt="1.33333"><defs
   id="id-d48a4f22-7f49-4b60-a3ea-7dd91fc30c10">&#10;    <g
   id="id-5de05cbc-0202-4e1a-829e-987163253c0a">&#10;      <g
   id="id-606002ce-afdf-41b7-9190-0dd24d70fdfa">&#10;        <path
   d="m 1.265625,-0.765625 1.0625,-1.03125 c 1.546875,-1.375 2.140625,-1.90625 2.140625,-2.90625 0,-1.140625 -0.890625,-1.9375 -2.109375,-1.9375 -1.125,0 -1.859375,0.921875 -1.859375,1.8125 0,0.546875 0.5,0.546875 0.53125,0.546875 0.171875,0 0.515625,-0.109375 0.515625,-0.53125 0,-0.25 -0.1875,-0.515625 -0.53125,-0.515625 -0.078125,0 -0.09375,0 -0.125,0.015625 0.21875,-0.65625 0.765625,-1.015625 1.34375,-1.015625 0.90625,0 1.328125,0.8125 1.328125,1.625 C 3.5625,-3.90625 3.078125,-3.125 2.515625,-2.5 l -1.90625,2.125 C 0.5,-0.265625 0.5,-0.234375 0.5,0 H 4.203125 L 4.46875,-1.734375 H 4.234375 C 4.171875,-1.4375 4.109375,-1 4,-0.84375 3.9375,-0.765625 3.28125,-0.765625 3.0625,-0.765625 Z m 0,0"
   id="id-927c49fd-7260-4a36-95fe-e5675cf016c3" />&#10;      </g>&#10;    </g>&#10;  </defs>&#10;  <g
   fill="#000000"
   fill-opacity="1"
   id="id-c0ca0775-8db7-4ab7-b4b3-622f3db6a962"
   transform="translate(-149.212,-128.124)">&#10;    <g
   transform="translate(148.712,134.765)"
   id="g6074"><path
   d="m 1.265625,-0.765625 1.0625,-1.03125 c 1.546875,-1.375 2.140625,-1.90625 2.140625,-2.90625 0,-1.140625 -0.890625,-1.9375 -2.109375,-1.9375 -1.125,0 -1.859375,0.921875 -1.859375,1.8125 0,0.546875 0.5,0.546875 0.53125,0.546875 0.171875,0 0.515625,-0.109375 0.515625,-0.53125 0,-0.25 -0.1875,-0.515625 -0.53125,-0.515625 -0.078125,0 -0.09375,0 -0.125,0.015625 0.21875,-0.65625 0.765625,-1.015625 1.34375,-1.015625 0.90625,0 1.328125,0.8125 1.328125,1.625 C 3.5625,-3.90625 3.078125,-3.125 2.515625,-2.5 l -1.90625,2.125 C 0.5,-0.265625 0.5,-0.234375 0.5,0 H 4.203125 L 4.46875,-1.734375 H 4.234375 C 4.171875,-1.4375 4.109375,-1 4,-0.84375 3.9375,-0.765625 3.28125,-0.765625 3.0625,-0.765625 Z m 0,0"
   id="id-75ab9a80-9d58-43a6-b91b-dd8b7233d54e" />&#10;      </g></g>&#10;</g></g>&#10;    <path
   inkscape:label="none"
   style="fill:none;fill-opacity:1;stroke:#4c4c4c;stroke-width:0.571429;stroke-linecap:round;stroke-linejoin:round;stroke-dasharray:none;stroke-opacity:1"
   d="m -1.25,-60 h 2.5"
   id="path34" /><g
   inkscape:label="Layer 1"
   inkscape:groupmode="layer"
   id="g35"
   transform="matrix(0.442397,0,0,0.442397,-180.6801,-304.46946)"><g
     transform="matrix(1.33333,0,0,1.33333,397.24,555.427)"
     ns6:version="1.9.0"
     ns6:texconverter="pdflatex"
     ns6:pdfconverter="inkscape"
     ns6:text=" $3$"
     ns6:preamble="/Users/sachchidanandprasad/Library/Application Support/org.inkscape.Inkscape/config/inkscape/extensions/inkscapeMadeEasy/basicLatexPackages.tex"
     ns6:scale="1.0"
     ns6:alignment="middle center"
     ns6:stroke-to-path="0"
     ns6:inkscapeversion="1.0.1"
     id="g2914"
     ns6:jacobian_sqrt="1.33333"><defs
   id="id-03c12e9a-78a9-4868-aa78-cb214ba88c38">&#10;    <g
   id="id-b8abbda4-dcf8-4284-90e5-463e53423bb5">&#10;      <g
   id="id-8d2480a4-d31e-47bc-bf7c-5c0195d9f2a8">&#10;        <path
   d="m 2.890625,-3.515625 c 0.8125,-0.265625 1.390625,-0.953125 1.390625,-1.75 0,-0.8125 -0.875,-1.375 -1.828125,-1.375 -1,0 -1.765625,0.59375 -1.765625,1.359375 0,0.328125 0.21875,0.515625 0.515625,0.515625 0.296875,0 0.5,-0.21875 0.5,-0.515625 0,-0.484375 -0.46875,-0.484375 -0.609375,-0.484375 0.296875,-0.5 0.953125,-0.625 1.3125,-0.625 0.421875,0 0.96875,0.21875 0.96875,1.109375 0,0.125 -0.03125,0.703125 -0.28125,1.140625 C 2.796875,-3.65625 2.453125,-3.625 2.203125,-3.625 2.125,-3.609375 1.890625,-3.59375 1.8125,-3.59375 c -0.078125,0.015625 -0.140625,0.03125 -0.140625,0.125 0,0.109375 0.0625,0.109375 0.234375,0.109375 h 0.4375 c 0.8125,0 1.1875,0.671875 1.1875,1.65625 0,1.359375 -0.6875,1.640625 -1.125,1.640625 -0.4375,0 -1.1875,-0.171875 -1.53125,-0.75 0.34375,0.046875 0.65625,-0.171875 0.65625,-0.546875 0,-0.359375 -0.265625,-0.5625 -0.546875,-0.5625 -0.25,0 -0.5625,0.140625 -0.5625,0.578125 0,0.90625 0.921875,1.5625 2.015625,1.5625 1.21875,0 2.125,-0.90625 2.125,-1.921875 0,-0.8125 -0.640625,-1.59375 -1.671875,-1.8125 z m 0,0"
   id="id-85426666-0678-44e3-9494-e2aec66ea164" />&#10;      </g>&#10;    </g>&#10;  </defs>&#10;  <g
   fill="#000000"
   fill-opacity="1"
   id="id-865e2170-9e88-436a-bf90-4f285dd8dbe8"
   transform="translate(-149.134,-128.124)">&#10;    <g
   transform="translate(148.712,134.765)"
   id="g8290"><path
   d="m 2.890625,-3.515625 c 0.8125,-0.265625 1.390625,-0.953125 1.390625,-1.75 0,-0.8125 -0.875,-1.375 -1.828125,-1.375 -1,0 -1.765625,0.59375 -1.765625,1.359375 0,0.328125 0.21875,0.515625 0.515625,0.515625 0.296875,0 0.5,-0.21875 0.5,-0.515625 0,-0.484375 -0.46875,-0.484375 -0.609375,-0.484375 0.296875,-0.5 0.953125,-0.625 1.3125,-0.625 0.421875,0 0.96875,0.21875 0.96875,1.109375 0,0.125 -0.03125,0.703125 -0.28125,1.140625 C 2.796875,-3.65625 2.453125,-3.625 2.203125,-3.625 2.125,-3.609375 1.890625,-3.59375 1.8125,-3.59375 c -0.078125,0.015625 -0.140625,0.03125 -0.140625,0.125 0,0.109375 0.0625,0.109375 0.234375,0.109375 h 0.4375 c 0.8125,0 1.1875,0.671875 1.1875,1.65625 0,1.359375 -0.6875,1.640625 -1.125,1.640625 -0.4375,0 -1.1875,-0.171875 -1.53125,-0.75 0.34375,0.046875 0.65625,-0.171875 0.65625,-0.546875 0,-0.359375 -0.265625,-0.5625 -0.546875,-0.5625 -0.25,0 -0.5625,0.140625 -0.5625,0.578125 0,0.90625 0.921875,1.5625 2.015625,1.5625 1.21875,0 2.125,-0.90625 2.125,-1.921875 0,-0.8125 -0.640625,-1.59375 -1.671875,-1.8125 z m 0,0"
   id="id-793ba222-2723-44e9-94c6-3c55fdb73ac3" />&#10;      </g></g>&#10;</g></g>&#10;    <path
   inkscape:label="none"
   style="fill:none;fill-opacity:1;stroke:#4c4c4c;stroke-width:0.571429;stroke-linecap:round;stroke-linejoin:round;stroke-dasharray:none;stroke-opacity:1"
   d="m -1.25,-80 h 2.5"
   id="path35" /><g
   inkscape:label="Layer 1"
   inkscape:groupmode="layer"
   id="g36"
   transform="matrix(0.442397,0,0,0.442397,-180.7587,-324.50153)"><g
     transform="matrix(1.33333,0,0,1.33333,397.063,555.5)"
     ns6:version="1.9.0"
     ns6:texconverter="pdflatex"
     ns6:pdfconverter="inkscape"
     ns6:text=" $4$"
     ns6:preamble="/Users/sachchidanandprasad/Library/Application Support/org.inkscape.Inkscape/config/inkscape/extensions/inkscapeMadeEasy/basicLatexPackages.tex"
     ns6:scale="1.0"
     ns6:alignment="middle center"
     ns6:stroke-to-path="0"
     ns6:inkscapeversion="1.0.1"
     id="g3545"
     ns6:jacobian_sqrt="1.33333"><defs
   id="id-e03d9934-dfc0-4532-8f34-f3c2d9c7701a">&#10;    <g
   id="id-e168a43f-f6a9-4370-ae74-f08daba5ef6c">&#10;      <g
   id="id-5131e016-f978-47b8-9ac9-0b5f147c30e8">&#10;        <path
   d="m 2.9375,-1.640625 v 0.859375 c 0,0.359375 -0.03125,0.46875 -0.765625,0.46875 H 1.96875 V 0 C 2.375,-0.03125 2.890625,-0.03125 3.3125,-0.03125 c 0.421875,0 0.9375,0 1.359375,0.03125 v -0.3125 h -0.21875 c -0.734375,0 -0.75,-0.109375 -0.75,-0.46875 V -1.640625 H 4.6875 v -0.3125 H 3.703125 v -4.53125 c 0,-0.203125 0,-0.265625 -0.171875,-0.265625 -0.078125,0 -0.109375,0 -0.1875,0.125 l -3.0625,4.671875 v 0.3125 z m 0.046875,-0.3125 H 0.5625 l 2.421875,-3.71875 z m 0,0"
   id="id-361deb5a-fa82-45c3-a0df-fa2adcbdfdbf" />&#10;      </g>&#10;    </g>&#10;  </defs>&#10;  <g
   fill="#000000"
   fill-opacity="1"
   id="id-e1622de6-093e-4605-8b5f-31e175e685fa"
   transform="translate(-148.993,-128.015)">&#10;    <g
   transform="translate(148.712,134.765)"
   id="g8130"><path
   d="m 2.9375,-1.640625 v 0.859375 c 0,0.359375 -0.03125,0.46875 -0.765625,0.46875 H 1.96875 V 0 C 2.375,-0.03125 2.890625,-0.03125 3.3125,-0.03125 c 0.421875,0 0.9375,0 1.359375,0.03125 v -0.3125 h -0.21875 c -0.734375,0 -0.75,-0.109375 -0.75,-0.46875 V -1.640625 H 4.6875 v -0.3125 H 3.703125 v -4.53125 c 0,-0.203125 0,-0.265625 -0.171875,-0.265625 -0.078125,0 -0.109375,0 -0.1875,0.125 l -3.0625,4.671875 v 0.3125 z m 0.046875,-0.3125 H 0.5625 l 2.421875,-3.71875 z m 0,0"
   id="id-6c73e89b-0d21-4542-8753-1bcdab51b516" />&#10;      </g></g>&#10;</g></g>&#10;    </g><g
       id="path37"
       inkscape:label="Xaxis"><path
         style="color:#000000;fill:#4c4c4c;stroke-linecap:round;stroke-linejoin:round;-inkscape-stroke:none"
         d="M -45.382812,-0.28515625 A 0.28571451,0.28571451 0 0 0 -45.667969,0 0.28571451,0.28571451 0 0 0 -45.382812,0.28515625 H 119.41602 A 0.28571451,0.28571451 0 0 0 119.70117,0 0.28571451,0.28571451 0 0 0 119.41602,-0.28515625 Z"
         id="path48" /><g
         id="g42"><g
           id="path45"><path
             style="color:#000000;fill:#4c4c4c;fill-rule:evenodd;-inkscape-stroke:none"
             d="m 121.12997,0 c -0.85715,0.28571451 -2,0.85714352 -2.57143,1.4285725 0,0 0,-1.14285799 0.57143,-1.4285725 -0.57143,-0.28571451 -0.57143,-1.4285725 -0.57143,-1.4285725 0.57143,0.57142898 1.71428,1.14285799 2.57143,1.4285725 z"
             id="path46" /><path
             style="color:#000000;fill:#4c4c4c;fill-rule:evenodd;-inkscape-stroke:none"
             d="m 118.36719,-1.8886719 v 0.4609375 c 0,0 -4.4e-4,0.3036753 0.0762,0.64843753 0.0629,0.28308911 0.24805,0.56530689 0.49414,0.77929687 -0.24609,0.21398998 -0.43123,0.49620776 -0.49414,0.77929687 -0.0766,0.34476223 -0.0762,0.64843753 -0.0762,0.64843753 V 1.8886719 L 118.69336,1.5625 c 0.52653,-0.5265335 1.66304,-1.10317648 2.49609,-1.38085938 L 121.73242,0 121.18945,-0.18164062 C 120.3564,-0.45932352 119.21989,-1.0359665 118.69336,-1.5625 Z m 0.42187,0.7988282 c 0.55256,0.44171533 1.26433,0.82596922 1.95508,1.0898437 -0.69075,0.26387448 -1.40252,0.64812837 -1.95508,1.0898437 0.01,-0.0945136 7.6e-4,-0.10691794 0.0273,-0.22656245 0.0662,-0.29809472 0.20358,-0.59593344 0.39843,-0.69335938 L 119.55664,0 l -0.3418,-0.16992187 c -0.19485,-0.0974259 -0.33219,-0.39526466 -0.39843,-0.69335938 -0.0266,-0.11964451 -0.0177,-0.13204884 -0.0273,-0.22656245 z"
             id="path47" /></g></g></g><g
       inkscape:label="Layer 1"
       inkscape:groupmode="layer"
       id="g38"
       transform="matrix(0.552997,0,0,0.552997,-101.03938,-305.51362)"><g
         transform="matrix(1.33333,0,0,1.33333,405.78862,549.33474)"
         ns6:version="1.9.0"
         ns6:texconverter="pdflatex"
         ns6:pdfconverter="inkscape"
         ns6:text=" $x$"
         ns6:preamble="/Users/sachchidanandprasad/Library/Application Support/org.inkscape.Inkscape/config/inkscape/extensions/inkscapeMadeEasy/basicLatexPackages.tex"
         ns6:scale="1.0"
         ns6:alignment="middle center"
         ns6:stroke-to-path="0"
         ns6:inkscapeversion="1.0.1"
         id="g1147"
         ns6:jacobian_sqrt="1.33333"><defs
   id="id-244d3695-21b1-4f1d-8ea9-9aff755bfc50">&#10;    <g
   id="id-b368595b-d1af-447f-929a-9e7ae8434447">&#10;      <g
   id="id-b5cd1b61-24f2-46d0-9871-7cb352199f00">&#10;        <path
   d="M 3.328125,-3.015625 C 3.390625,-3.265625 3.625,-4.1875 4.3125,-4.1875 c 0.046875,0 0.296875,0 0.5,0.125 C 4.53125,-4 4.34375,-3.765625 4.34375,-3.515625 c 0,0.15625 0.109375,0.34375 0.375,0.34375 0.21875,0 0.53125,-0.171875 0.53125,-0.578125 0,-0.515625 -0.578125,-0.65625 -0.921875,-0.65625 -0.578125,0 -0.921875,0.53125 -1.046875,0.75 -0.25,-0.65625 -0.78125,-0.75 -1.078125,-0.75 -1.03125,0 -1.609375,1.28125 -1.609375,1.53125 0,0.109375 0.109375,0.109375 0.125,0.109375 0.078125,0 0.109375,-0.03125 0.125,-0.109375 0.34375,-1.0625 1,-1.3125 1.34375,-1.3125 0.1875,0 0.53125,0.09375 0.53125,0.671875 0,0.3125 -0.171875,0.96875 -0.53125,2.375 -0.15625,0.609375 -0.515625,1.03125 -0.953125,1.03125 -0.0625,0 -0.28125,0 -0.5,-0.125 0.25,-0.0625 0.46875,-0.265625 0.46875,-0.546875 0,-0.265625 -0.21875,-0.34375 -0.359375,-0.34375 -0.3125,0 -0.546875,0.25 -0.546875,0.578125 0,0.453125 0.484375,0.65625 0.921875,0.65625 0.671875,0 1.03125,-0.703125 1.046875,-0.75 0.125,0.359375 0.484375,0.75 1.078125,0.75 1.03125,0 1.59375,-1.28125 1.59375,-1.53125 0,-0.109375 -0.078125,-0.109375 -0.109375,-0.109375 -0.09375,0 -0.109375,0.046875 -0.140625,0.109375 -0.328125,1.078125 -1,1.3125 -1.3125,1.3125 -0.390625,0 -0.546875,-0.3125 -0.546875,-0.65625 0,-0.21875 0.046875,-0.4375 0.15625,-0.875 z m 0,0"
   id="id-ef96bffc-c52f-4d56-ba0e-199ccca6dc2d" />&#10;      </g>&#10;    </g>&#10;  </defs>&#10;  <g
   fill="#000000"
   fill-opacity="1"
   id="id-04650163-7392-4315-ae21-4c803ec5c0f6"
   transform="translate(-149.009,-130.359)">&#10;    <g
   transform="translate(148.712,134.765)"
   id="g3133"><path
   d="M 3.328125,-3.015625 C 3.390625,-3.265625 3.625,-4.1875 4.3125,-4.1875 c 0.046875,0 0.296875,0 0.5,0.125 C 4.53125,-4 4.34375,-3.765625 4.34375,-3.515625 c 0,0.15625 0.109375,0.34375 0.375,0.34375 0.21875,0 0.53125,-0.171875 0.53125,-0.578125 0,-0.515625 -0.578125,-0.65625 -0.921875,-0.65625 -0.578125,0 -0.921875,0.53125 -1.046875,0.75 -0.25,-0.65625 -0.78125,-0.75 -1.078125,-0.75 -1.03125,0 -1.609375,1.28125 -1.609375,1.53125 0,0.109375 0.109375,0.109375 0.125,0.109375 0.078125,0 0.109375,-0.03125 0.125,-0.109375 0.34375,-1.0625 1,-1.3125 1.34375,-1.3125 0.1875,0 0.53125,0.09375 0.53125,0.671875 0,0.3125 -0.171875,0.96875 -0.53125,2.375 -0.15625,0.609375 -0.515625,1.03125 -0.953125,1.03125 -0.0625,0 -0.28125,0 -0.5,-0.125 0.25,-0.0625 0.46875,-0.265625 0.46875,-0.546875 0,-0.265625 -0.21875,-0.34375 -0.359375,-0.34375 -0.3125,0 -0.546875,0.25 -0.546875,0.578125 0,0.453125 0.484375,0.65625 0.921875,0.65625 0.671875,0 1.03125,-0.703125 1.046875,-0.75 0.125,0.359375 0.484375,0.75 1.078125,0.75 1.03125,0 1.59375,-1.28125 1.59375,-1.53125 0,-0.109375 -0.078125,-0.109375 -0.109375,-0.109375 -0.09375,0 -0.109375,0.046875 -0.140625,0.109375 -0.328125,1.078125 -1,1.3125 -1.3125,1.3125 -0.390625,0 -0.546875,-0.3125 -0.546875,-0.65625 0,-0.21875 0.046875,-0.4375 0.15625,-0.875 z m 0,0"
   id="id-79d66822-6526-4ba2-b97f-660402a899df" />&#10;      </g></g>&#10;</g></g><g
       id="path38"
       inkscape:label="Yaxis"><path
         style="color:#000000;fill:#4c4c4c;stroke-linecap:round;stroke-linejoin:round;-inkscape-stroke:none"
         d="m 0,-104.9043 a 0.28571451,0.28571451 0 0 0 -0.28515625,0.28516 V 29.267578 A 0.28571451,0.28571451 0 0 0 0,29.552734 0.28571451,0.28571451 0 0 0 0.28515625,29.267578 V -104.61914 A 0.28571451,0.28571451 0 0 0 0,-104.9043 Z"
         id="path39" /><g
         id="g23"><g
           id="path23"><path
             style="color:#000000;fill:#4c4c4c;fill-rule:evenodd;-inkscape-stroke:none"
             d="m 0,-106.33382 c 0.28571451,0.85715 0.85714352,2 1.4285725,2.57143 0,0 -1.14285799,0 -1.4285725,-0.57143 -0.28571451,0.57143 -1.4285725,0.57143 -1.4285725,0.57143 0.57142898,-0.57143 1.14285799,-1.71428 1.4285725,-2.57143 z"
             id="path24" /><path
             style="color:#000000;fill:#4c4c4c;fill-rule:evenodd;-inkscape-stroke:none"
             d="m 0,-106.93555 -0.18164062,0.54102 c -0.2776829,0.83305 -0.85432588,1.97151 -1.38085938,2.49805 l -0.3261719,0.32421 h 0.4609375 c 0,0 0.3036753,4.5e-4 0.64843753,-0.0762 0.28303171,-0.0629 0.5653024,-0.2462 0.77929687,-0.49219 0.21399447,0.24599 0.49626516,0.4293 0.77929687,0.49219 0.34476223,0.0766 0.64843753,0.0762 0.64843753,0.0762 H 1.8886719 L 1.5625,-103.89648 c -0.5265335,-0.52654 -1.10317648,-1.665 -1.38085938,-2.49805 z m 0,0.98828 c 0.26387448,0.69075 0.64812837,1.40252 1.0898437,1.95508 -0.0945354,-0.01 -0.10686973,-7.4e-4 -0.22656245,-0.0273 -0.29809472,-0.0662 -0.59593344,-0.20554 -0.69335938,-0.40039 L 0,-104.75977 l -0.16992187,0.33985 c -0.0974259,0.19485 -0.39526466,0.33415 -0.69335938,0.40039 -0.11969272,0.0266 -0.13202708,0.0177 -0.22656245,0.0273 0.44171533,-0.55256 0.82596922,-1.26433 1.0898437,-1.95508 z"
             id="path36" /></g></g></g><g
       inkscape:label="Layer 1"
       inkscape:groupmode="layer"
       id="g39"
       transform="matrix(0.552997,0,0,0.552997,-212.28781,-410.99729)"><g
         transform="matrix(1.33333,0,0,1.33333,381.873,537.51709)"
         ns6:version="1.9.0"
         ns6:texconverter="pdflatex"
         ns6:pdfconverter="inkscape"
         ns6:text=" $y$"
         ns6:preamble="/Users/sachchidanandprasad/Library/Application Support/org.inkscape.Inkscape/config/inkscape/extensions/inkscapeMadeEasy/basicLatexPackages.tex"
         ns6:scale="1.0"
         ns6:alignment="middle center"
         ns6:stroke-to-path="0"
         ns6:inkscapeversion="1.3"
         id="g995"
         ns6:jacobian_sqrt="1.33333"><defs
   id="id-3267b9fb-7a60-4065-918b-9f32d23b63fa">&#10;    <g
   id="id-bf2ba7be-be9f-432b-88e0-3ef900ae93bc">&#10;      <g
   id="id-8cfd0681-5aeb-4e6c-93d0-24cf4bc6f0f5">&#10;        <path
   d="m 4.84375,-3.796875 c 0.046875,-0.140625 0.046875,-0.15625 0.046875,-0.234375 0,-0.171875 -0.140625,-0.265625 -0.296875,-0.265625 -0.09375,0 -0.25,0.0625 -0.34375,0.203125 -0.015625,0.0625 -0.109375,0.359375 -0.140625,0.546875 -0.078125,0.25 -0.140625,0.53125 -0.203125,0.796875 l -0.453125,1.796875 c -0.03125,0.140625 -0.46875,0.84375 -1.125,0.84375 -0.5,0 -0.609375,-0.4375 -0.609375,-0.8125 C 1.71875,-1.375 1.890625,-2 2.21875,-2.875 2.375,-3.28125 2.421875,-3.390625 2.421875,-3.59375 c 0,-0.4375 -0.3125,-0.8125 -0.8125,-0.8125 -0.953125,0 -1.3125,1.453125 -1.3125,1.53125 0,0.109375 0.09375,0.109375 0.109375,0.109375 0.109375,0 0.109375,-0.03125 0.15625,-0.1875 0.28125,-0.9375 0.671875,-1.234375 1.015625,-1.234375 0.078125,0 0.25,0 0.25,0.3125 0,0.25 -0.109375,0.515625 -0.171875,0.703125 -0.40625,1.0625 -0.578125,1.625 -0.578125,2.09375 0,0.890625 0.625,1.1875 1.21875,1.1875 0.390625,0 0.71875,-0.171875 1,-0.453125 -0.125,0.515625 -0.25,1.015625 -0.640625,1.546875 -0.265625,0.328125 -0.640625,0.625 -1.09375,0.625 -0.140625,0 -0.59375,-0.03125 -0.765625,-0.421875 0.15625,0 0.296875,0 0.421875,-0.125 C 1.328125,1.203125 1.421875,1.0625 1.421875,0.875 1.421875,0.5625 1.15625,0.53125 1.0625,0.53125 0.828125,0.53125 0.5,0.6875 0.5,1.171875 c 0,0.5 0.4375,0.875 1.0625,0.875 1.015625,0 2.046875,-0.90625 2.328125,-2.03125 z m 0,0"
   id="id-06d1c93c-d0d5-4476-8268-0e20ea1e56dd" />&#10;      </g>&#10;    </g>&#10;  </defs>&#10;  <g
   fill="#000000"
   fill-opacity="1"
   id="id-ecfb2e89-f2ee-481d-b1a2-5f91c97454f7"
   transform="translate(-149.009,-130.359)">&#10;    <g
   transform="translate(148.712,134.765)"
   id="g5280"><path
   d="m 4.84375,-3.796875 c 0.046875,-0.140625 0.046875,-0.15625 0.046875,-0.234375 0,-0.171875 -0.140625,-0.265625 -0.296875,-0.265625 -0.09375,0 -0.25,0.0625 -0.34375,0.203125 -0.015625,0.0625 -0.109375,0.359375 -0.140625,0.546875 -0.078125,0.25 -0.140625,0.53125 -0.203125,0.796875 l -0.453125,1.796875 c -0.03125,0.140625 -0.46875,0.84375 -1.125,0.84375 -0.5,0 -0.609375,-0.4375 -0.609375,-0.8125 C 1.71875,-1.375 1.890625,-2 2.21875,-2.875 2.375,-3.28125 2.421875,-3.390625 2.421875,-3.59375 c 0,-0.4375 -0.3125,-0.8125 -0.8125,-0.8125 -0.953125,0 -1.3125,1.453125 -1.3125,1.53125 0,0.109375 0.09375,0.109375 0.109375,0.109375 0.109375,0 0.109375,-0.03125 0.15625,-0.1875 0.28125,-0.9375 0.671875,-1.234375 1.015625,-1.234375 0.078125,0 0.25,0 0.25,0.3125 0,0.25 -0.109375,0.515625 -0.171875,0.703125 -0.40625,1.0625 -0.578125,1.625 -0.578125,2.09375 0,0.890625 0.625,1.1875 1.21875,1.1875 0.390625,0 0.71875,-0.171875 1,-0.453125 -0.125,0.515625 -0.25,1.015625 -0.640625,1.546875 -0.265625,0.328125 -0.640625,0.625 -1.09375,0.625 -0.140625,0 -0.59375,-0.03125 -0.765625,-0.421875 0.15625,0 0.296875,0 0.421875,-0.125 C 1.328125,1.203125 1.421875,1.0625 1.421875,0.875 1.421875,0.5625 1.15625,0.53125 1.0625,0.53125 0.828125,0.53125 0.5,0.6875 0.5,1.171875 c 0,0.5 0.4375,0.875 1.0625,0.875 1.015625,0 2.046875,-0.90625 2.328125,-2.03125 z m 0,0"
   id="id-fd6822b9-19f7-4bb2-867c-efdf9ba58f8f" />&#10;      </g></g>&#10;</g></g><path
       style="font-variation-settings:normal;opacity:1;vector-effect:none;fill:none;fill-opacity:0.831373;stroke:#63c5ef;stroke-width:0.7;stroke-linecap:round;stroke-linejoin:round;stroke-miterlimit:10;stroke-dasharray:none;stroke-dashoffset:0;stroke-opacity:1;-inkscape-stroke:none;stop-color:#000000;stop-opacity:1"
       d="M -32.174065,-25.645891 C -16.498625,-58.781035 1.230088,-82.186367 39.7926,-77.504224"
       id="path42"
       sodipodi:nodetypes="cc" /><path
       style="font-variation-settings:normal;opacity:1;vector-effect:none;fill:none;fill-opacity:0.831373;stroke:#63c5ef;stroke-width:0.7;stroke-linecap:round;stroke-linejoin:round;stroke-miterlimit:10;stroke-dasharray:none;stroke-dashoffset:0;stroke-opacity:1;-inkscape-stroke:none;stop-color:#000000;stop-opacity:1"
       d="m 39.999999,-40.000001 c 24.867121,-34.639824 34.735834,4.431894 48.364939,-3.442994 12.402812,-7.166337 -1.828394,-28.726318 30.179742,-28.504979"
       id="path43"
       sodipodi:nodetypes="csc" /><circle
       id="path44"
       style="fill:#f9f9f9;stroke:#63c5ef;stroke-width:0.7;font-variation-settings:normal;opacity:1;vector-effect:none;fill-opacity:1;stroke-linecap:round;stroke-linejoin:round;stroke-miterlimit:10;stroke-dasharray:none;stroke-dashoffset:0;stroke-opacity:1;-inkscape-stroke:none;stop-color:#000000;stop-opacity:1"
       cx="39.792599"
       cy="-77.504227"
       r="1.05" /><circle
       id="circle44"
       style="font-variation-settings:normal;opacity:1;vector-effect:none;fill:#f9f9f9;fill-opacity:1;stroke:#63c5ef;stroke-width:0.7;stroke-linecap:round;stroke-linejoin:round;stroke-miterlimit:10;stroke-dasharray:none;stroke-dashoffset:0;stroke-opacity:1;-inkscape-stroke:none;stop-color:#000000;stop-opacity:1"
       cx="40.142601"
       cy="-40"
       r="1.05" /><circle
       id="circle45"
       style="font-variation-settings:normal;opacity:1;vector-effect:none;fill:#f9f9f9;fill-opacity:1;stroke:#63c5ef;stroke-width:0.7;stroke-linecap:round;stroke-linejoin:round;stroke-miterlimit:10;stroke-dasharray:none;stroke-dashoffset:0;stroke-opacity:1;-inkscape-stroke:none;stop-color:#000000;stop-opacity:1"
       cx="80"
       cy="-43.499386"
       r="1.05" /><circle
       id="circle46"
       style="font-variation-settings:normal;opacity:1;vector-effect:none;fill:#f9f9f9;fill-opacity:1;stroke:#63c5ef;stroke-width:0.7;stroke-linecap:round;stroke-linejoin:round;stroke-miterlimit:10;stroke-dasharray:none;stroke-dashoffset:0;stroke-opacity:1;-inkscape-stroke:none;stop-color:#000000;stop-opacity:1"
       cx="100"
       cy="-67.01133"
       r="1.05" /><circle
       id="circle47"
       style="font-variation-settings:normal;opacity:1;vector-effect:none;fill:#63c5ef;fill-opacity:1;stroke:#63c5ef;stroke-width:0.7;stroke-linecap:round;stroke-linejoin:round;stroke-miterlimit:10;stroke-dasharray:none;stroke-dashoffset:0;stroke-opacity:1;-inkscape-stroke:none;stop-color:#000000;stop-opacity:1"
       cx="80"
       cy="-20"
       r="1.05" /><circle
       id="circle48"
       style="font-variation-settings:normal;opacity:1;vector-effect:none;fill:#63c5ef;fill-opacity:1;stroke:#63c5ef;stroke-width:0.7;stroke-linecap:round;stroke-linejoin:round;stroke-miterlimit:10;stroke-dasharray:none;stroke-dashoffset:0;stroke-opacity:1;-inkscape-stroke:none;stop-color:#000000;stop-opacity:1"
       cx="100"
       cy="-40"
       r="1.05" /><g
       transform="matrix(0.6995629,0,0,0.6995629,50.048974,-68.118839)"
       ns6:version="1.9.0"
       ns6:texconverter="pdflatex"
       ns6:pdfconverter="inkscape"
       ns6:text="$y= f(x)$"
       ns6:preamble="/Users/sachchidanandprasad/Library/Application Support/org.inkscape.Inkscape/config/inkscape/extensions/inkscapeMadeEasy/basicLatexPackages.tex"
       ns6:scale="1.0"
       ns6:alignment="middle center"
       ns6:stroke-to-path="0"
       ns6:inkscapeversion="1.3"
       id="g277"
       ns6:jacobian_sqrt="0.352778"
       style="stroke-width:0.504283"><defs
   id="id-a486d75c-e32b-45e6-b11e-256e4fd0571d">&#10;    <g
   id="id-dd8a6803-dd8a-4161-ab99-214c3545f858">&#10;      <g
   id="id-07174552-a462-4b05-bf42-8dca1b16ec0e">&#10;        <path
   d="m 4.84375,-3.796875 c 0.046875,-0.140625 0.046875,-0.15625 0.046875,-0.234375 0,-0.171875 -0.140625,-0.265625 -0.296875,-0.265625 -0.09375,0 -0.25,0.0625 -0.34375,0.203125 -0.015625,0.0625 -0.109375,0.359375 -0.140625,0.546875 -0.078125,0.25 -0.140625,0.53125 -0.203125,0.796875 l -0.453125,1.796875 c -0.03125,0.140625 -0.46875,0.84375 -1.125,0.84375 -0.5,0 -0.609375,-0.4375 -0.609375,-0.8125 C 1.71875,-1.375 1.890625,-2 2.21875,-2.875 2.375,-3.28125 2.421875,-3.390625 2.421875,-3.59375 c 0,-0.4375 -0.3125,-0.8125 -0.8125,-0.8125 -0.953125,0 -1.3125,1.453125 -1.3125,1.53125 0,0.109375 0.09375,0.109375 0.109375,0.109375 0.109375,0 0.109375,-0.03125 0.15625,-0.1875 0.28125,-0.9375 0.671875,-1.234375 1.015625,-1.234375 0.078125,0 0.25,0 0.25,0.3125 0,0.25 -0.109375,0.515625 -0.171875,0.703125 -0.40625,1.0625 -0.578125,1.625 -0.578125,2.09375 0,0.890625 0.625,1.1875 1.21875,1.1875 0.390625,0 0.71875,-0.171875 1,-0.453125 -0.125,0.515625 -0.25,1.015625 -0.640625,1.546875 -0.265625,0.328125 -0.640625,0.625 -1.09375,0.625 -0.140625,0 -0.59375,-0.03125 -0.765625,-0.421875 0.15625,0 0.296875,0 0.421875,-0.125 C 1.328125,1.203125 1.421875,1.0625 1.421875,0.875 1.421875,0.5625 1.15625,0.53125 1.0625,0.53125 0.828125,0.53125 0.5,0.6875 0.5,1.171875 c 0,0.5 0.4375,0.875 1.0625,0.875 1.015625,0 2.046875,-0.90625 2.328125,-2.03125 z m 0,0"
   id="id-93d9dc3f-5cd0-499b-9de6-23a6daaf2f09" />&#10;      </g>&#10;      <g
   id="id-d1109d08-56ab-402a-bbd8-b36c027532c0">&#10;        <path
   d="m 3.65625,-3.984375 h 0.859375 c 0.203125,0 0.296875,0 0.296875,-0.203125 0,-0.109375 -0.09375,-0.109375 -0.265625,-0.109375 H 3.71875 L 3.921875,-5.4375 c 0.046875,-0.203125 0.1875,-0.90625 0.25,-1.03125 0.078125,-0.1875 0.25,-0.34375 0.46875,-0.34375 0.03125,0 0.296875,0 0.484375,0.1875 -0.4375,0.03125 -0.546875,0.390625 -0.546875,0.53125 0,0.234375 0.1875,0.359375 0.375,0.359375 C 5.21875,-5.734375 5.5,-5.96875 5.5,-6.34375 c 0,-0.453125 -0.453125,-0.6875 -0.859375,-0.6875 -0.34375,0 -0.96875,0.1875 -1.265625,1.171875 -0.0625,0.203125 -0.09375,0.3125 -0.328125,1.5625 h -0.6875 c -0.203125,0 -0.3125,0 -0.3125,0.1875 0,0.125 0.09375,0.125 0.28125,0.125 h 0.65625 L 2.25,-0.046875 c -0.1875,0.96875 -0.359375,1.875 -0.875,1.875 -0.046875,0 -0.28125,0 -0.484375,-0.1875 C 1.359375,1.609375 1.453125,1.25 1.453125,1.109375 1.453125,0.875 1.265625,0.75 1.078125,0.75 0.8125,0.75 0.53125,0.984375 0.53125,1.359375 c 0,0.4375 0.4375,0.6875 0.84375,0.6875 0.546875,0 0.953125,-0.59375 1.125,-0.96875 0.328125,-0.625 0.546875,-1.828125 0.5625,-1.90625 z m 0,0"
   id="id-687edd37-fcdd-46b9-ad48-679dc9393593" />&#10;      </g>&#10;      <g
   id="id-88f8c168-a6ac-4572-9e2a-8a22bd999279">&#10;        <path
   d="M 3.328125,-3.015625 C 3.390625,-3.265625 3.625,-4.1875 4.3125,-4.1875 c 0.046875,0 0.296875,0 0.5,0.125 C 4.53125,-4 4.34375,-3.765625 4.34375,-3.515625 c 0,0.15625 0.109375,0.34375 0.375,0.34375 0.21875,0 0.53125,-0.171875 0.53125,-0.578125 0,-0.515625 -0.578125,-0.65625 -0.921875,-0.65625 -0.578125,0 -0.921875,0.53125 -1.046875,0.75 -0.25,-0.65625 -0.78125,-0.75 -1.078125,-0.75 -1.03125,0 -1.609375,1.28125 -1.609375,1.53125 0,0.109375 0.109375,0.109375 0.125,0.109375 0.078125,0 0.109375,-0.03125 0.125,-0.109375 0.34375,-1.0625 1,-1.3125 1.34375,-1.3125 0.1875,0 0.53125,0.09375 0.53125,0.671875 0,0.3125 -0.171875,0.96875 -0.53125,2.375 -0.15625,0.609375 -0.515625,1.03125 -0.953125,1.03125 -0.0625,0 -0.28125,0 -0.5,-0.125 0.25,-0.0625 0.46875,-0.265625 0.46875,-0.546875 0,-0.265625 -0.21875,-0.34375 -0.359375,-0.34375 -0.3125,0 -0.546875,0.25 -0.546875,0.578125 0,0.453125 0.484375,0.65625 0.921875,0.65625 0.671875,0 1.03125,-0.703125 1.046875,-0.75 0.125,0.359375 0.484375,0.75 1.078125,0.75 1.03125,0 1.59375,-1.28125 1.59375,-1.53125 0,-0.109375 -0.078125,-0.109375 -0.109375,-0.109375 -0.09375,0 -0.109375,0.046875 -0.140625,0.109375 -0.328125,1.078125 -1,1.3125 -1.3125,1.3125 -0.390625,0 -0.546875,-0.3125 -0.546875,-0.65625 0,-0.21875 0.046875,-0.4375 0.15625,-0.875 z m 0,0"
   id="id-32b20d11-6195-4997-95e8-89d9fb318b80" />&#10;      </g>&#10;      <g
   id="id-2c5dd788-a8d5-477c-8afb-7b6a3ccdfd70">&#10;        <path
   d="m 6.84375,-3.265625 c 0.15625,0 0.34375,0 0.34375,-0.1875 C 7.1875,-3.65625 7,-3.65625 6.859375,-3.65625 h -5.96875 c -0.140625,0 -0.328125,0 -0.328125,0.203125 0,0.1875 0.1875,0.1875 0.328125,0.1875 z m 0.015625,1.9375 c 0.140625,0 0.328125,0 0.328125,-0.203125 0,-0.1875 -0.1875,-0.1875 -0.34375,-0.1875 H 0.890625 c -0.140625,0 -0.328125,0 -0.328125,0.1875 0,0.203125 0.1875,0.203125 0.328125,0.203125 z m 0,0"
   id="id-65ce1e1f-3d3f-44df-87ed-6794e7a623da" />&#10;      </g>&#10;      <g
   id="id-9a3a69fc-cd0b-4b5a-88d5-ed4da53b628b">&#10;        <path
   d="m 3.296875,2.390625 c 0,-0.03125 0,-0.046875 -0.171875,-0.21875 C 1.890625,0.921875 1.5625,-0.96875 1.5625,-2.5 c 0,-1.734375 0.375,-3.46875 1.609375,-4.703125 0.125,-0.125 0.125,-0.140625 0.125,-0.171875 0,-0.078125 -0.03125,-0.109375 -0.09375,-0.109375 -0.109375,0 -1,0.6875 -1.59375,1.953125 -0.5,1.09375 -0.625,2.203125 -0.625,3.03125 0,0.78125 0.109375,1.984375 0.65625,3.125 C 2.25,1.84375 3.09375,2.5 3.203125,2.5 c 0.0625,0 0.09375,-0.03125 0.09375,-0.109375 z m 0,0"
   id="id-4663181b-dfad-43f7-8ac1-60606d0ce9bb" />&#10;      </g>&#10;      <g
   id="id-fe1864f1-58cf-4d15-954e-e59b30a9b0f7">&#10;        <path
   d="m 2.875,-2.5 c 0,-0.765625 -0.109375,-1.96875 -0.65625,-3.109375 -0.59375,-1.21875 -1.453125,-1.875 -1.546875,-1.875 -0.0625,0 -0.109375,0.046875 -0.109375,0.109375 0,0.03125 0,0.046875 0.1875,0.234375 0.984375,0.984375 1.546875,2.5625 1.546875,4.640625 0,1.71875 -0.359375,3.46875 -1.59375,4.71875 C 0.5625,2.34375 0.5625,2.359375 0.5625,2.390625 0.5625,2.453125 0.609375,2.5 0.671875,2.5 0.765625,2.5 1.671875,1.8125 2.25,0.546875 2.765625,-0.546875 2.875,-1.65625 2.875,-2.5 Z m 0,0"
   id="id-cf4fdb4b-c3d5-4867-beee-40f46094db0b" />&#10;      </g>&#10;    </g>&#10;  </defs>&#10;  <g
   fill="#000000"
   fill-opacity="1"
   id="id-22826d6a-dbed-49db-b950-51ed3311f46b"
   transform="translate(-149.009,-127.281)"
   style="stroke-width:0.504283">&#10;    <g
   transform="translate(148.712,134.765)"
   id="g3767"
   style="stroke-width:0.504283"><path
   d="m 4.84375,-3.796875 c 0.046875,-0.140625 0.046875,-0.15625 0.046875,-0.234375 0,-0.171875 -0.140625,-0.265625 -0.296875,-0.265625 -0.09375,0 -0.25,0.0625 -0.34375,0.203125 -0.015625,0.0625 -0.109375,0.359375 -0.140625,0.546875 -0.078125,0.25 -0.140625,0.53125 -0.203125,0.796875 l -0.453125,1.796875 c -0.03125,0.140625 -0.46875,0.84375 -1.125,0.84375 -0.5,0 -0.609375,-0.4375 -0.609375,-0.8125 C 1.71875,-1.375 1.890625,-2 2.21875,-2.875 2.375,-3.28125 2.421875,-3.390625 2.421875,-3.59375 c 0,-0.4375 -0.3125,-0.8125 -0.8125,-0.8125 -0.953125,0 -1.3125,1.453125 -1.3125,1.53125 0,0.109375 0.09375,0.109375 0.109375,0.109375 0.109375,0 0.109375,-0.03125 0.15625,-0.1875 0.28125,-0.9375 0.671875,-1.234375 1.015625,-1.234375 0.078125,0 0.25,0 0.25,0.3125 0,0.25 -0.109375,0.515625 -0.171875,0.703125 -0.40625,1.0625 -0.578125,1.625 -0.578125,2.09375 0,0.890625 0.625,1.1875 1.21875,1.1875 0.390625,0 0.71875,-0.171875 1,-0.453125 -0.125,0.515625 -0.25,1.015625 -0.640625,1.546875 -0.265625,0.328125 -0.640625,0.625 -1.09375,0.625 -0.140625,0 -0.59375,-0.03125 -0.765625,-0.421875 0.15625,0 0.296875,0 0.421875,-0.125 C 1.328125,1.203125 1.421875,1.0625 1.421875,0.875 1.421875,0.5625 1.15625,0.53125 1.0625,0.53125 0.828125,0.53125 0.5,0.6875 0.5,1.171875 c 0,0.5 0.4375,0.875 1.0625,0.875 1.015625,0 2.046875,-0.90625 2.328125,-2.03125 z m 0,0"
   id="id-e230813d-bc4c-47bc-87a1-8fc7dea74de5"
   style="stroke-width:0.504283" />&#10;      </g></g>&#10;  <g
   fill="#000000"
   fill-opacity="1"
   id="id-92f7268f-f636-494c-9b0e-57eea4df9c3e"
   transform="translate(-149.009,-127.281)"
   style="stroke-width:0.504283">&#10;    <g
   transform="translate(156.722,134.765)"
   id="g7947"
   style="stroke-width:0.504283"><path
   d="m 6.84375,-3.265625 c 0.15625,0 0.34375,0 0.34375,-0.1875 C 7.1875,-3.65625 7,-3.65625 6.859375,-3.65625 h -5.96875 c -0.140625,0 -0.328125,0 -0.328125,0.203125 0,0.1875 0.1875,0.1875 0.328125,0.1875 z m 0.015625,1.9375 c 0.140625,0 0.328125,0 0.328125,-0.203125 0,-0.1875 -0.1875,-0.1875 -0.34375,-0.1875 H 0.890625 c -0.140625,0 -0.328125,0 -0.328125,0.1875 0,0.203125 0.1875,0.203125 0.328125,0.203125 z m 0,0"
   id="id-4d5c1458-7d0b-4a30-b314-c4be31c94983"
   style="stroke-width:0.504283" />&#10;      </g></g>&#10;  <g
   fill="#000000"
   fill-opacity="1"
   id="id-a702d652-4010-4492-9250-21f0ccbc4fdd"
   transform="translate(-149.009,-127.281)"
   style="stroke-width:0.504283">&#10;    <g
   transform="translate(167.238,134.765)"
   id="g7928"
   style="stroke-width:0.504283"><path
   d="m 3.65625,-3.984375 h 0.859375 c 0.203125,0 0.296875,0 0.296875,-0.203125 0,-0.109375 -0.09375,-0.109375 -0.265625,-0.109375 H 3.71875 L 3.921875,-5.4375 c 0.046875,-0.203125 0.1875,-0.90625 0.25,-1.03125 0.078125,-0.1875 0.25,-0.34375 0.46875,-0.34375 0.03125,0 0.296875,0 0.484375,0.1875 -0.4375,0.03125 -0.546875,0.390625 -0.546875,0.53125 0,0.234375 0.1875,0.359375 0.375,0.359375 C 5.21875,-5.734375 5.5,-5.96875 5.5,-6.34375 c 0,-0.453125 -0.453125,-0.6875 -0.859375,-0.6875 -0.34375,0 -0.96875,0.1875 -1.265625,1.171875 -0.0625,0.203125 -0.09375,0.3125 -0.328125,1.5625 h -0.6875 c -0.203125,0 -0.3125,0 -0.3125,0.1875 0,0.125 0.09375,0.125 0.28125,0.125 h 0.65625 L 2.25,-0.046875 c -0.1875,0.96875 -0.359375,1.875 -0.875,1.875 -0.046875,0 -0.28125,0 -0.484375,-0.1875 C 1.359375,1.609375 1.453125,1.25 1.453125,1.109375 1.453125,0.875 1.265625,0.75 1.078125,0.75 0.8125,0.75 0.53125,0.984375 0.53125,1.359375 c 0,0.4375 0.4375,0.6875 0.84375,0.6875 0.546875,0 0.953125,-0.59375 1.125,-0.96875 0.328125,-0.625 0.546875,-1.828125 0.5625,-1.90625 z m 0,0"
   id="id-74f477a0-0343-4d82-995c-91f2f7d25d8c"
   style="stroke-width:0.504283" />&#10;      </g></g>&#10;  <g
   fill="#000000"
   fill-opacity="1"
   id="id-0b9e9903-b295-43be-945c-5fadb46b8242"
   transform="translate(-149.009,-127.281)"
   style="stroke-width:0.504283">&#10;    <g
   transform="translate(173.188,134.765)"
   id="g1898"
   style="stroke-width:0.504283"><path
   d="m 3.296875,2.390625 c 0,-0.03125 0,-0.046875 -0.171875,-0.21875 C 1.890625,0.921875 1.5625,-0.96875 1.5625,-2.5 c 0,-1.734375 0.375,-3.46875 1.609375,-4.703125 0.125,-0.125 0.125,-0.140625 0.125,-0.171875 0,-0.078125 -0.03125,-0.109375 -0.09375,-0.109375 -0.109375,0 -1,0.6875 -1.59375,1.953125 -0.5,1.09375 -0.625,2.203125 -0.625,3.03125 0,0.78125 0.109375,1.984375 0.65625,3.125 C 2.25,1.84375 3.09375,2.5 3.203125,2.5 c 0.0625,0 0.09375,-0.03125 0.09375,-0.109375 z m 0,0"
   id="id-c6ce79ee-2b27-4d12-8d7c-1c655b72355e"
   style="stroke-width:0.504283" />&#10;      </g></g>&#10;  <g
   fill="#000000"
   fill-opacity="1"
   id="id-cd22a743-72fe-43db-831c-26c0c134d7db"
   transform="translate(-149.009,-127.281)"
   style="stroke-width:0.504283">&#10;    <g
   transform="translate(177.062,134.765)"
   id="g8557"
   style="stroke-width:0.504283"><path
   d="M 3.328125,-3.015625 C 3.390625,-3.265625 3.625,-4.1875 4.3125,-4.1875 c 0.046875,0 0.296875,0 0.5,0.125 C 4.53125,-4 4.34375,-3.765625 4.34375,-3.515625 c 0,0.15625 0.109375,0.34375 0.375,0.34375 0.21875,0 0.53125,-0.171875 0.53125,-0.578125 0,-0.515625 -0.578125,-0.65625 -0.921875,-0.65625 -0.578125,0 -0.921875,0.53125 -1.046875,0.75 -0.25,-0.65625 -0.78125,-0.75 -1.078125,-0.75 -1.03125,0 -1.609375,1.28125 -1.609375,1.53125 0,0.109375 0.109375,0.109375 0.125,0.109375 0.078125,0 0.109375,-0.03125 0.125,-0.109375 0.34375,-1.0625 1,-1.3125 1.34375,-1.3125 0.1875,0 0.53125,0.09375 0.53125,0.671875 0,0.3125 -0.171875,0.96875 -0.53125,2.375 -0.15625,0.609375 -0.515625,1.03125 -0.953125,1.03125 -0.0625,0 -0.28125,0 -0.5,-0.125 0.25,-0.0625 0.46875,-0.265625 0.46875,-0.546875 0,-0.265625 -0.21875,-0.34375 -0.359375,-0.34375 -0.3125,0 -0.546875,0.25 -0.546875,0.578125 0,0.453125 0.484375,0.65625 0.921875,0.65625 0.671875,0 1.03125,-0.703125 1.046875,-0.75 0.125,0.359375 0.484375,0.75 1.078125,0.75 1.03125,0 1.59375,-1.28125 1.59375,-1.53125 0,-0.109375 -0.078125,-0.109375 -0.109375,-0.109375 -0.09375,0 -0.109375,0.046875 -0.140625,0.109375 -0.328125,1.078125 -1,1.3125 -1.3125,1.3125 -0.390625,0 -0.546875,-0.3125 -0.546875,-0.65625 0,-0.21875 0.046875,-0.4375 0.15625,-0.875 z m 0,0"
   id="id-9ee26fa8-cddb-4c10-937d-e7cf09129a71"
   style="stroke-width:0.504283" />&#10;      </g></g>&#10;  <g
   fill="#000000"
   fill-opacity="1"
   id="id-2693bba7-15d1-4218-9baf-3c85c9ddeb6a"
   transform="translate(-149.009,-127.281)"
   style="stroke-width:0.504283">&#10;    <g
   transform="translate(182.756,134.765)"
   id="g8191"
   style="stroke-width:0.504283"><path
   d="m 2.875,-2.5 c 0,-0.765625 -0.109375,-1.96875 -0.65625,-3.109375 -0.59375,-1.21875 -1.453125,-1.875 -1.546875,-1.875 -0.0625,0 -0.109375,0.046875 -0.109375,0.109375 0,0.03125 0,0.046875 0.1875,0.234375 0.984375,0.984375 1.546875,2.5625 1.546875,4.640625 0,1.71875 -0.359375,3.46875 -1.59375,4.71875 C 0.5625,2.34375 0.5625,2.359375 0.5625,2.390625 0.5625,2.453125 0.609375,2.5 0.671875,2.5 0.765625,2.5 1.671875,1.8125 2.25,0.546875 2.765625,-0.546875 2.875,-1.65625 2.875,-2.5 Z m 0,0"
   id="id-6f97fa46-ef40-4329-8f03-12599643526c"
   style="stroke-width:0.504283" />&#10;      </g></g>&#10;</g></g></svg>
