<?xml version="1.0" encoding="UTF-8" standalone="no"?>
<!-- Created with Inkscape (http://www.inkscape.org/) -->

<svg
   width="78.721603mm"
   height="78.721596mm"
   viewBox="0 0 78.721601 78.721596"
   version="1.1"
   id="svg1"
   sodipodi:docname="HW-02-evenOdd-04.svg"
   inkscape:version="1.3 (0e150ed, 2023-07-21)"
   xmlns:inkscape="http://www.inkscape.org/namespaces/inkscape"
   xmlns:sodipodi="http://sodipodi.sourceforge.net/DTD/sodipodi-0.dtd"
   xmlns="http://www.w3.org/2000/svg"
   xmlns:svg="http://www.w3.org/2000/svg">
  <sodipodi:namedview
     id="namedview1"
     pagecolor="#ffffff"
     bordercolor="#000000"
     borderopacity="0.25"
     inkscape:showpageshadow="2"
     inkscape:pageopacity="0.0"
     inkscape:pagecheckerboard="0"
     inkscape:deskcolor="#d1d1d1"
     inkscape:document-units="mm"
     inkscape:zoom="1.7065774"
     inkscape:cx="164.07108"
     inkscape:cy="102.54443"
     inkscape:window-width="1512"
     inkscape:window-height="916"
     inkscape:window-x="0"
     inkscape:window-y="38"
     inkscape:window-maximized="1"
     inkscape:current-layer="layer1" />
  <defs
     id="defs1" />
  <g
     inkscape:label="Layer 1"
     inkscape:groupmode="layer"
     id="layer1"
     transform="translate(-59.53357,-105.45005)">
    <path
       style="color:#000000;fill:#666666;stroke-linecap:round;stroke-miterlimit:10;-inkscape-stroke:none"
       d="m 99.205078,108.66016 a 0.25,0.25 0 0 0 -0.25,0.25 v 72.95703 a 0.25,0.25 0 0 0 0.25,0.25 0.25,0.25 0 0 0 0.25,-0.25 v -72.95703 a 0.25,0.25 0 0 0 -0.25,-0.25 z"
       id="path12" />
    <g
       id="g9">
      <g
         id="path9">
        <path
           style="color:#000000;fill:#666666;fill-rule:evenodd;-inkscape-stroke:none"
           d="m 99.20522,107.41044 c 0.25,0.75 0.75,1.75 1.25,2.25 0,0 -1,0 -1.25,-0.5 -0.25,0.5 -1.25,0.5 -1.25,0.5 0.5,-0.5 1,-1.5 1.25,-2.25 z"
           id="path10" />
        <path
           style="color:#000000;fill:#666666;fill-rule:evenodd;-inkscape-stroke:none"
           d="m 99.205078,106.88281 -0.158203,0.47461 c -0.242972,0.72892 -0.748269,1.72483 -1.208984,2.18555 l -0.285157,0.2832 h 0.402344 c 0,0 0.266693,6.3e-4 0.568359,-0.0664 0.247755,-0.0551 0.494404,-0.21622 0.681641,-0.43164 0.18723,0.21558 0.435749,0.37656 0.683594,0.43164 0.301668,0.067 0.566408,0.0664 0.566408,0.0664 h 0.40234 l -0.28515,-0.2832 c -0.46072,-0.46072 -0.966016,-1.45663 -1.208989,-2.18555 z m 0,0.86328 c 0.231001,0.6052 0.567915,1.22883 0.955082,1.71289 -0.0829,-0.008 -0.0941,-7e-5 -0.199223,-0.0234 -0.260832,-0.058 -0.522174,-0.17912 -0.607421,-0.34961 l -0.148438,-0.29883 -0.148437,0.29883 c -0.08525,0.17049 -0.344636,0.29164 -0.605469,0.34961 -0.105751,0.0235 -0.117998,0.015 -0.201172,0.0234 0.387163,-0.48406 0.724077,-1.10769 0.955078,-1.71289 z"
           id="path11" />
      </g>
    </g>
    <path
       style="font-variation-settings:normal;opacity:1;vector-effect:none;fill:none;fill-opacity:0.980392;stroke:#15b7db;stroke-width:0.600001;stroke-linecap:round;stroke-linejoin:miter;stroke-miterlimit:10;stroke-dasharray:none;stroke-dashoffset:0;stroke-opacity:1;-inkscape-stroke:none"
       d="m 69.215611,144.34819 13.287728,-20.22909 30.792391,38.85355 17.2617,-18.36948"
       id="path8"
       sodipodi:nodetypes="cccc" />
    <path
       style="color:#000000;fill:#666666;stroke-linecap:round;stroke-miterlimit:10;-inkscape-stroke:none"
       d="m 61.837891,144.25 a 0.25,0.25 0 0 0 -0.25,0.25 0.25,0.25 0 0 0 0.25,0.25 h 72.957029 a 0.25,0.25 0 0 0 0.25,-0.25 0.25,0.25 0 0 0 -0.25,-0.25 z"
       id="path16" />
    <g
       id="g13">
      <g
         id="path13">
        <path
           style="color:#000000;fill:#666666;fill-rule:evenodd;-inkscape-stroke:none"
           d="m 136.29479,144.50001 c -0.75,0.25 -1.75,0.75 -2.25,1.25 0,0 0,-1 0.5,-1.25 -0.5,-0.25 -0.5,-1.25 -0.5,-1.25 0.5,0.5 1.5,1 2.25,1.25 z"
           id="path14" />
        <path
           style="color:#000000;fill:#666666;fill-rule:evenodd;-inkscape-stroke:none"
           d="M 133.87891,142.84766 V 143.25 c 0,0 -6.3e-4,0.26669 0.0664,0.56836 0.0551,0.24775 0.21622,0.4944 0.43164,0.68164 -0.21542,0.18724 -0.37658,0.43389 -0.43164,0.68164 -0.067,0.30167 -0.0664,0.56836 -0.0664,0.56836 v 0.40234 l 0.2832,-0.28515 c 0.46072,-0.46072 1.45663,-0.96601 2.18555,-1.20899 l 0.47461,-0.1582 -0.47461,-0.1582 c -0.72892,-0.24298 -1.72483,-0.74827 -2.18555,-1.20899 z m 0.36718,0.69726 c 0.48407,0.38716 1.1077,0.72408 1.71289,0.95508 -0.60519,0.231 -1.22882,0.56792 -1.71289,0.95508 0.008,-0.0829 8e-5,-0.0941 0.0234,-0.19922 0.058,-0.26083 0.17912,-0.52217 0.34961,-0.60742 l 0.29883,-0.14844 -0.29883,-0.14844 c -0.17049,-0.0853 -0.29165,-0.34659 -0.34961,-0.60742 -0.0234,-0.10515 -0.015,-0.11631 -0.0234,-0.19922 z"
           id="path15" />
      </g>
    </g>
  </g>
</svg>
