<?xml version="1.0" encoding="UTF-8" standalone="no"?>
<!-- Created with Inkscape (http://www.inkscape.org/) -->

<svg
   width="203.2854mm"
   height="128.98196mm"
   viewBox="0 0 203.2854 128.98196"
   version="1.1"
   id="svg1"
   inkscape:version="1.3 (0e150ed, 2023-07-21)"
   sodipodi:docname="complexPlane.svg"
   xmlns:inkscape="http://www.inkscape.org/namespaces/inkscape"
   xmlns:sodipodi="http://sodipodi.sourceforge.net/DTD/sodipodi-0.dtd"
   xmlns="http://www.w3.org/2000/svg"
   xmlns:svg="http://www.w3.org/2000/svg"
   xmlns:ns15="http://www.iki.fi/pav/software/textext/">
  <sodipodi:namedview
     id="namedview1"
     pagecolor="#ffffff"
     bordercolor="#000000"
     borderopacity="0.25"
     inkscape:showpageshadow="2"
     inkscape:pageopacity="0.0"
     inkscape:pagecheckerboard="0"
     inkscape:deskcolor="#d1d1d1"
     inkscape:document-units="mm"
     inkscape:zoom="1.0042228"
     inkscape:cx="489.93111"
     inkscape:cy="269.86043"
     inkscape:window-width="1512"
     inkscape:window-height="916"
     inkscape:window-x="0"
     inkscape:window-y="38"
     inkscape:window-maximized="1"
     inkscape:current-layer="layer1"
     showgrid="false" />
  <defs
     id="defs1">
    <marker
       style="overflow:visible"
       id="Triangle"
       refX="0"
       refY="0"
       orient="auto-start-reverse"
       inkscape:stockid="Triangle arrow"
       markerWidth="1"
       markerHeight="1"
       viewBox="0 0 1 1"
       inkscape:isstock="true"
       inkscape:collect="always"
       preserveAspectRatio="xMidYMid">
      <path
         transform="scale(0.5)"
         style="fill:context-stroke;fill-rule:evenodd;stroke:context-stroke;stroke-width:1pt"
         d="M 5.77,0 -2.88,5 V -5 Z"
         id="path135" />
    </marker>
    <marker
       style="overflow:visible"
       id="ArrowWide"
       refX="0"
       refY="0"
       orient="auto-start-reverse"
       inkscape:stockid="Wide arrow"
       markerWidth="1"
       markerHeight="1"
       viewBox="0 0 1 1"
       inkscape:isstock="true"
       inkscape:collect="always"
       preserveAspectRatio="xMidYMid">
      <path
         style="fill:none;stroke:context-stroke;stroke-width:1;stroke-linecap:butt"
         d="M 3,-3 0,0 3,3"
         transform="rotate(180,0.125,0)"
         sodipodi:nodetypes="ccc"
         id="path3" />
    </marker>
  </defs>
  <g
     inkscape:label="Layer 1"
     inkscape:groupmode="layer"
     id="layer1"
     transform="translate(2.65379, -70.0987)">
    <path
       style="fill:#0000ff;fill-opacity:0;stroke:#666666;stroke-width:0.499999;stroke-linecap:round;stroke-miterlimit:10;stroke-dasharray:none;marker-end:url(#ArrowWide)"
       d="M 98.892511,198.83068 V 70.577265"
       id="path1" />
    <path
       style="fill:#0000ff;fill-opacity:0;stroke:#666666;stroke-width:0.499999;stroke-linecap:round;stroke-miterlimit:10;stroke-dasharray:none;marker-end:url(#ArrowWide)"
       d="M -2.4037949,134.73458 H 200.15306"
       id="path2" />
    <path
       style="fill:#0000ff;fill-opacity:0;stroke:#b3b3b3;stroke-width:0.4;stroke-linecap:round;stroke-miterlimit:10;stroke-dasharray:0.4, 1.2;stroke-dashoffset:0"
       d="M 120.85293,198.83068 V 70.577265"
       id="path4" />
    <path
       style="fill:#0000ff;fill-opacity:0;stroke:#b3b3b3;stroke-width:0.4;stroke-linecap:round;stroke-miterlimit:10;stroke-dasharray:0.4, 1.2;stroke-dashoffset:0"
       d="M 120.85293,198.83068 V 70.577265"
       id="path5" />
    <path
       style="fill:#0000ff;fill-opacity:0;stroke:#b3b3b3;stroke-width:0.4;stroke-linecap:round;stroke-miterlimit:10;stroke-dasharray:0.4, 1.2;stroke-dashoffset:0"
       d="M 141.33658,198.83068 V 70.577265"
       id="path13" />
    <path
       style="fill:#0000ff;fill-opacity:0;stroke:#b3b3b3;stroke-width:0.4;stroke-linecap:round;stroke-miterlimit:10;stroke-dasharray:0.4, 1.2;stroke-dashoffset:0"
       d="M 161.82023,198.83068 V 70.577265"
       id="path14" />
    <path
       style="fill:#0000ff;fill-opacity:0;stroke:#b3b3b3;stroke-width:0.4;stroke-linecap:round;stroke-miterlimit:10;stroke-dasharray:0.4, 1.2;stroke-dashoffset:0"
       d="M 182.30388,198.83068 V 70.577265"
       id="path15" />
    <path
       style="fill:#0000ff;fill-opacity:0;stroke:#b3b3b3;stroke-width:0.4;stroke-linecap:round;stroke-miterlimit:10;stroke-dasharray:0.4, 1.2;stroke-dashoffset:0"
       d="M 15.481142,198.83068 V 70.577265"
       id="path16" />
    <path
       style="fill:#0000ff;fill-opacity:0;stroke:#b3b3b3;stroke-width:0.4;stroke-linecap:round;stroke-miterlimit:10;stroke-dasharray:0.4, 1.2;stroke-dashoffset:0"
       d="M 15.481142,198.83068 V 70.577265"
       id="path17" />
    <path
       style="fill:#0000ff;fill-opacity:0;stroke:#b3b3b3;stroke-width:0.4;stroke-linecap:round;stroke-miterlimit:10;stroke-dasharray:0.4, 1.2;stroke-dashoffset:0"
       d="M 35.964792,198.83068 V 70.577265"
       id="path18" />
    <path
       style="fill:#0000ff;fill-opacity:0;stroke:#b3b3b3;stroke-width:0.4;stroke-linecap:round;stroke-miterlimit:10;stroke-dasharray:0.4, 1.2;stroke-dashoffset:0"
       d="M 56.448442,198.83068 V 70.577265"
       id="path19" />
    <path
       style="fill:#0000ff;fill-opacity:0;stroke:#b3b3b3;stroke-width:0.4;stroke-linecap:round;stroke-miterlimit:10;stroke-dasharray:0.4, 1.2;stroke-dashoffset:0"
       d="M 76.932092,198.83068 V 70.577265"
       id="path20" />
    <path
       style="font-variation-settings:normal;vector-effect:none;fill:#0000ff;fill-opacity:0;stroke:#b3b3b3;stroke-width:0.4;stroke-linecap:round;stroke-linejoin:miter;stroke-miterlimit:10;stroke-dasharray:0.4, 1.2;stroke-dashoffset:0;stroke-opacity:1;-inkscape-stroke:none;marker-end:;stop-color:#000000;opacity:1;stop-opacity:1"
       d="M -2.4037949,113.30332 H 200.15306"
       id="path21" />
    <path
       style="font-variation-settings:normal;vector-effect:none;fill:#0000ff;fill-opacity:0;stroke:#b3b3b3;stroke-width:0.4;stroke-linecap:round;stroke-linejoin:miter;stroke-miterlimit:10;stroke-dasharray:0.4, 1.2;stroke-dashoffset:0;stroke-opacity:1;-inkscape-stroke:none;marker-end:;stop-color:#000000;opacity:1;stop-opacity:1"
       d="M -2.4037949,92.207412 H 200.15306"
       id="path22" />
    <path
       style="font-variation-settings:normal;vector-effect:none;fill:#0000ff;fill-opacity:0;stroke:#b3b3b3;stroke-width:0.4;stroke-linecap:round;stroke-linejoin:miter;stroke-miterlimit:10;stroke-dasharray:0.4, 1.2;stroke-dashoffset:0;stroke-opacity:1;-inkscape-stroke:none;marker-end:;stop-color:#000000;opacity:1;stop-opacity:1"
       d="M -2.4037949,177.26175 H 200.15306"
       id="path23" />
    <path
       style="font-variation-settings:normal;vector-effect:none;fill:#0000ff;fill-opacity:0;stroke:#b3b3b3;stroke-width:0.4;stroke-linecap:round;stroke-linejoin:miter;stroke-miterlimit:10;stroke-dasharray:0.4, 1.2;stroke-dashoffset:0;stroke-opacity:1;-inkscape-stroke:none;marker-end:;stop-color:#000000;opacity:1;stop-opacity:1"
       d="M -2.4037949,156.16584 H 200.15306"
       id="path24" />
    <path
       style="color:#000000;fill:#0000ff;fill-opacity:0;stroke-linecap:round;stroke-miterlimit:10;-inkscape-stroke:none"
       d="M 98.902539,134.72455 138.83381,94.515625"
       id="path9" />
    <path
       style="color:#000000;fill:#0000ff;stroke-linecap:round;stroke-miterlimit:10;-inkscape-stroke:none"
       d="m 138.83203,94.265625 a 0.24999949,0.24999949 0 0 0 -0.17578,0.07422 L 98.724609,134.54883 a 0.24999949,0.24999949 0 0 0 0.002,0.35351 0.24999949,0.24999949 0 0 0 0.353516,-0.002 L 139.01172,94.691406 a 0.24999949,0.24999949 0 0 0 -0.002,-0.353515 0.24999949,0.24999949 0 0 0 -0.17774,-0.07227 z"
       id="path10" />
    <g
       id="g2">
      <g
         id="path6">
        <path
           style="color:#000000;fill:#0000ff;fill-rule:evenodd;-inkscape-stroke:none"
           d="m 139.85027,93.492098 -0.63687,2.415218 -1.77388,-1.761628 z"
           id="path7" />
        <path
           style="color:#000000;fill:#0000ff;fill-rule:evenodd;-inkscape-stroke:none"
           d="m 140.08398,93.255859 -0.27734,0.07617 -2.68945,0.728516 2.18359,2.167969 z m -0.46875,0.472657 -0.48828,1.857421 -1.36523,-1.355468 z"
           id="path8" />
      </g>
    </g>
    <g
       id="path29">
      <path
         style="color:#000000;fill:#0000ff;fill-opacity:0;stroke-linecap:round;stroke-miterlimit:10;-inkscape-stroke:none"
         d="M 98.914569,134.75795 179.33453,155.3748"
         id="path48" />
      <path
         style="color:#000000;fill:#0000ff;stroke-linecap:round;stroke-miterlimit:10;-inkscape-stroke:none"
         d="M 98.976562,134.51562 A 0.24999949,0.24999949 0 0 0 98.671875,134.69531 0.24999949,0.24999949 0 0 0 98.851562,135 l 80.419918,20.61719 a 0.24999949,0.24999949 0 0 0 0.30469,-0.17969 0.24999949,0.24999949 0 0 0 -0.17969,-0.30469 z"
         id="path49" />
      <g
         id="g45">
        <g
           id="path45">
          <path
             style="color:#000000;fill:#0000ff;fill-rule:evenodd;-inkscape-stroke:none"
             d="m 180.73184,155.73302 -2.40517,0.67382 0.62083,-2.42168 z"
             id="path46" />
          <path
             style="color:#000000;fill:#0000ff;fill-rule:evenodd;-inkscape-stroke:none"
             d="m 178.85742,153.66406 -0.76367,2.98047 2.96094,-0.82812 -0.20703,-0.20313 z m 0.17969,0.64258 1.37305,1.34375 -1.84961,0.51758 z"
             id="path47" />
        </g>
      </g>
    </g>
    <circle
       id="path25"
       style="fill:#ff0000;stroke:none;stroke-width:0.264583"
       cx="182.52356"
       cy="155.93562"
       r="1.5" />
    <circle
       id="circle30"
       style="opacity:1;fill:#ff0000;stroke:none;stroke-width:0.264583"
       cx="141.33658"
       cy="92.207413"
       r="1.5" />
    <g
       id="path30">
      <path
         style="color:#000000;fill:#0000ff;fill-opacity:0;stroke-linecap:round;stroke-miterlimit:10;-inkscape-stroke:none"
         d="M 98.89251,134.75296 V 95.352408"
         id="path27" />
      <path
         style="color:#000000;fill:#0000ff;stroke-linecap:round;stroke-miterlimit:10;-inkscape-stroke:none"
         d="m 98.892578,95.101562 a 0.24999949,0.24999949 0 0 0 -0.25,0.25 v 39.402348 a 0.24999949,0.24999949 0 0 0 0.25,0.25 0.24999949,0.24999949 0 0 0 0.25,-0.25 V 95.351562 a 0.24999949,0.24999949 0 0 0 -0.25,-0.25 z"
         id="path28" />
      <g
         id="g11">
        <g
           id="path11">
          <path
             style="color:#000000;fill:#0000ff;fill-rule:evenodd;-inkscape-stroke:none"
             d="m 98.89251,93.909911 1.25,2.162496 h -2.499997 z"
             id="path12" />
          <path
             style="color:#000000;fill:#0000ff;fill-rule:evenodd;-inkscape-stroke:none"
             d="m 98.892578,93.576172 -0.144531,0.25 -1.394531,2.412109 h 3.078124 z m 0,0.667969 0.960938,1.662109 h -1.921875 z"
             id="path26" />
        </g>
      </g>
    </g>
    <circle
       id="circle31"
       style="opacity:1;fill:#ff0000;stroke:none;stroke-width:0.264583"
       cx="98.892509"
       cy="92.207413"
       r="1.5" />
    <g
       id="path31">
      <path
         style="color:#000000;fill:#0000ff;fill-opacity:0;stroke-linecap:round;stroke-miterlimit:10;-inkscape-stroke:none"
         d="M 98.87426,134.60825 18.531133,175.68384"
         id="path43" />
      <path
         style="color:#000000;fill:#0000ff;stroke-linecap:round;stroke-miterlimit:10;-inkscape-stroke:none"
         d="m 98.759766,134.38477 -80.341797,41.07617 a 0.24999949,0.24999949 0 0 0 -0.109375,0.33593 0.24999949,0.24999949 0 0 0 0.335937,0.10938 l 80.34375,-41.07617 a 0.24999949,0.24999949 0 0 0 0.109375,-0.33594 0.24999949,0.24999949 0 0 0 -0.33789,-0.10937 z"
         id="path44" />
      <g
         id="g40">
        <g
           id="path40">
          <path
             style="color:#000000;fill:#0000ff;fill-rule:evenodd;-inkscape-stroke:none"
             d="m 17.246757,176.34048 1.356439,-2.09737 1.138024,2.22596 z"
             id="path41" />
          <path
             style="color:#000000;fill:#0000ff;fill-rule:evenodd;-inkscape-stroke:none"
             d="m 18.619141,173.91016 -1.667969,2.58203 0.287109,0.0156 2.783203,0.14258 z m -0.0332,0.66406 0.876954,1.71289 -1.919922,-0.0977 z"
             id="path42" />
        </g>
      </g>
    </g>
    <circle
       id="circle32"
       style="opacity:1;fill:#ff0000;stroke:none;stroke-width:0.264583"
       cx="15.481142"
       cy="177.26175"
       r="1.5" />
    <g
       id="path32">
      <path
         style="color:#000000;fill:#0000ff;fill-opacity:0;stroke-linecap:round;stroke-miterlimit:10;-inkscape-stroke:none"
         d="M 98.626562,134.47692 39.099366,114.46468"
         id="path38" />
      <path
         style="color:#000000;fill:#0000ff;stroke-linecap:round;stroke-miterlimit:10;-inkscape-stroke:none"
         d="m 39.179687,114.22852 a 0.24999949,0.24999949 0 0 0 -0.316406,0.15625 0.24999949,0.24999949 0 0 0 0.15625,0.3164 l 59.527344,20.01367 a 0.24999949,0.24999949 0 0 0 0.316406,-0.1582 0.24999949,0.24999949 0 0 0 -0.15625,-0.31641 z"
         id="path39" />
      <g
         id="g29">
        <g
           id="path34">
          <path
             style="color:#000000;fill:#0000ff;fill-rule:evenodd;-inkscape-stroke:none"
             d="m 37.732068,114.00501 2.448087,-0.49573 -0.79665,2.36967 z"
             id="path36" />
          <path
             style="color:#000000;fill:#0000ff;fill-rule:evenodd;-inkscape-stroke:none"
             d="m 40.429687,113.28906 -3.013671,0.60938 0.191406,0.21679 1.841797,2.08985 z m -0.5,0.43946 -0.613281,1.82421 -1.269531,-1.4414 z"
             id="path37" />
        </g>
      </g>
    </g>
    <circle
       id="circle33"
       style="opacity:1;fill:#ff0000;stroke:none;stroke-width:0.264583"
       cx="35.96479"
       cy="113.30332"
       r="1.5" />
    <g
       id="path33">
      <path
         style="color:#000000;fill:#0000ff;fill-opacity:0;stroke-linecap:round;stroke-miterlimit:10;-inkscape-stroke:none"
         d="m 98.711186,134.50795 60.061644,0.22663"
         id="path53" />
      <path
         style="color:#000000;fill:#0000ff;stroke-linecap:round;stroke-miterlimit:10;-inkscape-stroke:none"
         d="m 98.712891,134.25781 a 0.24999949,0.24999949 0 0 0 -0.251954,0.25 0.24999949,0.24999949 0 0 0 0.25,0.25 l 60.060543,0.22656 a 0.24999949,0.24999949 0 0 0 0.25196,-0.24804 0.24999949,0.24999949 0 0 0 -0.25,-0.25196 z"
         id="path54" />
      <g
         id="g50">
        <g
           id="path50">
          <path
             style="color:#000000;fill:#0000ff;fill-rule:evenodd;-inkscape-stroke:none"
             d="m 160.21532,134.74002 -2.1672,1.24183 0.009,-2.49998 z"
             id="path51" />
          <path
             style="color:#000000;fill:#0000ff;fill-rule:evenodd;-inkscape-stroke:none"
             d="m 157.89062,133.19336 -0.01,3.07617 2.66797,-1.52734 -0.25,-0.14649 z m 0.33204,0.57812 1.66015,0.96875 -1.66601,0.95313 z"
             id="path52" />
        </g>
      </g>
    </g>
    <circle
       id="circle34"
       style="fill:#ff0000;stroke:none;stroke-width:0.264583"
       cx="162.02023"
       cy="134.70398"
       r="1.5" />
    <circle
       id="circle29"
       style="fill:#f9f9f9;stroke:#000000;stroke-width:0.264583"
       cx="98.892509"
       cy="134.58969"
       r="1.5" />
    <g
       id="g35"
       transform="translate(-2.6458333,6.7724749)">
      <rect
         style="font-variation-settings:normal;opacity:1;vector-effect:none;fill:#ffffff;fill-opacity:1;stroke:none;stroke-width:0.499999;stroke-linecap:round;stroke-linejoin:miter;stroke-miterlimit:10;stroke-dasharray:none;stroke-dashoffset:0;stroke-opacity:1;-inkscape-stroke:none;marker-end:url(#Triangle)"
         id="rect34"
         width="64.35968"
         height="18.395267"
         x="32.85606"
         y="170.92339" />
      <g
         id="g34"
         transform="translate(-2.4237622,-1.7017779)">
        <g
           transform="matrix(0.705556,0,0,0.705556,37.2869,174.136)"
           ns15:version="1.9.0"
           ns15:texconverter="pdflatex"
           ns15:pdfconverter="inkscape"
           ns15:text="The complex Plane"
           ns15:preamble="/Users/sachchidanandprasad/Library/Application Support/org.inkscape.Inkscape/config/inkscape/extensions/inkscapeMadeEasy/basicLatexPackages.tex"
           ns15:scale="2.0"
           ns15:alignment="middle center"
           ns15:stroke-to-path="0"
           id="g5065"
           ns15:jacobian_sqrt="0.705556">
          <defs
             id="id-7e3e7460-cda3-43df-baf7-c6bfacf5ed5c">
            <g
               id="id-eb7cc4ff-6676-4cc6-bcb6-9b9b91179258">
              <g
                 id="id-8ec368de-b304-4bfa-9b0e-293f28d95921">
                <path
                   d="m 6.640625,-6.75 h -6.09375 l -0.1875,2.25 h 0.25 C 0.75,-6.109375 0.890625,-6.4375 2.40625,-6.4375 c 0.171875,0 0.4375,0 0.53125,0.015625 0.21875,0.046875 0.21875,0.15625 0.21875,0.375 v 5.265625 c 0,0.328125 0,0.46875 -1.046875,0.46875 H 1.703125 V 0 C 2.109375,-0.03125 3.125,-0.03125 3.59375,-0.03125 c 0.453125,0 1.484375,0 1.890625,0.03125 v -0.3125 h -0.40625 c -1.046875,0 -1.046875,-0.140625 -1.046875,-0.46875 v -5.265625 c 0,-0.1875 0,-0.328125 0.1875,-0.375 0.109375,-0.015625 0.375,-0.015625 0.5625,-0.015625 1.515625,0 1.65625,0.328125 1.796875,1.9375 h 0.25 z m 0,0"
                   id="id-82cb24cb-8439-4389-bb82-9097d7343c09" />
              </g>
              <g
                 id="id-b2c7e03a-ec25-4854-aa0b-f9c4a1e41e9e">
                <path
                   d="m 1.09375,-0.75 c 0,0.4375 -0.109375,0.4375 -0.78125,0.4375 V 0 c 0.359375,-0.015625 0.859375,-0.03125 1.140625,-0.03125 0.25,0 0.765625,0.015625 1.109375,0.03125 v -0.3125 c -0.671875,0 -0.78125,0 -0.78125,-0.4375 V -2.59375 C 1.78125,-3.625 2.5,-4.1875 3.125,-4.1875 c 0.640625,0 0.75,0.53125 0.75,1.109375 V -0.75 c 0,0.4375 -0.109375,0.4375 -0.78125,0.4375 V 0 c 0.34375,-0.015625 0.859375,-0.03125 1.125,-0.03125 0.25,0 0.78125,0.015625 1.109375,0.03125 v -0.3125 c -0.515625,0 -0.765625,0 -0.765625,-0.296875 v -1.90625 c 0,-0.859375 0,-1.15625 -0.3125,-1.515625 -0.140625,-0.171875 -0.46875,-0.375 -1.046875,-0.375 -0.84375,0 -1.28125,0.59375 -1.453125,0.984375 v -3.5 L 0.3125,-6.8125 V -6.5 c 0.703125,0 0.78125,0.0625 0.78125,0.5625 z m 0,0"
                   id="id-c39d39f2-bcba-4604-a5c9-4fea1db8de5c" />
              </g>
              <g
                 id="id-4dc363f8-8f33-4861-91e7-c4fa1bac1603">
                <path
                   d="M 1.109375,-2.515625 C 1.171875,-4 2.015625,-4.25 2.359375,-4.25 c 1.015625,0 1.125,1.34375 1.125,1.734375 z m 0,0.21875 h 2.78125 c 0.21875,0 0.25,0 0.25,-0.21875 0,-0.984375 -0.546875,-1.953125 -1.78125,-1.953125 -1.15625,0 -2.078125,1.03125 -2.078125,2.28125 0,1.328125 1.046875,2.296875 2.1875,2.296875 C 3.6875,0.109375 4.140625,-1 4.140625,-1.1875 4.140625,-1.28125 4.0625,-1.3125 4,-1.3125 c -0.078125,0 -0.109375,0.0625 -0.125,0.140625 -0.34375,1.03125 -1.25,1.03125 -1.34375,1.03125 -0.5,0 -0.890625,-0.296875 -1.125,-0.671875 -0.296875,-0.46875 -0.296875,-1.125 -0.296875,-1.484375 z m 0,0"
                   id="id-6968501b-7762-4645-9994-b92325f24f0e" />
              </g>
              <g
                 id="id-1a51b8a6-34ba-41e7-80d2-2077d03f2484">
                <path
                   d="m 1.171875,-2.171875 c 0,-1.625 0.8125,-2.046875 1.34375,-2.046875 0.09375,0 0.71875,0.015625 1.0625,0.375 -0.40625,0.03125 -0.46875,0.328125 -0.46875,0.453125 0,0.265625 0.1875,0.453125 0.453125,0.453125 0.265625,0 0.46875,-0.15625 0.46875,-0.46875 0,-0.671875 -0.765625,-1.0625 -1.53125,-1.0625 -1.25,0 -2.15625,1.078125 -2.15625,2.3125 0,1.28125 0.984375,2.265625 2.140625,2.265625 1.328125,0 1.65625,-1.203125 1.65625,-1.296875 0,-0.09375 -0.109375,-0.09375 -0.140625,-0.09375 -0.078125,0 -0.109375,0.03125 -0.125,0.09375 -0.28125,0.921875 -0.9375,1.046875 -1.296875,1.046875 -0.53125,0 -1.40625,-0.421875 -1.40625,-2.03125 z m 0,0"
                   id="id-45f45b41-661d-4f9a-b58d-5402c16cdaad" />
              </g>
              <g
                 id="id-37036174-cb39-45f0-9fc4-125ae7a7800e">
                <path
                   d="M 4.6875,-2.140625 C 4.6875,-3.40625 3.703125,-4.46875 2.5,-4.46875 c -1.25,0 -2.21875,1.09375 -2.21875,2.328125 0,1.296875 1.03125,2.25 2.203125,2.25 1.203125,0 2.203125,-0.984375 2.203125,-2.25 z m -2.1875,2 c -0.4375,0 -0.875,-0.203125 -1.140625,-0.671875 -0.25,-0.4375 -0.25,-1.046875 -0.25,-1.40625 0,-0.390625 0,-0.921875 0.234375,-1.359375 C 1.609375,-4.03125 2.078125,-4.25 2.484375,-4.25 c 0.4375,0 0.859375,0.21875 1.125,0.65625 0.265625,0.421875 0.265625,1 0.265625,1.375 0,0.359375 0,0.90625 -0.21875,1.34375 C 3.421875,-0.421875 2.984375,-0.140625 2.5,-0.140625 Z m 0,0"
                   id="id-c9162f94-c11f-487c-9a41-34dff02f22db" />
              </g>
              <g
                 id="id-d600809a-377d-43b2-8c92-0572487aae47">
                <path
                   d="M 1.09375,-3.421875 V -0.75 c 0,0.4375 -0.109375,0.4375 -0.78125,0.4375 V 0 c 0.359375,-0.015625 0.859375,-0.03125 1.140625,-0.03125 0.25,0 0.765625,0.015625 1.109375,0.03125 v -0.3125 c -0.671875,0 -0.78125,0 -0.78125,-0.4375 V -2.59375 C 1.78125,-3.625 2.5,-4.1875 3.125,-4.1875 c 0.640625,0 0.75,0.53125 0.75,1.109375 V -0.75 c 0,0.4375 -0.109375,0.4375 -0.78125,0.4375 V 0 c 0.34375,-0.015625 0.859375,-0.03125 1.125,-0.03125 0.25,0 0.78125,0.015625 1.109375,0.03125 v -0.3125 c -0.65625,0 -0.765625,0 -0.765625,-0.4375 v -1.84375 c 0,-1.03125 0.703125,-1.59375 1.34375,-1.59375 0.625,0 0.734375,0.53125 0.734375,1.109375 V -0.75 c 0,0.4375 -0.109375,0.4375 -0.78125,0.4375 V 0 c 0.34375,-0.015625 0.859375,-0.03125 1.125,-0.03125 0.265625,0 0.78125,0.015625 1.125,0.03125 v -0.3125 c -0.515625,0 -0.765625,0 -0.78125,-0.296875 v -1.90625 c 0,-0.859375 0,-1.15625 -0.3125,-1.515625 -0.140625,-0.171875 -0.46875,-0.375 -1.046875,-0.375 -0.828125,0 -1.28125,0.59375 -1.4375,0.984375 C 4.390625,-4.296875 3.65625,-4.40625 3.203125,-4.40625 2.46875,-4.40625 2,-3.984375 1.71875,-3.359375 V -4.40625 L 0.3125,-4.296875 v 0.3125 c 0.703125,0 0.78125,0.0625 0.78125,0.5625 z m 0,0"
                   id="id-389c9ca3-02e2-42ba-b49a-36c86666361c" />
              </g>
              <g
                 id="id-d11168bd-9fea-4c25-b3d3-f59d1cbf7c3b">
                <path
                   d="m 1.71875,-3.75 v -0.65625 l -1.4375,0.109375 v 0.3125 c 0.703125,0 0.78125,0.0625 0.78125,0.5 v 4.65625 C 1.0625,1.625 0.953125,1.625 0.28125,1.625 V 1.9375 C 0.625,1.921875 1.140625,1.90625 1.390625,1.90625 c 0.28125,0 0.78125,0.015625 1.125,0.03125 V 1.625 C 1.859375,1.625 1.75,1.625 1.75,1.171875 V -0.59375 c 0.046875,0.171875 0.46875,0.703125 1.21875,0.703125 1.1875,0 2.21875,-0.984375 2.21875,-2.265625 0,-1.265625 -0.953125,-2.25 -2.078125,-2.25 -0.78125,0 -1.203125,0.4375 -1.390625,0.65625 z M 1.75,-1.140625 v -2.21875 C 2.03125,-3.875 2.515625,-4.15625 3.03125,-4.15625 c 0.734375,0 1.328125,0.875 1.328125,2 0,1.203125 -0.6875,2.046875 -1.421875,2.046875 -0.40625,0 -0.78125,-0.203125 -1.046875,-0.609375 C 1.75,-0.921875 1.75,-0.9375 1.75,-1.140625 Z m 0,0"
                   id="id-ccd47796-f2dd-456c-a6a0-7584c11e4053" />
              </g>
              <g
                 id="id-8c51d878-5198-4a5a-8f3c-299099504444">
                <path
                   d="M 1.765625,-6.921875 0.328125,-6.8125 V -6.5 c 0.703125,0 0.78125,0.0625 0.78125,0.5625 V -0.75 c 0,0.4375 -0.109375,0.4375 -0.78125,0.4375 V 0 C 0.65625,-0.015625 1.1875,-0.03125 1.4375,-0.03125 c 0.25,0 0.734375,0.015625 1.109375,0.03125 v -0.3125 c -0.671875,0 -0.78125,0 -0.78125,-0.4375 z m 0,0"
                   id="id-20a14f7b-c4e8-407f-97bc-4001844c5496" />
              </g>
              <g
                 id="id-f89236b1-3890-4e97-90d1-3cfafd1a8bd4">
                <path
                   d="M 2.859375,-2.34375 C 3.15625,-2.71875 3.53125,-3.203125 3.78125,-3.46875 4.09375,-3.828125 4.5,-3.984375 4.96875,-3.984375 v -0.3125 c -0.265625,0.015625 -0.5625,0.03125 -0.828125,0.03125 -0.296875,0 -0.828125,-0.015625 -0.953125,-0.03125 v 0.3125 c 0.21875,0.015625 0.296875,0.140625 0.296875,0.3125 0,0.15625 -0.109375,0.28125 -0.15625,0.34375 L 2.71875,-2.546875 1.9375,-3.5625 C 1.84375,-3.65625 1.84375,-3.671875 1.84375,-3.734375 c 0,-0.15625 0.15625,-0.25 0.34375,-0.25 v -0.3125 c -0.25,0.015625 -0.90625,0.03125 -1.078125,0.03125 -0.203125,0 -0.671875,-0.015625 -0.9375,-0.03125 v 0.3125 c 0.703125,0 0.703125,0 1.171875,0.609375 l 0.984375,1.28125 -0.9375,1.1875 C 0.921875,-0.328125 0.328125,-0.3125 0.125,-0.3125 V 0 c 0.25,-0.015625 0.5625,-0.03125 0.828125,-0.03125 0.28125,0 0.703125,0.015625 0.9375,0.03125 v -0.3125 c -0.21875,-0.03125 -0.28125,-0.15625 -0.28125,-0.3125 0,-0.21875 0.28125,-0.546875 0.890625,-1.265625 l 0.765625,1 C 3.34375,-0.78125 3.46875,-0.625 3.46875,-0.5625 c 0,0.09375 -0.09375,0.25 -0.359375,0.25 V 0 C 3.40625,-0.015625 3.96875,-0.03125 4.1875,-0.03125 c 0.265625,0 0.65625,0.015625 0.953125,0.03125 v -0.3125 c -0.53125,0 -0.71875,-0.015625 -0.9375,-0.3125 z m 0,0"
                   id="id-9b79cfd2-6e26-4742-93f5-015b56a178fd" />
              </g>
              <g
                 id="id-7c711ba0-bdaf-49c7-9bab-b50e9b499914">
                <path
                   d="m 2.265625,-3.15625 h 1.6875 c 1.1875,0 2.265625,-0.796875 2.265625,-1.796875 C 6.21875,-5.9375 5.234375,-6.8125 3.875,-6.8125 H 0.34375 V -6.5 h 0.25 c 0.765625,0 0.78125,0.109375 0.78125,0.46875 v 5.25 c 0,0.359375 -0.015625,0.46875 -0.78125,0.46875 h -0.25 V 0 c 0.359375,-0.03125 1.09375,-0.03125 1.46875,-0.03125 0.375,0 1.125,0 1.484375,0.03125 v -0.3125 h -0.25 c -0.765625,0 -0.78125,-0.109375 -0.78125,-0.46875 z m -0.03125,-0.25 v -2.6875 C 2.234375,-6.4375 2.25,-6.5 2.71875,-6.5 h 0.890625 c 1.578125,0 1.578125,1.0625 1.578125,1.546875 0,0.46875 0,1.546875 -1.578125,1.546875 z m 0,0"
                   id="id-e0727968-eca7-42cc-9a47-66012e984caa" />
              </g>
              <g
                 id="id-628ec63e-d5e7-4b2f-b8bb-c0f15f7c1f29">
                <path
                   d="m 3.3125,-0.75 c 0.046875,0.390625 0.3125,0.8125 0.78125,0.8125 0.21875,0 0.828125,-0.140625 0.828125,-0.953125 v -0.5625 h -0.25 v 0.5625 c 0,0.578125 -0.25,0.640625 -0.359375,0.640625 -0.328125,0 -0.375,-0.453125 -0.375,-0.5 v -1.984375 c 0,-0.421875 0,-0.8125 -0.359375,-1.1875 C 3.1875,-4.3125 2.6875,-4.46875 2.21875,-4.46875 c -0.828125,0 -1.515625,0.46875 -1.515625,1.125 0,0.296875 0.203125,0.46875 0.46875,0.46875 0.28125,0 0.453125,-0.203125 0.453125,-0.453125 0,-0.125 -0.046875,-0.453125 -0.515625,-0.453125 C 1.390625,-4.140625 1.875,-4.25 2.1875,-4.25 c 0.5,0 1.0625,0.390625 1.0625,1.28125 v 0.359375 c -0.515625,0.03125 -1.203125,0.0625 -1.828125,0.359375 -0.75,0.34375 -1,0.859375 -1,1.296875 0,0.8125 0.96875,1.0625 1.59375,1.0625 0.65625,0 1.109375,-0.40625 1.296875,-0.859375 z M 3.25,-2.390625 v 1 c 0,0.9375 -0.71875,1.28125 -1.171875,1.28125 -0.484375,0 -0.890625,-0.34375 -0.890625,-0.84375 0,-0.546875 0.421875,-1.375 2.0625,-1.4375 z m 0,0"
                   id="id-8ae75408-3e6e-40b9-a511-cf9a9d815080" />
              </g>
              <g
                 id="id-bf4b41e6-713b-4f2f-a137-a39d9b2ebf47">
                <path
                   d="M 1.09375,-3.421875 V -0.75 c 0,0.4375 -0.109375,0.4375 -0.78125,0.4375 V 0 c 0.359375,-0.015625 0.859375,-0.03125 1.140625,-0.03125 0.25,0 0.765625,0.015625 1.109375,0.03125 v -0.3125 c -0.671875,0 -0.78125,0 -0.78125,-0.4375 V -2.59375 C 1.78125,-3.625 2.5,-4.1875 3.125,-4.1875 c 0.640625,0 0.75,0.53125 0.75,1.109375 V -0.75 c 0,0.4375 -0.109375,0.4375 -0.78125,0.4375 V 0 c 0.34375,-0.015625 0.859375,-0.03125 1.125,-0.03125 0.25,0 0.78125,0.015625 1.109375,0.03125 v -0.3125 c -0.515625,0 -0.765625,0 -0.765625,-0.296875 v -1.90625 c 0,-0.859375 0,-1.15625 -0.3125,-1.515625 -0.140625,-0.171875 -0.46875,-0.375 -1.046875,-0.375 C 2.46875,-4.40625 2,-3.984375 1.71875,-3.359375 V -4.40625 L 0.3125,-4.296875 v 0.3125 c 0.703125,0 0.78125,0.0625 0.78125,0.5625 z m 0,0"
                   id="id-47f7a23e-4dc6-41d5-9f39-ce038c53e574" />
              </g>
            </g>
          </defs>
          <g
             fill="#000000"
             fill-opacity="1"
             id="id-b0b06c3f-d62f-48b8-81ec-8a8bf448572e"
             transform="translate(-149.071,-127.843)">
            <g
               transform="translate(148.712,134.765)"
               id="g1600">
              <path
                 d="m 6.640625,-6.75 h -6.09375 l -0.1875,2.25 h 0.25 C 0.75,-6.109375 0.890625,-6.4375 2.40625,-6.4375 c 0.171875,0 0.4375,0 0.53125,0.015625 0.21875,0.046875 0.21875,0.15625 0.21875,0.375 v 5.265625 c 0,0.328125 0,0.46875 -1.046875,0.46875 H 1.703125 V 0 C 2.109375,-0.03125 3.125,-0.03125 3.59375,-0.03125 c 0.453125,0 1.484375,0 1.890625,0.03125 v -0.3125 h -0.40625 c -1.046875,0 -1.046875,-0.140625 -1.046875,-0.46875 v -5.265625 c 0,-0.1875 0,-0.328125 0.1875,-0.375 0.109375,-0.015625 0.375,-0.015625 0.5625,-0.015625 1.515625,0 1.65625,0.328125 1.796875,1.9375 h 0.25 z m 0,0"
                 id="id-b1f5b0a0-e5a5-4f36-b02e-01e022c4315c" />
            </g>
            <g
               transform="translate(155.907,134.765)"
               id="g6578">
              <path
                 d="m 1.09375,-0.75 c 0,0.4375 -0.109375,0.4375 -0.78125,0.4375 V 0 c 0.359375,-0.015625 0.859375,-0.03125 1.140625,-0.03125 0.25,0 0.765625,0.015625 1.109375,0.03125 v -0.3125 c -0.671875,0 -0.78125,0 -0.78125,-0.4375 V -2.59375 C 1.78125,-3.625 2.5,-4.1875 3.125,-4.1875 c 0.640625,0 0.75,0.53125 0.75,1.109375 V -0.75 c 0,0.4375 -0.109375,0.4375 -0.78125,0.4375 V 0 c 0.34375,-0.015625 0.859375,-0.03125 1.125,-0.03125 0.25,0 0.78125,0.015625 1.109375,0.03125 v -0.3125 c -0.515625,0 -0.765625,0 -0.765625,-0.296875 v -1.90625 c 0,-0.859375 0,-1.15625 -0.3125,-1.515625 -0.140625,-0.171875 -0.46875,-0.375 -1.046875,-0.375 -0.84375,0 -1.28125,0.59375 -1.453125,0.984375 v -3.5 L 0.3125,-6.8125 V -6.5 c 0.703125,0 0.78125,0.0625 0.78125,0.5625 z m 0,0"
                 id="id-7b373b05-80a6-49c6-b393-9f7ddf0b6dcd" />
            </g>
            <g
               transform="translate(161.442,134.765)"
               id="g4006">
              <path
                 d="M 1.109375,-2.515625 C 1.171875,-4 2.015625,-4.25 2.359375,-4.25 c 1.015625,0 1.125,1.34375 1.125,1.734375 z m 0,0.21875 h 2.78125 c 0.21875,0 0.25,0 0.25,-0.21875 0,-0.984375 -0.546875,-1.953125 -1.78125,-1.953125 -1.15625,0 -2.078125,1.03125 -2.078125,2.28125 0,1.328125 1.046875,2.296875 2.1875,2.296875 C 3.6875,0.109375 4.140625,-1 4.140625,-1.1875 4.140625,-1.28125 4.0625,-1.3125 4,-1.3125 c -0.078125,0 -0.109375,0.0625 -0.125,0.140625 -0.34375,1.03125 -1.25,1.03125 -1.34375,1.03125 -0.5,0 -0.890625,-0.296875 -1.125,-0.671875 -0.296875,-0.46875 -0.296875,-1.125 -0.296875,-1.484375 z m 0,0"
                 id="id-0831f31d-0360-4a4a-8e19-534eb14d83f0" />
            </g>
          </g>
          <g
             fill="#000000"
             fill-opacity="1"
             id="id-faa4e888-fa4c-4b6d-9352-51a3b36ad078"
             transform="translate(-149.071,-127.843)">
            <g
               transform="translate(169.187,134.765)"
               id="g201">
              <path
                 d="m 1.171875,-2.171875 c 0,-1.625 0.8125,-2.046875 1.34375,-2.046875 0.09375,0 0.71875,0.015625 1.0625,0.375 -0.40625,0.03125 -0.46875,0.328125 -0.46875,0.453125 0,0.265625 0.1875,0.453125 0.453125,0.453125 0.265625,0 0.46875,-0.15625 0.46875,-0.46875 0,-0.671875 -0.765625,-1.0625 -1.53125,-1.0625 -1.25,0 -2.15625,1.078125 -2.15625,2.3125 0,1.28125 0.984375,2.265625 2.140625,2.265625 1.328125,0 1.65625,-1.203125 1.65625,-1.296875 0,-0.09375 -0.109375,-0.09375 -0.140625,-0.09375 -0.078125,0 -0.109375,0.03125 -0.125,0.09375 -0.28125,0.921875 -0.9375,1.046875 -1.296875,1.046875 -0.53125,0 -1.40625,-0.421875 -1.40625,-2.03125 z m 0,0"
                 id="id-c2273f0d-dbd2-4543-a432-4f1f9728fb9a" />
            </g>
            <g
               transform="translate(173.615,134.765)"
               id="g5518">
              <path
                 d="M 4.6875,-2.140625 C 4.6875,-3.40625 3.703125,-4.46875 2.5,-4.46875 c -1.25,0 -2.21875,1.09375 -2.21875,2.328125 0,1.296875 1.03125,2.25 2.203125,2.25 1.203125,0 2.203125,-0.984375 2.203125,-2.25 z m -2.1875,2 c -0.4375,0 -0.875,-0.203125 -1.140625,-0.671875 -0.25,-0.4375 -0.25,-1.046875 -0.25,-1.40625 0,-0.390625 0,-0.921875 0.234375,-1.359375 C 1.609375,-4.03125 2.078125,-4.25 2.484375,-4.25 c 0.4375,0 0.859375,0.21875 1.125,0.65625 0.265625,0.421875 0.265625,1 0.265625,1.375 0,0.359375 0,0.90625 -0.21875,1.34375 C 3.421875,-0.421875 2.984375,-0.140625 2.5,-0.140625 Z m 0,0"
                 id="id-64b9d7e9-2aec-4310-a556-08956d7647c2" />
            </g>
            <g
               transform="translate(178.596,134.765)"
               id="g4510">
              <path
                 d="M 1.09375,-3.421875 V -0.75 c 0,0.4375 -0.109375,0.4375 -0.78125,0.4375 V 0 c 0.359375,-0.015625 0.859375,-0.03125 1.140625,-0.03125 0.25,0 0.765625,0.015625 1.109375,0.03125 v -0.3125 c -0.671875,0 -0.78125,0 -0.78125,-0.4375 V -2.59375 C 1.78125,-3.625 2.5,-4.1875 3.125,-4.1875 c 0.640625,0 0.75,0.53125 0.75,1.109375 V -0.75 c 0,0.4375 -0.109375,0.4375 -0.78125,0.4375 V 0 c 0.34375,-0.015625 0.859375,-0.03125 1.125,-0.03125 0.25,0 0.78125,0.015625 1.109375,0.03125 v -0.3125 c -0.65625,0 -0.765625,0 -0.765625,-0.4375 v -1.84375 c 0,-1.03125 0.703125,-1.59375 1.34375,-1.59375 0.625,0 0.734375,0.53125 0.734375,1.109375 V -0.75 c 0,0.4375 -0.109375,0.4375 -0.78125,0.4375 V 0 c 0.34375,-0.015625 0.859375,-0.03125 1.125,-0.03125 0.265625,0 0.78125,0.015625 1.125,0.03125 v -0.3125 c -0.515625,0 -0.765625,0 -0.78125,-0.296875 v -1.90625 c 0,-0.859375 0,-1.15625 -0.3125,-1.515625 -0.140625,-0.171875 -0.46875,-0.375 -1.046875,-0.375 -0.828125,0 -1.28125,0.59375 -1.4375,0.984375 C 4.390625,-4.296875 3.65625,-4.40625 3.203125,-4.40625 2.46875,-4.40625 2,-3.984375 1.71875,-3.359375 V -4.40625 L 0.3125,-4.296875 v 0.3125 c 0.703125,0 0.78125,0.0625 0.78125,0.5625 z m 0,0"
                 id="id-5b511095-6747-4769-bfa2-dc5260bce4c5" />
            </g>
            <g
               transform="translate(186.898,134.765)"
               id="g7959">
              <path
                 d="m 1.71875,-3.75 v -0.65625 l -1.4375,0.109375 v 0.3125 c 0.703125,0 0.78125,0.0625 0.78125,0.5 v 4.65625 C 1.0625,1.625 0.953125,1.625 0.28125,1.625 V 1.9375 C 0.625,1.921875 1.140625,1.90625 1.390625,1.90625 c 0.28125,0 0.78125,0.015625 1.125,0.03125 V 1.625 C 1.859375,1.625 1.75,1.625 1.75,1.171875 V -0.59375 c 0.046875,0.171875 0.46875,0.703125 1.21875,0.703125 1.1875,0 2.21875,-0.984375 2.21875,-2.265625 0,-1.265625 -0.953125,-2.25 -2.078125,-2.25 -0.78125,0 -1.203125,0.4375 -1.390625,0.65625 z M 1.75,-1.140625 v -2.21875 C 2.03125,-3.875 2.515625,-4.15625 3.03125,-4.15625 c 0.734375,0 1.328125,0.875 1.328125,2 0,1.203125 -0.6875,2.046875 -1.421875,2.046875 -0.40625,0 -0.78125,-0.203125 -1.046875,-0.609375 C 1.75,-0.921875 1.75,-0.9375 1.75,-1.140625 Z m 0,0"
                 id="id-b6dad5de-3cdf-42a0-a2b7-f9c1aa22965f" />
            </g>
            <g
               transform="translate(192.433,134.765)"
               id="g9248">
              <path
                 d="M 1.765625,-6.921875 0.328125,-6.8125 V -6.5 c 0.703125,0 0.78125,0.0625 0.78125,0.5625 V -0.75 c 0,0.4375 -0.109375,0.4375 -0.78125,0.4375 V 0 C 0.65625,-0.015625 1.1875,-0.03125 1.4375,-0.03125 c 0.25,0 0.734375,0.015625 1.109375,0.03125 v -0.3125 c -0.671875,0 -0.78125,0 -0.78125,-0.4375 z m 0,0"
                 id="id-0ac3e8f4-1253-4807-98f8-eee1a0e6e0a4" />
            </g>
            <g
               transform="translate(195.2,134.765)"
               id="g233">
              <path
                 d="M 1.109375,-2.515625 C 1.171875,-4 2.015625,-4.25 2.359375,-4.25 c 1.015625,0 1.125,1.34375 1.125,1.734375 z m 0,0.21875 h 2.78125 c 0.21875,0 0.25,0 0.25,-0.21875 0,-0.984375 -0.546875,-1.953125 -1.78125,-1.953125 -1.15625,0 -2.078125,1.03125 -2.078125,2.28125 0,1.328125 1.046875,2.296875 2.1875,2.296875 C 3.6875,0.109375 4.140625,-1 4.140625,-1.1875 4.140625,-1.28125 4.0625,-1.3125 4,-1.3125 c -0.078125,0 -0.109375,0.0625 -0.125,0.140625 -0.34375,1.03125 -1.25,1.03125 -1.34375,1.03125 -0.5,0 -0.890625,-0.296875 -1.125,-0.671875 -0.296875,-0.46875 -0.296875,-1.125 -0.296875,-1.484375 z m 0,0"
                 id="id-089617f4-1755-4e27-b51a-45cde5ea3ff9" />
            </g>
            <g
               transform="translate(199.628,134.765)"
               id="g344">
              <path
                 d="M 2.859375,-2.34375 C 3.15625,-2.71875 3.53125,-3.203125 3.78125,-3.46875 4.09375,-3.828125 4.5,-3.984375 4.96875,-3.984375 v -0.3125 c -0.265625,0.015625 -0.5625,0.03125 -0.828125,0.03125 -0.296875,0 -0.828125,-0.015625 -0.953125,-0.03125 v 0.3125 c 0.21875,0.015625 0.296875,0.140625 0.296875,0.3125 0,0.15625 -0.109375,0.28125 -0.15625,0.34375 L 2.71875,-2.546875 1.9375,-3.5625 C 1.84375,-3.65625 1.84375,-3.671875 1.84375,-3.734375 c 0,-0.15625 0.15625,-0.25 0.34375,-0.25 v -0.3125 c -0.25,0.015625 -0.90625,0.03125 -1.078125,0.03125 -0.203125,0 -0.671875,-0.015625 -0.9375,-0.03125 v 0.3125 c 0.703125,0 0.703125,0 1.171875,0.609375 l 0.984375,1.28125 -0.9375,1.1875 C 0.921875,-0.328125 0.328125,-0.3125 0.125,-0.3125 V 0 c 0.25,-0.015625 0.5625,-0.03125 0.828125,-0.03125 0.28125,0 0.703125,0.015625 0.9375,0.03125 v -0.3125 c -0.21875,-0.03125 -0.28125,-0.15625 -0.28125,-0.3125 0,-0.21875 0.28125,-0.546875 0.890625,-1.265625 l 0.765625,1 C 3.34375,-0.78125 3.46875,-0.625 3.46875,-0.5625 c 0,0.09375 -0.09375,0.25 -0.359375,0.25 V 0 C 3.40625,-0.015625 3.96875,-0.03125 4.1875,-0.03125 c 0.265625,0 0.65625,0.015625 0.953125,0.03125 v -0.3125 c -0.53125,0 -0.71875,-0.015625 -0.9375,-0.3125 z m 0,0"
                 id="id-ab5402fb-467d-4d88-b49b-4e1a73e0a164" />
            </g>
          </g>
          <g
             fill="#000000"
             fill-opacity="1"
             id="id-226af598-25d1-4a4d-97ef-a153b4035075"
             transform="translate(-149.071,-127.843)">
            <g
               transform="translate(208.214,134.765)"
               id="g9885">
              <path
                 d="m 2.265625,-3.15625 h 1.6875 c 1.1875,0 2.265625,-0.796875 2.265625,-1.796875 C 6.21875,-5.9375 5.234375,-6.8125 3.875,-6.8125 H 0.34375 V -6.5 h 0.25 c 0.765625,0 0.78125,0.109375 0.78125,0.46875 v 5.25 c 0,0.359375 -0.015625,0.46875 -0.78125,0.46875 h -0.25 V 0 c 0.359375,-0.03125 1.09375,-0.03125 1.46875,-0.03125 0.375,0 1.125,0 1.484375,0.03125 v -0.3125 h -0.25 c -0.765625,0 -0.78125,-0.109375 -0.78125,-0.46875 z m -0.03125,-0.25 v -2.6875 C 2.234375,-6.4375 2.25,-6.5 2.71875,-6.5 h 0.890625 c 1.578125,0 1.578125,1.0625 1.578125,1.546875 0,0.46875 0,1.546875 -1.578125,1.546875 z m 0,0"
                 id="id-df7936f6-ef59-4e04-a3fa-7d0f17c4153b" />
            </g>
            <g
               transform="translate(214.994,134.765)"
               id="g1178">
              <path
                 d="M 1.765625,-6.921875 0.328125,-6.8125 V -6.5 c 0.703125,0 0.78125,0.0625 0.78125,0.5625 V -0.75 c 0,0.4375 -0.109375,0.4375 -0.78125,0.4375 V 0 C 0.65625,-0.015625 1.1875,-0.03125 1.4375,-0.03125 c 0.25,0 0.734375,0.015625 1.109375,0.03125 v -0.3125 c -0.671875,0 -0.78125,0 -0.78125,-0.4375 z m 0,0"
                 id="id-5b70e7ed-fddd-4062-8d3f-75cf2de9f002" />
            </g>
            <g
               transform="translate(217.762,134.765)"
               id="g4110">
              <path
                 d="m 3.3125,-0.75 c 0.046875,0.390625 0.3125,0.8125 0.78125,0.8125 0.21875,0 0.828125,-0.140625 0.828125,-0.953125 v -0.5625 h -0.25 v 0.5625 c 0,0.578125 -0.25,0.640625 -0.359375,0.640625 -0.328125,0 -0.375,-0.453125 -0.375,-0.5 v -1.984375 c 0,-0.421875 0,-0.8125 -0.359375,-1.1875 C 3.1875,-4.3125 2.6875,-4.46875 2.21875,-4.46875 c -0.828125,0 -1.515625,0.46875 -1.515625,1.125 0,0.296875 0.203125,0.46875 0.46875,0.46875 0.28125,0 0.453125,-0.203125 0.453125,-0.453125 0,-0.125 -0.046875,-0.453125 -0.515625,-0.453125 C 1.390625,-4.140625 1.875,-4.25 2.1875,-4.25 c 0.5,0 1.0625,0.390625 1.0625,1.28125 v 0.359375 c -0.515625,0.03125 -1.203125,0.0625 -1.828125,0.359375 -0.75,0.34375 -1,0.859375 -1,1.296875 0,0.8125 0.96875,1.0625 1.59375,1.0625 0.65625,0 1.109375,-0.40625 1.296875,-0.859375 z M 3.25,-2.390625 v 1 c 0,0.9375 -0.71875,1.28125 -1.171875,1.28125 -0.484375,0 -0.890625,-0.34375 -0.890625,-0.84375 0,-0.546875 0.421875,-1.375 2.0625,-1.4375 z m 0,0"
                 id="id-c9334625-5650-44e1-a18f-4f05b541cacb" />
            </g>
            <g
               transform="translate(222.743,134.765)"
               id="g428">
              <path
                 d="M 1.09375,-3.421875 V -0.75 c 0,0.4375 -0.109375,0.4375 -0.78125,0.4375 V 0 c 0.359375,-0.015625 0.859375,-0.03125 1.140625,-0.03125 0.25,0 0.765625,0.015625 1.109375,0.03125 v -0.3125 c -0.671875,0 -0.78125,0 -0.78125,-0.4375 V -2.59375 C 1.78125,-3.625 2.5,-4.1875 3.125,-4.1875 c 0.640625,0 0.75,0.53125 0.75,1.109375 V -0.75 c 0,0.4375 -0.109375,0.4375 -0.78125,0.4375 V 0 c 0.34375,-0.015625 0.859375,-0.03125 1.125,-0.03125 0.25,0 0.78125,0.015625 1.109375,0.03125 v -0.3125 c -0.515625,0 -0.765625,0 -0.765625,-0.296875 v -1.90625 c 0,-0.859375 0,-1.15625 -0.3125,-1.515625 -0.140625,-0.171875 -0.46875,-0.375 -1.046875,-0.375 C 2.46875,-4.40625 2,-3.984375 1.71875,-3.359375 V -4.40625 L 0.3125,-4.296875 v 0.3125 c 0.703125,0 0.78125,0.0625 0.78125,0.5625 z m 0,0"
                 id="id-b23d968d-2678-43bd-b3b1-f167e257e32b" />
            </g>
            <g
               transform="translate(228.278,134.765)"
               id="g7711">
              <path
                 d="M 1.109375,-2.515625 C 1.171875,-4 2.015625,-4.25 2.359375,-4.25 c 1.015625,0 1.125,1.34375 1.125,1.734375 z m 0,0.21875 h 2.78125 c 0.21875,0 0.25,0 0.25,-0.21875 0,-0.984375 -0.546875,-1.953125 -1.78125,-1.953125 -1.15625,0 -2.078125,1.03125 -2.078125,2.28125 0,1.328125 1.046875,2.296875 2.1875,2.296875 C 3.6875,0.109375 4.140625,-1 4.140625,-1.1875 4.140625,-1.28125 4.0625,-1.3125 4,-1.3125 c -0.078125,0 -0.109375,0.0625 -0.125,0.140625 -0.34375,1.03125 -1.25,1.03125 -1.34375,1.03125 -0.5,0 -0.890625,-0.296875 -1.125,-0.671875 -0.296875,-0.46875 -0.296875,-1.125 -0.296875,-1.484375 z m 0,0"
                 id="id-fdc256c3-69a4-400f-bfc3-15dfb8c1e158" />
            </g>
          </g>
        </g>
        <g
           transform="matrix(0.705556,0,0,0.705556,64.41372,182.6515)"
           ns15:version="1.9.0"
           ns15:texconverter="pdflatex"
           ns15:pdfconverter="inkscape"
           ns15:text="$\\mathbb{C}$"
           ns15:preamble="/Users/sachchidanandprasad/Library/Application Support/org.inkscape.Inkscape/config/inkscape/extensions/inkscapeMadeEasy/basicLatexPackages.tex"
           ns15:scale="2.0"
           ns15:alignment="middle center"
           ns15:stroke-to-path="0"
           id="g210"
           ns15:jacobian_sqrt="0.705556">
          <defs
             id="id-a4742f8c-d874-4554-83eb-a9392105d980">
            <g
               id="id-0e3a35bf-41e0-45e4-a4cd-87345951027c">
              <g
                 id="id-13d25929-1c62-45bb-8374-5ddb46983f37">
                <path
                   d="m 6.546875,-6.6875 c 0,-0.171875 0,-0.328125 -0.171875,-0.328125 0,0 -0.15625,0 -0.171875,0.171875 C 6.171875,-6.5625 5.9375,-6.5625 5.875,-6.5625 c -0.359375,0 -0.703125,-0.140625 -0.90625,-0.234375 -0.5,-0.21875 -0.9375,-0.21875 -1.09375,-0.21875 -1.65625,0 -3.5,1.046875 -3.5,3.59375 0,2.546875 1.796875,3.609375 3.515625,3.609375 0.53125,0 1.25,-0.109375 1.96875,-0.546875 0.453125,-0.28125 0.96875,-0.78125 0.96875,-0.921875 0,-0.140625 -0.15625,-0.203125 -0.203125,-0.203125 -0.078125,0 -0.109375,0.03125 -0.21875,0.140625 -0.578125,0.65625 -1.46875,1.046875 -2.34375,1.046875 -1.546875,0 -1.9375,-1.5625 -1.9375,-3.109375 0,-1.953125 0.71875,-3.265625 1.78125,-3.265625 0.75,0 1.953125,0.734375 2.28125,1.78125 0.03125,0.09375 0.0625,0.203125 0.1875,0.203125 0.171875,0 0.171875,-0.171875 0.171875,-0.34375 z m -0.34375,1.03125 c -0.125,-0.171875 -0.25,-0.3125 -0.5,-0.5625 0.046875,0.015625 0.125,0.015625 0.171875,0.015625 0.109375,0 0.25,-0.03125 0.328125,-0.078125 z M 2.65625,-6.4375 c -0.21875,0.234375 -0.875,1.078125 -0.875,3.03125 0,1 0.140625,2.375 1.046875,3.09375 C 1.1875,-0.84375 0.71875,-2.1875 0.71875,-3.40625 c 0,-1.84375 1,-2.71875 1.9375,-3.046875 z m 0,0"
                   id="id-e2a56110-c3fd-4296-9e51-8e935396cb39" />
              </g>
            </g>
          </defs>
          <g
             fill="#000000"
             fill-opacity="1"
             id="id-b54c02ec-84d0-4ac1-8ae5-982fee1bcea8"
             transform="translate(-149.087,-127.749)">
            <g
               transform="translate(148.712,134.765)"
               id="g4032">
              <path
                 d="m 6.546875,-6.6875 c 0,-0.171875 0,-0.328125 -0.171875,-0.328125 0,0 -0.15625,0 -0.171875,0.171875 C 6.171875,-6.5625 5.9375,-6.5625 5.875,-6.5625 c -0.359375,0 -0.703125,-0.140625 -0.90625,-0.234375 -0.5,-0.21875 -0.9375,-0.21875 -1.09375,-0.21875 -1.65625,0 -3.5,1.046875 -3.5,3.59375 0,2.546875 1.796875,3.609375 3.515625,3.609375 0.53125,0 1.25,-0.109375 1.96875,-0.546875 0.453125,-0.28125 0.96875,-0.78125 0.96875,-0.921875 0,-0.140625 -0.15625,-0.203125 -0.203125,-0.203125 -0.078125,0 -0.109375,0.03125 -0.21875,0.140625 -0.578125,0.65625 -1.46875,1.046875 -2.34375,1.046875 -1.546875,0 -1.9375,-1.5625 -1.9375,-3.109375 0,-1.953125 0.71875,-3.265625 1.78125,-3.265625 0.75,0 1.953125,0.734375 2.28125,1.78125 0.03125,0.09375 0.0625,0.203125 0.1875,0.203125 0.171875,0 0.171875,-0.171875 0.171875,-0.34375 z m -0.34375,1.03125 c -0.125,-0.171875 -0.25,-0.3125 -0.5,-0.5625 0.046875,0.015625 0.125,0.015625 0.171875,0.015625 0.109375,0 0.25,-0.03125 0.328125,-0.078125 z M 2.65625,-6.4375 c -0.21875,0.234375 -0.875,1.078125 -0.875,3.03125 0,1 0.140625,2.375 1.046875,3.09375 C 1.1875,-0.84375 0.71875,-2.1875 0.71875,-3.40625 c 0,-1.84375 1,-2.71875 1.9375,-3.046875 z m 0,0"
                 id="id-9e5f6b0c-a5a4-49ec-903d-f5dfb09c450b" />
            </g>
          </g>
        </g>
      </g>
    </g>
    <g
       transform="matrix(0.705556,0,0,0.705556,144.46768,83.285985)"
       ns15:version="1.9.0"
       ns15:texconverter="pdflatex"
       ns15:pdfconverter="inkscape"
       ns15:text="$(2,2)$"
       ns15:preamble="/Users/sachchidanandprasad/Library/Application Support/org.inkscape.Inkscape/config/inkscape/extensions/inkscapeMadeEasy/basicLatexPackages.tex"
       ns15:scale="2.0"
       ns15:alignment="middle center"
       ns15:stroke-to-path="0"
       ns15:inkscapeversion="1.3"
       id="g9138"
       ns15:jacobian_sqrt="0.705556">
      <defs
         id="id-a093ff64-9c7f-4f1c-bc29-0424ea3f8aaf">
        <g
           id="id-97026e6b-04ed-4a81-a9bb-d0985623b14c">
          <g
             id="id-7c8493e3-67b8-48dd-81a6-72eed82c7ecb">
            <path
               d="m 3.296875,2.390625 c 0,-0.03125 0,-0.046875 -0.171875,-0.21875 C 1.890625,0.921875 1.5625,-0.96875 1.5625,-2.5 c 0,-1.734375 0.375,-3.46875 1.609375,-4.703125 0.125,-0.125 0.125,-0.140625 0.125,-0.171875 0,-0.078125 -0.03125,-0.109375 -0.09375,-0.109375 -0.109375,0 -1,0.6875 -1.59375,1.953125 -0.5,1.09375 -0.625,2.203125 -0.625,3.03125 0,0.78125 0.109375,1.984375 0.65625,3.125 C 2.25,1.84375 3.09375,2.5 3.203125,2.5 c 0.0625,0 0.09375,-0.03125 0.09375,-0.109375 z m 0,0"
               id="id-90770897-6b7a-4b60-b434-f60675264ab3" />
          </g>
          <g
             id="id-b3d06e32-8f52-4331-a1c7-0c0a02a2dace">
            <path
               d="m 1.265625,-0.765625 1.0625,-1.03125 c 1.546875,-1.375 2.140625,-1.90625 2.140625,-2.90625 0,-1.140625 -0.890625,-1.9375 -2.109375,-1.9375 -1.125,0 -1.859375,0.921875 -1.859375,1.8125 0,0.546875 0.5,0.546875 0.53125,0.546875 0.171875,0 0.515625,-0.109375 0.515625,-0.53125 0,-0.25 -0.1875,-0.515625 -0.53125,-0.515625 -0.078125,0 -0.09375,0 -0.125,0.015625 0.21875,-0.65625 0.765625,-1.015625 1.34375,-1.015625 0.90625,0 1.328125,0.8125 1.328125,1.625 C 3.5625,-3.90625 3.078125,-3.125 2.515625,-2.5 l -1.90625,2.125 C 0.5,-0.265625 0.5,-0.234375 0.5,0 H 4.203125 L 4.46875,-1.734375 H 4.234375 C 4.171875,-1.4375 4.109375,-1 4,-0.84375 3.9375,-0.765625 3.28125,-0.765625 3.0625,-0.765625 Z m 0,0"
               id="id-566f590d-c08b-461e-96c2-550a8671580a" />
          </g>
          <g
             id="id-e049a1a5-06fd-42b8-8b2c-b14de6f70acc">
            <path
               d="m 2.875,-2.5 c 0,-0.765625 -0.109375,-1.96875 -0.65625,-3.109375 -0.59375,-1.21875 -1.453125,-1.875 -1.546875,-1.875 -0.0625,0 -0.109375,0.046875 -0.109375,0.109375 0,0.03125 0,0.046875 0.1875,0.234375 0.984375,0.984375 1.546875,2.5625 1.546875,4.640625 0,1.71875 -0.359375,3.46875 -1.59375,4.71875 C 0.5625,2.34375 0.5625,2.359375 0.5625,2.390625 0.5625,2.453125 0.609375,2.5 0.671875,2.5 0.765625,2.5 1.671875,1.8125 2.25,0.546875 2.765625,-0.546875 2.875,-1.65625 2.875,-2.5 Z m 0,0"
               id="id-52fe1f6b-83b5-46f5-948b-6f10d8cbf375" />
          </g>
          <g
             id="id-81f626a5-6987-4cf3-98b1-cc1967ce6462">
            <path
               d="m 2.03125,-0.015625 c 0,-0.65625 -0.25,-1.046875 -0.640625,-1.046875 -0.328125,0 -0.53125,0.25 -0.53125,0.53125 C 0.859375,-0.265625 1.0625,0 1.390625,0 1.5,0 1.640625,-0.046875 1.734375,-0.125 1.765625,-0.15625 1.78125,-0.15625 1.78125,-0.15625 c 0.015625,0 0.015625,0 0.015625,0.140625 0,0.75 -0.34375,1.34375 -0.671875,1.671875 -0.109375,0.109375 -0.109375,0.125 -0.109375,0.15625 0,0.078125 0.046875,0.109375 0.09375,0.109375 0.109375,0 0.921875,-0.765625 0.921875,-1.9375 z m 0,0"
               id="id-c588e04e-6edc-4bba-b936-9aa99b3fb86e" />
          </g>
        </g>
      </defs>
      <g
         fill="#000000"
         fill-opacity="1"
         id="id-ec6e5951-91d5-4668-922a-f65c05b1ef3c"
         transform="translate(-149.696,-127.281)">
        <g
           transform="translate(148.712,134.765)"
           id="g9148">
          <path
             d="m 3.296875,2.390625 c 0,-0.03125 0,-0.046875 -0.171875,-0.21875 C 1.890625,0.921875 1.5625,-0.96875 1.5625,-2.5 c 0,-1.734375 0.375,-3.46875 1.609375,-4.703125 0.125,-0.125 0.125,-0.140625 0.125,-0.171875 0,-0.078125 -0.03125,-0.109375 -0.09375,-0.109375 -0.109375,0 -1,0.6875 -1.59375,1.953125 -0.5,1.09375 -0.625,2.203125 -0.625,3.03125 0,0.78125 0.109375,1.984375 0.65625,3.125 C 2.25,1.84375 3.09375,2.5 3.203125,2.5 c 0.0625,0 0.09375,-0.03125 0.09375,-0.109375 z m 0,0"
             id="id-16b97f92-3f08-4466-ae8f-a9033011320e" />
        </g>
        <g
           transform="translate(152.586,134.765)"
           id="g136">
          <path
             d="m 1.265625,-0.765625 1.0625,-1.03125 c 1.546875,-1.375 2.140625,-1.90625 2.140625,-2.90625 0,-1.140625 -0.890625,-1.9375 -2.109375,-1.9375 -1.125,0 -1.859375,0.921875 -1.859375,1.8125 0,0.546875 0.5,0.546875 0.53125,0.546875 0.171875,0 0.515625,-0.109375 0.515625,-0.53125 0,-0.25 -0.1875,-0.515625 -0.53125,-0.515625 -0.078125,0 -0.09375,0 -0.125,0.015625 0.21875,-0.65625 0.765625,-1.015625 1.34375,-1.015625 0.90625,0 1.328125,0.8125 1.328125,1.625 C 3.5625,-3.90625 3.078125,-3.125 2.515625,-2.5 l -1.90625,2.125 C 0.5,-0.265625 0.5,-0.234375 0.5,0 H 4.203125 L 4.46875,-1.734375 H 4.234375 C 4.171875,-1.4375 4.109375,-1 4,-0.84375 3.9375,-0.765625 3.28125,-0.765625 3.0625,-0.765625 Z m 0,0"
             id="id-825e241e-11ec-4fcb-8ba5-bdfd3691f313" />
        </g>
      </g>
      <g
         fill="#000000"
         fill-opacity="1"
         id="id-804de04b-f15f-4fc0-88be-3beecd1adb0d"
         transform="translate(-149.696,-127.281)">
        <g
           transform="translate(157.568,134.765)"
           id="g946">
          <path
             d="m 2.03125,-0.015625 c 0,-0.65625 -0.25,-1.046875 -0.640625,-1.046875 -0.328125,0 -0.53125,0.25 -0.53125,0.53125 C 0.859375,-0.265625 1.0625,0 1.390625,0 1.5,0 1.640625,-0.046875 1.734375,-0.125 1.765625,-0.15625 1.78125,-0.15625 1.78125,-0.15625 c 0.015625,0 0.015625,0 0.015625,0.140625 0,0.75 -0.34375,1.34375 -0.671875,1.671875 -0.109375,0.109375 -0.109375,0.125 -0.109375,0.15625 0,0.078125 0.046875,0.109375 0.09375,0.109375 0.109375,0 0.921875,-0.765625 0.921875,-1.9375 z m 0,0"
             id="id-5e609a8e-f807-4149-99ca-e1ffcc0f2e1b" />
        </g>
      </g>
      <g
         fill="#000000"
         fill-opacity="1"
         id="id-29bc39f6-ebcf-4f2e-bb5f-eda9498ce7b7"
         transform="translate(-149.696,-127.281)">
        <g
           transform="translate(161.996,134.765)"
           id="g8735">
          <path
             d="m 1.265625,-0.765625 1.0625,-1.03125 c 1.546875,-1.375 2.140625,-1.90625 2.140625,-2.90625 0,-1.140625 -0.890625,-1.9375 -2.109375,-1.9375 -1.125,0 -1.859375,0.921875 -1.859375,1.8125 0,0.546875 0.5,0.546875 0.53125,0.546875 0.171875,0 0.515625,-0.109375 0.515625,-0.53125 0,-0.25 -0.1875,-0.515625 -0.53125,-0.515625 -0.078125,0 -0.09375,0 -0.125,0.015625 0.21875,-0.65625 0.765625,-1.015625 1.34375,-1.015625 0.90625,0 1.328125,0.8125 1.328125,1.625 C 3.5625,-3.90625 3.078125,-3.125 2.515625,-2.5 l -1.90625,2.125 C 0.5,-0.265625 0.5,-0.234375 0.5,0 H 4.203125 L 4.46875,-1.734375 H 4.234375 C 4.171875,-1.4375 4.109375,-1 4,-0.84375 3.9375,-0.765625 3.28125,-0.765625 3.0625,-0.765625 Z m 0,0"
             id="id-ca44fe16-56b5-4b00-a801-7f8b44f75f97" />
        </g>
        <g
           transform="translate(166.977,134.765)"
           id="g3721">
          <path
             d="m 2.875,-2.5 c 0,-0.765625 -0.109375,-1.96875 -0.65625,-3.109375 -0.59375,-1.21875 -1.453125,-1.875 -1.546875,-1.875 -0.0625,0 -0.109375,0.046875 -0.109375,0.109375 0,0.03125 0,0.046875 0.1875,0.234375 0.984375,0.984375 1.546875,2.5625 1.546875,4.640625 0,1.71875 -0.359375,3.46875 -1.59375,4.71875 C 0.5625,2.34375 0.5625,2.359375 0.5625,2.390625 0.5625,2.453125 0.609375,2.5 0.671875,2.5 0.765625,2.5 1.671875,1.8125 2.25,0.546875 2.765625,-0.546875 2.875,-1.65625 2.875,-2.5 Z m 0,0"
             id="id-86b47657-c7d2-47e6-ade5-7920b54966fd" />
        </g>
      </g>
    </g>
  </g>
</svg>
