<?xml version="1.0" encoding="UTF-8" standalone="no"?>
<!-- Created with Inkscape (http://www.inkscape.org/) -->

<svg
   width="203.2854mm"
   height="128.98196mm"
   viewBox="0 0 203.2854 128.98196"
   version="1.1"
   id="svg1"
   inkscape:version="1.3 (0e150ed, 2023-07-21)"
   sodipodi:docname="complexPlaneSolution.svg"
   xmlns:inkscape="http://www.inkscape.org/namespaces/inkscape"
   xmlns:sodipodi="http://sodipodi.sourceforge.net/DTD/sodipodi-0.dtd"
   xmlns="http://www.w3.org/2000/svg"
   xmlns:svg="http://www.w3.org/2000/svg"
   xmlns:ns15="http://www.iki.fi/pav/software/textext/">
  <sodipodi:namedview
     id="namedview1"
     pagecolor="#ffffff"
     bordercolor="#000000"
     borderopacity="0.25"
     inkscape:showpageshadow="2"
     inkscape:pageopacity="0.0"
     inkscape:pagecheckerboard="0"
     inkscape:deskcolor="#d1d1d1"
     inkscape:document-units="mm"
     inkscape:zoom="1.0042228"
     inkscape:cx="490.42902"
     inkscape:cy="269.86043"
     inkscape:window-width="1512"
     inkscape:window-height="916"
     inkscape:window-x="0"
     inkscape:window-y="38"
     inkscape:window-maximized="1"
     inkscape:current-layer="layer1"
     showgrid="false" />
  <defs
     id="defs1">
    <marker
       style="overflow:visible"
       id="ArrowWide"
       refX="0"
       refY="0"
       orient="auto-start-reverse"
       inkscape:stockid="Wide arrow"
       markerWidth="1"
       markerHeight="1"
       viewBox="0 0 1 1"
       inkscape:isstock="true"
       inkscape:collect="always"
       preserveAspectRatio="xMidYMid">
      <path
         style="fill:none;stroke:context-stroke;stroke-width:1;stroke-linecap:butt"
         d="M 3,-3 0,0 3,3"
         transform="rotate(180,0.125,0)"
         sodipodi:nodetypes="ccc"
         id="path3" />
    </marker>
  </defs>
  <g
     inkscape:label="Layer 1"
     inkscape:groupmode="layer"
     id="layer1"
     transform="translate(2.65379, -70.0987)">
    <path
       style="fill:#0000ff;fill-opacity:0;stroke:#666666;stroke-width:0.499999;stroke-linecap:round;stroke-miterlimit:10;stroke-dasharray:none;marker-end:url(#ArrowWide)"
       d="M 98.892511,198.83068 V 70.577265"
       id="path1" />
    <path
       style="fill:#0000ff;fill-opacity:0;stroke:#666666;stroke-width:0.499999;stroke-linecap:round;stroke-miterlimit:10;stroke-dasharray:none;marker-end:url(#ArrowWide)"
       d="M -2.4037949,134.73458 H 200.15306"
       id="path2" />
    <path
       style="fill:#0000ff;fill-opacity:0;stroke:#b3b3b3;stroke-width:0.4;stroke-linecap:round;stroke-miterlimit:10;stroke-dasharray:0.4, 1.2;stroke-dashoffset:0"
       d="M 120.85293,198.83068 V 70.577265"
       id="path4" />
    <path
       style="fill:#0000ff;fill-opacity:0;stroke:#b3b3b3;stroke-width:0.4;stroke-linecap:round;stroke-miterlimit:10;stroke-dasharray:0.4, 1.2;stroke-dashoffset:0"
       d="M 120.85293,198.83068 V 70.577265"
       id="path5" />
    <path
       style="fill:#0000ff;fill-opacity:0;stroke:#b3b3b3;stroke-width:0.4;stroke-linecap:round;stroke-miterlimit:10;stroke-dasharray:0.4, 1.2;stroke-dashoffset:0"
       d="M 141.33658,198.83068 V 70.577265"
       id="path13" />
    <path
       style="fill:#0000ff;fill-opacity:0;stroke:#b3b3b3;stroke-width:0.4;stroke-linecap:round;stroke-miterlimit:10;stroke-dasharray:0.4, 1.2;stroke-dashoffset:0"
       d="M 161.82023,198.83068 V 70.577265"
       id="path14" />
    <path
       style="fill:#0000ff;fill-opacity:0;stroke:#b3b3b3;stroke-width:0.4;stroke-linecap:round;stroke-miterlimit:10;stroke-dasharray:0.4, 1.2;stroke-dashoffset:0"
       d="M 182.30388,198.83068 V 70.577265"
       id="path15" />
    <path
       style="fill:#0000ff;fill-opacity:0;stroke:#b3b3b3;stroke-width:0.4;stroke-linecap:round;stroke-miterlimit:10;stroke-dasharray:0.4, 1.2;stroke-dashoffset:0"
       d="M 15.481142,198.83068 V 70.577265"
       id="path16" />
    <path
       style="fill:#0000ff;fill-opacity:0;stroke:#b3b3b3;stroke-width:0.4;stroke-linecap:round;stroke-miterlimit:10;stroke-dasharray:0.4, 1.2;stroke-dashoffset:0"
       d="M 15.481142,198.83068 V 70.577265"
       id="path17" />
    <path
       style="fill:#0000ff;fill-opacity:0;stroke:#b3b3b3;stroke-width:0.4;stroke-linecap:round;stroke-miterlimit:10;stroke-dasharray:0.4, 1.2;stroke-dashoffset:0"
       d="M 35.964792,198.83068 V 70.577265"
       id="path18" />
    <path
       style="fill:#0000ff;fill-opacity:0;stroke:#b3b3b3;stroke-width:0.4;stroke-linecap:round;stroke-miterlimit:10;stroke-dasharray:0.4, 1.2;stroke-dashoffset:0"
       d="M 56.448442,198.83068 V 70.577265"
       id="path19" />
    <path
       style="fill:#0000ff;fill-opacity:0;stroke:#b3b3b3;stroke-width:0.4;stroke-linecap:round;stroke-miterlimit:10;stroke-dasharray:0.4, 1.2;stroke-dashoffset:0"
       d="M 76.932092,198.83068 V 70.577265"
       id="path20" />
    <path
       style="font-variation-settings:normal;vector-effect:none;fill:#0000ff;fill-opacity:0;stroke:#b3b3b3;stroke-width:0.4;stroke-linecap:round;stroke-linejoin:miter;stroke-miterlimit:10;stroke-dasharray:0.4, 1.2;stroke-dashoffset:0;stroke-opacity:1;-inkscape-stroke:none;marker-end:;stop-color:#000000;opacity:1;stop-opacity:1"
       d="M -2.4037949,113.30332 H 200.15306"
       id="path21" />
    <path
       style="font-variation-settings:normal;vector-effect:none;fill:#0000ff;fill-opacity:0;stroke:#b3b3b3;stroke-width:0.4;stroke-linecap:round;stroke-linejoin:miter;stroke-miterlimit:10;stroke-dasharray:0.4, 1.2;stroke-dashoffset:0;stroke-opacity:1;-inkscape-stroke:none;marker-end:;stop-color:#000000;opacity:1;stop-opacity:1"
       d="M -2.4037949,92.207412 H 200.15306"
       id="path22" />
    <path
       style="font-variation-settings:normal;vector-effect:none;fill:#0000ff;fill-opacity:0;stroke:#b3b3b3;stroke-width:0.4;stroke-linecap:round;stroke-linejoin:miter;stroke-miterlimit:10;stroke-dasharray:0.4, 1.2;stroke-dashoffset:0;stroke-opacity:1;-inkscape-stroke:none;marker-end:;stop-color:#000000;opacity:1;stop-opacity:1"
       d="M -2.4037949,177.26175 H 200.15306"
       id="path23" />
    <path
       style="font-variation-settings:normal;vector-effect:none;fill:#0000ff;fill-opacity:0;stroke:#b3b3b3;stroke-width:0.4;stroke-linecap:round;stroke-linejoin:miter;stroke-miterlimit:10;stroke-dasharray:0.4, 1.2;stroke-dashoffset:0;stroke-opacity:1;-inkscape-stroke:none;marker-end:;stop-color:#000000;opacity:1;stop-opacity:1"
       d="M -2.4037949,156.16584 H 200.15306"
       id="path24" />
    <path
       style="color:#000000;fill:#0000ff;fill-opacity:0;stroke-linecap:round;stroke-miterlimit:10;-inkscape-stroke:none"
       d="M 98.902539,134.72455 138.83381,94.515625"
       id="path9" />
    <path
       style="color:#000000;fill:#0000ff;stroke-linecap:round;stroke-miterlimit:10;-inkscape-stroke:none"
       d="m 138.83203,94.265625 a 0.24999949,0.24999949 0 0 0 -0.17578,0.07422 L 98.724609,134.54883 a 0.24999949,0.24999949 0 0 0 0.002,0.35351 0.24999949,0.24999949 0 0 0 0.353516,-0.002 L 139.01172,94.691406 a 0.24999949,0.24999949 0 0 0 -0.002,-0.353515 0.24999949,0.24999949 0 0 0 -0.17774,-0.07227 z"
       id="path10" />
    <g
       id="g2">
      <g
         id="path6">
        <path
           style="color:#000000;fill:#0000ff;fill-rule:evenodd;-inkscape-stroke:none"
           d="m 139.85027,93.492098 -0.63687,2.415218 -1.77388,-1.761628 z"
           id="path7" />
        <path
           style="color:#000000;fill:#0000ff;fill-rule:evenodd;-inkscape-stroke:none"
           d="m 140.08398,93.255859 -0.27734,0.07617 -2.68945,0.728516 2.18359,2.167969 z m -0.46875,0.472657 -0.48828,1.857421 -1.36523,-1.355468 z"
           id="path8" />
      </g>
    </g>
    <g
       id="path29">
      <path
         style="color:#000000;fill:#0000ff;fill-opacity:0;stroke-linecap:round;stroke-miterlimit:10;-inkscape-stroke:none"
         d="M 98.914569,134.75795 179.33453,155.3748"
         id="path48" />
      <path
         style="color:#000000;fill:#0000ff;stroke-linecap:round;stroke-miterlimit:10;-inkscape-stroke:none"
         d="M 98.976562,134.51562 A 0.24999949,0.24999949 0 0 0 98.671875,134.69531 0.24999949,0.24999949 0 0 0 98.851562,135 l 80.419918,20.61719 a 0.24999949,0.24999949 0 0 0 0.30469,-0.17969 0.24999949,0.24999949 0 0 0 -0.17969,-0.30469 z"
         id="path49" />
      <g
         id="g45">
        <g
           id="path45">
          <path
             style="color:#000000;fill:#0000ff;fill-rule:evenodd;-inkscape-stroke:none"
             d="m 180.73184,155.73302 -2.40517,0.67382 0.62083,-2.42168 z"
             id="path46" />
          <path
             style="color:#000000;fill:#0000ff;fill-rule:evenodd;-inkscape-stroke:none"
             d="m 178.85742,153.66406 -0.76367,2.98047 2.96094,-0.82812 -0.20703,-0.20313 z m 0.17969,0.64258 1.37305,1.34375 -1.84961,0.51758 z"
             id="path47" />
        </g>
      </g>
    </g>
    <circle
       id="path25"
       style="fill:#ff0000;stroke:none;stroke-width:0.264583"
       cx="182.52356"
       cy="155.93562"
       r="1.5" />
    <circle
       id="circle30"
       style="opacity:1;fill:#ff0000;stroke:none;stroke-width:0.264583"
       cx="141.33658"
       cy="92.207413"
       r="1.5" />
    <g
       id="path30">
      <path
         style="color:#000000;fill:#0000ff;fill-opacity:0;stroke-linecap:round;stroke-miterlimit:10;-inkscape-stroke:none"
         d="M 98.89251,134.75296 V 95.352408"
         id="path27" />
      <path
         style="color:#000000;fill:#0000ff;stroke-linecap:round;stroke-miterlimit:10;-inkscape-stroke:none"
         d="m 98.892578,95.101562 a 0.24999949,0.24999949 0 0 0 -0.25,0.25 v 39.402348 a 0.24999949,0.24999949 0 0 0 0.25,0.25 0.24999949,0.24999949 0 0 0 0.25,-0.25 V 95.351562 a 0.24999949,0.24999949 0 0 0 -0.25,-0.25 z"
         id="path28" />
      <g
         id="g11">
        <g
           id="path11">
          <path
             style="color:#000000;fill:#0000ff;fill-rule:evenodd;-inkscape-stroke:none"
             d="m 98.89251,93.909911 1.25,2.162496 h -2.499997 z"
             id="path12" />
          <path
             style="color:#000000;fill:#0000ff;fill-rule:evenodd;-inkscape-stroke:none"
             d="m 98.892578,93.576172 -0.144531,0.25 -1.394531,2.412109 h 3.078124 z m 0,0.667969 0.960938,1.662109 h -1.921875 z"
             id="path26" />
        </g>
      </g>
    </g>
    <circle
       id="circle31"
       style="opacity:1;fill:#ff0000;stroke:none;stroke-width:0.264583"
       cx="98.892509"
       cy="92.207413"
       r="1.5" />
    <g
       id="path31">
      <path
         style="color:#000000;fill:#0000ff;fill-opacity:0;stroke-linecap:round;stroke-miterlimit:10;-inkscape-stroke:none"
         d="M 98.87426,134.60825 18.531133,175.68384"
         id="path43" />
      <path
         style="color:#000000;fill:#0000ff;stroke-linecap:round;stroke-miterlimit:10;-inkscape-stroke:none"
         d="m 98.759766,134.38477 -80.341797,41.07617 a 0.24999949,0.24999949 0 0 0 -0.109375,0.33593 0.24999949,0.24999949 0 0 0 0.335937,0.10938 l 80.34375,-41.07617 a 0.24999949,0.24999949 0 0 0 0.109375,-0.33594 0.24999949,0.24999949 0 0 0 -0.33789,-0.10937 z"
         id="path44" />
      <g
         id="g40">
        <g
           id="path40">
          <path
             style="color:#000000;fill:#0000ff;fill-rule:evenodd;-inkscape-stroke:none"
             d="m 17.246757,176.34048 1.356439,-2.09737 1.138024,2.22596 z"
             id="path41" />
          <path
             style="color:#000000;fill:#0000ff;fill-rule:evenodd;-inkscape-stroke:none"
             d="m 18.619141,173.91016 -1.667969,2.58203 0.287109,0.0156 2.783203,0.14258 z m -0.0332,0.66406 0.876954,1.71289 -1.919922,-0.0977 z"
             id="path42" />
        </g>
      </g>
    </g>
    <circle
       id="circle32"
       style="opacity:1;fill:#ff0000;stroke:none;stroke-width:0.264583"
       cx="15.481142"
       cy="177.26175"
       r="1.5" />
    <g
       id="path32">
      <path
         style="color:#000000;fill:#0000ff;fill-opacity:0;stroke-linecap:round;stroke-miterlimit:10;-inkscape-stroke:none"
         d="M 98.626562,134.47692 39.099366,114.46468"
         id="path38" />
      <path
         style="color:#000000;fill:#0000ff;stroke-linecap:round;stroke-miterlimit:10;-inkscape-stroke:none"
         d="m 39.179687,114.22852 a 0.24999949,0.24999949 0 0 0 -0.316406,0.15625 0.24999949,0.24999949 0 0 0 0.15625,0.3164 l 59.527344,20.01367 a 0.24999949,0.24999949 0 0 0 0.316406,-0.1582 0.24999949,0.24999949 0 0 0 -0.15625,-0.31641 z"
         id="path39" />
      <g
         id="g29">
        <g
           id="path34">
          <path
             style="color:#000000;fill:#0000ff;fill-rule:evenodd;-inkscape-stroke:none"
             d="m 37.732068,114.00501 2.448087,-0.49573 -0.79665,2.36967 z"
             id="path36" />
          <path
             style="color:#000000;fill:#0000ff;fill-rule:evenodd;-inkscape-stroke:none"
             d="m 40.429687,113.28906 -3.013671,0.60938 0.191406,0.21679 1.841797,2.08985 z m -0.5,0.43946 -0.613281,1.82421 -1.269531,-1.4414 z"
             id="path37" />
        </g>
      </g>
    </g>
    <circle
       id="circle33"
       style="opacity:1;fill:#ff0000;stroke:none;stroke-width:0.264583"
       cx="35.96479"
       cy="113.30332"
       r="1.5" />
    <g
       id="path33">
      <path
         style="color:#000000;fill:#0000ff;fill-opacity:0;stroke-linecap:round;stroke-miterlimit:10;-inkscape-stroke:none"
         d="m 98.711186,134.50795 60.061644,0.22663"
         id="path53" />
      <path
         style="color:#000000;fill:#0000ff;stroke-linecap:round;stroke-miterlimit:10;-inkscape-stroke:none"
         d="m 98.712891,134.25781 a 0.24999949,0.24999949 0 0 0 -0.251954,0.25 0.24999949,0.24999949 0 0 0 0.25,0.25 l 60.060543,0.22656 a 0.24999949,0.24999949 0 0 0 0.25196,-0.24804 0.24999949,0.24999949 0 0 0 -0.25,-0.25196 z"
         id="path54" />
      <g
         id="g50">
        <g
           id="path50">
          <path
             style="color:#000000;fill:#0000ff;fill-rule:evenodd;-inkscape-stroke:none"
             d="m 160.21532,134.74002 -2.1672,1.24183 0.009,-2.49998 z"
             id="path51" />
          <path
             style="color:#000000;fill:#0000ff;fill-rule:evenodd;-inkscape-stroke:none"
             d="m 157.89062,133.19336 -0.01,3.07617 2.66797,-1.52734 -0.25,-0.14649 z m 0.33204,0.57812 1.66015,0.96875 -1.66601,0.95313 z"
             id="path52" />
        </g>
      </g>
    </g>
    <circle
       id="circle34"
       style="fill:#ff0000;stroke:none;stroke-width:0.264583"
       cx="162.02023"
       cy="134.70398"
       r="1.5" />
    <circle
       id="circle29"
       style="fill:#f9f9f9;stroke:#000000;stroke-width:0.264583"
       cx="98.892509"
       cy="134.58969"
       r="1.5" />
    <g
       transform="matrix(0.705556,0,0,0.705556,144.46768,83.285985)"
       ns15:version="1.9.0"
       ns15:texconverter="pdflatex"
       ns15:pdfconverter="inkscape"
       ns15:text="$(2,2)$"
       ns15:preamble="/Users/sachchidanandprasad/Library/Application Support/org.inkscape.Inkscape/config/inkscape/extensions/inkscapeMadeEasy/basicLatexPackages.tex"
       ns15:scale="2.0"
       ns15:alignment="middle center"
       ns15:stroke-to-path="0"
       ns15:inkscapeversion="1.3"
       id="g9138"
       ns15:jacobian_sqrt="0.705556">
      <defs
         id="id-a093ff64-9c7f-4f1c-bc29-0424ea3f8aaf">
        <g
           id="id-97026e6b-04ed-4a81-a9bb-d0985623b14c">
          <g
             id="id-7c8493e3-67b8-48dd-81a6-72eed82c7ecb">
            <path
               d="m 3.296875,2.390625 c 0,-0.03125 0,-0.046875 -0.171875,-0.21875 C 1.890625,0.921875 1.5625,-0.96875 1.5625,-2.5 c 0,-1.734375 0.375,-3.46875 1.609375,-4.703125 0.125,-0.125 0.125,-0.140625 0.125,-0.171875 0,-0.078125 -0.03125,-0.109375 -0.09375,-0.109375 -0.109375,0 -1,0.6875 -1.59375,1.953125 -0.5,1.09375 -0.625,2.203125 -0.625,3.03125 0,0.78125 0.109375,1.984375 0.65625,3.125 C 2.25,1.84375 3.09375,2.5 3.203125,2.5 c 0.0625,0 0.09375,-0.03125 0.09375,-0.109375 z m 0,0"
               id="id-90770897-6b7a-4b60-b434-f60675264ab3" />
          </g>
          <g
             id="id-b3d06e32-8f52-4331-a1c7-0c0a02a2dace">
            <path
               d="m 1.265625,-0.765625 1.0625,-1.03125 c 1.546875,-1.375 2.140625,-1.90625 2.140625,-2.90625 0,-1.140625 -0.890625,-1.9375 -2.109375,-1.9375 -1.125,0 -1.859375,0.921875 -1.859375,1.8125 0,0.546875 0.5,0.546875 0.53125,0.546875 0.171875,0 0.515625,-0.109375 0.515625,-0.53125 0,-0.25 -0.1875,-0.515625 -0.53125,-0.515625 -0.078125,0 -0.09375,0 -0.125,0.015625 0.21875,-0.65625 0.765625,-1.015625 1.34375,-1.015625 0.90625,0 1.328125,0.8125 1.328125,1.625 C 3.5625,-3.90625 3.078125,-3.125 2.515625,-2.5 l -1.90625,2.125 C 0.5,-0.265625 0.5,-0.234375 0.5,0 H 4.203125 L 4.46875,-1.734375 H 4.234375 C 4.171875,-1.4375 4.109375,-1 4,-0.84375 3.9375,-0.765625 3.28125,-0.765625 3.0625,-0.765625 Z m 0,0"
               id="id-566f590d-c08b-461e-96c2-550a8671580a" />
          </g>
          <g
             id="id-e049a1a5-06fd-42b8-8b2c-b14de6f70acc">
            <path
               d="m 2.875,-2.5 c 0,-0.765625 -0.109375,-1.96875 -0.65625,-3.109375 -0.59375,-1.21875 -1.453125,-1.875 -1.546875,-1.875 -0.0625,0 -0.109375,0.046875 -0.109375,0.109375 0,0.03125 0,0.046875 0.1875,0.234375 0.984375,0.984375 1.546875,2.5625 1.546875,4.640625 0,1.71875 -0.359375,3.46875 -1.59375,4.71875 C 0.5625,2.34375 0.5625,2.359375 0.5625,2.390625 0.5625,2.453125 0.609375,2.5 0.671875,2.5 0.765625,2.5 1.671875,1.8125 2.25,0.546875 2.765625,-0.546875 2.875,-1.65625 2.875,-2.5 Z m 0,0"
               id="id-52fe1f6b-83b5-46f5-948b-6f10d8cbf375" />
          </g>
          <g
             id="id-81f626a5-6987-4cf3-98b1-cc1967ce6462">
            <path
               d="m 2.03125,-0.015625 c 0,-0.65625 -0.25,-1.046875 -0.640625,-1.046875 -0.328125,0 -0.53125,0.25 -0.53125,0.53125 C 0.859375,-0.265625 1.0625,0 1.390625,0 1.5,0 1.640625,-0.046875 1.734375,-0.125 1.765625,-0.15625 1.78125,-0.15625 1.78125,-0.15625 c 0.015625,0 0.015625,0 0.015625,0.140625 0,0.75 -0.34375,1.34375 -0.671875,1.671875 -0.109375,0.109375 -0.109375,0.125 -0.109375,0.15625 0,0.078125 0.046875,0.109375 0.09375,0.109375 0.109375,0 0.921875,-0.765625 0.921875,-1.9375 z m 0,0"
               id="id-c588e04e-6edc-4bba-b936-9aa99b3fb86e" />
          </g>
        </g>
      </defs>
      <g
         fill="#000000"
         fill-opacity="1"
         id="id-ec6e5951-91d5-4668-922a-f65c05b1ef3c"
         transform="translate(-149.696,-127.281)">
        <g
           transform="translate(148.712,134.765)"
           id="g9148">
          <path
             d="m 3.296875,2.390625 c 0,-0.03125 0,-0.046875 -0.171875,-0.21875 C 1.890625,0.921875 1.5625,-0.96875 1.5625,-2.5 c 0,-1.734375 0.375,-3.46875 1.609375,-4.703125 0.125,-0.125 0.125,-0.140625 0.125,-0.171875 0,-0.078125 -0.03125,-0.109375 -0.09375,-0.109375 -0.109375,0 -1,0.6875 -1.59375,1.953125 -0.5,1.09375 -0.625,2.203125 -0.625,3.03125 0,0.78125 0.109375,1.984375 0.65625,3.125 C 2.25,1.84375 3.09375,2.5 3.203125,2.5 c 0.0625,0 0.09375,-0.03125 0.09375,-0.109375 z m 0,0"
             id="id-16b97f92-3f08-4466-ae8f-a9033011320e" />
        </g>
        <g
           transform="translate(152.586,134.765)"
           id="g136">
          <path
             d="m 1.265625,-0.765625 1.0625,-1.03125 c 1.546875,-1.375 2.140625,-1.90625 2.140625,-2.90625 0,-1.140625 -0.890625,-1.9375 -2.109375,-1.9375 -1.125,0 -1.859375,0.921875 -1.859375,1.8125 0,0.546875 0.5,0.546875 0.53125,0.546875 0.171875,0 0.515625,-0.109375 0.515625,-0.53125 0,-0.25 -0.1875,-0.515625 -0.53125,-0.515625 -0.078125,0 -0.09375,0 -0.125,0.015625 0.21875,-0.65625 0.765625,-1.015625 1.34375,-1.015625 0.90625,0 1.328125,0.8125 1.328125,1.625 C 3.5625,-3.90625 3.078125,-3.125 2.515625,-2.5 l -1.90625,2.125 C 0.5,-0.265625 0.5,-0.234375 0.5,0 H 4.203125 L 4.46875,-1.734375 H 4.234375 C 4.171875,-1.4375 4.109375,-1 4,-0.84375 3.9375,-0.765625 3.28125,-0.765625 3.0625,-0.765625 Z m 0,0"
             id="id-825e241e-11ec-4fcb-8ba5-bdfd3691f313" />
        </g>
      </g>
      <g
         fill="#000000"
         fill-opacity="1"
         id="id-804de04b-f15f-4fc0-88be-3beecd1adb0d"
         transform="translate(-149.696,-127.281)">
        <g
           transform="translate(157.568,134.765)"
           id="g946">
          <path
             d="m 2.03125,-0.015625 c 0,-0.65625 -0.25,-1.046875 -0.640625,-1.046875 -0.328125,0 -0.53125,0.25 -0.53125,0.53125 C 0.859375,-0.265625 1.0625,0 1.390625,0 1.5,0 1.640625,-0.046875 1.734375,-0.125 1.765625,-0.15625 1.78125,-0.15625 1.78125,-0.15625 c 0.015625,0 0.015625,0 0.015625,0.140625 0,0.75 -0.34375,1.34375 -0.671875,1.671875 -0.109375,0.109375 -0.109375,0.125 -0.109375,0.15625 0,0.078125 0.046875,0.109375 0.09375,0.109375 0.109375,0 0.921875,-0.765625 0.921875,-1.9375 z m 0,0"
             id="id-5e609a8e-f807-4149-99ca-e1ffcc0f2e1b" />
        </g>
      </g>
      <g
         fill="#000000"
         fill-opacity="1"
         id="id-29bc39f6-ebcf-4f2e-bb5f-eda9498ce7b7"
         transform="translate(-149.696,-127.281)">
        <g
           transform="translate(161.996,134.765)"
           id="g8735">
          <path
             d="m 1.265625,-0.765625 1.0625,-1.03125 c 1.546875,-1.375 2.140625,-1.90625 2.140625,-2.90625 0,-1.140625 -0.890625,-1.9375 -2.109375,-1.9375 -1.125,0 -1.859375,0.921875 -1.859375,1.8125 0,0.546875 0.5,0.546875 0.53125,0.546875 0.171875,0 0.515625,-0.109375 0.515625,-0.53125 0,-0.25 -0.1875,-0.515625 -0.53125,-0.515625 -0.078125,0 -0.09375,0 -0.125,0.015625 0.21875,-0.65625 0.765625,-1.015625 1.34375,-1.015625 0.90625,0 1.328125,0.8125 1.328125,1.625 C 3.5625,-3.90625 3.078125,-3.125 2.515625,-2.5 l -1.90625,2.125 C 0.5,-0.265625 0.5,-0.234375 0.5,0 H 4.203125 L 4.46875,-1.734375 H 4.234375 C 4.171875,-1.4375 4.109375,-1 4,-0.84375 3.9375,-0.765625 3.28125,-0.765625 3.0625,-0.765625 Z m 0,0"
             id="id-ca44fe16-56b5-4b00-a801-7f8b44f75f97" />
        </g>
        <g
           transform="translate(166.977,134.765)"
           id="g3721">
          <path
             d="m 2.875,-2.5 c 0,-0.765625 -0.109375,-1.96875 -0.65625,-3.109375 -0.59375,-1.21875 -1.453125,-1.875 -1.546875,-1.875 -0.0625,0 -0.109375,0.046875 -0.109375,0.109375 0,0.03125 0,0.046875 0.1875,0.234375 0.984375,0.984375 1.546875,2.5625 1.546875,4.640625 0,1.71875 -0.359375,3.46875 -1.59375,4.71875 C 0.5625,2.34375 0.5625,2.359375 0.5625,2.390625 0.5625,2.453125 0.609375,2.5 0.671875,2.5 0.765625,2.5 1.671875,1.8125 2.25,0.546875 2.765625,-0.546875 2.875,-1.65625 2.875,-2.5 Z m 0,0"
             id="id-86b47657-c7d2-47e6-ade5-7920b54966fd" />
        </g>
      </g>
    </g>
    <g
       transform="matrix(0.705556 0 0 0.705556 162.674 124.751)"
       ns15:version="1.9.0"
       ns15:texconverter="pdflatex"
       ns15:pdfconverter="inkscape"
       ns15:text="$(3,0)$"
       ns15:preamble="/Users/sachchidanandprasad/Library/Application Support/org.inkscape.Inkscape/config/inkscape/extensions/inkscapeMadeEasy/basicLatexPackages.tex"
       ns15:scale="2.0"
       ns15:alignment="middle center"
       ns15:stroke-to-path="0"
       ns15:inkscapeversion="1.3"
       id="g67"
       ns15:jacobian_sqrt="0.705556">
      <defs
         id="id-ac87550f-37ac-4690-a361-3058fe9de909">
        <g
           id="id-76792ab6-33e4-42b1-bc09-5e450e446f3e">
          <g
             id="id-6b2a6436-79c2-4738-b3c7-dca1be16e41b">
            <path
               d="m 3.296875,2.390625 c 0,-0.03125 0,-0.046875 -0.171875,-0.21875 C 1.890625,0.921875 1.5625,-0.96875 1.5625,-2.5 c 0,-1.734375 0.375,-3.46875 1.609375,-4.703125 0.125,-0.125 0.125,-0.140625 0.125,-0.171875 0,-0.078125 -0.03125,-0.109375 -0.09375,-0.109375 -0.109375,0 -1,0.6875 -1.59375,1.953125 -0.5,1.09375 -0.625,2.203125 -0.625,3.03125 0,0.78125 0.109375,1.984375 0.65625,3.125 C 2.25,1.84375 3.09375,2.5 3.203125,2.5 c 0.0625,0 0.09375,-0.03125 0.09375,-0.109375 z m 0,0"
               id="id-0bd3d79c-a2b7-4a99-84c4-46b460a27193" />
          </g>
          <g
             id="id-694c2ac8-25bf-44c3-91ba-5bc2d5757ae9">
            <path
               d="m 2.890625,-3.515625 c 0.8125,-0.265625 1.390625,-0.953125 1.390625,-1.75 0,-0.8125 -0.875,-1.375 -1.828125,-1.375 -1,0 -1.765625,0.59375 -1.765625,1.359375 0,0.328125 0.21875,0.515625 0.515625,0.515625 0.296875,0 0.5,-0.21875 0.5,-0.515625 0,-0.484375 -0.46875,-0.484375 -0.609375,-0.484375 0.296875,-0.5 0.953125,-0.625 1.3125,-0.625 0.421875,0 0.96875,0.21875 0.96875,1.109375 0,0.125 -0.03125,0.703125 -0.28125,1.140625 C 2.796875,-3.65625 2.453125,-3.625 2.203125,-3.625 2.125,-3.609375 1.890625,-3.59375 1.8125,-3.59375 c -0.078125,0.015625 -0.140625,0.03125 -0.140625,0.125 0,0.109375 0.0625,0.109375 0.234375,0.109375 h 0.4375 c 0.8125,0 1.1875,0.671875 1.1875,1.65625 0,1.359375 -0.6875,1.640625 -1.125,1.640625 -0.4375,0 -1.1875,-0.171875 -1.53125,-0.75 0.34375,0.046875 0.65625,-0.171875 0.65625,-0.546875 0,-0.359375 -0.265625,-0.5625 -0.546875,-0.5625 -0.25,0 -0.5625,0.140625 -0.5625,0.578125 0,0.90625 0.921875,1.5625 2.015625,1.5625 1.21875,0 2.125,-0.90625 2.125,-1.921875 0,-0.8125 -0.640625,-1.59375 -1.671875,-1.8125 z m 0,0"
               id="id-1fdb3bea-2b03-4993-b1ef-9af846311766" />
          </g>
          <g
             id="id-5e12aecc-7846-4000-bc69-5f8b4f6f8e04">
            <path
               d="m 4.578125,-3.1875 c 0,-0.796875 -0.046875,-1.59375 -0.390625,-2.328125 -0.453125,-0.96875 -1.28125,-1.125 -1.6875,-1.125 -0.609375,0 -1.328125,0.265625 -1.75,1.1875 -0.3125,0.6875 -0.359375,1.46875 -0.359375,2.265625 0,0.75 0.03125,1.640625 0.453125,2.40625 0.421875,0.796875 1.15625,1 1.640625,1 0.53125,0 1.296875,-0.203125 1.734375,-1.15625 0.3125,-0.6875 0.359375,-1.46875 0.359375,-2.25 z M 2.484375,0 C 2.09375,0 1.5,-0.25 1.328125,-1.203125 1.21875,-1.796875 1.21875,-2.71875 1.21875,-3.3125 c 0,-0.640625 0,-1.296875 0.078125,-1.828125 0.1875,-1.1875 0.9375,-1.28125 1.1875,-1.28125 0.328125,0 0.984375,0.1875 1.171875,1.171875 0.109375,0.5625 0.109375,1.3125 0.109375,1.9375 0,0.75 0,1.421875 -0.109375,2.0625 C 3.5,-0.296875 2.9375,0 2.484375,0 Z m 0,0"
               id="id-e2023a25-5c05-4be1-b2c2-1a723f32d9d5" />
          </g>
          <g
             id="id-dc0f2dac-3125-449c-a887-2bfb5ae3a170">
            <path
               d="m 2.875,-2.5 c 0,-0.765625 -0.109375,-1.96875 -0.65625,-3.109375 -0.59375,-1.21875 -1.453125,-1.875 -1.546875,-1.875 -0.0625,0 -0.109375,0.046875 -0.109375,0.109375 0,0.03125 0,0.046875 0.1875,0.234375 0.984375,0.984375 1.546875,2.5625 1.546875,4.640625 0,1.71875 -0.359375,3.46875 -1.59375,4.71875 C 0.5625,2.34375 0.5625,2.359375 0.5625,2.390625 0.5625,2.453125 0.609375,2.5 0.671875,2.5 0.765625,2.5 1.671875,1.8125 2.25,0.546875 2.765625,-0.546875 2.875,-1.65625 2.875,-2.5 Z m 0,0"
               id="id-8c3c595c-fb15-488f-aa3f-74280daf2e06" />
          </g>
          <g
             id="id-359b82db-9d9c-4338-9144-4a5e3a565e38">
            <path
               d="m 2.03125,-0.015625 c 0,-0.65625 -0.25,-1.046875 -0.640625,-1.046875 -0.328125,0 -0.53125,0.25 -0.53125,0.53125 C 0.859375,-0.265625 1.0625,0 1.390625,0 1.5,0 1.640625,-0.046875 1.734375,-0.125 1.765625,-0.15625 1.78125,-0.15625 1.78125,-0.15625 c 0.015625,0 0.015625,0 0.015625,0.140625 0,0.75 -0.34375,1.34375 -0.671875,1.671875 -0.109375,0.109375 -0.109375,0.125 -0.109375,0.15625 0,0.078125 0.046875,0.109375 0.09375,0.109375 0.109375,0 0.921875,-0.765625 0.921875,-1.9375 z m 0,0"
               id="id-c2824d6e-2623-4965-959c-09b3765a39af" />
          </g>
        </g>
      </defs>
      <g
         fill="#000000"
         fill-opacity="1"
         id="id-77440c00-9350-46e2-a145-174054ccf724"
         transform="translate(-149.696, -127.281)">
        <g
           transform="translate(148.712, 134.765)"
           id="g8586">
          <path
             d="m 3.296875,2.390625 c 0,-0.03125 0,-0.046875 -0.171875,-0.21875 C 1.890625,0.921875 1.5625,-0.96875 1.5625,-2.5 c 0,-1.734375 0.375,-3.46875 1.609375,-4.703125 0.125,-0.125 0.125,-0.140625 0.125,-0.171875 0,-0.078125 -0.03125,-0.109375 -0.09375,-0.109375 -0.109375,0 -1,0.6875 -1.59375,1.953125 -0.5,1.09375 -0.625,2.203125 -0.625,3.03125 0,0.78125 0.109375,1.984375 0.65625,3.125 C 2.25,1.84375 3.09375,2.5 3.203125,2.5 c 0.0625,0 0.09375,-0.03125 0.09375,-0.109375 z m 0,0"
             id="id-bae3849e-60e3-4405-8ef0-2a037d30a1b9" />
        </g>
        <g
           transform="translate(152.586, 134.765)"
           id="g373">
          <path
             d="m 2.890625,-3.515625 c 0.8125,-0.265625 1.390625,-0.953125 1.390625,-1.75 0,-0.8125 -0.875,-1.375 -1.828125,-1.375 -1,0 -1.765625,0.59375 -1.765625,1.359375 0,0.328125 0.21875,0.515625 0.515625,0.515625 0.296875,0 0.5,-0.21875 0.5,-0.515625 0,-0.484375 -0.46875,-0.484375 -0.609375,-0.484375 0.296875,-0.5 0.953125,-0.625 1.3125,-0.625 0.421875,0 0.96875,0.21875 0.96875,1.109375 0,0.125 -0.03125,0.703125 -0.28125,1.140625 C 2.796875,-3.65625 2.453125,-3.625 2.203125,-3.625 2.125,-3.609375 1.890625,-3.59375 1.8125,-3.59375 c -0.078125,0.015625 -0.140625,0.03125 -0.140625,0.125 0,0.109375 0.0625,0.109375 0.234375,0.109375 h 0.4375 c 0.8125,0 1.1875,0.671875 1.1875,1.65625 0,1.359375 -0.6875,1.640625 -1.125,1.640625 -0.4375,0 -1.1875,-0.171875 -1.53125,-0.75 0.34375,0.046875 0.65625,-0.171875 0.65625,-0.546875 0,-0.359375 -0.265625,-0.5625 -0.546875,-0.5625 -0.25,0 -0.5625,0.140625 -0.5625,0.578125 0,0.90625 0.921875,1.5625 2.015625,1.5625 1.21875,0 2.125,-0.90625 2.125,-1.921875 0,-0.8125 -0.640625,-1.59375 -1.671875,-1.8125 z m 0,0"
             id="id-551b3b20-69f2-4be8-a9e2-8ef27536c9a0" />
        </g>
      </g>
      <g
         fill="#000000"
         fill-opacity="1"
         id="id-9251b20d-cf50-4c09-a270-fba85ac37678"
         transform="translate(-149.696, -127.281)">
        <g
           transform="translate(157.568, 134.765)"
           id="g4989">
          <path
             d="m 2.03125,-0.015625 c 0,-0.65625 -0.25,-1.046875 -0.640625,-1.046875 -0.328125,0 -0.53125,0.25 -0.53125,0.53125 C 0.859375,-0.265625 1.0625,0 1.390625,0 1.5,0 1.640625,-0.046875 1.734375,-0.125 1.765625,-0.15625 1.78125,-0.15625 1.78125,-0.15625 c 0.015625,0 0.015625,0 0.015625,0.140625 0,0.75 -0.34375,1.34375 -0.671875,1.671875 -0.109375,0.109375 -0.109375,0.125 -0.109375,0.15625 0,0.078125 0.046875,0.109375 0.09375,0.109375 0.109375,0 0.921875,-0.765625 0.921875,-1.9375 z m 0,0"
             id="id-46e53840-b63d-4c10-bc07-3fb7bd1b76c4" />
        </g>
      </g>
      <g
         fill="#000000"
         fill-opacity="1"
         id="id-9f578862-2df6-4540-9e94-08c6ee73156f"
         transform="translate(-149.696, -127.281)">
        <g
           transform="translate(161.996, 134.765)"
           id="g1481">
          <path
             d="m 4.578125,-3.1875 c 0,-0.796875 -0.046875,-1.59375 -0.390625,-2.328125 -0.453125,-0.96875 -1.28125,-1.125 -1.6875,-1.125 -0.609375,0 -1.328125,0.265625 -1.75,1.1875 -0.3125,0.6875 -0.359375,1.46875 -0.359375,2.265625 0,0.75 0.03125,1.640625 0.453125,2.40625 0.421875,0.796875 1.15625,1 1.640625,1 0.53125,0 1.296875,-0.203125 1.734375,-1.15625 0.3125,-0.6875 0.359375,-1.46875 0.359375,-2.25 z M 2.484375,0 C 2.09375,0 1.5,-0.25 1.328125,-1.203125 1.21875,-1.796875 1.21875,-2.71875 1.21875,-3.3125 c 0,-0.640625 0,-1.296875 0.078125,-1.828125 0.1875,-1.1875 0.9375,-1.28125 1.1875,-1.28125 0.328125,0 0.984375,0.1875 1.171875,1.171875 0.109375,0.5625 0.109375,1.3125 0.109375,1.9375 0,0.75 0,1.421875 -0.109375,2.0625 C 3.5,-0.296875 2.9375,0 2.484375,0 Z m 0,0"
             id="id-e2d43cee-4819-4bc4-b4b6-12b73cb9acc6" />
        </g>
        <g
           transform="translate(166.977, 134.765)"
           id="g4866">
          <path
             d="m 2.875,-2.5 c 0,-0.765625 -0.109375,-1.96875 -0.65625,-3.109375 -0.59375,-1.21875 -1.453125,-1.875 -1.546875,-1.875 -0.0625,0 -0.109375,0.046875 -0.109375,0.109375 0,0.03125 0,0.046875 0.1875,0.234375 0.984375,0.984375 1.546875,2.5625 1.546875,4.640625 0,1.71875 -0.359375,3.46875 -1.59375,4.71875 C 0.5625,2.34375 0.5625,2.359375 0.5625,2.390625 0.5625,2.453125 0.609375,2.5 0.671875,2.5 0.765625,2.5 1.671875,1.8125 2.25,0.546875 2.765625,-0.546875 2.875,-1.65625 2.875,-2.5 Z m 0,0"
             id="id-d0f96cdb-eb82-4cd6-a15a-5befecdf7297" />
        </g>
      </g>
    </g>
    <g
       transform="matrix(0.705556 0 0 0.705556 163.627 158.739)"
       ns15:version="1.9.0"
       ns15:texconverter="pdflatex"
       ns15:pdfconverter="inkscape"
       ns15:text="$(4,-1)$"
       ns15:preamble="/Users/sachchidanandprasad/Library/Application Support/org.inkscape.Inkscape/config/inkscape/extensions/inkscapeMadeEasy/basicLatexPackages.tex"
       ns15:scale="2.0"
       ns15:alignment="middle center"
       ns15:stroke-to-path="0"
       ns15:inkscapeversion="1.3"
       id="g82"
       ns15:jacobian_sqrt="0.705556">
      <defs
         id="id-4b794052-77e0-418b-9baa-cd7c9bb14326">
        <g
           id="id-b013fd6c-da3d-4103-9a33-d1829a634bdf">
          <g
             id="id-46e6cfb1-e79b-49a8-9418-43b111c22689">
            <path
               d="m 3.296875,2.390625 c 0,-0.03125 0,-0.046875 -0.171875,-0.21875 C 1.890625,0.921875 1.5625,-0.96875 1.5625,-2.5 c 0,-1.734375 0.375,-3.46875 1.609375,-4.703125 0.125,-0.125 0.125,-0.140625 0.125,-0.171875 0,-0.078125 -0.03125,-0.109375 -0.09375,-0.109375 -0.109375,0 -1,0.6875 -1.59375,1.953125 -0.5,1.09375 -0.625,2.203125 -0.625,3.03125 0,0.78125 0.109375,1.984375 0.65625,3.125 C 2.25,1.84375 3.09375,2.5 3.203125,2.5 c 0.0625,0 0.09375,-0.03125 0.09375,-0.109375 z m 0,0"
               id="id-8d1586a1-1a5e-4511-854c-a485a641da74" />
          </g>
          <g
             id="id-0dbec88b-6569-4f46-a445-f4adda6cc305">
            <path
               d="m 2.9375,-1.640625 v 0.859375 c 0,0.359375 -0.03125,0.46875 -0.765625,0.46875 H 1.96875 V 0 C 2.375,-0.03125 2.890625,-0.03125 3.3125,-0.03125 c 0.421875,0 0.9375,0 1.359375,0.03125 v -0.3125 h -0.21875 c -0.734375,0 -0.75,-0.109375 -0.75,-0.46875 V -1.640625 H 4.6875 v -0.3125 H 3.703125 v -4.53125 c 0,-0.203125 0,-0.265625 -0.171875,-0.265625 -0.078125,0 -0.109375,0 -0.1875,0.125 l -3.0625,4.671875 v 0.3125 z m 0.046875,-0.3125 H 0.5625 l 2.421875,-3.71875 z m 0,0"
               id="id-0c7111ac-32e2-493a-a011-ca2aa4aaabff" />
          </g>
          <g
             id="id-090e466e-57ec-4b04-9108-4e255dd3d0b2">
            <path
               d="m 2.9375,-6.375 c 0,-0.25 0,-0.265625 -0.234375,-0.265625 C 2.078125,-6 1.203125,-6 0.890625,-6 v 0.3125 c 0.203125,0 0.78125,0 1.296875,-0.265625 v 5.171875 c 0,0.359375 -0.03125,0.46875 -0.921875,0.46875 h -0.3125 V 0 c 0.34375,-0.03125 1.203125,-0.03125 1.609375,-0.03125 0.390625,0 1.265625,0 1.609375,0.03125 v -0.3125 h -0.3125 c -0.90625,0 -0.921875,-0.109375 -0.921875,-0.46875 z m 0,0"
               id="id-b5fab5e1-5a73-48e8-a36a-f8cfe6ff934a" />
          </g>
          <g
             id="id-dea059eb-1ce6-4ff6-8766-3ddd7fc66c22">
            <path
               d="m 2.875,-2.5 c 0,-0.765625 -0.109375,-1.96875 -0.65625,-3.109375 -0.59375,-1.21875 -1.453125,-1.875 -1.546875,-1.875 -0.0625,0 -0.109375,0.046875 -0.109375,0.109375 0,0.03125 0,0.046875 0.1875,0.234375 0.984375,0.984375 1.546875,2.5625 1.546875,4.640625 0,1.71875 -0.359375,3.46875 -1.59375,4.71875 C 0.5625,2.34375 0.5625,2.359375 0.5625,2.390625 0.5625,2.453125 0.609375,2.5 0.671875,2.5 0.765625,2.5 1.671875,1.8125 2.25,0.546875 2.765625,-0.546875 2.875,-1.65625 2.875,-2.5 Z m 0,0"
               id="id-34d1781e-0705-421c-ae18-026015f678c9" />
          </g>
          <g
             id="id-af524045-9cc6-428a-9684-2f378b7003c1">
            <path
               d="m 2.03125,-0.015625 c 0,-0.65625 -0.25,-1.046875 -0.640625,-1.046875 -0.328125,0 -0.53125,0.25 -0.53125,0.53125 C 0.859375,-0.265625 1.0625,0 1.390625,0 1.5,0 1.640625,-0.046875 1.734375,-0.125 1.765625,-0.15625 1.78125,-0.15625 1.78125,-0.15625 c 0.015625,0 0.015625,0 0.015625,0.140625 0,0.75 -0.34375,1.34375 -0.671875,1.671875 -0.109375,0.109375 -0.109375,0.125 -0.109375,0.15625 0,0.078125 0.046875,0.109375 0.09375,0.109375 0.109375,0 0.921875,-0.765625 0.921875,-1.9375 z m 0,0"
               id="id-773cb1ee-2f54-485a-9433-62519730d977" />
          </g>
          <g
             id="id-0c8a1e31-4f2d-4ab3-b920-8adc332525cf">
            <path
               d="m 6.5625,-2.296875 c 0.171875,0 0.359375,0 0.359375,-0.203125 0,-0.1875 -0.1875,-0.1875 -0.359375,-0.1875 H 1.171875 c -0.171875,0 -0.34375,0 -0.34375,0.1875 0,0.203125 0.171875,0.203125 0.34375,0.203125 z m 0,0"
               id="id-f58c4def-40f2-465a-855c-db920a141e6e" />
          </g>
        </g>
      </defs>
      <g
         fill="#000000"
         fill-opacity="1"
         id="id-ee218500-2a22-4986-a363-f3878d3fffca"
         transform="translate(-149.696, -127.281)">
        <g
           transform="translate(148.712, 134.765)"
           id="g6840">
          <path
             d="m 3.296875,2.390625 c 0,-0.03125 0,-0.046875 -0.171875,-0.21875 C 1.890625,0.921875 1.5625,-0.96875 1.5625,-2.5 c 0,-1.734375 0.375,-3.46875 1.609375,-4.703125 0.125,-0.125 0.125,-0.140625 0.125,-0.171875 0,-0.078125 -0.03125,-0.109375 -0.09375,-0.109375 -0.109375,0 -1,0.6875 -1.59375,1.953125 -0.5,1.09375 -0.625,2.203125 -0.625,3.03125 0,0.78125 0.109375,1.984375 0.65625,3.125 C 2.25,1.84375 3.09375,2.5 3.203125,2.5 c 0.0625,0 0.09375,-0.03125 0.09375,-0.109375 z m 0,0"
             id="id-72013e64-001a-47aa-b3b7-bd1588e10457" />
        </g>
        <g
           transform="translate(152.586, 134.765)"
           id="g1257">
          <path
             d="m 2.9375,-1.640625 v 0.859375 c 0,0.359375 -0.03125,0.46875 -0.765625,0.46875 H 1.96875 V 0 C 2.375,-0.03125 2.890625,-0.03125 3.3125,-0.03125 c 0.421875,0 0.9375,0 1.359375,0.03125 v -0.3125 h -0.21875 c -0.734375,0 -0.75,-0.109375 -0.75,-0.46875 V -1.640625 H 4.6875 v -0.3125 H 3.703125 v -4.53125 c 0,-0.203125 0,-0.265625 -0.171875,-0.265625 -0.078125,0 -0.109375,0 -0.1875,0.125 l -3.0625,4.671875 v 0.3125 z m 0.046875,-0.3125 H 0.5625 l 2.421875,-3.71875 z m 0,0"
             id="id-e505448f-4f51-44ea-b7fd-b4e1e1ccbbb7" />
        </g>
      </g>
      <g
         fill="#000000"
         fill-opacity="1"
         id="id-53825919-fa5a-4a7e-b619-404b240b0cbd"
         transform="translate(-149.696, -127.281)">
        <g
           transform="translate(157.568, 134.765)"
           id="g7830">
          <path
             d="m 2.03125,-0.015625 c 0,-0.65625 -0.25,-1.046875 -0.640625,-1.046875 -0.328125,0 -0.53125,0.25 -0.53125,0.53125 C 0.859375,-0.265625 1.0625,0 1.390625,0 1.5,0 1.640625,-0.046875 1.734375,-0.125 1.765625,-0.15625 1.78125,-0.15625 1.78125,-0.15625 c 0.015625,0 0.015625,0 0.015625,0.140625 0,0.75 -0.34375,1.34375 -0.671875,1.671875 -0.109375,0.109375 -0.109375,0.125 -0.109375,0.15625 0,0.078125 0.046875,0.109375 0.09375,0.109375 0.109375,0 0.921875,-0.765625 0.921875,-1.9375 z m 0,0"
             id="id-e3165c17-57ad-4ae2-bfc7-84371bd18493" />
        </g>
      </g>
      <g
         fill="#000000"
         fill-opacity="1"
         id="id-6b743c83-a069-4200-a6fe-236ac28b9a1f"
         transform="translate(-149.696, -127.281)">
        <g
           transform="translate(161.996, 134.765)"
           id="g7006">
          <path
             d="m 6.5625,-2.296875 c 0.171875,0 0.359375,0 0.359375,-0.203125 0,-0.1875 -0.1875,-0.1875 -0.359375,-0.1875 H 1.171875 c -0.171875,0 -0.34375,0 -0.34375,0.1875 0,0.203125 0.171875,0.203125 0.34375,0.203125 z m 0,0"
             id="id-e26a4cc1-e68a-4a54-b21a-134439085fd4" />
        </g>
      </g>
      <g
         fill="#000000"
         fill-opacity="1"
         id="id-61042df2-10bd-4a94-a0a3-18bb9a5cdfd9"
         transform="translate(-149.696, -127.281)">
        <g
           transform="translate(169.745, 134.765)"
           id="g7818">
          <path
             d="m 2.9375,-6.375 c 0,-0.25 0,-0.265625 -0.234375,-0.265625 C 2.078125,-6 1.203125,-6 0.890625,-6 v 0.3125 c 0.203125,0 0.78125,0 1.296875,-0.265625 v 5.171875 c 0,0.359375 -0.03125,0.46875 -0.921875,0.46875 h -0.3125 V 0 c 0.34375,-0.03125 1.203125,-0.03125 1.609375,-0.03125 0.390625,0 1.265625,0 1.609375,0.03125 v -0.3125 h -0.3125 c -0.90625,0 -0.921875,-0.109375 -0.921875,-0.46875 z m 0,0"
             id="id-133311b8-2af7-402e-99a8-fd42b1641b45" />
        </g>
        <g
           transform="translate(174.726, 134.765)"
           id="g2897">
          <path
             d="m 2.875,-2.5 c 0,-0.765625 -0.109375,-1.96875 -0.65625,-3.109375 -0.59375,-1.21875 -1.453125,-1.875 -1.546875,-1.875 -0.0625,0 -0.109375,0.046875 -0.109375,0.109375 0,0.03125 0,0.046875 0.1875,0.234375 0.984375,0.984375 1.546875,2.5625 1.546875,4.640625 0,1.71875 -0.359375,3.46875 -1.59375,4.71875 C 0.5625,2.34375 0.5625,2.359375 0.5625,2.390625 0.5625,2.453125 0.609375,2.5 0.671875,2.5 0.765625,2.5 1.671875,1.8125 2.25,0.546875 2.765625,-0.546875 2.875,-1.65625 2.875,-2.5 Z m 0,0"
             id="id-09e50b60-5f53-4965-adb5-07c1d2f8667a" />
        </g>
      </g>
    </g>
    <g
       transform="matrix(0.705556 0 0 0.705556 15.5567 103.674)"
       ns15:version="1.9.0"
       ns15:texconverter="pdflatex"
       ns15:pdfconverter="inkscape"
       ns15:text="$(-3,1)$"
       ns15:preamble="/Users/sachchidanandprasad/Library/Application Support/org.inkscape.Inkscape/config/inkscape/extensions/inkscapeMadeEasy/basicLatexPackages.tex"
       ns15:scale="2.0"
       ns15:alignment="middle center"
       ns15:stroke-to-path="0"
       ns15:inkscapeversion="1.3"
       id="g100"
       ns15:jacobian_sqrt="0.705556">
      <defs
         id="id-af83891c-1465-4b17-896f-e5421256019f">
        <g
           id="id-8d22bb96-db8c-44c4-abe1-1b2f9822d7fc">
          <g
             id="id-69f0c48c-d769-4f6c-ae51-6d46a961979a">
            <path
               d="m 3.296875,2.390625 c 0,-0.03125 0,-0.046875 -0.171875,-0.21875 C 1.890625,0.921875 1.5625,-0.96875 1.5625,-2.5 c 0,-1.734375 0.375,-3.46875 1.609375,-4.703125 0.125,-0.125 0.125,-0.140625 0.125,-0.171875 0,-0.078125 -0.03125,-0.109375 -0.09375,-0.109375 -0.109375,0 -1,0.6875 -1.59375,1.953125 -0.5,1.09375 -0.625,2.203125 -0.625,3.03125 0,0.78125 0.109375,1.984375 0.65625,3.125 C 2.25,1.84375 3.09375,2.5 3.203125,2.5 c 0.0625,0 0.09375,-0.03125 0.09375,-0.109375 z m 0,0"
               id="id-63d007e4-9e70-4ea1-856c-9d006e9ea58b" />
          </g>
          <g
             id="id-84fbfbf2-0d8a-45f6-989f-22580f9c2de2">
            <path
               d="m 2.890625,-3.515625 c 0.8125,-0.265625 1.390625,-0.953125 1.390625,-1.75 0,-0.8125 -0.875,-1.375 -1.828125,-1.375 -1,0 -1.765625,0.59375 -1.765625,1.359375 0,0.328125 0.21875,0.515625 0.515625,0.515625 0.296875,0 0.5,-0.21875 0.5,-0.515625 0,-0.484375 -0.46875,-0.484375 -0.609375,-0.484375 0.296875,-0.5 0.953125,-0.625 1.3125,-0.625 0.421875,0 0.96875,0.21875 0.96875,1.109375 0,0.125 -0.03125,0.703125 -0.28125,1.140625 C 2.796875,-3.65625 2.453125,-3.625 2.203125,-3.625 2.125,-3.609375 1.890625,-3.59375 1.8125,-3.59375 c -0.078125,0.015625 -0.140625,0.03125 -0.140625,0.125 0,0.109375 0.0625,0.109375 0.234375,0.109375 h 0.4375 c 0.8125,0 1.1875,0.671875 1.1875,1.65625 0,1.359375 -0.6875,1.640625 -1.125,1.640625 -0.4375,0 -1.1875,-0.171875 -1.53125,-0.75 0.34375,0.046875 0.65625,-0.171875 0.65625,-0.546875 0,-0.359375 -0.265625,-0.5625 -0.546875,-0.5625 -0.25,0 -0.5625,0.140625 -0.5625,0.578125 0,0.90625 0.921875,1.5625 2.015625,1.5625 1.21875,0 2.125,-0.90625 2.125,-1.921875 0,-0.8125 -0.640625,-1.59375 -1.671875,-1.8125 z m 0,0"
               id="id-4193f42f-6f75-4967-aaad-2ec81a77e04f" />
          </g>
          <g
             id="id-8f2e86d9-5eb3-4965-8848-75cac5b9b5f7">
            <path
               d="m 2.9375,-6.375 c 0,-0.25 0,-0.265625 -0.234375,-0.265625 C 2.078125,-6 1.203125,-6 0.890625,-6 v 0.3125 c 0.203125,0 0.78125,0 1.296875,-0.265625 v 5.171875 c 0,0.359375 -0.03125,0.46875 -0.921875,0.46875 h -0.3125 V 0 c 0.34375,-0.03125 1.203125,-0.03125 1.609375,-0.03125 0.390625,0 1.265625,0 1.609375,0.03125 v -0.3125 h -0.3125 c -0.90625,0 -0.921875,-0.109375 -0.921875,-0.46875 z m 0,0"
               id="id-0a406780-f614-4ffe-8fb7-ed63dbcd09e1" />
          </g>
          <g
             id="id-b1b9d45e-612b-49d7-90ba-8a1fe8080bb6">
            <path
               d="m 2.875,-2.5 c 0,-0.765625 -0.109375,-1.96875 -0.65625,-3.109375 -0.59375,-1.21875 -1.453125,-1.875 -1.546875,-1.875 -0.0625,0 -0.109375,0.046875 -0.109375,0.109375 0,0.03125 0,0.046875 0.1875,0.234375 0.984375,0.984375 1.546875,2.5625 1.546875,4.640625 0,1.71875 -0.359375,3.46875 -1.59375,4.71875 C 0.5625,2.34375 0.5625,2.359375 0.5625,2.390625 0.5625,2.453125 0.609375,2.5 0.671875,2.5 0.765625,2.5 1.671875,1.8125 2.25,0.546875 2.765625,-0.546875 2.875,-1.65625 2.875,-2.5 Z m 0,0"
               id="id-009226a2-b1cc-4742-853c-2a9e24b5dd41" />
          </g>
          <g
             id="id-50d7e56b-3455-403a-944d-da5fd39cab17">
            <path
               d="m 6.5625,-2.296875 c 0.171875,0 0.359375,0 0.359375,-0.203125 0,-0.1875 -0.1875,-0.1875 -0.359375,-0.1875 H 1.171875 c -0.171875,0 -0.34375,0 -0.34375,0.1875 0,0.203125 0.171875,0.203125 0.34375,0.203125 z m 0,0"
               id="id-50efe703-a33b-4a88-b8e4-faa87af8bcbf" />
          </g>
          <g
             id="id-a3ff3c63-4235-4aae-a3a2-9a3f174f760e">
            <path
               d="m 2.03125,-0.015625 c 0,-0.65625 -0.25,-1.046875 -0.640625,-1.046875 -0.328125,0 -0.53125,0.25 -0.53125,0.53125 C 0.859375,-0.265625 1.0625,0 1.390625,0 1.5,0 1.640625,-0.046875 1.734375,-0.125 1.765625,-0.15625 1.78125,-0.15625 1.78125,-0.15625 c 0.015625,0 0.015625,0 0.015625,0.140625 0,0.75 -0.34375,1.34375 -0.671875,1.671875 -0.109375,0.109375 -0.109375,0.125 -0.109375,0.15625 0,0.078125 0.046875,0.109375 0.09375,0.109375 0.109375,0 0.921875,-0.765625 0.921875,-1.9375 z m 0,0"
               id="id-0f9a75fc-3d91-41b2-93dd-d2c054c7a26b" />
          </g>
        </g>
      </defs>
      <g
         fill="#000000"
         fill-opacity="1"
         id="id-a3abe005-29d0-4f1c-bef3-38135fde3c41"
         transform="translate(-149.696, -127.281)">
        <g
           transform="translate(148.712, 134.765)"
           id="g6287">
          <path
             d="m 3.296875,2.390625 c 0,-0.03125 0,-0.046875 -0.171875,-0.21875 C 1.890625,0.921875 1.5625,-0.96875 1.5625,-2.5 c 0,-1.734375 0.375,-3.46875 1.609375,-4.703125 0.125,-0.125 0.125,-0.140625 0.125,-0.171875 0,-0.078125 -0.03125,-0.109375 -0.09375,-0.109375 -0.109375,0 -1,0.6875 -1.59375,1.953125 -0.5,1.09375 -0.625,2.203125 -0.625,3.03125 0,0.78125 0.109375,1.984375 0.65625,3.125 C 2.25,1.84375 3.09375,2.5 3.203125,2.5 c 0.0625,0 0.09375,-0.03125 0.09375,-0.109375 z m 0,0"
             id="id-7a114907-1172-43e0-a6e1-daf8a6b6f2f9" />
        </g>
      </g>
      <g
         fill="#000000"
         fill-opacity="1"
         id="id-233e0506-e678-4d86-9993-bd758a34aa00"
         transform="translate(-149.696, -127.281)">
        <g
           transform="translate(152.587, 134.765)"
           id="g1549">
          <path
             d="m 6.5625,-2.296875 c 0.171875,0 0.359375,0 0.359375,-0.203125 0,-0.1875 -0.1875,-0.1875 -0.359375,-0.1875 H 1.171875 c -0.171875,0 -0.34375,0 -0.34375,0.1875 0,0.203125 0.171875,0.203125 0.34375,0.203125 z m 0,0"
             id="id-7e9fe1cc-7a03-4227-b292-01d023f70c2c" />
        </g>
      </g>
      <g
         fill="#000000"
         fill-opacity="1"
         id="id-68f7920e-e97f-41e1-93c0-b60b4bb6791f"
         transform="translate(-149.696, -127.281)">
        <g
           transform="translate(160.335, 134.765)"
           id="g65">
          <path
             d="m 2.890625,-3.515625 c 0.8125,-0.265625 1.390625,-0.953125 1.390625,-1.75 0,-0.8125 -0.875,-1.375 -1.828125,-1.375 -1,0 -1.765625,0.59375 -1.765625,1.359375 0,0.328125 0.21875,0.515625 0.515625,0.515625 0.296875,0 0.5,-0.21875 0.5,-0.515625 0,-0.484375 -0.46875,-0.484375 -0.609375,-0.484375 0.296875,-0.5 0.953125,-0.625 1.3125,-0.625 0.421875,0 0.96875,0.21875 0.96875,1.109375 0,0.125 -0.03125,0.703125 -0.28125,1.140625 C 2.796875,-3.65625 2.453125,-3.625 2.203125,-3.625 2.125,-3.609375 1.890625,-3.59375 1.8125,-3.59375 c -0.078125,0.015625 -0.140625,0.03125 -0.140625,0.125 0,0.109375 0.0625,0.109375 0.234375,0.109375 h 0.4375 c 0.8125,0 1.1875,0.671875 1.1875,1.65625 0,1.359375 -0.6875,1.640625 -1.125,1.640625 -0.4375,0 -1.1875,-0.171875 -1.53125,-0.75 0.34375,0.046875 0.65625,-0.171875 0.65625,-0.546875 0,-0.359375 -0.265625,-0.5625 -0.546875,-0.5625 -0.25,0 -0.5625,0.140625 -0.5625,0.578125 0,0.90625 0.921875,1.5625 2.015625,1.5625 1.21875,0 2.125,-0.90625 2.125,-1.921875 0,-0.8125 -0.640625,-1.59375 -1.671875,-1.8125 z m 0,0"
             id="id-5e6b855a-7547-4dbd-9e10-f6e6f57c6a48" />
        </g>
      </g>
      <g
         fill="#000000"
         fill-opacity="1"
         id="id-3ecfe566-be17-4dcc-97a8-d6f83f78b71c"
         transform="translate(-149.696, -127.281)">
        <g
           transform="translate(165.317, 134.765)"
           id="g3852">
          <path
             d="m 2.03125,-0.015625 c 0,-0.65625 -0.25,-1.046875 -0.640625,-1.046875 -0.328125,0 -0.53125,0.25 -0.53125,0.53125 C 0.859375,-0.265625 1.0625,0 1.390625,0 1.5,0 1.640625,-0.046875 1.734375,-0.125 1.765625,-0.15625 1.78125,-0.15625 1.78125,-0.15625 c 0.015625,0 0.015625,0 0.015625,0.140625 0,0.75 -0.34375,1.34375 -0.671875,1.671875 -0.109375,0.109375 -0.109375,0.125 -0.109375,0.15625 0,0.078125 0.046875,0.109375 0.09375,0.109375 0.109375,0 0.921875,-0.765625 0.921875,-1.9375 z m 0,0"
             id="id-1643a040-e978-4a03-933a-dce84900041a" />
        </g>
      </g>
      <g
         fill="#000000"
         fill-opacity="1"
         id="id-341dd4a2-7f0b-42a6-9a4f-ee6de61ad542"
         transform="translate(-149.696, -127.281)">
        <g
           transform="translate(169.745, 134.765)"
           id="g446">
          <path
             d="m 2.9375,-6.375 c 0,-0.25 0,-0.265625 -0.234375,-0.265625 C 2.078125,-6 1.203125,-6 0.890625,-6 v 0.3125 c 0.203125,0 0.78125,0 1.296875,-0.265625 v 5.171875 c 0,0.359375 -0.03125,0.46875 -0.921875,0.46875 h -0.3125 V 0 c 0.34375,-0.03125 1.203125,-0.03125 1.609375,-0.03125 0.390625,0 1.265625,0 1.609375,0.03125 v -0.3125 h -0.3125 c -0.90625,0 -0.921875,-0.109375 -0.921875,-0.46875 z m 0,0"
             id="id-c6da649e-adbb-46c7-b2ed-dc66e3d35e5a" />
        </g>
        <g
           transform="translate(174.726, 134.765)"
           id="g3555">
          <path
             d="m 2.875,-2.5 c 0,-0.765625 -0.109375,-1.96875 -0.65625,-3.109375 -0.59375,-1.21875 -1.453125,-1.875 -1.546875,-1.875 -0.0625,0 -0.109375,0.046875 -0.109375,0.109375 0,0.03125 0,0.046875 0.1875,0.234375 0.984375,0.984375 1.546875,2.5625 1.546875,4.640625 0,1.71875 -0.359375,3.46875 -1.59375,4.71875 C 0.5625,2.34375 0.5625,2.359375 0.5625,2.390625 0.5625,2.453125 0.609375,2.5 0.671875,2.5 0.765625,2.5 1.671875,1.8125 2.25,0.546875 2.765625,-0.546875 2.875,-1.65625 2.875,-2.5 Z m 0,0"
             id="id-052f1247-f3e5-46b4-8295-3c6612b4ee2c" />
        </g>
      </g>
    </g>
    <g
       transform="matrix(0.705556,0,0,0.705556,0.96745775,164.00865)"
       ns15:version="1.9.0"
       ns15:texconverter="pdflatex"
       ns15:pdfconverter="inkscape"
       ns15:text="$(-4,-2)$"
       ns15:preamble="/Users/sachchidanandprasad/Library/Application Support/org.inkscape.Inkscape/config/inkscape/extensions/inkscapeMadeEasy/basicLatexPackages.tex"
       ns15:scale="2.0"
       ns15:alignment="middle center"
       ns15:stroke-to-path="0"
       ns15:inkscapeversion="1.3"
       id="g119"
       ns15:jacobian_sqrt="0.705556">
      <defs
         id="id-77ca5901-7267-40dd-add5-afafb7ba28e3">
        <g
           id="id-7a2ba794-f58e-4f60-b252-afb3908bc20a">
          <g
             id="id-bd221774-d91f-41c3-b200-ccaeb8fcf44f">
            <path
               d="m 3.296875,2.390625 c 0,-0.03125 0,-0.046875 -0.171875,-0.21875 C 1.890625,0.921875 1.5625,-0.96875 1.5625,-2.5 c 0,-1.734375 0.375,-3.46875 1.609375,-4.703125 0.125,-0.125 0.125,-0.140625 0.125,-0.171875 0,-0.078125 -0.03125,-0.109375 -0.09375,-0.109375 -0.109375,0 -1,0.6875 -1.59375,1.953125 -0.5,1.09375 -0.625,2.203125 -0.625,3.03125 0,0.78125 0.109375,1.984375 0.65625,3.125 C 2.25,1.84375 3.09375,2.5 3.203125,2.5 c 0.0625,0 0.09375,-0.03125 0.09375,-0.109375 z m 0,0"
               id="id-fd638841-2a65-48f9-821e-54f16d275f23" />
          </g>
          <g
             id="id-20469bb3-0a1f-412d-b153-e784aeb6d692">
            <path
               d="m 2.9375,-1.640625 v 0.859375 c 0,0.359375 -0.03125,0.46875 -0.765625,0.46875 H 1.96875 V 0 C 2.375,-0.03125 2.890625,-0.03125 3.3125,-0.03125 c 0.421875,0 0.9375,0 1.359375,0.03125 v -0.3125 h -0.21875 c -0.734375,0 -0.75,-0.109375 -0.75,-0.46875 V -1.640625 H 4.6875 v -0.3125 H 3.703125 v -4.53125 c 0,-0.203125 0,-0.265625 -0.171875,-0.265625 -0.078125,0 -0.109375,0 -0.1875,0.125 l -3.0625,4.671875 v 0.3125 z m 0.046875,-0.3125 H 0.5625 l 2.421875,-3.71875 z m 0,0"
               id="id-3cdcf09a-f072-4484-ad67-c9246755e755" />
          </g>
          <g
             id="id-79081f0a-8429-457c-898c-e8ae2b657ce2">
            <path
               d="m 1.265625,-0.765625 1.0625,-1.03125 c 1.546875,-1.375 2.140625,-1.90625 2.140625,-2.90625 0,-1.140625 -0.890625,-1.9375 -2.109375,-1.9375 -1.125,0 -1.859375,0.921875 -1.859375,1.8125 0,0.546875 0.5,0.546875 0.53125,0.546875 0.171875,0 0.515625,-0.109375 0.515625,-0.53125 0,-0.25 -0.1875,-0.515625 -0.53125,-0.515625 -0.078125,0 -0.09375,0 -0.125,0.015625 0.21875,-0.65625 0.765625,-1.015625 1.34375,-1.015625 0.90625,0 1.328125,0.8125 1.328125,1.625 C 3.5625,-3.90625 3.078125,-3.125 2.515625,-2.5 l -1.90625,2.125 C 0.5,-0.265625 0.5,-0.234375 0.5,0 H 4.203125 L 4.46875,-1.734375 H 4.234375 C 4.171875,-1.4375 4.109375,-1 4,-0.84375 3.9375,-0.765625 3.28125,-0.765625 3.0625,-0.765625 Z m 0,0"
               id="id-74fc2dd6-7cb2-4d28-b643-80c3cee822a7" />
          </g>
          <g
             id="id-22a6112e-a2c4-48d5-a2bd-818c33b23156">
            <path
               d="m 2.875,-2.5 c 0,-0.765625 -0.109375,-1.96875 -0.65625,-3.109375 -0.59375,-1.21875 -1.453125,-1.875 -1.546875,-1.875 -0.0625,0 -0.109375,0.046875 -0.109375,0.109375 0,0.03125 0,0.046875 0.1875,0.234375 0.984375,0.984375 1.546875,2.5625 1.546875,4.640625 0,1.71875 -0.359375,3.46875 -1.59375,4.71875 C 0.5625,2.34375 0.5625,2.359375 0.5625,2.390625 0.5625,2.453125 0.609375,2.5 0.671875,2.5 0.765625,2.5 1.671875,1.8125 2.25,0.546875 2.765625,-0.546875 2.875,-1.65625 2.875,-2.5 Z m 0,0"
               id="id-7dc00eff-bddd-452e-b0f0-2e576033c429" />
          </g>
          <g
             id="id-62d250d9-ba70-418f-aa97-6ec18fc411c7">
            <path
               d="m 6.5625,-2.296875 c 0.171875,0 0.359375,0 0.359375,-0.203125 0,-0.1875 -0.1875,-0.1875 -0.359375,-0.1875 H 1.171875 c -0.171875,0 -0.34375,0 -0.34375,0.1875 0,0.203125 0.171875,0.203125 0.34375,0.203125 z m 0,0"
               id="id-6d81f389-1905-4121-8351-2440748fd656" />
          </g>
          <g
             id="id-cd2b59ca-c94b-4649-9ac3-c9aa88ca1431">
            <path
               d="m 2.03125,-0.015625 c 0,-0.65625 -0.25,-1.046875 -0.640625,-1.046875 -0.328125,0 -0.53125,0.25 -0.53125,0.53125 C 0.859375,-0.265625 1.0625,0 1.390625,0 1.5,0 1.640625,-0.046875 1.734375,-0.125 1.765625,-0.15625 1.78125,-0.15625 1.78125,-0.15625 c 0.015625,0 0.015625,0 0.015625,0.140625 0,0.75 -0.34375,1.34375 -0.671875,1.671875 -0.109375,0.109375 -0.109375,0.125 -0.109375,0.15625 0,0.078125 0.046875,0.109375 0.09375,0.109375 0.109375,0 0.921875,-0.765625 0.921875,-1.9375 z m 0,0"
               id="id-ace1862a-56fe-4dfc-8bd8-3e4de006b0bb" />
          </g>
        </g>
      </defs>
      <g
         fill="#000000"
         fill-opacity="1"
         id="id-ee68999e-5aeb-4e0c-b889-5a3f89011d4e"
         transform="translate(-149.696,-127.281)">
        <g
           transform="translate(148.712,134.765)"
           id="g244">
          <path
             d="m 3.296875,2.390625 c 0,-0.03125 0,-0.046875 -0.171875,-0.21875 C 1.890625,0.921875 1.5625,-0.96875 1.5625,-2.5 c 0,-1.734375 0.375,-3.46875 1.609375,-4.703125 0.125,-0.125 0.125,-0.140625 0.125,-0.171875 0,-0.078125 -0.03125,-0.109375 -0.09375,-0.109375 -0.109375,0 -1,0.6875 -1.59375,1.953125 -0.5,1.09375 -0.625,2.203125 -0.625,3.03125 0,0.78125 0.109375,1.984375 0.65625,3.125 C 2.25,1.84375 3.09375,2.5 3.203125,2.5 c 0.0625,0 0.09375,-0.03125 0.09375,-0.109375 z m 0,0"
             id="id-2c50707b-488c-46dc-91cb-e467cc782158" />
        </g>
      </g>
      <g
         fill="#000000"
         fill-opacity="1"
         id="id-99d6f4d7-0a86-4c87-85ac-fe22e909156d"
         transform="translate(-149.696,-127.281)">
        <g
           transform="translate(152.587,134.765)"
           id="g3572">
          <path
             d="m 6.5625,-2.296875 c 0.171875,0 0.359375,0 0.359375,-0.203125 0,-0.1875 -0.1875,-0.1875 -0.359375,-0.1875 H 1.171875 c -0.171875,0 -0.34375,0 -0.34375,0.1875 0,0.203125 0.171875,0.203125 0.34375,0.203125 z m 0,0"
             id="id-531bb56c-e201-4403-94d8-ea4276b3156d" />
        </g>
      </g>
      <g
         fill="#000000"
         fill-opacity="1"
         id="id-f78ab675-f3bf-4622-9902-899c0c0ea6e0"
         transform="translate(-149.696,-127.281)">
        <g
           transform="translate(160.335,134.765)"
           id="g3000">
          <path
             d="m 2.9375,-1.640625 v 0.859375 c 0,0.359375 -0.03125,0.46875 -0.765625,0.46875 H 1.96875 V 0 C 2.375,-0.03125 2.890625,-0.03125 3.3125,-0.03125 c 0.421875,0 0.9375,0 1.359375,0.03125 v -0.3125 h -0.21875 c -0.734375,0 -0.75,-0.109375 -0.75,-0.46875 V -1.640625 H 4.6875 v -0.3125 H 3.703125 v -4.53125 c 0,-0.203125 0,-0.265625 -0.171875,-0.265625 -0.078125,0 -0.109375,0 -0.1875,0.125 l -3.0625,4.671875 v 0.3125 z m 0.046875,-0.3125 H 0.5625 l 2.421875,-3.71875 z m 0,0"
             id="id-c6a445e8-f823-4c74-9a7a-1563750ada3a" />
        </g>
      </g>
      <g
         fill="#000000"
         fill-opacity="1"
         id="id-016fdab3-eb5b-4bd6-b138-00e35df3e28d"
         transform="translate(-149.696,-127.281)">
        <g
           transform="translate(165.317,134.765)"
           id="g6247">
          <path
             d="m 2.03125,-0.015625 c 0,-0.65625 -0.25,-1.046875 -0.640625,-1.046875 -0.328125,0 -0.53125,0.25 -0.53125,0.53125 C 0.859375,-0.265625 1.0625,0 1.390625,0 1.5,0 1.640625,-0.046875 1.734375,-0.125 1.765625,-0.15625 1.78125,-0.15625 1.78125,-0.15625 c 0.015625,0 0.015625,0 0.015625,0.140625 0,0.75 -0.34375,1.34375 -0.671875,1.671875 -0.109375,0.109375 -0.109375,0.125 -0.109375,0.15625 0,0.078125 0.046875,0.109375 0.09375,0.109375 0.109375,0 0.921875,-0.765625 0.921875,-1.9375 z m 0,0"
             id="id-151713ae-2c0f-4593-aa58-cba05e92cab1" />
        </g>
      </g>
      <g
         fill="#000000"
         fill-opacity="1"
         id="id-87dc20b3-1780-42b9-8829-4f0043ee2dc9"
         transform="translate(-149.696,-127.281)">
        <g
           transform="translate(169.745,134.765)"
           id="g8546">
          <path
             d="m 6.5625,-2.296875 c 0.171875,0 0.359375,0 0.359375,-0.203125 0,-0.1875 -0.1875,-0.1875 -0.359375,-0.1875 H 1.171875 c -0.171875,0 -0.34375,0 -0.34375,0.1875 0,0.203125 0.171875,0.203125 0.34375,0.203125 z m 0,0"
             id="id-fee68a40-a1ef-4e5a-839b-cd2a47ac7f6d" />
        </g>
      </g>
      <g
         fill="#000000"
         fill-opacity="1"
         id="id-5a1b90d4-adc7-46a9-9d2d-e8852d6c1400"
         transform="translate(-149.696,-127.281)">
        <g
           transform="translate(177.493,134.765)"
           id="g7935">
          <path
             d="m 1.265625,-0.765625 1.0625,-1.03125 c 1.546875,-1.375 2.140625,-1.90625 2.140625,-2.90625 0,-1.140625 -0.890625,-1.9375 -2.109375,-1.9375 -1.125,0 -1.859375,0.921875 -1.859375,1.8125 0,0.546875 0.5,0.546875 0.53125,0.546875 0.171875,0 0.515625,-0.109375 0.515625,-0.53125 0,-0.25 -0.1875,-0.515625 -0.53125,-0.515625 -0.078125,0 -0.09375,0 -0.125,0.015625 0.21875,-0.65625 0.765625,-1.015625 1.34375,-1.015625 0.90625,0 1.328125,0.8125 1.328125,1.625 C 3.5625,-3.90625 3.078125,-3.125 2.515625,-2.5 l -1.90625,2.125 C 0.5,-0.265625 0.5,-0.234375 0.5,0 H 4.203125 L 4.46875,-1.734375 H 4.234375 C 4.171875,-1.4375 4.109375,-1 4,-0.84375 3.9375,-0.765625 3.28125,-0.765625 3.0625,-0.765625 Z m 0,0"
             id="id-efb17ccf-3a6c-4d08-98ed-6867d8ff75f0" />
        </g>
        <g
           transform="translate(182.474,134.765)"
           id="g7403">
          <path
             d="m 2.875,-2.5 c 0,-0.765625 -0.109375,-1.96875 -0.65625,-3.109375 -0.59375,-1.21875 -1.453125,-1.875 -1.546875,-1.875 -0.0625,0 -0.109375,0.046875 -0.109375,0.109375 0,0.03125 0,0.046875 0.1875,0.234375 0.984375,0.984375 1.546875,2.5625 1.546875,4.640625 0,1.71875 -0.359375,3.46875 -1.59375,4.71875 C 0.5625,2.34375 0.5625,2.359375 0.5625,2.390625 0.5625,2.453125 0.609375,2.5 0.671875,2.5 0.765625,2.5 1.671875,1.8125 2.25,0.546875 2.765625,-0.546875 2.875,-1.65625 2.875,-2.5 Z m 0,0"
             id="id-98d97ad8-011a-4c45-8e89-37219a69c593" />
        </g>
      </g>
    </g>
  </g>
</svg>
