<?xml version="1.0" encoding="UTF-8" standalone="no"?>
<!-- Created with Inkscape (http://www.inkscape.org/) -->

<svg
   width="104.47984mm"
   height="81.47892mm"
   viewBox="0 0 104.47985 81.47892"
   version="1.1"
   id="svg1"
   inkscape:version="1.4-beta (62f545ba, 2024-04-22)"
   sodipodi:docname="sumOfTwoComplexNumbers.svg"
   xmlns:inkscape="http://www.inkscape.org/namespaces/inkscape"
   xmlns:sodipodi="http://sodipodi.sourceforge.net/DTD/sodipodi-0.dtd"
   xmlns="http://www.w3.org/2000/svg"
   xmlns:svg="http://www.w3.org/2000/svg"
   xmlns:ns2="http://www.iki.fi/pav/software/textext/">
  <sodipodi:namedview
     id="namedview1"
     pagecolor="#ffffff"
     bordercolor="#000000"
     borderopacity="0.25"
     inkscape:showpageshadow="2"
     inkscape:pageopacity="0.0"
     inkscape:pagecheckerboard="0"
     inkscape:deskcolor="#d1d1d1"
     inkscape:document-units="mm"
     inkscape:zoom="1"
     inkscape:cx="201.5"
     inkscape:cy="274"
     inkscape:window-width="1512"
     inkscape:window-height="916"
     inkscape:window-x="0"
     inkscape:window-y="38"
     inkscape:window-maximized="1"
     inkscape:current-layer="layer1"
     showgrid="false" />
  <defs
     id="defs1" />
  <g
     inkscape:label="Layer 1"
     inkscape:groupmode="layer"
     id="layer1"
     transform="translate(-34.449, -117.643)">
    <path
       style="fill:#666666;fill-opacity:1;stroke-linecap:round;stroke-miterlimit:10"
       d="M 54.629425,198.92298 V 118.02269"
       id="path18" />
    <path
       style="fill:#666666;fill-opacity:1;stroke-width:0.999995;stroke-linecap:round;stroke-miterlimit:10"
       d="m 54.628928,119.6648 a 0.19405918,0.19405918 0 0 0 -0.192798,0.19471 v 79.06879 a 0.19405918,0.19405918 0 0 0 0.192798,0.19279 0.19405918,0.19405918 0 0 0 0.194709,-0.19279 v -79.06879 a 0.19405918,0.19405918 0 0 0 -0.194709,-0.19471 z"
       id="path19" />
    <g
       id="g17"
       style="fill:#666666;fill-opacity:1;stroke-width:1.38537"
       transform="matrix(0.52103355,0,0,1,26.165662,0)">
      <path
         style="fill:#666666;fill-opacity:1;stroke:context-stroke;stroke-width:1.38537"
         d="m 57.629425,120.77269 -3,-3 -3,3"
         sodipodi:nodetypes="ccc"
         id="path17" />
    </g>
    <path
       style="fill:#666666;fill-opacity:1;stroke-linecap:round;stroke-miterlimit:10"
       d="M 34.651527,179.90667 H 138.54122"
       id="path21" />
    <path
       style="fill:#666666;fill-opacity:1;stroke-width:1;stroke-linecap:round;stroke-miterlimit:10"
       d="m 34.649412,179.708 a 0.199585,0.199585 0 0 0 -0.200193,0.19826 0.199585,0.199585 0 0 0 0.200193,0.20019 H 137.03856 a 0.199585,0.199585 0 0 0 0.20019,-0.20019 0.199585,0.199585 0 0 0 -0.20019,-0.19826 z"
       id="path22" />
    <g
       id="g20"
       style="fill:#666666;fill-opacity:1;stroke-width:1.37271"
       transform="matrix(1,0,0,0.53069379,0,84.431318)">
      <path
         style="fill:#666666;fill-opacity:1;stroke:context-stroke;stroke-width:1.37271"
         d="m 135.79122,182.90667 3,-3 -3,-3"
         sodipodi:nodetypes="ccc"
         id="path20" />
    </g>
    <path
       style="fill:#000000;fill-opacity:0;stroke-linecap:round;stroke-miterlimit:10"
       d="M 54.629425,179.90667 98.89251,170.51092"
       id="path30" />
    <path
       style="fill:#000000;stroke-linecap:round;stroke-miterlimit:10"
       d="m 98.851562,170.31445 -44.263671,9.39649 a 0.2,0.2 0 0 0 -0.154297,0.23633 0.2,0.2 0 0 0 0.238281,0.15429 l 44.261719,-9.39453 a 0.2,0.2 0 0 0 0.154297,-0.23828 0.2,0.2 0 0 0 -0.236329,-0.1543 z"
       id="path31" />
    <g
       id="g29"
       style="fill:#000000;stroke-width:1.57981"
       transform="matrix(0.63174546,0,0,0.63422956,36.06518,62.532538)">
      <path
         style="fill:#000000;fill-rule:evenodd;stroke:context-stroke;stroke-width:0.789907pt"
         d="m 101.71463,169.91187 -3.711624,3.34357 -1.03822,-4.89102 z"
         id="path29" />
    </g>
    <path
       style="fill:#000000;fill-opacity:0;stroke-linecap:round;stroke-miterlimit:10"
       d="M 54.629425,179.90667 66.756599,156.99582"
       id="path24" />
    <path
       style="fill:#000000;stroke-linecap:round;stroke-miterlimit:10"
       d="m 66.697266,156.80469 a 0.2,0.2 0 0 0 -0.117188,0.0977 L 54.453125,179.8125 a 0.2,0.2 0 0 0 0.08203,0.27148 0.2,0.2 0 0 0 0.271485,-0.084 l 12.126953,-22.91016 a 0.2,0.2 0 0 0 -0.08398,-0.27148 0.2,0.2 0 0 0 -0.152343,-0.0137 z"
       id="path25" />
    <g
       id="g23"
       style="fill:#000000;stroke-width:1.69053"
       transform="matrix(0.5858005,0,0,0.59731906,27.466085,63.404984)">
      <path
         style="fill:#000000;fill-rule:evenodd;stroke:context-stroke;stroke-width:0.845263pt"
         d="m 68.106273,154.446 0.186212,4.99208 -4.419107,-2.33912 z"
         id="path23" />
    </g>
    <path
       style="fill:#f9f9f9;fill-opacity:0;stroke:#666666;stroke-width:0.4;stroke-linecap:round;stroke-miterlimit:10;stroke-dasharray:1.2, 1.2;stroke-dashoffset:0;-inkscape-stroke:none"
       d="m 101.98198,169.75308 12.12718,-22.91085"
       id="path8"
       sodipodi:nodetypes="cc" />
    <path
       style="fill:#f9f9f9;fill-opacity:0;stroke:#666666;stroke-width:0.4;stroke-linecap:round;stroke-miterlimit:10;stroke-dasharray:1.2, 1.2;stroke-dashoffset:0;-inkscape-stroke:none"
       d="M 68.119312,154.04042 112.3824,144.64467"
       id="path9"
       sodipodi:nodetypes="cc" />
    <circle
       id="circle9"
       style="fill:#ff0000;stroke:none;stroke-width:0.264583"
       cx="114.10916"
       cy="144.62102"
       r="1.5" />
    <circle
       id="circle7"
       style="fill:#ff0000;stroke:none;stroke-width:0.264583"
       cx="101.78198"
       cy="169.95308"
       r="1.5" />
    <circle
       id="circle8"
       style="fill:#ff0000;stroke:none;stroke-width:0.264583"
       cx="67.919312"
       cy="154.24042"
       r="1.5" />
    <path
       style="fill:#000000;fill-opacity:0;stroke-linecap:round;stroke-miterlimit:10"
       d="m 54.33906,179.8163 57.4496,-33.45814"
       id="path27" />
    <path
       style="fill:#000000;stroke-linecap:round;stroke-miterlimit:10"
       d="m 111.83984,146.16406 a 0.2,0.2 0 0 0 -0.15234,0.0215 l -57.449219,33.45703 a 0.2,0.2 0 0 0 -0.07227,0.27344 0.2,0.2 0 0 0 0.273437,0.0723 L 111.88867,146.5313 a 0.2,0.2 0 0 0 0.0723,-0.27344 0.2,0.2 0 0 0 -0.1211,-0.0937 z"
       id="path28" />
    <g
       id="g26"
       style="fill:#000000;stroke-width:1.56597"
       transform="matrix(0.64452165,0,0,0.63269916,39.311768,53.948959)">
      <path
         style="fill:#000000;fill-rule:evenodd;stroke:context-stroke;stroke-width:0.782984pt"
         d="m 114.28168,144.90624 -2.47921,4.33695 -2.51632,-4.32066 z"
         id="path26" />
    </g>
    <circle
       id="path4"
       style="fill:#f9f9f9;stroke:#000000;stroke-width:0.264583"
       cx="54.629425"
       cy="179.90668"
       r="1.5" />
    <path
       style="fill:#000000;fill-opacity:0;stroke-linecap:round;stroke-miterlimit:10"
       d="M 67.120494,234.14625 111.38358,224.7505"
       id="path32" />
    <g
       transform="matrix(0.529167,0,0,0.529167,99.717436,172.25342)"
       ns2:version="1.9.0"
       ns2:texconverter="pdflatex"
       ns2:pdfconverter="inkscape"
       ns2:text="$z_1$"
       ns2:preamble="/Users/sachchidanandprasad/Library/Application Support/org.inkscape.Inkscape/config/inkscape/extensions/inkscapeMadeEasy/basicLatexPackages.tex"
       ns2:scale="1.5"
       ns2:alignment="middle center"
       ns2:stroke-to-path="0"
       ns2:inkscapeversion="1.4-beta"
       id="g2599"
       ns2:jacobian_sqrt="0.529167">
      <defs
         id="id-a8c5c985-5a00-4bb0-8915-04c42ac30798">
        <g
           id="id-54fedb71-2cea-4212-97c4-aedc7ff3facb">
          <g
             id="id-95e367b0-e8d1-4311-8488-f772435a1387">
            <path
               d="m 1.328125,-0.828125 c 0.53125,-0.578125 0.828125,-0.828125 1.1875,-1.140625 0,0 0.609375,-0.53125 0.96875,-0.890625 C 4.4375,-3.78125 4.65625,-4.265625 4.65625,-4.3125 c 0,-0.09375 -0.09375,-0.09375 -0.109375,-0.09375 -0.078125,0 -0.09375,0.015625 -0.15625,0.109375 -0.296875,0.484375 -0.5,0.640625 -0.734375,0.640625 -0.25,0 -0.359375,-0.15625 -0.515625,-0.328125 -0.1875,-0.21875 -0.359375,-0.421875 -0.6875,-0.421875 -0.75,0 -1.203125,0.921875 -1.203125,1.140625 0,0.046875 0.03125,0.109375 0.109375,0.109375 0.09375,0 0.109375,-0.046875 0.140625,-0.109375 0.1875,-0.46875 0.765625,-0.46875 0.84375,-0.46875 0.203125,0 0.390625,0.0625 0.625,0.140625 0.40625,0.15625 0.515625,0.15625 0.765625,0.15625 -0.359375,0.421875 -1.1875,1.140625 -1.375,1.296875 l -0.90625,0.84375 C 0.78125,-0.625 0.421875,-0.0625 0.421875,0.015625 c 0,0.09375 0.109375,0.09375 0.125,0.09375 0.078125,0 0.09375,-0.015625 0.15625,-0.125 0.234375,-0.359375 0.53125,-0.625 0.859375,-0.625 0.21875,0 0.328125,0.09375 0.578125,0.375 0.15625,0.21875 0.34375,0.375 0.625,0.375 1,0 1.578125,-1.265625 1.578125,-1.53125 0,-0.046875 -0.046875,-0.109375 -0.125,-0.109375 -0.09375,0 -0.109375,0.0625 -0.140625,0.140625 C 3.84375,-0.75 3.203125,-0.5625 2.875,-0.5625 c -0.1875,0 -0.375,-0.0625 -0.578125,-0.125 -0.34375,-0.125 -0.5,-0.171875 -0.703125,-0.171875 -0.015625,0 -0.171875,0 -0.265625,0.03125 z m 0,0"
               id="id-3aded816-6253-4483-b825-28e0b6192283" />
          </g>
          <g
             id="id-c4c49721-1d70-4156-8c3e-e33dd26df8f8">
            <path
               d="m 2.328125,-4.4375 c 0,-0.1875 0,-0.1875 -0.203125,-0.1875 -0.453125,0.4375 -1.078125,0.4375 -1.359375,0.4375 v 0.25 c 0.15625,0 0.625,0 1,-0.1875 v 3.546875 c 0,0.234375 0,0.328125 -0.6875,0.328125 H 0.8125 V 0 c 0.125,0 0.984375,-0.03125 1.234375,-0.03125 0.21875,0 1.09375,0.03125 1.25,0.03125 V -0.25 H 3.03125 c -0.703125,0 -0.703125,-0.09375 -0.703125,-0.328125 z m 0,0"
               id="id-6e982810-c885-49f4-a5cd-f155530e0295" />
          </g>
        </g>
      </defs>
      <g
         fill="#000000"
         fill-opacity="1"
         id="id-97fcfce9-42e6-4085-af64-62bca8fa8337"
         transform="translate(-149.134,-130.359)">
        <g
           transform="translate(148.712,134.765)"
           id="g2103">
          <path
             d="m 1.328125,-0.828125 c 0.53125,-0.578125 0.828125,-0.828125 1.1875,-1.140625 0,0 0.609375,-0.53125 0.96875,-0.890625 C 4.4375,-3.78125 4.65625,-4.265625 4.65625,-4.3125 c 0,-0.09375 -0.09375,-0.09375 -0.109375,-0.09375 -0.078125,0 -0.09375,0.015625 -0.15625,0.109375 -0.296875,0.484375 -0.5,0.640625 -0.734375,0.640625 -0.25,0 -0.359375,-0.15625 -0.515625,-0.328125 -0.1875,-0.21875 -0.359375,-0.421875 -0.6875,-0.421875 -0.75,0 -1.203125,0.921875 -1.203125,1.140625 0,0.046875 0.03125,0.109375 0.109375,0.109375 0.09375,0 0.109375,-0.046875 0.140625,-0.109375 0.1875,-0.46875 0.765625,-0.46875 0.84375,-0.46875 0.203125,0 0.390625,0.0625 0.625,0.140625 0.40625,0.15625 0.515625,0.15625 0.765625,0.15625 -0.359375,0.421875 -1.1875,1.140625 -1.375,1.296875 l -0.90625,0.84375 C 0.78125,-0.625 0.421875,-0.0625 0.421875,0.015625 c 0,0.09375 0.109375,0.09375 0.125,0.09375 0.078125,0 0.09375,-0.015625 0.15625,-0.125 0.234375,-0.359375 0.53125,-0.625 0.859375,-0.625 0.21875,0 0.328125,0.09375 0.578125,0.375 0.15625,0.21875 0.34375,0.375 0.625,0.375 1,0 1.578125,-1.265625 1.578125,-1.53125 0,-0.046875 -0.046875,-0.109375 -0.125,-0.109375 -0.09375,0 -0.109375,0.0625 -0.140625,0.140625 C 3.84375,-0.75 3.203125,-0.5625 2.875,-0.5625 c -0.1875,0 -0.375,-0.0625 -0.578125,-0.125 -0.34375,-0.125 -0.5,-0.171875 -0.703125,-0.171875 -0.015625,0 -0.171875,0 -0.265625,0.03125 z m 0,0"
             id="id-8d2645fd-387d-4bcb-b1b7-d9e83f4b9f0b" />
        </g>
      </g>
      <g
         fill="#000000"
         fill-opacity="1"
         id="id-3395378f-56ef-4966-b562-4758d62c6088"
         transform="translate(-149.134,-130.359)">
        <g
           transform="translate(153.345,136.259)"
           id="g8073">
          <path
             d="m 2.328125,-4.4375 c 0,-0.1875 0,-0.1875 -0.203125,-0.1875 -0.453125,0.4375 -1.078125,0.4375 -1.359375,0.4375 v 0.25 c 0.15625,0 0.625,0 1,-0.1875 v 3.546875 c 0,0.234375 0,0.328125 -0.6875,0.328125 H 0.8125 V 0 c 0.125,0 0.984375,-0.03125 1.234375,-0.03125 0.21875,0 1.09375,0.03125 1.25,0.03125 V -0.25 H 3.03125 c -0.703125,0 -0.703125,-0.09375 -0.703125,-0.328125 z m 0,0"
             id="id-c68299d2-e255-4ff5-a738-0a50c3cb0b1a" />
        </g>
      </g>
    </g>
    <g
       transform="matrix(0.529167,0,0,0.529167,60.900291,151.58869)"
       ns2:version="1.9.0"
       ns2:texconverter="pdflatex"
       ns2:pdfconverter="inkscape"
       ns2:text="$z_2$"
       ns2:preamble="/Users/sachchidanandprasad/Library/Application Support/org.inkscape.Inkscape/config/inkscape/extensions/inkscapeMadeEasy/basicLatexPackages.tex"
       ns2:scale="1.5"
       ns2:alignment="middle center"
       ns2:stroke-to-path="0"
       ns2:inkscapeversion="1.4-beta"
       id="g42"
       ns2:jacobian_sqrt="0.529167">
      <defs
         id="id-95b2c560-24af-4c39-8c60-6625b8030992">
        <g
           id="id-c6c4ffcc-3f77-4b3f-bff6-7e348eedc6fe">
          <g
             id="id-87fe76f7-d668-4755-84bc-99971f0d1679">
            <path
               d="m 1.328125,-0.828125 c 0.53125,-0.578125 0.828125,-0.828125 1.1875,-1.140625 0,0 0.609375,-0.53125 0.96875,-0.890625 C 4.4375,-3.78125 4.65625,-4.265625 4.65625,-4.3125 c 0,-0.09375 -0.09375,-0.09375 -0.109375,-0.09375 -0.078125,0 -0.09375,0.015625 -0.15625,0.109375 -0.296875,0.484375 -0.5,0.640625 -0.734375,0.640625 -0.25,0 -0.359375,-0.15625 -0.515625,-0.328125 -0.1875,-0.21875 -0.359375,-0.421875 -0.6875,-0.421875 -0.75,0 -1.203125,0.921875 -1.203125,1.140625 0,0.046875 0.03125,0.109375 0.109375,0.109375 0.09375,0 0.109375,-0.046875 0.140625,-0.109375 0.1875,-0.46875 0.765625,-0.46875 0.84375,-0.46875 0.203125,0 0.390625,0.0625 0.625,0.140625 0.40625,0.15625 0.515625,0.15625 0.765625,0.15625 -0.359375,0.421875 -1.1875,1.140625 -1.375,1.296875 l -0.90625,0.84375 C 0.78125,-0.625 0.421875,-0.0625 0.421875,0.015625 c 0,0.09375 0.109375,0.09375 0.125,0.09375 0.078125,0 0.09375,-0.015625 0.15625,-0.125 0.234375,-0.359375 0.53125,-0.625 0.859375,-0.625 0.21875,0 0.328125,0.09375 0.578125,0.375 0.15625,0.21875 0.34375,0.375 0.625,0.375 1,0 1.578125,-1.265625 1.578125,-1.53125 0,-0.046875 -0.046875,-0.109375 -0.125,-0.109375 -0.09375,0 -0.109375,0.0625 -0.140625,0.140625 C 3.84375,-0.75 3.203125,-0.5625 2.875,-0.5625 c -0.1875,0 -0.375,-0.0625 -0.578125,-0.125 -0.34375,-0.125 -0.5,-0.171875 -0.703125,-0.171875 -0.015625,0 -0.171875,0 -0.265625,0.03125 z m 0,0"
               id="id-4cf3d0f5-c98b-4b4e-9647-a622e17f451e" />
          </g>
          <g
             id="id-5f03ea1a-dac6-421f-abbb-aa98de8c85ad">
            <path
               d="M 3.515625,-1.265625 H 3.28125 c -0.015625,0.15625 -0.09375,0.5625 -0.1875,0.625 C 3.046875,-0.59375 2.515625,-0.59375 2.40625,-0.59375 H 1.125 c 0.734375,-0.640625 0.984375,-0.84375 1.390625,-1.171875 0.515625,-0.40625 1,-0.84375 1,-1.5 0,-0.84375 -0.734375,-1.359375 -1.625,-1.359375 -0.859375,0 -1.453125,0.609375 -1.453125,1.25 0,0.34375 0.296875,0.390625 0.375,0.390625 0.15625,0 0.359375,-0.125 0.359375,-0.375 0,-0.125 -0.046875,-0.375 -0.40625,-0.375 C 0.984375,-4.21875 1.453125,-4.375 1.78125,-4.375 c 0.703125,0 1.0625,0.546875 1.0625,1.109375 0,0.609375 -0.4375,1.078125 -0.65625,1.328125 L 0.515625,-0.265625 C 0.4375,-0.203125 0.4375,-0.1875 0.4375,0 h 2.875 z m 0,0"
               id="id-f749aee5-c826-4e33-92dd-d6198daaaab5" />
          </g>
        </g>
      </defs>
      <g
         fill="#000000"
         fill-opacity="1"
         id="id-7ebd1d71-578d-4c3c-be0a-cfca390cc7b9"
         transform="translate(-149.134,-130.359)">
        <g
           transform="translate(148.712,134.765)"
           id="g9976">
          <path
             d="m 1.328125,-0.828125 c 0.53125,-0.578125 0.828125,-0.828125 1.1875,-1.140625 0,0 0.609375,-0.53125 0.96875,-0.890625 C 4.4375,-3.78125 4.65625,-4.265625 4.65625,-4.3125 c 0,-0.09375 -0.09375,-0.09375 -0.109375,-0.09375 -0.078125,0 -0.09375,0.015625 -0.15625,0.109375 -0.296875,0.484375 -0.5,0.640625 -0.734375,0.640625 -0.25,0 -0.359375,-0.15625 -0.515625,-0.328125 -0.1875,-0.21875 -0.359375,-0.421875 -0.6875,-0.421875 -0.75,0 -1.203125,0.921875 -1.203125,1.140625 0,0.046875 0.03125,0.109375 0.109375,0.109375 0.09375,0 0.109375,-0.046875 0.140625,-0.109375 0.1875,-0.46875 0.765625,-0.46875 0.84375,-0.46875 0.203125,0 0.390625,0.0625 0.625,0.140625 0.40625,0.15625 0.515625,0.15625 0.765625,0.15625 -0.359375,0.421875 -1.1875,1.140625 -1.375,1.296875 l -0.90625,0.84375 C 0.78125,-0.625 0.421875,-0.0625 0.421875,0.015625 c 0,0.09375 0.109375,0.09375 0.125,0.09375 0.078125,0 0.09375,-0.015625 0.15625,-0.125 0.234375,-0.359375 0.53125,-0.625 0.859375,-0.625 0.21875,0 0.328125,0.09375 0.578125,0.375 0.15625,0.21875 0.34375,0.375 0.625,0.375 1,0 1.578125,-1.265625 1.578125,-1.53125 0,-0.046875 -0.046875,-0.109375 -0.125,-0.109375 -0.09375,0 -0.109375,0.0625 -0.140625,0.140625 C 3.84375,-0.75 3.203125,-0.5625 2.875,-0.5625 c -0.1875,0 -0.375,-0.0625 -0.578125,-0.125 -0.34375,-0.125 -0.5,-0.171875 -0.703125,-0.171875 -0.015625,0 -0.171875,0 -0.265625,0.03125 z m 0,0"
             id="id-56105922-1ace-4db2-9457-7327f6ec66dc" />
        </g>
      </g>
      <g
         fill="#000000"
         fill-opacity="1"
         id="id-67891008-7b37-442f-b90c-131249e56fac"
         transform="translate(-149.134,-130.359)">
        <g
           transform="translate(153.345,136.259)"
           id="g787">
          <path
             d="M 3.515625,-1.265625 H 3.28125 c -0.015625,0.15625 -0.09375,0.5625 -0.1875,0.625 C 3.046875,-0.59375 2.515625,-0.59375 2.40625,-0.59375 H 1.125 c 0.734375,-0.640625 0.984375,-0.84375 1.390625,-1.171875 0.515625,-0.40625 1,-0.84375 1,-1.5 0,-0.84375 -0.734375,-1.359375 -1.625,-1.359375 -0.859375,0 -1.453125,0.609375 -1.453125,1.25 0,0.34375 0.296875,0.390625 0.375,0.390625 0.15625,0 0.359375,-0.125 0.359375,-0.375 0,-0.125 -0.046875,-0.375 -0.40625,-0.375 C 0.984375,-4.21875 1.453125,-4.375 1.78125,-4.375 c 0.703125,0 1.0625,0.546875 1.0625,1.109375 0,0.609375 -0.4375,1.078125 -0.65625,1.328125 L 0.515625,-0.265625 C 0.4375,-0.203125 0.4375,-0.1875 0.4375,0 h 2.875 z m 0,0"
             id="id-c2c68491-030a-4d42-90f2-ab3f9db056de" />
        </g>
      </g>
    </g>
    <g
       transform="matrix(0.529167,0,0,0.529167,104.58907,138.41054)"
       ns2:version="1.9.0"
       ns2:texconverter="pdflatex"
       ns2:pdfconverter="inkscape"
       ns2:text="$z_1 + z_2$"
       ns2:preamble="/Users/sachchidanandprasad/Library/Application Support/org.inkscape.Inkscape/config/inkscape/extensions/inkscapeMadeEasy/basicLatexPackages.tex"
       ns2:scale="1.5"
       ns2:alignment="middle center"
       ns2:stroke-to-path="0"
       ns2:inkscapeversion="1.4-beta"
       id="g50"
       ns2:jacobian_sqrt="0.529167">
      <defs
         id="id-46897939-ec20-4f4c-82a9-a0152ac89fda">
        <g
           id="id-d6655003-1833-4fed-8ffd-ac0656a2a9f9">
          <g
             id="id-da502672-937e-463f-a3ac-fdd5ae71058f">
            <path
               d="m 1.328125,-0.828125 c 0.53125,-0.578125 0.828125,-0.828125 1.1875,-1.140625 0,0 0.609375,-0.53125 0.96875,-0.890625 C 4.4375,-3.78125 4.65625,-4.265625 4.65625,-4.3125 c 0,-0.09375 -0.09375,-0.09375 -0.109375,-0.09375 -0.078125,0 -0.09375,0.015625 -0.15625,0.109375 -0.296875,0.484375 -0.5,0.640625 -0.734375,0.640625 -0.25,0 -0.359375,-0.15625 -0.515625,-0.328125 -0.1875,-0.21875 -0.359375,-0.421875 -0.6875,-0.421875 -0.75,0 -1.203125,0.921875 -1.203125,1.140625 0,0.046875 0.03125,0.109375 0.109375,0.109375 0.09375,0 0.109375,-0.046875 0.140625,-0.109375 0.1875,-0.46875 0.765625,-0.46875 0.84375,-0.46875 0.203125,0 0.390625,0.0625 0.625,0.140625 0.40625,0.15625 0.515625,0.15625 0.765625,0.15625 -0.359375,0.421875 -1.1875,1.140625 -1.375,1.296875 l -0.90625,0.84375 C 0.78125,-0.625 0.421875,-0.0625 0.421875,0.015625 c 0,0.09375 0.109375,0.09375 0.125,0.09375 0.078125,0 0.09375,-0.015625 0.15625,-0.125 0.234375,-0.359375 0.53125,-0.625 0.859375,-0.625 0.21875,0 0.328125,0.09375 0.578125,0.375 0.15625,0.21875 0.34375,0.375 0.625,0.375 1,0 1.578125,-1.265625 1.578125,-1.53125 0,-0.046875 -0.046875,-0.109375 -0.125,-0.109375 -0.09375,0 -0.109375,0.0625 -0.140625,0.140625 C 3.84375,-0.75 3.203125,-0.5625 2.875,-0.5625 c -0.1875,0 -0.375,-0.0625 -0.578125,-0.125 -0.34375,-0.125 -0.5,-0.171875 -0.703125,-0.171875 -0.015625,0 -0.171875,0 -0.265625,0.03125 z m 0,0"
               id="id-0b33da0e-1295-4ec3-80f3-c87b72abaf7d" />
          </g>
          <g
             id="id-9ec6184b-6eeb-40e6-9af8-6d2241fe4028">
            <path
               d="m 2.328125,-4.4375 c 0,-0.1875 0,-0.1875 -0.203125,-0.1875 -0.453125,0.4375 -1.078125,0.4375 -1.359375,0.4375 v 0.25 c 0.15625,0 0.625,0 1,-0.1875 v 3.546875 c 0,0.234375 0,0.328125 -0.6875,0.328125 H 0.8125 V 0 c 0.125,0 0.984375,-0.03125 1.234375,-0.03125 0.21875,0 1.09375,0.03125 1.25,0.03125 V -0.25 H 3.03125 c -0.703125,0 -0.703125,-0.09375 -0.703125,-0.328125 z m 0,0"
               id="id-23f40760-4a9f-49b5-827a-870b1d55ce84" />
          </g>
          <g
             id="id-a8b09c9a-7788-4386-baec-3a1bac8e9080">
            <path
               d="M 3.515625,-1.265625 H 3.28125 c -0.015625,0.15625 -0.09375,0.5625 -0.1875,0.625 C 3.046875,-0.59375 2.515625,-0.59375 2.40625,-0.59375 H 1.125 c 0.734375,-0.640625 0.984375,-0.84375 1.390625,-1.171875 0.515625,-0.40625 1,-0.84375 1,-1.5 0,-0.84375 -0.734375,-1.359375 -1.625,-1.359375 -0.859375,0 -1.453125,0.609375 -1.453125,1.25 0,0.34375 0.296875,0.390625 0.375,0.390625 0.15625,0 0.359375,-0.125 0.359375,-0.375 0,-0.125 -0.046875,-0.375 -0.40625,-0.375 C 0.984375,-4.21875 1.453125,-4.375 1.78125,-4.375 c 0.703125,0 1.0625,0.546875 1.0625,1.109375 0,0.609375 -0.4375,1.078125 -0.65625,1.328125 L 0.515625,-0.265625 C 0.4375,-0.203125 0.4375,-0.1875 0.4375,0 h 2.875 z m 0,0"
               id="id-22fa68b4-ada0-4f96-a772-98f1f945260e" />
          </g>
          <g
             id="id-3054364f-9ca7-463e-b92f-98fb563ce6dc">
            <path
               d="m 4.078125,-2.296875 h 2.78125 C 7,-2.296875 7.1875,-2.296875 7.1875,-2.5 7.1875,-2.6875 7,-2.6875 6.859375,-2.6875 h -2.78125 v -2.796875 c 0,-0.140625 0,-0.328125 -0.203125,-0.328125 -0.203125,0 -0.203125,0.1875 -0.203125,0.328125 V -2.6875 h -2.78125 c -0.140625,0 -0.328125,0 -0.328125,0.1875 0,0.203125 0.1875,0.203125 0.328125,0.203125 h 2.78125 V 0.5 c 0,0.140625 0,0.328125 0.203125,0.328125 0.203125,0 0.203125,-0.1875 0.203125,-0.328125 z m 0,0"
               id="id-8dba6cba-b314-4b8b-97b1-be063eeefba6" />
          </g>
        </g>
      </defs>
      <g
         fill="#000000"
         fill-opacity="1"
         id="id-6d3226db-bd20-44ec-b989-6b3c54bf834b"
         transform="translate(-149.134,-128.952)">
        <g
           transform="translate(148.712,134.765)"
           id="g9444">
          <path
             d="m 1.328125,-0.828125 c 0.53125,-0.578125 0.828125,-0.828125 1.1875,-1.140625 0,0 0.609375,-0.53125 0.96875,-0.890625 C 4.4375,-3.78125 4.65625,-4.265625 4.65625,-4.3125 c 0,-0.09375 -0.09375,-0.09375 -0.109375,-0.09375 -0.078125,0 -0.09375,0.015625 -0.15625,0.109375 -0.296875,0.484375 -0.5,0.640625 -0.734375,0.640625 -0.25,0 -0.359375,-0.15625 -0.515625,-0.328125 -0.1875,-0.21875 -0.359375,-0.421875 -0.6875,-0.421875 -0.75,0 -1.203125,0.921875 -1.203125,1.140625 0,0.046875 0.03125,0.109375 0.109375,0.109375 0.09375,0 0.109375,-0.046875 0.140625,-0.109375 0.1875,-0.46875 0.765625,-0.46875 0.84375,-0.46875 0.203125,0 0.390625,0.0625 0.625,0.140625 0.40625,0.15625 0.515625,0.15625 0.765625,0.15625 -0.359375,0.421875 -1.1875,1.140625 -1.375,1.296875 l -0.90625,0.84375 C 0.78125,-0.625 0.421875,-0.0625 0.421875,0.015625 c 0,0.09375 0.109375,0.09375 0.125,0.09375 0.078125,0 0.09375,-0.015625 0.15625,-0.125 0.234375,-0.359375 0.53125,-0.625 0.859375,-0.625 0.21875,0 0.328125,0.09375 0.578125,0.375 0.15625,0.21875 0.34375,0.375 0.625,0.375 1,0 1.578125,-1.265625 1.578125,-1.53125 0,-0.046875 -0.046875,-0.109375 -0.125,-0.109375 -0.09375,0 -0.109375,0.0625 -0.140625,0.140625 C 3.84375,-0.75 3.203125,-0.5625 2.875,-0.5625 c -0.1875,0 -0.375,-0.0625 -0.578125,-0.125 -0.34375,-0.125 -0.5,-0.171875 -0.703125,-0.171875 -0.015625,0 -0.171875,0 -0.265625,0.03125 z m 0,0"
             id="id-96ad192b-195d-4a2a-8dd3-3169974d11ed" />
        </g>
      </g>
      <g
         fill="#000000"
         fill-opacity="1"
         id="id-2ede41f3-55dc-4121-bf19-14fd40c9dd1c"
         transform="translate(-149.134,-128.952)">
        <g
           transform="translate(153.345,136.259)"
           id="g830">
          <path
             d="m 2.328125,-4.4375 c 0,-0.1875 0,-0.1875 -0.203125,-0.1875 -0.453125,0.4375 -1.078125,0.4375 -1.359375,0.4375 v 0.25 c 0.15625,0 0.625,0 1,-0.1875 v 3.546875 c 0,0.234375 0,0.328125 -0.6875,0.328125 H 0.8125 V 0 c 0.125,0 0.984375,-0.03125 1.234375,-0.03125 0.21875,0 1.09375,0.03125 1.25,0.03125 V -0.25 H 3.03125 c -0.703125,0 -0.703125,-0.09375 -0.703125,-0.328125 z m 0,0"
             id="id-a6b653b7-6c21-4fd3-a0df-e240246f729e" />
        </g>
      </g>
      <g
         fill="#000000"
         fill-opacity="1"
         id="id-3baff0e1-d2a4-4fe7-8452-d3b68b491f3f"
         transform="translate(-149.134,-128.952)">
        <g
           transform="translate(160.029,134.765)"
           id="g1546">
          <path
             d="m 4.078125,-2.296875 h 2.78125 C 7,-2.296875 7.1875,-2.296875 7.1875,-2.5 7.1875,-2.6875 7,-2.6875 6.859375,-2.6875 h -2.78125 v -2.796875 c 0,-0.140625 0,-0.328125 -0.203125,-0.328125 -0.203125,0 -0.203125,0.1875 -0.203125,0.328125 V -2.6875 h -2.78125 c -0.140625,0 -0.328125,0 -0.328125,0.1875 0,0.203125 0.1875,0.203125 0.328125,0.203125 h 2.78125 V 0.5 c 0,0.140625 0,0.328125 0.203125,0.328125 0.203125,0 0.203125,-0.1875 0.203125,-0.328125 z m 0,0"
             id="id-b5ec9b36-39ca-49ea-838a-4ea05ad9b7b0" />
        </g>
      </g>
      <g
         fill="#000000"
         fill-opacity="1"
         id="id-72ffd306-731e-4e13-9713-f0329efa1e06"
         transform="translate(-149.134,-128.952)">
        <g
           transform="translate(169.991,134.765)"
           id="g2192">
          <path
             d="m 1.328125,-0.828125 c 0.53125,-0.578125 0.828125,-0.828125 1.1875,-1.140625 0,0 0.609375,-0.53125 0.96875,-0.890625 C 4.4375,-3.78125 4.65625,-4.265625 4.65625,-4.3125 c 0,-0.09375 -0.09375,-0.09375 -0.109375,-0.09375 -0.078125,0 -0.09375,0.015625 -0.15625,0.109375 -0.296875,0.484375 -0.5,0.640625 -0.734375,0.640625 -0.25,0 -0.359375,-0.15625 -0.515625,-0.328125 -0.1875,-0.21875 -0.359375,-0.421875 -0.6875,-0.421875 -0.75,0 -1.203125,0.921875 -1.203125,1.140625 0,0.046875 0.03125,0.109375 0.109375,0.109375 0.09375,0 0.109375,-0.046875 0.140625,-0.109375 0.1875,-0.46875 0.765625,-0.46875 0.84375,-0.46875 0.203125,0 0.390625,0.0625 0.625,0.140625 0.40625,0.15625 0.515625,0.15625 0.765625,0.15625 -0.359375,0.421875 -1.1875,1.140625 -1.375,1.296875 l -0.90625,0.84375 C 0.78125,-0.625 0.421875,-0.0625 0.421875,0.015625 c 0,0.09375 0.109375,0.09375 0.125,0.09375 0.078125,0 0.09375,-0.015625 0.15625,-0.125 0.234375,-0.359375 0.53125,-0.625 0.859375,-0.625 0.21875,0 0.328125,0.09375 0.578125,0.375 0.15625,0.21875 0.34375,0.375 0.625,0.375 1,0 1.578125,-1.265625 1.578125,-1.53125 0,-0.046875 -0.046875,-0.109375 -0.125,-0.109375 -0.09375,0 -0.109375,0.0625 -0.140625,0.140625 C 3.84375,-0.75 3.203125,-0.5625 2.875,-0.5625 c -0.1875,0 -0.375,-0.0625 -0.578125,-0.125 -0.34375,-0.125 -0.5,-0.171875 -0.703125,-0.171875 -0.015625,0 -0.171875,0 -0.265625,0.03125 z m 0,0"
             id="id-65c9d5d5-e9b4-4588-93bc-fc4f2fc81693" />
        </g>
      </g>
      <g
         fill="#000000"
         fill-opacity="1"
         id="id-87e4204a-e3be-4308-9866-834a6ed0c230"
         transform="translate(-149.134,-128.952)">
        <g
           transform="translate(174.624,136.259)"
           id="g6884">
          <path
             d="M 3.515625,-1.265625 H 3.28125 c -0.015625,0.15625 -0.09375,0.5625 -0.1875,0.625 C 3.046875,-0.59375 2.515625,-0.59375 2.40625,-0.59375 H 1.125 c 0.734375,-0.640625 0.984375,-0.84375 1.390625,-1.171875 0.515625,-0.40625 1,-0.84375 1,-1.5 0,-0.84375 -0.734375,-1.359375 -1.625,-1.359375 -0.859375,0 -1.453125,0.609375 -1.453125,1.25 0,0.34375 0.296875,0.390625 0.375,0.390625 0.15625,0 0.359375,-0.125 0.359375,-0.375 0,-0.125 -0.046875,-0.375 -0.40625,-0.375 C 0.984375,-4.21875 1.453125,-4.375 1.78125,-4.375 c 0.703125,0 1.0625,0.546875 1.0625,1.109375 0,0.609375 -0.4375,1.078125 -0.65625,1.328125 L 0.515625,-0.265625 C 0.4375,-0.203125 0.4375,-0.1875 0.4375,0 h 2.875 z m 0,0"
             id="id-093cff68-de6e-4cbf-8a1e-23be7b440d24" />
        </g>
      </g>
    </g>
  </g>
</svg>
